<?xml version="1.0" encoding="utf-8"?>
<!-- Generator: Adobe Illustrator 17.1.0, SVG Export Plug-In . SVG Version: 6.00 Build 0)  -->
<!DOCTYPE svg PUBLIC "-//W3C//DTD SVG 1.1//EN" "http://www.w3.org/Graphics/SVG/1.1/DTD/svg11.dtd">
<svg version="1.1" id="Layer_1" xmlns="http://www.w3.org/2000/svg" xmlns:xlink="http://www.w3.org/1999/xlink" x="0px" y="0px"
	 viewBox="0 0 638.4 251.7" style="enable-background:new 0 0 638.4 251.7;" xml:space="preserve">
<style type="text/css">
	.st0{fill:#040101;}
	.st1{fill:#FC0000;}
	.st2{fill:#F80102;}
</style>
<g>
	<g>
		<path class="st0" d="M220.8,152.1c0-16.3,0-32.7,0-49c2.4-0.3,4.3-1.7,6.3-2.8c9.2-5.1,16.7-12.4,25.7-17.8
			c10-5.9,19.9-11.9,27.8-20.7c5.3-5.9,9.4-13.2,17.8-15.9c6.8-2.2,9.8-9.6,15.4-12.9c10.7-6.3,21.3-13.5,33.9-15.8
			c10.3-2,16.3-8.7,21.1-17.1c4.7,0,9.3,0,14,0c0,1.1,0.5,2,1.8,1.9c2.7,0,4.7,0.8,4.2,4c-0.5,3.1-2.8,2.1-4.7,1.7
			c-0.7-0.2-1.7-0.3-1.6,0.3c0.4,3.3-3.5,4-4.2,7.4c4.5-1.5,8.7-1.8,13,0.1c1.6,0.7,6.3,1.3,2.8-3.7c-1-1.4-0.4-3.5,1.5-4.7
			c2-1.3,3.5-0.7,4.7,1c2.1,2.8,5.1,4.6,7.6,7c1.3,1.3,2.6,1.2,2.8-0.7c0.3-4.3,1.6-3.5,4-1.2c1.7,1.6,4,2.6,6.1,3.9
			c0,1.7,0,3.3,0,5c-3.4,1.4-2.6,4.4-3.1,7.1c-0.9,4,0.6,9.2-4.9,11.4c-3.1,1.2-6,0.1-8.7-0.8c-2.9-0.9-4.8-2.9-1.4-5.7
			c1.4-1.1,2.1-2.6,2.7-4.1c1.6-4.2,2.4-9.2,9.7-5.7c-4.8-5.1-6.8-5.3-10.4-1.5c-2,2.1-3.7,4.6-6.8,5.5c-1.9,0.5-2.7,2.2-1.3,3.9
			c2.2,2.7,1,4.2-1.6,5.3c-1.7,0.8-2.9,2.2-4.2,3.4c-2.7,2.4-6,4.5-9.8,2.7c-1.7-0.8-2.7-1.9-4.1,0c-1.3,1.9-3.4,4.4-1.4,6.2
			c3,2.6,1,3.2-0.8,4.3c-2.1,1.3-4.2,2.7-6.5,3.7c-2.3,1-5.6,2.7-6.7-1c-0.7-2.4-1.9-6.1,1.9-7.9c1.5-0.7,2.5-2.1,3.7-3.1
			c4.4-3.7,6.7-9.2,11.1-12.9c0.9-0.7,2.8-1.3,1.8-2.8c-1-1.5-2.3,0.2-3.5,0.4c-0.9,0.1-1.6,1.1-2.5,1.6c-4.3,3-8.1,6.9-14.2,6.3
			c-1.9-0.2-3.1,1.7-4.3,3.1c-2.5,2.8-5.9,2.7-8.1-0.6c-0.5-0.8-1-0.7-1.5-0.7c-3.4,0.1-3.8,3-4.5,5.2c-0.7,2.5,2,1.3,3,2
			c1.3,0.9,2.9,0.5,4.4,0.8c8,1.1,12.4,9.4,8.8,16.7c-2.9-1.6-5.3-3.8-8.5-5.1c-14.5-6.1-28.2-5.5-41.5,3.1
			c-8.6,5.6-9.2,8.5-2.9,16.7c2,2.6,3.1,5.4,1.2,8.3c-4.5,6.8-6.8,14.1-7.5,22.3c-0.7,8.1,3.3,17.1,10.9,19
			c7.1,1.7,12.2,5.4,15.9,12c0.9-4.8,1.2-4.6,3.7-7.7c2.6-3.2,4.7-1.1,7.3-0.3c2.7,0.8,5.3-0.2,7.3-2.2c2.4-2.4-0.6-3.3-1.3-4.9
			c-1.1-2.7-0.5-4.5,2.8-4.8c2.8-0.2,5.8-1.1,7.4-3.3c2.4-3.3,6-3,9.2-4.1c1.3-0.4,2.3,0.4,1.9,1.3c-1.3,3.2,1.3,6.1,0.3,9.4
			c-1.2,3.9,4,11,8,12.1c3,0.8,4.9,5.5,2.7,7.4c-3.3,2.8-2.6,5.5-0.7,9.8c1.4-3.9,2.9-5.5,6-2.3c1,1,2.5-1.2,2.5-2.5
			c0-1-0.3-2.4,0.7-2.3c4.8,0.6,7-3.9,10.6-5.1c6.3-2.1,10.3-7.1,15.7-10.3c3.8-2.3,7.2-3.4,11.3-3.1c0,2.3,0,4.7,0,7
			c-2.7,3.3-2.6,8.7-8.2,10c3.8,2.7,5.5-1.5,8.2-1c0,1.3,0,2.7,0,4c-1.6,1.7-2.3-1.7-4.1-0.6c-3.9,2.4-9.8,1.9-11,8
			c-0.2,0.9-0.8,1.4-1.7,1.5c-4.1,0.7-6.6,3.5-9.1,6.4c-0.8,0.9-1.6,1.9-2.9,1.4c-1.7-0.6-1-2.2-1.1-3.5c-0.1-2.1,1.2-3.4,3-4.1
			c1.3-0.5,3.6,0,3.3-1.9c-0.3-1.6-2.5-1-3.9-1.3c-3.2-0.7-5.1,2.3-7.6,2.7c-3.1,0.5-7.3,0.5-5.8,4.4c1.9,4.8,4-0.9,6.3-1.2
			c1.1-0.1,2.2-1.2,2.6,0.8c0.5,2.6-4.9,10.5-7.4,11.4c-3.6,1.2-8.5,1.5-10.7,3.6c-4.1,3.9-7.4,7.7-13.6,8c-2.9,0.1-3.7,1.7-1.2,4.1
			c2.6,2.7,2.6,5.7,0,8.4c-2.3,2.4-2.5,5.5-2.5,8.3c-0.1,3.7,1.9,7.2,0.7,11.1c-0.3,1.1,0.8,2,2.1,2.4c5.1,1.7,9.1,0,11.8-4.9
			c1-1.7,1.9-3.5,3.2-5c1.4-1.7,3.1-1.2,4.2,0.3c2,2.8,0.2,7.3-3.2,7.2c-2.8-0.1-3.6,1.2-4.2,3.1c-1.2,4-4.7,6.6-5.8,10.9
			c-0.4,1.6-3.4,5.6-5.3,4.7c-2.5-1.2,1.1-3.8,1.2-6c0.1-1.5,1.8-3.3-0.3-4.4c-2-1-2.9,0.7-4.3,1.9c-3.4,3-5.1,11.4-12.2,4.6
			c-0.1-0.1-0.3-0.1-0.5,0c-6.3,1.8-11.7-2.7-17.8-2.7c-0.7,0-1.5-0.7-2.2,0c-0.8,0.8,0,1.5,0.4,2.2c0.9,1.4,1.8,3,3.9,1.9
			c1.2-0.6,2.8,0.2,2.2,1.2c-1.8,3.3,1.2,4.9,2.1,7.2c1.6,4.1,6.4,5.8,7.6,10.1c-9.3,0-18.7,0-28,0c-0.9-1.5-1.2-3.9-3.4-3.8
			c-2.8,0.1-4.3-1.8-6.4-2.8c-3.1-1.5-4.9-4.1-6.7-6.4c-2.3-2.9-4.2,0.3-6.5-0.3c-1.5-0.4-1,2.7-0.9,4.2c0.2,3,1.5,5.3,4.7,6.3
			c1.4,0.4,3.5,0.4,3.2,2.9c-4,0-8,0-12,0c-0.1-3.9-2.9-6.7-4-10.3c-0.9-3.2-3.1-6.5-5.8-8.4c-2-1.5-5.3-1-6.3-4.4
			c-0.3-1.1-1.7-0.3-1.8,1c-0.2,1.8,0.5,3.4,1.1,5.1c2,5.6,5.1,11,5.8,17c-12,0-24,0-36,0c3-1.9,2.4-5.5,3.7-8.1
			c2.3-4.5-1.1-5.9-3.7-7.7c-0.7-0.5-2.4-0.2-3.3,0.3c-1.4,0.8-0.1,2,0,3.1c0.2,2.8,3,3.8,4,6.3c-2.9,0.2-6,0.3-3,4.4
			c0.2,0.3-0.4,1.2-0.6,1.8c-3.3,0-6.7,0-10,0c0-3.3,0-6.7,0-10c0-6,0-12,0-18c2.3-2.1,4.6-4.3,6.9-6.4c1.8-1.7,3.3-2.1,5.5-0.2
			c3.9,3.5,6.9,7.3,9,12.2c1.6,3.7,2.6,8.1,6.2,11.6c0.7-4.8,1.4-8.9-0.8-12.7c-1.5-2.6,0.9-4.4,2.2-4.6c3-0.5,6.1-2.1,9.2,0.2
			c2.6,2,2.7,1.9,4.2-0.9c0.4-0.7,0.9-0.9,1.6-0.6c2.7,1.3,1.9-0.4,2.4-2.1c0.6-2.2-0.9-8.1,5.3-4.6c1.4,0.8,2.1-0.6,2.5-2.2
			c0.8-4.3,3.8-5.5,7.6-3.3c1.9,1.1,3.8,3.7,3.8-1.4c0-2.6,1.7-1.2,2.9-0.2c3.7,2.8,4.7,2.8,8,1c-6.3-3.5-11.7-8-16.4-13.4
			c-2.1-2.4-2.7-5.7-3.3-8.6c-0.5-2.2,3.2-2.8,5.1-4.1c2.7-1.9,4.6-4.6,5.1-7.7c0.6-3.2,2.2-5.5,4-7.9c3.9-5.4,2.3-9.6-4.2-11.1
			c-0.6-0.1-1.1-0.7-1.5-1.1c-2.9-3-5.4-2-8,0.4c-2,1.9-4.1,3.8-6.4,5.5c-1.4,1-3.3,2.4-4.8,0.3c-1.3-1.8,0.7-2.6,1.5-3.6
			c1.1-1.3,2.4-2.3,3.6-3.5c1.8-1.8,6.1-1.5,4.6-5.8c-0.9-2.7,1.5-5.3-0.2-8.2c-0.8-1.4-2.6-4,0.1-5.1c2.3-0.9,2.9,1.5,3.8,3.4
			c2.1,4.4,5.9,4.8,9.2,1.2c3.3-3.7,3.5-11.5,0.5-15.6c-1.2-1.6-2.3-1.6-3.6-0.3c-1.4,1.3-1,3.1-1.2,4.7c-0.2,1.4,1.3,4.1-2.4,3.3
			c-2.7-0.6-5-1.1-3.9-4.7c0.5-1.6,1.2-3.1,1.8-4.6c0.8-1.7-0.3-2.7-1.4-3.3c-1.6-0.9-1.7,0.9-2.2,1.7c-0.4,0.7-0.7,1.5-0.9,2.3
			c-0.5,3.3-3.5,1.8-4.7,1.7c-2.4-0.3-0.6-2.2-0.3-3.4c0.2-0.8,0.8-1.4,1.1-2.1c1.1-2.3,0-4.5-1.4-5.8c-2.1-2-2.3,1.2-3.4,1.9
			c-3.3,2.2-6.3,5.3-9.9,6.5c-8,2.7-8.5,11.2-13.3,16.2c-0.4,0.4-0.2,1.6-0.1,2.4c0.3,2.4-0.6,4.2-2.4,5.7c-2.1,1.8-3.8,4.7-6.2,5.5
			c-3.9,1.4-1.8-4.8-5.1-5.1c-0.8-0.1-0.9-2.6-2.4-1.6c-1.1,0.7-2.9,1.6-2.4,3.4C226.7,151.6,223.8,151.8,220.8,152.1z M365.9,153.7
			c-0.1,0-0.1,0-0.2,0c0-2,0.3-4.1-0.1-6c-0.6-2.8-1.7-5.8-5.3-5.5c-7.3,0.5-14.6,1.3-21.8,2c-1.9,0.2-3.6,0.9-4.5,2.7
			c-2.4,5.1,0.8,11.1,6.1,13.3c6.1,2.5,12.2,1.2,18.3,0.8c2.4-0.2,5.3,2.5,6.8,0C366.4,159.1,365.8,156.1,365.9,153.7z M273.3,215.1
			c3.8,4.1,6.3,7.6-0.9,9.4c4,1.3,9.5-0.7,7.8,6c-0.3,1,1.4,1.7,2.7,1.5c0.9-0.1,1.9-1.2,2.6,0.1c0.6,1,0.8,2.5,2.4,1.2
			c1.2-1,1.4-3,0.7-3.6C283.5,225.4,282.8,217.2,273.3,215.1z M381.8,167.3c-3.5-0.3-7.2,0.5-8.3-4.1c-0.2-0.7-0.8-1-1.6-0.6
			c-0.9,0.5-2.1,1.3-1.8,2.2c0.7,2.3,0.5,5.2,2.8,6.7c2.4,1.6,4.1-0.3,5.8-1.5C379.8,169.2,380.7,168.3,381.8,167.3z M358.1,27
			c1.9-3.5,2.6-7.6,6.6-9.3C356.9,18.5,354.8,21.3,358.1,27z M353.1,137.5c2.4,1.5,6.4,2,7,0.9c0.4-0.6,0.1-1.4-0.5-1.7
			C357.4,135.8,355.1,135.2,353.1,137.5z M228.8,127.8c1.5-0.4,2.1-1.4,1.9-2.9c-0.1-0.7,0.1-1.8-1.2-1.3c-1.2,0.5-3.2,0.3-3.2,2.3
			C226.3,127.3,227.7,127.5,228.8,127.8z"/>
		<path class="st1" d="M368.8,0.1c-4.8,8.4-10.8,15.1-21.1,17.1c-12.5,2.4-23.1,9.6-33.9,15.8c-5.7,3.3-8.6,10.6-15.4,12.9
			c-8.3,2.7-12.4,10-17.8,15.9c-7.9,8.7-17.8,14.7-27.8,20.7c-9,5.3-16.6,12.7-25.7,17.8c-2,1.1-3.9,2.5-6.3,2.8
			c0-33.1,0.1-66.2-0.1-99.3c0-3.2,0.9-3.8,3.9-3.8C272.6,0.1,320.7,0.1,368.8,0.1z"/>
		<path class="st2" d="M420.8,128.1c-4.2-0.4-7.5,0.8-11.3,3.1c-5.4,3.2-9.4,8.2-15.7,10.3c-3.6,1.2-5.8,5.6-10.6,5.1
			c-1.1-0.1-0.7,1.3-0.7,2.3c-0.1,1.3-1.6,3.5-2.5,2.5c-3.1-3.2-4.6-1.6-6,2.3c-1.9-4.2-2.6-7,0.7-9.8c2.2-1.9,0.2-6.6-2.7-7.4
			c-4-1.1-9.2-8.2-8-12.1c1.1-3.4-1.6-6.2-0.3-9.4c0.4-1-0.6-1.8-1.9-1.3c-3.2,1.1-6.8,0.8-9.2,4.1c-1.6,2.2-4.6,3.1-7.4,3.3
			c-3.3,0.3-4,2.1-2.8,4.8c0.7,1.6,3.6,2.5,1.3,4.9c-2,2-4.6,3-7.3,2.2c-2.6-0.8-4.7-2.9-7.3,0.3c-2.5,3.1-2.8,2.9-3.7,7.7
			c-3.7-6.5-8.8-10.2-15.9-12c-7.6-1.9-11.6-10.9-10.9-19c0.7-8.2,3-15.5,7.5-22.3c1.9-2.9,0.8-5.7-1.2-8.3
			c-6.2-8.2-5.6-11.2,2.9-16.7c13.3-8.6,26.9-9.2,41.5-3.1c3.2,1.4,5.6,3.5,8.5,5.1c3.6-7.3-0.8-15.5-8.8-16.7
			c-1.5-0.2-3,0.2-4.4-0.8c-1-0.7-3.7,0.5-3-2c0.6-2.2,1.1-5.2,4.5-5.2c0.5,0,1-0.1,1.5,0.7c2.2,3.3,5.6,3.4,8.1,0.6
			c1.2-1.3,2.5-3.3,4.3-3.1c6,0.6,9.8-3.3,14.2-6.3c0.8-0.6,1.6-1.5,2.5-1.6c1.2-0.1,2.6-1.9,3.5-0.4c1,1.5-0.9,2.1-1.8,2.8
			c-4.4,3.7-6.7,9.1-11.1,12.9c-1.2,1-2.2,2.4-3.7,3.1c-3.8,1.8-2.6,5.5-1.9,7.9c1.1,3.7,4.3,2,6.7,1c2.3-0.9,4.4-2.3,6.5-3.7
			c1.7-1.1,3.8-1.7,0.8-4.3c-2.1-1.7,0-4.3,1.4-6.2c1.3-1.9,2.4-0.8,4.1,0c3.8,1.7,7.1-0.3,9.8-2.7c1.4-1.2,2.5-2.6,4.2-3.4
			c2.6-1.1,3.8-2.6,1.6-5.3c-1.4-1.7-0.6-3.3,1.3-3.9c3.1-0.9,4.8-3.4,6.8-5.5c3.6-3.7,5.6-3.6,10.4,1.5c-7.3-3.4-8.2,1.6-9.7,5.7
			c-0.6,1.5-1.3,3-2.7,4.1c-3.4,2.8-1.5,4.8,1.4,5.7c2.7,0.9,5.6,2,8.7,0.8c5.5-2.2,4.1-7.4,4.9-11.4c0.6-2.7-0.2-5.7,3.1-7.1
			c0,7,0,14,0,21c-4.8,1.2-8.7,3.4-12.3,7c-2,2-4.8,4.1-8.2,4c-2-0.1-3.2,0.9-3.7,2.7c-0.7,2.2-2.3,3.4-4,4.8
			c-1.6,1.4-3.9,1.8-4.8,4.1c-2,5.2-8.3,6.4-10.6,11.3c0,0.1-0.6-0.1-1.2-0.3c3-2.8-0.7-6,0.8-9c2.2-4.6-0.1-6-4.5-5.6
			c-1.3,0.1-2.7-0.3-4,0.1c-7.1,1.9-10.9,3.6-6.5,10.8c3.2,5.1,3.4,11.4,7.3,16.1c0.6,0.7,0.8,1.5,0.2,2.3c-0.8,1-1.7,0.5-2.6,0
			c-3.3-1.6-7.1-2-10.1-0.3c-4,2.2-0.2,6-0.6,9.1c-0.1,1.2,0.5,2.6,0.9,3.8c1.9,5.4,5.5,7,10.4,4.3c2.4-1.3,3-0.6,3.7,1.7
			c0.6,2,2,3.6,4.5,2.2c1.8-1,4.4-1.9,2.2-4.8c-1.1-1.5-0.4-2.3,0.8-3.3c1.3-1,2.3-0.8,3.4,0.5c0.6,0.8,1.4,1.4,2.1,2.1
			c3.1,3,12.5,2.3,13.9-1.6c1.4-3.9,3.7-4.6,7.2-5.8c1.9-0.6,9.8-0.9,5.4-7.8c-0.9-1.3,1.2-1.7,2.2-0.9c2.1,1.7,3.5,1.5,4.3-1.2
			c0.6-2,2.5-1.1,3.9-1.3c0,3,0,6,0,9c-2.6-0.1-4.8,1-4.8,3.6c0,2.8,2.2,3.7,4.8,3.4c0,3.3,0,6.7,0,10c-2.7-0.7-3.8,2.8-5.3,2.6
			c-3.8-1.3,1-4.3-2.4-5.6c-5.5-2.1-13-0.6-16.6,3.8c-0.8,1-2.8,2.3,0.2,3.1c1.6,0.5,1.2,1.4,0.4,2.1c-0.7,0.7-1.2,2.1-2.8,1.3
			c-3.4-1.8-3.4-1.7-6-0.4c0.4,1.7,3.5,1.5,3,3.5c-0.4,2-2.4,2.4-4.3,2.7c-1.5,0.2-3.1,0.8-3.8,2.5c1.4,1.6,3.2,1.9,4.5,0.7
			c3.9-4,10.4-3.2,13.8-8.2c2.1-3,4.6-6.1,9.4-2.9c2.7,1.8,7.7,0.2,7.7,5.8c0,0.5,0.8,2.2,2.2,1
			C420.8,126.7,420.8,127.4,420.8,128.1z M330.1,101.2c0.1,2.7-3.2,1.1-2.7,3.4c0.2,0.8,1,1.2,1.8,1.5c8.6,2.5,17.6-2.1,20.6-10.3
			c2.2-6.2,0.9-8.3-5.7-8.6c-4.6-0.2-9.3,0.1-14-0.2c-7.2-0.4-13,2.2-17.1,7.8c-3.4,4.5-1.2,7.8,4.4,8.4
			C321.8,103.6,325.7,101.3,330.1,101.2z M412.7,101.8c0.2-1.2,0.1-2.8-1.3-3.2c-2-0.6-1.6,1.7-2.2,2.7c-0.4,0.6,0.5,1.9-1.2,1.9
			c-0.9,0-2.1,0.6-1.6,1.8c0.3,0.6,1.3,0.9,2.1,1C411.6,106.4,413,105.1,412.7,101.8z M399.3,41.5c-0.2-1.4-1.2-1.3-2.2-1.4
			c-1.6-0.1-2.5,0.8-2.9,2.1c-0.3,1.2,0.8,1.7,1.8,1.7C397.8,44.1,398.6,42.8,399.3,41.5z"/>
		<path class="st2" d="M220.8,152.1c3-0.3,5.9-0.5,4.6-4.9c-0.5-1.8,1.3-2.6,2.4-3.4c1.5-1,1.6,1.5,2.4,1.6c3.4,0.3,1.3,6.5,5.1,5.1
			c2.4-0.9,4.1-3.7,6.2-5.5c1.8-1.5,2.6-3.3,2.4-5.7c-0.1-0.8-0.3-2,0.1-2.4c4.9-5,5.3-13.5,13.3-16.2c3.6-1.2,6.6-4.3,9.9-6.5
			c1.1-0.8,1.3-3.9,3.4-1.9c1.4,1.3,2.5,3.5,1.4,5.8c-0.4,0.7-0.9,1.4-1.1,2.1c-0.3,1.2-2.1,3.2,0.3,3.4c1.2,0.1,4.2,1.6,4.7-1.7
			c0.1-0.8,0.5-1.6,0.9-2.3c0.5-0.9,0.6-2.6,2.2-1.7c1.1,0.6,2.2,1.6,1.4,3.3c-0.7,1.5-1.3,3-1.8,4.6c-1.2,3.6,1.1,4.1,3.9,4.7
			c3.7,0.8,2.2-1.9,2.4-3.3c0.3-1.6-0.2-3.3,1.2-4.7c1.4-1.3,2.4-1.4,3.6,0.3c3,4.1,2.8,11.9-0.5,15.6c-3.2,3.6-7.1,3.2-9.2-1.2
			c-0.9-1.8-1.5-4.3-3.8-3.4c-2.7,1.1-1,3.8-0.1,5.1c1.7,2.8-0.7,5.5,0.2,8.2c1.5,4.3-2.9,4-4.6,5.8c-1.2,1.2-2.5,2.2-3.6,3.5
			c-0.9,1-2.9,1.9-1.5,3.6c1.6,2.1,3.4,0.7,4.8-0.3c2.3-1.6,4.3-3.5,6.4-5.5c2.6-2.5,5.2-3.4,8-0.4c0.4,0.5,1,1,1.5,1.1
			c6.5,1.5,8.1,5.7,4.2,11.1c-1.7,2.4-3.4,4.7-4,7.9c-0.5,3.1-2.4,5.8-5.1,7.7c-1.9,1.3-5.5,1.9-5.1,4.1c0.6,2.9,1.2,6.1,3.3,8.6
			c4.7,5.4,10.1,10,16.4,13.4c-3.3,1.9-4.3,1.8-8-1c-1.2-0.9-2.9-2.4-2.9,0.2c0,5.1-1.9,2.5-3.8,1.4c-3.8-2.2-6.7-1-7.6,3.3
			c-0.3,1.6-1.1,3-2.5,2.2c-6.2-3.5-4.7,2.4-5.3,4.6c-0.5,1.7,0.4,3.4-2.4,2.1c-0.7-0.3-1.2-0.1-1.6,0.6c-1.5,2.8-1.6,2.9-4.2,0.9
			c-3-2.3-6.2-0.6-9.2-0.2c-1.3,0.2-3.7,2-2.2,4.6c2.2,3.8,1.5,7.9,0.8,12.7c-3.5-3.5-4.5-7.9-6.2-11.6c-2.1-4.9-5.1-8.7-9-12.2
			c-2.2-2-3.7-1.5-5.5,0.2c-2.3,2.1-4.6,4.3-6.9,6.4c0-8.7,0-17.3,0-26c4.9-2.1,9.8-4.2,14.6-6.4c0.5-0.2,0.9-0.7,1-1.4
			c0.7-2.9,5-5.2,7.1-3.5c4.7,3.8,7.8,1.2,10.6-2.3c1.7-2.1,3.7-3,6.1-2c2.3,0.9,4.5-0.7,4.1-1.8c-1-2.7,2-3.3,1.9-5.3
			c-2,0.3-4.1,1.2-5.8,0.7c-9-2.3-15.9,2.3-23.2,6.1c-2.3,1.1-5.1,3.5-7.4,0.6c-3-3.7-5.8-3-8.9-0.6c0-1,0-2,0-3
			c6.5-2.1,13-4.1,20-3.3c1.5,0.2,2.4-1.5,1-3.2c-1.4-1.6-3.2-1.8-5-1.3c-5.3,1.5-10.6,3.2-16,4.8
			C220.8,166.7,220.8,159.4,220.8,152.1z M261,137.5c-3.1,0-6.2,2-5.9,4.1c0.3,2,2.2,3.2,3.9,3.1c3.3-0.3,3.8-3.2,4.2-5.8
			C263.6,137,262.4,137.1,261,137.5z"/>
		<path class="st2" d="M336.8,250.1c-1.3-4.3-6-6.1-7.6-10.1c-0.9-2.3-3.8-3.9-2.1-7.2c0.5-1-1.1-1.7-2.2-1.2
			c-2.2,1.1-3-0.5-3.9-1.9c-0.4-0.6-1.2-1.3-0.4-2.2c0.7-0.7,1.5,0,2.2,0c6.1,0,11.5,4.4,17.8,2.7c0.2,0,0.4-0.1,0.5,0
			c7.1,6.8,8.8-1.6,12.2-4.6c1.4-1.2,2.4-3,4.3-1.9c2.1,1.1,0.4,2.9,0.3,4.4c-0.1,2.2-3.7,4.8-1.2,6c1.9,1,5-3,5.3-4.7
			c1-4.3,4.5-6.9,5.8-10.9c0.6-1.9,1.4-3.2,4.2-3.1c3.4,0.2,5.3-4.4,3.2-7.2c-1.1-1.5-2.9-2-4.2-0.3c-1.3,1.5-2.2,3.3-3.2,5
			c-2.7,4.9-6.8,6.6-11.8,4.9c-1.3-0.4-2.4-1.3-2.1-2.4c1.2-3.9-0.8-7.4-0.7-11.1c0.1-2.8,0.3-6,2.5-8.3c2.6-2.7,2.7-5.7,0-8.4
			c-2.4-2.4-1.6-4,1.2-4.1c6.1-0.2,9.5-4.1,13.6-8c2.2-2.1,7-2.4,10.7-3.6c2.5-0.8,7.9-8.8,7.4-11.4c-0.4-2-1.5-0.9-2.6-0.8
			c-2.2,0.3-4.4,6-6.3,1.2c-1.5-3.9,2.7-3.9,5.8-4.4c2.5-0.4,4.4-3.4,7.6-2.7c1.4,0.3,3.7-0.3,3.9,1.3c0.3,2-2,1.4-3.3,1.9
			c-1.8,0.7-3.1,2-3,4.1c0.1,1.2-0.6,2.8,1.1,3.5c1.3,0.5,2.2-0.5,2.9-1.4c2.6-2.8,5.1-5.7,9.1-6.4c0.9-0.2,1.5-0.6,1.7-1.5
			c1.2-6.1,7.1-5.6,11-8c1.9-1.1,2.5,2.3,4.1,0.6c0,7,0,14,0,21c-2.5-1.8-4.9-0.7-7.3,0.5c-0.7,0.4-0.4,1.2,0.2,1.6
			c2.5,2,4.5,0,6.7-0.9c0.1-0.1,0.3-0.1,0.4-0.2c0,2,0,4,0,6c-3,0.3-5.4,3.3-9.2,0.5c-2-1.5-5.7,1.9-8.9,1.6c0,1.2,0,2.4-0.1,3.6
			c-2.6,0.2-5.5,1-5.9-3.1c-0.1-1.2-1-1.9-2.1-1.5c-4.3,1.6-7.9,4.5-12.4,6.1c3-0.6,5.3,2.9,8.1,0.8c2.4-1.8,5-1.1,6.9,0.3
			c3.2,2.2,4.8,0.9,6.2-1.8c6.3,1.2,11.9-0.9,17.3-3.6c0,2.3,0,4.7,0,7c-5.6,1.1-5.8,2-1.9,9.3c-2.6-0.9-4.6,3.6-7-0.3
			c-0.6-1,0-3-2-2.7c-1.9,0.3-2.1,1.7-1.5,3.4c0.4,1-0.8,1.2-1.4,1.7c-0.7,0.6-2.2,0.8-1.5,2.1c0.5,0.9,1.5,1.3,3,0.9
			c2-0.5,4.3-1.2,6.3,1.5c-5.6,0.2-10.5,5.8-16.2,0.4c-0.6-0.5-3.4-2.1-4.2,0c-1.1,2.8-1,5.8,0.4,8.7c0.9,2,2,1.7,3.5,0.8
			c0.9-0.5,2-0.9,2.3,0.6c0.3,1.2-0.5,2-1.5,2.3c-1.6,0.5-3.1,0.5-4.7-0.5c-1.7-1-3.7-1.5-5.5-2.2c-2-0.9-2.8-0.6-3.3,1.8
			c-0.8,4.1,0.2,7.8,1.4,11.5c2.7,8,3.6,16.4,4.7,24.7c-1,0-2,0-3,0c-3.3-9.6-4-19.9-8.4-29.3c-0.6,3-0.7,5.8-0.6,8.7
			c0.1,2.7-0.7,3.8-3.4,2.4c-1.2-0.7-2.2-2.4-3.8-0.8c-0.7,0.6-0.9,1.6-0.4,2.2c1.1,1.3,2.5,2.3,4.4,1.4c1.1-0.5,2.9-1,2.9,0.4
			c0.1,5.5,5.4,9.3,4.4,15C368.1,250.1,352.4,250.1,336.8,250.1z M330.6,236.5c1.9,1,3.5,2.2,5.3,2.7c1.2,0.3,3.2,0.5,3.7-1.4
			c0.6-2-0.9-2.2-2.4-2.8C334.5,233.9,332.9,235.8,330.6,236.5z"/>
		<path class="st0" d="M420.8,88.1c-1.4,0.2-3.2-0.7-3.9,1.3c-0.9,2.8-2.2,2.9-4.3,1.2c-1-0.8-3-0.4-2.2,0.9
			c4.5,6.9-3.5,7.2-5.4,7.8c-3.5,1.2-5.8,1.8-7.2,5.8c-1.4,3.9-10.7,4.6-13.9,1.6c-0.7-0.7-1.5-1.4-2.1-2.1c-1-1.2-2-1.5-3.4-0.5
			c-1.2,0.9-1.9,1.8-0.8,3.3c2.1,2.9-0.5,3.7-2.2,4.8c-2.4,1.4-3.9-0.1-4.5-2.2c-0.7-2.3-1.3-3-3.7-1.7c-4.9,2.7-8.5,1.1-10.4-4.3
			c-0.4-1.2-1.1-2.6-0.9-3.8c0.4-3.1-3.4-6.9,0.6-9.1c3-1.7,6.8-1.3,10.1,0.3c1,0.4,1.8,1,2.6,0c0.6-0.7,0.3-1.6-0.2-2.3
			c-3.9-4.7-4.1-11-7.3-16.1c-4.5-7.2-0.6-8.9,6.5-10.8c1.2-0.3,2.7,0,4-0.1c4.3-0.4,6.7,1,4.5,5.6c-1.5,3.1,2.2,6.2-0.8,9
			c0.6,0.1,1.2,0.3,1.2,0.3c2.3-4.9,8.6-6.1,10.6-11.3c0.9-2.3,3.2-2.7,4.8-4.1c1.6-1.5,3.2-2.7,4-4.8c0.6-1.7,1.8-2.7,3.7-2.7
			c3.4,0.1,6.2-2,8.2-4c3.6-3.5,7.5-5.8,12.3-7C420.8,58.1,420.8,73.1,420.8,88.1z M405.7,77c-2.7,0.4-5.6-0.9-8,1.5
			c-0.9,0.9-2.5,1.3-1.5,3.1c0.7,1.4,2,1.7,3.4,1.4c3.3-0.7,5.5-2.6,6-6.1c2.4,0,4.9,0.1,7.3-0.1c1.2-0.1,2-1.2,1.7-2.6
			c-0.1-0.3-0.7-0.5-1-0.8C412.1,77.1,407.1,73.3,405.7,77z"/>
		<path class="st0" d="M391.8,250.1c-1.1-8.3-2-16.7-4.7-24.7c-1.2-3.7-2.2-7.5-1.4-11.5c0.4-2.4,1.3-2.7,3.3-1.8
			c1.8,0.8,3.8,1.2,5.5,2.2c1.6,1,3.1,1,4.7,0.5c1-0.3,1.8-1.1,1.5-2.3c-0.4-1.5-1.4-1.1-2.3-0.6c-1.5,0.8-2.5,1.1-3.5-0.8
			c-1.4-2.9-1.5-5.9-0.4-8.7c0.9-2.2,3.7-0.6,4.2,0c5.7,5.4,10.6-0.3,16.2-0.4c-2-2.7-4.4-2.1-6.3-1.5c-1.5,0.4-2.5,0-3-0.9
			c-0.7-1.2,0.9-1.5,1.5-2.1c0.6-0.5,1.8-0.7,1.4-1.7c-0.6-1.7-0.4-3.1,1.5-3.4c2.1-0.3,1.4,1.7,2,2.7c2.4,3.9,4.3-0.6,7,0.3
			c-4-7.2-3.7-8.2,1.9-9.3c0,9.3,0,18.7,0,28c-4.4-1.9-7.6,0.3-10.5,3.1c-0.6,0.5-1.2,1.2-0.9,2.1c0.4,1,1.4,0.8,2.1,0.8
			c3.1,0,6.3-0.2,9.3,1c0,1.3,0,2.7,0,4c-4.7,0.7-9.1-1.2-13.7-1.1c-1.8,0.1-3.4-0.5-2.8-2.9c0.3-1.1-0.5-1.5-1.3-1.7
			c-0.8-0.1-1.3,0.7-1.1,1.3c1.2,3.6-1.4,3.3-3.5,3.3c-2.3,0-3.1,0.2-3.1,3.2c-0.2,7.6,1.7,15.3-0.6,22.9
			C393.8,250.1,392.8,250.1,391.8,250.1z M413.5,206.4c-0.4,0-1.1-0.3-1.7-0.1c-1.4,0.4-2.9,0.9-3.6,2.4c-0.1,0.2,0,0.7,0.2,0.9
			c1.4,1.2,2.6,0.1,3.6-0.6c1.9-1.2,3.3-0.5,5,0.6c1.4,0.9,2.3-0.2,2.6-1.3c0.4-1.5-0.6-2-2-2.1C416.3,206,415.1,207.4,413.5,206.4z
			"/>
		<path class="st1" d="M394.8,250.1c2.3-7.6,0.4-15.3,0.6-22.9c0.1-3,0.8-3.2,3.1-3.2c2.1,0,4.7,0.4,3.5-3.3
			c-0.2-0.6,0.3-1.4,1.1-1.3c0.7,0.1,1.6,0.5,1.3,1.7c-0.6,2.4,1,3,2.8,2.9c4.6-0.2,9.1,1.8,13.7,1.1c0,7.5-0.1,15,0.1,22.5
			c0,2.2-0.4,2.6-2.6,2.6C410.4,250,402.6,250.1,394.8,250.1z"/>
		<path class="st2" d="M420.8,17.1c-2.1-1.3-4.4-2.3-6.1-3.9c-2.4-2.2-3.7-3.1-4,1.2c-0.2,1.9-1.5,2-2.8,0.7c-2.5-2.4-5.5-4.2-7.6-7
			c-1.2-1.7-2.7-2.2-4.7-1c-1.9,1.2-2.5,3.3-1.5,4.7c3.5,4.9-1.2,4.4-2.8,3.7c-4.3-1.9-8.5-1.6-13-0.1c0.6-3.4,4.6-4.1,4.2-7.4
			c-0.1-0.6,0.9-0.5,1.6-0.3c1.8,0.4,4.2,1.4,4.7-1.7c0.5-3.2-1.4-4-4.2-4c-1.2,0-1.7-0.8-1.8-1.9c11.6,0,23.1,0.1,34.7-0.1
			c2.6,0,3.6,0.2,3.4,3.2C420.5,7.8,420.8,12.4,420.8,17.1z"/>
		<path class="st0" d="M220.8,180.1c3.2-2.4,5.9-3.1,8.9,0.6c2.3,2.8,5.1,0.5,7.4-0.6c7.3-3.7,14.3-8.4,23.2-6.1
			c1.7,0.4,3.8-0.4,5.8-0.7c0.1,2-2.9,2.6-1.9,5.3c0.4,1.1-1.8,2.7-4.1,1.8c-2.4-0.9-4.4,0-6.1,2c-2.8,3.5-5.9,6.1-10.6,2.3
			c-2-1.6-6.4,0.7-7.1,3.5c-0.2,0.8-0.6,1.2-1,1.4c-4.8,2.2-9.7,4.3-14.6,6.4c0-2.7,0-5.3,0-8c1.4-0.4,3.8,0.9,3.7-1.8
			c0-2.1-2-2.3-3.7-2.2C220.8,182.7,220.8,181.4,220.8,180.1z"/>
		<path class="st0" d="M420.8,126.1c-1.4,1.2-2.3-0.4-2.2-1c0.1-5.6-5-4-7.7-5.8c-4.8-3.1-7.3-0.1-9.4,2.9c-3.4,5-10,4.2-13.8,8.2
			c-1.2,1.3-3.1,0.9-4.5-0.7c0.7-1.7,2.3-2.3,3.8-2.5c1.9-0.3,3.9-0.7,4.3-2.7c0.4-2-2.6-1.8-3-3.5c2.6-1.4,2.6-1.4,6,0.4
			c1.6,0.8,2-0.5,2.8-1.3c0.8-0.8,1.2-1.7-0.4-2.1c-2.9-0.9-1-2.2-0.2-3.1c3.6-4.3,11.1-5.9,16.6-3.8c3.4,1.3-1.4,4.2,2.4,5.6
			c1.5,0.2,2.6-3.3,5.3-2.6C420.8,118.1,420.8,122.1,420.8,126.1z"/>
		<path class="st2" d="M269.8,250.1c-0.7-6.1-3.8-11.4-5.8-17c-0.6-1.7-1.3-3.3-1.1-5.1c0.1-1.3,1.5-2,1.8-1
			c1.1,3.4,4.3,2.9,6.3,4.4c2.6,1.9,4.8,5.3,5.8,8.4c1.1,3.6,3.9,6.4,4,10.3C277.1,250.1,273.4,250.1,269.8,250.1z"/>
		<path class="st2" d="M292.8,250.1c0.3-2.5-1.8-2.5-3.2-2.9c-3.2-1-4.5-3.3-4.7-6.3c-0.1-1.5-0.6-4.6,0.9-4.2
			c2.2,0.6,4.2-2.5,6.5,0.3c1.9,2.3,3.6,4.9,6.7,6.4c2.1,1,3.6,2.9,6.4,2.8c2.2-0.1,2.5,2.3,3.4,3.8
			C303.4,250.1,298.1,250.1,292.8,250.1z"/>
		<path class="st0" d="M383.8,250.1c1.1-5.7-4.2-9.6-4.4-15c0-1.3-1.8-0.9-2.9-0.4c-1.8,0.9-3.2-0.1-4.4-1.4
			c-0.6-0.7-0.3-1.6,0.4-2.2c1.7-1.6,2.7,0.2,3.8,0.8c2.7,1.5,3.5,0.3,3.4-2.4c-0.1-2.9,0-5.8,0.6-8.7c4.4,9.4,5.1,19.7,8.4,29.3
			C387.1,250.1,385.4,250.1,383.8,250.1z"/>
		<path class="st2" d="M230.8,250.1c0.2-0.6,0.9-1.5,0.6-1.8c-2.9-4,0.1-4.2,3-4.4c-1-2.5-3.8-3.5-4-6.3c-0.1-1.1-1.3-2.3,0-3.1
			c0.9-0.5,2.6-0.8,3.3-0.3c2.5,1.8,6,3.1,3.7,7.7c-1.3,2.6-0.7,6.2-3.7,8.1C232.8,250.1,231.8,250.1,230.8,250.1z"/>
		<path class="st0" d="M420.8,179.1c-5.5,2.7-11.1,4.8-17.3,3.6c-0.3-0.3-0.6-0.6-0.9-0.8c0-1.2,0-2.4,0.1-3.6
			c3.2,0.3,6.9-3.1,8.9-1.6c3.8,2.7,6.2-0.2,9.2-0.5C420.8,177.1,420.8,178.1,420.8,179.1z"/>
		<path class="st0" d="M220.8,174.1c5.3-1.6,10.6-3.3,16-4.8c1.8-0.5,3.6-0.3,5,1.3c1.4,1.7,0.6,3.4-1,3.2c-7-0.8-13.5,1.2-20,3.3
			C220.8,176.1,220.8,175.1,220.8,174.1z"/>
		<path class="st2" d="M420.8,221.1c-3-1.2-6.2-1-9.3-1c-0.8,0-1.8,0.2-2.1-0.8c-0.4-0.9,0.3-1.6,0.9-2.1c3-2.8,6.2-5,10.5-3.1
			C420.8,216.4,420.8,218.7,420.8,221.1z"/>
		<path class="st2" d="M420.8,144.1c-2.7-0.6-4.4,3.7-8.2,1c5.6-1.3,5.5-6.6,8.2-10C420.8,138.1,420.8,141.1,420.8,144.1z"/>
		<path class="st0" d="M420.8,104.1c-2.6,0.3-4.8-0.6-4.8-3.4c0-2.6,2.2-3.8,4.8-3.6C420.8,99.4,420.8,101.7,420.8,104.1z"/>
		<path class="st0" d="M420.8,170.1c-0.1,0.1-0.3,0.1-0.4,0.2c-2.1,0.9-4.1,3-6.7,0.9c-0.5-0.4-0.8-1.2-0.2-1.6
			c2.3-1.2,4.7-2.3,7.3-0.5C420.8,169.4,420.8,169.7,420.8,170.1z"/>
		<path class="st2" d="M220.8,184.1c1.7,0,3.7,0.2,3.7,2.2c0.1,2.7-2.4,1.4-3.7,1.8C220.8,186.7,220.8,185.4,220.8,184.1z"/>
		<path class="st2" d="M365.9,153.7c-0.1,2.5,0.5,5.4-0.6,7.3c-1.5,2.5-4.4-0.2-6.8,0c-6.1,0.4-12.1,1.7-18.3-0.8
			c-5.3-2.2-8.6-8.1-6.1-13.3c0.9-1.8,2.6-2.5,4.5-2.7c7.3-0.7,14.5-1.5,21.8-2c3.6-0.2,4.7,2.7,5.3,5.5c0.4,1.9,0.1,4,0.1,6
			C365.8,153.7,365.8,153.7,365.9,153.7z M351.9,147.1c-3.4-0.6-3.8,2.3-4,4.7c-0.3,4.4,4.3,7.4,11,7.2c3.2-0.1,4.9-2.9,5.5-5.6
			C365.1,149.9,359.8,147.3,351.9,147.1z"/>
		<path class="st2" d="M273.3,215.1c9.5,2.1,10.2,10.4,15.3,14.5c0.7,0.6,0.5,2.6-0.7,3.6c-1.6,1.3-1.8-0.2-2.4-1.2
			c-0.8-1.2-1.7-0.2-2.6-0.1c-1.3,0.2-3-0.5-2.7-1.5c1.8-6.7-3.8-4.7-7.8-6C279.6,222.6,277.1,219.2,273.3,215.1z"/>
		<path class="st2" d="M381.8,167.3c-1.2,1-2,2-3.1,2.7c-1.7,1.2-3.4,3.1-5.8,1.5c-2.3-1.6-2.1-4.4-2.8-6.7
			c-0.3-0.9,0.9-1.7,1.8-2.2c0.7-0.4,1.4-0.1,1.6,0.6C374.6,167.7,378.4,167,381.8,167.3z"/>
		<path class="st2" d="M358.1,27c-3.2-5.6-1.2-8.5,6.6-9.3C360.7,19.4,359.9,23.4,358.1,27z"/>
		<path class="st2" d="M353.1,137.5c1.9-2.3,4.3-1.7,6.6-0.7c0.6,0.3,0.8,1,0.5,1.7C359.5,139.6,355.5,139,353.1,137.5z"/>
		<path class="st2" d="M228.8,127.8c-1.1-0.3-2.5-0.5-2.5-1.9c0-2,2-1.8,3.2-2.3c1.3-0.6,1.2,0.6,1.2,1.3
			C230.8,126.4,230.3,127.4,228.8,127.8z"/>
		<path class="st0" d="M330.1,101.2c-4.4,0.2-8.3,2.4-12.7,2c-5.6-0.5-7.7-3.8-4.4-8.4c4.1-5.6,9.9-8.3,17.1-7.8
			c4.6,0.3,9.3-0.1,14,0.2c6.5,0.3,7.9,2.5,5.7,8.6c-2.9,8.2-12,12.7-20.6,10.3c-0.8-0.2-1.6-0.6-1.8-1.5
			C326.8,102.3,330.1,103.9,330.1,101.2z"/>
		<path class="st0" d="M412.7,101.8c0.3,3.3-1.1,4.6-4.1,4.2c-0.8-0.1-1.8-0.5-2.1-1c-0.6-1.3,0.6-1.8,1.6-1.8
			c1.7-0.1,0.8-1.3,1.2-1.9c0.6-1,0.1-3.2,2.2-2.7C412.8,99,412.9,100.6,412.7,101.8z"/>
		<path class="st0" d="M399.3,41.5c-0.7,1.3-1.6,2.6-3.3,2.5c-0.9-0.1-2.1-0.5-1.8-1.7c0.4-1.3,1.3-2.3,2.9-2.1
			C398.2,40.1,399.2,40.1,399.3,41.5z"/>
		<path class="st0" d="M261,137.5c1.4-0.4,2.6-0.5,2.3,1.4c-0.5,2.6-0.9,5.6-4.2,5.8c-1.7,0.1-3.6-1.1-3.9-3.1
			C254.9,139.5,257.9,137.5,261,137.5z"/>
		<path class="st0" d="M403.4,182.7c-1.5,2.7-3.1,4-6.2,1.8c-2-1.3-4.5-2-6.9-0.3c-2.8,2-5.1-1.5-8.1-0.8c4.5-1.6,8.1-4.6,12.4-6.1
			c1.1-0.4,2,0.3,2.1,1.5c0.4,4.1,3.3,3.3,5.9,3.1C402.9,182.1,403.2,182.4,403.4,182.7z"/>
		<path class="st0" d="M330.6,236.5c2.3-0.7,3.9-2.5,6.5-1.5c1.6,0.6,3,0.8,2.4,2.8c-0.5,1.9-2.5,1.7-3.7,1.4
			C334.1,238.7,332.5,237.5,330.6,236.5z"/>
		<path class="st2" d="M405.6,76.9c-0.5,3.5-2.7,5.4-6,6.1c-1.3,0.3-2.6-0.1-3.4-1.4c-0.9-1.7,0.6-2.2,1.5-3.1
			c2.3-2.3,5.3-1.1,8-1.5L405.6,76.9z"/>
		<path class="st2" d="M405.7,77c1.4-3.7,6.4,0.1,7.8-3.6c0.4,0.3,0.9,0.5,1,0.8c0.3,1.4-0.5,2.4-1.7,2.6c-2.4,0.3-4.9,0.1-7.3,0.1
			C405.6,76.9,405.7,77,405.7,77z"/>
		<path class="st2" d="M413.5,206.4c1.6,1,2.7-0.4,4-0.3c1.4,0.1,2.4,0.5,2,2.1c-0.3,1.2-1.2,2.2-2.6,1.3c-1.6-1.1-3-1.8-5-0.6
			c-1,0.6-2.2,1.8-3.6,0.6c-0.2-0.2-0.3-0.7-0.2-0.9c0.8-1.4,2.2-2,3.6-2.4C412.4,206.1,413.1,206.3,413.5,206.4z"/>
		<path class="st0" d="M351.9,147.1c7.9,0.2,13.2,2.8,12.5,6.2c-0.6,2.7-2.2,5.5-5.5,5.6c-6.7,0.2-11.3-2.8-11-7.2
			C348.1,149.4,348.5,146.5,351.9,147.1z"/>
	</g>
	<g>
		<path class="st0" d="M0,153.7c0-16.3,0-32.7,0-49c2.4-0.3,4.3-1.7,6.3-2.8C15.5,96.8,23,89.4,32,84.1c10-5.9,19.9-11.9,27.8-20.7
			c5.3-5.9,9.4-13.2,17.8-15.9c6.8-2.2,9.8-9.6,15.4-12.9c10.7-6.3,21.3-13.5,33.9-15.8c10.3-2,16.3-8.7,21.1-17.1c4.7,0,9.3,0,14,0
			c0,1.1,0.5,2,1.8,1.9c2.7,0,4.7,0.8,4.2,4c-0.5,3.1-2.8,2.1-4.7,1.7c-0.7-0.2-1.7-0.3-1.6,0.3c0.4,3.3-3.5,4-4.2,7.4
			c4.5-1.5,8.7-1.8,13,0.1c1.6,0.7,6.3,1.3,2.8-3.7c-1-1.4-0.4-3.5,1.5-4.7c2-1.3,3.5-0.7,4.7,1c2.1,2.8,5.1,4.6,7.6,7
			c1.3,1.3,2.6,1.2,2.8-0.7c0.3-4.3,1.6-3.5,4-1.2c1.7,1.6,4,2.6,6.1,3.9c0,1.7,0,3.3,0,5c-3.4,1.4-2.6,4.4-3.1,7.1
			c-0.9,4,0.6,9.2-4.9,11.4c-3.1,1.2-6,0.1-8.7-0.8c-2.9-0.9-4.8-2.9-1.4-5.7c1.4-1.1,2.1-2.6,2.7-4.1c1.6-4.2,2.4-9.2,9.7-5.7
			c-4.8-5.1-6.8-5.3-10.4-1.5c-2,2.1-3.7,4.6-6.8,5.5c-1.9,0.5-2.7,2.2-1.3,3.9c2.2,2.7,1,4.2-1.6,5.3c-1.7,0.8-2.9,2.2-4.2,3.4
			c-2.7,2.4-6,4.5-9.8,2.7c-1.7-0.8-2.7-1.9-4.1,0c-1.3,1.9-3.4,4.4-1.4,6.2c3,2.6,1,3.2-0.8,4.3c-2.1,1.3-4.2,2.7-6.5,3.7
			c-2.3,1-5.6,2.7-6.7-1c-0.7-2.4-1.9-6.1,1.9-7.9c1.5-0.7,2.5-2.1,3.7-3.1c4.4-3.7,6.7-9.2,11.1-12.9c0.9-0.7,2.8-1.3,1.8-2.8
			c-1-1.5-2.3,0.2-3.5,0.4c-0.9,0.1-1.6,1.1-2.5,1.6c-4.3,3-8.1,6.9-14.2,6.3c-1.9-0.2-3.1,1.7-4.3,3.1c-2.5,2.8-5.9,2.7-8.1-0.6
			c-0.5-0.8-1-0.7-1.5-0.7c-3.4,0.1-3.8,3-4.5,5.2c-0.7,2.5,2,1.3,3,2c1.3,0.9,2.9,0.5,4.4,0.8c8,1.1,12.4,9.4,8.8,16.7
			c-2.9-1.6-5.3-3.8-8.5-5.1c-14.5-6.1-28.2-5.5-41.5,3.1c-8.6,5.6-9.2,8.5-2.9,16.7c2,2.6,3.1,5.4,1.2,8.3
			c-4.5,6.8-6.8,14.1-7.5,22.3c-0.7,8.1,3.3,17.1,10.9,19c7.1,1.7,12.2,5.4,15.9,12c0.9-4.8,1.2-4.6,3.7-7.7
			c2.6-3.2,4.7-1.1,7.3-0.3c2.7,0.8,5.3-0.2,7.3-2.2c2.4-2.4-0.6-3.3-1.3-4.9c-1.1-2.7-0.5-4.5,2.8-4.8c2.8-0.2,5.8-1.1,7.4-3.3
			c2.4-3.3,6-3,9.2-4.1c1.3-0.4,2.3,0.4,1.9,1.3c-1.3,3.2,1.3,6.1,0.3,9.4c-1.2,3.9,4,11,8,12.1c3,0.8,4.9,5.5,2.7,7.4
			c-3.3,2.8-2.6,5.5-0.7,9.8c1.4-3.9,2.9-5.5,6-2.3c1,1,2.5-1.2,2.5-2.5c0-1-0.3-2.4,0.7-2.3c4.8,0.6,7-3.9,10.6-5.1
			c6.3-2.1,10.3-7.1,15.7-10.3c3.8-2.3,7.2-3.4,11.3-3.1c0,2.3,0,4.7,0,7c-2.7,3.3-2.6,8.7-8.2,10c3.8,2.7,5.5-1.5,8.2-1
			c0,1.3,0,2.7,0,4c-1.6,1.7-2.3-1.7-4.1-0.6c-3.9,2.4-9.8,1.9-11,8c-0.2,0.9-0.8,1.4-1.7,1.5c-4.1,0.7-6.6,3.5-9.1,6.4
			c-0.8,0.9-1.6,1.9-2.9,1.4c-1.7-0.6-1-2.2-1.1-3.5c-0.1-2.1,1.2-3.4,3-4.1c1.3-0.5,3.6,0,3.3-1.9c-0.3-1.6-2.5-1-3.9-1.3
			c-3.2-0.7-5.1,2.3-7.6,2.7c-3.1,0.5-7.3,0.5-5.8,4.4c1.9,4.8,4-0.9,6.3-1.2c1.1-0.1,2.2-1.2,2.6,0.8c0.5,2.6-4.9,10.5-7.4,11.4
			c-3.6,1.2-8.5,1.5-10.7,3.6c-4.1,3.9-7.4,7.7-13.6,8c-2.9,0.1-3.7,1.7-1.2,4.1c2.6,2.7,2.6,5.7,0,8.4c-2.3,2.4-2.5,5.5-2.5,8.3
			c-0.1,3.7,1.9,7.2,0.7,11.1c-0.3,1.1,0.8,2,2.1,2.4c5.1,1.7,9.1,0,11.8-4.9c1-1.7,1.9-3.5,3.2-5c1.4-1.7,3.1-1.2,4.2,0.3
			c2,2.8,0.2,7.3-3.2,7.2c-2.8-0.1-3.6,1.2-4.2,3.1c-1.2,4-4.7,6.6-5.8,10.9c-0.4,1.6-3.4,5.6-5.3,4.7c-2.5-1.2,1.1-3.8,1.2-6
			c0.1-1.5,1.8-3.3-0.3-4.4c-2-1-2.9,0.7-4.3,1.9c-3.4,3-5.1,11.4-12.2,4.6c-0.1-0.1-0.3-0.1-0.5,0c-6.3,1.8-11.7-2.7-17.8-2.7
			c-0.7,0-1.5-0.7-2.2,0c-0.8,0.8,0,1.5,0.4,2.2c0.9,1.4,1.8,3,3.9,1.9c1.2-0.6,2.8,0.2,2.2,1.2c-1.8,3.3,1.2,4.9,2.1,7.2
			c1.6,4.1,6.4,5.8,7.6,10.1c-9.3,0-18.7,0-28,0c-0.9-1.5-1.2-3.9-3.4-3.8c-2.8,0.1-4.3-1.8-6.4-2.8c-3.1-1.5-4.9-4.1-6.7-6.4
			c-2.3-2.9-4.2,0.3-6.5-0.3c-1.5-0.4-1,2.7-0.9,4.2c0.2,3,1.5,5.3,4.7,6.3c1.4,0.4,3.5,0.4,3.2,2.9c-4,0-8,0-12,0
			c-0.1-3.9-2.9-6.7-4-10.3c-0.9-3.2-3.1-6.5-5.8-8.4c-2-1.5-5.3-1-6.3-4.4c-0.3-1.1-1.7-0.3-1.8,1c-0.2,1.8,0.5,3.4,1.1,5.1
			c2,5.6,5.1,11,5.8,17c-12,0-24,0-36,0c3-1.9,2.4-5.5,3.7-8.1c2.3-4.5-1.1-5.9-3.7-7.7c-0.7-0.5-2.4-0.2-3.3,0.3
			c-1.4,0.8-0.1,2,0,3.1c0.2,2.8,3,3.8,4,6.3c-2.9,0.2-6,0.3-3,4.4c0.2,0.3-0.4,1.2-0.6,1.8c-3.3,0-6.7,0-10,0c0-3.3,0-6.7,0-10
			c0-6,0-12,0-18c2.3-2.1,4.6-4.3,6.9-6.4c1.8-1.7,3.3-2.1,5.5-0.2c3.9,3.5,6.9,7.3,9,12.2c1.6,3.7,2.6,8.1,6.2,11.6
			c0.7-4.8,1.4-8.9-0.8-12.7c-1.5-2.6,0.9-4.4,2.2-4.6c3-0.5,6.1-2.1,9.2,0.2c2.6,2,2.7,1.9,4.2-0.9c0.4-0.7,0.9-0.9,1.6-0.6
			c2.7,1.3,1.9-0.4,2.4-2.1c0.6-2.2-0.9-8.1,5.3-4.6c1.4,0.8,2.1-0.6,2.5-2.2c0.8-4.3,3.8-5.5,7.6-3.3c1.9,1.1,3.8,3.7,3.8-1.4
			c0-2.6,1.7-1.2,2.9-0.2c3.7,2.8,4.7,2.8,8,1c-6.3-3.5-11.7-8-16.4-13.4c-2.1-2.4-2.7-5.7-3.3-8.6c-0.5-2.2,3.2-2.8,5.1-4.1
			c2.7-1.9,4.6-4.6,5.1-7.7c0.6-3.2,2.2-5.5,4-7.9c3.9-5.4,2.3-9.6-4.2-11.1c-0.6-0.1-1.1-0.7-1.5-1.1c-2.9-3-5.4-2-8,0.4
			c-2,1.9-4.1,3.8-6.4,5.5c-1.4,1-3.3,2.4-4.8,0.3c-1.3-1.8,0.7-2.6,1.5-3.6c1.1-1.3,2.4-2.3,3.6-3.5c1.8-1.8,6.1-1.5,4.6-5.8
			c-0.9-2.7,1.5-5.3-0.2-8.2c-0.8-1.4-2.6-4,0.1-5.1c2.3-0.9,2.9,1.5,3.8,3.4c2.1,4.4,5.9,4.8,9.2,1.2c3.3-3.7,3.5-11.5,0.5-15.6
			c-1.2-1.6-2.3-1.6-3.6-0.3c-1.4,1.3-1,3.1-1.2,4.7c-0.2,1.4,1.3,4.1-2.4,3.3c-2.7-0.6-5-1.1-3.9-4.7c0.5-1.6,1.2-3.1,1.8-4.6
			c0.8-1.7-0.3-2.7-1.4-3.3c-1.6-0.9-1.7,0.9-2.2,1.7c-0.4,0.7-0.7,1.5-0.9,2.3c-0.5,3.3-3.5,1.8-4.7,1.7c-2.4-0.3-0.6-2.2-0.3-3.4
			c0.2-0.8,0.8-1.4,1.1-2.1c1.1-2.3,0-4.5-1.4-5.8c-2.1-2-2.3,1.2-3.4,1.9c-3.3,2.2-6.3,5.3-9.9,6.5c-8,2.7-8.5,11.2-13.3,16.2
			c-0.4,0.4-0.2,1.6-0.1,2.4c0.3,2.4-0.6,4.2-2.4,5.7c-2.1,1.8-3.8,4.7-6.2,5.5c-3.9,1.4-1.8-4.8-5.1-5.1c-0.8-0.1-0.9-2.6-2.4-1.6
			c-1.1,0.7-2.9,1.6-2.4,3.4C5.9,153.2,3,153.4,0,153.7z M145.1,155.3c-0.1,0-0.1,0-0.2,0c0-2,0.3-4.1-0.1-6
			c-0.6-2.8-1.7-5.8-5.3-5.5c-7.3,0.5-14.6,1.3-21.8,2c-1.9,0.2-3.6,0.9-4.5,2.7c-2.4,5.1,0.8,11.1,6.1,13.3
			c6.1,2.5,12.2,1.2,18.3,0.8c2.4-0.2,5.3,2.5,6.8,0C145.6,160.7,145,157.7,145.1,155.3z M52.5,216.7c3.8,4.1,6.3,7.6-0.9,9.4
			c4,1.3,9.5-0.7,7.8,6c-0.3,1,1.4,1.7,2.7,1.5c0.9-0.1,1.9-1.2,2.6,0.1c0.6,1,0.8,2.5,2.4,1.2c1.2-1,1.4-3,0.7-3.6
			C62.7,227.1,62,218.8,52.5,216.7z M161.1,168.9c-3.5-0.3-7.2,0.5-8.3-4.1c-0.2-0.7-0.8-1-1.6-0.6c-0.9,0.5-2.1,1.3-1.8,2.2
			c0.7,2.3,0.5,5.2,2.8,6.7c2.4,1.6,4.1-0.3,5.8-1.5C159,170.8,159.9,169.9,161.1,168.9z M137.3,28.6c1.9-3.5,2.6-7.6,6.6-9.3
			C136.1,20.1,134,22.9,137.3,28.6z M132.4,139.2c2.4,1.5,6.4,2,7,0.9c0.4-0.6,0.1-1.4-0.5-1.7C136.6,137.4,134.3,136.8,132.4,139.2
			z M8,129.4c1.5-0.4,2.1-1.4,1.9-2.9c-0.1-0.7,0.1-1.8-1.2-1.3c-1.2,0.5-3.2,0.3-3.2,2.3C5.5,128.9,6.9,129.1,8,129.4z"/>
		<path class="st0" d="M200,89.7c-1.4,0.2-3.2-0.7-3.9,1.3c-0.9,2.8-2.2,2.9-4.3,1.2c-1-0.8-3-0.4-2.2,0.9c4.5,6.9-3.5,7.2-5.4,7.8
			c-3.5,1.2-5.8,1.8-7.2,5.8c-1.4,3.9-10.7,4.6-13.9,1.6c-0.7-0.7-1.5-1.4-2.1-2.1c-1-1.2-2-1.5-3.4-0.5c-1.2,0.9-1.9,1.8-0.8,3.3
			c2.1,2.9-0.5,3.7-2.2,4.8c-2.4,1.4-3.9-0.1-4.5-2.2c-0.7-2.3-1.3-3-3.7-1.7c-4.9,2.7-8.5,1.1-10.4-4.3c-0.4-1.2-1.1-2.6-0.9-3.8
			c0.4-3.1-3.4-6.9,0.6-9.1c3-1.7,6.8-1.3,10.1,0.3c1,0.4,1.8,1,2.6,0c0.6-0.7,0.3-1.6-0.2-2.3c-3.9-4.7-4.1-11-7.3-16.1
			c-4.5-7.2-0.6-8.9,6.5-10.8c1.2-0.3,2.7,0,4-0.1c4.3-0.4,6.7,1,4.5,5.6c-1.5,3.1,2.2,6.2-0.8,9c0.6,0.1,1.2,0.3,1.2,0.3
			c2.3-4.9,8.6-6.1,10.6-11.3c0.9-2.3,3.2-2.7,4.8-4.1c1.6-1.5,3.2-2.7,4-4.8c0.6-1.7,1.8-2.7,3.7-2.7c3.4,0.1,6.2-2,8.2-4
			c3.6-3.5,7.5-5.8,12.3-7C200,59.7,200,74.7,200,89.7z M184.9,78.6c-2.7,0.4-5.6-0.9-8,1.5c-0.9,0.9-2.5,1.3-1.5,3.1
			c0.7,1.4,2,1.7,3.4,1.4c3.3-0.7,5.5-2.6,6-6.1c2.4,0,4.9,0.1,7.3-0.1c1.2-0.1,2-1.2,1.7-2.6c-0.1-0.3-0.7-0.5-1-0.8
			C191.3,78.7,186.4,74.9,184.9,78.6z"/>
		<path class="st0" d="M171,251.7c-1.1-8.3-2-16.7-4.7-24.7c-1.2-3.7-2.2-7.5-1.4-11.5c0.4-2.4,1.3-2.7,3.3-1.8
			c1.8,0.8,3.8,1.2,5.5,2.2c1.6,1,3.1,1,4.7,0.5c1-0.3,1.8-1.1,1.5-2.3c-0.4-1.5-1.4-1.1-2.3-0.6c-1.5,0.8-2.5,1.1-3.5-0.8
			c-1.4-2.9-1.5-5.9-0.4-8.7c0.9-2.2,3.7-0.6,4.2,0c5.7,5.4,10.6-0.3,16.2-0.4c-2-2.7-4.4-2.1-6.3-1.5c-1.5,0.4-2.5,0-3-0.9
			c-0.7-1.2,0.9-1.5,1.5-2.1c0.6-0.5,1.8-0.7,1.4-1.7c-0.6-1.7-0.4-3.1,1.5-3.4c2.1-0.3,1.4,1.7,2,2.7c2.4,3.9,4.3-0.6,7,0.3
			c-4-7.2-3.7-8.2,1.9-9.3c0,9.3,0,18.7,0,28c-4.4-1.9-7.6,0.3-10.5,3.1c-0.6,0.5-1.2,1.2-0.9,2.1c0.4,1,1.4,0.8,2.1,0.8
			c3.1,0,6.3-0.2,9.3,1c0,1.3,0,2.7,0,4c-4.7,0.7-9.1-1.2-13.7-1.1c-1.8,0.1-3.4-0.5-2.8-2.9c0.3-1.1-0.5-1.5-1.3-1.7
			c-0.8-0.1-1.3,0.7-1.1,1.3c1.2,3.6-1.4,3.3-3.5,3.3c-2.3,0-3.1,0.2-3.1,3.2c-0.2,7.6,1.7,15.3-0.6,22.9
			C173,251.7,172,251.7,171,251.7z M192.7,208c-0.4,0-1.1-0.3-1.7-0.1c-1.4,0.4-2.9,0.9-3.6,2.4c-0.1,0.2,0,0.7,0.2,0.9
			c1.4,1.2,2.6,0.1,3.6-0.6c1.9-1.2,3.3-0.5,5,0.6c1.4,0.9,2.3-0.2,2.6-1.3c0.4-1.5-0.6-2-2-2.1C195.5,207.6,194.4,209,192.7,208z"
			/>
		<path class="st0" d="M0,181.7c3.2-2.4,5.9-3.1,8.9,0.6c2.3,2.8,5.1,0.5,7.4-0.6c7.3-3.7,14.3-8.4,23.2-6.1
			c1.7,0.4,3.8-0.4,5.8-0.7c0.1,2-2.9,2.6-1.9,5.3c0.4,1.1-1.8,2.7-4.1,1.8c-2.4-0.9-4.4,0-6.1,2c-2.8,3.5-5.9,6.1-10.6,2.3
			c-2-1.6-6.4,0.7-7.1,3.5c-0.2,0.8-0.6,1.2-1,1.4c-4.8,2.2-9.7,4.3-14.6,6.4c0-2.7,0-5.3,0-8c1.4-0.4,3.8,0.9,3.7-1.8
			c0-2.1-2-2.3-3.7-2.2C0,184.3,0,183,0,181.7z"/>
		<path class="st0" d="M200,127.7c-1.4,1.2-2.3-0.4-2.2-1c0.1-5.6-5-4-7.7-5.8c-4.8-3.1-7.3-0.1-9.4,2.9c-3.4,5-10,4.2-13.8,8.2
			c-1.2,1.3-3.1,0.9-4.5-0.7c0.7-1.7,2.3-2.3,3.8-2.5c1.9-0.3,3.9-0.7,4.3-2.7c0.4-2-2.6-1.8-3-3.5c2.6-1.4,2.6-1.4,6,0.4
			c1.6,0.8,2-0.5,2.8-1.3c0.8-0.8,1.2-1.7-0.4-2.1c-2.9-0.9-1-2.2-0.2-3.1c3.6-4.3,11.1-5.9,16.6-3.8c3.4,1.3-1.4,4.2,2.4,5.6
			c1.5,0.2,2.6-3.3,5.3-2.6C200,119.7,200,123.7,200,127.7z"/>
		<path class="st0" d="M163,251.7c1.1-5.7-4.2-9.6-4.4-15c0-1.3-1.8-0.9-2.9-0.4c-1.8,0.9-3.2-0.1-4.4-1.4c-0.6-0.7-0.3-1.6,0.4-2.2
			c1.7-1.6,2.7,0.2,3.8,0.8c2.7,1.5,3.5,0.3,3.4-2.4c-0.1-2.9,0-5.8,0.6-8.7c4.4,9.4,5.1,19.7,8.4,29.3
			C166.3,251.7,164.7,251.7,163,251.7z"/>
		<path class="st0" d="M200,180.7c-5.5,2.7-11.1,4.8-17.3,3.6c-0.3-0.3-0.6-0.6-0.9-0.8c0-1.2,0-2.4,0.1-3.6
			c3.2,0.3,6.9-3.1,8.9-1.6c3.8,2.7,6.2-0.2,9.2-0.5C200,178.7,200,179.7,200,180.7z"/>
		<path class="st0" d="M0,175.7c5.3-1.6,10.6-3.3,16-4.8c1.8-0.5,3.6-0.3,5,1.3c1.4,1.7,0.6,3.4-1,3.2c-7-0.8-13.5,1.2-20,3.3
			C0,177.7,0,176.7,0,175.7z"/>
		<path class="st0" d="M200,105.7c-2.6,0.3-4.8-0.6-4.8-3.4c0-2.6,2.2-3.8,4.8-3.6C200,101,200,103.3,200,105.7z"/>
		<path class="st0" d="M200,171.7c-0.1,0.1-0.3,0.1-0.4,0.2c-2.1,0.9-4.1,3-6.7,0.9c-0.5-0.4-0.8-1.2-0.2-1.6
			c2.3-1.2,4.7-2.3,7.3-0.5C200,171,200,171.3,200,171.7z"/>
		<path class="st0" d="M109.3,102.8c-4.4,0.2-8.3,2.4-12.7,2c-5.6-0.5-7.7-3.8-4.4-8.4c4.1-5.6,9.9-8.3,17.1-7.8
			c4.6,0.3,9.3-0.1,14,0.2c6.5,0.3,7.9,2.5,5.7,8.6c-2.9,8.2-12,12.7-20.6,10.3c-0.8-0.2-1.6-0.6-1.8-1.5
			C106,103.9,109.4,105.5,109.3,102.8z"/>
		<path class="st0" d="M191.9,103.4c0.3,3.3-1.1,4.6-4.1,4.2c-0.8-0.1-1.8-0.5-2.1-1c-0.6-1.3,0.6-1.8,1.6-1.8
			c1.7-0.1,0.8-1.3,1.2-1.9c0.6-1,0.1-3.2,2.2-2.7C192.1,100.6,192.2,102.2,191.9,103.4z"/>
		<path class="st0" d="M178.6,43.1c-0.7,1.3-1.6,2.6-3.3,2.5c-0.9-0.1-2.1-0.5-1.8-1.7c0.4-1.3,1.3-2.3,2.9-2.1
			C177.4,41.8,178.4,41.7,178.6,43.1z"/>
		<path class="st0" d="M40.3,139.1c1.4-0.4,2.6-0.5,2.3,1.4c-0.5,2.6-0.9,5.6-4.2,5.8c-1.7,0.1-3.6-1.1-3.9-3.1
			C34.1,141.1,37.1,139.1,40.3,139.1z"/>
		<path class="st0" d="M182.7,184.3c-1.5,2.7-3.1,4-6.2,1.8c-2-1.3-4.5-2-6.9-0.3c-2.8,2-5.1-1.5-8.1-0.8c4.5-1.6,8.1-4.6,12.4-6.1
			c1.1-0.4,2,0.3,2.1,1.5c0.4,4.1,3.3,3.3,5.9,3.1C182.1,183.8,182.4,184,182.7,184.3z"/>
		<path class="st0" d="M109.9,238.1c2.3-0.7,3.9-2.5,6.5-1.5c1.6,0.6,3,0.8,2.4,2.8c-0.5,1.9-2.5,1.7-3.7,1.4
			C113.3,240.3,111.7,239.1,109.9,238.1z"/>
		<path class="st0" d="M131.2,148.7c7.9,0.2,13.2,2.8,12.5,6.2c-0.6,2.7-2.2,5.5-5.5,5.6c-6.7,0.2-11.3-2.8-11-7.2
			C127.3,151,127.7,148.1,131.2,148.7z"/>
	</g>
	<g>
		<path class="st1" d="M586.3,0.1c-4.8,8.4-10.8,15.1-21.1,17.1c-12.5,2.4-23.1,9.6-33.9,15.8c-5.7,3.3-8.6,10.6-15.4,12.9
			c-8.3,2.7-12.4,10-17.8,15.9c-7.9,8.7-17.8,14.7-27.8,20.7c-9,5.3-16.6,12.7-25.7,17.8c-2,1.1-3.9,2.5-6.3,2.8
			c0-33.1,0.1-66.2-0.1-99.3c0-3.2,0.9-3.8,3.9-3.8C490.1,0.1,538.2,0.1,586.3,0.1z"/>
		<path class="st2" d="M638.3,128.1c-4.2-0.4-7.5,0.8-11.3,3.1c-5.4,3.2-9.4,8.2-15.7,10.3c-3.6,1.2-5.8,5.6-10.6,5.1
			c-1.1-0.1-0.7,1.3-0.7,2.3c-0.1,1.3-1.6,3.5-2.5,2.5c-3.1-3.2-4.6-1.6-6,2.3c-1.9-4.2-2.6-7,0.7-9.8c2.2-1.9,0.2-6.6-2.7-7.4
			c-4-1.1-9.2-8.2-8-12.1c1.1-3.4-1.6-6.2-0.3-9.4c0.4-1-0.6-1.8-1.9-1.3c-3.2,1.1-6.8,0.8-9.2,4.1c-1.6,2.2-4.6,3.1-7.4,3.3
			c-3.3,0.3-4,2.1-2.8,4.8c0.7,1.6,3.6,2.5,1.3,4.9c-2,2-4.6,3-7.3,2.2c-2.6-0.8-4.7-2.9-7.3,0.3c-2.5,3.1-2.8,2.9-3.7,7.7
			c-3.7-6.5-8.8-10.2-15.9-12c-7.6-1.9-11.6-10.9-10.9-19c0.7-8.2,3-15.5,7.5-22.3c1.9-2.9,0.8-5.7-1.2-8.3
			c-6.2-8.2-5.6-11.2,2.9-16.7c13.3-8.6,26.9-9.2,41.5-3.1c3.2,1.4,5.6,3.5,8.5,5.1c3.6-7.3-0.8-15.5-8.8-16.7
			c-1.5-0.2-3,0.2-4.4-0.8c-1-0.7-3.7,0.5-3-2c0.6-2.2,1.1-5.2,4.5-5.2c0.5,0,1-0.1,1.5,0.7c2.2,3.3,5.6,3.4,8.1,0.6
			c1.2-1.3,2.5-3.3,4.3-3.1c6,0.6,9.8-3.3,14.2-6.3c0.8-0.6,1.6-1.5,2.5-1.6c1.2-0.1,2.6-1.9,3.5-0.4c1,1.5-0.9,2.1-1.8,2.8
			c-4.4,3.7-6.7,9.1-11.1,12.9c-1.2,1-2.2,2.4-3.7,3.1c-3.8,1.8-2.6,5.5-1.9,7.9c1.1,3.7,4.3,2,6.7,1c2.3-0.9,4.4-2.3,6.5-3.7
			c1.7-1.1,3.8-1.7,0.8-4.3c-2.1-1.7,0-4.3,1.4-6.2c1.3-1.9,2.4-0.8,4.1,0c3.8,1.7,7.1-0.3,9.8-2.7c1.4-1.2,2.5-2.6,4.2-3.4
			c2.6-1.1,3.8-2.6,1.6-5.3c-1.4-1.7-0.6-3.3,1.3-3.9c3.1-0.9,4.8-3.4,6.8-5.5c3.6-3.7,5.6-3.6,10.4,1.5c-7.3-3.4-8.2,1.6-9.7,5.7
			c-0.6,1.5-1.3,3-2.7,4.1c-3.4,2.8-1.5,4.8,1.4,5.7c2.7,0.9,5.6,2,8.7,0.8c5.5-2.2,4.1-7.4,4.9-11.4c0.6-2.7-0.2-5.7,3.1-7.1
			c0,7,0,14,0,21c-4.8,1.2-8.7,3.4-12.3,7c-2,2-4.8,4.1-8.2,4c-2-0.1-3.2,0.9-3.7,2.7c-0.7,2.2-2.3,3.4-4,4.8
			c-1.6,1.4-3.9,1.8-4.8,4.1c-2,5.2-8.3,6.4-10.6,11.3c0,0.1-0.6-0.1-1.2-0.3c3-2.8-0.7-6,0.8-9c2.2-4.6-0.1-6-4.5-5.6
			c-1.3,0.1-2.7-0.3-4,0.1c-7.1,1.9-10.9,3.6-6.5,10.8c3.2,5.1,3.4,11.4,7.3,16.1c0.6,0.7,0.8,1.5,0.2,2.3c-0.8,1-1.7,0.5-2.6,0
			c-3.3-1.6-7.1-2-10.1-0.3c-4,2.2-0.2,6-0.6,9.1c-0.1,1.2,0.5,2.6,0.9,3.8c1.9,5.4,5.5,7,10.4,4.3c2.4-1.3,3-0.6,3.7,1.7
			c0.6,2,2,3.6,4.5,2.2c1.8-1,4.4-1.9,2.2-4.8c-1.1-1.5-0.4-2.3,0.8-3.3c1.3-1,2.3-0.8,3.4,0.5c0.6,0.8,1.4,1.4,2.1,2.1
			c3.1,3,12.5,2.3,13.9-1.6c1.4-3.9,3.7-4.6,7.2-5.8c1.9-0.6,9.8-0.9,5.4-7.8c-0.9-1.3,1.2-1.7,2.2-0.9c2.1,1.7,3.5,1.5,4.3-1.2
			c0.6-2,2.5-1.1,3.9-1.3c0,3,0,6,0,9c-2.6-0.1-4.8,1-4.8,3.6c0,2.8,2.2,3.7,4.8,3.4c0,3.3,0,6.7,0,10c-2.7-0.7-3.8,2.8-5.3,2.6
			c-3.8-1.3,1-4.3-2.4-5.6c-5.5-2.1-13-0.6-16.6,3.8c-0.8,1-2.8,2.3,0.2,3.1c1.6,0.5,1.2,1.4,0.4,2.1c-0.7,0.7-1.2,2.1-2.8,1.3
			c-3.4-1.8-3.4-1.7-6-0.4c0.4,1.7,3.5,1.5,3,3.5c-0.4,2-2.4,2.4-4.3,2.7c-1.5,0.2-3.1,0.8-3.8,2.5c1.4,1.6,3.2,1.9,4.5,0.7
			c3.9-4,10.4-3.2,13.8-8.2c2.1-3,4.6-6.1,9.4-2.9c2.7,1.8,7.7,0.2,7.7,5.8c0,0.5,0.8,2.2,2.2,1
			C638.3,126.7,638.3,127.4,638.3,128.1z M547.5,101.2c0.1,2.7-3.2,1.1-2.7,3.4c0.2,0.8,1,1.2,1.8,1.5c8.6,2.5,17.6-2.1,20.6-10.3
			c2.2-6.2,0.9-8.3-5.7-8.6c-4.6-0.2-9.3,0.1-14-0.2c-7.2-0.4-13,2.2-17.1,7.8c-3.4,4.5-1.2,7.8,4.4,8.4
			C539.2,103.6,543.1,101.3,547.5,101.2z M630.2,101.8c0.2-1.2,0.1-2.8-1.3-3.2c-2-0.6-1.6,1.7-2.2,2.7c-0.4,0.6,0.5,1.9-1.2,1.9
			c-0.9,0-2.1,0.6-1.6,1.8c0.3,0.6,1.3,0.9,2.1,1C629,106.4,630.5,105.1,630.2,101.8z M616.8,41.5c-0.2-1.4-1.2-1.3-2.2-1.4
			c-1.6-0.1-2.5,0.8-2.9,2.1c-0.3,1.2,0.8,1.7,1.8,1.7C615.2,44.1,616.1,42.8,616.8,41.5z"/>
		<path class="st2" d="M438.3,152.1c3-0.3,5.9-0.5,4.6-4.9c-0.5-1.8,1.3-2.6,2.4-3.4c1.5-1,1.6,1.5,2.4,1.6c3.4,0.3,1.3,6.5,5.1,5.1
			c2.4-0.9,4.1-3.7,6.2-5.5c1.8-1.5,2.6-3.3,2.4-5.7c-0.1-0.8-0.3-2,0.1-2.4c4.9-5,5.3-13.5,13.3-16.2c3.6-1.2,6.6-4.3,9.9-6.5
			c1.1-0.8,1.3-3.9,3.4-1.9c1.4,1.3,2.5,3.5,1.4,5.8c-0.4,0.7-0.9,1.4-1.1,2.1c-0.3,1.2-2.1,3.2,0.3,3.4c1.2,0.1,4.2,1.6,4.7-1.7
			c0.1-0.8,0.5-1.6,0.9-2.3c0.5-0.9,0.6-2.6,2.2-1.7c1.1,0.6,2.2,1.6,1.4,3.3c-0.7,1.5-1.3,3-1.8,4.6c-1.2,3.6,1.1,4.1,3.9,4.7
			c3.7,0.8,2.2-1.9,2.4-3.3c0.3-1.6-0.2-3.3,1.2-4.7c1.4-1.3,2.4-1.4,3.6,0.3c3,4.1,2.8,11.9-0.5,15.6c-3.2,3.6-7.1,3.2-9.2-1.2
			c-0.9-1.8-1.5-4.3-3.8-3.4c-2.7,1.1-1,3.8-0.1,5.1c1.7,2.8-0.7,5.5,0.2,8.2c1.5,4.3-2.9,4-4.6,5.8c-1.2,1.2-2.5,2.2-3.6,3.5
			c-0.9,1-2.9,1.9-1.5,3.6c1.6,2.1,3.4,0.7,4.8-0.3c2.3-1.6,4.3-3.5,6.4-5.5c2.6-2.5,5.2-3.4,8-0.4c0.4,0.5,1,1,1.5,1.1
			c6.5,1.5,8.1,5.7,4.2,11.1c-1.7,2.4-3.4,4.7-4,7.9c-0.5,3.1-2.4,5.8-5.1,7.7c-1.9,1.3-5.5,1.9-5.1,4.1c0.6,2.9,1.2,6.1,3.3,8.6
			c4.7,5.4,10.1,10,16.4,13.4c-3.3,1.9-4.3,1.8-8-1c-1.2-0.9-2.9-2.4-2.9,0.2c0,5.1-1.9,2.5-3.8,1.4c-3.8-2.2-6.7-1-7.6,3.3
			c-0.3,1.6-1.1,3-2.5,2.2c-6.2-3.5-4.7,2.4-5.3,4.6c-0.5,1.7,0.4,3.4-2.4,2.1c-0.7-0.3-1.2-0.1-1.6,0.6c-1.5,2.8-1.6,2.9-4.2,0.9
			c-3-2.3-6.2-0.6-9.2-0.2c-1.3,0.2-3.7,2-2.2,4.6c2.2,3.8,1.5,7.9,0.8,12.7c-3.5-3.5-4.5-7.9-6.2-11.6c-2.1-4.9-5.1-8.7-9-12.2
			c-2.2-2-3.7-1.5-5.5,0.2c-2.3,2.1-4.6,4.3-6.9,6.4c0-8.7,0-17.3,0-26c4.9-2.1,9.8-4.2,14.6-6.4c0.5-0.2,0.9-0.7,1-1.4
			c0.7-2.9,5-5.2,7.1-3.5c4.7,3.8,7.8,1.2,10.6-2.3c1.7-2.1,3.7-3,6.1-2c2.3,0.9,4.5-0.7,4.1-1.8c-1-2.7,2-3.3,1.9-5.3
			c-2,0.3-4.1,1.2-5.8,0.7c-9-2.3-15.9,2.3-23.2,6.1c-2.3,1.1-5.1,3.5-7.4,0.6c-3-3.7-5.8-3-8.9-0.6c0-1,0-2,0-3
			c6.5-2.1,13-4.1,20-3.3c1.5,0.2,2.4-1.5,1-3.2c-1.4-1.6-3.2-1.8-5-1.3c-5.3,1.5-10.6,3.2-16,4.8
			C438.3,166.7,438.3,159.4,438.3,152.1z M478.5,137.5c-3.1,0-6.2,2-5.9,4.1c0.3,2,2.2,3.2,3.9,3.1c3.3-0.3,3.8-3.2,4.2-5.8
			C481.1,137,479.9,137.1,478.5,137.5z"/>
		<path class="st2" d="M554.3,250.1c-1.3-4.3-6-6.1-7.6-10.1c-0.9-2.3-3.8-3.9-2.1-7.2c0.5-1-1.1-1.7-2.2-1.2
			c-2.2,1.1-3-0.5-3.9-1.9c-0.4-0.6-1.2-1.3-0.4-2.2c0.7-0.7,1.5,0,2.2,0c6.1,0,11.5,4.4,17.8,2.7c0.2,0,0.4-0.1,0.5,0
			c7.1,6.8,8.8-1.6,12.2-4.6c1.4-1.2,2.4-3,4.3-1.9c2.1,1.1,0.4,2.9,0.3,4.4c-0.1,2.2-3.7,4.8-1.2,6c1.9,1,5-3,5.3-4.7
			c1-4.3,4.5-6.9,5.8-10.9c0.6-1.9,1.4-3.2,4.2-3.1c3.4,0.2,5.3-4.4,3.2-7.2c-1.1-1.5-2.9-2-4.2-0.3c-1.3,1.5-2.2,3.3-3.2,5
			c-2.7,4.9-6.8,6.6-11.8,4.9c-1.3-0.4-2.4-1.3-2.1-2.4c1.2-3.9-0.8-7.4-0.7-11.1c0.1-2.8,0.3-6,2.5-8.3c2.6-2.7,2.7-5.7,0-8.4
			c-2.4-2.4-1.6-4,1.2-4.1c6.1-0.2,9.5-4.1,13.6-8c2.2-2.1,7-2.4,10.7-3.6c2.5-0.8,7.9-8.8,7.4-11.4c-0.4-2-1.5-0.9-2.6-0.8
			c-2.2,0.3-4.4,6-6.3,1.2c-1.5-3.9,2.7-3.9,5.8-4.4c2.5-0.4,4.4-3.4,7.6-2.7c1.4,0.3,3.7-0.3,3.9,1.3c0.3,2-2,1.4-3.3,1.9
			c-1.8,0.7-3.1,2-3,4.1c0.1,1.2-0.6,2.8,1.1,3.5c1.3,0.5,2.2-0.5,2.9-1.4c2.6-2.8,5.1-5.7,9.1-6.4c0.9-0.2,1.5-0.6,1.7-1.5
			c1.2-6.1,7.1-5.6,11-8c1.9-1.1,2.5,2.3,4.1,0.6c0,7,0,14,0,21c-2.5-1.8-4.9-0.7-7.3,0.5c-0.7,0.4-0.4,1.2,0.2,1.6
			c2.5,2,4.5,0,6.7-0.9c0.1-0.1,0.3-0.1,0.4-0.2c0,2,0,4,0,6c-3,0.3-5.4,3.3-9.2,0.5c-2-1.5-5.7,1.9-8.9,1.6c0,1.2,0,2.4-0.1,3.6
			c-2.6,0.2-5.5,1-5.9-3.1c-0.1-1.2-1-1.9-2.1-1.5c-4.3,1.6-7.9,4.5-12.4,6.1c3-0.6,5.3,2.9,8.1,0.8c2.4-1.8,5-1.1,6.9,0.3
			c3.2,2.2,4.8,0.9,6.2-1.8c6.3,1.2,11.9-0.9,17.3-3.6c0,2.3,0,4.7,0,7c-5.6,1.1-5.8,2-1.9,9.3c-2.6-0.9-4.6,3.6-7-0.3
			c-0.6-1,0-3-2-2.7c-1.9,0.3-2.1,1.7-1.5,3.4c0.4,1-0.8,1.2-1.4,1.7c-0.7,0.6-2.2,0.8-1.5,2.1c0.5,0.9,1.5,1.3,3,0.9
			c2-0.5,4.3-1.2,6.3,1.5c-5.6,0.2-10.5,5.8-16.2,0.4c-0.6-0.5-3.4-2.1-4.2,0c-1.1,2.8-1,5.8,0.4,8.7c0.9,2,2,1.7,3.5,0.8
			c0.9-0.5,2-0.9,2.3,0.6c0.3,1.2-0.5,2-1.5,2.3c-1.6,0.5-3.1,0.5-4.7-0.5c-1.7-1-3.7-1.5-5.5-2.2c-2-0.9-2.8-0.6-3.3,1.8
			c-0.8,4.1,0.2,7.8,1.4,11.5c2.7,8,3.6,16.4,4.7,24.7c-1,0-2,0-3,0c-3.3-9.6-4-19.9-8.4-29.3c-0.6,3-0.7,5.8-0.6,8.7
			c0.1,2.7-0.7,3.8-3.4,2.4c-1.2-0.7-2.2-2.4-3.8-0.8c-0.7,0.6-0.9,1.6-0.4,2.2c1.1,1.3,2.5,2.3,4.4,1.4c1.1-0.5,2.9-1,2.9,0.4
			c0.1,5.5,5.4,9.3,4.4,15C585.6,250.1,569.9,250.1,554.3,250.1z M548.1,236.5c1.9,1,3.5,2.2,5.3,2.7c1.2,0.3,3.2,0.5,3.7-1.4
			c0.6-2-0.9-2.2-2.4-2.8C552,233.9,550.4,235.8,548.1,236.5z"/>
		<path class="st1" d="M612.3,250.1c2.3-7.6,0.4-15.3,0.6-22.9c0.1-3,0.8-3.2,3.1-3.2c2.1,0,4.7,0.4,3.5-3.3
			c-0.2-0.6,0.3-1.4,1.1-1.3c0.7,0.1,1.6,0.5,1.3,1.7c-0.6,2.4,1,3,2.8,2.9c4.6-0.2,9.1,1.8,13.7,1.1c0,7.5-0.1,15,0.1,22.5
			c0,2.2-0.4,2.6-2.6,2.6C627.9,250,620.1,250.1,612.3,250.1z"/>
		<path class="st2" d="M638.3,17.1c-2.1-1.3-4.4-2.3-6.1-3.9c-2.4-2.2-3.7-3.1-4,1.2c-0.2,1.9-1.5,2-2.8,0.7c-2.5-2.4-5.5-4.2-7.6-7
			c-1.2-1.7-2.7-2.2-4.7-1c-1.9,1.2-2.5,3.3-1.5,4.7c3.5,4.9-1.2,4.4-2.8,3.7c-4.3-1.9-8.5-1.6-13-0.1c0.6-3.4,4.6-4.1,4.2-7.4
			c-0.1-0.6,0.9-0.5,1.6-0.3c1.8,0.4,4.2,1.4,4.7-1.7c0.5-3.2-1.4-4-4.2-4c-1.2,0-1.7-0.8-1.8-1.9c11.6,0,23.1,0.1,34.7-0.1
			c2.6,0,3.6,0.2,3.4,3.2C638,7.8,638.3,12.4,638.3,17.1z"/>
		<path class="st2" d="M487.3,250.1c-0.7-6.1-3.8-11.4-5.8-17c-0.6-1.7-1.3-3.3-1.1-5.1c0.1-1.3,1.5-2,1.8-1
			c1.1,3.4,4.3,2.9,6.3,4.4c2.6,1.9,4.8,5.3,5.8,8.4c1.1,3.6,3.9,6.4,4,10.3C494.6,250.1,490.9,250.1,487.3,250.1z"/>
		<path class="st2" d="M510.3,250.1c0.3-2.5-1.8-2.5-3.2-2.9c-3.2-1-4.5-3.3-4.7-6.3c-0.1-1.5-0.6-4.6,0.9-4.2
			c2.2,0.6,4.2-2.5,6.5,0.3c1.9,2.3,3.6,4.9,6.7,6.4c2.1,1,3.6,2.9,6.4,2.8c2.2-0.1,2.5,2.3,3.4,3.8
			C520.9,250.1,515.6,250.1,510.3,250.1z"/>
		<path class="st2" d="M448.3,250.1c0.2-0.6,0.9-1.5,0.6-1.8c-2.9-4,0.1-4.2,3-4.4c-1-2.5-3.8-3.5-4-6.3c-0.1-1.1-1.3-2.3,0-3.1
			c0.9-0.5,2.6-0.8,3.3-0.3c2.5,1.8,6,3.1,3.7,7.7c-1.3,2.6-0.7,6.2-3.7,8.1C450.3,250.1,449.3,250.1,448.3,250.1z"/>
		<path class="st2" d="M638.3,221.1c-3-1.2-6.2-1-9.3-1c-0.8,0-1.8,0.2-2.1-0.8c-0.4-0.9,0.3-1.6,0.9-2.1c3-2.8,6.2-5,10.5-3.1
			C638.3,216.4,638.3,218.7,638.3,221.1z"/>
		<path class="st2" d="M638.3,144.1c-2.7-0.6-4.4,3.7-8.2,1c5.6-1.3,5.5-6.6,8.2-10C638.3,138.1,638.3,141.1,638.3,144.1z"/>
		<path class="st2" d="M438.3,184.1c1.7,0,3.7,0.2,3.7,2.2c0.1,2.7-2.4,1.4-3.7,1.8C438.3,186.7,438.3,185.4,438.3,184.1z"/>
		<path class="st2" d="M583.4,153.7c-0.1,2.5,0.5,5.4-0.6,7.3c-1.5,2.5-4.4-0.2-6.8,0c-6.1,0.4-12.1,1.7-18.3-0.8
			c-5.3-2.2-8.6-8.1-6.1-13.3c0.9-1.8,2.6-2.5,4.5-2.7c7.3-0.7,14.5-1.5,21.8-2c3.6-0.2,4.7,2.7,5.3,5.5c0.4,1.9,0.1,4,0.1,6
			C583.3,153.7,583.3,153.7,583.4,153.7z M569.4,147.1c-3.4-0.6-3.8,2.3-4,4.7c-0.3,4.4,4.3,7.4,11,7.2c3.2-0.1,4.9-2.9,5.5-5.6
			C582.6,149.9,577.3,147.3,569.4,147.1z"/>
		<path class="st2" d="M490.8,215.1c9.5,2.1,10.2,10.4,15.3,14.5c0.7,0.6,0.5,2.6-0.7,3.6c-1.6,1.3-1.8-0.2-2.4-1.2
			c-0.8-1.2-1.7-0.2-2.6-0.1c-1.3,0.2-3-0.5-2.7-1.5c1.8-6.7-3.8-4.7-7.8-6C497,222.6,494.6,219.2,490.8,215.1z"/>
		<path class="st2" d="M599.3,167.3c-1.2,1-2,2-3.1,2.7c-1.7,1.2-3.4,3.1-5.8,1.5c-2.3-1.6-2.1-4.4-2.8-6.7
			c-0.3-0.9,0.9-1.7,1.8-2.2c0.7-0.4,1.4-0.1,1.6,0.6C592.1,167.7,595.8,167,599.3,167.3z"/>
		<path class="st2" d="M575.5,27c-3.2-5.6-1.2-8.5,6.6-9.3C578.2,19.4,577.4,23.4,575.5,27z"/>
		<path class="st2" d="M570.6,137.5c1.9-2.3,4.3-1.7,6.6-0.7c0.6,0.3,0.8,1,0.5,1.7C577,139.6,573,139,570.6,137.5z"/>
		<path class="st2" d="M446.3,127.8c-1.1-0.3-2.5-0.5-2.5-1.9c0-2,2-1.8,3.2-2.3c1.3-0.6,1.2,0.6,1.2,1.3
			C448.3,126.4,447.7,127.4,446.3,127.8z"/>
		<path class="st2" d="M623.1,76.9c-0.5,3.5-2.7,5.4-6,6.1c-1.3,0.3-2.6-0.1-3.4-1.4c-0.9-1.7,0.6-2.2,1.5-3.1
			c2.3-2.3,5.3-1.1,8-1.5L623.1,76.9z"/>
		<path class="st2" d="M623.2,77c1.4-3.7,6.4,0.1,7.8-3.6c0.4,0.3,0.9,0.5,1,0.8c0.3,1.4-0.5,2.4-1.7,2.6c-2.4,0.3-4.9,0.1-7.3,0.1
			C623.1,76.9,623.2,77,623.2,77z"/>
		<path class="st2" d="M631,206.4c1.6,1,2.7-0.4,4-0.3c1.4,0.1,2.4,0.5,2,2.1c-0.3,1.2-1.2,2.2-2.6,1.3c-1.6-1.1-3-1.8-5-0.6
			c-1,0.6-2.2,1.8-3.6,0.6c-0.2-0.2-0.3-0.7-0.2-0.9c0.8-1.4,2.2-2,3.6-2.4C629.9,206.1,630.6,206.3,631,206.4z"/>
	</g>
</g>
<g>
</g>
<g>
</g>
<g>
</g>
<g>
</g>
<g>
</g>
<g>
</g>
<g>
</g>
<g>
</g>
<g>
</g>
<g>
</g>
<g>
</g>
<g>
</g>
<g>
</g>
<g>
</g>
<g>
</g>
</svg>
