<?xml version="1.0" encoding="utf-8"?>
<!-- Generator: Adobe Illustrator 17.1.0, SVG Export Plug-In . SVG Version: 6.00 Build 0)  -->
<!DOCTYPE svg PUBLIC "-//W3C//DTD SVG 1.1//EN" "http://www.w3.org/Graphics/SVG/1.1/DTD/svg11.dtd">
<svg version="1.1" id="Layer_1" xmlns="http://www.w3.org/2000/svg" xmlns:xlink="http://www.w3.org/1999/xlink" x="0px" y="0px"
	 viewBox="0 0 640.5 200.2" style="enable-background:new 0 0 640.5 200.2;" xml:space="preserve">
<style type="text/css">
	.st0{fill:#040101;}
	.st1{fill:#FA0101;}
	.st2{fill:#090202;}
</style>
<g>
	<g>
		<path class="st0" d="M0.1,99.6c0-32,0.1-64-0.1-96C0,0.6,0.6,0,3.6,0c64.3,0.1,128.7,0.1,193,0c3,0,3.6,0.6,3.6,3.6
			c-0.1,64.3-0.1,128.7,0,193c0,3-0.6,3.6-3.6,3.6c-64.3-0.1-128.7-0.1-193,0c-3,0-3.6-0.6-3.6-3.6C0.1,164.2,0.1,131.9,0.1,99.6z
			 M144.5,105.4c4.5,0.1,3.3-2.1,1.7-4.3c-0.7-0.7-1.4-1.4-2.1-2.1c0-1,0-2,0-2.9c0.7-0.6,1.5-1.3,2.2-1.9c1.4-0.1,2.2-0.6,1.8-2.2
			c0.3-1.9,1.6-1.9,3.1-1.7c-0.2,1.3-0.3,2.6-0.5,3.9c-0.2,1-1.7,2.1,0,2.9c1.1,0.5,2.6,0.1,3.1-0.8c1.4-2.6,4.4-4.6,3.3-8.2
			c0-0.6,0-1.1,0.1-1.7c0.8-3-1.5-3.6-3.5-4.4c0.5-0.6,1.1-1.2,1.6-1.8c1.5-0.7,1.4-1.9,0.8-3.1c0.1-1.5,0-2.9-0.6-4.4
			c-0.9-1.9-0.2-3.7,1.3-5c1.6-1.3,2.7,0.4,3.9,1.2c2.1,1.5,4.3,2.6,6.8,1.1c2.4-1.4,3.5-0.2,4.6,1.8c2,3.5,2.9,7,1.2,10.9
			c-1.5,3.3-1,6.5,0.1,10.1c1.8,6,4.1,12.2,2.6,18.6c-1,4.5-1.5,8.2,3.7,10.2c1.2,0.5,1.3,1.8,1.7,2.9c2.9,7.9,7.4,15.4,6.7,24.3
			c-0.2,2,1.1,4.6-1,6c-2.1,1.3-3.8-0.8-5.3-1.9c-5.8-4.2-12-6.2-19.2-3.9c-1.6,0.5-3.7,0.7-5-1.1c0.1-1.9,2.4-2.1,3-3.6
			c-5.5-2.3-12.8,0.5-14.9,5.9c-1.3,3.4-0.7,8.9-7.1,5.1c-0.2-0.1-0.7,0.1-0.9,0.3c-5.5,4.2-11.7,7.8-14.4,14.7
			c-2.3,5.8-1.8,7.3,3.4,10.5c-2.2,1.4-5.6,2.6-1.7,5.6c4.4,3.4,9.3,5.9,14.8,6.8c4.5,0.7,9.4-1.7,10.3-4.9c1.3,0,2.6,0,4,0
			c0.6,5.8,2.9,7.7,7.9,6.9c7.2-1.2,14.4-2,21.7-1.9c9.6,0.1,9.6,0,9.6-9.9c0-19.9-0.4-39.9-0.8-59.8c-0.7-37.1-0.2-74.3-0.2-111.4
			c0-2.5,0-5.1,0-7.9c-8,0-16.1-0.1-24.3,0.1c-2.4,0-5.3-1.2-7,1.2c-2,2.8,1.8,3.8,2.4,5.8c0.3,0.9,1.1,1.7,0.3,2.8
			c-0.4,0.5-0.9,1.1-1.6,0.5c-2.9-2-7.4-0.6-9.8-5.9c0,4.5,0,7.5,0,10.5c-0.4,0.1-0.8,0.3-1.2,0.4c-0.4-4.8-1.9-9.1-4.2-13.2
			c-0.8-1.4-1-2.2-2.5-2.2c-2,0-4.6-0.5-4.8,2.2c-0.3,4.6-3.7,6-6.8,7.8c-2.1,1.2-4.1,2.1-5.1,4.8c-0.8,2.1-3.4,3.7-5.8,3
			c-2.5-0.8-3.6-3.2-3.5-6c0.2-5.5,3.4-7.4,8.5-5.1c1.7,0.8,3.5,2,4.3-0.8c0.6-2.2,0.6-4.5-2.6-4.9c-1.7-0.2-3.3-0.7-5.3-0.3
			c-5,1.1-10.7-1.4-15.2,2.8c-6.4-3.1-9.2,2.5-13.2,5.3c-2,1.4-4.4,2.7-7.3,1.7c0.6-1.2,1.2-2.1,1.5-3c0.4-1.3,2.2-2.9,0.3-3.9
			c-1.3-0.7-2.7,0.4-3.6,1.7c-2,2.9-3.2,5.9-3.7,9.5c-0.5,3.6,0.7,4.1,3.5,4.1c3,0,6-0.1,8.8,3.1c-3.5-0.4-6.3,0-9,0.8
			c-5.4,1.7-10.6,0.8-15.8-1.3c-3.2-1.3-6.8-1.4-9.3,1.3c-3.9,4.3-7.1,9.1-7.9,15.1c-0.5,3.4-1.3,6.8-2.1,10.2
			c-0.6,2.4-3.5,2.5-4.6,4.4c-1.8-1.5-2.2-3.3-1.4-5.6c0.5-1.5,0.1-3.4,0.7-4.9c1.2-3-0.8-3.9-2.8-4.8c-1.2-0.5-3.2,0.9-3.5-1.4
			c-0.3-2.4,2-3.3,3.5-3.6c3.6-0.7,4.8-2.8,4.2-6c-0.6-3.4-3.5-2.2-5.7-2.3c-0.4-0.3-0.7-0.5-1.1-0.8c1.3-0.4,2.3-1.2,3.3-2.1
			c3.2-2.9,2.9-7.3,4.8-10.8c4.6-8.6,4.4-8.8,13.4-4.3c2,1,2.3-0.6,2.9-1.4c0.7-1,0.8-2.5-1-2.5c-4.9,0.1-9.4-2.1-14.2-2.1
			c-12.7-0.1-25.3,0-38,0c-4.4,0-6.3,1.8-6.5,6.6c-0.4,7.4,1.5,14.6,1.3,22c-0.1,4.5,2.9,3.5,5.5,2.1c1.1-0.6,2.3-1.1,3.1,0.2
			c0.7,1.3-0.2,2.6-1.3,2.7c-3.1,0.5-4,3.4-5.8,5.1c-2.4,2.2-2.4,5.5,0.7,7.1c3.6,1.8,2.4,3.1,0.5,5c-1.2,1.1-2.2,4.1-0.2,3.5
			c5.8-1.8,10.2,3.3,15.8,2c2.7-0.6,7.3,0.3,7.4,4.1c0.1,3.6,1.1,6.6,2.2,9.8c1.8,5.2,1.7,5.2-3.5,4.9c-0.5,0-1-0.1-1.5,0
			c-2.8,0.6-6.5,0-6.8,4.2c-0.3,5-5.5-0.8-6.2,3c-0.1,0.5-0.4,0.9-0.7,1.3c-1,1.3-1.7,3.2-3,3.9c-5.5,3-5.8,8.3-6.5,13.5
			c-0.9,6.4-1.6,13.4,2.9,18.3c4.1,4.4,7.2,9.5,11,14c1.6,2,3.9,4.6,3,7c-1.9,5.4-3.8,10.8-7.1,16c-0.8-1.6-1.4-2.7-1.1-4.2
			c0.8-4.5,1.3-9.1,1.9-13.7c0.6-4.3-1.3-7-5.1-7.3c-6-0.5-7.7,2.8-5.3,9.9c0.4,0.4,0.8,0.8,1.1,1.2c0,1.1,2.5,1.5,1.3,2.7
			c-4.1,4.1-1.8,9.1-2.4,13.7c-0.1,1.2-0.7,3,0.5,3.7c1.8,1.1,2.4-1.2,3.5-1.9c0.9-0.6,1.6-1.9,2.9-0.9c1.5,1.2-0.1,1.9-0.5,2.8
			c-3,6-7.5,11.2-7.5,18.4c-0.1,8.3-0.2,8.3,7.8,8.3c1,0,2,0,3,0c4.7,0.3,6.9-2.7,5-7.2c-1.9-4.4-1-9.2,1.7-12.2
			c6.3-6.8,9.2-15.2,12.6-23.3c2-4.8,2.5-10.6-2.2-14.8c-2-1.8-3.9-3.3-1.6-6c1.6-1.9,2.5-4.3,4.6-5.8c0.7-0.5,1.2,0,1.7,0.4
			c4,2.6,6.4-0.7,8.2-3.1c2.5-3.2,6.9-7.1,2.8-11.3c-5.4-5.5-5.1-12.7-7.3-19.1c-1.2-3.5-0.9-7.8,1.2-11.1c1.5-2.3,4.1,0.8,6.3-0.2
			c-2.7,2.9-2.7,5.8-1.9,9.3c1.2,4.8,5.7,8.1,5.7,13.5c0,2.9,1.6,5.5,3.6,8c2.3,2.9,3.6,6.3,1.7,10.1c-0.5,1-1.1,2.4-0.8,3.3
			c3.2,8.9,4.3,18.4,8.8,26.8c0.6,1.1,1.2,2.8,2.8,2.5c1.8-0.3,1.2-2.1,1.3-3.3c0-2.2,0.3-4.4-0.2-6.5c-0.6-2.5,0.9-3.6,2.5-2.6
			c4.4,2.8,9,4.2,14.2,4.5c-2.3,1.6-4.6,1.3-6.9,0.6c-2.1-0.6-5.1-0.4-4.9,2.1c0.3,3.4,2.2,6.5,5.4,8.5c3.4,2.1,7.7,3.6,10.7,1.2
			c3.2-2.6,6.8-3,10.3-4.3c0,0.4,0,0.8,0,1.2c-1.1,5.3-7.8,5.5-9.5,10.9c-1.2,3.7-2,5.8,2.3,6.7c11.5,2.6,16.8,2.9,22.8-6.8
			c3-4.8,8.6-7.2,11.4-12.3c1.2-2.2,1.2-4.2-1.4-3.4c-5.6,1.7-11-2.5-16.4-0.1c-0.4-0.4-0.8-0.9-1.3-1.3c0-2-0.1-4,0.2-5.9
			c0.4-2.6,1.1-5.3,4.8-5c4.9,0.3,1.2-3.3,2.2-4.8c1.8,0.1,3.1-1.3,3.4-2.4c1.5-5.7,4.9-10.8,4.6-17.1c-0.3-5.4,2.4-7.9,7.8-8.7
			c1.3-0.2,2.5-0.7,3.8-1.1c1.7,0,3.5,0.1,5.2,0.1c0,0.7,0,1.3,0,2c-0.9,2-1.2,4.7,0.9,5.2c2.1,0.5,3.7-1.7,3.7-4.2
			c0-0.2,0-0.3,0-0.5L144.5,105.4z M140.6,130.3c-3.9-0.7-4.8,1.7-5.4,3.9c-0.4,1.4-2.3,3.2-0.3,4.4c1.8,1.1,3.9,0.3,5.6-0.9
			c0.6-0.4,1.2-0.7,1.6-1.2c1.5-1.9,6.2-0.8,5.3-4C146.6,129.8,142.3,131.6,140.6,130.3z"/>
		<path class="st1" d="M100.1,152.9c-3.4,1.3-7,1.7-10.3,4.3c-3,2.4-7.3,0.9-10.7-1.2c-3.2-1.9-5.2-5.1-5.4-8.5
			c-0.2-2.6,2.8-2.8,4.9-2.1c2.4,0.7,4.6,1,6.9-0.6c-5.2-0.2-9.9-1.6-14.2-4.5c-1.5-1-3,0.1-2.5,2.6c0.5,2.1,0.2,4.3,0.2,6.5
			c0,1.2,0.5,3-1.3,3.3c-1.6,0.3-2.2-1.4-2.8-2.5c-4.5-8.4-5.6-18-8.8-26.8c-0.3-0.9,0.3-2.3,0.8-3.3c1.9-3.8,0.6-7.3-1.7-10.1
			c-2-2.5-3.6-5-3.6-8c0-5.4-4.5-8.7-5.7-13.5c-0.9-3.5-0.9-6.4,1.9-9.3c-2.2,1.1-4.8-2.1-6.3,0.2c-2.2,3.3-2.5,7.6-1.2,11.1
			c2.2,6.4,1.9,13.6,7.3,19.1c4.1,4.1-0.2,8.1-2.8,11.3c-1.9,2.4-4.2,5.6-8.2,3.1c-0.5-0.3-0.9-0.9-1.7-0.4c-2.1,1.5-3,3.9-4.6,5.8
			c-2.3,2.7-0.5,4.2,1.6,6c4.7,4.2,4.2,10,2.2,14.8c-3.3,8.2-6.3,16.5-12.6,23.3c-2.7,3-3.6,7.7-1.7,12.2c1.9,4.5-0.3,7.5-5,7.2
			c-1-0.1-2,0-3,0c-8,0-7.9,0-7.8-8.3c0.1-7.2,4.6-12.5,7.5-18.4c0.5-0.9,2.1-1.6,0.5-2.8c-1.3-1.1-2,0.2-2.9,0.9
			c-1.1,0.8-1.7,3-3.5,1.9c-1.2-0.7-0.7-2.5-0.5-3.7c0.6-4.6-1.8-9.6,2.4-13.7c1.2-1.2-1.3-1.6-1.3-2.7c2.6-0.7,4.8-2.1,6.4-4.2
			c0.6-0.8,2.2-2,0.5-3.2c-1.3-1-2.5-0.5-3.4,0.6c-1.5,1.9-3.1,3.8-4.6,5.7c-2.4-7-0.7-10.3,5.3-9.9c3.8,0.3,5.7,3,5.1,7.3
			c-0.6,4.6-1.1,9.2-1.9,13.7c-0.3,1.5,0.3,2.5,1.1,4.2c3.2-5.2,5.1-10.6,7.1-16c0.8-2.4-1.4-5-3-7c-3.8-4.6-6.9-9.6-11-14
			c-4.5-4.9-3.8-11.9-2.9-18.3c0.7-5.1,1-10.5,6.5-13.5c1.3-0.7,2-2.5,3-3.9c0.3-0.4,0.6-0.8,0.7-1.3c0.7-3.8,5.9,2.1,6.2-3
			c0.3-4.2,4-3.6,6.8-4.2c0.5-0.1,1-0.1,1.5,0c5.2,0.4,5.3,0.3,3.5-4.9c-1.1-3.2-2.1-6.2-2.2-9.8c-0.1-3.8-4.7-4.8-7.4-4.1
			c-5.6,1.3-10-3.8-15.8-2c-1.9,0.6-0.9-2.3,0.2-3.5c2-1.9,3.2-3.2-0.5-5c-3.2-1.6-3.1-4.9-0.7-7.1c1.9-1.7,2.7-4.6,5.8-5.1
			c1.1-0.2,2-1.5,1.3-2.7c-0.8-1.3-2-0.7-3.1-0.2c-2.6,1.4-5.6,2.4-5.5-2.1c0.2-7.4-1.7-14.6-1.3-22C4.2,5.9,6,4.1,10.5,4.1
			c12.7,0,25.3,0,38,0c4.8,0,9.3,2.2,14.2,2.1c1.8,0,1.7,1.5,1,2.5c-0.6,0.8-0.9,2.4-2.9,1.4c-9-4.5-8.8-4.4-13.4,4.3
			c-1.9,3.5-1.6,7.9-4.8,10.8c-1,0.9-2,1.7-3.3,2.1c-2.2,1-4.5,0.7-6.8,0.7c-2,0-2.8,1.3-3.6,2.8c-0.7,1.2,0.2,2,0.7,2.6
			c1.5,1.5,2.6-0.1,3.8-0.8c2.4-1.3,4.9-2.5,7-4.4c2.2,0.1,5.1-1,5.7,2.3c0.6,3.2-0.5,5.3-4.2,6c-1.4,0.3-3.8,1.2-3.5,3.6
			c0.3,2.3,2.3,0.9,3.5,1.4c2,0.8,4,1.8,2.8,4.8c-0.6,1.5-0.2,3.3-0.7,4.9c-0.8,2.3-0.4,4.1,1.4,5.6c1.1-1.9,4-2.1,4.6-4.4
			c0.8-3.4,1.7-6.7,2.1-10.2c0.8-6,4-10.8,7.9-15.1c2.5-2.7,6.1-2.6,9.3-1.3c5.2,2.1,10.3,3,15.8,1.3c2.7-0.8,5.5-1.2,9-0.8
			c-2.7-3.2-5.8-3.1-8.8-3.1c-2.8,0-4-0.5-3.5-4.1c0.5-3.7,1.7-6.7,3.7-9.5c0.9-1.2,2.3-2.4,3.6-1.7c1.8,1.1,0.1,2.6-0.3,3.9
			c-0.3,0.9-0.9,1.8-1.5,3c3,1,5.3-0.3,7.3-1.7c4-2.8,6.8-8.4,13.2-5.3C112.3,3.4,118,6,123,4.8c2-0.4,3.6,0,5.3,0.3
			c3.1,0.4,3.2,2.7,2.6,4.9c-0.8,2.8-2.6,1.6-4.3,0.8c-5.1-2.3-8.3-0.3-8.5,5.1c-0.1,2.8,1,5.2,3.5,6c2.4,0.8,5-0.9,5.8-3
			c1-2.7,3-3.6,5.1-4.8c3.1-1.8,6.5-3.2,6.8-7.8c0.2-2.7,2.8-2.2,4.8-2.2c1.5,0,1.7,0.8,2.5,2.2c2.4,4.1,3.8,8.4,4.2,13.2
			c0.4-0.1,0.8-0.3,1.2-0.4c0-3,0-6,0-10.5c2.4,5.2,6.9,3.9,9.8,5.9c0.8,0.5,1.2,0,1.6-0.5c0.8-1-0.1-1.8-0.3-2.8
			c-0.6-2.1-4.4-3.1-2.4-5.8c1.7-2.4,4.7-1.1,7-1.2c8.1-0.1,16.3-0.1,24.3-0.1c0,2.8,0,5.3,0,7.9c0,37.1-0.5,74.3,0.2,111.4
			c0.4,19.9,0.8,39.9,0.8,59.8c0,9.8,0,9.9-9.6,9.9c-7.3,0-14.5,0.7-21.7,1.9c-5,0.8-7.2-1.1-7.9-6.9c0.1-1.5,0.1-3,0.2-4.5
			c0.1-3.2-0.9-6.1-4-7.3c-3.2-1.2-6.5-1.2-8.8,2.4c4.7,1.5,7,5.2,8.7,9.4c-0.9,3.2-5.7,5.6-10.3,4.9c-5.5-0.9-10.4-3.4-14.8-6.8
			c-3.9-3-0.5-4.2,1.7-5.6c-5.1-3.2-5.6-4.8-3.4-10.5c2.7-6.9,8.9-10.5,14.4-14.7c0.2-0.2,0.7-0.4,0.9-0.3c6.3,3.8,5.8-1.7,7.1-5.1
			c2.1-5.4,9.4-8.2,14.9-5.9c-0.6,1.6-2.8,1.7-3,3.6c1.4,1.8,3.5,1.6,5,1.1c7.2-2.4,13.3-0.3,19.2,3.9c1.5,1.1,3.2,3.2,5.3,1.9
			c2.1-1.4,0.8-4,1-6c0.7-8.9-3.8-16.4-6.7-24.3c-0.4-1.1-0.5-2.4-1.7-2.9c-5.2-2-4.7-5.7-3.7-10.2c1.5-6.4-0.8-12.6-2.6-18.6
			c-1.1-3.6-1.5-6.8-0.1-10.1c1.7-3.9,0.8-7.4-1.2-10.9c-1.1-2-2.2-3.2-4.6-1.8c-2.5,1.5-4.6,0.5-6.8-1.1c-1.1-0.8-2.2-2.6-3.9-1.2
			c-1.5,1.2-2.1,3.1-1.3,5c0.7,1.5,0.7,2.9,0.6,4.4c-1.2,0.8-0.9,2-0.8,3.1c-0.5,0.6-1.1,1.2-1.6,1.8c-0.7,2.9,2.6,2.8,3.5,4.4
			c0,0.6,0,1.1-0.1,1.7c-1.9,0.7-3.9,1.5-5.8,2.2c-1.5-0.3-2.8-0.2-3.1,1.7c-0.9,0.5-1.5,1.1-1.8,2.2c-0.7,0.6-1.5,1.3-2.2,1.9
			c-6.1-2-8.4-0.3-9.3,6.9c-1.3,0.4-2.5,0.9-3.8,1.1c-5.4,0.8-8.1,3.3-7.8,8.7c0.3,6.3-3.2,11.4-4.6,17.1c-0.3,1.1-1.6,2.5-3.4,2.4
			c-2.9,0-5.8,0-8.6-0.1c-2.1-0.1-3.9,0.5-5.5,1.8c-1.1,0.9-3,1.9-2.3,3.4c1,1.9,2.8,0.2,3.8-0.4c3.6-2.3,7-3.2,10.4,0.2
			c-3.6-0.3-4.3,2.3-4.8,5c-0.3,1.9-0.1,3.9-0.2,5.9c-0.7,0.8-1.3,1.5-2,2.3l0.2-0.1c-2.3,0-4.3,0.6-5.1,3.2l0.1-0.1
			C100.9,152.6,100.5,152.5,100.1,152.9z M141.6,21c-0.9,3-6.3-0.8-5,4.8c0.1,0.5-1.5,1.5-2.4,0.5c-4.6-4.9-5.3-0.1-7,2.6
			c-1.5,2.4-2.9,5.3-6.7,4.2c-4.3-1.3-5.1-0.6-3.9,3.6c0.4,1.5,0.6,2.9,0.6,4.4c-0.1,3.7-0.2,7.4,3.8,9.5c1.3,0.7,1,1.9,0.3,3
			c-4.5,7.2-2.4,13.7,1.7,20.2c4.1,6.5,4.2,6.7,10.2,1.8c0.4-0.3,0.9-0.5,1.3-0.6c3.1-0.5,3-2.3,2.8-5c-0.2-3.3-3.3-3.7-4.8-5.8
			c-0.8-1.1-3.1-1.6-2.8-3.1c0.3-2,2.5-1,3.8-1.2c4.4-0.3,4-4.6,5.2-7c1.3-2.6-2.4-1.7-3.7-2.5c-2.8-1.6-5.8-2.5-1.4-6.1
			c3-2.5,6.3-5.5,2.8-10.5c-1.2-1.7,0.5-4,2.5-5.3C141.2,27.1,142.9,25.1,141.6,21z M57.2,64c-1.9,0.2-3.8-0.3-3.9,1.5
			c-0.3,2.6-1.3,4.7-2.7,6.8c-1.2,1.9,0,2.5,1.8,2.8c3.9,0.7,7.7,1.5,11.5,2.5c1.7,0.5,3.2,0.4,3.7-1.2c0.6-1.7,2.3-3.6,0.6-5.5
			C65.1,67.4,61.2,65.2,57.2,64z M48.2,67.9c-2.4,0.3,1-3.2-1.9-2.7c-2.4,0.5-3.3,2.6-3.6,4.8c-0.2,1.9,1.9,1.5,2.7,1.6
			C47.6,71.8,47.7,69.8,48.2,67.9z M14.9,21.6c-2.9-0.7-5.2-1.1-7.1,1.3c-0.4,0.5-0.8,1.3-0.1,1.7C10.3,26,12,24,14,23
			C14.2,22.8,14.3,22.5,14.9,21.6z M164.8,52.7c-0.9,3.9-0.9,3.9,1.9,7C168.4,56.3,168.3,56,164.8,52.7z M98.2,22.3
			c3.8,3,3.8,3,7.7,1.8C103.4,23.1,101.4,21.8,98.2,22.3z"/>
		<path class="st1" d="M109.2,149.2c5.4-2.3,10.8,1.8,16.4,0.1c2.6-0.8,2.6,1.3,1.4,3.4c-2.8,5.1-8.4,7.5-11.4,12.3
			c-6.1,9.7-11.4,9.4-22.8,6.8c-4.3-1-3.5-3.1-2.3-6.7c1.8-5.4,8.4-5.6,9.5-10.9c0.3-0.4,0.7-0.8,1-1.1l-0.1,0.1
			c2-0.6,4.3-0.7,5.1-3.2l-0.2,0.1C107.4,150.9,108.3,150,109.2,149.2z"/>
		<path class="st2" d="M150,188.1c-1.7-4.2-4-7.9-8.7-9.4c2.3-3.6,5.6-3.6,8.8-2.4c3.2,1.2,4.1,4.1,4,7.3c0,1.5-0.1,3-0.2,4.5
			C152.6,188.1,151.3,188.1,150,188.1z"/>
		<path class="st1" d="M140.6,130.3c1.7,1.3,6-0.5,6.8,2.3c0.9,3.2-3.8,2.2-5.3,4c-0.4,0.5-1.1,0.8-1.6,1.2c-1.7,1.1-3.8,2-5.6,0.9
			c-2-1.3-0.1-3,0.3-4.4C135.9,132,136.7,129.6,140.6,130.3z"/>
		<path class="st2" d="M112.9,137c-3.4-3.4-6.8-2.5-10.4-0.2c-1,0.7-2.8,2.3-3.8,0.4c-0.8-1.5,1.2-2.5,2.3-3.4
			c1.6-1.3,3.4-1.9,5.5-1.8c2.9,0.2,5.8,0.1,8.6,0.1C114.1,133.7,117.9,137.3,112.9,137z"/>
		<path class="st2" d="M134.8,103c0.9-7.3,3.2-9,9.3-6.9c0,1,0,2,0,2.9c-2.9-0.1-3.6,1.9-4.2,4.1C138.2,103,136.5,103,134.8,103z"/>
		<path class="st2" d="M40.2,28.2c-2.1,1.9-4.6,3.1-7,4.4c-1.2,0.7-2.3,2.3-3.8,0.8c-0.6-0.6-1.4-1.4-0.7-2.6
			c0.8-1.5,1.6-2.8,3.6-2.8c2.3,0,4.6,0.3,6.8-0.7C39.5,27.6,39.9,27.9,40.2,28.2z"/>
		<path class="st2" d="M151.1,90.2c1.9-0.7,3.9-1.5,5.8-2.2c1.1,3.6-1.9,5.6-3.3,8.2c-0.5,0.9-2.1,1.3-3.1,0.8
			c-1.7-0.8-0.1-1.9,0-2.9C150.8,92.8,150.9,91.5,151.1,90.2z"/>
		<path class="st1" d="M139.9,103.1c0.6-2.2,1.3-4.2,4.2-4.1c0.7,0.7,1.4,1.4,2.1,2.1c-0.6,1.4-1.1,2.9-1.7,4.3l-0.1,0.1
			c-1.6,0.8-3.4,3.6-4.5-0.4C139.9,104.4,139.9,103.8,139.9,103.1z"/>
		<path class="st2" d="M5,145c1.5-1.9,3-3.8,4.6-5.7c0.9-1.2,2.1-1.6,3.4-0.6c1.7,1.3,0.2,2.4-0.5,3.2c-1.6,2.1-3.8,3.5-6.4,4.2
			C5.8,145.7,5.4,145.3,5,145z"/>
		<path class="st2" d="M139.9,105.1c1.1,4.1,2.9,1.3,4.5,0.4c0,0.2,0,0.3,0,0.5c0,2.6-1.6,4.7-3.7,4.2
			C138.7,109.8,139.1,107.1,139.9,105.1z"/>
		<path class="st2" d="M144.5,105.4c0.6-1.4,1.1-2.9,1.7-4.3C147.8,103.4,149,105.5,144.5,105.4z"/>
		<path class="st2" d="M157,86.3c-0.9-1.7-4.2-1.5-3.5-4.4C155.5,82.7,157.8,83.3,157,86.3z"/>
		<path class="st2" d="M155.2,80.1c-0.1-1.1-0.3-2.3,0.8-3.1C156.5,78.2,156.7,79.4,155.2,80.1z"/>
		<path class="st2" d="M146.2,94.1c0.2-1,0.9-1.7,1.8-2.2C148.4,93.5,147.6,94,146.2,94.1z"/>
		<path class="st2" d="M109.2,149.2c-0.9,0.9-1.8,1.7-3.2,1c0.7-0.8,1.3-1.5,2-2.3C108.4,148.3,108.8,148.7,109.2,149.2z"/>
		<path class="st2" d="M101.2,153.1c-0.3,0.4-0.7,0.8-1,1.1c0-0.4,0-0.8,0-1.2C100.5,152.5,100.9,152.6,101.2,153.1z"/>
		<path class="st2" d="M141.6,21c1.3,4-0.4,6.1-2.7,7.6c-2,1.4-3.7,3.6-2.5,5.3c3.5,5,0.2,8-2.8,10.5c-4.3,3.6-1.4,4.5,1.4,6.1
			c1.4,0.8,5-0.1,3.7,2.5c-1.2,2.4-0.8,6.7-5.2,7c-1.4,0.1-3.5-0.8-3.8,1.2c-0.3,1.5,2,2,2.8,3.1c1.4,2,4.5,2.4,4.8,5.8
			c0.2,2.6,0.4,4.5-2.8,5c-0.5,0.1-1,0.3-1.3,0.6c-6,4.9-6.1,4.8-10.2-1.8c-4.1-6.6-6.3-13.1-1.7-20.2c0.7-1.1,1-2.3-0.3-3
			c-4-2.1-3.9-5.8-3.8-9.5c0-1.5-0.2-2.9-0.6-4.4c-1.1-4.2-0.4-4.8,3.9-3.6c3.8,1.1,5.2-1.8,6.7-4.2c1.7-2.7,2.4-7.5,7-2.6
			c0.9,1,2.5,0,2.4-0.5C135.3,20.2,140.7,24,141.6,21z M126.6,55.5c2.7-5.4,2.7-5.4-4.2-7.8C121.5,51.6,126.1,52.2,126.6,55.5z"/>
		<path class="st2" d="M57.2,64c3.9,1.2,7.9,3.4,11.1,6.9c1.8,2,0,3.8-0.6,5.5c-0.5,1.6-2,1.7-3.7,1.2c-3.8-1-7.7-1.8-11.5-2.5
			c-1.8-0.3-3.1-0.9-1.8-2.8c1.3-2.1,2.4-4.2,2.7-6.8C53.5,63.7,55.3,64.2,57.2,64z"/>
		<path class="st2" d="M48.2,67.9c-0.4,2-0.6,3.9-2.7,3.7c-0.8-0.1-2.9,0.3-2.7-1.6c0.3-2.1,1.2-4.3,3.6-4.8
			C49.2,64.7,45.8,68.1,48.2,67.9z"/>
		<path class="st2" d="M14.9,21.6c-0.6,0.9-0.7,1.3-1,1.4c-2,1-3.7,3-6.2,1.6c-0.7-0.4-0.3-1.2,0.1-1.7C9.7,20.5,12,20.9,14.9,21.6z
			"/>
		<path class="st2" d="M164.8,52.7c3.5,3.4,3.6,3.6,1.9,7C163.9,56.5,163.9,56.5,164.8,52.7z"/>
		<path class="st2" d="M98.2,22.3c3.2-0.5,5.2,0.8,7.7,1.8C102,25.3,102,25.3,98.2,22.3z"/>
		<path class="st2" d="M106.2,150c-0.9,2.4-3.2,2.5-5.1,3.2C101.8,150.6,103.8,150,106.2,150z"/>
		<path class="st1" d="M126.6,55.5c-0.5-3.3-5.1-3.9-4.2-7.8C129.3,50.1,129.3,50.1,126.6,55.5z"/>
	</g>
	<g>
		<path class="st1" d="M320.3,153.5c-3.4,1.3-7,1.7-10.3,4.3c-3,2.4-7.3,0.9-10.7-1.2c-3.2-1.9-5.2-5.1-5.4-8.5
			c-0.2-2.6,2.8-2.8,4.9-2.1c2.4,0.7,4.6,1,6.9-0.6c-5.2-0.2-9.9-1.6-14.2-4.5c-1.5-1-3,0.1-2.5,2.6c0.5,2.1,0.2,4.3,0.2,6.5
			c0,1.2,0.5,3-1.3,3.3c-1.6,0.3-2.2-1.4-2.8-2.5c-4.5-8.4-5.6-18-8.8-26.8c-0.3-0.9,0.3-2.3,0.8-3.3c1.9-3.8,0.6-7.3-1.7-10.1
			c-2-2.5-3.6-5-3.6-8c0-5.4-4.5-8.7-5.7-13.5c-0.9-3.5-0.9-6.4,1.9-9.3c-2.2,1.1-4.8-2.1-6.3,0.2c-2.2,3.3-2.5,7.6-1.2,11.1
			c2.2,6.4,1.9,13.6,7.3,19.1c4.1,4.1-0.2,8.1-2.8,11.3c-1.9,2.4-4.2,5.6-8.2,3.1c-0.5-0.3-0.9-0.9-1.7-0.4c-2.1,1.5-3,3.9-4.6,5.8
			c-2.3,2.7-0.5,4.2,1.6,6c4.7,4.2,4.2,10,2.2,14.8c-3.3,8.2-6.3,16.5-12.6,23.3c-2.7,3-3.6,7.7-1.7,12.2c1.9,4.5-0.3,7.5-5,7.2
			c-1-0.1-2,0-3,0c-8,0-7.9,0-7.8-8.3c0.1-7.2,4.6-12.5,7.5-18.4c0.5-0.9,2.1-1.6,0.5-2.8c-1.3-1.1-2,0.2-2.9,0.9
			c-1.1,0.8-1.7,3-3.5,1.9c-1.2-0.7-0.7-2.5-0.5-3.7c0.6-4.6-1.8-9.6,2.4-13.7c1.2-1.2-1.3-1.6-1.3-2.7c2.6-0.7,4.8-2.1,6.4-4.2
			c0.6-0.8,2.2-2,0.5-3.2c-1.3-1-2.5-0.5-3.4,0.6c-1.5,1.9-3.1,3.8-4.6,5.7c-2.4-7-0.7-10.3,5.3-9.9c3.8,0.3,5.7,3,5.1,7.3
			c-0.6,4.6-1.1,9.2-1.9,13.7c-0.3,1.5,0.3,2.5,1.1,4.2c3.2-5.2,5.1-10.6,7.1-16c0.8-2.4-1.4-5-3-7c-3.8-4.6-6.9-9.6-11-14
			c-4.5-4.9-3.8-11.9-2.9-18.3c0.7-5.1,1-10.5,6.5-13.5c1.3-0.7,2-2.5,3-3.9c0.3-0.4,0.6-0.8,0.7-1.3c0.7-3.8,5.9,2.1,6.2-3
			c0.3-4.2,4-3.6,6.8-4.2c0.5-0.1,1-0.1,1.5,0c5.2,0.4,5.3,0.3,3.5-4.9c-1.1-3.2-2.1-6.2-2.2-9.8c-0.1-3.8-4.7-4.8-7.4-4.1
			c-5.6,1.3-10-3.8-15.8-2c-1.9,0.6-0.9-2.3,0.2-3.5c2-1.9,3.2-3.2-0.5-5c-3.2-1.6-3.1-4.9-0.7-7.1c1.9-1.7,2.7-4.6,5.8-5.1
			c1.1-0.2,2-1.5,1.3-2.7c-0.8-1.3-2-0.7-3.1-0.2c-2.6,1.4-5.6,2.4-5.5-2.1c0.2-7.4-1.7-14.6-1.3-22c0.2-4.8,2.1-6.6,6.5-6.6
			c12.7,0,25.3,0,38,0c4.8,0,9.3,2.2,14.2,2.1c1.8,0,1.7,1.5,1,2.5c-0.6,0.8-0.9,2.4-2.9,1.4c-9-4.5-8.8-4.4-13.4,4.3
			c-1.9,3.5-1.6,7.9-4.8,10.8c-1,0.9-2,1.7-3.3,2.1c-2.2,1-4.5,0.7-6.8,0.7c-2,0-2.8,1.3-3.6,2.8c-0.7,1.2,0.2,2,0.7,2.6
			c1.5,1.5,2.6-0.1,3.8-0.8c2.4-1.3,4.9-2.5,7-4.4c2.2,0.1,5.1-1,5.7,2.3c0.6,3.2-0.5,5.3-4.2,6c-1.4,0.3-3.8,1.2-3.5,3.6
			c0.3,2.3,2.3,0.9,3.5,1.4c2,0.8,4,1.8,2.8,4.8c-0.6,1.5-0.2,3.3-0.7,4.9c-0.8,2.3-0.4,4.1,1.4,5.6c1.1-1.9,4-2.1,4.6-4.4
			c0.8-3.4,1.7-6.7,2.1-10.2c0.8-6,4-10.8,7.9-15.1c2.5-2.7,6.1-2.6,9.3-1.3c5.2,2.1,10.3,3,15.8,1.3c2.7-0.8,5.5-1.2,9-0.8
			c-2.7-3.2-5.8-3.1-8.8-3.1c-2.8,0-4-0.5-3.5-4.1c0.5-3.7,1.7-6.7,3.7-9.5c0.9-1.2,2.3-2.4,3.6-1.7c1.8,1.1,0.1,2.6-0.3,3.9
			c-0.3,0.9-0.9,1.8-1.5,3c3,1,5.3-0.3,7.3-1.7c4-2.8,6.8-8.4,13.2-5.3c4.5-4.3,10.2-1.7,15.2-2.8c2-0.4,3.6,0,5.3,0.3
			c3.1,0.4,3.2,2.7,2.6,4.9c-0.8,2.8-2.6,1.6-4.3,0.8c-5.1-2.3-8.3-0.3-8.5,5.1c-0.1,2.8,1,5.2,3.5,6c2.4,0.8,5-0.9,5.8-3
			c1-2.7,3-3.6,5.1-4.8c3.1-1.8,6.5-3.2,6.8-7.8c0.2-2.7,2.8-2.2,4.8-2.2c1.5,0,1.7,0.8,2.5,2.2c2.4,4.1,3.8,8.4,4.2,13.2
			c0.4-0.1,0.8-0.3,1.2-0.4c0-3,0-6,0-10.5c2.4,5.2,6.9,3.9,9.8,5.9c0.8,0.5,1.2,0,1.6-0.5c0.8-1-0.1-1.8-0.3-2.8
			c-0.6-2.1-4.4-3.1-2.4-5.8c1.7-2.4,4.7-1.1,7-1.2c8.1-0.1,16.3-0.1,24.3-0.1c0,2.8,0,5.3,0,7.9c0,37.1-0.5,74.3,0.2,111.4
			c0.4,19.9,0.8,39.9,0.8,59.8c0,9.8,0,9.9-9.6,9.9c-7.3,0-14.5,0.7-21.7,1.9c-5,0.8-7.2-1.1-7.9-6.9c0.1-1.5,0.1-3,0.2-4.5
			c0.1-3.2-0.9-6.1-4-7.3c-3.2-1.2-6.5-1.2-8.8,2.4c4.7,1.5,7,5.2,8.7,9.4c-0.9,3.2-5.7,5.6-10.3,4.9c-5.5-0.9-10.4-3.4-14.8-6.8
			c-3.9-3-0.5-4.2,1.7-5.6c-5.1-3.2-5.6-4.8-3.4-10.5c2.7-6.9,8.9-10.5,14.4-14.7c0.2-0.2,0.7-0.4,0.9-0.3c6.3,3.8,5.8-1.7,7.1-5.1
			c2.1-5.4,9.4-8.2,14.9-5.9c-0.6,1.6-2.8,1.7-3,3.6c1.4,1.8,3.5,1.6,5,1.1c7.2-2.4,13.3-0.3,19.2,3.9c1.5,1.1,3.2,3.2,5.3,1.9
			c2.1-1.4,0.8-4,1-6c0.7-8.9-3.8-16.4-6.7-24.3c-0.4-1.1-0.5-2.4-1.7-2.9c-5.2-2-4.7-5.7-3.7-10.2c1.5-6.4-0.8-12.6-2.6-18.6
			c-1.1-3.6-1.5-6.8-0.1-10.1c1.7-3.9,0.8-7.4-1.2-10.9c-1.1-2-2.2-3.2-4.6-1.8c-2.5,1.5-4.6,0.5-6.8-1.1c-1.1-0.8-2.2-2.6-3.9-1.2
			c-1.5,1.2-2.1,3.1-1.3,5c0.7,1.5,0.7,2.9,0.6,4.4c-1.2,0.8-0.9,2-0.8,3.1c-0.5,0.6-1.1,1.2-1.6,1.8c-0.7,2.9,2.6,2.8,3.5,4.4
			c0,0.6,0,1.1-0.1,1.7c-1.9,0.7-3.9,1.5-5.8,2.2c-1.5-0.3-2.8-0.2-3.1,1.7c-0.9,0.5-1.5,1.1-1.8,2.2c-0.7,0.6-1.5,1.3-2.2,1.9
			c-6.1-2-8.4-0.3-9.3,6.9c-1.3,0.4-2.5,0.9-3.8,1.1c-5.4,0.8-8.1,3.3-7.8,8.7c0.3,6.3-3.2,11.4-4.6,17.1c-0.3,1.1-1.6,2.5-3.4,2.4
			c-2.9,0-5.8,0-8.6-0.1c-2.1-0.1-3.9,0.5-5.5,1.8c-1.1,0.9-3,1.9-2.3,3.4c1,1.9,2.8,0.2,3.8-0.4c3.6-2.3,7-3.2,10.4,0.2
			c-3.6-0.3-4.3,2.3-4.8,5c-0.3,1.9-0.1,3.9-0.2,5.9c-0.7,0.8-1.3,1.5-2,2.3l0.2-0.1c-2.3,0-4.3,0.6-5.1,3.2l0.1-0.1
			C321,153.2,320.7,153.1,320.3,153.5z M361.7,21.6c-0.9,3-6.3-0.8-5,4.8c0.1,0.5-1.5,1.5-2.4,0.5c-4.6-4.9-5.3-0.1-7,2.6
			c-1.5,2.4-2.9,5.3-6.7,4.2c-4.3-1.3-5.1-0.6-3.9,3.6c0.4,1.5,0.6,2.9,0.6,4.4c-0.1,3.7-0.2,7.4,3.8,9.5c1.3,0.7,1,1.9,0.3,3
			c-4.5,7.2-2.4,13.7,1.7,20.2c4.1,6.5,4.2,6.7,10.2,1.8c0.4-0.3,0.9-0.5,1.3-0.6c3.1-0.5,3-2.3,2.8-5c-0.2-3.3-3.3-3.7-4.8-5.8
			c-0.8-1.1-3.1-1.6-2.8-3.1c0.3-2,2.5-1,3.8-1.2c4.4-0.3,4-4.6,5.2-7c1.3-2.6-2.4-1.7-3.7-2.5c-2.8-1.6-5.8-2.5-1.4-6.1
			c3-2.5,6.3-5.5,2.8-10.5c-1.2-1.7,0.5-4,2.5-5.3C361.4,27.7,363,25.6,361.7,21.6z M277.4,64.6c-1.9,0.2-3.8-0.3-3.9,1.5
			c-0.3,2.6-1.3,4.7-2.7,6.8c-1.2,1.9,0,2.5,1.8,2.8c3.9,0.7,7.7,1.5,11.5,2.5c1.7,0.5,3.2,0.4,3.7-1.2c0.6-1.7,2.3-3.6,0.6-5.5
			C285.3,68,281.3,65.7,277.4,64.6z M268.3,68.5c-2.4,0.3,1-3.2-1.9-2.7c-2.4,0.5-3.3,2.6-3.6,4.8c-0.2,1.9,1.9,1.5,2.7,1.6
			C267.8,72.4,267.9,70.4,268.3,68.5z M235.1,22.1c-2.9-0.7-5.2-1.1-7.1,1.3c-0.4,0.5-0.8,1.3-0.1,1.7c2.5,1.5,4.2-0.6,6.2-1.6
			C234.4,23.4,234.5,23,235.1,22.1z M385,53.2c-0.9,3.9-0.9,3.9,1.9,7C388.5,56.8,388.5,56.6,385,53.2z M318.4,22.9
			c3.8,3,3.8,3,7.7,1.8C323.6,23.7,321.5,22.4,318.4,22.9z"/>
		<path class="st1" d="M329.4,149.7c5.4-2.3,10.8,1.8,16.4,0.1c2.6-0.8,2.6,1.3,1.4,3.4c-2.8,5.1-8.4,7.5-11.4,12.3
			c-6.1,9.7-11.4,9.4-22.8,6.8c-4.3-1-3.5-3.1-2.3-6.7c1.8-5.4,8.4-5.6,9.5-10.9c0.3-0.4,0.7-0.8,1-1.1l-0.1,0.1
			c2-0.6,4.3-0.7,5.1-3.2l-0.2,0.1C327.6,151.5,328.5,150.6,329.4,149.7z"/>
		<path class="st1" d="M360.8,130.9c1.7,1.3,6-0.5,6.8,2.3c0.9,3.2-3.8,2.2-5.3,4c-0.4,0.5-1.1,0.8-1.6,1.2c-1.7,1.1-3.8,2-5.6,0.9
			c-2-1.3-0.1-3,0.3-4.4C356,132.6,356.9,130.2,360.8,130.9z"/>
		<path class="st1" d="M360.1,103.7c0.6-2.2,1.3-4.2,4.2-4.1c0.7,0.7,1.4,1.4,2.1,2.1c-0.6,1.4-1.1,2.9-1.7,4.3l-0.1,0.1
			c-1.6,0.8-3.4,3.6-4.5-0.4C360.1,105,360.1,104.3,360.1,103.7z"/>
		<path class="st1" d="M346.7,56.1c-0.5-3.3-5.1-3.9-4.2-7.8C349.5,50.7,349.5,50.7,346.7,56.1z"/>
	</g>
	<g>
		<path class="st0" d="M440.4,99.6c0-32,0.1-64-0.1-96c0-3,0.6-3.6,3.6-3.6c64.3,0.1,128.7,0.1,193,0c3,0,3.6,0.6,3.6,3.6
			c-0.1,64.3-0.1,128.7,0,193c0,3-0.6,3.6-3.6,3.6c-64.3-0.1-128.7-0.1-193,0c-3,0-3.6-0.6-3.6-3.6
			C440.5,164.2,440.4,131.9,440.4,99.6z M584.9,105.4c4.5,0.1,3.3-2.1,1.7-4.3c-0.7-0.7-1.4-1.4-2.1-2.1c0-1,0-2,0-2.9
			c0.7-0.6,1.5-1.3,2.2-1.9c1.4-0.1,2.2-0.6,1.8-2.2c0.3-1.9,1.6-1.9,3.1-1.7c-0.2,1.3-0.3,2.6-0.5,3.9c-0.2,1-1.7,2.1,0,2.9
			c1.1,0.5,2.6,0.1,3.1-0.8c1.4-2.6,4.4-4.6,3.3-8.2c0-0.6,0-1.1,0.1-1.7c0.8-3-1.5-3.6-3.5-4.4c0.5-0.6,1.1-1.2,1.6-1.8
			c1.5-0.7,1.4-1.9,0.8-3.1c0.1-1.5,0-2.9-0.6-4.4c-0.9-1.9-0.2-3.7,1.3-5c1.6-1.3,2.7,0.4,3.9,1.2c2.1,1.5,4.3,2.6,6.8,1.1
			c2.4-1.4,3.5-0.2,4.6,1.8c2,3.5,2.9,7,1.2,10.9c-1.5,3.3-1,6.5,0.1,10.1c1.8,6,4.1,12.2,2.6,18.6c-1,4.5-1.5,8.2,3.7,10.2
			c1.2,0.5,1.3,1.8,1.7,2.9c2.9,7.9,7.4,15.4,6.7,24.3c-0.2,2,1.1,4.6-1,6c-2.1,1.3-3.8-0.8-5.3-1.9c-5.8-4.2-12-6.2-19.2-3.9
			c-1.6,0.5-3.7,0.7-5-1.1c0.1-1.9,2.4-2.1,3-3.6c-5.5-2.3-12.8,0.5-14.9,5.9c-1.3,3.4-0.7,8.9-7.1,5.1c-0.2-0.1-0.7,0.1-0.9,0.3
			c-5.5,4.2-11.7,7.8-14.4,14.7c-2.3,5.8-1.8,7.3,3.4,10.5c-2.2,1.4-5.6,2.6-1.7,5.6c4.4,3.4,9.3,5.9,14.8,6.8
			c4.5,0.7,9.4-1.7,10.3-4.9c1.3,0,2.6,0,4,0c0.6,5.8,2.9,7.7,7.9,6.9c7.2-1.2,14.4-2,21.7-1.9c9.6,0.1,9.6,0,9.6-9.9
			c0-19.9-0.4-39.9-0.8-59.8c-0.7-37.1-0.2-74.3-0.2-111.4c0-2.5,0-5.1,0-7.9c-8,0-16.1-0.1-24.3,0.1c-2.4,0-5.3-1.2-7,1.2
			c-2,2.8,1.8,3.8,2.4,5.8c0.3,0.9,1.1,1.7,0.3,2.8c-0.4,0.5-0.9,1.1-1.6,0.5c-2.9-2-7.4-0.6-9.8-5.9c0,4.5,0,7.5,0,10.5
			c-0.4,0.1-0.8,0.3-1.2,0.4c-0.4-4.8-1.9-9.1-4.2-13.2c-0.8-1.4-1-2.2-2.5-2.2c-2,0-4.6-0.5-4.8,2.2c-0.3,4.6-3.7,6-6.8,7.8
			c-2.1,1.2-4.1,2.1-5.1,4.8c-0.8,2.1-3.4,3.7-5.8,3c-2.5-0.8-3.6-3.2-3.5-6c0.2-5.5,3.4-7.4,8.5-5.1c1.7,0.8,3.5,2,4.3-0.8
			c0.6-2.2,0.6-4.5-2.6-4.9c-1.7-0.2-3.3-0.7-5.3-0.3c-5,1.1-10.7-1.4-15.2,2.8c-6.4-3.1-9.2,2.5-13.2,5.3c-2,1.4-4.4,2.7-7.3,1.7
			c0.6-1.2,1.2-2.1,1.5-3c0.4-1.3,2.2-2.9,0.3-3.9c-1.3-0.7-2.7,0.4-3.6,1.7c-2,2.9-3.2,5.9-3.7,9.5c-0.5,3.6,0.7,4.1,3.5,4.1
			c3,0,6-0.1,8.8,3.1c-3.5-0.4-6.3,0-9,0.8c-5.4,1.7-10.6,0.8-15.8-1.3c-3.2-1.3-6.8-1.4-9.3,1.3c-3.9,4.3-7.1,9.1-7.9,15.1
			c-0.5,3.4-1.3,6.8-2.1,10.2c-0.6,2.4-3.5,2.5-4.6,4.4c-1.8-1.5-2.2-3.3-1.4-5.6c0.5-1.5,0.1-3.4,0.7-4.9c1.2-3-0.8-3.9-2.8-4.8
			c-1.2-0.5-3.2,0.9-3.5-1.4c-0.3-2.4,2-3.3,3.5-3.6c3.6-0.7,4.8-2.8,4.2-6c-0.6-3.4-3.5-2.2-5.7-2.3c-0.4-0.3-0.7-0.5-1.1-0.8
			c1.3-0.4,2.3-1.2,3.3-2.1c3.2-2.9,2.9-7.3,4.8-10.8c4.6-8.6,4.4-8.8,13.4-4.3c2,1,2.3-0.6,2.9-1.4c0.7-1,0.8-2.5-1-2.5
			c-4.9,0.1-9.4-2.1-14.2-2.1c-12.7-0.1-25.3,0-38,0c-4.4,0-6.3,1.8-6.5,6.6c-0.4,7.4,1.5,14.6,1.3,22c-0.1,4.5,2.9,3.5,5.5,2.1
			c1.1-0.6,2.3-1.1,3.1,0.2c0.7,1.3-0.2,2.6-1.3,2.7c-3.1,0.5-4,3.4-5.8,5.1c-2.4,2.2-2.4,5.5,0.7,7.1c3.6,1.8,2.4,3.1,0.5,5
			c-1.2,1.1-2.2,4.1-0.2,3.5c5.8-1.8,10.2,3.3,15.8,2c2.7-0.6,7.3,0.3,7.4,4.1c0.1,3.6,1.1,6.6,2.2,9.8c1.8,5.2,1.7,5.2-3.5,4.9
			c-0.5,0-1-0.1-1.5,0c-2.8,0.6-6.5,0-6.8,4.2c-0.3,5-5.5-0.8-6.2,3c-0.1,0.5-0.4,0.9-0.7,1.3c-1,1.3-1.7,3.2-3,3.9
			c-5.5,3-5.8,8.3-6.5,13.5c-0.9,6.4-1.6,13.4,2.9,18.3c4.1,4.4,7.2,9.5,11,14c1.6,2,3.9,4.6,3,7c-1.9,5.4-3.8,10.8-7.1,16
			c-0.8-1.6-1.4-2.7-1.1-4.2c0.8-4.5,1.3-9.1,1.9-13.7c0.6-4.3-1.3-7-5.1-7.3c-6-0.5-7.7,2.8-5.3,9.9c0.4,0.4,0.8,0.8,1.1,1.2
			c0,1.1,2.5,1.5,1.3,2.7c-4.1,4.1-1.8,9.1-2.4,13.7c-0.1,1.2-0.7,3,0.5,3.7c1.8,1.1,2.4-1.2,3.5-1.9c0.9-0.6,1.6-1.9,2.9-0.9
			c1.5,1.2-0.1,1.9-0.5,2.8c-3,6-7.5,11.2-7.5,18.4c-0.1,8.3-0.2,8.3,7.8,8.3c1,0,2,0,3,0c4.7,0.3,6.9-2.7,5-7.2
			c-1.9-4.4-1-9.2,1.7-12.2c6.3-6.8,9.2-15.2,12.6-23.3c2-4.8,2.5-10.6-2.2-14.8c-2-1.8-3.9-3.3-1.6-6c1.6-1.9,2.5-4.3,4.6-5.8
			c0.7-0.5,1.2,0,1.7,0.4c4,2.6,6.4-0.7,8.2-3.1c2.5-3.2,6.9-7.1,2.8-11.3c-5.4-5.5-5.1-12.7-7.3-19.1c-1.2-3.5-0.9-7.8,1.2-11.1
			c1.5-2.3,4.1,0.8,6.3-0.2c-2.7,2.9-2.7,5.8-1.9,9.3c1.2,4.8,5.7,8.1,5.7,13.5c0,2.9,1.6,5.5,3.6,8c2.3,2.9,3.6,6.3,1.7,10.1
			c-0.5,1-1.1,2.4-0.8,3.3c3.2,8.9,4.3,18.4,8.8,26.8c0.6,1.1,1.2,2.8,2.8,2.5c1.8-0.3,1.2-2.1,1.3-3.3c0-2.2,0.3-4.4-0.2-6.5
			c-0.6-2.5,0.9-3.6,2.5-2.6c4.4,2.8,9,4.2,14.2,4.5c-2.3,1.6-4.6,1.3-6.9,0.6c-2.1-0.6-5.1-0.4-4.9,2.1c0.3,3.4,2.2,6.5,5.4,8.5
			c3.4,2.1,7.7,3.6,10.7,1.2c3.2-2.6,6.8-3,10.3-4.3c0,0.4,0,0.8,0,1.2c-1.1,5.3-7.8,5.5-9.5,10.9c-1.2,3.7-2,5.8,2.3,6.7
			c11.5,2.6,16.8,2.9,22.8-6.8c3-4.8,8.6-7.2,11.4-12.3c1.2-2.2,1.2-4.2-1.4-3.4c-5.6,1.7-11-2.5-16.4-0.1c-0.4-0.4-0.8-0.9-1.3-1.3
			c0-2-0.1-4,0.2-5.9c0.4-2.6,1.1-5.3,4.8-5c4.9,0.3,1.2-3.3,2.2-4.8c1.8,0.1,3.1-1.3,3.4-2.4c1.5-5.7,4.9-10.8,4.6-17.1
			c-0.3-5.4,2.4-7.9,7.8-8.7c1.3-0.2,2.5-0.7,3.8-1.1c1.7,0,3.5,0.1,5.2,0.1c0,0.7,0,1.3,0,2c-0.9,2-1.2,4.7,0.9,5.2
			c2.1,0.5,3.7-1.7,3.7-4.2c0-0.2,0-0.3,0-0.5L584.9,105.4z M581,130.3c-3.9-0.7-4.8,1.7-5.4,3.9c-0.4,1.4-2.3,3.2-0.3,4.4
			c1.8,1.1,3.9,0.3,5.6-0.9c0.6-0.4,1.2-0.7,1.6-1.2c1.5-1.9,6.2-0.8,5.3-4C587,129.8,582.6,131.6,581,130.3z"/>
		<path class="st2" d="M590.3,188.1c-1.7-4.2-4-7.9-8.7-9.4c2.3-3.6,5.6-3.6,8.8-2.4c3.2,1.2,4.1,4.1,4,7.3c0,1.5-0.1,3-0.2,4.5
			C592.9,188.1,591.6,188.1,590.3,188.1z"/>
		<path class="st2" d="M553.3,137c-3.4-3.4-6.8-2.5-10.4-0.2c-1,0.7-2.8,2.3-3.8,0.4c-0.8-1.5,1.2-2.5,2.3-3.4
			c1.6-1.3,3.4-1.9,5.5-1.8c2.9,0.2,5.8,0.1,8.6,0.1C554.5,133.7,558.2,137.3,553.3,137z"/>
		<path class="st2" d="M575.1,103c0.9-7.3,3.2-9,9.3-6.9c0,1,0,2,0,2.9c-2.9-0.1-3.6,1.9-4.2,4.1C578.5,103,576.8,103,575.1,103z"/>
		<path class="st2" d="M480.6,28.2c-2.1,1.9-4.6,3.1-7,4.4c-1.2,0.7-2.3,2.3-3.8,0.8c-0.6-0.6-1.4-1.4-0.7-2.6
			c0.8-1.5,1.6-2.8,3.6-2.8c2.3,0,4.6,0.3,6.8-0.7C479.8,27.6,480.2,27.9,480.6,28.2z"/>
		<path class="st2" d="M591.4,90.2c1.9-0.7,3.9-1.5,5.8-2.2c1.1,3.6-1.9,5.6-3.3,8.2c-0.5,0.9-2.1,1.3-3.1,0.8
			c-1.7-0.8-0.1-1.9,0-2.9C591.1,92.8,591.2,91.5,591.4,90.2z"/>
		<path class="st2" d="M445.4,145c1.5-1.9,3-3.8,4.6-5.7c0.9-1.2,2.1-1.6,3.4-0.6c1.7,1.3,0.2,2.4-0.5,3.2c-1.6,2.1-3.8,3.5-6.4,4.2
			C446.1,145.7,445.8,145.3,445.4,145z"/>
		<path class="st2" d="M580.2,105.1c1.1,4.1,2.9,1.3,4.5,0.4c0,0.2,0,0.3,0,0.5c0,2.6-1.6,4.7-3.7,4.2
			C579,109.8,579.4,107.1,580.2,105.1z"/>
		<path class="st2" d="M584.9,105.4c0.6-1.4,1.1-2.9,1.7-4.3C588.1,103.4,589.4,105.5,584.9,105.4z"/>
		<path class="st2" d="M597.3,86.3c-0.9-1.7-4.2-1.5-3.5-4.4C595.9,82.7,598.1,83.3,597.3,86.3z"/>
		<path class="st2" d="M595.5,80.1c-0.1-1.1-0.3-2.3,0.8-3.1C596.9,78.2,597.1,79.4,595.5,80.1z"/>
		<path class="st2" d="M586.6,94.1c0.2-1,0.9-1.7,1.8-2.2C588.8,93.5,587.9,94,586.6,94.1z"/>
		<path class="st2" d="M549.6,149.2c-0.9,0.9-1.8,1.7-3.2,1c0.7-0.8,1.3-1.5,2-2.3C548.7,148.3,549.2,148.7,549.6,149.2z"/>
		<path class="st2" d="M541.5,153.1c-0.3,0.4-0.7,0.8-1,1.1c0-0.4,0-0.8,0-1.2C540.8,152.5,541.2,152.6,541.5,153.1z"/>
		<path class="st2" d="M581.9,21c1.3,4-0.4,6.1-2.7,7.6c-2,1.4-3.7,3.6-2.5,5.3c3.5,5,0.2,8-2.8,10.5c-4.3,3.6-1.4,4.5,1.4,6.1
			c1.4,0.8,5-0.1,3.7,2.5c-1.2,2.4-0.8,6.7-5.2,7c-1.4,0.1-3.5-0.8-3.8,1.2c-0.3,1.5,2,2,2.8,3.1c1.4,2,4.5,2.4,4.8,5.8
			c0.2,2.6,0.4,4.5-2.8,5c-0.5,0.1-1,0.3-1.3,0.6c-6,4.9-6.1,4.8-10.2-1.8c-4.1-6.6-6.3-13.1-1.7-20.2c0.7-1.1,1-2.3-0.3-3
			c-4-2.1-3.9-5.8-3.8-9.5c0-1.5-0.2-2.9-0.6-4.4c-1.1-4.2-0.4-4.8,3.9-3.6c3.8,1.1,5.2-1.8,6.7-4.2c1.7-2.7,2.4-7.5,7-2.6
			c0.9,1,2.5,0,2.4-0.5C575.6,20.2,581,24,581.9,21z M566.9,55.5c2.7-5.4,2.7-5.4-4.2-7.8C561.8,51.6,566.4,52.2,566.9,55.5z"/>
		<path class="st2" d="M497.6,64c3.9,1.2,7.9,3.4,11.1,6.9c1.8,2,0,3.8-0.6,5.5c-0.5,1.6-2,1.7-3.7,1.2c-3.8-1-7.7-1.8-11.5-2.5
			c-1.8-0.3-3.1-0.9-1.8-2.8c1.3-2.1,2.4-4.2,2.7-6.8C493.8,63.7,495.6,64.2,497.6,64z"/>
		<path class="st2" d="M488.5,67.9c-0.4,2-0.6,3.9-2.7,3.7c-0.8-0.1-2.9,0.3-2.7-1.6c0.3-2.1,1.2-4.3,3.6-4.8
			C489.5,64.7,486.1,68.1,488.5,67.9z"/>
		<path class="st2" d="M455.3,21.6c-0.6,0.9-0.7,1.3-1,1.4c-2,1-3.7,3-6.2,1.6c-0.7-0.4-0.3-1.2,0.1-1.7
			C450.1,20.5,452.4,20.9,455.3,21.6z"/>
		<path class="st2" d="M605.1,52.7c3.5,3.4,3.6,3.6,1.9,7C604.3,56.5,604.3,56.5,605.1,52.7z"/>
		<path class="st2" d="M538.5,22.3c3.2-0.5,5.2,0.8,7.7,1.8C542.3,25.3,542.3,25.3,538.5,22.3z"/>
		<path class="st2" d="M546.5,150c-0.9,2.4-3.2,2.5-5.1,3.2C542.2,150.6,544.1,150,546.5,150z"/>
	</g>
</g>
<g>
</g>
<g>
</g>
<g>
</g>
<g>
</g>
<g>
</g>
<g>
</g>
<g>
</g>
<g>
</g>
<g>
</g>
<g>
</g>
<g>
</g>
<g>
</g>
<g>
</g>
<g>
</g>
<g>
</g>
</svg>
