<?xml version="1.0" encoding="utf-8"?>
<!-- Generator: Adobe Illustrator 17.1.0, SVG Export Plug-In . SVG Version: 6.00 Build 0)  -->
<!DOCTYPE svg PUBLIC "-//W3C//DTD SVG 1.1//EN" "http://www.w3.org/Graphics/SVG/1.1/DTD/svg11.dtd">
<svg version="1.1" id="Layer_1" xmlns="http://www.w3.org/2000/svg" xmlns:xlink="http://www.w3.org/1999/xlink" x="0px" y="0px"
	 viewBox="0 0 642.9 264.1" style="enable-background:new 0 0 642.9 264.1;" xml:space="preserve">
<style type="text/css">
	.st0{fill:#FA0000;}
	.st1{fill:#010000;}
</style>
<g>
	<g>
		<g>
			<path class="st0" d="M127.7,74c0.9-0.8,1.4-1.6,1.9-2.3c0.7-0.9,1.4-1.9,2.6-2.3c0.6-0.2,1.1-0.3,0.9,0.7c-0.1,0.3-0.3,0.8,0,1
				c0.4,0.3,0.7-0.2,1.1-0.3c0.9-0.3,1.8-0.7,2.7-1c0.6-0.2,1.3-0.1,1.8,0.4c0.5,0.5,0.2,1.1-0.1,1.7c-1.1,2.3-1.9,4.6-2.5,7.1
				c-0.4,1.5-0.9,1.8-2.4,1.8c-0.7,0-1.1-0.1-1.5-0.8c-0.2-0.4-0.4-0.9-1-1.3c-0.3,1.6-0.6,3.2-1,5c1.4-0.7,2.6-1.3,3.8-1.9
				c1.7-0.8,2.5-0.4,2.6,1.5c0.1,2.2,0.2,4.3,0.2,6.5c0,1-0.3,1.9-0.8,2.7c-0.8,1-1.9,1.1-2.6,0c-1.6-2.6-3.8-4.6-6.2-6.5
				c-1.1-0.9-1.4-2.1-1.4-3.4c0-1.3,0.2-2.6,0.3-3.8c0.2-1.5,0-2.9-0.6-4.2c-1.4-2.8-2.8-5.7-4.2-8.5c-0.3-0.5-0.5-1.1-1.2-1.2
				c-1.1-0.2-1.4-1-1.5-1.9c-0.2-4-1.2-7.8-1.4-11.8c-0.1-1-0.4-2-1.2-2.7c-1.6-1.3-2.1-3-2.4-4.8c-0.4-2.6-0.6-5.2-0.9-7.7
				c-0.1-0.6,0.1-1.1,0.6-1.5c1.1-0.8,2.4-1.1,3.6-1.5c0.1,0,0.2,0,0.2,0c1.2,0.8,1.4,2.2,1.9,3.4c0.3,0.8-0.3,1.2-0.8,1.6
				c-2,1.4-1.9,1.4-1.1,3.6c0.4,1.2,1,2.2,2.1,3c1.4,1.1,2.1,2.6,2.2,4.5c0.1,3.4,1,6.8,1.3,10.2c0.1,0.5,0.3,0.6,0.8,0.5
				c3.7-1,7.4-0.6,11.1-0.1c0.6,0.1,0.7,0.4,0.7,0.9c0.1,2.3,0.9,3.1,3.3,3.2c1.3,0.1,2.6,0,4,0.1c1.1,0.1,1.8-0.4,2.3-1.4
				c1.2-2.3,1.8-2.5,4.1-1.1c0.5,0.3,0.9,0.7,1.5,0.8c0-0.8-0.6-1.3-0.8-2c1.2,0.1,2,0.4,2.3,1.7c0.3,1.4,0.7,2.9,2.3,3.6
				c0.7-0.7,1.1-1.5,1.3-2.5c0.1-0.3-0.2-0.8,0.4-0.8c0.4,0,0.8,0.2,1,0.6c0.1,0.1,0.1,0.3,0.2,0.5c1,2.6,1.9,3.2,4.7,2.9
				c1.4-0.2,2.5,0.3,3.4,1.4c1.3,1.5,1.6,1.5,3.4,0.6c0.5-0.2,3,0.6,3.2,1.1c0.1,0.4-0.2,0.7-0.4,0.9c-1.1,1.2-2.2,2.3-3.3,3.5
				c-0.3,0.3-0.8,0.5-0.6,0.9c0.1,0.3,0.7,0.3,1,0.4c0.7,0.2,1.3,0.3,2,0.4c1.2,0.2,1.8,0.8,1.9,2c0.2,3.2,0.3,6.3,0.4,9.5
				c0,0.8-0.3,1.4-1.2,1.4c-0.3,0-0.5,0.1-0.8,0.3c-1.1,0.6-1.1,0.9-0.1,1.5c0.8,0.6,1.7,1.1,2.5,1.6c0.5,0.3,0.7,0.5,0.1,0.9
				c-0.6,0.3-1.1,0.8-0.9,1.6c0.2,0.8,0.4,1.5,1.4,1.6c0.6,0.1,0.9,0.6,1,1.2c0.1,0.7-0.2,1.3-0.8,1.8c-1.8,1.2-3.9,0.6-4.9-1.5
				c-0.9-2-1.7-4-2.5-6.1c-1.8-4.3-3.5-8.6-5.2-12.9c-0.6-1.5-0.9-3.1-0.7-4.7c0.1-1.2,0.6-1.5,1.8-1.3c0.6,0.1,1.2,0.3,1.9,0.4
				c0.5,0.1,0.9,0.2,1.4,0c0.5-0.2,1.1-0.6,1-1.2c0-0.5-0.7-0.5-1.2-0.6c-1.1-0.2-2.1-0.1-3.2,0.1c-1.7,0.3-2.6-0.1-3.3-1.7
				c-0.3-0.6-0.5-1.3-0.8-1.9c-0.2-0.5-0.5-1.2-1.1-1c-0.6,0.2-0.8,0.9-0.6,1.6c0.2,0.6,0.2,1.2,0.4,1.7c0.3,0.7,0,1-0.6,1.1
				c-1,0.2-2.1,0.2-3.1-0.1c-1.4-0.5-1.7-1.3-0.9-2.6c1-1.7,1-1.7-0.9-2.2c-3.7-1-7.2-1-10.5,1.5c-1.2,1-2.9,0.5-4.3,0.6
				c-2,0.2-4,0.1-6,0.1c-2.1,0-2.9,1-2.7,3C127.6,72.1,127.7,72.9,127.7,74z"/>
			<path class="st0" d="M27,138c1.1-1.3,0.8-3-0.7-4.1c-0.7-0.5-1.4-0.7-2.2-1c-1-0.4-2-0.7-2.8-1.3c-0.8-0.5-1.3-1.3-1.1-2.2
				c0.2-0.9,0-1.6-0.3-2.4c-1.5-3.7-2.9-7.4-4.3-11c-0.4-1-0.6-2.1-0.6-3.2c0-2.7,0.1-5.4-0.1-8c-0.1-1-0.5-1.6-1.6-1.6
				c-1,0-1-0.6-0.6-1.3c1-1.9,0.7-3.9,0.4-5.9c-0.1-0.4-0.4-0.8-0.8-1c-0.2-0.2-0.5-0.2-0.7-0.4c-0.9-0.7-2.7-0.5-2.7-2.1
				c-0.1-1.4,2.2-4,3.7-4.4c0.9-0.3,1.9-0.3,2.9-0.1c1.3,0.2,2,0,3.1-0.8c-0.8-0.6-2.1-0.4-2.5-1.4c-0.4-0.9,0.2-1.9,0.1-2.9
				c-1,0.3-1.8,0.9-2.5,1.7c-0.3,0.4-0.6,0.8-1,1.2c-1.6,1.5-2.7,1.4-4-0.4c-0.2-0.3-0.4-0.6-0.7-0.9c-1.4-1.5-2.3-2.9-0.6-4.9
				c0.8-0.9,0.6-2.3,0.2-3.5c-0.7-2.4-1.4-4.7-2-7.1c-0.4-1.4,0.3-2.3,1.7-1.8c3.3,1.2,6.5,2.6,8,6.3c0.8,2,1.3,4,2.1,6
				c0.6,1.6,1.2,3.3,1.9,4.9c0.9,2.2,0.4,4.2-0.7,6.2c-0.4,0.7-1,1-1.9,1c-0.7,0-1.8-0.3-2.1,0.5c-0.4,0.9,0.5,1.7,1,2.4
				c0.3,0.5,0.6,0.1,0.9-0.1c0.9-0.8,1.9-1.6,2.8-2.4c0.5-0.4,1-0.8,1.7-0.6c0.7,0.3,0.9,1,1,1.7c0.1,0.8-0.1,1.5-0.3,2.2
				c-1,3.6-1.9,7.2-3,10.7c-0.5,1.7-0.3,3.2,0.7,4.7c1.9,2.8,3.6,5.7,5.5,8.4c2.2,3.1,3,6.7,3.5,10.3c0.1,0.7,0.2,1.4,0.3,2
				c0.4,2,1.3,2.9,3.4,3.2c0.6,0.1,1.1,0.3,1.1,0.9c0,0.6-0.5,0.6-0.9,0.7c-1.9,0.7-2,0.7-1.6,2.7c0.8,4.3,1.5,8.6,1.9,12.9
				c0.1,1,0.5,1.7,1.6,2c2.1,0.6,2.4,2.3,0.9,3.7c-0.8,0.8-1.7,1.5-2.6,2.3c-0.6,0.6-1,0.4-1.4-0.3c-0.8-1.5-0.8-3-0.4-4.6
				c0.2-0.8,0.5-1.7,0.7-2.5c0.1-0.6-0.1-1.1-0.6-1.3c-0.4-0.2-0.7,0.3-0.9,0.6c-0.3,0.3-0.5,0.6-0.8,0.9c-0.9,1.1-1,1.1-1.8-0.1
				c-0.3-0.5-0.5-1-0.7-1.5c-1.5-5.2-3-10.4-4.5-15.6c-0.1-0.4-0.6-0.9,0-1.3c0.5-0.4,1.2-0.3,1.7,0c0.7,0.4,1.2,1,1.7,1.6
				C25.8,136.4,26.4,137.2,27,138z"/>
			<path class="st0" d="M48.1,165.1c0.5-0.3,0.8-0.7,0.8-1.3c-0.3-2.9-1.1-5.8-2.1-8.6c-1.1,1.1-1.4,2.2-1.1,3.6
				c0.2,0.9,0.3,1.7-0.2,2.7c-3-3.3-2.2-7.1-1.9-10.8c0.1,0.5,0.2,1.1,0.3,1.6c0.1,0.3,0.1,0.6,0.5,0.6c0.3,0,0.4-0.2,0.5-0.5
				c0.3-1,0.5-1.9,0.5-2.9c0-1.6-0.1-3.2,0-4.8c0.1-0.8,0.1-2.1,1-2.3c0.8-0.2,1.2,1,1.6,1.7c1.1,1.9,1.2,4.1,1.6,6.2
				c2.4,11.7,4.7,23.4,7,35.1c0.2,1.1,0.6,1.6,1.7,1.1c1-0.5,1.8-0.1,2.6,0.6c2,1.5,3,3.4,2.8,5.9c-0.1,1.2,0,1.2,1.1,0.6
				c0.3-0.2,0.6-0.3,0.8-0.5c3.1-2.3,6.6-2.3,10.2-1.5c0.6,0.1,0.7,0.4,0.5,0.9c-0.5,1.5-0.9,3.1-1.5,4.5c-0.8,1.9-2.6,3-4.6,2.5
				c-2.7-0.7-5.4-1.5-8-2.4c-1.1-0.3-1.4-1-0.9-2c0.1-0.1,0.1-0.3,0.2-0.4c0.2-0.6,0.7-1.3,0.1-1.8c-0.6-0.5-1.4-0.6-2.1-0.1
				c-0.7,0.5-1,1.1-0.7,2c1,3,1.6,6,2.3,9c2.9,11.8,6.2,23.4,9.3,35.1c0.2,0.8,0.4,1.7,0.6,2.6c0.1,0.4,0.2,0.8-0.3,1
				c-0.5,0.2-0.6-0.3-0.8-0.6c-1.6-2.7-2.6-5.5-3.7-8.4c-4.5-12.6-7.9-25.6-10.8-38.7c-1.7-7.8-4.6-15.3-7.1-22.8
				c-0.7-2-1.4-4.1-2-6.1c-0.1-0.2-0.2-0.4-0.2-0.6c0-0.6-0.5-1.5,0.2-1.8c0.6-0.3,0.8,0.7,1.2,1.1
				C47.8,164.6,47.9,164.8,48.1,165.1z"/>
			<path class="st0" d="M32.5,94.4c-0.2,0.8-0.7,1.1-1.1,1.6c-0.3,0.4-0.7,0.9-1,1.4c1,0.3,1.7,0,2.5-0.2c2.1-0.6,4.1-1.2,6.2-1.7
				c1.6-0.4,2.7,0,3.4,1.4c0.6,1.1,1.3,1.3,2.4,0.9c3.6-1.2,7.2-2.4,10.8-3.6c1.2-0.4,2.4-0.7,3.6-0.8c0.3,0,0.7-0.3,0.9,0
				c0.2,0.4-0.2,0.6-0.3,0.9c-1.1,1.8-2.1,3.7-3.3,5.5c-0.8,1.3-1.1,2.7-1.1,4.2c0,3.2,0,6.4,0,9.6c0,0.7-0.1,1-1,1
				c-5.1-0.2-10.2-0.3-15.3-0.6c-5-0.2-10-0.8-15-1.8c-0.2,0-0.5-0.1-0.7-0.2c-0.8-0.2-1.1-0.6-0.6-1.4c0.9-1.5,2.2-2.5,3.7-3.4
				c3.7-2.2,7.4-4.3,10.9-6.7c0.3-0.2,0.7-0.4,0.9-0.8c-1.1-0.3-2.1,0-3,0.3c-1.3,0.4-2.7,0.8-4,1.2c-2.1,0.6-3.9,1.5-5.1,3.3
				c-0.2,0.3-0.4,0.5-0.7,0.7c-0.5,0.4-1.1,1.1-1.6,0.8c-0.6-0.3-0.6-1.3-0.5-2c0.2-2.7,1.7-4.9,3.6-6.7
				C28.5,95.9,30.2,94.8,32.5,94.4z M33.7,110.7c0.8,0.1,1.3-0.3,1.9-0.7c1.7-1.2,3.4-2.4,5.2-3.4c2-1.2,4-2.4,5.9-3.6
				c0.7-0.5,1.4-1.2,0.9-2.1c-0.5-0.9-1.4-0.8-2.3-0.3c-2.5,1.3-4.8,3-7.2,4.5c-1.5,1-3.1,2-4.5,3.2c-0.5,0.4-0.8,0.9-0.8,1.6
				C32.9,110.4,33,110.8,33.7,110.7z"/>
			<path class="st0" d="M40.9,69.8c-0.4-0.6-1-1-1.6-1.2c-1.3-0.5-2-1.4-2.3-2.7c-1.9-7.8-3.7-15.5-5.6-23.3c-0.5-1.9,0-2.6,1.9-3.1
				c0.7-0.2,1.3-0.4,2-0.5c1.5-0.3,2,0,2.4,1.4c0.3,1,0.7,1.1,1.6,0.5c1.3-0.8,2.7-1.5,4-2.4c1-0.6,1.1-1.5,0.4-2.4
				c-0.4-0.6-1-0.9-1.7-0.4c-2.1,1.7-4.5,1.3-7,0.9c0.8-0.9,1.5-1.7,2.4-2.3c0.5-0.4,0.9-0.7,1.3-1.2c1.1-1.2,1.3-1.2,2.6-0.3
				c0.2,0.1,0.5,0.3,0.8,0.5c0.1-0.9-0.1-1.8,0.1-2.6c0.3-0.8,0.7-0.8,1.3-0.5c0.5,0.2,0.8,0.6,0.9,1c1.2,2.9,2.3,5.9,3.4,8.8
				c0.7,2-0.2,3.9-2,4.9c-0.5,0.3-1,0.5-1.5,0.7c-1.6,0.9-1.7,1.2-0.8,2.8c0.3,0.6,1.2,1,0.5,1.9c-0.7,0.9-1.3,1.8-2.6,1.6
				c-0.3,0-0.7-0.1-0.9,0c-0.6,0.3-1.5,0.6-1.3,1.3c0.2,0.8,0.9,0.1,1.4,0.1c1-0.1,2-0.4,2.9-0.5c1.8-0.1,2.8,1.2,2.4,3
				c-0.2,0.8-0.7,1.5-1.3,2.1c-1.4,1.7-2.8,3.3-4.1,5c-0.2,0.2-0.4,0.5-0.5,0.8c-0.8,1.5-0.6,1.9,1.1,1.8c1.1,0,1.7,0.5,2.2,1.5
				c1.1,2.3,0.4,4.1-1.3,5.7c-0.7,0.7-1.1,1.4-0.3,2.4c0.4,0.4,0.6,0.6,1,0.1c0.3-0.4,0.6-0.7,1.1-1c0.6-0.3,1.2-0.4,1.7,0.3
				c0.5,0.8,0,1.2-0.6,1.6c-0.5,0.3-1,0.5-1.5,0.7c-0.9,0.2-0.9,0.6-0.5,1.3c2,3.3,3.9,6.7,5.8,10.1c0.1,0.2,0.2,0.4,0.4,0.6
				c0.2,0.3,0.2,0.5-0.1,0.7c-0.3,0.2-0.5,0-0.7-0.2c-0.6-1.1-1.3-2.1-1.9-3.2c-0.8-1.4-2.1-2.4-2.8-2c-0.7,0.4-0.7,1.9-0.2,3.4
				c0.2,0.5,0.4,1,0.7,1.5c0.1,0.2,0.1,0.4-0.1,0.6c-0.3,0.2-0.4,0.1-0.6-0.1c-1.3-1-2.4-2.2-3.5-3.4c-0.5-0.6-0.4-1.2,0.2-1.7
				c0.5-0.5,1.2-0.6,1.7-1c1-0.7,1-1.7-0.1-2c-2.1-0.7-3-2.2-3.3-4.3c-0.3-1.9-0.7-3.7-0.5-5.6c0.3-2.4,0.3-2.4,2.6-1.7
				c0.1,0,0.2,0,0.3,0C41,69.9,40.9,69.8,40.9,69.8z"/>
			<path class="st0" d="M66.4,108.1c0.6,2,1.1,3.8,1.6,5.8c0.8,2.9,1.6,5.8,2.4,8.8c0.2,0.8,0.4,1.6-0.3,2.2c-1,0.9-2.5,0.5-2.9-1
				c-0.8-2.8-1.6-5.7-2.4-8.5c-0.6-2.1-1-4.3-1.9-6.3c-0.1-0.3-0.2-0.8-0.6-0.8c-0.5,0.1-0.3,0.7-0.2,1c0.5,2.6,1.4,5,2,7.5
				c0.3,1.1,0.6,2.2,0.9,3.2c0.4,1.5,0.2,2.1-0.9,2.4c-1.1,0.4-1.7,0.1-2.4-1.4c-0.7-1.6-1.4-3.3-2.1-5c-0.4-0.9-0.7-1.8-1.2-2.6
				c-2.7-4.8-1.7-9.7,0-14.5c0.7-2,3.3-2.9,5.2-2c4.3,2.1,8.2,4.7,10.6,9.1c1.4,2.7,3.7,4.8,5,7.6c0.8,1.7,1.4,3.6,1.9,5.4
				c0.3,1.2-0.2,2.1-1.2,2.4c-1.1,0.4-1.7,0.1-2.2-1.2c-1.8-4.1-3.5-8.1-5.3-12.2c-0.4-0.9-0.8-1.6-1.5-2.3
				c-0.2-0.2-0.4-0.7-0.8-0.5c-0.4,0.2-0.2,0.6,0,1c0.5,1.3,1.1,2.6,1.6,3.9c0.9,2,1.8,4.1,2.7,6.1c0.9,2,1.3,4.1,1,6.3
				c-0.1,0.4-0.1,0.8-0.3,1.1c-0.3,0.7-0.8,1.4-1.7,1.2c-0.9-0.1-1.2-0.9-1.3-1.6c-0.5-5.2-3.1-9.8-4.9-14.6
				C67.3,108.5,67.1,108.1,66.4,108.1z"/>
			<path class="st0" d="M165.3,107.4c-1.3,1-1.8,2.2-2.1,3.6c-0.2,0.9-0.4,1.8-0.5,2.7c-0.1,0.9-0.5,1.2-1.4,1.2
				c-2.4,0-2.4,0.1-1.5,2.1c0.7,1.5,1.1,1.7,2.5,0.7c2.7-2,5.4-4,8.1-6c1.3-1,1.8-0.9,2.4,0.6c0.2,0.5,0.4,0.9,0.6,1.4
				c1.2,2.8,1,3.7-1.2,5.8c-0.4,0.4-0.6,0.3-0.8-0.1c-0.3-0.4-0.5-0.8-0.9-1.1c-0.7-0.7-1.8-0.6-2.2,0.1c-1.2,2.5-2.7,4.9-3.1,7.7
				c-0.3,1.9,0.1,3.6,1.1,5.3c0.4,0.7,1.2,1.7,0.5,2.1c-0.8,0.6-1.3-0.6-1.8-1.2c-3.2-3.8-6.4-7.6-8.8-12.1c-1.9-3.7-1.7-7,0.9-10.1
				c1.5-1.8,1.9-3.6,1.5-6c-0.9-5,0-10,1.1-14.9c0.4-1.6,0.8-3.2,1.3-4.9c0.1-0.3,0.1-0.7,0.5-0.7c0.4,0,0.5,0.3,0.6,0.6
				c0.6,1.8,1.1,3.7,1.7,5.5c0.3,1,0.2,1.6-0.7,2.2c-0.5,0.3-1.3,0.6-1.2,1.3c0.1,0.8,0.9,1,1.7,1c0.4,0,0.8,0.2,1.1,0.5
				c2.7,2.5,5,5.1,4.9,9.1c-0.1,1.6-0.1,3.3-0.2,4.9c0,0.8-0.5,1.4-1.1,1.9c-1.2,1-2.1,0.7-2.5-0.8
				C165.7,109.2,165.5,108.4,165.3,107.4z"/>
			<path class="st0" d="M81.9,58.8c0,0.3,0,0.6-0.1,0.8c-0.3,1.9,0.4,3.3,1.9,4.3c0.9,0.6,0.9,1.2-0.1,1.8c-0.6,0.4-1.3,0.4-2,0.4
				c-0.5,0-1-0.1-1.4,0c-0.7,0.1-1.3,0.6-1.2,1.3c0.1,0.6,0.8,1,1.4,0.8c2.8-0.8,4.1,0.8,5.1,3c0.4,0.8,0.9,1.6,1.4,2.3
				c0.5,0.6,0.8,1.3,1,2c0.2,0.6,0.7,1.3-0.2,1.8c-0.8,0.4-1.7,0.6-2.4-0.2c-0.8-0.9-1.3-2-2.3-2.8c-0.7-0.6-1.4-1-2.4-1.2
				c-2.8-0.5-5.1-2-6.8-4.2c-2.3-2.9-4.7-5.6-7.6-8c-1.7-1.4-2.8-3.3-3.3-5.4c-0.7-2.9-1.3-5.8-1.4-8.7c0-0.3-0.1-0.8,0.3-0.9
				c0.4-0.1,0.5,0.3,0.7,0.5c0.8,1,1.5,2,2.3,3.1c0.6,0.9,1.3,1,2.3,0.7c2.4-0.9,4.9-1.7,7.4-2.5c1.4-0.5,2.2-0.2,2.8,1.2
				c1.2,2.8,2.3,5.6,4.1,8.1C81.8,57.6,81.9,58.2,81.9,58.8z"/>
			<path class="st0" d="M26.2,94c1.5-2.7,0.9-5.4,0.9-8c0-0.5-0.1-1-0.1-1.6c0.1-0.9-0.1-1.5-1.1-1.6c-0.7-0.1-0.9-0.6-1.1-1.1
				c-1.1-3.3-1.7-6.6,0.3-9.8c0-0.1,0.1-0.2,0.1-0.2c0-0.1-0.1-0.1-0.1-0.2c-0.3-0.1-0.4,0.2-0.6,0.3c-1,0.6-2,0.2-2.2-0.9
				c-0.5-2.6-0.5-5.2-0.7-7.9c0-0.4,0-0.8,0.5-1c0.6-0.2,1,0.1,1.4,0.5c0.4,0.3,0.5,1.2,1,0.8c0.4-0.3-0.3-0.9-0.5-1.3
				c-0.1-0.2-0.2-0.4-0.3-0.6c-1.9-2.3-1.7-4.8-0.7-7.3c0.9-2.5,2.2-4.9,3.8-7c0.6-0.7,0.9-0.7,1.2,0.1c0.1,0.3,0.2,0.6,0.2,0.9
				c-0.2,2.9,0.6,5.7,1.5,8.4c1.3,3.8,2.5,7.6,3.8,11.3c0.7,2,0.6,3.8-1,5.4c-1.6,1.6-2.9,3.5-4.2,5.3c-0.4,0.6-0.7,1.2-1.1,1.9
				c-0.1,0.2-0.5,0.6,0,0.8c0.4,0.2,0.5-0.3,0.7-0.5c0.6-0.8,0.9-2.1,2.1-2c1.3,0,1.5,1.3,1.9,2.2c1.1,2.2,2.2,4.5,3.3,6.8
				c0.6,1.2,0.5,2.5,0.3,3.8c-0.1,0.4-0.4,0.6-0.7,0.7c-1,0.5-2,0.5-3,0c-1.1-0.6-2.1-0.4-3.1,0.5C28.2,93.1,27.4,93.6,26.2,94z
				 M25.6,70.7c-0.2,0.2-0.6,0.4-0.3,0.6c0.3,0.2,0.4-0.2,0.5-0.4c0.1-0.1,0.3-0.2,0.1-0.3C25.8,70.5,25.7,70.6,25.6,70.7z M26.5,70
				c0.2-0.2,0.5-0.4,0.7-0.6c1.2-1.1,2.4-2,2.9-3.7c0.2-0.9,0-1.4-0.8-1.7c-1.3-0.6-3.4,0.2-4,1.4c-0.1,0.2-0.1,0.5,0,0.7
				c0.2,0.3,0.5,0.3,0.8,0.1c0.5-0.2,1-0.5,1.5-0.8c0.3-0.1,0.6-0.5,0.8-0.3c0.3,0.2,0.3,0.7,0.3,1.1c0,0.3-0.2,0.6-0.4,0.8
				c-0.6,0.9-1.3,1.8-1.9,2.7c-0.1,0.1-0.2,0.2-0.1,0.4C26.3,70.2,26.4,70.1,26.5,70z"/>
			<path class="st0" d="M70.6,77.4c-1.1-1-2-1.8-3-2.6c-2-1.6-3.7-1.3-5.2,0.7c-0.1,0.1-0.1,0.2-0.2,0.3c-0.5,0.8-1.2,1.5-2.1,1.1
				c-0.9-0.4-1.3-1.4-1.1-2.4c0.2-1.1,0-1.4-1.1-1.1C55,74,52.1,74.5,49.2,75c-2.4,0.4-2.9,0-3.1-2.4c-0.2-4.3,1.1-7.8,4.6-10.5
				c0.8-0.6,1.5-1.3,2.3-1.9c0.2,0.4,0.2,0.9-0.1,1.5c-0.3,0.6-0.5,1.2-0.9,1.7c-1.9,2.3-1.7,4.7-0.8,7.2c0.5,1.5,1.5,2.1,3.1,1.8
				c1.5-0.4,3.1-0.4,4.6-0.5c1.8-0.1,2.1-0.7,1.2-2.3c-1-1.6-1.9-3.2-3-5c-0.3,0.9,0.1,1.9-1.3,1.9c-2.5,0-2.8-0.2-2-2.6
				c0.3-1,0.6-2.1,0.9-3.1c0.3-1.2,0-1.7-1.2-2c-0.1,0-0.2,0-0.2,0c-2.8-0.6-3.2-1.1-3.2-4c0-2.6-1-4.5-3.4-5.6
				c1.9-1.7,3.7-1.4,4.8,0.7c0.7,1.4,1.2,3,1.7,4.5c0.2,0.5,0.3,1.2,0.8,1.6c0.6-0.5,0.3-1,0.1-1.4c-0.9-2.4-1.8-4.7-2.7-7
				c-0.5-1.2-0.4-2.1,0.6-2.9c1.2-1,1.9-2.4,2.4-3.9c1.4-4,2.9-7.9,4.3-11.9c0.5-1.5,1.7-2.2,2.8-3c0.2-0.1,0.4-0.2,0.6,0
				c0.2,0.3,0.1,0.5-0.1,0.6c-1.8,1.5-1.3,2.9-0.5,4.9c1.1,2.6,0.8,5.5-1.5,7.8c-2.3,2.3-3.1,5.1-3.5,8.2
				c-0.8,6.1,0.7,11.8,3.3,17.3c0.2,0.4,0.4,0.7,0.5,1.1c0.7,1.9,1.9,3.3,3.6,4.6c2.2,1.6,4.1,3.6,6.1,5.4
				C70.3,76,70.5,76.5,70.6,77.4z"/>
			<path class="st0" d="M64,17.6c2-1.3,4-2.1,6.2-1.2c0.1,0,0.2,0.1,0.3,0.1c2.4,0.5,3.6,0.5,3.4-2.7c-0.1-1,0-1.9,0-2.9
				c0-0.8,0.2-1,0.9-0.6c2.9,1.4,5.8,2.8,8.7,4.3c0.3,0.1,0.6,0.3,0.9,0.4c0.6,0.2,1.3,0.3,1.5-0.3c0.2-0.5-0.2-1.1-0.8-1.3
				c-0.7-0.2-1.4-0.4-2.1-0.6c-0.6-0.2-1.2-0.6-1.3-1.1c-0.1-0.6,0.6-1,1.1-1.2c0.8-0.4,1.6-0.7,2.5-0.3c0.9,0.3,1.5,0.8,1.6,2
				c0.1,2.4,1.4,4.5,2.6,6.5c0.2,0.3,0.6,0.6,0.4,0.9c-0.2,0.4-0.7,0.2-1.1,0.1c-0.8-0.1-1.6-0.6-2.2-1.1c-0.7-0.5-1.3-1-2-1.6
				c-0.7-0.6-1-0.4-1.4,0.3c-0.6,1-0.4,1.4,0.7,1.7c1.1,0.3,2.2,0.8,3.3,1.3c1.3,0.6,2.5,1.5,3.3,2.7c1.3,2,2.9,3.8,4.6,5.5
				c0.8,0.8,1.2,1.7,1.5,2.8c0.9,4.4,2,8.8,3.4,13.1c0.4,1.1,0.2,1.3-1,1.2c-2.6-0.2-4.8-2.2-5.5-5.1c-0.7-2.9-1.6-5.7-3.5-8
				c-0.6-0.7-1.2-1.3-2-1.7c-0.7-0.3-1.1-0.8-1.5-1.4c-0.5-0.9-0.9-1.9-1.5-2.8c-0.6-1.1-0.5-2.1,0.1-3.2c0.9-1.6,0.6-2.2-1.2-2.6
				c-4.3-0.8-8.6-1.7-13-2.4c-1.4-0.2-2.9-0.2-4.4-0.2C65.6,18.5,64.9,18.2,64,17.6z"/>
			<path class="st0" d="M59.9,177.9c-0.2,0.6,0.2,1,0.4,1.3c0.8,1.1,0.8,2.4,0.5,3.7c-0.1,0.5-0.3,1-0.9,1.2
				c-0.7,0.2-1.1-0.2-1.4-0.7c-1.1-1.6-1.7-3.3-2.1-5.2c-1.2-6.9-1.8-13.9-2.2-21c-0.2-2.8-1.4-5.2-2.3-7.8
				c-0.3-0.9-0.6-1.8-0.9-2.7c-0.3-0.8,0.1-1.3,0.8-1.5c1.2-0.4,2.5-0.4,3.7-0.2c1.2,0.2,2,1.2,2.3,2.6c0.2,1.2,0.2,2.5,0.2,3.7
				c0,0.3-0.2,0.7,0.3,0.8c1.4,0.2,1.2,1.2,1.4,2.2c1.1,5.4,0.9,10.9,1.7,16.3c0.5,3.7,1.9,7.1,4.2,10c0.8,1,1.2,2.2,1.6,3.5
				c0.2,0.7-0.8,2.1-1.6,2c-0.6-0.1-1.2,0.1-1.8,0.2c-1.7,0.2-2.5-0.7-2-2.3c0.1-0.2,0.2-0.5,0.3-0.7c1.3-2.1,1.4-2.1-0.5-3.9
				C61.1,178.9,60.7,178.2,59.9,177.9z M59.8,177.7C59.7,177.7,59.7,177.7,59.8,177.7c-0.1-0.1-0.1,0-0.2,0
				C59.6,177.8,59.7,177.8,59.8,177.7C59.7,177.8,59.7,177.8,59.8,177.7z"/>
			<path class="st0" d="M153.1,141.8c-0.5-0.2-0.8-0.4-1-0.4c-1.8,0-1.6-1.1-1.6-2.4c0.1-3.3,0.6-6.6,0.5-9.9
				c-0.1-3.2-1-6.2-1.8-9.3c-0.5-1.8-0.6-3.5-0.7-5.3c0-0.8,0.3-1.7,1-1.8c0.7-0.1,1.4,0.6,1.6,1.4c0.4,1.3,0.7,2.7,1,4.1
				c0.2,0.8,0.4,0.8,1,0.3c1.1-0.9,1.1-0.9,1.8,0.4c0.7,1.5,0.9,3.2,1,4.8c0.1,0.9-0.8,1.8-1.3,2.5c-1,1.3-0.9,2.4,0,3.8
				c2.3,3.9,5.1,7.6,7.3,11.5c1,1.7,2,3.3,2.2,5.3c0.1,0.8,0,1.2-1,1.3c-2.7,0.2-5.5,0.6-8.2,0.9c-0.4,0-0.7,0.1-0.9-0.4
				c-0.1-0.3,0.1-0.5,0.3-0.7c0.4-0.3,1.2-0.3,1.1-0.9c-0.1-0.6-0.7-1.2-1.3-1.5c-0.9-0.6-3.4,0.1-3.9,1.1c-0.1,0.3,0.1,0.4,0.2,0.6
				c0.3,0.6,1.5,0.7,1,1.6c-0.4,0.9-2,1.3-3,1c-1.6-0.4-2.4-2.4-1.6-3.9c0.8-1.5,1.7-3.1,3.7-3C151.6,143,152.2,142.5,153.1,141.8z"
				/>
			<path class="st0" d="M141.3,80.9c0.9,1.2,1.7,2.4,2.6,3.6c0.8,1.2,1,2.4,0.5,3.7c-0.2,0.6-0.5,0.7-1.1,0.5
				c-1.7-0.6-6.1-5.6-6.3-7.4c-0.1-1,0-1.9,0.3-2.8c0.5-1.3,1-2.6,1.3-4c0.5-1.8,1.7-2.8,3.4-3.4c2.1-0.7,2.1-0.7,0.9-2.6
				c0-0.1,0-0.1-0.1-0.4c1.5-0.2,3-0.5,4.5-0.7c0.5-0.1,0.7,0.2,0.8,0.6c1.1,3,4,4.8,7.2,4.6c2.3-0.2,3.9,1.6,3.5,3.8
				c-0.1,0.5-0.4,0.3-0.7,0.2c-0.7-0.3-1.4-0.6-2.4-1.1c0.4,1.4,0.8,2.6,1.1,3.8c0.2,0.8,0.6,1.7,0.7,2.5c0.1,0.7,0.7,1.6-0.2,2.1
				c-1,0.5-2.5-0.1-3.1-1c-0.4-0.6-0.5-1.3-0.4-2c0.2-2.1-0.7-3.6-2.4-4.8c-1.6-1.1-3.1-2.3-4.7-3.4c-0.2,0.4,0,0.7,0.2,0.9
				c2.1,2,3.1,4.6,3.8,7.3c0.2,0.9,0.4,1.8,0.7,2.7c0.2,0.9,0,1.6-1,1.9c-1,0.3-1.7,0-2.1-0.9c-0.4-1.1-0.8-2.3-1.1-3.4
				c-0.3-1.6-1.3-2.6-2.7-3.3c-0.6-0.3-0.8-0.2-0.9,0.3c-0.1,0.4-0.3,0.8-0.4,1.1c-0.3,0.9-0.5,2-2.1,0.9
				C141.3,80.6,141.3,80.7,141.3,80.9z"/>
			<path class="st0" d="M74.1,33.7c-1.1,3.5,0.4,6.9,2.1,10.2c0.5,0.9,0.4,1.5-0.7,1.7c-2.8,0.7-5.7,0.9-8.4,1.8
				c-0.3,0.1-0.7,0-0.9-0.2c-1.9-1.6-4.2-2.6-5.5-4.9c-0.3-0.6-0.4-0.9-0.1-1.5c0.9-1.4,1.8-2.9,2.5-4.5c0.7-1.5,1.9-2.5,3.5-3.2
				c2-0.9,4.2-1.1,6.3-1.3C73.9,31.9,74.3,32.4,74.1,33.7z"/>
			<path class="st0" d="M67.6,213c-0.2-2.8-0.4-5.3,0.2-7.9c0.2-1,1.2-1.4,2-0.8c2,1.6,3.9,3.3,5.6,5.2c0.4,0.4,0.3,1,0.2,1.5
				c-0.9,4-1.6,8.1-3.1,12c-0.1,0.3-0.1,0.8-0.5,0.8c-0.4,0-0.6-0.4-0.8-0.7c-1-1.4-1.2-2.9-1-4.6c0.3-1.7,0.2-3.4-0.4-5.1
				C69.2,211.9,69.2,211.9,67.6,213z"/>
			<path class="st0" d="M62.8,20.1c-2.2,2.8-4.2,5.5-6.3,8.2c-0.3,0.4-0.5,0.8-1.1,1.1c-0.8-1.7-1.6-3.3-2.3-5
				c-1.1-2.3-2.1-4.5-3.2-6.8c-0.3-0.6-0.5-1.2-0.5-1.8c0.1-1.2,0.5-1.7,1.8-1.5c1.3,0.2,2.6,0.6,3.9,1c0.5,0.2,0.9,0.4,1.2,0.8
				c0.3,0.4,0.7,0.8,0.5,1.3c-0.2,0.5-0.7,0.4-1.2,0.4c-0.5,0-1,0-1.1,0.6c-0.1,0.6,0.1,1.2,0.7,1.5c0.7,0.4,1.5,0.2,2.2,0.2
				C59.2,20,60.8,19.6,62.8,20.1z"/>
			<path class="st0" d="M93.1,164.9c0.3-3,1.3-5.7,3.4-7.8c1.1-1.1,2.6-1.2,3.8-0.3c1.7,1.4,3.2,3,4.7,4.6c0.4,0.4,0.2,0.5-0.1,0.7
				c-2.2,1.5-4.4,3.1-6.7,4.6c-1.3,0.9-3.3,0.7-4.5-0.3C93.2,166,93,165.5,93.1,164.9z"/>
			<path class="st0" d="M86,39.7c0.4,0,0.5,0.2,0.5,0.4c2.4,4.2,4.6,8.6,6.2,13.2c0.4,1.1,0.6,2.1,0,3.1c-0.3,0.5-0.1,1.1,0,1.6
				c0.8,4.3,1.5,8.6,2.3,13c0,0.2,0.1,0.3,0.1,0.5c0,0.5,0.3,1.3-0.5,1.4c-0.8,0.2-0.7-0.7-0.9-1.1c-0.2-0.5-0.3-1.2-0.6-1.7
				c-1-2.2-1.2-4.4-0.5-6.7c0.2-0.8,0-1.2-0.9-0.8c-1.5,0.6-1.8,0.4-2-1.3c-0.6-4.1-1-8.2-1.4-12.4c-0.3-3.1-1-6-2.4-8.8
				C86,40,86,39.8,86,39.7z"/>
			<path class="st0" d="M83.1,217.5c0.6,0.1,0.6,1.1,1.4,0.7c1.1-0.5,2.6-0.6,3.2-1.9c0.3-0.7-0.6-0.7-1-0.8c-2.4-0.1-2.4-0.1-3-2.4
				c-0.2-0.6-0.3-1.2-0.5-1.8c-0.5-1.4-0.5-2.7,1-3.6c0.7-0.4,0.9-1.4,1.7-1.7c0.6-0.2,0.8-0.1,0.9,0.5c0.3,1.2-0.3,2-0.9,2.8
				c-0.2,0.3-0.7,0.6-0.4,1c0.2,0.4,0.6,0.2,1,0.2c0.9,0.1,1.7,0.4,1.9,1.2c0.8,2.9,2.4,5.6,3.2,8.5c0.2,0.8,0.1,1.1-0.8,1
				c-1.2,0-2.3,0.4-3.4,0.6C84.9,222.4,81.8,220.4,83.1,217.5z"/>
			<path class="st0" d="M60.7,89.1c-1.3,0-1.9-0.5-1.8-1.7c0.3-3,1.2-5.8,2.2-8.6c0.5-1.4,1.8-1.7,3-0.7c1,0.8,2,1.6,2.9,2.5
				c0.7,0.6,1.2,1.5,1.5,2.4c0.2,0.8,0.1,1.5-0.5,2c-2.1,1.7-4.4,3-6.9,4.1C61,89.1,60.8,89.1,60.7,89.1z"/>
			<path class="st0" d="M78.6,33.8c1.8,0.9,2.5,2.3,3.1,3.7c0.4,0.9,0.5,1.9,1.9,1.9c0.8,0,1.2,0.8,1.4,1.5c0.9,2.8,1.5,5.6,2.1,8.5
				c0.1,0.5,0.2,1.3-0.4,1.5c-0.5,0.2-1-0.4-1.3-0.8c-0.2-0.3-0.3-0.6-0.5-1c-0.5-1-1.3-1.5-2.4-1.3c-1,0.2-2.5,0.1-2.7-0.7
				c-0.1-0.9,1.2-1.5,2.2-1.8c0.8-0.2,1.4-0.6,1.6-1.4c0.1-0.3,0-0.5-0.3-0.6c-0.8-0.3-1.5-0.2-2.1,0.3c-0.7,0.6-1.4,1.2-2.2,1.7
				c-0.8,0.5-1.1,0.3-1.2-0.6c0-0.4,0-0.7,0-1.1c-0.1-1,0-1.7,1.3-1.2c0.4,0.2,0.9,0.1,0.9-0.6c0-1.6,0-3.1,0.1-4.7
				C80,36,79.4,35,78.6,33.8z"/>
			<path class="st0" d="M141.5,119c-1-0.1-2.1-0.1-3.1-0.2c-0.3,0-0.8,0.1-0.9-0.3c-0.1-0.3,0.3-0.7,0.6-0.9
				c1.7-1.2,2.6-2.9,3.3-4.7c0.6-1.6,1.2-3.1,2.2-4.5c0.2-0.3,0.3-0.7,0.8-0.6c0.5,0,0.7,0.4,0.8,0.8c0.6,1.6,1.4,3.1,1.7,4.8
				c0.1,0.8,0.1,1.7-0.1,2.5c-0.5,2.4-1.3,3.1-3.8,3.1C142.4,119,142,119,141.5,119C141.5,119,141.5,119,141.5,119z"/>
			<path class="st0" d="M33.7,137.7c1-0.6,1.9-0.7,3-0.2c1.2,0.6,2.5,1.2,3.7,1.8c0.6,0.3,0.8,0.2,0.8-0.4c0-0.6,0-1.3,0-1.9
				c0.1-1.4,0.7-2,2-2.3c0.6-0.1,1.3-0.2,1.9-0.3c2.4-0.3,2.4-0.3,3.3,2c0.2,0.6,0.1,0.8-0.5,0.9c-0.6,0.1-1.2,0.2-1.7,0.4
				c-1.7,0.5-2.2,1.2-2.3,2.9c-0.1,1.8,0,3.7,0,5.5c0,0.5,0.2,1-0.5,1.1c-0.8,0.1-0.7-0.5-0.8-0.9c-0.2-0.7-0.4-1.4-0.5-2.1
				c-0.4-2.5-1.8-4-4.3-4.6c-0.6-0.1-1.2-0.4-1.9-0.5C34.9,139.1,34.2,138.5,33.7,137.7z"/>
			<path class="st0" d="M91.1,10.5c1.8,0,2.4,0.5,2.7,2.3c0.5,3.5,1,7.1,1.5,10.6c0.1,0.9-0.2,1.7-1,1.9c-0.7,0.2-1.3-0.6-1.5-1.3
				c-1.4-3.7-2.8-7.4-3.5-11.4C88.8,10.9,89.1,10.5,91.1,10.5z"/>
			<path class="st0" d="M81.1,172.8c0-1,0.6-1.6,1.4-2.1c1.3-0.9,2.6-1.8,3.9-2.6c0.3-0.2,0.6-0.4,0.5-0.8c-0.1-0.4-0.5-0.4-0.8-0.4
				c-1-0.1-1.9-0.2-2.9-0.3c-0.3,0-0.7-0.1-0.7-0.5c-0.1-0.4,0.3-0.5,0.5-0.6c2.8-1.6,5.7-3.3,8.5-4.9c0.2-0.1,0.4-0.3,0.6-0.1
				c0.3,0.2,0.1,0.5,0,0.8c-0.3,0.6-0.6,1.1-0.9,1.7c-1.8,2.9-3.7,5.8-5.5,8.7c-0.8,1.4-2.1,2.1-3.4,2.7
				C81.7,174.6,81.2,173.9,81.1,172.8z"/>
			<path class="st0" d="M39.4,167.3c0,0.9-0.2,1.8-0.5,2.7c-0.3,0.9-1,1.4-2,1.5c-0.9,0.1-1.8-0.2-2.3-1c-0.8-1.4-1.6-2.8-2.3-4.2
				c-0.7-1.4-0.3-2.3,1.2-2.7c1.5-0.5,3.1-0.2,4.6-0.6c0.5-0.2,0.8,0.5,0.9,0.9C39.2,165,39.3,166.1,39.4,167.3z"/>
			<path class="st0" d="M89.5,223.7c0.9,0.3,1.6,0,2.3-0.3c0.8-0.4,1.4-0.1,1.7,0.7c0.2,0.4,0.4,0.9,0.5,1.4
				c0.6,2.1,0.5,2.1-1.5,2.6c-1.1,0.3-2,0.9-2.6,2c-0.2,0.4-0.4,0.9-0.8,1.2c-1.1,1-2.4,0.7-2.9-0.7c-0.1-0.3-0.2-0.5-0.3-0.8
				c-0.3-0.7-0.2-1,0.5-1.4c1.7-0.8,1.7-1.1,0.8-2.8c-0.6-1.1-0.4-1.5,0.8-1.7C88.6,223.8,89.1,223.8,89.5,223.7z"/>
			<path class="st0" d="M71.1,179.5c0.5-1.4,0.9-2.9,1.5-4.3c0.4-0.9,1.4-1.2,2.3-0.8c2,0.8,4,1.7,5.8,2.8c1.2,0.7,1.2,0.9-0.1,1.7
				c-0.5,0.3-1.1,0.6-1.5,1c-0.9,0.8-1.6,0.5-2.3-0.3c-1.4-1.4-1.6-1.4-2.3,0.5c-0.3,0.8-0.6,1.4-1.6,1.2
				C71.9,181.1,71.2,180.6,71.1,179.5z"/>
			<path class="st0" d="M42.9,160.4c0.5,0.2,0.4,0.6,0.4,1c-0.1,7.4,0.3,14.9,0.5,22.3c0,0.8,0,1.8-0.8,2.1c-0.8,0.4-1.8,0-2.7-0.3
				c-0.6-0.2-0.2-0.7-0.1-1c0.5-1.1,0.4-1.9-0.6-2.7c-0.9-0.7-0.7-1.3,0.3-1.9c0.2-0.1,0.5-0.3,0.7-0.4c1.5-0.6,2.1-1.8,2.1-3.4
				c0-4.8,0-9.6,0-14.4C42.8,161.2,42.7,160.8,42.9,160.4z"/>
			<path class="st0" d="M105.4,87.9c0,0.4,0,0.6-0.4,0.7c-0.4,0.2-0.7,0.1-0.9-0.3c-2.8-3.6-5.5-7.2-7.5-11.3
				c-0.2-0.3-0.4-0.6-0.1-1c0.4-0.4,0.7-0.1,1.1,0.1c0.6,0.3,1.2,0.8,1.7,1.4c1.8,2.3,3.6,4.6,5.2,7
				C105.1,85.5,105.2,86.7,105.4,87.9z"/>
			<path class="st0" d="M112.1,176.8c-1-0.1-1.9-1.6-1.4-2.4c0.2-0.3,0.5-0.6,0.8-0.9c2.1-1.7,4.3-3.5,6.4-5.2
				c0.6-0.5,1.3-0.9,2.1-1.2c0.3-0.1,0.6-0.4,1,0c0.4,0.4,0.1,0.7,0,1.1c-0.3,0.6-0.6,1.2-1.1,1.7c-2.4,2.2-4.9,4.4-7.3,6.6
				C112.5,176.6,112.3,176.7,112.1,176.8z"/>
			<path class="st0" d="M132.5,97.4c-0.4,1.3-0.4,2.6-1.3,3.6c-0.9,1-1.1,1-1.6-0.3c-0.5-1.1-0.5-2.3-0.4-3.5c0-0.6,0.4-0.8,0.9-1
				c1.3-0.7,2.7-1.1,4.2-1.3c1-0.2,1.9,0.2,2.3,1.1c0.5,1.1,0.9,2.3,0.3,3.4c-0.6,0.9-1.5,0.6-2.2,0
				C133.9,98.8,133.3,98.1,132.5,97.4z"/>
			<path class="st0" d="M55,79.5c0,0.5,0,0.9-0.2,1.4c-0.8,2.1-1.7,4.2-2.6,6.3c-0.2,0.3-0.3,0.6-0.8,0.6c-0.5,0-0.5-0.4-0.7-0.7
				c-0.4-0.9-0.5-1.8-0.3-2.8c0.6-2.3,1.2-4.6,1.8-6.9c0.2-0.7,0.5-1.4,1.3-1.3c0.8,0,0.9,0.8,1.1,1.4C54.8,78.2,55,78.8,55,79.5z"
				/>
			<path class="st0" d="M96.7,146.3c1.1-2.3,2.2-4.6,3.2-6.9c0.2-0.4,0.4-0.7,1-0.6c1.3,0.3,2.6,0.5,3.9,0.8c0.5,0.1,0.9,0.4,1,0.9
				c0.1,0.5-0.2,0.9-0.6,1.1c-2.6,1.6-5.2,3.2-7.8,4.8C97.3,146.4,97.1,146.5,96.7,146.3z"/>
			<path class="st0" d="M113.3,141.5c-0.3-0.1-0.9,0.1-1.1-0.4c-0.2-0.5,0.3-0.6,0.6-0.9c2.2-2,4.4-4,6.6-5.9c1.3-1.1,2.8-1,4.3-1.1
				c0.2,0,0.4,0.1,0.4,0.3c0.1,0.5-0.3,0.6-0.5,0.8c-3,2.2-6,4.4-8.9,6.6C114.3,141.3,113.9,141.5,113.3,141.5z"/>
			<path class="st0" d="M62.4,15.7c-1.4,0-2.8-0.3-4.1-0.6c-0.1,0-0.2-0.1-0.3-0.1c-0.9-0.2-1.4-1-1.4-1.6c0.1-0.7,1-1,1.8-1
				c1.4,0.1,2.7,0.2,4,0.4c0.6,0.1,0.9,0,0.9-0.8c0-0.5-0.2-1.3,0.5-1.6c0.9-0.4,1.7,0.2,1.7,1.2c0,0.9-0.1,1.8-0.3,2.7
				c-0.1,0.8-0.6,1.4-1.5,1.4C63.3,15.7,62.8,15.7,62.4,15.7z"/>
			<path class="st0" d="M74.9,81c-2.9-3.9-5.7-7.8-8.7-11.8c1.7,0.1,3,0.7,3.7,2c1.7,2.8,3.2,5.7,4.8,8.5C74.9,80,75.2,80.3,74.9,81
				z"/>
			<path class="st0" d="M87.4,150.8c-0.7-0.1-1.3-0.1-1.4-0.7c-0.1-0.5,0.3-1,0.8-1.2c1.5-0.4,3.1-0.7,4.6-1.1c0.2,0,0.4,0,0.5,0.2
				c0.1,0.2,0.1,0.4-0.1,0.5C90.3,149.4,88.8,150.2,87.4,150.8z"/>
		</g>
		<g>
			<path class="st1" d="M183.9,0C122.9,0,62,0,1.1,0C0.2,0,0,0.2,0,1.1C0,88,0,174.9,0,261.9c0.5,0,1,0,1.4,0
				c60.3,0,120.6,0,180.8,0c1.2,0,1.6-0.3,1.6-1.6c0-86.2,0-172.5,0-258.7C183.8,1.1,183.8,0.5,183.9,0z M105.4,87.9
				c0,0.4,0,0.6-0.4,0.7c-0.4,0.2-0.7,0.1-0.9-0.3c-2.8-3.6-5.5-7.2-7.5-11.3c-0.2-0.3-0.4-0.6-0.1-1c0.4-0.4,0.7-0.1,1.1,0.1
				c0.6,0.3,1.2,0.8,1.7,1.4c1.8,2.3,3.6,4.6,5.2,7C105.1,85.5,105.2,86.7,105.4,87.9z M91.1,10.5c1.8,0,2.4,0.5,2.7,2.3
				c0.5,3.5,1,7.1,1.5,10.6c0.1,0.9-0.2,1.7-1,1.9c-0.7,0.2-1.3-0.6-1.5-1.3c-1.4-3.7-2.8-7.4-3.5-11.4
				C88.8,10.9,89.1,10.5,91.1,10.5z M70.2,16.4c0.1,0,0.2,0.1,0.3,0.1c2.4,0.5,3.6,0.5,3.4-2.7c-0.1-1,0-1.9,0-2.9
				c0-0.8,0.2-1,0.9-0.6c2.9,1.4,5.8,2.8,8.7,4.3c0.3,0.1,0.6,0.3,0.9,0.4c0.6,0.2,1.3,0.3,1.5-0.3c0.2-0.5-0.2-1.1-0.8-1.3
				c-0.7-0.2-1.4-0.4-2.1-0.6c-0.6-0.2-1.2-0.6-1.3-1.1c-0.1-0.6,0.6-1,1.1-1.2c0.8-0.4,1.6-0.7,2.5-0.3c0.9,0.3,1.5,0.8,1.6,2
				c0.1,2.4,1.4,4.5,2.6,6.5c0.2,0.3,0.6,0.6,0.4,0.9c-0.2,0.4-0.7,0.2-1.1,0.1c-0.8-0.1-1.6-0.6-2.2-1.1c-0.7-0.5-1.3-1-2-1.6
				c-0.7-0.6-1-0.4-1.4,0.3c-0.6,1-0.4,1.4,0.7,1.7c1.1,0.3,2.2,0.8,3.3,1.3c1.3,0.6,2.5,1.5,3.3,2.7c1.3,2,2.9,3.8,4.6,5.5
				c0.8,0.8,1.2,1.7,1.5,2.8c0.9,4.4,2,8.8,3.4,13.1c0.4,1.1,0.2,1.3-1,1.2c-2.6-0.2-4.8-2.2-5.5-5.1c-0.7-2.9-1.6-5.7-3.5-8
				c-0.6-0.7-1.2-1.3-2-1.7c-0.7-0.3-1.1-0.8-1.5-1.4c-0.5-0.9-0.9-1.9-1.5-2.8c-0.6-1.1-0.5-2.1,0.1-3.2c0.9-1.6,0.6-2.2-1.2-2.6
				c-4.3-0.8-8.6-1.7-13-2.4c-1.4-0.2-2.9-0.2-4.4-0.2c-0.9,0-1.6-0.4-2.5-0.9C66,16.3,68,15.6,70.2,16.4z M91.8,62.5
				c-1.5,0.6-1.8,0.4-2-1.3c-0.6-4.1-1-8.2-1.4-12.4c-0.3-3.1-1-6-2.4-8.8c0-0.1,0-0.2,0-0.4c0.4,0,0.5,0.2,0.5,0.4
				c2.4,4.2,4.6,8.6,6.2,13.2c0.4,1.1,0.6,2.1,0,3.1c-0.3,0.5-0.1,1.1,0,1.6c0.8,4.3,1.5,8.6,2.3,13c0,0.2,0.1,0.3,0.1,0.5
				c0,0.5,0.3,1.3-0.5,1.4c-0.8,0.2-0.7-0.7-0.9-1.1c-0.2-0.5-0.3-1.2-0.6-1.7c-1-2.2-1.2-4.4-0.5-6.7C93,62.5,92.7,62.2,91.8,62.5z
				 M70.2,106.4c0.5,1.3,1.1,2.6,1.6,3.9c0.9,2,1.8,4.1,2.7,6.1c0.9,2,1.3,4.1,1,6.3c-0.1,0.4-0.1,0.8-0.3,1.1
				c-0.3,0.7-0.8,1.4-1.7,1.2c-0.9-0.1-1.2-0.9-1.3-1.6c-0.5-5.2-3.1-9.8-4.9-14.6c-0.1-0.4-0.3-0.7-1-0.8c0.6,2,1.1,3.8,1.6,5.8
				c0.8,2.9,1.6,5.8,2.4,8.8c0.2,0.8,0.4,1.6-0.3,2.2c-1,0.9-2.5,0.5-2.9-1c-0.8-2.8-1.6-5.7-2.4-8.5c-0.6-2.1-1-4.3-1.9-6.3
				c-0.1-0.3-0.2-0.8-0.6-0.8c-0.5,0.1-0.3,0.7-0.2,1c0.5,2.6,1.4,5,2,7.5c0.3,1.1,0.6,2.2,0.9,3.2c0.4,1.5,0.2,2.1-0.9,2.4
				c-1.1,0.4-1.7,0.1-2.4-1.4c-0.7-1.6-1.4-3.3-2.1-5c-0.4-0.9-0.7-1.8-1.2-2.6c-2.7-4.8-1.7-9.7,0-14.5c0.7-2,3.3-2.9,5.2-2
				c4.3,2.1,8.2,4.7,10.6,9.1c1.4,2.7,3.7,4.8,5,7.6c0.8,1.7,1.4,3.6,1.9,5.4c0.3,1.2-0.2,2.1-1.2,2.4c-1.1,0.4-1.7,0.1-2.2-1.2
				c-1.8-4.1-3.5-8.1-5.3-12.2c-0.4-0.9-0.8-1.6-1.5-2.3c-0.2-0.2-0.4-0.7-0.8-0.5C69.8,105.7,70.1,106.1,70.2,106.4z M61.7,179.4
				c-0.6-0.5-1-1.2-1.8-1.5c-0.2,0.6,0.2,1,0.4,1.3c0.8,1.1,0.8,2.4,0.5,3.7c-0.1,0.5-0.3,1-0.9,1.2c-0.7,0.2-1.1-0.2-1.4-0.7
				c-1.1-1.6-1.7-3.3-2.1-5.2c-1.2-6.9-1.8-13.9-2.2-21c-0.2-2.8-1.4-5.2-2.3-7.8c-0.3-0.9-0.6-1.8-0.9-2.7
				c-0.3-0.8,0.1-1.3,0.8-1.5c1.2-0.4,2.5-0.4,3.7-0.2c1.2,0.2,2,1.2,2.3,2.6c0.2,1.2,0.2,2.5,0.2,3.7c0,0.3-0.2,0.7,0.3,0.8
				c1.4,0.2,1.2,1.2,1.4,2.2c1.1,5.4,0.9,10.9,1.7,16.3c0.5,3.7,1.9,7.1,4.2,10c0.8,1,1.2,2.2,1.6,3.5c0.2,0.7-0.8,2.1-1.6,2
				c-0.6-0.1-1.2,0.1-1.8,0.2c-1.7,0.2-2.5-0.7-2-2.3c0.1-0.2,0.2-0.5,0.3-0.7C63.6,181.2,63.6,181.2,61.7,179.4z M43.8,146.2
				c0,0.5,0.2,1-0.5,1.1c-0.8,0.1-0.7-0.5-0.8-0.9c-0.2-0.7-0.4-1.4-0.5-2.1c-0.4-2.5-1.8-4-4.3-4.6c-0.6-0.1-1.2-0.4-1.9-0.5
				c-1-0.2-1.6-0.8-2.2-1.6c1-0.6,1.9-0.7,3-0.2c1.2,0.6,2.5,1.2,3.7,1.8c0.6,0.3,0.8,0.2,0.8-0.4c0-0.6,0-1.3,0-1.9
				c0.1-1.4,0.7-2,2-2.3c0.6-0.1,1.3-0.2,1.9-0.3c2.4-0.3,2.4-0.3,3.3,2c0.2,0.6,0.1,0.8-0.5,0.9c-0.6,0.1-1.2,0.2-1.7,0.4
				c-1.7,0.5-2.2,1.2-2.3,2.9C43.8,142.5,43.9,144.3,43.8,146.2z M39.2,114c-5-0.2-10-0.8-15-1.8c-0.2,0-0.5-0.1-0.7-0.2
				c-0.8-0.2-1.1-0.6-0.6-1.4c0.9-1.5,2.2-2.5,3.7-3.4c3.7-2.2,7.4-4.3,10.9-6.7c0.3-0.2,0.7-0.4,0.9-0.8c-1.1-0.3-2.1,0-3,0.3
				c-1.3,0.4-2.7,0.8-4,1.2c-2.1,0.6-3.9,1.5-5.1,3.3c-0.2,0.3-0.4,0.5-0.7,0.7c-0.5,0.4-1.1,1.1-1.6,0.8c-0.6-0.3-0.6-1.3-0.5-2
				c0.2-2.7,1.7-4.9,3.6-6.7c1.5-1.4,3.2-2.5,5.4-2.9c-0.2,0.8-0.7,1.1-1.1,1.6c-0.3,0.4-0.7,0.9-1,1.4c1,0.3,1.7,0,2.5-0.2
				c2.1-0.6,4.1-1.2,6.2-1.7c1.6-0.4,2.7,0,3.4,1.4c0.6,1.1,1.3,1.3,2.4,0.9c3.6-1.2,7.2-2.4,10.8-3.6c1.2-0.4,2.4-0.7,3.6-0.8
				c0.3,0,0.7-0.3,0.9,0c0.2,0.4-0.2,0.6-0.3,0.9c-1.1,1.8-2.1,3.7-3.3,5.5c-0.8,1.3-1.1,2.7-1.1,4.2c0,3.2,0,6.4,0,9.6
				c0,0.7-0.1,1-1,1C49.4,114.3,44.3,114.2,39.2,114z M50.5,84.4c0.6-2.3,1.2-4.6,1.8-6.9c0.2-0.7,0.5-1.4,1.3-1.3
				c0.8,0,0.9,0.8,1.1,1.4c0.1,0.7,0.4,1.3,0.3,2c0,0.5,0,0.9-0.2,1.4c-0.8,2.1-1.7,4.2-2.6,6.3c-0.2,0.3-0.3,0.6-0.8,0.6
				c-0.5,0-0.5-0.4-0.7-0.7C50.3,86.2,50.2,85.3,50.5,84.4z M58.9,87.4c0.3-3,1.2-5.8,2.2-8.6c0.5-1.4,1.8-1.7,3-0.7
				c1,0.8,2,1.6,2.9,2.5c0.7,0.6,1.2,1.5,1.5,2.4c0.2,0.8,0.1,1.5-0.5,2c-2.1,1.7-4.4,3-6.9,4.1c-0.2,0.1-0.4,0-0.5,0.1
				C59.4,89.1,58.8,88.5,58.9,87.4z M66.2,69.2c1.7,0.1,3,0.7,3.7,2c1.7,2.8,3.2,5.7,4.8,8.5c0.2,0.3,0.5,0.6,0.1,1.3
				C72,77.1,69.1,73.2,66.2,69.2z M80.8,73.1c-2.8-0.5-5.1-2-6.8-4.2c-2.3-2.9-4.7-5.6-7.6-8c-1.7-1.4-2.8-3.3-3.3-5.4
				c-0.7-2.9-1.3-5.8-1.4-8.7c0-0.3-0.1-0.8,0.3-0.9c0.4-0.1,0.5,0.3,0.7,0.5c0.8,1,1.5,2,2.3,3.1c0.6,0.9,1.3,1,2.3,0.7
				c2.4-0.9,4.9-1.7,7.4-2.5c1.4-0.5,2.2-0.2,2.8,1.2c1.2,2.8,2.3,5.6,4.1,8.1c0.4,0.5,0.5,1.1,0.4,1.7c0,0.3,0,0.6-0.1,0.8
				c-0.3,1.9,0.4,3.3,1.9,4.3c0.9,0.6,0.9,1.2-0.1,1.8c-0.6,0.4-1.3,0.4-2,0.4c-0.5,0-1-0.1-1.4,0c-0.7,0.1-1.3,0.6-1.2,1.3
				c0.1,0.6,0.8,1,1.4,0.8c2.8-0.8,4.1,0.8,5.1,3c0.4,0.8,0.9,1.6,1.4,2.3c0.5,0.6,0.8,1.3,1,2c0.2,0.6,0.7,1.3-0.2,1.8
				c-0.8,0.4-1.7,0.6-2.4-0.2c-0.8-0.9-1.3-2-2.3-2.8C82.5,73.7,81.8,73.3,80.8,73.1z M76.2,43.9c0.5,0.9,0.4,1.5-0.7,1.7
				c-2.8,0.7-5.7,0.9-8.4,1.8c-0.3,0.1-0.7,0-0.9-0.2c-1.9-1.6-4.2-2.6-5.5-4.9c-0.3-0.6-0.4-0.9-0.1-1.5c0.9-1.4,1.8-2.9,2.5-4.5
				c0.7-1.5,1.9-2.5,3.5-3.2c2-0.9,4.2-1.1,6.3-1.3c1-0.1,1.4,0.4,1.3,1.7C73.1,37.2,74.5,40.6,76.2,43.9z M78.6,33.8
				c1.8,0.9,2.5,2.3,3.1,3.7c0.4,0.9,0.5,1.9,1.9,1.9c0.8,0,1.2,0.8,1.4,1.5c0.9,2.8,1.5,5.6,2.1,8.5c0.1,0.5,0.2,1.3-0.4,1.5
				c-0.5,0.2-1-0.4-1.3-0.8c-0.2-0.3-0.3-0.6-0.5-1c-0.5-1-1.3-1.5-2.4-1.3c-1,0.2-2.5,0.1-2.7-0.7c-0.1-0.9,1.2-1.5,2.2-1.8
				c0.8-0.2,1.4-0.6,1.6-1.4c0.1-0.3,0-0.5-0.3-0.6c-0.8-0.3-1.5-0.2-2.1,0.3c-0.7,0.6-1.4,1.2-2.2,1.7c-0.8,0.5-1.1,0.3-1.2-0.6
				c0-0.4,0-0.7,0-1.1c-0.1-1,0-1.7,1.3-1.2c0.4,0.2,0.9,0.1,0.9-0.6c0-1.6,0-3.1,0.1-4.7C80,36,79.4,35,78.6,33.8z M86.9,149
				c1.5-0.4,3.1-0.7,4.6-1.1c0.2,0,0.4,0,0.5,0.2c0.1,0.2,0.1,0.4-0.1,0.5c-1.5,0.8-3,1.5-4.4,2.2c-0.7-0.1-1.3-0.1-1.4-0.7
				C86,149.7,86.3,149.2,86.9,149z M58.4,12.4c1.4,0.1,2.7,0.2,4,0.4c0.6,0.1,0.9,0,0.9-0.8c0-0.5-0.2-1.3,0.5-1.6
				c0.9-0.4,1.7,0.2,1.7,1.2c0,0.9-0.1,1.8-0.3,2.7c-0.1,0.8-0.6,1.4-1.5,1.4c-0.4,0-0.9,0-1.3,0c-1.4,0-2.8-0.3-4.1-0.6
				c-0.1,0-0.2-0.1-0.3-0.1c-0.9-0.2-1.4-1-1.4-1.6C56.6,12.7,57.6,12.3,58.4,12.4z M51.3,14.3c1.3,0.2,2.6,0.6,3.9,1
				c0.5,0.2,0.9,0.4,1.2,0.8c0.3,0.4,0.7,0.8,0.5,1.3c-0.2,0.5-0.7,0.4-1.2,0.4c-0.5,0-1,0-1.1,0.6c-0.1,0.6,0.1,1.2,0.7,1.5
				c0.7,0.4,1.5,0.2,2.2,0.2c1.7-0.1,3.4-0.5,5.4,0c-2.2,2.8-4.2,5.5-6.3,8.2c-0.3,0.4-0.5,0.8-1.1,1.1c-0.8-1.7-1.6-3.3-2.3-5
				c-1.1-2.3-2.1-4.5-3.2-6.8c-0.3-0.6-0.5-1.2-0.5-1.8C49.6,14.5,50,14.1,51.3,14.3z M51.3,49.9c0.7,1.4,1.2,3,1.7,4.5
				c0.2,0.5,0.3,1.2,0.8,1.6c0.6-0.5,0.3-1,0.1-1.4c-0.9-2.4-1.8-4.7-2.7-7c-0.5-1.2-0.4-2.1,0.6-2.9c1.2-1,1.9-2.4,2.4-3.9
				c1.4-4,2.9-7.9,4.3-11.9c0.5-1.5,1.7-2.2,2.8-3c0.2-0.1,0.4-0.2,0.6,0c0.2,0.3,0.1,0.5-0.1,0.6c-1.8,1.5-1.3,2.9-0.5,4.9
				c1.1,2.6,0.8,5.5-1.5,7.8c-2.3,2.3-3.1,5.1-3.5,8.2c-0.8,6.1,0.7,11.8,3.3,17.3c0.2,0.4,0.4,0.7,0.5,1.1c0.7,1.9,1.9,3.3,3.6,4.6
				c2.2,1.6,4.1,3.6,6.1,5.4c0.4,0.4,0.6,0.9,0.7,1.8c-1.1-1-2-1.8-3-2.6c-2-1.6-3.7-1.3-5.2,0.7c-0.1,0.1-0.1,0.2-0.2,0.3
				c-0.5,0.8-1.2,1.5-2.1,1.1c-0.9-0.4-1.3-1.4-1.1-2.4c0.2-1.1,0-1.4-1.1-1.1C55,74,52.1,74.5,49.2,75c-2.4,0.4-2.9,0-3.1-2.4
				c-0.2-4.3,1.1-7.8,4.6-10.5c0.8-0.6,1.5-1.3,2.3-1.9c0.2,0.4,0.2,0.9-0.1,1.5c-0.3,0.6-0.5,1.2-0.9,1.7c-1.9,2.3-1.7,4.7-0.8,7.2
				c0.5,1.5,1.5,2.1,3.1,1.8c1.5-0.4,3.1-0.4,4.6-0.5c1.8-0.1,2.1-0.7,1.2-2.3c-1-1.6-1.9-3.2-3-5c-0.3,0.9,0.1,1.9-1.3,1.9
				c-2.5,0-2.8-0.2-2-2.6c0.3-1,0.6-2.1,0.9-3.1c0.3-1.2,0-1.7-1.2-2c-0.1,0-0.2,0-0.2,0c-2.8-0.6-3.2-1.1-3.2-4
				c0-2.6-1-4.5-3.4-5.6C48.5,47.5,50.3,47.8,51.3,49.9z M33.3,39.4c0.7-0.2,1.3-0.4,2-0.5c1.5-0.3,2,0,2.4,1.4
				c0.3,1,0.7,1.1,1.6,0.5c1.3-0.8,2.7-1.5,4-2.4c1-0.6,1.1-1.5,0.4-2.4c-0.4-0.6-1-0.9-1.7-0.4c-2.1,1.7-4.5,1.3-7,0.9
				c0.8-0.9,1.5-1.7,2.4-2.3c0.5-0.4,0.9-0.7,1.3-1.2c1.1-1.2,1.3-1.2,2.6-0.3c0.2,0.1,0.5,0.3,0.8,0.5c0.1-0.9-0.1-1.8,0.1-2.6
				c0.3-0.8,0.7-0.8,1.3-0.5c0.5,0.2,0.8,0.6,0.9,1c1.2,2.9,2.3,5.9,3.4,8.8c0.7,2-0.2,3.9-2,4.9c-0.5,0.3-1,0.5-1.5,0.7
				c-1.6,0.9-1.7,1.2-0.8,2.8c0.3,0.6,1.2,1,0.5,1.9c-0.7,0.9-1.3,1.8-2.6,1.6c-0.3,0-0.7-0.1-0.9,0c-0.6,0.3-1.5,0.6-1.3,1.3
				c0.2,0.8,0.9,0.1,1.4,0.1c1-0.1,2-0.4,2.9-0.5c1.8-0.1,2.8,1.2,2.4,3c-0.2,0.8-0.7,1.5-1.3,2.1c-1.4,1.7-2.8,3.3-4.1,5
				c-0.2,0.2-0.4,0.5-0.5,0.8c-0.8,1.5-0.6,1.9,1.1,1.8c1.1,0,1.7,0.5,2.2,1.5c1.1,2.3,0.4,4.1-1.3,5.7c-0.7,0.7-1.1,1.4-0.3,2.4
				c0.4,0.4,0.6,0.6,1,0.1c0.3-0.4,0.6-0.7,1.1-1c0.6-0.3,1.2-0.4,1.7,0.3c0.5,0.8,0,1.2-0.6,1.6c-0.5,0.3-1,0.5-1.5,0.7
				c-0.9,0.2-0.9,0.6-0.5,1.3c2,3.3,3.9,6.7,5.8,10.1c0.1,0.2,0.2,0.4,0.4,0.6c0.2,0.3,0.2,0.5-0.1,0.7c-0.3,0.2-0.5,0-0.7-0.2
				c-0.6-1.1-1.3-2.1-1.9-3.2c-0.8-1.4-2.1-2.4-2.8-2c-0.7,0.4-0.7,1.9-0.2,3.4c0.2,0.5,0.4,1,0.7,1.5c0.1,0.2,0.1,0.4-0.1,0.6
				c-0.3,0.2-0.4,0.1-0.6-0.1c-1.3-1-2.4-2.2-3.5-3.4c-0.5-0.6-0.4-1.2,0.2-1.7c0.5-0.5,1.2-0.6,1.7-1c1-0.7,1-1.7-0.1-2
				c-2.1-0.7-3-2.2-3.3-4.3c-0.3-1.9-0.7-3.7-0.5-5.6c0.3-2.4,0.3-2.4,2.6-1.7c0,0,0,0,0,0c0.1,0,0.2,0,0.3,0c0-0.1-0.1-0.1-0.1-0.2
				c-0.4-0.6-1-1-1.6-1.2c-1.3-0.5-2-1.4-2.3-2.7c-1.9-7.8-3.7-15.5-5.6-23.3C31,40.6,31.4,40,33.3,39.4z M22.2,61.9
				c0.6-0.2,1,0.1,1.4,0.5c0.4,0.3,0.5,1.2,1,0.8c0.4-0.3-0.3-0.9-0.5-1.3c-0.1-0.2-0.2-0.4-0.3-0.6c-1.9-2.3-1.7-4.8-0.7-7.3
				c0.9-2.5,2.2-4.9,3.8-7c0.6-0.7,0.9-0.7,1.2,0.1c0.1,0.3,0.2,0.6,0.2,0.9c-0.2,2.9,0.6,5.7,1.5,8.4c1.3,3.8,2.5,7.6,3.8,11.3
				c0.7,2,0.6,3.8-1,5.4c-1.6,1.6-2.9,3.5-4.2,5.3c-0.4,0.6-0.7,1.2-1.1,1.9c-0.1,0.2-0.5,0.6,0,0.8c0.4,0.2,0.5-0.3,0.7-0.5
				c0.6-0.8,0.9-2.1,2.1-2c1.3,0,1.5,1.3,1.9,2.2c1.1,2.2,2.2,4.5,3.3,6.8c0.6,1.2,0.5,2.5,0.3,3.8c-0.1,0.4-0.4,0.6-0.7,0.7
				c-1,0.5-2,0.5-3,0c-1.1-0.6-2.1-0.4-3.1,0.5c-0.7,0.6-1.4,1.2-2.6,1.5c1.5-2.7,0.9-5.4,0.9-8c0-0.5-0.1-1-0.1-1.6
				c0.1-0.9-0.1-1.5-1.1-1.6c-0.7-0.1-0.9-0.6-1.1-1.1c-1.1-3.3-1.7-6.6,0.3-9.8c0-0.1,0.1-0.2,0.1-0.2c0-0.1-0.1-0.1-0.1-0.2
				c-0.3-0.1-0.4,0.2-0.6,0.3c-1,0.6-2,0.2-2.2-0.9c-0.5-2.6-0.5-5.2-0.7-7.9C21.6,62.5,21.7,62.1,22.2,61.9z M31,159.5
				c-0.8-1.5-0.8-3-0.4-4.6c0.2-0.8,0.5-1.7,0.7-2.5c0.1-0.6-0.1-1.1-0.6-1.3c-0.4-0.2-0.7,0.3-0.9,0.6c-0.3,0.3-0.5,0.6-0.8,0.9
				c-0.9,1.1-1,1.1-1.8-0.1c-0.3-0.5-0.5-1-0.7-1.5c-1.5-5.2-3-10.4-4.5-15.6c-0.1-0.4-0.6-0.9,0-1.3c0.5-0.4,1.2-0.3,1.7,0
				c0.7,0.4,1.2,1,1.7,1.6c0.6,0.8,1.2,1.6,1.8,2.4c1.1-1.3,0.8-3-0.7-4.1c-0.7-0.5-1.4-0.7-2.2-1c-1-0.4-2-0.7-2.8-1.3
				c-0.8-0.5-1.3-1.3-1.1-2.2c0.2-0.9,0-1.6-0.3-2.4c-1.5-3.7-2.9-7.4-4.3-11c-0.4-1-0.6-2.1-0.6-3.2c0-2.7,0.1-5.4-0.1-8
				c-0.1-1-0.5-1.6-1.6-1.6c-1,0-1-0.6-0.6-1.3c1-1.9,0.7-3.9,0.4-5.9c-0.1-0.4-0.4-0.8-0.8-1c-0.2-0.2-0.5-0.2-0.7-0.4
				c-0.9-0.7-2.7-0.5-2.7-2.1c-0.1-1.4,2.2-4,3.7-4.4c0.9-0.3,1.9-0.3,2.9-0.1c1.3,0.2,2,0,3.1-0.8c-0.8-0.6-2.1-0.4-2.5-1.4
				c-0.4-0.9,0.2-1.9,0.1-2.9c-1,0.3-1.8,0.9-2.5,1.7c-0.3,0.4-0.6,0.8-1,1.2c-1.6,1.5-2.7,1.4-4-0.4c-0.2-0.3-0.4-0.6-0.7-0.9
				c-1.4-1.5-2.3-2.9-0.6-4.9c0.8-0.9,0.6-2.3,0.2-3.5c-0.7-2.4-1.4-4.8-2-7.1c-0.4-1.4,0.3-2.3,1.7-1.8c3.3,1.2,6.5,2.6,8,6.3
				c0.8,2,1.3,4,2.1,6c0.6,1.6,1.2,3.3,1.9,4.9c0.9,2.2,0.4,4.2-0.7,6.2c-0.4,0.7-1,1-1.9,1c-0.7,0-1.8-0.3-2.1,0.5
				c-0.4,0.9,0.5,1.7,1,2.4c0.3,0.5,0.6,0.1,0.9-0.1c0.9-0.8,1.9-1.6,2.8-2.4c0.5-0.4,1-0.8,1.7-0.6c0.7,0.3,0.9,1,1,1.7
				c0.1,0.8-0.1,1.5-0.3,2.2c-1,3.6-1.9,7.2-3,10.7c-0.5,1.7-0.3,3.2,0.7,4.7c1.9,2.8,3.6,5.7,5.5,8.4c2.2,3.1,3,6.7,3.5,10.3
				c0.1,0.7,0.2,1.4,0.3,2c0.4,2,1.3,2.9,3.4,3.2c0.6,0.1,1.1,0.3,1.1,0.9c0,0.6-0.5,0.6-0.9,0.7c-1.9,0.7-2,0.7-1.6,2.7
				c0.8,4.3,1.5,8.6,1.9,12.9c0.1,1,0.5,1.7,1.6,2c2.1,0.6,2.4,2.3,0.9,3.7c-0.8,0.8-1.7,1.5-2.6,2.3
				C31.7,160.4,31.3,160.2,31,159.5z M36.9,171.5c-0.9,0.1-1.8-0.2-2.3-1c-0.8-1.4-1.6-2.8-2.3-4.2c-0.7-1.4-0.3-2.3,1.2-2.7
				c1.5-0.5,3.1-0.2,4.6-0.6c0.5-0.2,0.8,0.5,0.9,0.9c0.2,1.1,0.3,2.3,0.4,3.4c0,0.9-0.2,1.8-0.5,2.7
				C38.5,170.9,37.9,171.4,36.9,171.5z M43,185.7c-0.8,0.4-1.8,0-2.7-0.3c-0.6-0.2-0.2-0.7-0.1-1c0.5-1.1,0.4-1.9-0.6-2.7
				c-0.9-0.7-0.7-1.3,0.3-1.9c0.2-0.1,0.5-0.3,0.7-0.4c1.5-0.6,2.1-1.8,2.1-3.4c0-4.8,0-9.6,0-14.4c0-0.4-0.1-0.8,0.1-1.3
				c0.5,0.2,0.4,0.6,0.4,1c-0.1,7.4,0.3,14.9,0.5,22.3C43.8,184.4,43.8,185.4,43,185.7z M75.6,211c-0.9,4-1.6,8.1-3.1,12
				c-0.1,0.3-0.1,0.8-0.5,0.8c-0.4,0-0.6-0.4-0.8-0.7c-1-1.4-1.2-2.9-1-4.6c0.3-1.7,0.2-3.4-0.4-5.1c-0.6-1.6-0.6-1.6-2.2-0.6
				c-0.2-2.8-0.4-5.3,0.2-7.9c0.2-1,1.2-1.4,2-0.8c2,1.6,3.9,3.3,5.6,5.2C75.8,210,75.7,210.5,75.6,211z M76.5,192.4
				c-0.5,1.5-0.9,3.1-1.5,4.5c-0.8,1.9-2.6,3-4.6,2.5c-2.7-0.7-5.4-1.5-8-2.4c-1.1-0.3-1.4-1-0.9-2c0.1-0.1,0.1-0.3,0.2-0.4
				c0.2-0.6,0.7-1.3,0.1-1.8c-0.6-0.5-1.4-0.6-2.1-0.1c-0.7,0.5-1,1.1-0.7,2c1,3,1.6,6,2.3,9c2.9,11.8,6.2,23.4,9.3,35.1
				c0.2,0.8,0.4,1.7,0.6,2.6c0.1,0.4,0.2,0.8-0.3,1c-0.5,0.2-0.6-0.3-0.8-0.6c-1.6-2.7-2.6-5.5-3.7-8.4
				c-4.5-12.6-7.9-25.6-10.8-38.7c-1.7-7.8-4.6-15.3-7.1-22.8c-0.7-2-1.4-4.1-2-6.1c-0.1-0.2-0.2-0.4-0.2-0.6c0-0.6-0.5-1.5,0.2-1.8
				c0.6-0.3,0.8,0.7,1.2,1.1c0.2,0.2,0.4,0.5,0.6,0.8c0.5-0.3,0.8-0.7,0.8-1.3c-0.3-2.9-1.1-5.8-2.1-8.6c-1.1,1.1-1.4,2.2-1.1,3.6
				c0.2,0.9,0.3,1.7-0.2,2.7c-3-3.3-2.2-7.1-1.9-10.8c0.1,0.5,0.2,1.1,0.3,1.6c0.1,0.3,0.1,0.6,0.5,0.6c0.3,0,0.4-0.2,0.5-0.5
				c0.3-1,0.5-1.9,0.5-2.9c0-1.6-0.1-3.2,0-4.8c0.1-0.8,0.1-2.1,1-2.3c0.8-0.2,1.2,1,1.6,1.7c1.1,1.9,1.2,4.1,1.6,6.2
				c2.4,11.7,4.7,23.4,7,35.1c0.2,1.1,0.6,1.6,1.7,1.1c1-0.5,1.8-0.1,2.6,0.6c2,1.5,3,3.4,2.8,5.9c-0.1,1.2,0,1.2,1.1,0.6
				c0.3-0.2,0.6-0.3,0.8-0.5c3.1-2.3,6.6-2.3,10.2-1.5C76.6,191.7,76.7,191.9,76.5,192.4z M80.6,178.8c-0.5,0.3-1.1,0.6-1.5,1
				c-0.9,0.8-1.6,0.5-2.3-0.3c-1.4-1.4-1.6-1.4-2.3,0.5c-0.3,0.8-0.6,1.4-1.6,1.2c-0.9-0.2-1.6-0.6-1.7-1.8c0.5-1.4,0.9-2.9,1.5-4.3
				c0.4-0.9,1.4-1.2,2.3-0.8c2,0.8,4,1.7,5.8,2.8C81.9,177.9,81.8,178.1,80.6,178.8z M81.1,172.8c0-1,0.6-1.6,1.4-2.1
				c1.3-0.9,2.6-1.8,3.9-2.6c0.3-0.2,0.6-0.4,0.5-0.8c-0.1-0.4-0.5-0.4-0.8-0.4c-1-0.1-1.9-0.2-2.9-0.3c-0.3,0-0.7-0.1-0.7-0.5
				c-0.1-0.4,0.3-0.5,0.5-0.6c2.8-1.6,5.7-3.3,8.5-4.9c0.2-0.1,0.4-0.3,0.6-0.1c0.3,0.2,0.1,0.5,0,0.8c-0.3,0.6-0.6,1.1-0.9,1.7
				c-1.8,2.9-3.7,5.8-5.5,8.7c-0.8,1.4-2.1,2.1-3.4,2.7C81.7,174.6,81.2,173.9,81.1,172.8z M83.1,217.5c0.6,0.1,0.6,1.1,1.4,0.7
				c1.1-0.5,2.6-0.6,3.2-1.9c0.3-0.7-0.6-0.7-1-0.8c-2.4-0.1-2.4-0.1-3-2.4c-0.2-0.6-0.3-1.2-0.5-1.8c-0.5-1.4-0.5-2.7,1-3.6
				c0.7-0.4,0.9-1.4,1.7-1.7c0.6-0.2,0.8-0.1,0.9,0.5c0.3,1.2-0.3,2-0.9,2.8c-0.2,0.3-0.7,0.6-0.4,1c0.2,0.4,0.6,0.2,1,0.2
				c0.9,0.1,1.7,0.4,1.9,1.2c0.8,2.9,2.4,5.6,3.2,8.5c0.2,0.8,0.1,1.1-0.8,1c-1.2,0-2.3,0.4-3.4,0.6
				C84.9,222.4,81.8,220.4,83.1,217.5z M92.4,228c-1.1,0.3-2,0.9-2.6,2c-0.2,0.4-0.4,0.9-0.8,1.2c-1.1,1-2.4,0.7-2.9-0.7
				c-0.1-0.3-0.2-0.5-0.3-0.8c-0.3-0.7-0.2-1,0.5-1.4c1.7-0.8,1.7-1.1,0.8-2.8c-0.6-1.1-0.4-1.5,0.8-1.7c0.5-0.1,1-0.1,1.5-0.1
				c0.9,0.3,1.6,0,2.3-0.3c0.8-0.4,1.4-0.1,1.7,0.7c0.2,0.4,0.4,0.9,0.5,1.4C94.5,227.5,94.5,227.5,92.4,228z M104.9,162
				c-2.2,1.5-4.4,3.1-6.7,4.6c-1.3,0.9-3.3,0.7-4.5-0.3c-0.5-0.4-0.7-0.9-0.6-1.5c0.3-3,1.3-5.7,3.4-7.8c1.1-1.1,2.6-1.2,3.8-0.3
				c1.7,1.4,3.2,3,4.7,4.6C105.4,161.7,105.2,161.8,104.9,162z M105.3,141.5c-2.6,1.6-5.2,3.2-7.8,4.8c-0.2,0.1-0.3,0.2-0.7,0
				c1.1-2.3,2.2-4.6,3.2-6.9c0.2-0.4,0.4-0.7,1-0.6c1.3,0.3,2.6,0.5,3.9,0.8c0.5,0.1,0.9,0.4,1,0.9
				C106,140.9,105.7,141.3,105.3,141.5z M121.1,168.2c-0.3,0.6-0.6,1.2-1.1,1.7c-2.4,2.2-4.9,4.4-7.3,6.6c-0.2,0.2-0.4,0.3-0.5,0.3
				c-1-0.1-1.9-1.6-1.4-2.4c0.2-0.3,0.5-0.6,0.8-0.9c2.1-1.7,4.3-3.5,6.4-5.2c0.6-0.5,1.3-0.9,2.1-1.2c0.3-0.1,0.6-0.4,1,0
				C121.4,167.5,121.2,167.8,121.1,168.2z M123.6,134.4c-3,2.2-6,4.4-8.9,6.6c-0.4,0.3-0.8,0.5-1.4,0.5c-0.3-0.1-0.9,0.1-1.1-0.4
				c-0.2-0.5,0.3-0.6,0.6-0.9c2.2-2,4.4-4,6.6-5.9c1.3-1.1,2.8-1,4.3-1.1c0.2,0,0.4,0.1,0.4,0.3C124.3,134,123.9,134.2,123.6,134.4z
				 M136.8,99.3c-0.6,0.9-1.5,0.6-2.2,0c-0.7-0.5-1.3-1.2-2.1-2c-0.4,1.3-0.4,2.6-1.3,3.6c-0.9,1-1.1,1-1.6-0.3
				c-0.5-1.1-0.5-2.3-0.4-3.5c0-0.6,0.4-0.8,0.9-1c1.3-0.7,2.7-1.1,4.2-1.3c1-0.2,1.9,0.2,2.3,1.1C137.1,97,137.5,98.2,136.8,99.3z
				 M143,68.5c0-0.1,0-0.1-0.1-0.4c1.5-0.2,3-0.5,4.5-0.7c0.5-0.1,0.7,0.2,0.8,0.6c1.1,3,4,4.8,7.2,4.6c2.3-0.2,3.9,1.6,3.5,3.8
				c-0.1,0.5-0.4,0.3-0.7,0.2c-0.7-0.3-1.4-0.6-2.4-1.1c0.4,1.4,0.8,2.6,1.1,3.8c0.2,0.8,0.6,1.7,0.7,2.5c0.1,0.7,0.7,1.6-0.2,2.1
				c-1,0.5-2.5-0.1-3.1-1c-0.4-0.6-0.5-1.3-0.4-2c0.2-2.1-0.7-3.6-2.4-4.8c-1.6-1.1-3.1-2.3-4.7-3.4c-0.2,0.4,0,0.7,0.2,0.9
				c2.1,2,3.1,4.6,3.8,7.3c0.2,0.9,0.4,1.8,0.7,2.7c0.2,0.9,0,1.6-1,1.9c-1,0.3-1.7,0-2.1-0.9c-0.4-1.1-0.8-2.3-1.1-3.4
				c-0.3-1.6-1.3-2.6-2.7-3.3c-0.6-0.3-0.8-0.2-0.9,0.3c-0.1,0.4-0.3,0.8-0.4,1.1c-0.3,0.9-0.5,2-2.1,0.9c0,0.1,0,0.3,0,0.4
				c0.9,1.2,1.7,2.4,2.6,3.6c0.8,1.2,1,2.4,0.5,3.7c-0.2,0.6-0.5,0.7-1.1,0.5c-1.7-0.6-6.1-5.6-6.3-7.4c-0.1-1,0-1.9,0.3-2.8
				c0.5-1.3,1-2.6,1.3-4c0.5-1.8,1.7-2.8,3.4-3.4C144.2,70.4,144.2,70.4,143,68.5z M142.9,119c-0.5,0-1,0-1.4,0c0,0,0,0,0,0
				c-1-0.1-2.1-0.1-3.1-0.2c-0.3,0-0.8,0.1-0.9-0.3c-0.1-0.3,0.3-0.7,0.6-0.9c1.7-1.2,2.6-2.9,3.3-4.7c0.6-1.6,1.2-3.1,2.2-4.5
				c0.2-0.3,0.3-0.7,0.8-0.6c0.5,0,0.7,0.4,0.8,0.8c0.6,1.6,1.4,3.1,1.7,4.8c0.1,0.8,0.1,1.7-0.1,2.5
				C146.2,118.3,145.3,119,142.9,119z M163,148c-2.7,0.2-5.5,0.6-8.2,0.9c-0.4,0-0.7,0.1-0.9-0.4c-0.1-0.3,0.1-0.5,0.3-0.7
				c0.4-0.3,1.2-0.3,1.1-0.9c-0.1-0.6-0.7-1.2-1.3-1.5c-0.9-0.6-3.4,0.1-3.9,1.1c-0.1,0.3,0.1,0.4,0.2,0.6c0.3,0.6,1.5,0.7,1,1.6
				c-0.4,0.9-2,1.3-3,1c-1.6-0.4-2.4-2.4-1.6-3.9c0.8-1.5,1.7-3.1,3.7-3c1.1,0.1,1.8-0.4,2.7-1.1c-0.5-0.2-0.8-0.4-1-0.4
				c-1.8,0-1.6-1.1-1.6-2.4c0.1-3.3,0.6-6.6,0.5-9.9c-0.1-3.2-1-6.2-1.8-9.3c-0.5-1.8-0.6-3.5-0.7-5.3c0-0.8,0.3-1.7,1-1.8
				c0.7-0.1,1.4,0.6,1.6,1.4c0.4,1.3,0.7,2.7,1,4.1c0.2,0.8,0.4,0.8,1,0.3c1.1-0.9,1.1-0.9,1.8,0.4c0.7,1.5,0.9,3.2,1,4.8
				c0.1,0.9-0.8,1.8-1.3,2.5c-1,1.3-0.9,2.4,0,3.8c2.3,3.9,5.1,7.6,7.3,11.5c1,1.7,2,3.3,2.2,5.3C164.1,147.5,164,147.9,163,148z
				 M172.3,119.5c-0.4,0.4-0.6,0.3-0.8-0.1c-0.3-0.4-0.5-0.8-0.9-1.1c-0.7-0.7-1.8-0.6-2.2,0.1c-1.2,2.5-2.7,4.9-3.1,7.7
				c-0.3,1.9,0.1,3.6,1.1,5.3c0.4,0.7,1.2,1.7,0.5,2.1c-0.8,0.6-1.3-0.6-1.8-1.2c-3.2-3.8-6.4-7.6-8.8-12.1c-1.9-3.7-1.7-7,0.9-10.1
				c1.5-1.8,1.9-3.6,1.5-6c-0.9-5,0-10,1.1-14.9c0.4-1.6,0.8-3.2,1.3-4.9c0.1-0.3,0.1-0.7,0.5-0.7c0.4,0,0.5,0.3,0.6,0.6
				c0.6,1.8,1.1,3.7,1.7,5.5c0.3,1,0.2,1.6-0.7,2.2c-0.5,0.3-1.3,0.6-1.2,1.3c0.1,0.8,0.9,1,1.7,1c0.4,0,0.8,0.2,1.1,0.5
				c2.7,2.5,5,5.1,4.9,9.1c-0.1,1.6-0.1,3.3-0.2,4.9c0,0.8-0.5,1.4-1.1,1.9c-1.2,1-2.1,0.7-2.5-0.8c-0.2-0.8-0.4-1.6-0.6-2.6
				c-1.3,1-1.8,2.2-2.1,3.6c-0.2,0.9-0.4,1.8-0.5,2.7c-0.1,0.9-0.5,1.2-1.4,1.2c-2.4,0-2.4,0.1-1.5,2.1c0.7,1.5,1.1,1.7,2.5,0.7
				c2.7-2,5.4-4,8.1-6c1.3-1,1.8-0.9,2.4,0.6c0.2,0.5,0.4,0.9,0.6,1.4C174.7,116.6,174.5,117.4,172.3,119.5z M173.6,98.6
				c-1.8,1.2-3.9,0.6-4.9-1.5c-0.9-2-1.7-4-2.5-6.1c-1.8-4.3-3.5-8.6-5.2-12.9c-0.6-1.5-0.9-3.1-0.7-4.7c0.1-1.2,0.6-1.5,1.8-1.3
				c0.6,0.1,1.2,0.3,1.9,0.4c0.5,0.1,0.9,0.2,1.4,0c0.5-0.2,1.1-0.6,1-1.2c0-0.5-0.7-0.5-1.2-0.6c-1.1-0.2-2.1-0.1-3.2,0.1
				c-1.7,0.3-2.6-0.1-3.3-1.7c-0.3-0.6-0.5-1.3-0.8-1.9c-0.2-0.5-0.5-1.2-1.1-1c-0.6,0.2-0.8,0.9-0.6,1.6c0.2,0.6,0.2,1.2,0.4,1.7
				c0.3,0.7,0,1-0.6,1.1c-1,0.2-2.1,0.2-3.1-0.1c-1.4-0.5-1.7-1.3-0.9-2.6c1-1.7,1-1.7-0.9-2.2c-3.7-1-7.2-1-10.5,1.5
				c-1.2,1-2.9,0.5-4.3,0.6c-2,0.2-4,0.1-6,0.1c-2.1,0-2.9,1-2.7,3c0.1,0.9,0.1,1.7,0.2,2.8c0.9-0.8,1.4-1.6,1.9-2.3
				c0.7-0.9,1.4-1.9,2.6-2.3c0.6-0.2,1.1-0.3,0.9,0.7c-0.1,0.3-0.3,0.8,0,1c0.4,0.3,0.7-0.2,1.1-0.3c0.9-0.3,1.8-0.7,2.7-1
				c0.6-0.2,1.3-0.1,1.8,0.4c0.5,0.5,0.2,1.1-0.1,1.7c-1.1,2.3-1.9,4.6-2.5,7.1c-0.4,1.5-0.9,1.8-2.4,1.8c-0.7,0-1.1-0.1-1.5-0.8
				c-0.2-0.4-0.4-0.9-1-1.3c-0.3,1.6-0.6,3.2-1,5c1.4-0.7,2.6-1.3,3.8-1.9c1.7-0.8,2.5-0.4,2.6,1.5c0.1,2.2,0.2,4.3,0.2,6.5
				c0,1-0.3,1.9-0.8,2.7c-0.8,1-1.9,1.1-2.6,0c-1.6-2.6-3.8-4.6-6.2-6.5c-1.1-0.9-1.4-2.1-1.4-3.4c0-1.3,0.2-2.6,0.3-3.8
				c0.2-1.5,0-2.9-0.6-4.2c-1.4-2.8-2.8-5.7-4.2-8.5c-0.3-0.5-0.5-1.1-1.2-1.2c-1.1-0.2-1.4-1-1.5-1.9c-0.2-4-1.2-7.8-1.4-11.8
				c-0.1-1-0.4-2-1.2-2.7c-1.6-1.3-2.1-3-2.4-4.8c-0.4-2.6-0.6-5.2-0.9-7.7c-0.1-0.6,0.1-1.1,0.6-1.5c1.1-0.8,2.4-1.1,3.6-1.5
				c0.1,0,0.2,0,0.2,0c1.2,0.8,1.4,2.2,1.9,3.4c0.3,0.8-0.3,1.2-0.8,1.6c-2,1.4-1.9,1.4-1.1,3.6c0.4,1.2,1,2.2,2.1,3
				c1.4,1.1,2.1,2.6,2.2,4.5c0.1,3.4,1,6.8,1.3,10.2c0.1,0.5,0.3,0.6,0.8,0.5c3.7-1,7.4-0.6,11.1-0.1c0.6,0.1,0.7,0.4,0.7,0.9
				c0.1,2.3,0.9,3.1,3.3,3.2c1.3,0.1,2.6,0,4,0.1c1.1,0.1,1.8-0.4,2.3-1.4c1.2-2.3,1.8-2.5,4.1-1.1c0.5,0.3,0.9,0.7,1.5,0.8
				c0-0.8-0.6-1.3-0.8-2c1.2,0.1,2,0.4,2.3,1.7c0.3,1.4,0.7,2.9,2.3,3.6c0.7-0.7,1.1-1.5,1.3-2.5c0.1-0.3-0.2-0.8,0.4-0.8
				c0.4,0,0.8,0.2,1,0.6c0.1,0.1,0.1,0.3,0.2,0.5c1,2.6,1.9,3.2,4.7,2.9c1.4-0.2,2.5,0.3,3.4,1.4c1.3,1.5,1.6,1.5,3.4,0.6
				c0.5-0.2,3,0.6,3.2,1.1c0.1,0.4-0.2,0.7-0.4,0.9c-1.1,1.2-2.2,2.3-3.3,3.5c-0.3,0.3-0.8,0.5-0.6,0.9c0.1,0.3,0.7,0.3,1,0.4
				c0.7,0.2,1.3,0.3,2,0.4c1.2,0.2,1.8,0.8,1.9,2c0.2,3.2,0.3,6.3,0.4,9.5c0,0.8-0.3,1.4-1.2,1.4c-0.3,0-0.5,0.1-0.8,0.3
				c-1.1,0.6-1.1,0.9-0.1,1.5c0.8,0.6,1.7,1.1,2.5,1.6c0.5,0.3,0.7,0.5,0.1,0.9c-0.6,0.3-1.1,0.8-0.9,1.6c0.2,0.8,0.4,1.5,1.4,1.6
				c0.6,0.1,0.9,0.6,1,1.2C174.5,97.6,174.3,98.2,173.6,98.6z"/>
			<path class="st1" d="M45.4,100.5c-2.5,1.3-4.8,3-7.2,4.5c-1.5,1-3.1,2-4.5,3.2c-0.5,0.4-0.8,0.9-0.8,1.6c0,0.6,0.1,1,0.7,0.8
				c0.8,0.1,1.3-0.3,1.9-0.7c1.7-1.2,3.4-2.4,5.2-3.4c2-1.2,4-2.4,5.9-3.6c0.7-0.5,1.4-1.2,0.9-2.1C47.2,100,46.3,100,45.4,100.5z"
				/>
			<path class="st1" d="M26.1,66.2c0.5-0.2,1-0.5,1.5-0.8c0.3-0.1,0.6-0.5,0.8-0.3c0.3,0.2,0.3,0.7,0.3,1.1c0,0.3-0.2,0.6-0.4,0.8
				c-0.6,0.9-1.3,1.8-1.9,2.7c0,0,0,0,0,0c-0.1,0.1-0.2,0.2-0.1,0.4c0,0,0.2-0.1,0.3-0.1c0.2-0.2,0.5-0.4,0.7-0.6
				c1.2-1.1,2.4-2,2.9-3.7c0.2-0.9,0-1.4-0.8-1.7c-1.3-0.6-3.4,0.2-4,1.4c-0.1,0.2-0.1,0.5,0,0.7C25.5,66.3,25.8,66.3,26.1,66.2z"/>
			<path class="st1" d="M25.8,70.9L25.8,70.9c0.1-0.1,0.3-0.2,0.1-0.3c0,0-0.2,0.1-0.3,0.1c-0.2,0.2-0.6,0.4-0.3,0.6
				C25.6,71.5,25.7,71.1,25.8,70.9z"/>
			<path class="st1" d="M59.7,177.7C59.7,177.7,59.6,177.7,59.7,177.7c0,0.1,0,0.1,0,0.2C59.7,177.8,59.7,177.8,59.7,177.7
				C59.7,177.7,59.7,177.7,59.7,177.7z"/>
		</g>
	</g>
	<g>
		<path class="st1" d="M420.8,2.3c-60.9,0-121.8,0-182.8,0c-0.9,0-1.1,0.2-1.1,1.1c0,86.9,0,173.8,0,260.8c0.5,0,1,0,1.4,0
			c60.3,0,120.6,0,180.8,0c1.2,0,1.6-0.3,1.6-1.6c0-86.2,0-172.5,0-258.7C420.7,3.3,420.8,2.8,420.8,2.3z M342.3,90.2
			c0,0.4,0,0.6-0.4,0.7c-0.4,0.2-0.7,0.1-0.9-0.3c-2.8-3.6-5.5-7.2-7.5-11.3c-0.2-0.3-0.4-0.6-0.1-1c0.4-0.4,0.7-0.1,1.1,0.1
			c0.6,0.3,1.2,0.8,1.7,1.4c1.8,2.3,3.6,4.6,5.2,7C342,87.8,342.1,89,342.3,90.2z M328,12.8c1.8,0,2.4,0.5,2.7,2.3
			c0.5,3.5,1,7.1,1.5,10.6c0.1,0.9-0.2,1.7-1,1.9c-0.7,0.2-1.3-0.6-1.5-1.3c-1.4-3.7-2.8-7.4-3.5-11.4
			C325.8,13.2,326.1,12.8,328,12.8z M307.1,18.7c0.1,0,0.2,0.1,0.3,0.1c2.4,0.5,3.6,0.5,3.4-2.7c-0.1-1,0-1.9,0-2.9
			c0-0.8,0.2-1,0.9-0.6c2.9,1.4,5.8,2.8,8.7,4.3c0.3,0.1,0.6,0.3,0.9,0.4c0.6,0.2,1.3,0.3,1.5-0.3c0.2-0.5-0.2-1.1-0.8-1.3
			c-0.7-0.2-1.4-0.4-2.1-0.6c-0.6-0.2-1.2-0.6-1.3-1.1c-0.1-0.6,0.6-1,1.1-1.2c0.8-0.4,1.6-0.7,2.5-0.3c0.9,0.3,1.5,0.8,1.6,2
			c0.1,2.4,1.4,4.5,2.6,6.5c0.2,0.3,0.6,0.6,0.4,0.9c-0.2,0.4-0.7,0.2-1.1,0.1c-0.8-0.1-1.6-0.6-2.2-1.1c-0.7-0.5-1.3-1-2-1.6
			c-0.7-0.6-1-0.4-1.4,0.3c-0.6,1-0.4,1.4,0.7,1.7c1.1,0.3,2.2,0.8,3.3,1.3c1.3,0.6,2.5,1.5,3.3,2.7c1.3,2,2.9,3.8,4.6,5.5
			c0.8,0.8,1.2,1.7,1.5,2.8c0.9,4.4,2,8.8,3.4,13.1c0.4,1.1,0.2,1.3-1,1.2c-2.6-0.2-4.8-2.2-5.5-5.1c-0.7-2.9-1.6-5.7-3.5-8
			c-0.6-0.7-1.2-1.3-2-1.7c-0.7-0.3-1.1-0.8-1.5-1.4c-0.5-0.9-0.9-1.9-1.5-2.8c-0.6-1.1-0.5-2.1,0.1-3.2c0.9-1.6,0.6-2.2-1.2-2.6
			c-4.3-0.8-8.6-1.7-13-2.4c-1.4-0.2-2.9-0.2-4.4-0.2c-0.9,0-1.6-0.4-2.5-0.9C302.9,18.6,304.9,17.9,307.1,18.7z M328.7,64.8
			c-1.5,0.6-1.8,0.4-2-1.3c-0.6-4.1-1-8.2-1.4-12.4c-0.3-3.1-1-6-2.4-8.8c0-0.1,0-0.2,0-0.4c0.4,0,0.5,0.2,0.5,0.4
			c2.4,4.2,4.6,8.6,6.2,13.2c0.4,1.1,0.6,2.1,0,3.1c-0.3,0.5-0.1,1.1,0,1.6c0.8,4.3,1.5,8.6,2.3,13c0,0.2,0.1,0.3,0.1,0.5
			c0,0.5,0.3,1.3-0.5,1.4c-0.8,0.2-0.7-0.7-0.9-1.1c-0.2-0.5-0.3-1.2-0.6-1.7c-1-2.2-1.2-4.4-0.5-6.7
			C329.9,64.8,329.7,64.4,328.7,64.8z M307.2,108.7c0.5,1.3,1.1,2.6,1.6,3.9c0.9,2,1.8,4.1,2.7,6.1c0.9,2,1.3,4.1,1,6.3
			c-0.1,0.4-0.1,0.8-0.3,1.1c-0.3,0.7-0.8,1.4-1.7,1.2c-0.9-0.1-1.2-0.9-1.3-1.6c-0.5-5.2-3.1-9.8-4.9-14.6c-0.1-0.4-0.3-0.7-1-0.8
			c0.6,2,1.1,3.8,1.6,5.8c0.8,2.9,1.6,5.8,2.4,8.8c0.2,0.8,0.4,1.6-0.3,2.2c-1,0.9-2.5,0.5-2.9-1c-0.8-2.8-1.6-5.7-2.4-8.5
			c-0.6-2.1-1-4.3-1.9-6.3c-0.1-0.3-0.2-0.8-0.6-0.8c-0.5,0.1-0.3,0.7-0.2,1c0.5,2.6,1.4,5,2,7.5c0.3,1.1,0.6,2.2,0.9,3.2
			c0.4,1.5,0.2,2.1-0.9,2.4c-1.1,0.4-1.7,0.1-2.4-1.4c-0.7-1.6-1.4-3.3-2.1-5c-0.4-0.9-0.7-1.8-1.2-2.6c-2.7-4.8-1.7-9.7,0-14.5
			c0.7-2,3.3-2.9,5.2-2c4.3,2.1,8.2,4.7,10.6,9.1c1.4,2.7,3.7,4.8,5,7.6c0.8,1.7,1.4,3.6,1.9,5.4c0.3,1.2-0.2,2.1-1.2,2.4
			c-1.1,0.4-1.7,0.1-2.2-1.2c-1.8-4.1-3.5-8.1-5.3-12.2c-0.4-0.9-0.8-1.6-1.5-2.3c-0.2-0.2-0.4-0.7-0.8-0.5
			C306.8,108,307,108.3,307.2,108.7z M298.6,181.7c-0.6-0.5-1-1.2-1.8-1.5c-0.2,0.6,0.2,1,0.4,1.3c0.8,1.1,0.8,2.4,0.5,3.7
			c-0.1,0.5-0.3,1-0.9,1.2c-0.7,0.2-1.1-0.2-1.4-0.7c-1.1-1.6-1.7-3.3-2.1-5.2c-1.2-6.9-1.8-13.9-2.2-21c-0.2-2.8-1.4-5.2-2.3-7.8
			c-0.3-0.9-0.6-1.8-0.9-2.7c-0.3-0.8,0.1-1.3,0.8-1.5c1.2-0.4,2.5-0.4,3.7-0.2c1.2,0.2,2,1.2,2.3,2.6c0.2,1.2,0.2,2.5,0.2,3.7
			c0,0.3-0.2,0.7,0.3,0.8c1.4,0.2,1.2,1.2,1.4,2.2c1.1,5.4,0.9,10.9,1.7,16.3c0.5,3.7,1.9,7.1,4.2,10c0.8,1,1.2,2.2,1.6,3.5
			c0.2,0.7-0.8,2.1-1.6,2c-0.6-0.1-1.2,0.1-1.8,0.2c-1.7,0.2-2.5-0.7-2-2.3c0.1-0.2,0.2-0.5,0.3-0.7
			C300.5,183.5,300.5,183.4,298.6,181.7z M280.8,148.4c0,0.5,0.2,1-0.5,1.1c-0.8,0.1-0.7-0.5-0.8-0.9c-0.2-0.7-0.4-1.4-0.5-2.1
			c-0.4-2.5-1.8-4-4.3-4.6c-0.6-0.1-1.2-0.4-1.9-0.5c-1-0.2-1.6-0.8-2.2-1.6c1-0.6,1.9-0.7,3-0.2c1.2,0.6,2.5,1.2,3.7,1.8
			c0.6,0.3,0.8,0.2,0.8-0.4c0-0.6,0-1.3,0-1.9c0.1-1.4,0.7-2,2-2.3c0.6-0.1,1.3-0.2,1.9-0.3c2.4-0.3,2.4-0.3,3.3,2
			c0.2,0.6,0.1,0.8-0.5,0.9c-0.6,0.1-1.2,0.2-1.7,0.4c-1.7,0.5-2.2,1.2-2.3,2.9C280.7,144.8,280.8,146.6,280.8,148.4z M276.1,116.3
			c-5-0.2-10-0.8-15-1.8c-0.2,0-0.5-0.1-0.7-0.2c-0.8-0.2-1.1-0.6-0.6-1.4c0.9-1.5,2.2-2.5,3.7-3.4c3.7-2.2,7.4-4.3,10.9-6.7
			c0.3-0.2,0.7-0.4,0.9-0.8c-1.1-0.3-2.1,0-3,0.3c-1.3,0.4-2.7,0.8-4,1.2c-2.1,0.6-3.9,1.5-5.1,3.3c-0.2,0.3-0.4,0.5-0.7,0.7
			c-0.5,0.4-1.1,1.1-1.6,0.8c-0.6-0.3-0.6-1.3-0.5-2c0.2-2.7,1.7-4.9,3.6-6.7c1.5-1.4,3.2-2.5,5.4-2.9c-0.2,0.8-0.7,1.1-1.1,1.6
			c-0.3,0.4-0.7,0.9-1,1.4c1,0.3,1.7,0,2.5-0.2c2.1-0.6,4.1-1.2,6.2-1.7c1.6-0.4,2.7,0,3.4,1.4c0.6,1.1,1.3,1.3,2.4,0.9
			c3.6-1.2,7.2-2.4,10.8-3.6c1.2-0.4,2.4-0.7,3.6-0.8c0.3,0,0.7-0.3,0.9,0c0.2,0.4-0.2,0.6-0.3,0.9c-1.1,1.8-2.1,3.7-3.3,5.5
			c-0.8,1.3-1.1,2.7-1.1,4.2c0,3.2,0,6.4,0,9.6c0,0.7-0.1,1-1,1C286.3,116.6,281.2,116.5,276.1,116.3z M287.4,86.6
			c0.6-2.3,1.2-4.6,1.8-6.9c0.2-0.7,0.5-1.4,1.3-1.3c0.8,0,0.9,0.8,1.1,1.4c0.1,0.7,0.4,1.3,0.3,2c0,0.5,0,0.9-0.2,1.4
			c-0.8,2.1-1.7,4.2-2.6,6.3c-0.2,0.3-0.3,0.6-0.8,0.6c-0.5,0-0.5-0.4-0.7-0.7C287.2,88.5,287.1,87.6,287.4,86.6z M295.9,89.7
			c0.3-3,1.2-5.8,2.2-8.6c0.5-1.4,1.8-1.7,3-0.7c1,0.8,2,1.6,2.9,2.5c0.7,0.6,1.2,1.5,1.5,2.4c0.2,0.8,0.1,1.5-0.5,2
			c-2.1,1.7-4.4,3-6.9,4.1c-0.2,0.1-0.4,0-0.5,0.1C296.4,91.4,295.7,90.8,295.9,89.7z M303.1,71.5c1.7,0.1,3,0.7,3.7,2
			c1.7,2.8,3.2,5.7,4.8,8.5c0.2,0.3,0.5,0.6,0.1,1.3C308.9,79.3,306.1,75.5,303.1,71.5z M317.7,75.4c-2.8-0.5-5.1-2-6.8-4.2
			c-2.3-2.9-4.7-5.6-7.6-8c-1.7-1.4-2.8-3.3-3.3-5.4c-0.7-2.9-1.3-5.8-1.4-8.7c0-0.3-0.1-0.8,0.3-0.9c0.4-0.1,0.5,0.3,0.7,0.5
			c0.8,1,1.5,2,2.3,3.1c0.6,0.9,1.3,1,2.3,0.7c2.4-0.9,4.9-1.7,7.4-2.5c1.4-0.5,2.2-0.2,2.8,1.2c1.2,2.8,2.3,5.6,4.1,8.1
			c0.4,0.5,0.5,1.1,0.4,1.7c0,0.3,0,0.6-0.1,0.8c-0.3,1.9,0.4,3.3,1.9,4.3c0.9,0.6,0.9,1.2-0.1,1.8c-0.6,0.4-1.3,0.4-2,0.4
			c-0.5,0-1-0.1-1.4,0c-0.7,0.1-1.3,0.6-1.2,1.3c0.1,0.6,0.8,1,1.4,0.8c2.8-0.8,4.1,0.8,5.1,3c0.4,0.8,0.9,1.6,1.4,2.3
			c0.5,0.6,0.8,1.3,1,2c0.2,0.6,0.7,1.3-0.2,1.8c-0.8,0.4-1.7,0.6-2.4-0.2c-0.8-0.9-1.3-2-2.3-2.8C319.4,76,318.7,75.6,317.7,75.4z
			 M313.2,46.2c0.5,0.9,0.4,1.5-0.7,1.7c-2.8,0.7-5.7,0.9-8.4,1.8c-0.3,0.1-0.7,0-0.9-0.2c-1.9-1.6-4.2-2.6-5.5-4.9
			c-0.3-0.6-0.4-0.9-0.1-1.5c0.9-1.4,1.8-2.9,2.5-4.5c0.7-1.5,1.9-2.5,3.5-3.2c2-0.9,4.2-1.1,6.3-1.3c1-0.1,1.4,0.4,1.3,1.7
			C310,39.5,311.4,42.9,313.2,46.2z M315.5,36.1c1.8,0.9,2.5,2.3,3.1,3.7c0.4,0.9,0.5,1.9,1.9,1.9c0.8,0,1.2,0.8,1.4,1.5
			c0.9,2.8,1.5,5.6,2.1,8.5c0.1,0.5,0.2,1.3-0.4,1.5c-0.5,0.2-1-0.4-1.3-0.8c-0.2-0.3-0.3-0.6-0.5-1c-0.5-1-1.3-1.5-2.4-1.3
			c-1,0.2-2.5,0.1-2.7-0.7c-0.1-0.9,1.2-1.5,2.2-1.8c0.8-0.2,1.4-0.6,1.6-1.4c0.1-0.3,0-0.5-0.3-0.6c-0.8-0.3-1.5-0.2-2.1,0.3
			c-0.7,0.6-1.4,1.2-2.2,1.7c-0.8,0.5-1.1,0.3-1.2-0.6c0-0.4,0-0.7,0-1.1c-0.1-1,0-1.7,1.3-1.2c0.4,0.2,0.9,0.1,0.9-0.6
			c0-1.6,0-3.1,0.1-4.7C316.9,38.3,316.3,37.3,315.5,36.1z M323.8,151.3c1.5-0.4,3.1-0.7,4.6-1.1c0.2,0,0.4,0,0.5,0.2
			c0.1,0.2,0.1,0.4-0.1,0.5c-1.5,0.8-3,1.5-4.4,2.2c-0.7-0.1-1.3-0.1-1.4-0.7C322.9,152,323.2,151.5,323.8,151.3z M295.3,14.7
			c1.4,0.1,2.7,0.2,4,0.4c0.6,0.1,0.9,0,0.9-0.8c0-0.5-0.2-1.3,0.5-1.6c0.9-0.4,1.7,0.2,1.7,1.2c0,0.9-0.1,1.8-0.3,2.7
			c-0.1,0.8-0.6,1.4-1.5,1.4c-0.4,0-0.9,0-1.3,0c-1.4,0-2.8-0.3-4.1-0.6c-0.1,0-0.2-0.1-0.3-0.1c-0.9-0.2-1.4-1-1.4-1.6
			C293.6,14.9,294.5,14.6,295.3,14.7z M288.2,16.5c1.3,0.2,2.6,0.6,3.9,1c0.5,0.2,0.9,0.4,1.2,0.8c0.3,0.4,0.7,0.8,0.5,1.3
			c-0.2,0.5-0.7,0.4-1.2,0.4c-0.5,0-1,0-1.1,0.6c-0.1,0.6,0.1,1.2,0.7,1.5c0.7,0.4,1.5,0.2,2.2,0.2c1.7-0.1,3.4-0.5,5.4,0
			c-2.2,2.8-4.2,5.5-6.3,8.2c-0.3,0.4-0.5,0.8-1.1,1.1c-0.8-1.7-1.6-3.3-2.3-5c-1.1-2.3-2.1-4.5-3.2-6.8c-0.3-0.6-0.5-1.2-0.5-1.8
			C286.5,16.8,287,16.4,288.2,16.5z M288.3,52.2c0.7,1.4,1.2,3,1.7,4.5c0.2,0.5,0.3,1.2,0.8,1.6c0.6-0.5,0.3-1,0.1-1.4
			c-0.9-2.4-1.8-4.7-2.7-7c-0.5-1.2-0.4-2.1,0.6-2.9c1.2-1,1.9-2.4,2.4-3.9c1.4-4,2.9-7.9,4.3-11.9c0.5-1.5,1.7-2.2,2.8-3
			c0.2-0.1,0.4-0.2,0.6,0c0.2,0.3,0.1,0.5-0.1,0.6c-1.8,1.5-1.3,2.9-0.5,4.9c1.1,2.6,0.8,5.5-1.5,7.8c-2.3,2.3-3.1,5.1-3.5,8.2
			c-0.8,6.1,0.7,11.8,3.3,17.3c0.2,0.4,0.4,0.7,0.5,1.1c0.7,1.9,1.9,3.3,3.6,4.6c2.2,1.6,4.1,3.6,6.1,5.4c0.4,0.4,0.6,0.9,0.7,1.8
			c-1.1-1-2-1.8-3-2.6c-2-1.6-3.7-1.3-5.2,0.7c-0.1,0.1-0.1,0.2-0.2,0.3c-0.5,0.8-1.2,1.5-2.1,1.1c-0.9-0.4-1.3-1.4-1.1-2.4
			c0.2-1.1,0-1.4-1.1-1.1c-2.9,0.6-5.8,1.1-8.7,1.6c-2.4,0.4-2.9,0-3.1-2.4c-0.2-4.3,1.1-7.8,4.6-10.5c0.8-0.6,1.5-1.3,2.3-1.9
			c0.2,0.4,0.2,0.9-0.1,1.5c-0.3,0.6-0.5,1.2-0.9,1.7c-1.9,2.3-1.7,4.7-0.8,7.2c0.5,1.5,1.5,2.1,3.1,1.8c1.5-0.4,3.1-0.4,4.6-0.5
			c1.8-0.1,2.1-0.7,1.2-2.3c-1-1.6-1.9-3.2-3-5c-0.3,0.9,0.1,1.9-1.3,1.9c-2.5,0-2.8-0.2-2-2.6c0.3-1,0.6-2.1,0.9-3.1
			c0.3-1.2,0-1.7-1.2-2c-0.1,0-0.2,0-0.2,0c-2.8-0.6-3.2-1.1-3.2-4c0-2.6-1-4.5-3.4-5.6C285.4,49.8,287.2,50.1,288.3,52.2z
			 M270.2,41.7c0.7-0.2,1.3-0.4,2-0.5c1.5-0.3,2,0,2.4,1.4c0.3,1,0.7,1.1,1.6,0.5c1.3-0.8,2.7-1.5,4-2.4c1-0.6,1.1-1.5,0.4-2.4
			c-0.4-0.6-1-0.9-1.7-0.4c-2.1,1.7-4.5,1.3-7,0.9c0.8-0.9,1.5-1.7,2.4-2.3c0.5-0.4,0.9-0.7,1.3-1.2c1.1-1.2,1.3-1.2,2.6-0.3
			c0.2,0.1,0.5,0.3,0.8,0.5c0.1-0.9-0.1-1.8,0.1-2.6c0.3-0.8,0.7-0.8,1.3-0.5c0.5,0.2,0.8,0.6,0.9,1c1.2,2.9,2.3,5.9,3.4,8.8
			c0.7,2-0.2,3.9-2,4.9c-0.5,0.3-1,0.5-1.5,0.7c-1.6,0.9-1.7,1.2-0.8,2.8c0.3,0.6,1.2,1,0.5,1.9c-0.7,0.9-1.3,1.8-2.6,1.6
			c-0.3,0-0.7-0.1-0.9,0c-0.6,0.3-1.5,0.6-1.3,1.3c0.2,0.8,0.9,0.1,1.4,0.1c1-0.1,2-0.4,2.9-0.5c1.8-0.1,2.8,1.2,2.4,3
			c-0.2,0.8-0.7,1.5-1.3,2.1c-1.4,1.7-2.8,3.3-4.1,5c-0.2,0.2-0.4,0.5-0.5,0.8c-0.8,1.5-0.6,1.9,1.1,1.8c1.1,0,1.7,0.5,2.2,1.5
			c1.1,2.3,0.4,4.1-1.3,5.7c-0.7,0.7-1.1,1.4-0.3,2.4c0.4,0.4,0.6,0.6,1,0.1c0.3-0.4,0.6-0.7,1.1-1c0.6-0.3,1.2-0.4,1.7,0.3
			c0.5,0.8,0,1.2-0.6,1.6c-0.5,0.3-1,0.5-1.5,0.7c-0.9,0.2-0.9,0.6-0.5,1.3c2,3.3,3.9,6.7,5.8,10.1c0.1,0.2,0.2,0.4,0.4,0.6
			c0.2,0.3,0.2,0.5-0.1,0.7c-0.3,0.2-0.5,0-0.7-0.2c-0.6-1.1-1.3-2.1-1.9-3.2c-0.8-1.4-2.1-2.4-2.8-2c-0.7,0.4-0.7,1.9-0.2,3.4
			c0.2,0.5,0.4,1,0.7,1.5c0.1,0.2,0.1,0.4-0.1,0.6c-0.3,0.2-0.4,0.1-0.6-0.1c-1.3-1-2.4-2.2-3.5-3.4c-0.5-0.6-0.4-1.2,0.2-1.7
			c0.5-0.5,1.2-0.6,1.7-1c1-0.7,1-1.7-0.1-2c-2.1-0.7-3-2.2-3.3-4.3c-0.3-1.9-0.7-3.7-0.5-5.6c0.3-2.4,0.3-2.4,2.6-1.7c0,0,0,0,0,0
			c0.1,0,0.2,0,0.3,0c0-0.1-0.1-0.1-0.1-0.2c-0.4-0.6-1-1-1.6-1.2c-1.3-0.5-2-1.4-2.3-2.7c-1.9-7.8-3.7-15.5-5.6-23.3
			C267.9,42.9,268.3,42.2,270.2,41.7z M259.1,64.2c0.6-0.2,1,0.1,1.4,0.5c0.4,0.3,0.5,1.2,1,0.8c0.4-0.3-0.3-0.9-0.5-1.3
			c-0.1-0.2-0.2-0.4-0.3-0.6c-1.9-2.3-1.7-4.8-0.7-7.3c0.9-2.5,2.2-4.9,3.8-7c0.6-0.7,0.9-0.7,1.2,0.1c0.1,0.3,0.2,0.6,0.2,0.9
			c-0.2,2.9,0.6,5.7,1.5,8.4c1.3,3.8,2.5,7.6,3.8,11.3c0.7,2,0.6,3.8-1,5.4c-1.6,1.6-2.9,3.5-4.2,5.3c-0.4,0.6-0.7,1.2-1.1,1.9
			c-0.1,0.2-0.5,0.6,0,0.8c0.4,0.2,0.5-0.3,0.7-0.5c0.6-0.8,0.9-2.1,2.1-2c1.3,0,1.5,1.3,1.9,2.2c1.1,2.2,2.2,4.5,3.3,6.8
			c0.6,1.2,0.5,2.5,0.3,3.8c-0.1,0.4-0.4,0.6-0.7,0.7c-1,0.5-2,0.5-3,0c-1.1-0.6-2.1-0.4-3.1,0.5c-0.7,0.6-1.4,1.2-2.6,1.5
			c1.5-2.7,0.9-5.4,0.9-8c0-0.5-0.1-1-0.1-1.6c0.1-0.9-0.1-1.5-1.1-1.6c-0.7-0.1-0.9-0.6-1.1-1.1c-1.1-3.3-1.7-6.6,0.3-9.8
			c0-0.1,0.1-0.2,0.1-0.2c0-0.1-0.1-0.1-0.1-0.2c-0.3-0.1-0.4,0.2-0.6,0.3c-1,0.6-2,0.2-2.2-0.9c-0.5-2.6-0.5-5.2-0.7-7.9
			C258.6,64.8,258.6,64.4,259.1,64.2z M267.9,161.8c-0.8-1.5-0.8-3-0.4-4.6c0.2-0.8,0.5-1.7,0.7-2.5c0.1-0.6-0.1-1.1-0.6-1.3
			c-0.4-0.2-0.7,0.3-0.9,0.6c-0.3,0.3-0.5,0.6-0.8,0.9c-0.9,1.1-1,1.1-1.8-0.1c-0.3-0.5-0.5-1-0.7-1.5c-1.5-5.2-3-10.4-4.5-15.6
			c-0.1-0.4-0.6-0.9,0-1.3c0.5-0.4,1.2-0.3,1.7,0c0.7,0.4,1.2,1,1.7,1.6c0.6,0.8,1.2,1.6,1.8,2.4c1.1-1.3,0.8-3-0.7-4.1
			c-0.7-0.5-1.4-0.7-2.2-1c-1-0.4-2-0.7-2.8-1.3c-0.8-0.5-1.3-1.3-1.1-2.2c0.2-0.9,0-1.6-0.3-2.4c-1.5-3.7-2.9-7.4-4.3-11
			c-0.4-1-0.6-2.1-0.6-3.2c0-2.7,0.1-5.4-0.1-8c-0.1-1-0.5-1.6-1.6-1.6c-1,0-1-0.6-0.6-1.3c1-1.9,0.7-3.9,0.4-5.9
			c-0.1-0.4-0.4-0.8-0.8-1c-0.2-0.2-0.5-0.2-0.7-0.4c-0.9-0.7-2.7-0.5-2.7-2.1c-0.1-1.4,2.2-4,3.7-4.4c0.9-0.3,1.9-0.3,2.9-0.1
			c1.3,0.2,2,0,3.1-0.8c-0.8-0.6-2.1-0.4-2.5-1.4c-0.4-0.9,0.2-1.9,0.1-2.9c-1,0.3-1.8,0.9-2.5,1.7c-0.3,0.4-0.6,0.8-1,1.2
			c-1.6,1.5-2.7,1.4-4-0.4c-0.2-0.3-0.4-0.6-0.7-0.9c-1.4-1.5-2.3-2.9-0.6-4.9c0.8-0.9,0.6-2.3,0.2-3.5c-0.7-2.4-1.4-4.8-2-7.1
			c-0.4-1.4,0.3-2.3,1.7-1.8c3.3,1.2,6.5,2.6,8,6.3c0.8,2,1.3,4,2.1,6c0.6,1.6,1.2,3.3,1.9,4.9c0.9,2.2,0.4,4.2-0.7,6.2
			c-0.4,0.7-1,1-1.9,1c-0.7,0-1.8-0.3-2.1,0.5c-0.4,0.9,0.5,1.7,1,2.4c0.3,0.5,0.6,0.1,0.9-0.1c0.9-0.8,1.9-1.6,2.8-2.4
			c0.5-0.4,1-0.8,1.7-0.6c0.7,0.3,0.9,1,1,1.7c0.1,0.8-0.1,1.5-0.3,2.2c-1,3.6-1.9,7.2-3,10.7c-0.5,1.7-0.3,3.2,0.7,4.7
			c1.9,2.8,3.6,5.7,5.5,8.4c2.2,3.1,3,6.7,3.5,10.3c0.1,0.7,0.2,1.4,0.3,2c0.4,2,1.3,2.9,3.4,3.2c0.6,0.1,1.1,0.3,1.1,0.9
			c0,0.6-0.5,0.6-0.9,0.7c-1.9,0.7-2,0.7-1.6,2.7c0.8,4.3,1.5,8.6,1.9,12.9c0.1,1,0.5,1.7,1.6,2c2.1,0.6,2.4,2.3,0.9,3.7
			c-0.8,0.8-1.7,1.5-2.6,2.3C268.6,162.6,268.2,162.5,267.9,161.8z M273.8,173.7c-0.9,0.1-1.8-0.2-2.3-1c-0.8-1.4-1.6-2.8-2.3-4.2
			c-0.7-1.4-0.3-2.3,1.2-2.7c1.5-0.5,3.1-0.2,4.6-0.6c0.5-0.2,0.8,0.5,0.9,0.9c0.2,1.1,0.3,2.3,0.4,3.4c0,0.9-0.2,1.8-0.5,2.7
			C275.4,173.2,274.8,173.7,273.8,173.7z M279.9,188c-0.8,0.4-1.8,0-2.7-0.3c-0.6-0.2-0.2-0.7-0.1-1c0.5-1.1,0.4-1.9-0.6-2.7
			c-0.9-0.7-0.7-1.3,0.3-1.9c0.2-0.1,0.5-0.3,0.7-0.4c1.5-0.6,2.1-1.8,2.1-3.4c0-4.8,0-9.6,0-14.4c0-0.4-0.1-0.8,0.1-1.3
			c0.5,0.2,0.4,0.6,0.4,1c-0.1,7.4,0.3,14.9,0.5,22.3C280.7,186.7,280.7,187.7,279.9,188z M312.5,213.3c-0.9,4-1.6,8.1-3.1,12
			c-0.1,0.3-0.1,0.8-0.5,0.8c-0.4,0-0.6-0.4-0.8-0.7c-1-1.4-1.2-2.9-1-4.6c0.3-1.7,0.2-3.4-0.4-5.1c-0.6-1.6-0.6-1.6-2.2-0.6
			c-0.2-2.8-0.4-5.3,0.2-7.9c0.2-1,1.2-1.4,2-0.8c2,1.6,3.9,3.3,5.6,5.2C312.7,212.2,312.6,212.8,312.5,213.3z M313.4,194.7
			c-0.5,1.5-0.9,3.1-1.5,4.5c-0.8,1.9-2.6,3-4.6,2.5c-2.7-0.7-5.4-1.5-8-2.4c-1.1-0.3-1.4-1-0.9-2c0.1-0.1,0.1-0.3,0.2-0.4
			c0.2-0.6,0.7-1.3,0.1-1.8c-0.6-0.5-1.4-0.6-2.1-0.1c-0.7,0.5-1,1.1-0.7,2c1,3,1.6,6,2.3,9c2.9,11.8,6.2,23.4,9.3,35.1
			c0.2,0.8,0.4,1.7,0.6,2.6c0.1,0.4,0.2,0.8-0.3,1c-0.5,0.2-0.6-0.3-0.8-0.6c-1.6-2.7-2.6-5.5-3.7-8.4c-4.5-12.6-7.9-25.6-10.8-38.7
			c-1.7-7.8-4.6-15.3-7.1-22.8c-0.7-2-1.4-4.1-2-6.1c-0.1-0.2-0.2-0.4-0.2-0.6c0-0.6-0.5-1.5,0.2-1.8c0.6-0.3,0.8,0.7,1.2,1.1
			c0.2,0.2,0.4,0.5,0.6,0.8c0.5-0.3,0.8-0.7,0.8-1.3c-0.3-2.9-1.1-5.8-2.1-8.6c-1.1,1.1-1.4,2.2-1.1,3.6c0.2,0.9,0.3,1.7-0.2,2.7
			c-3-3.3-2.2-7.1-1.9-10.8c0.1,0.5,0.2,1.1,0.3,1.6c0.1,0.3,0.1,0.6,0.5,0.6c0.3,0,0.4-0.2,0.5-0.5c0.3-1,0.5-1.9,0.5-2.9
			c0-1.6-0.1-3.2,0-4.8c0.1-0.8,0.1-2.1,1-2.3c0.8-0.2,1.2,1,1.6,1.7c1.1,1.9,1.2,4.1,1.6,6.2c2.4,11.7,4.7,23.4,7,35.1
			c0.2,1.1,0.6,1.6,1.7,1.1c1-0.5,1.8-0.1,2.6,0.6c2,1.5,3,3.4,2.8,5.9c-0.1,1.2,0,1.2,1.1,0.6c0.3-0.2,0.6-0.3,0.8-0.5
			c3.1-2.3,6.6-2.3,10.2-1.5C313.6,193.9,313.6,194.2,313.4,194.7z M317.5,181.1c-0.5,0.3-1.1,0.6-1.5,1c-0.9,0.8-1.6,0.5-2.3-0.3
			c-1.4-1.4-1.6-1.4-2.3,0.5c-0.3,0.8-0.6,1.4-1.6,1.2c-0.9-0.2-1.6-0.6-1.7-1.8c0.5-1.4,0.9-2.9,1.5-4.3c0.4-0.9,1.4-1.2,2.3-0.8
			c2,0.8,4,1.7,5.8,2.8C318.8,180.1,318.7,180.3,317.5,181.1z M318.1,175.1c0-1,0.6-1.6,1.4-2.1c1.3-0.9,2.6-1.8,3.9-2.6
			c0.3-0.2,0.6-0.4,0.5-0.8c-0.1-0.4-0.5-0.4-0.8-0.4c-1-0.1-1.9-0.2-2.9-0.3c-0.3,0-0.7-0.1-0.7-0.5c-0.1-0.4,0.3-0.5,0.5-0.6
			c2.8-1.6,5.7-3.3,8.5-4.9c0.2-0.1,0.4-0.3,0.6-0.1c0.3,0.2,0.1,0.5,0,0.8c-0.3,0.6-0.6,1.1-0.9,1.7c-1.8,2.9-3.7,5.8-5.5,8.7
			c-0.8,1.4-2.1,2.1-3.4,2.7C318.6,176.9,318.1,176.2,318.1,175.1z M320,219.8c0.6,0.1,0.6,1.1,1.4,0.7c1.1-0.5,2.6-0.6,3.2-1.9
			c0.3-0.7-0.6-0.7-1-0.8c-2.4-0.1-2.4-0.1-3-2.4c-0.2-0.6-0.3-1.2-0.5-1.8c-0.5-1.4-0.5-2.7,1-3.6c0.7-0.4,0.9-1.4,1.7-1.7
			c0.6-0.2,0.8-0.1,0.9,0.5c0.3,1.2-0.3,2-0.9,2.8c-0.2,0.3-0.7,0.6-0.4,1c0.2,0.4,0.6,0.2,1,0.2c0.9,0.1,1.7,0.4,1.9,1.2
			c0.8,2.9,2.4,5.6,3.2,8.5c0.2,0.8,0.1,1.1-0.8,1c-1.2,0-2.3,0.4-3.4,0.6C321.9,224.7,318.8,222.7,320,219.8z M329.4,230.3
			c-1.1,0.3-2,0.9-2.6,2c-0.2,0.4-0.4,0.9-0.8,1.2c-1.1,1-2.4,0.7-2.9-0.7c-0.1-0.3-0.2-0.5-0.3-0.8c-0.3-0.7-0.2-1,0.5-1.4
			c1.7-0.8,1.7-1.1,0.8-2.8c-0.6-1.1-0.4-1.5,0.8-1.7c0.5-0.1,1-0.1,1.5-0.1c0.9,0.3,1.6,0,2.3-0.3c0.8-0.4,1.4-0.1,1.7,0.7
			c0.2,0.4,0.4,0.9,0.5,1.4C331.5,229.8,331.4,229.8,329.4,230.3z M341.8,164.3c-2.2,1.5-4.4,3.1-6.7,4.6c-1.3,0.9-3.3,0.7-4.5-0.3
			c-0.5-0.4-0.7-0.9-0.6-1.5c0.3-3,1.3-5.7,3.4-7.8c1.1-1.1,2.6-1.2,3.8-0.3c1.7,1.4,3.2,3,4.7,4.6
			C342.3,163.9,342.1,164.1,341.8,164.3z M342.2,143.8c-2.6,1.6-5.2,3.2-7.8,4.8c-0.2,0.1-0.3,0.2-0.7,0c1.1-2.3,2.2-4.6,3.2-6.9
			c0.2-0.4,0.4-0.7,1-0.6c1.3,0.3,2.6,0.5,3.9,0.8c0.5,0.1,0.9,0.4,1,0.9C342.9,143.2,342.6,143.5,342.2,143.8z M358,170.5
			c-0.3,0.6-0.6,1.2-1.1,1.7c-2.4,2.2-4.9,4.4-7.3,6.6c-0.2,0.2-0.4,0.3-0.5,0.3c-1-0.1-1.9-1.6-1.4-2.4c0.2-0.3,0.5-0.6,0.8-0.9
			c2.1-1.7,4.3-3.5,6.4-5.2c0.6-0.5,1.3-0.9,2.1-1.2c0.3-0.1,0.6-0.4,1,0C358.4,169.8,358.1,170.1,358,170.5z M360.6,136.7
			c-3,2.2-6,4.4-8.9,6.6c-0.4,0.3-0.8,0.5-1.4,0.5c-0.3-0.1-0.9,0.1-1.1-0.4c-0.2-0.5,0.3-0.6,0.6-0.9c2.2-2,4.4-4,6.6-5.9
			c1.3-1.1,2.8-1,4.3-1.1c0.2,0,0.4,0.1,0.4,0.3C361.3,136.3,360.8,136.5,360.6,136.7z M373.7,101.6c-0.6,0.9-1.5,0.6-2.2,0
			c-0.7-0.5-1.3-1.2-2.1-2c-0.4,1.3-0.4,2.6-1.3,3.6c-0.9,1-1.1,1-1.6-0.3c-0.5-1.1-0.5-2.3-0.4-3.5c0-0.6,0.4-0.8,0.9-1
			c1.3-0.7,2.7-1.1,4.2-1.3c1-0.2,1.9,0.2,2.3,1.1C374,99.3,374.4,100.5,373.7,101.6z M379.9,70.8c0-0.1,0-0.1-0.1-0.4
			c1.5-0.2,3-0.5,4.5-0.7c0.5-0.1,0.7,0.2,0.8,0.6c1.1,3,4,4.8,7.2,4.6c2.3-0.2,3.9,1.6,3.5,3.8c-0.1,0.5-0.4,0.3-0.7,0.2
			c-0.7-0.3-1.4-0.6-2.4-1.1c0.4,1.4,0.8,2.6,1.1,3.8c0.2,0.8,0.6,1.7,0.7,2.5c0.1,0.7,0.7,1.6-0.2,2.1c-1,0.5-2.5-0.1-3.1-1
			c-0.4-0.6-0.5-1.3-0.4-2c0.2-2.1-0.7-3.6-2.4-4.8c-1.6-1.1-3.1-2.3-4.7-3.4c-0.2,0.4,0,0.7,0.2,0.9c2.1,2,3.1,4.6,3.8,7.3
			c0.2,0.9,0.4,1.8,0.7,2.7c0.2,0.9,0,1.6-1,1.9c-1,0.3-1.7,0-2.1-0.9c-0.4-1.1-0.8-2.3-1.1-3.4c-0.3-1.6-1.3-2.6-2.7-3.3
			c-0.6-0.3-0.8-0.2-0.9,0.3c-0.1,0.4-0.3,0.8-0.4,1.1c-0.3,0.9-0.5,2-2.1,0.9c0,0.1,0,0.3,0,0.4c0.9,1.2,1.7,2.4,2.6,3.6
			c0.8,1.2,1,2.4,0.5,3.7c-0.2,0.6-0.5,0.7-1.1,0.5c-1.7-0.6-6.1-5.6-6.3-7.4c-0.1-1,0-1.9,0.3-2.8c0.5-1.3,1-2.6,1.3-4
			c0.5-1.8,1.7-2.8,3.4-3.4C381.1,72.7,381.1,72.6,379.9,70.8z M379.8,121.2c-0.5,0-1,0-1.4,0c0,0,0,0,0,0c-1-0.1-2.1-0.1-3.1-0.2
			c-0.3,0-0.8,0.1-0.9-0.3c-0.1-0.3,0.3-0.7,0.6-0.9c1.7-1.2,2.6-2.9,3.3-4.7c0.6-1.6,1.2-3.1,2.2-4.5c0.2-0.3,0.3-0.7,0.8-0.6
			c0.5,0,0.7,0.4,0.8,0.8c0.6,1.6,1.4,3.1,1.7,4.8c0.1,0.8,0.1,1.7-0.1,2.5C383.1,120.5,382.3,121.2,379.8,121.2z M399.9,150.2
			c-2.7,0.2-5.5,0.6-8.2,0.9c-0.4,0-0.7,0.1-0.9-0.4c-0.1-0.3,0.1-0.5,0.3-0.7c0.4-0.3,1.2-0.3,1.1-0.9c-0.1-0.6-0.7-1.2-1.3-1.5
			c-0.9-0.6-3.4,0.1-3.9,1.1c-0.1,0.3,0.1,0.4,0.2,0.6c0.3,0.6,1.5,0.7,1,1.6c-0.4,0.9-2,1.3-3,1c-1.6-0.4-2.4-2.4-1.6-3.9
			c0.8-1.5,1.7-3.1,3.7-3c1.1,0.1,1.8-0.4,2.7-1.1c-0.5-0.2-0.8-0.4-1-0.4c-1.8,0-1.6-1.1-1.6-2.4c0.1-3.3,0.6-6.6,0.5-9.9
			c-0.1-3.2-1-6.2-1.8-9.3c-0.5-1.8-0.6-3.5-0.7-5.3c0-0.8,0.3-1.7,1-1.8c0.7-0.1,1.4,0.6,1.6,1.4c0.4,1.3,0.7,2.7,1,4.1
			c0.2,0.8,0.4,0.8,1,0.3c1.1-0.9,1.1-0.9,1.8,0.4c0.7,1.5,0.9,3.2,1,4.8c0.1,0.9-0.8,1.8-1.3,2.5c-1,1.3-0.9,2.4,0,3.8
			c2.3,3.9,5.1,7.6,7.3,11.5c1,1.7,2,3.3,2.2,5.3C401,149.7,400.9,150.2,399.9,150.2z M409.2,121.8c-0.4,0.4-0.6,0.3-0.8-0.1
			c-0.3-0.4-0.5-0.8-0.9-1.1c-0.7-0.7-1.8-0.6-2.2,0.1c-1.2,2.5-2.7,4.9-3.1,7.7c-0.3,1.9,0.1,3.6,1.1,5.3c0.4,0.7,1.2,1.7,0.5,2.1
			c-0.8,0.6-1.3-0.6-1.8-1.2c-3.2-3.8-6.4-7.6-8.8-12.1c-1.9-3.7-1.7-7,0.9-10.1c1.5-1.8,1.9-3.6,1.5-6c-0.9-5,0-10,1.1-14.9
			c0.4-1.6,0.8-3.2,1.3-4.9c0.1-0.3,0.1-0.7,0.5-0.7c0.4,0,0.5,0.3,0.6,0.6c0.6,1.8,1.1,3.7,1.7,5.5c0.3,1,0.2,1.6-0.7,2.2
			c-0.5,0.3-1.3,0.6-1.2,1.3c0.1,0.8,0.9,1,1.7,1c0.4,0,0.8,0.2,1.1,0.5c2.7,2.5,5,5.1,4.9,9.1c-0.1,1.6-0.1,3.3-0.2,4.9
			c0,0.8-0.5,1.4-1.1,1.9c-1.2,1-2.1,0.7-2.5-0.8c-0.2-0.8-0.4-1.6-0.6-2.6c-1.3,1-1.8,2.2-2.1,3.6c-0.2,0.9-0.4,1.8-0.5,2.7
			c-0.1,0.9-0.5,1.2-1.4,1.2c-2.4,0-2.4,0.1-1.5,2.1c0.7,1.5,1.1,1.7,2.5,0.7c2.7-2,5.4-4,8.1-6c1.3-1,1.8-0.9,2.4,0.6
			c0.2,0.5,0.4,0.9,0.6,1.4C411.6,118.8,411.4,119.7,409.2,121.8z M410.6,100.9c-1.8,1.2-3.9,0.6-4.9-1.5c-0.9-2-1.7-4-2.5-6.1
			c-1.8-4.3-3.5-8.6-5.2-12.9c-0.6-1.5-0.9-3.1-0.7-4.7c0.1-1.2,0.6-1.5,1.8-1.3c0.6,0.1,1.2,0.3,1.9,0.4c0.5,0.1,0.9,0.2,1.4,0
			c0.5-0.2,1.1-0.6,1-1.2c0-0.5-0.7-0.5-1.2-0.6c-1.1-0.2-2.1-0.1-3.2,0.1c-1.7,0.3-2.6-0.1-3.3-1.7c-0.3-0.6-0.5-1.3-0.8-1.9
			c-0.2-0.5-0.5-1.2-1.1-1c-0.6,0.2-0.8,0.9-0.6,1.6c0.2,0.6,0.2,1.2,0.4,1.7c0.3,0.7,0,1-0.6,1.1c-1,0.2-2.1,0.2-3.1-0.1
			c-1.4-0.5-1.7-1.3-0.9-2.6c1-1.7,1-1.7-0.9-2.2c-3.7-1-7.2-1-10.5,1.5c-1.2,1-2.9,0.5-4.3,0.6c-2,0.2-4,0.1-6,0.1
			c-2.1,0-2.9,1-2.7,3c0.1,0.9,0.1,1.7,0.2,2.8c0.9-0.8,1.4-1.6,1.9-2.3c0.7-0.9,1.4-1.9,2.6-2.3c0.6-0.2,1.1-0.3,0.9,0.7
			c-0.1,0.3-0.3,0.8,0,1c0.4,0.3,0.7-0.2,1.1-0.3c0.9-0.3,1.8-0.7,2.7-1c0.6-0.2,1.3-0.1,1.8,0.4c0.5,0.5,0.2,1.1-0.1,1.7
			c-1.1,2.3-1.9,4.6-2.5,7.1c-0.4,1.5-0.9,1.8-2.4,1.8c-0.7,0-1.1-0.1-1.5-0.8c-0.2-0.4-0.4-0.9-1-1.3c-0.3,1.6-0.6,3.2-1,5
			c1.4-0.7,2.6-1.3,3.8-1.9c1.7-0.8,2.5-0.4,2.6,1.5c0.1,2.2,0.2,4.3,0.2,6.5c0,1-0.3,1.9-0.8,2.7c-0.8,1-1.9,1.1-2.6,0
			c-1.6-2.6-3.8-4.6-6.2-6.5c-1.1-0.9-1.4-2.1-1.4-3.4c0-1.3,0.2-2.6,0.3-3.8c0.2-1.5,0-2.9-0.6-4.2c-1.4-2.8-2.8-5.7-4.2-8.5
			c-0.3-0.5-0.5-1.1-1.2-1.2c-1.1-0.2-1.4-1-1.5-1.9c-0.2-4-1.2-7.8-1.4-11.8c-0.1-1-0.4-2-1.2-2.7c-1.6-1.3-2.1-3-2.4-4.8
			c-0.4-2.6-0.6-5.2-0.9-7.7c-0.1-0.6,0.1-1.1,0.6-1.5c1.1-0.8,2.4-1.1,3.6-1.5c0.1,0,0.2,0,0.2,0c1.2,0.8,1.4,2.2,1.9,3.4
			c0.3,0.8-0.3,1.2-0.8,1.6c-2,1.4-1.9,1.4-1.1,3.6c0.4,1.2,1,2.2,2.1,3c1.4,1.1,2.1,2.6,2.2,4.5c0.1,3.4,1,6.8,1.3,10.2
			c0.1,0.5,0.3,0.6,0.8,0.5c3.7-1,7.4-0.6,11.1-0.1c0.6,0.1,0.7,0.4,0.7,0.9c0.1,2.3,0.9,3.1,3.3,3.2c1.3,0.1,2.6,0,4,0.1
			c1.1,0.1,1.8-0.4,2.3-1.4c1.2-2.3,1.8-2.5,4.1-1.1c0.5,0.3,0.9,0.7,1.5,0.8c0-0.8-0.6-1.3-0.8-2c1.2,0.1,2,0.4,2.3,1.7
			c0.3,1.4,0.7,2.9,2.3,3.6c0.7-0.7,1.1-1.5,1.3-2.5c0.1-0.3-0.2-0.8,0.4-0.8c0.4,0,0.8,0.2,1,0.6c0.1,0.1,0.1,0.3,0.2,0.5
			c1,2.6,1.9,3.2,4.7,2.9c1.4-0.2,2.5,0.3,3.4,1.4c1.3,1.5,1.6,1.5,3.4,0.6c0.5-0.2,3,0.6,3.2,1.1c0.1,0.4-0.2,0.7-0.4,0.9
			c-1.1,1.2-2.2,2.3-3.3,3.5c-0.3,0.3-0.8,0.5-0.6,0.9c0.1,0.3,0.7,0.3,1,0.4c0.7,0.2,1.3,0.3,2,0.4c1.2,0.2,1.8,0.8,1.9,2
			c0.2,3.2,0.3,6.3,0.4,9.5c0,0.8-0.3,1.4-1.2,1.4c-0.3,0-0.5,0.1-0.8,0.3c-1.1,0.6-1.1,0.9-0.1,1.5c0.8,0.6,1.7,1.1,2.5,1.6
			c0.5,0.3,0.7,0.5,0.1,0.9c-0.6,0.3-1.1,0.8-0.9,1.6c0.2,0.8,0.4,1.5,1.4,1.6c0.6,0.1,0.9,0.6,1,1.2
			C411.4,99.9,411.2,100.5,410.6,100.9z"/>
		<path class="st1" d="M282.3,102.8c-2.5,1.3-4.8,3-7.2,4.5c-1.5,1-3.1,2-4.5,3.2c-0.5,0.4-0.8,0.9-0.8,1.6c0,0.6,0.1,1,0.7,0.8
			c0.8,0.1,1.3-0.3,1.9-0.7c1.7-1.2,3.4-2.4,5.2-3.4c2-1.2,4-2.4,5.9-3.6c0.7-0.5,1.4-1.2,0.9-2.1
			C284.1,102.3,283.2,102.3,282.3,102.8z"/>
		<path class="st1" d="M263,68.5c0.5-0.2,1-0.5,1.5-0.8c0.3-0.1,0.6-0.5,0.8-0.3c0.3,0.2,0.3,0.7,0.3,1.1c0,0.3-0.2,0.6-0.4,0.8
			c-0.6,0.9-1.3,1.8-1.9,2.7c0,0,0,0,0,0c-0.1,0.1-0.2,0.2-0.1,0.4c0,0,0.2-0.1,0.3-0.1c0.2-0.2,0.5-0.4,0.7-0.6
			c1.2-1.1,2.4-2,2.9-3.7c0.2-0.9,0-1.4-0.8-1.7c-1.3-0.6-3.4,0.2-4,1.4c-0.1,0.2-0.1,0.5,0,0.7C262.4,68.6,262.7,68.6,263,68.5z"/>
		<path class="st1" d="M262.7,73.2L262.7,73.2c0.1-0.1,0.3-0.2,0.1-0.3c0,0-0.2,0.1-0.3,0.1c-0.2,0.2-0.6,0.4-0.3,0.6
			C262.5,73.8,262.6,73.4,262.7,73.2z"/>
		<path class="st1" d="M296.6,180C296.6,179.9,296.5,180,296.6,180c0,0.1,0,0.1,0,0.2C296.6,180.1,296.7,180.1,296.6,180
			C296.7,180,296.6,180,296.6,180z"/>
	</g>
	<g>
		<path class="st0" d="M596.2,73.1c0.9-0.8,1.4-1.6,1.9-2.3c0.7-0.9,1.4-1.9,2.6-2.3c0.6-0.2,1.1-0.3,0.9,0.7c-0.1,0.3-0.3,0.8,0,1
			c0.4,0.3,0.7-0.2,1.1-0.3c0.9-0.3,1.8-0.7,2.7-1c0.6-0.2,1.3-0.1,1.8,0.4c0.5,0.5,0.2,1.1-0.1,1.7c-1.1,2.3-1.9,4.6-2.5,7.1
			c-0.4,1.5-0.9,1.8-2.4,1.8c-0.7,0-1.1-0.1-1.5-0.8c-0.2-0.4-0.4-0.9-1-1.3c-0.3,1.6-0.6,3.2-1,5c1.4-0.7,2.6-1.3,3.8-1.9
			c1.7-0.8,2.5-0.4,2.6,1.5c0.1,2.2,0.2,4.3,0.2,6.5c0,1-0.3,1.9-0.8,2.7c-0.8,1-1.9,1.1-2.6,0c-1.6-2.6-3.8-4.6-6.2-6.5
			c-1.1-0.9-1.4-2.1-1.4-3.4c0-1.3,0.2-2.6,0.3-3.8c0.2-1.5,0-2.9-0.6-4.2c-1.4-2.8-2.8-5.7-4.2-8.5c-0.3-0.5-0.5-1.1-1.2-1.2
			c-1.1-0.2-1.4-1-1.5-1.9c-0.2-4-1.2-7.8-1.4-11.8c-0.1-1-0.4-2-1.2-2.7c-1.6-1.3-2.1-3-2.4-4.8c-0.4-2.6-0.6-5.2-0.9-7.7
			c-0.1-0.6,0.1-1.1,0.6-1.5c1.1-0.8,2.4-1.1,3.6-1.5c0.1,0,0.2,0,0.2,0c1.2,0.8,1.4,2.2,1.9,3.4c0.3,0.8-0.3,1.2-0.8,1.6
			c-2,1.4-1.9,1.4-1.1,3.6c0.4,1.2,1,2.2,2.1,3c1.4,1.1,2.1,2.6,2.2,4.5c0.1,3.4,1,6.8,1.3,10.2c0.1,0.5,0.3,0.6,0.8,0.5
			c3.7-1,7.4-0.6,11.1-0.1c0.6,0.1,0.7,0.4,0.7,0.9c0.1,2.3,0.9,3.1,3.3,3.2c1.3,0.1,2.6,0,4,0.1c1.1,0.1,1.8-0.4,2.3-1.4
			c1.2-2.3,1.8-2.5,4.1-1.1c0.5,0.3,0.9,0.7,1.5,0.8c0-0.8-0.6-1.3-0.8-2c1.2,0.1,2,0.4,2.3,1.7c0.3,1.4,0.7,2.9,2.3,3.6
			c0.7-0.7,1.1-1.5,1.3-2.5c0.1-0.3-0.2-0.8,0.4-0.8c0.4,0,0.8,0.2,1,0.6c0.1,0.1,0.1,0.3,0.2,0.5c1,2.6,1.9,3.2,4.7,2.9
			c1.4-0.2,2.5,0.3,3.4,1.4c1.3,1.5,1.6,1.5,3.4,0.6c0.5-0.2,3,0.6,3.2,1.1c0.1,0.4-0.2,0.7-0.4,0.9c-1.1,1.2-2.2,2.3-3.3,3.5
			c-0.3,0.3-0.8,0.5-0.6,0.9c0.1,0.3,0.7,0.3,1,0.4c0.7,0.2,1.3,0.3,2,0.4c1.2,0.2,1.8,0.8,1.9,2c0.2,3.2,0.3,6.3,0.4,9.5
			c0,0.8-0.3,1.4-1.2,1.4c-0.3,0-0.5,0.1-0.8,0.3c-1.1,0.6-1.1,0.9-0.1,1.5c0.8,0.6,1.7,1.1,2.5,1.6c0.5,0.3,0.7,0.5,0.1,0.9
			c-0.6,0.3-1.1,0.8-0.9,1.6c0.2,0.8,0.4,1.5,1.4,1.6c0.6,0.1,0.9,0.6,1,1.2c0.1,0.7-0.2,1.3-0.8,1.8c-1.8,1.2-3.9,0.6-4.9-1.5
			c-0.9-2-1.7-4-2.5-6.1c-1.8-4.3-3.5-8.6-5.2-12.9c-0.6-1.5-0.9-3.1-0.7-4.7c0.1-1.2,0.6-1.5,1.8-1.3c0.6,0.1,1.2,0.3,1.9,0.4
			c0.5,0.1,0.9,0.2,1.4,0c0.5-0.2,1.1-0.6,1-1.2c0-0.5-0.7-0.5-1.2-0.6c-1.1-0.2-2.1-0.1-3.2,0.1c-1.7,0.3-2.6-0.1-3.3-1.7
			c-0.3-0.6-0.5-1.3-0.8-1.9c-0.2-0.5-0.5-1.2-1.1-1c-0.6,0.2-0.8,0.9-0.6,1.6c0.2,0.6,0.2,1.2,0.4,1.7c0.3,0.7,0,1-0.6,1.1
			c-1,0.2-2.1,0.2-3.1-0.1c-1.4-0.5-1.7-1.3-0.9-2.6c1-1.7,1-1.7-0.9-2.2c-3.7-1-7.2-1-10.5,1.5c-1.2,1-2.9,0.5-4.3,0.6
			c-2,0.2-4,0.1-6,0.1c-2.1,0-2.9,1-2.7,3C596,71.2,596.1,72,596.2,73.1z"/>
		<path class="st0" d="M495.4,137.1c1.1-1.3,0.8-3-0.7-4.1c-0.7-0.5-1.4-0.7-2.2-1c-1-0.4-2-0.7-2.8-1.3c-0.8-0.5-1.3-1.3-1.1-2.2
			c0.2-0.9,0-1.6-0.3-2.4c-1.5-3.7-2.9-7.4-4.3-11c-0.4-1-0.6-2.1-0.6-3.2c0-2.7,0.1-5.4-0.1-8c-0.1-1-0.5-1.6-1.6-1.6
			c-1,0-1-0.6-0.6-1.3c1-1.9,0.7-3.9,0.4-5.9c-0.1-0.4-0.4-0.8-0.8-1c-0.2-0.2-0.5-0.2-0.7-0.4c-0.9-0.7-2.7-0.5-2.7-2.1
			c-0.1-1.4,2.2-4,3.7-4.4c0.9-0.3,1.9-0.3,2.9-0.1c1.3,0.2,2,0,3.1-0.8c-0.8-0.6-2.1-0.4-2.5-1.4c-0.4-0.9,0.2-1.9,0.1-2.9
			c-1,0.3-1.8,0.9-2.5,1.7c-0.3,0.4-0.6,0.8-1,1.2c-1.6,1.5-2.7,1.4-4-0.4c-0.2-0.3-0.4-0.6-0.7-0.9c-1.4-1.5-2.3-2.9-0.6-4.9
			c0.8-0.9,0.6-2.3,0.2-3.5c-0.7-2.4-1.4-4.7-2-7.1c-0.4-1.4,0.3-2.3,1.7-1.8c3.3,1.2,6.5,2.6,8,6.3c0.8,2,1.3,4,2.1,6
			c0.6,1.6,1.2,3.3,1.9,4.9c0.9,2.2,0.4,4.2-0.7,6.2c-0.4,0.7-1,1-1.9,1c-0.7,0-1.8-0.3-2.1,0.5c-0.4,0.9,0.5,1.7,1,2.4
			c0.3,0.5,0.6,0.1,0.9-0.1c0.9-0.8,1.9-1.6,2.8-2.4c0.5-0.4,1-0.8,1.7-0.6c0.7,0.3,0.9,1,1,1.7c0.1,0.8-0.1,1.5-0.3,2.2
			c-1,3.6-1.9,7.2-3,10.7c-0.5,1.7-0.3,3.2,0.7,4.7c1.9,2.8,3.6,5.7,5.5,8.4c2.2,3.1,3,6.7,3.5,10.3c0.1,0.7,0.2,1.4,0.3,2
			c0.4,2,1.3,2.9,3.4,3.2c0.6,0.1,1.1,0.3,1.1,0.9c0,0.6-0.5,0.6-0.9,0.7c-1.9,0.7-2,0.7-1.6,2.7c0.8,4.3,1.5,8.6,1.9,12.9
			c0.1,1,0.5,1.7,1.6,2c2.1,0.6,2.4,2.3,0.9,3.7c-0.8,0.8-1.7,1.5-2.6,2.3c-0.6,0.6-1,0.4-1.4-0.3c-0.8-1.5-0.8-3-0.4-4.6
			c0.2-0.8,0.5-1.7,0.7-2.5c0.1-0.6-0.1-1.1-0.6-1.3c-0.4-0.2-0.7,0.3-0.9,0.6c-0.3,0.3-0.5,0.6-0.8,0.9c-0.9,1.1-1,1.1-1.8-0.1
			c-0.3-0.5-0.5-1-0.7-1.5c-1.5-5.2-3-10.4-4.5-15.6c-0.1-0.4-0.6-0.9,0-1.3c0.5-0.4,1.2-0.3,1.7,0c0.7,0.4,1.2,1,1.7,1.6
			C494.2,135.5,494.8,136.3,495.4,137.1z"/>
		<path class="st0" d="M516.5,164.2c0.5-0.3,0.8-0.7,0.8-1.3c-0.3-2.9-1.1-5.8-2.1-8.6c-1.1,1.1-1.4,2.2-1.1,3.6
			c0.2,0.9,0.3,1.7-0.2,2.7c-3-3.3-2.2-7.1-1.9-10.8c0.1,0.5,0.2,1.1,0.3,1.6c0.1,0.3,0.1,0.6,0.5,0.6c0.3,0,0.4-0.2,0.5-0.5
			c0.3-1,0.5-1.9,0.5-2.9c0-1.6-0.1-3.2,0-4.8c0.1-0.8,0.1-2.1,1-2.3c0.8-0.2,1.2,1,1.6,1.7c1.1,1.9,1.2,4.1,1.6,6.2
			c2.4,11.7,4.7,23.4,7,35.1c0.2,1.1,0.6,1.6,1.7,1.1c1-0.5,1.8-0.1,2.6,0.6c2,1.5,3,3.4,2.8,5.9c-0.1,1.2,0,1.2,1.1,0.6
			c0.3-0.2,0.6-0.3,0.8-0.5c3.1-2.3,6.6-2.3,10.2-1.5c0.6,0.1,0.7,0.4,0.5,0.9c-0.5,1.5-0.9,3.1-1.5,4.5c-0.8,1.9-2.6,3-4.6,2.5
			c-2.7-0.7-5.4-1.5-8-2.4c-1.1-0.3-1.4-1-0.9-2c0.1-0.1,0.1-0.3,0.2-0.4c0.2-0.6,0.7-1.3,0.1-1.8c-0.6-0.5-1.4-0.6-2.1-0.1
			c-0.7,0.5-1,1.1-0.7,2c1,3,1.6,6,2.3,9c2.9,11.8,6.2,23.4,9.3,35.1c0.2,0.8,0.4,1.7,0.6,2.6c0.1,0.4,0.2,0.8-0.3,1
			c-0.5,0.2-0.6-0.3-0.8-0.6c-1.6-2.7-2.6-5.5-3.7-8.4c-4.5-12.6-7.9-25.6-10.8-38.7c-1.7-7.8-4.6-15.3-7.1-22.8
			c-0.7-2-1.4-4.1-2-6.1c-0.1-0.2-0.2-0.4-0.2-0.6c0-0.6-0.5-1.5,0.2-1.8c0.6-0.3,0.8,0.7,1.2,1.1
			C516.2,163.6,516.4,163.9,516.5,164.2z"/>
		<path class="st0" d="M500.9,93.5c-0.2,0.8-0.7,1.1-1.1,1.6c-0.3,0.4-0.7,0.9-1,1.4c1,0.3,1.7,0,2.5-0.2c2.1-0.6,4.1-1.2,6.2-1.7
			c1.6-0.4,2.7,0,3.4,1.4c0.6,1.1,1.3,1.3,2.4,0.9c3.6-1.2,7.2-2.4,10.8-3.6c1.2-0.4,2.4-0.7,3.6-0.8c0.3,0,0.7-0.3,0.9,0
			c0.2,0.4-0.2,0.6-0.3,0.9c-1.1,1.8-2.1,3.7-3.3,5.5c-0.8,1.3-1.1,2.7-1.1,4.2c0,3.2,0,6.4,0,9.6c0,0.7-0.1,1-1,1
			c-5.1-0.2-10.2-0.3-15.3-0.6c-5-0.2-10-0.8-15-1.8c-0.2,0-0.5-0.1-0.7-0.2c-0.8-0.2-1.1-0.6-0.6-1.4c0.9-1.5,2.2-2.5,3.7-3.4
			c3.7-2.2,7.4-4.3,10.9-6.7c0.3-0.2,0.7-0.4,0.9-0.8c-1.1-0.3-2.1,0-3,0.3c-1.3,0.4-2.7,0.8-4,1.2c-2.1,0.6-3.9,1.5-5.1,3.3
			c-0.2,0.3-0.4,0.5-0.7,0.7c-0.5,0.4-1.1,1.1-1.6,0.8c-0.6-0.3-0.6-1.3-0.5-2c0.2-2.7,1.7-4.9,3.6-6.7
			C496.9,95,498.6,93.9,500.9,93.5z M502.1,109.7c0.8,0.1,1.3-0.3,1.9-0.7c1.7-1.2,3.4-2.4,5.2-3.4c2-1.2,4-2.4,5.9-3.6
			c0.7-0.5,1.4-1.2,0.9-2.1c-0.5-0.9-1.4-0.8-2.3-0.3c-2.5,1.3-4.8,3-7.2,4.5c-1.5,1-3.1,2-4.5,3.2c-0.5,0.4-0.8,0.9-0.8,1.6
			C501.3,109.5,501.4,109.9,502.1,109.7z"/>
		<path class="st0" d="M509.3,68.9c-0.4-0.6-1-1-1.6-1.2c-1.3-0.5-2-1.4-2.3-2.7c-1.9-7.8-3.7-15.5-5.6-23.3c-0.5-1.9,0-2.6,1.9-3.1
			c0.7-0.2,1.3-0.4,2-0.5c1.5-0.3,2,0,2.4,1.4c0.3,1,0.7,1.1,1.6,0.5c1.3-0.8,2.7-1.5,4-2.4c1-0.6,1.1-1.5,0.4-2.4
			c-0.4-0.6-1-0.9-1.7-0.4c-2.1,1.7-4.5,1.3-7,0.9c0.8-0.9,1.5-1.7,2.4-2.3c0.5-0.4,0.9-0.7,1.3-1.2c1.1-1.2,1.3-1.2,2.6-0.3
			c0.2,0.1,0.5,0.3,0.8,0.5c0.1-0.9-0.1-1.8,0.1-2.6c0.3-0.8,0.7-0.8,1.3-0.5c0.5,0.2,0.8,0.6,0.9,1c1.2,2.9,2.3,5.9,3.4,8.8
			c0.7,2-0.2,3.9-2,4.9c-0.5,0.3-1,0.5-1.5,0.7c-1.6,0.9-1.7,1.2-0.8,2.8c0.3,0.6,1.2,1,0.5,1.9c-0.7,0.9-1.3,1.8-2.6,1.6
			c-0.3,0-0.7-0.1-0.9,0c-0.6,0.3-1.5,0.6-1.3,1.3c0.2,0.8,0.9,0.1,1.4,0.1c1-0.1,2-0.4,2.9-0.5c1.8-0.1,2.8,1.2,2.4,3
			c-0.2,0.8-0.7,1.5-1.3,2.1c-1.4,1.7-2.8,3.3-4.1,5c-0.2,0.2-0.4,0.5-0.5,0.8c-0.8,1.5-0.6,1.9,1.1,1.8c1.1,0,1.7,0.5,2.2,1.5
			c1.1,2.3,0.4,4.1-1.3,5.7c-0.7,0.7-1.1,1.4-0.3,2.4c0.4,0.4,0.6,0.6,1,0.1c0.3-0.4,0.6-0.7,1.1-1c0.6-0.3,1.2-0.4,1.7,0.3
			c0.5,0.8,0,1.2-0.6,1.6c-0.5,0.3-1,0.5-1.5,0.7c-0.9,0.2-0.9,0.6-0.5,1.3c2,3.3,3.9,6.7,5.8,10.1c0.1,0.2,0.2,0.4,0.4,0.6
			c0.2,0.3,0.2,0.5-0.1,0.7c-0.3,0.2-0.5,0-0.7-0.2c-0.6-1.1-1.3-2.1-1.9-3.2c-0.8-1.4-2.1-2.4-2.8-2c-0.7,0.4-0.7,1.9-0.2,3.4
			c0.2,0.5,0.4,1,0.7,1.5c0.1,0.2,0.1,0.4-0.1,0.6c-0.3,0.2-0.4,0.1-0.6-0.1c-1.3-1-2.4-2.2-3.5-3.4c-0.5-0.6-0.4-1.2,0.2-1.7
			c0.5-0.5,1.2-0.6,1.7-1c1-0.7,1-1.7-0.1-2c-2.1-0.7-3-2.2-3.3-4.3c-0.3-1.9-0.7-3.7-0.5-5.6c0.3-2.4,0.3-2.4,2.6-1.7
			c0.1,0,0.2,0,0.3,0C509.4,69,509.3,68.9,509.3,68.9z"/>
		<path class="st0" d="M534.8,107.1c0.6,2,1.1,3.8,1.6,5.8c0.8,2.9,1.6,5.8,2.4,8.8c0.2,0.8,0.4,1.6-0.3,2.2c-1,0.9-2.5,0.5-2.9-1
			c-0.8-2.8-1.6-5.7-2.4-8.5c-0.6-2.1-1-4.3-1.9-6.3c-0.1-0.3-0.2-0.8-0.6-0.8c-0.5,0.1-0.3,0.7-0.2,1c0.5,2.6,1.4,5,2,7.5
			c0.3,1.1,0.6,2.1,0.9,3.2c0.4,1.5,0.2,2.1-0.9,2.4c-1.1,0.4-1.7,0.1-2.4-1.4c-0.7-1.6-1.4-3.3-2.1-5c-0.4-0.9-0.7-1.8-1.2-2.6
			c-2.7-4.8-1.7-9.7,0-14.5c0.7-2,3.3-2.9,5.2-2c4.3,2.1,8.2,4.7,10.6,9.1c1.4,2.7,3.7,4.8,5,7.6c0.8,1.7,1.4,3.6,1.9,5.4
			c0.3,1.2-0.2,2.1-1.2,2.4c-1.1,0.4-1.7,0.1-2.2-1.2c-1.8-4.1-3.5-8.1-5.3-12.2c-0.4-0.9-0.8-1.6-1.5-2.3c-0.2-0.2-0.4-0.7-0.8-0.5
			c-0.4,0.2-0.2,0.6,0,1c0.5,1.3,1.1,2.6,1.6,3.9c0.9,2,1.8,4.1,2.7,6.1c0.9,2,1.3,4.1,1,6.3c-0.1,0.4-0.1,0.8-0.3,1.1
			c-0.3,0.7-0.8,1.4-1.7,1.2c-0.9-0.1-1.2-0.9-1.3-1.6c-0.5-5.2-3.1-9.8-4.9-14.6C535.7,107.5,535.5,107.2,534.8,107.1z"/>
		<path class="st0" d="M633.7,106.5c-1.3,1-1.8,2.2-2.1,3.6c-0.2,0.9-0.4,1.8-0.5,2.7c-0.1,0.9-0.5,1.2-1.4,1.2
			c-2.4,0-2.4,0.1-1.5,2.1c0.7,1.5,1.1,1.7,2.5,0.7c2.7-2,5.4-4,8.1-6c1.3-1,1.8-0.9,2.4,0.6c0.2,0.5,0.4,0.9,0.6,1.4
			c1.2,2.8,1,3.7-1.2,5.8c-0.4,0.4-0.6,0.3-0.8-0.1c-0.3-0.4-0.5-0.8-0.9-1.1c-0.7-0.7-1.8-0.6-2.2,0.1c-1.2,2.5-2.7,4.9-3.1,7.7
			c-0.3,1.9,0.1,3.6,1.1,5.3c0.4,0.7,1.2,1.7,0.5,2.1c-0.8,0.6-1.3-0.6-1.8-1.2c-3.2-3.8-6.4-7.6-8.8-12.1c-1.9-3.7-1.7-7,0.9-10.1
			c1.5-1.8,1.9-3.6,1.5-6c-0.9-5,0-10,1.1-14.9c0.4-1.6,0.8-3.2,1.3-4.9c0.1-0.3,0.1-0.7,0.5-0.7c0.4,0,0.5,0.3,0.6,0.6
			c0.6,1.8,1.1,3.7,1.7,5.5c0.3,1,0.2,1.6-0.7,2.2c-0.5,0.3-1.3,0.6-1.2,1.3c0.1,0.8,0.9,1,1.7,1c0.4,0,0.8,0.2,1.1,0.5
			c2.7,2.5,5,5.1,4.9,9.1c-0.1,1.6-0.1,3.3-0.2,4.9c0,0.8-0.5,1.4-1.1,1.9c-1.2,1-2.1,0.7-2.5-0.8
			C634.1,108.3,633.9,107.5,633.7,106.5z"/>
		<path class="st0" d="M550.3,57.9c0,0.3,0,0.6-0.1,0.8c-0.3,1.9,0.4,3.3,1.9,4.3c0.9,0.6,0.9,1.2-0.1,1.8c-0.6,0.4-1.3,0.4-2,0.4
			c-0.5,0-1-0.1-1.4,0c-0.7,0.1-1.3,0.6-1.2,1.3c0.1,0.6,0.8,1,1.4,0.8c2.8-0.8,4.1,0.8,5.1,3c0.4,0.8,0.9,1.6,1.4,2.3
			c0.5,0.6,0.8,1.3,1,2c0.2,0.6,0.7,1.3-0.2,1.8c-0.8,0.4-1.7,0.6-2.4-0.2c-0.8-0.9-1.3-2-2.3-2.8c-0.7-0.6-1.4-1-2.4-1.2
			c-2.8-0.5-5.1-2-6.8-4.2c-2.3-2.9-4.7-5.6-7.6-8c-1.7-1.4-2.8-3.3-3.3-5.4c-0.7-2.9-1.3-5.8-1.4-8.7c0-0.3-0.1-0.8,0.3-0.9
			c0.4-0.1,0.5,0.3,0.7,0.5c0.8,1,1.5,2,2.3,3.1c0.6,0.9,1.3,1,2.3,0.7c2.4-0.9,4.9-1.7,7.4-2.5c1.4-0.5,2.2-0.2,2.8,1.2
			c1.2,2.8,2.3,5.6,4.1,8.1C550.2,56.6,550.4,57.2,550.3,57.9z"/>
		<path class="st0" d="M494.6,93c1.5-2.7,0.9-5.4,0.9-8c0-0.5-0.1-1-0.1-1.6c0.1-0.9-0.1-1.5-1.1-1.6c-0.7-0.1-0.9-0.6-1.1-1.1
			c-1.1-3.3-1.7-6.6,0.3-9.8c0-0.1,0.1-0.2,0.1-0.2c0-0.1-0.1-0.1-0.1-0.2c-0.3-0.1-0.4,0.2-0.6,0.3c-1,0.6-2,0.2-2.2-0.9
			c-0.5-2.6-0.5-5.2-0.7-7.9c0-0.4,0-0.8,0.5-1c0.6-0.2,1,0.1,1.4,0.5c0.4,0.3,0.5,1.2,1,0.8c0.4-0.3-0.3-0.9-0.5-1.3
			c-0.1-0.2-0.2-0.4-0.3-0.6c-1.9-2.3-1.7-4.8-0.7-7.3c0.9-2.5,2.2-4.9,3.8-7c0.6-0.7,0.9-0.7,1.2,0.1c0.1,0.3,0.2,0.6,0.2,0.9
			c-0.2,2.9,0.6,5.7,1.5,8.4c1.3,3.8,2.5,7.6,3.8,11.3c0.7,2,0.6,3.8-1,5.4c-1.6,1.6-2.9,3.5-4.2,5.3c-0.4,0.6-0.7,1.2-1.1,1.9
			c-0.1,0.2-0.5,0.6,0,0.8c0.4,0.2,0.5-0.3,0.7-0.5c0.6-0.8,0.9-2.1,2.1-2c1.3,0,1.5,1.3,1.9,2.2c1.1,2.2,2.2,4.5,3.3,6.8
			c0.6,1.2,0.5,2.5,0.3,3.8c-0.1,0.4-0.4,0.6-0.7,0.7c-1,0.5-2,0.5-3,0c-1.1-0.6-2.1-0.4-3.1,0.5C496.6,92.2,495.8,92.7,494.6,93z
			 M494,69.8c-0.2,0.2-0.6,0.4-0.3,0.6c0.3,0.2,0.4-0.2,0.5-0.4c0.1-0.1,0.3-0.2,0.1-0.3C494.2,69.6,494.1,69.7,494,69.8z
			 M494.9,69.1c0.2-0.2,0.5-0.4,0.7-0.6c1.2-1.1,2.4-2,2.9-3.7c0.2-0.9,0-1.4-0.8-1.7c-1.3-0.6-3.4,0.2-4,1.4
			c-0.1,0.2-0.1,0.5,0,0.7c0.2,0.3,0.5,0.3,0.8,0.1c0.5-0.2,1-0.5,1.5-0.8c0.3-0.1,0.6-0.5,0.8-0.3c0.3,0.2,0.3,0.7,0.3,1.1
			c0,0.3-0.2,0.6-0.4,0.8c-0.6,0.9-1.3,1.8-1.9,2.7c-0.1,0.1-0.2,0.2-0.1,0.4C494.7,69.3,494.8,69.2,494.9,69.1z"/>
		<path class="st0" d="M539,76.5c-1.1-1-2-1.8-3-2.6c-2-1.6-3.7-1.3-5.2,0.7c-0.1,0.1-0.1,0.2-0.2,0.3c-0.5,0.8-1.2,1.5-2.1,1.1
			c-0.9-0.4-1.3-1.4-1.1-2.4c0.2-1.1,0-1.4-1.1-1.1c-2.9,0.6-5.8,1.1-8.7,1.6c-2.4,0.4-2.9,0-3.1-2.4c-0.2-4.3,1.1-7.8,4.6-10.5
			c0.8-0.6,1.5-1.3,2.3-1.9c0.2,0.4,0.2,0.9-0.1,1.5c-0.3,0.6-0.5,1.2-0.9,1.7c-1.9,2.3-1.7,4.7-0.8,7.2c0.5,1.5,1.5,2.1,3.1,1.8
			c1.5-0.4,3.1-0.4,4.6-0.5c1.8-0.1,2.1-0.7,1.2-2.3c-1-1.6-1.9-3.2-3-5c-0.3,0.9,0.1,1.9-1.3,1.9c-2.5,0-2.8-0.2-2-2.6
			c0.3-1,0.6-2.1,0.9-3.1c0.3-1.2,0-1.7-1.2-2c-0.1,0-0.2,0-0.2,0c-2.8-0.6-3.2-1.1-3.2-4c0-2.6-1-4.5-3.4-5.6
			c1.9-1.7,3.7-1.4,4.8,0.7c0.7,1.4,1.2,3,1.7,4.5c0.2,0.5,0.3,1.2,0.8,1.6c0.6-0.5,0.3-1,0.1-1.4c-0.9-2.4-1.8-4.7-2.7-7
			c-0.5-1.2-0.4-2.1,0.6-2.9c1.2-1,1.9-2.4,2.4-3.9c1.4-4,2.9-7.9,4.3-11.9c0.5-1.5,1.7-2.2,2.8-3c0.2-0.1,0.4-0.2,0.6,0
			c0.2,0.3,0.1,0.5-0.1,0.6c-1.8,1.5-1.3,2.9-0.5,4.9c1.1,2.6,0.8,5.5-1.5,7.8c-2.3,2.3-3.1,5.1-3.5,8.2c-0.8,6.1,0.7,11.8,3.3,17.3
			c0.2,0.4,0.4,0.7,0.5,1.1c0.7,1.9,1.9,3.3,3.6,4.6c2.2,1.6,4.1,3.6,6.1,5.4C538.7,75.1,538.9,75.6,539,76.5z"/>
		<path class="st0" d="M532.4,16.7c2-1.3,4-2.1,6.2-1.2c0.1,0,0.2,0.1,0.3,0.1c2.4,0.5,3.6,0.5,3.4-2.7c-0.1-1,0-1.9,0-2.9
			c0-0.8,0.2-1,0.9-0.6c2.9,1.4,5.8,2.8,8.7,4.3c0.3,0.1,0.6,0.3,0.9,0.4c0.6,0.2,1.3,0.3,1.5-0.3c0.2-0.5-0.2-1.1-0.8-1.3
			c-0.7-0.2-1.4-0.4-2.1-0.6c-0.6-0.2-1.2-0.6-1.3-1.1c-0.1-0.6,0.6-1,1.1-1.2c0.8-0.4,1.6-0.7,2.5-0.3c0.9,0.3,1.5,0.8,1.6,2
			c0.1,2.4,1.4,4.5,2.6,6.5c0.2,0.3,0.6,0.6,0.4,0.9c-0.2,0.4-0.7,0.2-1.1,0.1c-0.8-0.1-1.6-0.6-2.2-1.1c-0.7-0.5-1.3-1-2-1.6
			c-0.7-0.6-1-0.4-1.4,0.3c-0.6,1-0.4,1.4,0.7,1.7c1.1,0.3,2.2,0.8,3.3,1.3c1.3,0.6,2.5,1.5,3.3,2.7c1.3,2,2.9,3.8,4.6,5.5
			c0.8,0.8,1.2,1.7,1.5,2.8c0.9,4.4,2,8.8,3.4,13.1c0.4,1.1,0.2,1.3-1,1.2c-2.6-0.2-4.8-2.2-5.5-5.1c-0.7-2.9-1.6-5.7-3.5-8
			c-0.6-0.7-1.2-1.3-2-1.7c-0.7-0.3-1.1-0.8-1.5-1.4c-0.5-0.9-0.9-1.9-1.5-2.8c-0.6-1.1-0.5-2.1,0.1-3.2c0.9-1.6,0.6-2.2-1.2-2.6
			c-4.3-0.8-8.6-1.7-13-2.4c-1.4-0.2-2.9-0.2-4.4-0.2C534,17.6,533.3,17.2,532.4,16.7z"/>
		<path class="st0" d="M528.3,177c-0.2,0.6,0.2,1,0.4,1.3c0.8,1.1,0.8,2.4,0.5,3.7c-0.1,0.5-0.3,1-0.9,1.2c-0.7,0.2-1.1-0.2-1.4-0.7
			c-1.1-1.6-1.7-3.3-2.1-5.2c-1.2-6.9-1.8-13.9-2.2-21c-0.2-2.8-1.4-5.2-2.3-7.8c-0.3-0.9-0.6-1.8-0.9-2.7c-0.3-0.8,0.1-1.3,0.8-1.5
			c1.2-0.4,2.5-0.4,3.7-0.2c1.2,0.2,2,1.2,2.3,2.6c0.2,1.2,0.2,2.5,0.2,3.7c0,0.3-0.2,0.7,0.3,0.8c1.4,0.2,1.2,1.2,1.4,2.2
			c1.1,5.4,0.9,10.9,1.7,16.3c0.5,3.7,1.9,7.1,4.2,10c0.8,1,1.2,2.2,1.6,3.5c0.2,0.7-0.8,2.1-1.6,2c-0.6-0.1-1.2,0.1-1.8,0.2
			c-1.7,0.2-2.5-0.7-2-2.3c0.1-0.2,0.2-0.5,0.3-0.7c1.3-2.1,1.4-2.1-0.5-3.9C529.6,178,529.1,177.3,528.3,177z M528.2,176.8
			C528.1,176.8,528.1,176.8,528.2,176.8c-0.1-0.1-0.1,0-0.2,0C528,176.9,528.1,176.9,528.2,176.8
			C528.1,176.9,528.1,176.9,528.2,176.8z"/>
		<path class="st0" d="M621.5,140.9c-0.5-0.2-0.8-0.4-1-0.4c-1.8,0-1.6-1.1-1.6-2.4c0.1-3.3,0.6-6.6,0.5-9.9c-0.1-3.2-1-6.2-1.8-9.3
			c-0.5-1.8-0.6-3.5-0.7-5.3c0-0.8,0.3-1.7,1-1.8c0.7-0.1,1.4,0.6,1.6,1.4c0.4,1.3,0.7,2.7,1,4.1c0.2,0.8,0.4,0.8,1,0.3
			c1.1-0.9,1.1-0.9,1.8,0.4c0.7,1.5,0.9,3.2,1,4.8c0.1,0.9-0.8,1.8-1.3,2.5c-1,1.3-0.9,2.4,0,3.8c2.3,3.9,5.1,7.6,7.3,11.5
			c1,1.7,2,3.3,2.2,5.3c0.1,0.8,0,1.2-1,1.3c-2.7,0.2-5.5,0.6-8.2,0.9c-0.4,0-0.7,0.1-0.9-0.4c-0.1-0.3,0.1-0.5,0.3-0.7
			c0.4-0.3,1.2-0.3,1.1-0.9c-0.1-0.6-0.7-1.2-1.3-1.5c-0.9-0.6-3.4,0.1-3.9,1.1c-0.1,0.3,0.1,0.4,0.2,0.6c0.3,0.6,1.5,0.7,1,1.6
			c-0.4,0.9-2,1.3-3,1c-1.6-0.4-2.4-2.4-1.6-3.9c0.8-1.5,1.7-3.1,3.7-3C620,142.1,620.6,141.6,621.5,140.9z"/>
		<path class="st0" d="M609.8,80c0.9,1.2,1.7,2.4,2.6,3.6c0.8,1.2,1,2.4,0.5,3.7c-0.2,0.6-0.5,0.7-1.1,0.5c-1.7-0.6-6.1-5.6-6.3-7.4
			c-0.1-1,0-1.9,0.3-2.8c0.5-1.3,1-2.6,1.3-4c0.5-1.8,1.7-2.8,3.4-3.4c2.1-0.7,2.1-0.7,0.9-2.6c0-0.1,0-0.1-0.1-0.4
			c1.5-0.2,3-0.5,4.5-0.7c0.5-0.1,0.7,0.2,0.8,0.6c1.1,3,4,4.8,7.2,4.6c2.3-0.2,3.9,1.6,3.5,3.8c-0.1,0.5-0.4,0.3-0.7,0.2
			c-0.7-0.3-1.4-0.6-2.4-1.1c0.4,1.4,0.8,2.6,1.1,3.8c0.2,0.8,0.6,1.7,0.7,2.5c0.1,0.7,0.7,1.6-0.2,2.1c-1,0.5-2.5-0.1-3.1-1
			c-0.4-0.6-0.5-1.3-0.4-2c0.2-2.1-0.7-3.6-2.4-4.8c-1.6-1.1-3.1-2.3-4.7-3.4c-0.2,0.4,0,0.7,0.2,0.9c2.1,2,3.1,4.6,3.8,7.3
			c0.2,0.9,0.4,1.8,0.7,2.7c0.2,0.9,0,1.6-1,1.9c-1,0.3-1.7,0-2.1-0.9c-0.4-1.1-0.8-2.3-1.1-3.4c-0.3-1.6-1.3-2.6-2.7-3.3
			c-0.6-0.3-0.8-0.2-0.9,0.3c-0.1,0.4-0.3,0.8-0.4,1.1c-0.3,0.9-0.5,2-2.1,0.9C609.7,79.7,609.7,79.8,609.8,80z"/>
		<path class="st0" d="M542.5,32.8c-1.1,3.5,0.4,6.9,2.1,10.2c0.5,0.9,0.4,1.5-0.7,1.7c-2.8,0.7-5.7,0.9-8.4,1.8
			c-0.3,0.1-0.7,0-0.9-0.2c-1.9-1.6-4.2-2.6-5.5-4.9c-0.3-0.6-0.4-0.9-0.1-1.5c0.9-1.4,1.8-2.9,2.5-4.5c0.7-1.5,1.9-2.5,3.5-3.2
			c2-0.9,4.2-1.1,6.3-1.3C542.3,31,542.7,31.5,542.5,32.8z"/>
		<path class="st0" d="M536,212c-0.2-2.8-0.4-5.3,0.2-7.9c0.2-1,1.2-1.4,2-0.8c2,1.6,3.9,3.3,5.6,5.2c0.4,0.4,0.3,1,0.2,1.5
			c-0.9,4-1.6,8.1-3.1,12c-0.1,0.3-0.1,0.8-0.5,0.8c-0.4,0-0.6-0.4-0.8-0.7c-1-1.4-1.2-2.9-1-4.6c0.3-1.7,0.2-3.4-0.4-5.1
			C537.6,211,537.6,211,536,212z"/>
		<path class="st0" d="M531.2,19.1c-2.2,2.8-4.2,5.5-6.3,8.2c-0.3,0.4-0.5,0.8-1.1,1.1c-0.8-1.7-1.6-3.3-2.3-5
			c-1.1-2.3-2.1-4.5-3.2-6.8c-0.3-0.6-0.5-1.2-0.5-1.8c0.1-1.2,0.5-1.7,1.8-1.5c1.3,0.2,2.6,0.6,3.9,1c0.5,0.2,0.9,0.4,1.2,0.8
			c0.3,0.4,0.7,0.8,0.5,1.3c-0.2,0.5-0.7,0.4-1.2,0.4c-0.5,0-1,0-1.1,0.6c-0.1,0.6,0.1,1.2,0.7,1.5c0.7,0.4,1.5,0.2,2.2,0.2
			C527.6,19.1,529.3,18.7,531.2,19.1z"/>
		<path class="st0" d="M561.5,164c0.3-3,1.3-5.7,3.4-7.8c1.1-1.1,2.6-1.2,3.8-0.3c1.7,1.4,3.2,3,4.7,4.6c0.4,0.4,0.2,0.5-0.1,0.7
			c-2.2,1.5-4.4,3.1-6.7,4.6c-1.3,0.9-3.3,0.7-4.5-0.3C561.6,165,561.4,164.6,561.5,164z"/>
		<path class="st0" d="M554.4,38.8c0.4,0,0.5,0.2,0.5,0.4c2.4,4.2,4.6,8.6,6.2,13.2c0.4,1.1,0.6,2.1,0,3.1c-0.3,0.5-0.1,1.1,0,1.6
			c0.8,4.3,1.5,8.6,2.3,13c0,0.2,0.1,0.3,0.1,0.5c0,0.5,0.3,1.3-0.5,1.4c-0.8,0.2-0.7-0.7-0.9-1.1c-0.2-0.5-0.3-1.2-0.6-1.7
			c-1-2.2-1.2-4.4-0.5-6.7c0.2-0.8,0-1.2-0.9-0.8c-1.5,0.6-1.8,0.4-2-1.3c-0.6-4.1-1-8.2-1.4-12.4c-0.3-3.1-1-6-2.4-8.8
			C554.4,39,554.4,38.9,554.4,38.8z"/>
		<path class="st0" d="M551.5,216.6c0.6,0.1,0.6,1.1,1.4,0.7c1.1-0.5,2.6-0.6,3.2-1.9c0.3-0.7-0.6-0.7-1-0.8c-2.4-0.1-2.4-0.1-3-2.4
			c-0.2-0.6-0.3-1.2-0.5-1.8c-0.5-1.4-0.5-2.7,1-3.6c0.7-0.4,0.9-1.4,1.7-1.7c0.6-0.2,0.8-0.1,0.9,0.5c0.3,1.2-0.3,2-0.9,2.8
			c-0.2,0.3-0.7,0.6-0.4,1c0.2,0.4,0.6,0.2,1,0.2c0.9,0.1,1.7,0.4,1.9,1.2c0.8,2.9,2.4,5.6,3.2,8.5c0.2,0.8,0.1,1.1-0.8,1
			c-1.2,0-2.3,0.4-3.4,0.6C553.3,221.5,550.2,219.5,551.5,216.6z"/>
		<path class="st0" d="M529.1,88.2c-1.3,0-1.9-0.5-1.8-1.7c0.3-3,1.2-5.8,2.2-8.6c0.5-1.4,1.8-1.7,3-0.7c1,0.8,2,1.6,2.9,2.5
			c0.7,0.6,1.2,1.5,1.5,2.4c0.2,0.8,0.1,1.5-0.5,2c-2.1,1.7-4.4,3-6.9,4.1C529.4,88.2,529.2,88.2,529.1,88.2z"/>
		<path class="st0" d="M547,32.9c1.8,0.9,2.5,2.3,3.1,3.7c0.4,0.9,0.5,1.9,1.9,1.9c0.8,0,1.2,0.8,1.4,1.5c0.9,2.8,1.5,5.6,2.1,8.5
			c0.1,0.5,0.2,1.3-0.4,1.5c-0.5,0.2-1-0.4-1.3-0.8c-0.2-0.3-0.3-0.6-0.5-1c-0.5-1-1.3-1.5-2.4-1.3c-1,0.2-2.5,0.1-2.7-0.7
			c-0.1-0.9,1.2-1.5,2.2-1.8c0.8-0.2,1.4-0.6,1.6-1.4c0.1-0.3,0-0.5-0.3-0.6c-0.8-0.3-1.5-0.2-2.1,0.3c-0.7,0.6-1.4,1.2-2.2,1.7
			c-0.8,0.5-1.1,0.3-1.2-0.6c0-0.4,0-0.7,0-1.1c-0.1-1,0-1.7,1.3-1.2c0.4,0.2,0.9,0.1,0.9-0.6c0-1.6,0-3.1,0.1-4.7
			C548.4,35.1,547.8,34.1,547,32.9z"/>
		<path class="st0" d="M609.9,118.1c-1-0.1-2.1-0.1-3.1-0.2c-0.3,0-0.8,0.1-0.9-0.3c-0.1-0.3,0.3-0.7,0.6-0.9
			c1.7-1.2,2.6-2.9,3.3-4.7c0.6-1.6,1.2-3.1,2.2-4.5c0.2-0.3,0.3-0.7,0.8-0.6c0.5,0,0.7,0.4,0.8,0.8c0.6,1.6,1.4,3.1,1.7,4.8
			c0.1,0.8,0.1,1.7-0.1,2.5c-0.5,2.4-1.3,3.1-3.8,3.1C610.8,118.1,610.4,118.1,609.9,118.1C609.9,118.1,609.9,118.1,609.9,118.1z"/>
		<path class="st0" d="M502.1,136.8c1-0.6,1.9-0.7,3-0.2c1.2,0.6,2.5,1.2,3.7,1.8c0.6,0.3,0.8,0.2,0.8-0.4c0-0.6,0-1.3,0-1.9
			c0.1-1.4,0.7-2,2-2.3c0.6-0.1,1.3-0.2,1.9-0.3c2.4-0.3,2.4-0.3,3.3,2c0.2,0.6,0.1,0.8-0.5,0.9c-0.6,0.1-1.2,0.2-1.7,0.4
			c-1.7,0.5-2.2,1.2-2.3,2.9c-0.1,1.8,0,3.7,0,5.5c0,0.5,0.2,1-0.5,1.1c-0.8,0.1-0.7-0.5-0.8-0.9c-0.2-0.7-0.4-1.4-0.5-2.1
			c-0.4-2.5-1.8-4-4.3-4.6c-0.6-0.1-1.2-0.4-1.9-0.5C503.3,138.2,502.6,137.6,502.1,136.8z"/>
		<path class="st0" d="M559.5,9.6c1.8,0,2.4,0.5,2.7,2.3c0.5,3.5,1,7.1,1.5,10.6c0.1,0.9-0.2,1.7-1,1.9c-0.7,0.2-1.3-0.6-1.5-1.3
			c-1.4-3.7-2.8-7.4-3.5-11.4C557.2,10,557.5,9.6,559.5,9.6z"/>
		<path class="st0" d="M549.5,171.9c0-1,0.6-1.6,1.4-2.1c1.3-0.9,2.6-1.8,3.9-2.6c0.3-0.2,0.6-0.4,0.5-0.8c-0.1-0.4-0.5-0.4-0.8-0.4
			c-1-0.1-1.9-0.2-2.9-0.3c-0.3,0-0.7-0.1-0.7-0.5c-0.1-0.4,0.3-0.5,0.5-0.6c2.8-1.6,5.7-3.3,8.5-4.9c0.2-0.1,0.4-0.3,0.6-0.1
			c0.3,0.2,0.1,0.5,0,0.8c-0.3,0.6-0.6,1.1-0.9,1.7c-1.8,2.9-3.7,5.8-5.5,8.7c-0.8,1.4-2.1,2.1-3.4,2.7
			C550.1,173.7,549.6,173,549.5,171.9z"/>
		<path class="st0" d="M507.8,166.4c0,0.9-0.2,1.8-0.5,2.7c-0.3,0.9-1,1.4-2,1.5c-0.9,0.1-1.8-0.2-2.3-1c-0.8-1.4-1.6-2.8-2.3-4.2
			c-0.7-1.4-0.3-2.3,1.2-2.7c1.5-0.5,3.1-0.2,4.6-0.6c0.5-0.2,0.8,0.5,0.9,0.9C507.6,164.1,507.7,165.2,507.8,166.4z"/>
		<path class="st0" d="M557.9,222.8c0.9,0.3,1.6,0,2.3-0.3c0.8-0.4,1.4-0.1,1.7,0.7c0.2,0.4,0.4,0.9,0.5,1.4
			c0.6,2.1,0.5,2.1-1.5,2.6c-1.1,0.3-2,0.9-2.6,2c-0.2,0.4-0.4,0.9-0.8,1.2c-1.1,1-2.4,0.7-2.9-0.7c-0.1-0.3-0.2-0.5-0.3-0.8
			c-0.3-0.7-0.2-1,0.5-1.4c1.7-0.8,1.7-1.1,0.8-2.8c-0.6-1.1-0.4-1.5,0.8-1.7C557,222.9,557.5,222.8,557.9,222.8z"/>
		<path class="st0" d="M539.5,178.6c0.5-1.4,0.9-2.9,1.5-4.3c0.4-0.9,1.4-1.2,2.3-0.8c2,0.8,4,1.7,5.8,2.8c1.2,0.7,1.2,0.9-0.1,1.7
			c-0.5,0.3-1.1,0.6-1.5,1c-0.9,0.8-1.6,0.5-2.3-0.3c-1.4-1.4-1.6-1.4-2.3,0.5c-0.3,0.8-0.6,1.4-1.6,1.2
			C540.3,180.1,539.6,179.7,539.5,178.6z"/>
		<path class="st0" d="M511.3,159.4c0.5,0.2,0.4,0.6,0.4,1c-0.1,7.4,0.3,14.9,0.5,22.3c0,0.8,0,1.8-0.8,2.1c-0.8,0.4-1.8,0-2.7-0.3
			c-0.6-0.2-0.2-0.7-0.1-1c0.5-1.1,0.4-1.9-0.6-2.7c-0.9-0.7-0.7-1.3,0.3-1.9c0.2-0.1,0.5-0.3,0.7-0.4c1.5-0.6,2.1-1.8,2.1-3.4
			c0-4.8,0-9.6,0-14.4C511.2,160.3,511.1,159.9,511.3,159.4z"/>
		<path class="st0" d="M573.8,87c0,0.4,0,0.6-0.4,0.7c-0.4,0.2-0.7,0.1-0.9-0.3c-2.8-3.6-5.5-7.2-7.5-11.3c-0.2-0.3-0.4-0.6-0.1-1
			c0.4-0.4,0.7-0.1,1.1,0.1c0.6,0.3,1.2,0.8,1.7,1.4c1.8,2.3,3.6,4.6,5.2,7C573.5,84.6,573.6,85.8,573.8,87z"/>
		<path class="st0" d="M580.5,175.9c-1-0.1-1.9-1.6-1.4-2.4c0.2-0.3,0.5-0.6,0.8-0.9c2.1-1.7,4.3-3.5,6.4-5.2
			c0.6-0.5,1.3-0.9,2.1-1.2c0.3-0.1,0.6-0.4,1,0c0.4,0.4,0.1,0.7,0,1.1c-0.3,0.6-0.6,1.2-1.1,1.7c-2.4,2.2-4.9,4.4-7.3,6.6
			C580.9,175.7,580.7,175.8,580.5,175.9z"/>
		<path class="st0" d="M600.9,96.5c-0.4,1.3-0.4,2.6-1.3,3.6c-0.9,1-1.1,1-1.6-0.3c-0.5-1.1-0.5-2.3-0.4-3.5c0-0.6,0.4-0.8,0.9-1
			c1.3-0.7,2.7-1.1,4.2-1.3c1-0.2,1.9,0.2,2.3,1.1c0.5,1.1,0.9,2.3,0.3,3.4c-0.6,0.9-1.5,0.6-2.2,0
			C602.3,97.9,601.7,97.2,600.9,96.5z"/>
		<path class="st0" d="M523.4,78.6c0,0.5,0,0.9-0.2,1.4c-0.8,2.1-1.7,4.2-2.6,6.3c-0.2,0.3-0.3,0.6-0.8,0.6c-0.5,0-0.5-0.4-0.7-0.7
			c-0.4-0.9-0.5-1.8-0.3-2.8c0.6-2.3,1.2-4.6,1.8-6.9c0.2-0.7,0.5-1.4,1.3-1.3c0.8,0,0.9,0.8,1.1,1.4
			C523.2,77.3,523.5,77.9,523.4,78.6z"/>
		<path class="st0" d="M565.1,145.4c1.1-2.3,2.2-4.6,3.2-6.9c0.2-0.4,0.4-0.7,1-0.6c1.3,0.3,2.6,0.5,3.9,0.8c0.5,0.1,0.9,0.4,1,0.9
			c0.1,0.5-0.2,0.9-0.6,1.1c-2.6,1.6-5.2,3.2-7.8,4.8C565.7,145.5,565.5,145.6,565.1,145.4z"/>
		<path class="st0" d="M581.8,140.6c-0.3-0.1-0.9,0.1-1.1-0.4c-0.2-0.5,0.3-0.6,0.6-0.9c2.2-2,4.4-4,6.6-5.9c1.3-1.1,2.8-1,4.3-1.1
			c0.2,0,0.4,0.1,0.4,0.3c0.1,0.5-0.3,0.6-0.5,0.8c-3,2.2-6,4.4-8.9,6.6C582.7,140.4,582.3,140.6,581.8,140.6z"/>
		<path class="st0" d="M530.8,14.7c-1.4,0-2.8-0.3-4.1-0.6c-0.1,0-0.2-0.1-0.3-0.1c-0.9-0.2-1.4-1-1.4-1.6c0.1-0.7,1-1,1.8-1
			c1.4,0.1,2.7,0.2,4,0.4c0.6,0.1,0.9,0,0.9-0.8c0-0.5-0.2-1.3,0.5-1.6c0.9-0.4,1.7,0.2,1.7,1.2c0,0.9-0.1,1.8-0.3,2.7
			c-0.1,0.8-0.6,1.4-1.5,1.4C531.7,14.7,531.2,14.7,530.8,14.7z"/>
		<path class="st0" d="M543.3,80.1c-2.9-3.9-5.7-7.8-8.7-11.8c1.7,0.1,3,0.7,3.7,2c1.7,2.8,3.2,5.7,4.8,8.5
			C543.3,79.1,543.6,79.4,543.3,80.1z"/>
		<path class="st0" d="M555.8,149.9c-0.7-0.1-1.3-0.1-1.4-0.7c-0.1-0.5,0.3-1,0.8-1.2c1.5-0.4,3.1-0.7,4.6-1.1c0.2,0,0.4,0,0.5,0.2
			c0.1,0.2,0.1,0.4-0.1,0.5C558.7,148.5,557.2,149.3,555.8,149.9z"/>
	</g>
</g>
<g>
</g>
<g>
</g>
<g>
</g>
<g>
</g>
<g>
</g>
<g>
</g>
<g>
</g>
<g>
</g>
<g>
</g>
<g>
</g>
<g>
</g>
<g>
</g>
<g>
</g>
<g>
</g>
<g>
</g>
</svg>
