<?xml version="1.0" encoding="utf-8"?>
<!-- Generator: Adobe Illustrator 17.1.0, SVG Export Plug-In . SVG Version: 6.00 Build 0)  -->
<!DOCTYPE svg PUBLIC "-//W3C//DTD SVG 1.1//EN" "http://www.w3.org/Graphics/SVG/1.1/DTD/svg11.dtd">
<svg version="1.1" id="Layer_1" xmlns="http://www.w3.org/2000/svg" xmlns:xlink="http://www.w3.org/1999/xlink" x="0px" y="0px"
	 viewBox="0 0 634.7 210.4" style="enable-background:new 0 0 634.7 210.4;" xml:space="preserve">
<style type="text/css">
	.st0{fill:#F70102;}
	.st1{fill:#FB0101;}
	.st2{fill:#050102;}
</style>
<g>
	<g>
		<path class="st0" d="M111.1,0.2c15,0,30,0,45,0c-0.3,2.7,3.6,1.3,3.5,3.1c-0.3,4.6,2.3,2.9,4.2,1.9c1.7-0.9,2.6-0.6,3.4,1.1
			c0.6,1.3,1,2.8,2.6,3.6c1.9-3,4.1-5.9,4.3-9.8c1.3,0,2.7,0,4,0c-0.2,2.5-1.4,4.8-2.3,7c-3,7.2-6.1,14.4-14.1,17.8
			c-3.4,1.4-6.2,4-5.6,8.5c0.2,1.4-0.5,2.5-1.3,3.6c-1.9,3-4.1,5.5-7.6,6.8c-1.3,0.5-2.5,1.9-1.7,3.6c0.5,1.2,1.4,2.6,2.9,2.3
			c1.5-0.3,2-1.7,1.4-3.2c-0.8-2,1.1-1.8,1.8-2.1c1.2-0.5,2.7-0.8,3.8,0.2c1.1,1,0.5,2.2-0.2,3.1c-0.7,1.1-1.4,2.4-2.4,3.1
			c-2.8,1.9-1.2,4.7-1.1,6.8c0.1,2.3,2.9,1.4,4.6,1.5c2,0.1,3.9,0,5.9-0.5c4.1-0.9,8.3-1,12.5,1c-1.3,1.7-3,2.5-4.9,2.4
			c-2.5-0.1-5.2,0.4-5.4,3.1c-0.2,2.9,3,3.1,5.1,3.8c4.2,1.3,8.5,2.7,13.2,3.1c-4.5,1.1-8.2,2.8-11.9,5.4c-7.2,5-9.2,13.2-13.3,20
			c-1.9,3.1-1.1,4.6,2.6,4.7c1.5,0,3.1-0.6,4.2,1.6c2.8,5.6-2.8,4.5-4.5,5.1c-5.5,1.8-6.1,2.6-5.1,8.4c0.7,4.2,1.9,8.9,0.7,12.5
			c-1.5,4.2-2.5,8.5-3.9,12.7c-2.1,6.2-1.3,6.7,5.1,5.7c1.3-0.2,2.7-0.2,4-0.1c5.2,0.3,8.3-1.8,9.8-7.1c1-3.5,3.3-5.9,7.8-6.9
			c3.4-0.8,8.7-0.9,9.4-7.6c1-9.3,0.2-18.6,0.6-27.9c0.1-2.8,0-2.8,1.5-4.6c1.8,4.5,3.4,9.3,2.4,14.3c-1.9,9.9-1.7,20-0.6,29.8
			c1.1,9.5-3,19.5,2.5,28.7c1,1.7,0.6,4.7,0,6.9c-1.2,4.1-0.6,8.3-0.8,12.4c-0.3,8,0.9,16,0,23.9c-1.3,0-2.7,0-4,0
			c0-1.8-0.4-3.6-0.5-5.4c-0.3-3.4-1.7-6.6-1.2-10.3c1.6-10.5,0.9-21.1-0.3-31.7c-0.2-1.7-1.3-2.4-3-2.7c-6.1-1.2-12.6-0.4-16.8,3.4
			c-5.3,4.7-11.1,5.7-17.3,6.6c-2.1,0.3-4.2,0.7-6.3,1.2c-1.8,0.4-2.4,1.5-2.4,3.3c0,6.8-4.6,9.8-11.4,7.8c-1.9-0.6-3.1-1-2.1-3.3
			c0.9-1.9,0-2.9-2-2.7c-3.5,0.3-7,6.1-4.9,8.7c1.9,2.4,2.5,4.1,0.9,6.8c-1.1,1.9-1.4,4.2,1.3,6.2c-5.2-0.4-10.9-3.7-13.2,3.8
			c-0.5,0.3-0.6,0.8-0.2,1.2c0.2-0.2,0.4-0.5,0.6-0.7c2.7,0,4.5-4.2,5.4-3.5c3.7,3,8.8,2,13.5,5c-4.4,0.3-7.1,2.1-10,3.4
			c-1.6,0.7-1.6,0.8-1.9,3c-11.7,0-23.3,0-35,0c-0.1-1.2-1.1-1.7-2-1.8c-3.4-0.4-6.2-1.4-6.1-5.7c0-0.5-0.6-1.3-1.1-1.5
			c-5-1.6-5-5.1-3.8-9.3c0.3-0.9,0-2-0.2-3c-1-6.3,2.4-10.8,8.7-10.6c4.3,0.1,8.2-0.9,12-2.4c6.7-2.6,14.1-13.1,12.1-18.2
			c-2-5.1-2.3-10.3-0.8-15.6c0.7-2.7-0.3-4-3.3-3.9c-5.4,0.2-6.8,4.2-6.9,8.2c-0.1,4.9-3,5.5-6.6,5.8c-1.5,0.1-3,0.1-4.5,0
			c-4.4-0.2-5.8,1.4-3.2,5c4,5.7-0.2,4.3-3.3,5.1c-3.7,0.9-8.7-3.6-11.1,2.6c0,0.1-0.3,0.1-0.5,0.1c-5.7-1.7-11.9,0.6-17.3-1.2
			c-6.2-2.1-11.9-1.8-18-0.6c-0.8,0.2-1.6,0.4-2.4,0.6c-3.7,0.9-6.1,0.1-5.1-1.1c1.9-2.4,4.8-2.5,7.7-2.5c9.7,0,19.3,0,29,0
			c2.6,0,5.6,0.5,5.8-3.5c0.1-1.1,0.9-1.4,1.8-0.9c0.6,0.3,1.9,0.3,1.5,1.5c-1.2,4.2,2,2.8,3.8,2.9c2.9,0.2,4.8-1.6,5.5-4.1
			c0.5-2-1.3-3.2-3.2-3.8c-1.1-0.3-2.7-0.1-2-1.9c0.4-1.1-0.1-3.2,2.6-2.7c2.2,0.4,2-1.2,2.4-3c1.6-7.2-1.8-14.5,0.6-21.6
			c0.9-2.9-2-5.1-1.1-7.9c0.1-0.4-0.3-1-0.8-0.6c-2.9,2.3-1.8-0.5-2.1-1.6c-0.4-1.5,0.4-2.8,0.4-4.3c0-4.2-4.1-8.9,1.4-12.6
			c0.8-0.5,0.3-2.5-0.3-3.8c-0.8-1.7-0.9-3.7-0.4-5.4c1.8-7-0.3-14.4,2-21.2c1.5-4.4-0.8-8.4-0.4-12.5c0.4-5.3,1.4-10.5,2.1-15.8
			c1.8-12.3,1.2-24.7,1.2-37.1c0.7,0,1.3,0,2,0c0,12.8,0,25.6,0,38.4c0,4-1.3,7.8-1.2,11.8c0.1,2.2,2.6,3.4,1.5,6
			c-3.6,8.6-3.7,17.9-4.2,27C74,88.5,73.9,93.8,75.1,99c0.5,2.1-0.1,4.7,2.8,4.7c3.1,0,5-2.4,4.7-5.2c-0.2-2.8,0.4-4.5,2.9-5.3
			c3.7-1.1,8.2-3.9,11-0.8c3.6,3.9,8.7,7.1,9.7,13.1c0.3,1.7,1,3.9,3.3,4.7c2.7,0.9,5.5,2.2,7.6-0.8c2.2-3.1,2.4-6.6,0.6-9.9
			c-6.2-11-16.4-17.1-28.1-20.5c-4.1-1.2-5.4-3.2-6.8-6.4c-1.8-3.9-1.2-8.3-2.8-12.3c-0.5-1.1-0.6-3,1.4-3.6c4,5.1,8.9,4.8,11.4-0.9
			c0.4-1,0.6-1.1,1.6-0.9c4.4,1,8.5,0.8,12.3-2.3c1-0.8,2.8-1.4,4.7-0.8c3.7,1.3,4.7-0.9,4.6-4.2c-0.1-5.1,0.3-10.2-0.1-15.2
			c-0.5-6.6-1-13.2-5.9-18.4c-1.7-1.8-6.6-3.7-0.4-6.1c0.3-0.1,0.5-1.2,0.3-1.3C106.8,3.8,111.3,2.4,111.1,0.2z M119.8,151.8
			c-0.1,4.6-1.3,9,2.8,12.9c2.9,2.8,8,3.9,9.8,0.4c1.9-3.7,6.7-7.1,3.2-12.4c-0.5-0.8,0.1-1.6,0.7-2.2c5.9-5.7,5.3-13.4,5.7-20.4
			c0.7-13.2,0.3-13.2-13-13c-6.3,0.1-9.8,4.1-13,8.6c-1.2,1.6-0.9,3.1,0.7,4.3c2.1,1.5,1.5,2.3-0.7,3.3c-11.2,5.2-13.5,17.8-5,26.6
			c2.7,2.8,4.9,2.2,6.1-1.4C117.8,156.3,117.6,153.7,119.8,151.8z M99.3,65.8c-1.4-0.2-2.5-0.3-3.9,0.2c-1.7,0.6-3.8,0.3-4.2,2.7
			c-0.4,2.1,1,3.5,2.5,4.5c2.2,1.5,4.4,3,6.8,4.2c4.6,2.3,9.3,4.2,13.9,6.4c7.4,3.6,14.4,7.9,22.1,10.7c3.1,1.1,5.8,1.8,7.8,4.4
			c0.8,1,1.3,3.1,3.4,1.4c1.7-1.4,1.8-3.1,1.4-5c-0.6-2.6-2-1-3.3-0.5c-1.6,0.6-2.5-1-3.7-1.7c-3.7-2.3-6.9-6.9-11.3-6
			c-3.3,0.6-3.2-0.6-3.5-2.4c-0.2-1.7-0.7-3-1.7-4.5C119.4,70.3,109.6,67.6,99.3,65.8z M165.2,10.1c-4.2-0.6-7.7,2.1-11.2,1.8
			c-6.5-0.6-12.9,0.2-19.3,0.4c-4.1,0.2-4.6,3.2-4.5,6.4c0.1,3.2,1.7,4.4,5.1,4.5c4.3,0.2,8.6-0.4,12.9-0.2c5.3,0.2,10.3-2,14.9-4.5
			C166.6,16.5,163.8,12.7,165.2,10.1z M142,53.9c-0.7-1.2-1.4-3.8-2.6-4c-1.8-0.3-1.6-0.5-1.9-2.1c-0.8-5.5-1.1-10.8,0.2-16.2
			c0.8-3.2-2.2-4.6-4.5-4.9c-2.5-0.3-2.2,2.3-2.2,4.1c0,1-0.2,2,0.1,3c1.7,6.3,2.2,12.6-0.7,18.7c-1,2.2,1.3,4.6,1.9,4.2
			c3.1-1.9,7,3.2,9.4-1.4C142,55,142,54.6,142,53.9z M120.4,40.5c0,3.6-0.1,7.2,0.1,10.8c0.1,1.2,0.6,2.8,2.3,2.8
			c1.5,0,2.3-1.2,2.3-2.7c-0.1-8.1-0.1-16.2-0.4-24.3c-0.1-2-1.8-2.3-3.3-1.2c-1.5,1.1-2.6,2.9-2,4.8
			C120.6,33.9,119.8,37.2,120.4,40.5z M137.5,73.9c2.3,0.2,3.5,1.8,4.4,3.8c1.5,3.3,4.5,4.8,7.5,6.2c1.5,0.7,2.6,0,3.4-1.2
			c0.6-1.1,1.8-2.3,0.5-3.6c-2.8-2.6-4.6-6.3-8.7-7.7C141.6,70.4,139.1,70.2,137.5,73.9z M158.1,151.2c-6,0-8,1.5-10.3,6.8
			c-1.2,2.9,0.4,3.5,2.4,3c3.3-0.8,6.5-2,9.6-3.4c1.3-0.6,3.3-1.9,2.7-3.7C161.9,152.2,160.3,150.8,158.1,151.2z M100.4,128.2
			c5.8,0,10.8-3.1,13-7.9c0.4-0.9,0.9-1.9,0-2.6c-0.8-0.7-1.9-0.5-2.7,0.1c-1,0.8-1.3,2.4-3,2.2c-3.9-0.5-6.1,2.5-9,4
			c-1.1,0.6-1.9,1.5-1.2,2.8C98.1,127.9,99.2,128.2,100.4,128.2z M78.3,135.3c-1.1,4.1-3.3,7.8-1.3,12.1c1.1,2.4,3,1.9,4.6,1.6
			c2.5-0.4,3.5-2.6,3.2-4.7c-0.1-0.8,0.9-4.2-2.6-3.2c-1.4,0.4-2.1,0-1.3-1.8C81.5,137.7,80.1,136.6,78.3,135.3z M138.1,103
			c-0.5-0.3-1.4-1.1-2.5-1.5c-3.9-1.4-8.4-1.1-11.3-5c-0.6-0.8-2.1-0.2-1.7,1.7c0.8,3.6,7.8,9,11.5,8.6
			C135.8,106.7,137.3,106,138.1,103z M188,141.1c0,0,0.1,0,0.1,0c-0.1-1.7,0-3.3-0.3-4.9c-0.2-1-0.6-2.6-2-2.4
			c-1.4,0.2-1.1,1.4-1.3,2.6c-0.5,2.6-1.7,5.2-2.8,7.7c-1,2.2-0.5,3.6,1.8,4.1c2,0.4,4.2,0.2,4.5-2.5
			C188.2,144.1,188,142.6,188,141.1z M77.7,109.6c0.1,1.4,2,2,1.1,4c-0.7,1.7,0.7,4.3,2.6,3.2c1.7-1,3.9-2.8,4.1-5.5
			c0.3-2.5,0.7-4.9-3.2-2.8C81.1,109.2,79.5,109.2,77.7,109.6z M151.6,30.7c-3-2.7-5.8-1.2-8.4,0.7c-1.5,1.1-1.3,2.1,0.6,2.8
			C147.5,35.5,150.1,34.4,151.6,30.7z M80.2,126.3c-0.7-1.4,1-4.1-1.9-4.4c-1.5-0.2-2.1,1.6-2.2,3.2c-0.1,2.3,0.6,4.3,2.8,4.5
			C80.7,129.9,79.8,127.7,80.2,126.3z M121,6.4c-0.6-1.9-2.2-2.9-4-2.8c-1.6,0-1.9,1.5-1.8,2.9c0.2,2.1,1.6,2.7,3.4,2.6
			C120.1,9,121,8.1,121,6.4z M184.8,157c1.6,0.2,2.3-0.6,2.2-1.9c-0.1-2-1.3-2.8-3.2-2.9c-1.8-0.1-3.3,0.8-3.2,2.3
			C180.8,156.7,183.6,156,184.8,157z M125.8,59.9c-0.6-1.4-1.2-2.9-3.1-2.7c-1.2,0.1-2.4,0.7-2.3,2.1c0.2,1.4,0.8,2.9,2.8,2.8
			C124.7,62.1,125.7,61.4,125.8,59.9z M83.1,204.9c1.6-0.5,2.7-1.6,3-3.3c0.2-1.2-0.3-3-1.2-2.8c-1.7,0.3-3,1.8-3.5,3.6
			C80.9,203.7,81.7,204.5,83.1,204.9z M149.9,57.1c-0.4-1.4-1.3-2.5-2.7-2.5c-1.1,0-1.5,1.3-1.7,2.2c-0.4,1.4,0.6,2.2,1.9,2.3
			C148.7,59.2,149.5,58.4,149.9,57.1z M180.8,138.2c-0.4-0.7-1.2-1.1-2-0.8c-1.3,0.6-3.1,0.9-3.3,2.5c-0.2,1.3,1.2,1.3,2.1,1.2
			C179.3,140.8,180.3,139.9,180.8,138.2z M131.9,6.5c2.2,0.2,3.8,0.3,5.9,0.5C136.1,3.7,134.7,2.2,131.9,6.5z M102.5,206.6
			c1.3-2.1,3.1-3.3,1.7-5c-0.7-0.8-2.5-0.8-3.2,0C99.6,203.5,102.3,204.2,102.5,206.6z M73.9,192.4c-0.6,0.4-1.6,0.8-1.4,2
			c0.2,1.1,1,2.4,2.2,2.3c1.2-0.1,1.5-1.4,1.5-2.7C76,192.9,75.4,192.3,73.9,192.4z M117.8,57.4c-0.1-1.1-0.7-2-1.8-1.8
			c-1.1,0.2-2.4,0.5-2.5,1.9c0,0.8,0.7,1.5,1.6,1.6C116.5,59.3,117.3,58.6,117.8,57.4z"/>
		<path class="st1" d="M64.1,0.2c1.7,0,3.3,0,5,0c0,3.5,0.3,7-1.9,10c-2.2,1.2-2.5,2.5-0.3,4c0.1,0.8,0.2,1.6-0.7,2.1
			c-0.9-0.2-1.9-0.4-2.8-0.7c-1.5-0.5-3.4-2.2-4.4-0.8c-1.4,1.8,0.6,3.5,1.7,5c0.2,0.3,0.4,0.5,0.5,0.8c-0.1,1.9,0,3.9-0.4,5.8
			c-0.2,1.3-1,2.7,0.6,3.3c2,0.7,2.3-1.1,2.8-2.5c0.9-0.1,1.8-0.2,2.7-0.3c-0.6,10.2-1,20.5-1.6,30.7c-0.7,11.7-0.2,23.5-0.1,35.3
			c0,0.8,0.5,1.6,0.8,2.4c3.1,7.7,1.7,15.1-0.8,22.6c-0.4,1.1-0.3,2.5-1.9,2.2c-1.3-0.2-1.4-1.7-1.9-2.7c-0.9-1.8,1.6-4.1-0.8-5.7
			c-5.4,2-0.2,6.9-2.7,9.6c-3.5-1.2-2.9-4.1-2.2-7.7c-3.6,2.9-6.4,5.1-6.8,9.2c-0.1,1-1.3,2.9-1.6,2.8c-4.3-1.2-7.8,2.4-12.1,1.7
			c-4.6-0.8-9.2-0.7-10,5.8c-0.1,0.8-2.2,4.2-3,2.1c-1.3-3.1-5.3-5.3-3.9-9.5c1-3-0.4-3.8-2.9-3.1c-1.6,0.4-2.9,1-3.3-1.3
			c-0.2-1,0.4-2.7-1.4-2.6c-1.3,0.1-1.8,1.6-2,2.6c-0.5,1.9-0.5,3.9-0.7,5.9c-1.2,0.7-1.3,1.3,0,2c-0.3,1.3-0.7,2.6-1,3.9
			c-0.9-0.6-1.7-1.3-2.6-1.9c0.3-5.9-1.2-11.8-0.3-17.7c0-0.5,0-1,0-1.5c-0.3-8-0.3-15.9,0-23.9C4.3,80,3.3,71.9,3.7,63.8
			C3.9,58.3,4,52.7,3.8,47.3c-0.2-7.7-0.3-15.5-0.2-23c0.1-7.9-1.1-16.1,0.5-24c1.3,0,2.7,0,4,0C8,3.6,9.9,6.9,8.2,10.3
			c-0.4,0.9,0.4,2.5,1.2,2.4c1.4-0.2,2.7-1,3.9-1.8c0.8-0.5,0.9-1.8,0.3-2.1c-4.7-2.3-1.2-3.6,0.6-4.9c1.3-1,2.2-2,2-3.7
			c11.7,0,23.3,0,35,0c0.5,3,3.8,1.1,5.1,2.9C56.7,5.5,57,8.3,60.4,8c3.2-0.3,1.5-2.9,1.7-4.6C62.7,2.3,65.1,2.3,64.1,0.2z
			 M33.7,114.7c-0.8-2.4-0.4-4.9-3.4-4.5c-2.4,0.3-4.1,1.4-4.1,4c0.1,2.8,2.8,2.5,4.4,2.8C32.3,117.3,33.3,115.8,33.7,114.7z
			 M9.8,47.2c-1.2,3.1-3.2,5.7-0.4,8.4c0.8,0.8,2.5,1,3.1-0.2C14.2,52.4,12.7,49.9,9.8,47.2z M46.8,64.9c1.7-1.9,1.7-3.8,0.6-5.9
			c-0.6-1.3-1.5-2.5-2.9-1.2c-0.7,0.7-2.3,2.3-0.2,3.1C46.4,61.7,45.7,63.7,46.8,64.9z M29,26.7c-0.8-1.8-2.9-2.3-2.9-4.1
			c0-1,0.5-2.5-1.2-2.8c-0.4-0.1-0.9,0.4-1.2,0.7c-1.1,1.4-0.3,2.5,0.6,3.5C25.4,25.2,25.6,27.6,29,26.7z"/>
		<path class="st2" d="M64.3,27.2c-0.4,1.4-0.8,3.2-2.8,2.5c-1.7-0.6-0.8-2-0.6-3.3c0.3-1.9,0.3-3.9,0.4-5.8c2.4,0.3,2.4,2.3,3,4
			c0.7,2.1,1.7,2.5,2.7,0.1c0.2-0.7,0-1.2-0.7-1.5c0-2.3,0-4.5,0-6.8c0.8-0.5,0.8-1.3,0.7-2.1c0.1-1.3,0.2-2.7,0.3-4
			c2.2-3,1.9-6.5,1.9-10c2.3,0,4.7,0,7,0c0,12.4,0.6,24.8-1.2,37.1c-0.8,5.2-1.7,10.5-2.1,15.8c-0.3,4.1,1.9,8.1,0.4,12.5
			c-2.3,6.8-0.2,14.2-2,21.2c-0.4,1.7-0.4,3.7,0.4,5.4c0.6,1.3,1,3.3,0.3,3.8c-5.5,3.7-1.3,8.4-1.4,12.6c0,1.5-0.8,2.8-0.4,4.3
			c0.3,1.1-0.7,3.9,2.1,1.6c0.5-0.4,0.9,0.1,0.8,0.6c-0.9,2.8,2,5.1,1.1,7.9c-2.3,7.1,1,14.4-0.6,21.6c-0.4,1.8-0.2,3.5-2.4,3
			c-2.7-0.5-2.1,1.6-2.6,2.7c-0.7,1.8,0.9,1.6,2,1.9c1.9,0.5,3.7,1.8,3.2,3.8c-0.6,2.5-2.5,4.3-5.5,4.1c-1.8-0.1-5,1.3-3.8-2.9
			c0.3-1.2-0.9-1.2-1.5-1.5c-0.9-0.5-1.8-0.1-1.8,0.9c-0.2,4.1-3.2,3.5-5.8,3.5c-9.7,0-19.3,0-29,0c-2.8,0-5.8,0-7.7,2.5
			c-1,1.3,1.4,2,5.1,1.1c0.8-0.2,1.6-0.4,2.4-0.6c6-1.2,11.8-1.5,18,0.6c5.4,1.8,11.6-0.5,17.3,1.2c0.1,0,0.4,0,0.5-0.1
			c2.4-6.2,7.4-1.7,11.1-2.6c3.1-0.8,7.3,0.6,3.3-5.1c-2.6-3.7-1.2-5.2,3.2-5c1.5,0.1,3,0.1,4.5,0c3.6-0.3,6.5-1,6.6-5.8
			c0.1-4,1.5-7.9,6.9-8.2c3-0.1,4.1,1.2,3.3,3.9c-1.4,5.3-1.2,10.5,0.8,15.6c2,5.1-5.4,15.6-12.1,18.2c-3.9,1.5-7.7,2.5-12,2.4
			c-6.4-0.2-9.8,4.3-8.7,10.6c0.2,1,0.4,2.1,0.2,3c-1.3,4.2-1.2,7.7,3.8,9.3c0.5,0.2,1.1,1,1.1,1.5c-0.1,4.2,2.7,5.2,6.1,5.7
			c0.9,0.1,1.9,0.7,2,1.8c-25.3,0-50.7,0-76,0c-0.2-9,0.3-18,1-27c0.9-11.1-0.9-22.3,1.3-33.6c1-5,0.2-11.1-1.5-16.5
			c0.3-1.3,0.7-2.6,1-3.9c0-0.7,0-1.3,0-2c0.2-2,0.2-4,0.7-5.9c0.3-1,0.7-2.5,2-2.6c1.8-0.1,1.3,1.5,1.4,2.6
			c0.4,2.3,1.8,1.7,3.3,1.3c2.6-0.7,4,0.1,2.9,3.1c-1.4,4.1,2.6,6.3,3.9,9.5c0.9,2.2,2.9-1.3,3-2.1c0.8-6.5,5.4-6.6,10-5.8
			c4.3,0.7,7.8-2.9,12.1-1.7c0.3,0.1,1.5-1.8,1.6-2.8c0.4-4.1,3.1-6.3,6.8-9.2c-0.8,3.6-1.4,6.4,2.2,7.7c2.5-2.7-2.7-7.6,2.7-9.6
			c2.3,1.6-0.1,3.9,0.8,5.7c0.5,1,0.5,2.4,1.9,2.7c1.7,0.3,1.6-1.2,1.9-2.2c2.5-7.4,3.9-14.9,0.8-22.6c-0.3-0.8-0.8-1.6-0.8-2.4
			c0-11.8-0.5-23.6,0.1-35.3c0.6-10.2,1-20.5,1.6-30.7c0-1.4,0.5-3.5-1.6-3.3C63.5,23.8,64.3,25.9,64.3,27.2z M13.5,149.8
			c1.3,2,3.3,1.4,5.1,1.4c12,0,24,0,35.9,0c1.6,0,3.4-0.4,4.8,0.7c2,1.5,3.7,0.7,5.3-0.7c1.5-1.4,1.7-2.9,1.1-4.9
			c-1.1-3.4-1.2-6.9-0.9-10.6c0.4-5.3,2.1-10.8,0.4-16.2c-0.3-1,0.2-2.7-1.6-2.6c-2,0.1-1.5,1.8-1.5,3c0,7.3,0,14.6,0,22
			c0,4.2-1.2,6.8-6.3,6.5c-12.9-0.9-25.7,1-38.6-0.1C15.9,148.1,14.5,148,13.5,149.8z M43,139c0-2.2,0.1-3.8,0-5.4
			c-0.1-1.5-1.2-2.4-2.3-3c-0.4-0.2-1.5,0.6-2,1.2c-1,1.1-0.1,2.2,0.4,3.1C39.8,136.3,40.5,137.8,43,139z"/>
		<path class="st2" d="M193.1,210.2c1-8-0.3-16,0-23.9c0.1-4.1-0.5-8.3,0.8-12.4c0.6-2.1,1-5.1,0-6.9c-5.5-9.2-1.4-19.2-2.5-28.7
			c-1.1-9.8-1.3-19.9,0.6-29.8c1-5-0.6-9.8-2.4-14.3c-1.5,1.9-1.4,1.9-1.5,4.6c-0.5,9.3,0.3,18.5-0.6,27.9c-0.7,6.7-6,6.8-9.4,7.6
			c-4.5,1-6.8,3.4-7.8,6.9c-1.5,5.3-4.6,7.4-9.8,7.1c-1.3-0.1-2.7-0.1-4,0.1c-6.4,1-7.2,0.5-5.1-5.7c1.4-4.2,2.4-8.5,3.9-12.7
			c1.3-3.7,0-8.4-0.7-12.5c-1-5.8-0.4-6.5,5.1-8.4c1.8-0.6,7.3,0.5,4.5-5.1c-1.1-2.2-2.7-1.6-4.2-1.6c-3.7-0.1-4.5-1.6-2.6-4.7
			c4.1-6.8,6.1-15,13.3-20c3.7-2.6,7.4-4.3,11.9-5.4c-4.7-0.4-8.9-1.8-13.2-3.1c-2-0.6-5.3-0.8-5.1-3.8c0.2-2.7,2.9-3.2,5.4-3.1
			c1.9,0,3.5-0.7,4.9-2.4c-4.1-2-8.3-2-12.5-1c-2,0.4-4,0.5-5.9,0.5c-1.7-0.1-4.5,0.8-4.6-1.5c-0.1-2.1-1.8-4.9,1.1-6.8
			c1-0.7,1.7-2,2.4-3.1c0.6-1,1.3-2.1,0.2-3.1c-1.1-1-2.6-0.7-3.8-0.2c-0.8,0.3-2.6,0.2-1.8,2.1c0.6,1.5,0.1,2.9-1.4,3.2
			c-1.5,0.3-2.4-1.1-2.9-2.3c-0.8-1.7,0.4-3.2,1.7-3.6c3.5-1.3,5.7-3.8,7.6-6.8c0.7-1.2,1.5-2.2,1.3-3.6c-0.6-4.5,2.2-7,5.6-8.5
			c8.1-3.4,11.2-10.6,14.1-17.8c0.9-2.2,2.1-4.5,2.3-7c3.7,0,7.3,0,11,0c-1.1,3.1-1,6.4-1,9.7c0,5.2,0.1,10.3,0,15.5
			c-0.4,15.9,0.6,31.8-0.4,47.8c-0.2,3.5-0.8,8,2.6,11.3c0-2.9,0-5.7,0-8.6c0.5,0,1,0,1.4-0.1c0,6.7,0,13.4,0,20.1
			c0.5,0,0.9,0,1.4,0c0-7.4,0-14.9,0-22.3c0-0.6-0.3-1.7-0.4-1.7c-6.3,0.1-1.5-4.2-2.5-6.2c-1-1.9,1.9-1.9,2-3.8
			c0.5-9.9-0.2-19.8-0.5-29.6c-0.4-10.8-0.7-21.4,1.5-32c7,0,7,0,7,7c0,65.3,0,130.7,0,196C200.1,210.2,200.1,210.2,193.1,210.2z"/>
		<path class="st2" d="M111.1,0.2c0.2,2.2-4.3,3.6-1.2,6.4c0.2,0.2,0,1.2-0.3,1.3c-6.2,2.5-1.2,4.4,0.4,6.1c5,5.2,5.5,11.8,5.9,18.4
			c0.4,5,0,10.1,0.1,15.2c0.1,3.3-1,5.4-4.6,4.2c-1.9-0.6-3.7-0.1-4.7,0.8c-3.8,3.1-7.9,3.3-12.3,2.3c-1-0.2-1.2-0.1-1.6,0.9
			c-2.5,5.7-7.4,6-11.4,0.9c-2,0.6-1.8,2.5-1.4,3.6c1.7,4,1,8.4,2.8,12.3c1.4,3.2,2.8,5.2,6.8,6.4c11.6,3.4,21.8,9.5,28.1,20.5
			c1.8,3.3,1.6,6.8-0.6,9.9c-2.1,3-4.9,1.8-7.6,0.8c-2.3-0.8-3-2.9-3.3-4.7c-1.1-6.1-6.1-9.2-9.7-13.1c-2.8-3.1-7.4-0.3-11,0.8
			c-2.5,0.8-3.2,2.5-2.9,5.3c0.3,2.8-1.6,5.3-4.7,5.2c-2.9,0-2.3-2.6-2.8-4.7c-1.2-5.2-1.1-10.5-0.8-15.6c0.5-9.1,0.5-18.4,4.2-27
			c1.1-2.5-1.5-3.7-1.5-6c-0.1-4,1.2-7.9,1.2-11.8c0-12.8,0-25.6,0-38.4C89.1,0.2,100.1,0.2,111.1,0.2z"/>
		<path class="st2" d="M117.1,210.2c0.3-2.2,0.3-2.3,1.9-3c2.9-1.3,5.7-3.1,10-3.4c-4.8-3-9.8-2-13.5-5c-0.9-0.7-2.7,3.5-5.4,3.5
			c-0.1-0.2-0.2-0.4-0.4-0.6c2.3-7.5,8-4.2,13.2-3.8c-2.7-1.9-2.4-4.3-1.3-6.2c1.6-2.7,1-4.4-0.9-6.8c-2.1-2.6,1.4-8.4,4.9-8.7
			c2-0.2,2.9,0.8,2,2.7c-1,2.3,0.2,2.7,2.1,3.3c6.8,2.1,11.4-1,11.4-7.8c0-1.7,0.6-2.9,2.4-3.3c2.1-0.4,4.2-0.9,6.3-1.2
			c6.3-0.9,12.1-1.8,17.3-6.6c4.2-3.8,10.7-4.6,16.8-3.4c1.7,0.3,2.8,1,3,2.7c1.3,10.5,1.9,21.1,0.3,31.7c-0.5,3.6,0.9,6.8,1.2,10.3
			c0.2,1.8,0.5,3.6,0.5,5.4C165.1,210.2,141.1,210.2,117.1,210.2z M139.3,193.9c0-0.4,0-0.8,0-1.2c-5,0-9.9,0-15.3,0
			C129.4,194.9,134.4,194.3,139.3,193.9z"/>
		<path class="st2" d="M4,113.5c-0.9,5.9,0.6,11.8,0.3,17.7c-0.1,4.3-0.2,8.6-0.2,12.9c0,2.7-0.8,4.5-4,4.1c0-48,0-96-0.1-144
			c0-3.4,0.7-4.8,4.1-4c-1.5,8-0.4,16.1-0.5,24c-0.1,7.6,0,15.4,0.2,23c0.1,5.4,0.1,11-0.2,16.5C3.3,71.9,4.3,80,4,88.1
			c-0.3,8-0.3,15.9,0,23.9C3.1,112.5,3.1,113,4,113.5z"/>
		<path class="st0" d="M193.1,0.2c-2.2,10.6-1.9,21.2-1.5,32c0.4,9.8,1,19.7,0.5,29.6c-0.1,1.9-3,1.8-2,3.8c1,2-3.8,6.3,2.5,6.2
			c0.1,0,0.4,1.1,0.4,1.7c0,7.4,0,14.9,0,22.3c-0.5,0-0.9,0-1.4,0c0-6.7,0-13.4,0-20.1c-0.5,0-1,0-1.4,0.1c0,2.9,0,5.7,0,8.6
			c-3.4-3.3-2.8-7.9-2.6-11.3c1-15.9,0.1-31.9,0.4-47.8c0.1-5.2,0-10.3,0-15.5c0-3.3-0.1-6.5,1-9.7C190.4,0.2,191.8,0.2,193.1,0.2z"
			/>
		<path class="st0" d="M0.1,148.2c3.2,0.5,4-1.4,4-4.1c0-4.3,0.1-8.6,0.2-12.9c0.9,0.6,1.7,1.3,2.6,1.9c1.7,5.4,2.5,11.5,1.5,16.5
			c-2.2,11.3-0.4,22.4-1.3,33.6c-0.7,9-1.1,18-1,27c-0.7,0-1.3,0-2,0c0-12.4,0-24.9,0-37.3c0-5.7-1.4-11.3-0.1-17
			c0.6-2.8-0.4-5-3.9-4.7C0.1,150.2,0.1,149.2,0.1,148.2z"/>
		<path class="st2" d="M0.1,151.2c3.5-0.3,4.6,1.9,3.9,4.7c-1.3,5.7,0.1,11.3,0.1,17c0,12.4,0,24.9,0,37.3c-3.4,0.8-4.1-0.6-4.1-4
			C0.2,187.9,0.1,169.5,0.1,151.2z"/>
		<path class="st2" d="M174.1,0.2c-0.2,3.8-2.4,6.7-4.3,9.8c-1.7-0.8-2-2.3-2.6-3.6c-0.8-1.7-1.7-2-3.4-1.1c-1.9,1-4.4,2.7-4.2-1.9
			c0.1-1.9-3.8-0.4-3.5-3.1C162.1,0.2,168.1,0.2,174.1,0.2z"/>
		<path class="st2" d="M16.1,0.2c0.2,1.7-0.7,2.7-2,3.7c-1.8,1.3-5.2,2.7-0.6,4.9c0.7,0.3,0.5,1.6-0.3,2.1c-1.2,0.7-2.6,1.6-3.9,1.8
			c-0.8,0.1-1.6-1.5-1.2-2.4C9.9,6.9,8,3.6,8.1,0.2C10.8,0.2,13.4,0.2,16.1,0.2z"/>
		<path class="st2" d="M56.2,3.1c-1.2-1.8-4.5,0.1-5.1-2.9c4.3,0,8.7,0,13,0c1,2.1-1.4,2.1-2,3.1C60.1,3.3,58.1,3.2,56.2,3.1z"/>
		<path class="st2" d="M119.8,151.8c-2.2,1.9-2,4.5-2.7,6.8c-1.2,3.7-3.4,4.2-6.1,1.4c-8.5-8.8-6.2-21.4,5-26.6
			c2.2-1,2.8-1.8,0.7-3.3c-1.7-1.2-1.9-2.7-0.7-4.3c3.2-4.5,6.7-8.5,13-8.6c13.3-0.2,13.7-0.2,13,13c-0.4,7,0.2,14.7-5.7,20.4
			c-0.6,0.6-1.2,1.4-0.7,2.2c3.5,5.3-1.3,8.6-3.2,12.4c-1.8,3.5-6.8,2.4-9.8-0.4C118.5,160.8,119.7,156.4,119.8,151.8z"/>
		<path class="st2" d="M99.3,65.8c10.2,1.9,20.1,4.5,26.2,14.3c0.9,1.5,1.4,2.8,1.7,4.5c0.2,1.8,0.2,3,3.5,2.4
			c4.3-0.8,7.6,3.8,11.3,6c1.2,0.7,2.1,2.3,3.7,1.7c1.3-0.5,2.6-2.1,3.3,0.5c0.5,1.8,0.3,3.6-1.4,5c-2.1,1.7-2.6-0.4-3.4-1.4
			c-2-2.6-4.7-3.3-7.8-4.4c-7.6-2.8-14.7-7.1-22.1-10.7c-4.6-2.2-9.3-4.2-13.9-6.4c-2.4-1.2-4.6-2.6-6.8-4.2c-1.5-1-2.9-2.4-2.5-4.5
			c0.4-2.4,2.5-2.1,4.2-2.7C96.8,65.4,97.9,65.6,99.3,65.8z"/>
		<path class="st2" d="M165.2,10.1c-1.4,2.7,1.4,6.5-2,8.4c-4.6,2.5-9.7,4.7-14.9,4.5c-4.3-0.2-8.6,0.4-12.9,0.2
			c-3.4-0.1-5-1.3-5.1-4.5c-0.1-3.2,0.4-6.2,4.5-6.4c6.4-0.2,12.8-1,19.3-0.4C157.5,12.2,161,9.5,165.2,10.1z"/>
		<path class="st2" d="M142,53.9c0,0.7,0,1.1-0.1,1.4c-2.4,4.6-6.3-0.5-9.4,1.4c-0.7,0.4-3-2-1.9-4.2c2.9-6.2,2.3-12.4,0.7-18.7
			c-0.2-0.9-0.1-2-0.1-3c0.1-1.8-0.3-4.4,2.2-4.1c2.3,0.3,5.3,1.6,4.5,4.9c-1.3,5.4-1,10.7-0.2,16.2c0.2,1.7,0.1,1.8,1.9,2.1
			C140.6,50,141.3,52.6,142,53.9z"/>
		<path class="st2" d="M120.4,40.5c-0.6-3.3,0.2-6.6-1-9.9c-0.7-1.9,0.4-3.6,2-4.8c1.5-1.1,3.2-0.7,3.3,1.2
			c0.3,8.1,0.3,16.2,0.4,24.3c0,1.5-0.8,2.7-2.3,2.7c-1.7,0-2.2-1.6-2.3-2.8C120.3,47.7,120.4,44.1,120.4,40.5z"/>
		<path class="st2" d="M137.5,73.9c1.6-3.6,4-3.5,7.1-2.5c4.1,1.4,5.9,5,8.7,7.7c1.4,1.3,0.2,2.5-0.5,3.6c-0.7,1.3-1.9,1.9-3.4,1.2
			c-3-1.4-6.1-2.8-7.5-6.2C141,75.7,139.9,74.1,137.5,73.9z"/>
		<path class="st2" d="M158.1,151.2c2.2-0.5,3.8,1,4.4,2.8c0.6,1.8-1.4,3.1-2.7,3.7c-3.1,1.4-6.3,2.6-9.6,3.4c-2,0.5-3.6-0.2-2.4-3
			C150.1,152.7,152.1,151.2,158.1,151.2z"/>
		<path class="st2" d="M100.4,128.1c-1.2,0.1-2.3-0.3-2.9-1.4c-0.7-1.3,0.1-2.2,1.2-2.8c2.9-1.5,5.2-4.6,9-4c1.7,0.2,2-1.4,3-2.2
			c0.8-0.7,1.9-0.8,2.7-0.1c1,0.8,0.5,1.7,0,2.6C111.2,125.1,106.2,128.1,100.4,128.1z"/>
		<path class="st2" d="M78.3,135.3c1.8,1.3,3.2,2.3,2.6,4c-0.7,1.8,0,2.2,1.3,1.8c3.5-1,2.4,2.4,2.6,3.2c0.3,2.1-0.7,4.3-3.2,4.7
			c-1.6,0.3-3.5,0.8-4.6-1.6C75.1,143.1,77.2,139.5,78.3,135.3z"/>
		<path class="st2" d="M138.1,103c-0.8,2.9-2.4,3.7-4,3.8c-3.7,0.4-10.7-5.1-11.5-8.6c-0.4-1.8,1.1-2.5,1.7-1.7
			c2.9,3.9,7.4,3.6,11.3,5C136.7,101.9,137.6,102.7,138.1,103z"/>
		<path class="st2" d="M188,141.1c0,1.5,0.1,3,0,4.5c-0.3,2.7-2.4,2.9-4.5,2.5c-2.3-0.5-2.7-1.9-1.8-4.1c1.1-2.5,2.3-5,2.8-7.7
			c0.2-1.2,0-2.4,1.3-2.6c1.4-0.2,1.8,1.4,2,2.4c0.3,1.6,0.2,3.3,0.3,4.9C188.1,141.1,188.1,141.1,188,141.1z"/>
		<path class="st2" d="M77.7,109.6c1.8-0.4,3.4-0.4,4.6-1.1c3.9-2.1,3.5,0.3,3.2,2.8c-0.3,2.7-2.4,4.5-4.1,5.5
			c-1.9,1.1-3.4-1.5-2.6-3.2C79.6,111.6,77.8,111,77.7,109.6z"/>
		<path class="st2" d="M151.6,30.7c-1.5,3.8-4,4.9-7.8,3.5c-1.9-0.7-2.1-1.7-0.6-2.8C145.7,29.5,148.5,28,151.6,30.7z"/>
		<path class="st2" d="M80.2,126.3c-0.4,1.4,0.5,3.5-1.3,3.4c-2.2-0.2-2.9-2.2-2.8-4.5c0.1-1.6,0.6-3.4,2.2-3.2
			C81.2,122.3,79.5,125,80.2,126.3z"/>
		<path class="st2" d="M121,6.4c0,1.7-0.9,2.5-2.4,2.7c-1.8,0.2-3.3-0.5-3.4-2.6c-0.1-1.4,0.2-2.9,1.8-2.9
			C118.8,3.6,120.4,4.5,121,6.4z"/>
		<path class="st2" d="M184.8,157c-1.2-1.1-4-0.3-4.2-2.5c-0.1-1.5,1.4-2.4,3.2-2.3c1.9,0.1,3.2,0.9,3.2,2.9
			C187.1,156.5,186.4,157.3,184.8,157z"/>
		<path class="st2" d="M125.8,59.9c-0.1,1.5-1.1,2.2-2.6,2.3c-2,0.1-2.6-1.4-2.8-2.8c-0.2-1.4,1-1.9,2.3-2.1
			C124.6,57,125.2,58.5,125.8,59.9z"/>
		<path class="st2" d="M83.1,204.9c-1.4-0.4-2.2-1.3-1.8-2.6c0.5-1.8,1.8-3.3,3.5-3.6c1-0.1,1.4,1.6,1.2,2.8
			C85.8,203.4,84.7,204.5,83.1,204.9z"/>
		<path class="st2" d="M149.9,57.1c-0.3,1.3-1.1,2.1-2.5,1.9c-1.3-0.1-2.3-0.9-1.9-2.3c0.2-0.9,0.6-2.2,1.7-2.2
			C148.6,54.7,149.4,55.8,149.9,57.1z"/>
		<path class="st2" d="M180.8,138.2c-0.6,1.7-1.6,2.7-3.1,2.9c-0.9,0.2-2.3,0.2-2.1-1.2c0.2-1.6,2-2,3.3-2.5
			C179.7,137,180.4,137.5,180.8,138.2z"/>
		<path class="st2" d="M131.9,6.5c2.8-4.3,4.2-2.8,5.9,0.5C135.7,6.8,134.1,6.7,131.9,6.5z"/>
		<path class="st2" d="M102.5,206.6c-0.1-2.4-2.9-3.1-1.5-5c0.7-0.9,2.5-0.9,3.2,0C105.5,203.3,103.8,204.5,102.5,206.6z"/>
		<path class="st2" d="M73.9,192.4c1.5-0.2,2.1,0.5,2.2,1.6c0.1,1.2-0.3,2.6-1.5,2.7c-1.1,0.1-2-1.2-2.2-2.3
			C72.2,193.2,73.3,192.8,73.9,192.4z"/>
		<path class="st2" d="M117.8,57.4c-0.5,1.3-1.3,1.9-2.7,1.7c-0.9-0.1-1.6-0.8-1.6-1.6c0-1.4,1.4-1.8,2.5-1.9
			C117.1,55.4,117.7,56.3,117.8,57.4z"/>
		<path class="st2" d="M110.1,202.2c-0.2,0.2-0.4,0.5-0.6,0.7c-0.4-0.5-0.3-0.9,0.2-1.2C109.9,201.8,110,202,110.1,202.2z"/>
		<path class="st0" d="M66.2,16.3c0,2.3,0,4.5,0,6.8c0.2,0.5,0.4,1,0.7,1.5c-1,2.4-1.9,2-2.7-0.1c-0.6-1.7-0.6-3.7-3-4
			c-0.2-0.3-0.4-0.5-0.5-0.8c-1.1-1.5-3.1-3.2-1.7-5c1.1-1.3,2.9,0.3,4.4,0.8C64.3,15.9,65.3,16,66.2,16.3z"/>
		<path class="st2" d="M33.7,114.7c-0.4,1.1-1.4,2.6-3.1,2.3c-1.6-0.3-4.4,0-4.4-2.8c0-2.6,1.7-3.7,4.1-4
			C33.4,109.8,33,112.4,33.7,114.7z"/>
		<path class="st2" d="M9.8,47.2c2.9,2.6,4.3,5.1,2.7,8.3c-0.6,1.2-2.3,1-3.1,0.2C6.6,53,8.7,50.3,9.8,47.2z"/>
		<path class="st0" d="M56.2,3.1c2,0.1,4,0.2,5.9,0.3C62,5.1,63.6,7.7,60.4,8C57,8.3,56.7,5.5,56.2,3.1z"/>
		<path class="st2" d="M46.8,64.9c-1.1-1.2-0.4-3.2-2.4-4c-2.1-0.8-0.5-2.4,0.2-3.1c1.4-1.4,2.3-0.1,2.9,1.2
			C48.5,61.1,48.5,63.1,46.8,64.9z"/>
		<path class="st2" d="M29,26.7c-3.4,0.9-3.6-1.5-4.7-2.7c-0.9-1-1.7-2.2-0.6-3.5c0.3-0.4,0.9-0.8,1.2-0.7c1.7,0.3,1.2,1.8,1.2,2.8
			C26.1,24.4,28.1,24.9,29,26.7z"/>
		<path class="st0" d="M67.2,10.2c-0.1,1.3-0.2,2.7-0.3,4C64.8,12.7,65,11.4,67.2,10.2z"/>
		<path class="st0" d="M64.3,27.2c0.1-1.3-0.8-3.4,1.1-3.6c2.1-0.2,1.6,1.9,1.6,3.3C66,27,65.2,27.1,64.3,27.2z"/>
		<path class="st0" d="M7.9,127.2c0,0.7,0,1.3,0,2C6.7,128.5,6.7,127.9,7.9,127.2z"/>
		<path class="st0" d="M4,113.5c-0.9-0.5-0.9-1,0-1.5C4,112.5,4,113,4,113.5z"/>
		<path class="st0" d="M13.5,149.8c1-1.7,2.4-1.7,3.7-1.5c12.9,1.1,25.8-0.9,38.6,0.1c5.1,0.4,6.3-2.3,6.3-6.5c0-7.3,0-14.6,0-22
			c0-1.2-0.4-2.9,1.5-3c1.7-0.1,1.2,1.6,1.6,2.6c1.7,5.4,0,10.9-0.4,16.2c-0.3,3.7-0.1,7.2,0.9,10.6c0.6,2,0.5,3.6-1.1,4.9
			c-1.6,1.4-3.2,2.2-5.3,0.7c-1.5-1.1-3.2-0.7-4.8-0.7c-12,0-24,0-35.9,0C16.8,151.2,14.8,151.7,13.5,149.8z"/>
		<path class="st0" d="M43,139c-2.5-1.1-3.2-2.6-4-4c-0.6-1-1.4-2-0.4-3.1c0.5-0.6,1.6-1.4,2-1.2c1.2,0.5,2.2,1.5,2.3,3
			C43.1,135.2,43,136.8,43,139z"/>
		<path class="st0" d="M66.2,23.1c0.7,0.3,0.8,0.8,0.7,1.5C66.7,24.1,66.5,23.6,66.2,23.1z"/>
		<path class="st0" d="M139.3,193.9c-5,0.4-10,1-15.3-1.2c5.4,0,10.3,0,15.3,0C139.4,193.1,139.3,193.5,139.3,193.9z"/>
	</g>
	<g>
		<path class="st2" d="M284.4,27.2c-0.4,1.4-0.8,3.2-2.8,2.5c-1.7-0.6-0.8-2-0.6-3.3c0.3-1.9,0.3-3.9,0.4-5.8c2.4,0.3,2.4,2.3,3,4
			c0.7,2.1,1.7,2.5,2.7,0.1c0.2-0.7,0-1.2-0.7-1.5c0-2.3,0-4.5,0-6.8c0.8-0.5,0.8-1.3,0.7-2.1c0.1-1.3,0.2-2.7,0.3-4
			c2.2-3,1.9-6.5,1.9-10c2.3,0,4.7,0,7,0c0,12.4,0.6,24.8-1.2,37.1c-0.8,5.2-1.7,10.5-2.1,15.8c-0.3,4.1,1.9,8.1,0.4,12.5
			c-2.3,6.8-0.2,14.2-2,21.2c-0.4,1.7-0.4,3.7,0.4,5.4c0.6,1.3,1,3.3,0.3,3.8c-5.5,3.7-1.3,8.4-1.4,12.6c0,1.5-0.8,2.8-0.4,4.3
			c0.3,1.1-0.7,3.9,2.1,1.6c0.5-0.4,0.9,0.1,0.8,0.6c-0.9,2.8,2,5.1,1.1,7.9c-2.3,7.1,1,14.4-0.6,21.6c-0.4,1.8-0.2,3.5-2.4,3
			c-2.7-0.5-2.1,1.6-2.6,2.7c-0.7,1.8,0.9,1.6,2,1.9c1.9,0.5,3.7,1.8,3.2,3.8c-0.6,2.5-2.5,4.3-5.5,4.1c-1.8-0.1-5,1.3-3.8-2.9
			c0.3-1.2-0.9-1.2-1.5-1.5c-0.9-0.5-1.8-0.1-1.8,0.9c-0.2,4.1-3.2,3.5-5.8,3.5c-9.7,0-19.3,0-29,0c-2.8,0-5.8,0-7.7,2.5
			c-1,1.3,1.4,2,5.1,1.1c0.8-0.2,1.6-0.4,2.4-0.6c6-1.2,11.8-1.5,18,0.6c5.4,1.8,11.6-0.5,17.3,1.2c0.1,0,0.4,0,0.5-0.1
			c2.4-6.2,7.4-1.7,11.1-2.6c3.1-0.8,7.3,0.6,3.3-5.1c-2.6-3.7-1.2-5.2,3.2-5c1.5,0.1,3,0.1,4.5,0c3.6-0.3,6.5-1,6.6-5.8
			c0.1-4,1.5-7.9,6.9-8.2c3-0.1,4.1,1.2,3.3,3.9c-1.4,5.3-1.2,10.5,0.8,15.6c2,5.1-5.4,15.6-12.1,18.2c-3.9,1.5-7.7,2.5-12,2.4
			c-6.4-0.2-9.8,4.3-8.7,10.6c0.2,1,0.4,2.1,0.2,3c-1.3,4.2-1.2,7.7,3.8,9.3c0.5,0.2,1.1,1,1.1,1.5c-0.1,4.2,2.7,5.2,6.1,5.7
			c0.9,0.1,1.9,0.7,2,1.8c-25.3,0-50.7,0-76,0c-0.2-9,0.3-18,1-27c0.9-11.1-0.9-22.3,1.3-33.6c1-5,0.2-11.1-1.5-16.5
			c0.3-1.3,0.7-2.6,1-3.9c0-0.7,0-1.3,0-2c0.2-2,0.2-4,0.7-5.9c0.3-1,0.7-2.5,2-2.6c1.8-0.1,1.3,1.5,1.4,2.6
			c0.4,2.3,1.8,1.7,3.3,1.3c2.6-0.7,4,0.1,2.9,3.1c-1.4,4.1,2.6,6.3,3.9,9.5c0.9,2.2,2.9-1.3,3-2.1c0.8-6.5,5.4-6.6,10-5.8
			c4.3,0.7,7.8-2.9,12.1-1.7c0.3,0.1,1.5-1.8,1.6-2.8c0.4-4.1,3.1-6.3,6.8-9.2c-0.8,3.6-1.4,6.4,2.2,7.7c2.5-2.7-2.7-7.6,2.7-9.6
			c2.3,1.6-0.1,3.9,0.8,5.7c0.5,1,0.5,2.4,1.9,2.7c1.7,0.3,1.6-1.2,1.9-2.2c2.5-7.4,3.9-14.9,0.8-22.6c-0.3-0.8-0.8-1.6-0.8-2.4
			c0-11.8-0.5-23.6,0.1-35.3c0.6-10.2,1-20.5,1.6-30.7c0-1.4,0.5-3.5-1.6-3.3C283.6,23.8,284.4,25.9,284.4,27.2z M233.6,149.8
			c1.3,2,3.3,1.4,5.1,1.4c12,0,24,0,35.9,0c1.6,0,3.4-0.4,4.8,0.7c2,1.5,3.7,0.7,5.3-0.7c1.5-1.4,1.7-2.9,1.1-4.9
			c-1.1-3.4-1.2-6.9-0.9-10.6c0.4-5.3,2.1-10.8,0.4-16.2c-0.3-1,0.2-2.7-1.6-2.6c-2,0.1-1.5,1.8-1.5,3c0,7.3,0,14.6,0,22
			c0,4.2-1.2,6.8-6.3,6.5c-12.9-0.9-25.7,1-38.6-0.1C236,148.1,234.6,148,233.6,149.8z M263.1,139c0-2.2,0.1-3.8,0-5.4
			c-0.1-1.5-1.2-2.4-2.3-3c-0.4-0.2-1.5,0.6-2,1.2c-1,1.1-0.1,2.2,0.4,3.1C259.9,136.3,260.6,137.8,263.1,139z"/>
		<path class="st2" d="M413.2,210.2c1-8-0.3-16,0-23.9c0.1-4.1-0.5-8.3,0.8-12.4c0.6-2.1,1-5.1,0-6.9c-5.5-9.2-1.4-19.2-2.5-28.7
			c-1.1-9.8-1.3-19.9,0.6-29.8c1-5-0.6-9.8-2.4-14.3c-1.5,1.9-1.4,1.9-1.5,4.6c-0.5,9.3,0.3,18.5-0.6,27.9c-0.7,6.7-6,6.8-9.4,7.6
			c-4.5,1-6.8,3.4-7.8,6.9c-1.5,5.3-4.6,7.4-9.8,7.1c-1.3-0.1-2.7-0.1-4,0.1c-6.4,1-7.2,0.5-5.1-5.7c1.4-4.2,2.4-8.5,3.9-12.7
			c1.3-3.7,0-8.4-0.7-12.5c-1-5.8-0.4-6.5,5.1-8.4c1.8-0.6,7.3,0.5,4.5-5.1c-1.1-2.2-2.7-1.6-4.2-1.6c-3.7-0.1-4.5-1.6-2.6-4.7
			c4.1-6.8,6.1-15,13.3-20c3.7-2.6,7.4-4.3,11.9-5.4c-4.7-0.4-8.9-1.8-13.2-3.1c-2-0.6-5.3-0.8-5.1-3.8c0.2-2.7,2.9-3.2,5.4-3.1
			c1.9,0,3.5-0.7,4.9-2.4c-4.1-2-8.3-2-12.5-1c-2,0.4-4,0.5-5.9,0.5c-1.7-0.1-4.5,0.8-4.6-1.5c-0.1-2.1-1.8-4.9,1.1-6.8
			c1-0.7,1.7-2,2.4-3.1c0.6-1,1.3-2.1,0.2-3.1c-1.1-1-2.6-0.7-3.8-0.2c-0.8,0.3-2.6,0.2-1.8,2.1c0.6,1.5,0.1,2.9-1.4,3.2
			c-1.5,0.3-2.4-1.1-2.9-2.3c-0.8-1.7,0.4-3.2,1.7-3.6c3.5-1.3,5.7-3.8,7.6-6.8c0.7-1.2,1.5-2.2,1.3-3.6c-0.6-4.5,2.2-7,5.6-8.5
			c8.1-3.4,11.2-10.6,14.1-17.8c0.9-2.2,2.1-4.5,2.3-7c3.7,0,7.3,0,11,0c-1.1,3.1-1,6.4-1,9.7c0,5.2,0.1,10.3,0,15.5
			c-0.4,15.9,0.6,31.8-0.4,47.8c-0.2,3.5-0.8,8,2.6,11.3c0-2.9,0-5.7,0-8.6c0.5,0,1,0,1.4-0.1c0,6.7,0,13.4,0,20.1
			c0.5,0,0.9,0,1.4,0c0-7.4,0-14.9,0-22.3c0-0.6-0.3-1.7-0.4-1.7c-6.3,0.1-1.5-4.2-2.5-6.2c-1-1.9,1.9-1.9,2-3.8
			c0.5-9.9-0.2-19.8-0.5-29.6c-0.4-10.8-0.7-21.4,1.5-32c7,0,7,0,7,7c0,65.3,0,130.7,0,196C420.2,210.2,420.2,210.2,413.2,210.2z"/>
		<path class="st2" d="M331.2,0.2c0.2,2.2-4.3,3.6-1.2,6.4c0.2,0.2,0,1.2-0.3,1.3c-6.2,2.5-1.2,4.4,0.4,6.1c5,5.2,5.5,11.8,5.9,18.4
			c0.4,5,0,10.1,0.1,15.2c0.1,3.3-1,5.4-4.6,4.2c-1.9-0.6-3.7-0.1-4.7,0.8c-3.8,3.1-7.9,3.3-12.3,2.3c-1-0.2-1.2-0.1-1.6,0.9
			c-2.5,5.7-7.4,6-11.4,0.9c-2,0.6-1.8,2.5-1.4,3.6c1.7,4,1,8.4,2.8,12.3c1.4,3.2,2.8,5.2,6.8,6.4c11.6,3.4,21.8,9.5,28.1,20.5
			c1.8,3.3,1.6,6.8-0.6,9.9c-2.1,3-4.9,1.8-7.6,0.8c-2.3-0.8-3-2.9-3.3-4.7c-1.1-6.1-6.1-9.2-9.7-13.1c-2.8-3.1-7.4-0.3-11,0.8
			c-2.5,0.8-3.2,2.5-2.9,5.3c0.3,2.8-1.6,5.3-4.7,5.2c-2.9,0-2.3-2.6-2.8-4.7c-1.2-5.2-1.1-10.5-0.8-15.6c0.5-9.1,0.5-18.4,4.2-27
			c1.1-2.5-1.5-3.7-1.5-6c-0.1-4,1.2-7.9,1.2-11.8c0-12.8,0-25.6,0-38.4C309.2,0.2,320.2,0.2,331.2,0.2z"/>
		<path class="st2" d="M337.2,210.2c0.3-2.2,0.3-2.3,1.9-3c2.9-1.3,5.7-3.1,10-3.4c-4.8-3-9.8-2-13.5-5c-0.9-0.7-2.7,3.5-5.4,3.5
			c-0.1-0.2-0.2-0.4-0.4-0.6c2.3-7.5,8-4.2,13.2-3.8c-2.7-1.9-2.4-4.3-1.3-6.2c1.6-2.7,1-4.4-0.9-6.8c-2.1-2.6,1.4-8.4,4.9-8.7
			c2-0.2,2.9,0.8,2,2.7c-1,2.3,0.2,2.7,2.1,3.3c6.8,2.1,11.4-1,11.4-7.8c0-1.7,0.6-2.9,2.4-3.3c2.1-0.4,4.2-0.9,6.3-1.2
			c6.3-0.9,12.1-1.8,17.3-6.6c4.2-3.8,10.7-4.6,16.8-3.4c1.7,0.3,2.8,1,3,2.7c1.3,10.5,1.9,21.1,0.3,31.7c-0.5,3.6,0.9,6.8,1.2,10.3
			c0.2,1.8,0.5,3.6,0.5,5.4C385.2,210.2,361.2,210.2,337.2,210.2z M359.4,193.9c0-0.4,0-0.8,0-1.2c-5,0-9.9,0-15.3,0
			C349.5,194.9,354.5,194.3,359.4,193.9z"/>
		<path class="st2" d="M224.1,113.5c-0.9,5.9,0.6,11.8,0.3,17.7c-0.1,4.3-0.2,8.6-0.2,12.9c0,2.7-0.8,4.5-4,4.1c0-48,0-96-0.1-144
			c0-3.4,0.7-4.8,4.1-4c-1.5,8-0.4,16.1-0.5,24c-0.1,7.6,0,15.4,0.2,23c0.1,5.4,0.1,11-0.2,16.5c-0.4,8.1,0.6,16.2,0.3,24.3
			c-0.3,8-0.3,15.9,0,23.9C223.2,112.5,223.2,113,224.1,113.5z"/>
		<path class="st2" d="M220.2,151.2c3.5-0.3,4.6,1.9,3.9,4.7c-1.3,5.7,0.1,11.3,0.1,17c0,12.4,0,24.9,0,37.3c-3.4,0.8-4.1-0.6-4.1-4
			C220.3,187.9,220.2,169.5,220.2,151.2z"/>
		<path class="st2" d="M394.2,0.2c-0.2,3.8-2.4,6.7-4.3,9.8c-1.7-0.8-2-2.3-2.6-3.6c-0.8-1.7-1.7-2-3.4-1.1c-1.9,1-4.4,2.7-4.2-1.9
			c0.1-1.9-3.8-0.4-3.5-3.1C382.2,0.2,388.2,0.2,394.2,0.2z"/>
		<path class="st2" d="M236.2,0.2c0.2,1.7-0.7,2.7-2,3.7c-1.8,1.3-5.2,2.7-0.6,4.9c0.7,0.3,0.5,1.6-0.3,2.1
			c-1.2,0.7-2.6,1.6-3.9,1.8c-0.8,0.1-1.6-1.5-1.2-2.4c1.7-3.4-0.2-6.7-0.1-10.1C230.9,0.2,233.5,0.2,236.2,0.2z"/>
		<path class="st2" d="M276.3,3.1c-1.2-1.8-4.5,0.1-5.1-2.9c4.3,0,8.7,0,13,0c1,2.1-1.4,2.1-2,3.1C280.2,3.3,278.2,3.2,276.3,3.1z"
			/>
		<path class="st2" d="M339.9,151.8c-2.2,1.9-2,4.5-2.7,6.8c-1.2,3.7-3.4,4.2-6.1,1.4c-8.5-8.8-6.2-21.4,5-26.6
			c2.2-1,2.8-1.8,0.7-3.3c-1.7-1.2-1.9-2.7-0.7-4.3c3.2-4.5,6.7-8.5,13-8.6c13.3-0.2,13.7-0.2,13,13c-0.4,7,0.2,14.7-5.7,20.4
			c-0.6,0.6-1.2,1.4-0.7,2.2c3.5,5.3-1.3,8.6-3.2,12.4c-1.8,3.5-6.8,2.4-9.8-0.4C338.6,160.8,339.8,156.4,339.9,151.8z"/>
		<path class="st2" d="M319.5,65.8c10.2,1.9,20.1,4.5,26.2,14.3c0.9,1.5,1.4,2.8,1.7,4.5c0.2,1.8,0.2,3,3.5,2.4
			c4.3-0.8,7.6,3.8,11.3,6c1.2,0.7,2.1,2.3,3.7,1.7c1.3-0.5,2.6-2.1,3.3,0.5c0.5,1.8,0.3,3.6-1.4,5c-2.1,1.7-2.6-0.4-3.4-1.4
			c-2-2.6-4.7-3.3-7.8-4.4c-7.6-2.8-14.7-7.1-22.1-10.7c-4.6-2.2-9.3-4.2-13.9-6.4c-2.4-1.2-4.6-2.6-6.8-4.2c-1.5-1-2.9-2.4-2.5-4.5
			c0.4-2.4,2.5-2.1,4.2-2.7C316.9,65.4,318,65.6,319.5,65.8z"/>
		<path class="st2" d="M385.3,10.1c-1.4,2.7,1.4,6.5-2,8.4c-4.6,2.5-9.7,4.7-14.9,4.5c-4.3-0.2-8.6,0.4-12.9,0.2
			c-3.4-0.1-5-1.3-5.1-4.5c-0.1-3.2,0.4-6.2,4.5-6.4c6.4-0.2,12.8-1,19.3-0.4C377.6,12.2,381.1,9.5,385.3,10.1z"/>
		<path class="st2" d="M362.1,53.9c0,0.7,0,1.1-0.1,1.4c-2.4,4.6-6.3-0.5-9.4,1.4c-0.7,0.4-3-2-1.9-4.2c2.9-6.2,2.3-12.4,0.7-18.7
			c-0.2-0.9-0.1-2-0.1-3c0.1-1.8-0.3-4.4,2.2-4.1c2.3,0.3,5.3,1.6,4.5,4.9c-1.3,5.4-1,10.7-0.2,16.2c0.2,1.7,0.1,1.8,1.9,2.1
			C360.7,50,361.4,52.6,362.1,53.9z"/>
		<path class="st2" d="M340.5,40.5c-0.6-3.3,0.2-6.6-1-9.9c-0.7-1.9,0.4-3.6,2-4.8c1.5-1.1,3.2-0.7,3.3,1.2
			c0.3,8.1,0.3,16.2,0.4,24.3c0,1.5-0.8,2.7-2.3,2.7c-1.7,0-2.2-1.6-2.3-2.8C340.4,47.7,340.5,44.1,340.5,40.5z"/>
		<path class="st2" d="M357.6,73.9c1.6-3.6,4-3.5,7.1-2.5c4.1,1.4,5.9,5,8.7,7.7c1.4,1.3,0.2,2.5-0.5,3.6c-0.7,1.3-1.9,1.9-3.4,1.2
			c-3-1.4-6.1-2.8-7.5-6.2C361.1,75.7,360,74.1,357.6,73.9z"/>
		<path class="st2" d="M378.2,151.2c2.2-0.5,3.8,1,4.4,2.8c0.6,1.8-1.4,3.1-2.7,3.7c-3.1,1.4-6.3,2.6-9.6,3.4c-2,0.5-3.6-0.2-2.4-3
			C370.2,152.7,372.2,151.2,378.2,151.2z"/>
		<path class="st2" d="M320.5,128.1c-1.2,0.1-2.3-0.3-2.9-1.4c-0.7-1.3,0.1-2.2,1.2-2.8c2.9-1.5,5.2-4.6,9-4c1.7,0.2,2-1.4,3-2.2
			c0.8-0.7,1.9-0.8,2.7-0.1c1,0.8,0.5,1.7,0,2.6C331.3,125.1,326.3,128.1,320.5,128.1z"/>
		<path class="st2" d="M298.4,135.3c1.8,1.3,3.2,2.3,2.6,4c-0.7,1.8,0,2.2,1.3,1.8c3.5-1,2.4,2.4,2.6,3.2c0.3,2.1-0.7,4.3-3.2,4.7
			c-1.6,0.3-3.5,0.8-4.6-1.6C295.2,143.1,297.3,139.5,298.4,135.3z"/>
		<path class="st2" d="M358.2,103c-0.8,2.9-2.4,3.7-4,3.8c-3.7,0.4-10.7-5.1-11.5-8.6c-0.4-1.8,1.1-2.5,1.7-1.7
			c2.9,3.9,7.4,3.6,11.3,5C356.8,101.9,357.7,102.7,358.2,103z"/>
		<path class="st2" d="M408.1,141.1c0,1.5,0.1,3,0,4.5c-0.3,2.7-2.4,2.9-4.5,2.5c-2.3-0.5-2.7-1.9-1.8-4.1c1.1-2.5,2.3-5,2.8-7.7
			c0.2-1.2,0-2.4,1.3-2.6c1.4-0.2,1.8,1.4,2,2.4c0.3,1.6,0.2,3.3,0.3,4.9C408.2,141.1,408.2,141.1,408.1,141.1z"/>
		<path class="st2" d="M297.8,109.6c1.8-0.4,3.4-0.4,4.6-1.1c3.9-2.1,3.5,0.3,3.2,2.8c-0.3,2.7-2.4,4.5-4.1,5.5
			c-1.9,1.1-3.4-1.5-2.6-3.2C299.7,111.6,297.9,111,297.8,109.6z"/>
		<path class="st2" d="M371.7,30.7c-1.5,3.8-4,4.9-7.8,3.5c-1.9-0.7-2.1-1.7-0.6-2.8C365.9,29.5,368.6,28,371.7,30.7z"/>
		<path class="st2" d="M300.3,126.3c-0.4,1.4,0.5,3.5-1.3,3.4c-2.2-0.2-2.9-2.2-2.8-4.5c0.1-1.6,0.6-3.4,2.2-3.2
			C301.3,122.3,299.6,125,300.3,126.3z"/>
		<path class="st2" d="M341.1,6.4c0,1.7-0.9,2.5-2.4,2.7c-1.8,0.2-3.3-0.5-3.4-2.6c-0.1-1.4,0.2-2.9,1.8-2.9
			C338.9,3.6,340.5,4.5,341.1,6.4z"/>
		<path class="st2" d="M404.9,157c-1.2-1.1-4-0.3-4.2-2.5c-0.1-1.5,1.4-2.4,3.2-2.3c1.9,0.1,3.2,0.9,3.2,2.9
			C407.2,156.5,406.5,157.3,404.9,157z"/>
		<path class="st2" d="M345.9,59.9c-0.1,1.5-1.1,2.2-2.6,2.3c-2,0.1-2.6-1.4-2.8-2.8c-0.2-1.4,1-1.9,2.3-2.1
			C344.7,57,345.3,58.5,345.9,59.9z"/>
		<path class="st2" d="M303.2,204.9c-1.4-0.4-2.2-1.3-1.8-2.6c0.5-1.8,1.8-3.3,3.5-3.6c1-0.1,1.4,1.6,1.2,2.8
			C305.9,203.4,304.8,204.5,303.2,204.9z"/>
		<path class="st2" d="M370,57.1c-0.3,1.3-1.1,2.1-2.5,1.9c-1.3-0.1-2.3-0.9-1.9-2.3c0.2-0.9,0.6-2.2,1.7-2.2
			C368.7,54.7,369.5,55.8,370,57.1z"/>
		<path class="st2" d="M400.9,138.2c-0.6,1.7-1.6,2.7-3.1,2.9c-0.9,0.2-2.3,0.2-2.1-1.2c0.2-1.6,2-2,3.3-2.5
			C399.8,137,400.5,137.5,400.9,138.2z"/>
		<path class="st2" d="M352,6.5c2.8-4.3,4.2-2.8,5.9,0.5C355.8,6.8,354.2,6.7,352,6.5z"/>
		<path class="st2" d="M322.6,206.6c-0.1-2.4-2.9-3.1-1.5-5c0.7-0.9,2.5-0.9,3.2,0C325.6,203.3,323.9,204.5,322.6,206.6z"/>
		<path class="st2" d="M294,192.4c1.5-0.2,2.1,0.5,2.2,1.6c0.1,1.2-0.3,2.6-1.5,2.7c-1.1,0.1-2-1.2-2.2-2.3
			C292.3,193.2,293.4,192.8,294,192.4z"/>
		<path class="st2" d="M337.9,57.4c-0.5,1.3-1.3,1.9-2.7,1.7c-0.9-0.1-1.6-0.8-1.6-1.6c0-1.4,1.4-1.8,2.5-1.9
			C337.2,55.4,337.8,56.3,337.9,57.4z"/>
		<path class="st2" d="M330.2,202.2c-0.2,0.2-0.4,0.5-0.6,0.7c-0.4-0.5-0.3-0.9,0.2-1.2C330,201.8,330.1,202,330.2,202.2z"/>
		<path class="st2" d="M253.8,114.7c-0.4,1.1-1.4,2.6-3.1,2.3c-1.6-0.3-4.4,0-4.4-2.8c0-2.6,1.7-3.7,4.1-4
			C253.5,109.8,253.1,112.4,253.8,114.7z"/>
		<path class="st2" d="M229.9,47.2c2.9,2.6,4.3,5.1,2.7,8.3c-0.6,1.2-2.3,1-3.1,0.2C226.7,53,228.8,50.3,229.9,47.2z"/>
		<path class="st2" d="M266.9,64.9c-1.1-1.2-0.4-3.2-2.4-4c-2.1-0.8-0.5-2.4,0.2-3.1c1.4-1.4,2.3-0.1,2.9,1.2
			C268.6,61.1,268.6,63.1,266.9,64.9z"/>
		<path class="st2" d="M249.1,26.7c-3.4,0.9-3.6-1.5-4.7-2.7c-0.9-1-1.7-2.2-0.6-3.5c0.3-0.4,0.9-0.8,1.2-0.7
			c1.7,0.3,1.2,1.8,1.2,2.8C246.2,24.4,248.2,24.9,249.1,26.7z"/>
	</g>
	<g>
		<path class="st0" d="M551.3,0.2c15,0,30,0,45,0c-0.3,2.7,3.6,1.3,3.5,3.1c-0.3,4.6,2.3,2.9,4.2,1.9c1.7-0.9,2.6-0.6,3.4,1.1
			c0.6,1.3,1,2.8,2.6,3.6c1.9-3,4.1-5.9,4.3-9.8c1.3,0,2.7,0,4,0c-0.2,2.5-1.4,4.8-2.3,7c-3,7.2-6.1,14.4-14.1,17.8
			c-3.4,1.4-6.2,4-5.6,8.5c0.2,1.4-0.5,2.5-1.3,3.6c-1.9,3-4.1,5.5-7.6,6.8c-1.3,0.5-2.5,1.9-1.7,3.6c0.5,1.2,1.4,2.6,2.9,2.3
			c1.5-0.3,2-1.7,1.4-3.2c-0.8-2,1.1-1.8,1.8-2.1c1.2-0.5,2.7-0.8,3.8,0.2c1.1,1,0.5,2.2-0.2,3.1c-0.7,1.1-1.4,2.4-2.4,3.1
			c-2.8,1.9-1.2,4.7-1.1,6.8c0.1,2.3,2.9,1.4,4.6,1.5c2,0.1,3.9,0,5.9-0.5c4.1-0.9,8.3-1,12.5,1c-1.3,1.7-3,2.5-4.9,2.4
			c-2.5-0.1-5.2,0.4-5.4,3.1c-0.2,2.9,3,3.1,5.1,3.8c4.2,1.3,8.5,2.7,13.2,3.1c-4.5,1.1-8.2,2.8-11.9,5.4c-7.2,5-9.2,13.2-13.3,20
			c-1.9,3.1-1.1,4.6,2.6,4.7c1.5,0,3.1-0.6,4.2,1.6c2.8,5.6-2.8,4.5-4.5,5.1c-5.5,1.8-6.1,2.6-5.1,8.4c0.7,4.2,1.9,8.9,0.7,12.5
			c-1.5,4.2-2.5,8.5-3.9,12.7c-2.1,6.2-1.3,6.7,5.1,5.7c1.3-0.2,2.7-0.2,4-0.1c5.2,0.3,8.3-1.8,9.8-7.1c1-3.5,3.3-5.9,7.8-6.9
			c3.4-0.8,8.7-0.9,9.4-7.6c1-9.3,0.2-18.6,0.6-27.9c0.1-2.8,0-2.8,1.5-4.6c1.8,4.5,3.4,9.3,2.4,14.3c-1.9,9.9-1.7,20-0.6,29.8
			c1.1,9.5-3,19.5,2.5,28.7c1,1.7,0.6,4.7,0,6.9c-1.2,4.1-0.6,8.3-0.8,12.4c-0.3,8,0.9,16,0,23.9c-1.3,0-2.7,0-4,0
			c0-1.8-0.4-3.6-0.5-5.4c-0.3-3.4-1.7-6.6-1.2-10.3c1.6-10.5,0.9-21.1-0.3-31.7c-0.2-1.7-1.3-2.4-3-2.7c-6.1-1.2-12.6-0.4-16.8,3.4
			c-5.3,4.7-11.1,5.7-17.3,6.6c-2.1,0.3-4.2,0.7-6.3,1.2c-1.8,0.4-2.4,1.5-2.4,3.3c0,6.8-4.6,9.8-11.4,7.8c-1.9-0.6-3.1-1-2.1-3.3
			c0.9-1.9,0-2.9-2-2.7c-3.5,0.3-7,6.1-4.9,8.7c1.9,2.4,2.5,4.1,0.9,6.8c-1.1,1.9-1.4,4.2,1.3,6.2c-5.2-0.4-10.9-3.7-13.2,3.8
			c-0.5,0.3-0.6,0.8-0.2,1.2c0.2-0.2,0.4-0.5,0.6-0.7c2.7,0,4.5-4.2,5.4-3.5c3.7,3,8.8,2,13.5,5c-4.4,0.3-7.1,2.1-10,3.4
			c-1.6,0.7-1.6,0.8-1.9,3c-11.7,0-23.3,0-35,0c-0.1-1.2-1.1-1.7-2-1.8c-3.4-0.4-6.2-1.4-6.1-5.7c0-0.5-0.6-1.3-1.1-1.5
			c-5-1.6-5-5.1-3.8-9.3c0.3-0.9,0-2-0.2-3c-1-6.3,2.4-10.8,8.7-10.6c4.3,0.1,8.2-0.9,12-2.4c6.7-2.6,14.1-13.1,12.1-18.2
			c-2-5.1-2.3-10.3-0.8-15.6c0.7-2.7-0.3-4-3.3-3.9c-5.4,0.2-6.8,4.2-6.9,8.2c-0.1,4.9-3,5.5-6.6,5.8c-1.5,0.1-3,0.1-4.5,0
			c-4.4-0.2-5.8,1.4-3.2,5c4,5.7-0.2,4.3-3.3,5.1c-3.7,0.9-8.7-3.6-11.1,2.6c0,0.1-0.3,0.1-0.5,0.1c-5.7-1.7-11.9,0.6-17.3-1.2
			c-6.2-2.1-11.9-1.8-18-0.6c-0.8,0.2-1.6,0.4-2.4,0.6c-3.7,0.9-6.1,0.1-5.1-1.1c1.9-2.4,4.8-2.5,7.7-2.5c9.7,0,19.3,0,29,0
			c2.6,0,5.6,0.5,5.8-3.5c0.1-1.1,0.9-1.4,1.8-0.9c0.6,0.3,1.9,0.3,1.5,1.5c-1.2,4.2,2,2.8,3.8,2.9c2.9,0.2,4.8-1.6,5.5-4.1
			c0.5-2-1.3-3.2-3.2-3.8c-1.1-0.3-2.7-0.1-2-1.9c0.4-1.1-0.1-3.2,2.6-2.7c2.2,0.4,2-1.2,2.4-3c1.6-7.2-1.8-14.5,0.6-21.6
			c0.9-2.9-2-5.1-1.1-7.9c0.1-0.4-0.3-1-0.8-0.6c-2.9,2.3-1.8-0.5-2.1-1.6c-0.4-1.5,0.4-2.8,0.4-4.3c0-4.2-4.1-8.9,1.4-12.6
			c0.8-0.5,0.3-2.5-0.3-3.8c-0.8-1.7-0.9-3.7-0.4-5.4c1.8-7-0.3-14.4,2-21.2c1.5-4.4-0.8-8.4-0.4-12.5c0.4-5.3,1.4-10.5,2.1-15.8
			c1.8-12.3,1.2-24.7,1.2-37.1c0.7,0,1.3,0,2,0c0,12.8,0,25.6,0,38.4c0,4-1.3,7.8-1.2,11.8c0.1,2.2,2.6,3.4,1.5,6
			c-3.6,8.6-3.7,17.9-4.2,27c-0.3,5.1-0.4,10.4,0.8,15.6c0.5,2.1-0.1,4.7,2.8,4.7c3.1,0,5-2.4,4.7-5.2c-0.2-2.8,0.4-4.5,2.9-5.3
			c3.7-1.1,8.2-3.9,11-0.8c3.6,3.9,8.7,7.1,9.7,13.1c0.3,1.7,1,3.9,3.3,4.7c2.7,0.9,5.5,2.2,7.6-0.8c2.2-3.1,2.4-6.6,0.6-9.9
			c-6.2-11-16.4-17.1-28.1-20.5c-4.1-1.2-5.4-3.2-6.8-6.4c-1.8-3.9-1.2-8.3-2.8-12.3c-0.5-1.1-0.6-3,1.4-3.6c4,5.1,8.9,4.8,11.4-0.9
			c0.4-1,0.6-1.1,1.6-0.9c4.4,1,8.5,0.8,12.3-2.3c1-0.8,2.8-1.4,4.7-0.8c3.7,1.3,4.7-0.9,4.6-4.2c-0.1-5.1,0.3-10.2-0.1-15.2
			c-0.5-6.6-1-13.2-5.9-18.4c-1.7-1.8-6.6-3.7-0.4-6.1c0.3-0.1,0.5-1.2,0.3-1.3C547,3.8,551.5,2.4,551.3,0.2z M560,151.8
			c-0.1,4.6-1.3,9,2.8,12.9c2.9,2.8,8,3.9,9.8,0.4c1.9-3.7,6.7-7.1,3.2-12.4c-0.5-0.8,0.1-1.6,0.7-2.2c5.9-5.7,5.3-13.4,5.7-20.4
			c0.7-13.2,0.3-13.2-13-13c-6.3,0.1-9.8,4.1-13,8.6c-1.2,1.6-0.9,3.1,0.7,4.3c2.1,1.5,1.5,2.3-0.7,3.3c-11.2,5.2-13.5,17.8-5,26.6
			c2.7,2.8,4.9,2.2,6.1-1.4C558,156.3,557.9,153.7,560,151.8z M539.6,65.8c-1.4-0.2-2.5-0.3-3.9,0.2c-1.7,0.6-3.8,0.3-4.2,2.7
			c-0.4,2.1,1,3.5,2.5,4.5c2.2,1.5,4.4,3,6.8,4.2c4.6,2.3,9.3,4.2,13.9,6.4c7.4,3.6,14.4,7.9,22.1,10.7c3.1,1.1,5.8,1.8,7.8,4.4
			c0.8,1,1.3,3.1,3.4,1.4c1.7-1.4,1.8-3.1,1.4-5c-0.6-2.6-2-1-3.3-0.5c-1.6,0.6-2.5-1-3.7-1.7c-3.7-2.3-6.9-6.9-11.3-6
			c-3.3,0.6-3.2-0.6-3.5-2.4c-0.2-1.7-0.7-3-1.7-4.5C559.6,70.3,549.8,67.6,539.6,65.8z M605.4,10.1c-4.2-0.6-7.7,2.1-11.2,1.8
			c-6.5-0.6-12.9,0.2-19.3,0.4c-4.1,0.2-4.6,3.2-4.5,6.4c0.1,3.2,1.7,4.4,5.1,4.5c4.3,0.2,8.6-0.4,12.9-0.2c5.3,0.2,10.3-2,14.9-4.5
			C606.8,16.5,604,12.7,605.4,10.1z M582.2,53.9c-0.7-1.2-1.4-3.8-2.6-4c-1.8-0.3-1.6-0.5-1.9-2.1c-0.8-5.5-1.1-10.8,0.2-16.2
			c0.8-3.2-2.2-4.6-4.5-4.9c-2.5-0.3-2.2,2.3-2.2,4.1c0,1-0.2,2,0.1,3c1.7,6.3,2.2,12.6-0.7,18.7c-1,2.2,1.3,4.6,1.9,4.2
			c3.1-1.9,7,3.2,9.4-1.4C582.3,55,582.2,54.6,582.2,53.9z M560.6,40.5c0,3.6-0.1,7.2,0.1,10.8c0.1,1.2,0.6,2.8,2.3,2.8
			c1.5,0,2.3-1.2,2.3-2.7c-0.1-8.1-0.1-16.2-0.4-24.3c-0.1-2-1.8-2.3-3.3-1.2c-1.5,1.1-2.6,2.9-2,4.8
			C560.8,33.9,560,37.2,560.6,40.5z M577.7,73.9c2.3,0.2,3.5,1.8,4.4,3.8c1.5,3.3,4.5,4.8,7.5,6.2c1.5,0.7,2.6,0,3.4-1.2
			c0.6-1.1,1.8-2.3,0.5-3.6c-2.8-2.6-4.6-6.3-8.7-7.7C581.8,70.4,579.3,70.2,577.7,73.9z M598.3,151.2c-6,0-8,1.5-10.3,6.8
			c-1.2,2.9,0.4,3.5,2.4,3c3.3-0.8,6.5-2,9.6-3.4c1.3-0.6,3.3-1.9,2.7-3.7C602.1,152.2,600.5,150.8,598.3,151.2z M540.6,128.2
			c5.8,0,10.8-3.1,13-7.9c0.4-0.9,0.9-1.9,0-2.6c-0.8-0.7-1.9-0.5-2.7,0.1c-1,0.8-1.3,2.4-3,2.2c-3.9-0.5-6.1,2.5-9,4
			c-1.1,0.6-1.9,1.5-1.2,2.8C538.3,127.9,539.4,128.2,540.6,128.2z M518.5,135.3c-1.1,4.1-3.3,7.8-1.3,12.1c1.1,2.4,3,1.9,4.6,1.6
			c2.5-0.4,3.5-2.6,3.2-4.7c-0.1-0.8,0.9-4.2-2.6-3.2c-1.4,0.4-2.1,0-1.3-1.8C521.8,137.7,520.3,136.6,518.5,135.3z M578.3,103
			c-0.5-0.3-1.4-1.1-2.5-1.5c-3.9-1.4-8.4-1.1-11.3-5c-0.6-0.8-2.1-0.2-1.7,1.7c0.8,3.6,7.8,9,11.5,8.6
			C576,106.7,577.5,106,578.3,103z M628.2,141.1c0,0,0.1,0,0.1,0c-0.1-1.7,0-3.3-0.3-4.9c-0.2-1-0.6-2.6-2-2.4
			c-1.4,0.2-1.1,1.4-1.3,2.6c-0.5,2.6-1.7,5.2-2.8,7.7c-1,2.2-0.5,3.6,1.8,4.1c2,0.4,4.2,0.2,4.5-2.5
			C628.4,144.1,628.2,142.6,628.2,141.1z M517.9,109.6c0.1,1.4,2,2,1.1,4c-0.7,1.7,0.7,4.3,2.6,3.2c1.7-1,3.9-2.8,4.1-5.5
			c0.3-2.5,0.7-4.9-3.2-2.8C521.3,109.2,519.7,109.2,517.9,109.6z M591.8,30.7c-3-2.7-5.8-1.2-8.4,0.7c-1.5,1.1-1.3,2.1,0.6,2.8
			C587.7,35.5,590.3,34.4,591.8,30.7z M520.4,126.3c-0.7-1.4,1-4.1-1.9-4.4c-1.5-0.2-2.1,1.6-2.2,3.2c-0.1,2.3,0.6,4.3,2.8,4.5
			C520.9,129.9,520,127.7,520.4,126.3z M561.2,6.4c-0.6-1.9-2.2-2.9-4-2.8c-1.6,0-1.9,1.5-1.8,2.9c0.2,2.1,1.6,2.7,3.4,2.6
			C560.3,9,561.2,8.1,561.2,6.4z M625,157c1.6,0.2,2.3-0.6,2.2-1.9c-0.1-2-1.3-2.8-3.2-2.9c-1.8-0.1-3.3,0.8-3.2,2.3
			C621,156.7,623.8,156,625,157z M566,59.9c-0.6-1.4-1.2-2.9-3.1-2.7c-1.2,0.1-2.4,0.7-2.3,2.1c0.2,1.4,0.8,2.9,2.8,2.8
			C565,62.1,565.9,61.4,566,59.9z M523.3,204.9c1.6-0.5,2.7-1.6,3-3.3c0.2-1.2-0.3-3-1.2-2.8c-1.7,0.3-3,1.8-3.5,3.6
			C521.1,203.7,521.9,204.5,523.3,204.9z M590.1,57.1c-0.4-1.4-1.3-2.5-2.7-2.5c-1.1,0-1.5,1.3-1.7,2.2c-0.4,1.4,0.6,2.2,1.9,2.3
			C588.9,59.2,589.7,58.4,590.1,57.1z M621,138.2c-0.4-0.7-1.2-1.1-2-0.8c-1.3,0.6-3.1,0.9-3.3,2.5c-0.2,1.3,1.2,1.3,2.1,1.2
			C619.5,140.8,620.5,139.9,621,138.2z M572.1,6.5c2.2,0.2,3.8,0.3,5.9,0.5C576.3,3.7,574.9,2.2,572.1,6.5z M542.7,206.6
			c1.3-2.1,3.1-3.3,1.7-5c-0.7-0.8-2.5-0.8-3.2,0C539.8,203.5,542.5,204.2,542.7,206.6z M514.1,192.4c-0.6,0.4-1.6,0.8-1.4,2
			c0.2,1.1,1,2.4,2.2,2.3c1.2-0.1,1.5-1.4,1.5-2.7C516.2,192.9,515.6,192.3,514.1,192.4z M558,57.4c-0.1-1.1-0.7-2-1.8-1.8
			c-1.1,0.2-2.4,0.5-2.5,1.9c0,0.8,0.7,1.5,1.6,1.6C556.7,59.3,557.5,58.6,558,57.4z"/>
		<path class="st1" d="M504.3,0.2c1.7,0,3.3,0,5,0c0,3.5,0.3,7-1.9,10c-2.2,1.2-2.5,2.5-0.3,4c0.1,0.8,0.2,1.6-0.7,2.1
			c-0.9-0.2-1.9-0.4-2.8-0.7c-1.5-0.5-3.4-2.2-4.4-0.8c-1.4,1.8,0.6,3.5,1.7,5c0.2,0.3,0.4,0.5,0.5,0.8c-0.1,1.9,0,3.9-0.4,5.8
			c-0.2,1.3-1,2.7,0.6,3.3c2,0.7,2.3-1.1,2.8-2.5c0.9-0.1,1.8-0.2,2.7-0.3c-0.6,10.2-1,20.5-1.6,30.7c-0.7,11.7-0.2,23.5-0.1,35.3
			c0,0.8,0.5,1.6,0.8,2.4c3.1,7.7,1.7,15.1-0.8,22.6c-0.4,1.1-0.3,2.5-1.9,2.2c-1.3-0.2-1.4-1.7-1.9-2.7c-0.9-1.8,1.6-4.1-0.8-5.7
			c-5.4,2-0.2,6.9-2.7,9.6c-3.5-1.2-2.9-4.1-2.2-7.7c-3.6,2.9-6.4,5.1-6.8,9.2c-0.1,1-1.3,2.9-1.6,2.8c-4.3-1.2-7.8,2.4-12.1,1.7
			c-4.6-0.8-9.2-0.7-10,5.8c-0.1,0.8-2.2,4.2-3,2.1c-1.3-3.1-5.3-5.3-3.9-9.5c1-3-0.4-3.8-2.9-3.1c-1.6,0.4-2.9,1-3.3-1.3
			c-0.2-1,0.4-2.7-1.4-2.6c-1.3,0.1-1.8,1.6-2,2.6c-0.5,1.9-0.5,3.9-0.7,5.9c-1.2,0.7-1.3,1.3,0,2c-0.3,1.3-0.7,2.6-1,3.9
			c-0.9-0.6-1.7-1.3-2.6-1.9c0.3-5.9-1.2-11.8-0.3-17.7c0-0.5,0-1,0-1.5c-0.3-8-0.3-15.9,0-23.9c0.3-8.1-0.7-16.2-0.3-24.3
			c0.2-5.5,0.3-11.1,0.2-16.5c-0.2-7.7-0.3-15.5-0.2-23c0.1-7.9-1.1-16.1,0.5-24c1.3,0,2.7,0,4,0c-0.2,3.4,1.8,6.7,0.1,10.1
			c-0.4,0.9,0.4,2.5,1.2,2.4c1.4-0.2,2.7-1,3.9-1.8c0.8-0.5,0.9-1.8,0.3-2.1c-4.7-2.3-1.2-3.6,0.6-4.9c1.3-1,2.2-2,2-3.7
			c11.7,0,23.3,0,35,0c0.5,3,3.8,1.1,5.1,2.9c0.6,2.4,0.9,5.2,4.2,4.9c3.2-0.3,1.5-2.9,1.7-4.6C502.9,2.3,505.3,2.3,504.3,0.2z
			 M473.9,114.7c-0.8-2.4-0.4-4.9-3.4-4.5c-2.4,0.3-4.1,1.4-4.1,4c0.1,2.8,2.8,2.5,4.4,2.8C472.5,117.3,473.6,115.8,473.9,114.7z
			 M450,47.2c-1.2,3.1-3.2,5.7-0.4,8.4c0.8,0.8,2.5,1,3.1-0.2C454.4,52.4,452.9,49.9,450,47.2z M487,64.9c1.7-1.9,1.7-3.8,0.6-5.9
			c-0.6-1.3-1.5-2.5-2.9-1.2c-0.7,0.7-2.3,2.3-0.2,3.1C486.6,61.7,485.9,63.7,487,64.9z M469.2,26.7c-0.8-1.8-2.9-2.3-2.9-4.1
			c0-1,0.5-2.5-1.2-2.8c-0.4-0.1-0.9,0.4-1.2,0.7c-1.1,1.4-0.3,2.5,0.6,3.5C465.6,25.2,465.8,27.6,469.2,26.7z"/>
		<path class="st0" d="M633.3,0.2c-2.2,10.6-1.9,21.2-1.5,32c0.4,9.8,1,19.7,0.5,29.6c-0.1,1.9-3,1.8-2,3.8c1,2-3.8,6.3,2.5,6.2
			c0.1,0,0.4,1.1,0.4,1.7c0,7.4,0,14.9,0,22.3c-0.5,0-0.9,0-1.4,0c0-6.7,0-13.4,0-20.1c-0.5,0-1,0-1.4,0.1c0,2.9,0,5.7,0,8.6
			c-3.4-3.3-2.8-7.9-2.6-11.3c1-15.9,0.1-31.9,0.4-47.8c0.1-5.2,0-10.3,0-15.5c0-3.3-0.1-6.5,1-9.7C630.6,0.2,632,0.2,633.3,0.2z"/>
		<path class="st0" d="M440.3,148.2c3.2,0.5,4-1.4,4-4.1c0-4.3,0.1-8.6,0.2-12.9c0.9,0.6,1.7,1.3,2.6,1.9c1.7,5.4,2.5,11.5,1.5,16.5
			c-2.2,11.3-0.4,22.4-1.3,33.6c-0.7,9-1.1,18-1,27c-0.7,0-1.3,0-2,0c0-12.4,0-24.9,0-37.3c0-5.7-1.4-11.3-0.1-17
			c0.6-2.8-0.4-5-3.9-4.7C440.3,150.2,440.3,149.2,440.3,148.2z"/>
		<path class="st0" d="M506.5,16.3c0,2.3,0,4.5,0,6.8c0.2,0.5,0.4,1,0.7,1.5c-1,2.4-1.9,2-2.7-0.1c-0.6-1.7-0.6-3.7-3-4
			c-0.2-0.3-0.4-0.5-0.5-0.8c-1.1-1.5-3.1-3.2-1.7-5c1.1-1.3,2.9,0.3,4.4,0.8C504.6,15.9,505.5,16,506.5,16.3z"/>
		<path class="st0" d="M496.4,3.1c2,0.1,4,0.2,5.9,0.3c-0.2,1.7,1.5,4.3-1.7,4.6C497.3,8.3,496.9,5.5,496.4,3.1z"/>
		<path class="st0" d="M507.5,10.2c-0.1,1.3-0.2,2.7-0.3,4C505,12.7,505.2,11.4,507.5,10.2z"/>
		<path class="st0" d="M504.5,27.2c0.1-1.3-0.8-3.4,1.1-3.6c2.1-0.2,1.6,1.9,1.6,3.3C506.2,27,505.4,27.1,504.5,27.2z"/>
		<path class="st0" d="M448.2,127.2c0,0.7,0,1.3,0,2C446.9,128.5,446.9,127.9,448.2,127.2z"/>
		<path class="st0" d="M444.2,113.5c-0.9-0.5-0.9-1,0-1.5C444.2,112.5,444.2,113,444.2,113.5z"/>
		<path class="st0" d="M453.7,149.8c1-1.7,2.4-1.7,3.7-1.5c12.9,1.1,25.8-0.9,38.6,0.1c5.1,0.4,6.3-2.3,6.3-6.5c0-7.3,0-14.6,0-22
			c0-1.2-0.4-2.9,1.5-3c1.7-0.1,1.2,1.6,1.6,2.6c1.7,5.4,0,10.9-0.4,16.2c-0.3,3.7-0.1,7.2,0.9,10.6c0.6,2,0.5,3.6-1.1,4.9
			c-1.6,1.4-3.2,2.2-5.3,0.7c-1.5-1.1-3.2-0.7-4.8-0.7c-12,0-24,0-35.9,0C457,151.2,455,151.7,453.7,149.8z"/>
		<path class="st0" d="M483.2,139c-2.5-1.1-3.2-2.6-4-4c-0.6-1-1.4-2-0.4-3.1c0.5-0.6,1.6-1.4,2-1.2c1.2,0.5,2.2,1.5,2.3,3
			C483.3,135.2,483.2,136.8,483.2,139z"/>
		<path class="st0" d="M506.4,23.1c0.7,0.3,0.8,0.8,0.7,1.5C506.9,24.1,506.7,23.6,506.4,23.1z"/>
		<path class="st0" d="M579.5,193.9c-5,0.4-10,1-15.3-1.2c5.4,0,10.3,0,15.3,0C579.6,193.1,579.6,193.5,579.5,193.9z"/>
	</g>
</g>
<g>
</g>
<g>
</g>
<g>
</g>
<g>
</g>
<g>
</g>
<g>
</g>
<g>
</g>
<g>
</g>
<g>
</g>
<g>
</g>
<g>
</g>
<g>
</g>
<g>
</g>
<g>
</g>
<g>
</g>
</svg>
