<?xml version="1.0" encoding="utf-8"?>
<!-- Generator: Adobe Illustrator 17.1.0, SVG Export Plug-In . SVG Version: 6.00 Build 0)  -->
<!DOCTYPE svg PUBLIC "-//W3C//DTD SVG 1.1//EN" "http://www.w3.org/Graphics/SVG/1.1/DTD/svg11.dtd">
<svg version="1.1" id="Layer_1" xmlns="http://www.w3.org/2000/svg" xmlns:xlink="http://www.w3.org/1999/xlink" x="0px" y="0px"
	 viewBox="0 0 623.3 272.2" style="enable-background:new 0 0 623.3 272.2;" xml:space="preserve">
<style type="text/css">
	.st0{fill:#F50001;}
	.st1{fill:#020101;}
</style>
<g>
	<g>
		<g>
			<path class="st0" d="M14.9,114.3c0.6,0,1.2,0.2,1.7,0.5c1.7,1,3.5,2,5.2,3c2.3,1.5,4.9,2.5,7.5,3.2c2.3,0.6,4.5,1.2,6.8,1.8
				c0.7,0.2,1.4,0.2,2,0.1c0.5-0.1,0.9-0.3,1.1-0.9c0.1-0.5-0.1-1-0.5-1.2c-1-0.6-2.1-1.3-3.1-1.9c-1.1-0.6-2.1-1.3-3-2.2
				c-0.4-0.4-0.9-0.9-0.5-1.5c0.4-0.6,0.9-0.5,1.5-0.4c2,0.3,3.9,0.6,5.9,0.9c0.2,0,0.4,0.2,0.5,0c0.1-0.2-0.1-0.4-0.2-0.5
				c-0.9-0.9-2-1.4-3.2-1.8c-1.1-0.3-2.3-0.3-3.5-0.4c-3.2-0.5-6.3-1.1-9.4-2c-1.8-0.5-3.4-1.5-4-3.4c-0.3-1-1.2-1.4-2.2-1.5
				c-0.4,0-0.7,0-1.1,0c-1.2-0.1-1.9-1.4-1.2-2.4c0.6-1,1.5-1.8,2.4-2.6c0.6-0.5,1.3-0.1,1.4,0.7c0,0.5,0,0.9,0,1.4
				c0,1,0.7,1.7,1.7,1.8c0.9,0.1,1.5-0.6,1.2-1.4c-0.1-0.5-0.3-1-0.5-1.5c-0.2-0.6,0-1,0.7-1.1c1.5-0.3,3-0.2,4.5,0.4
				c0.7,0.3,1.4,0.5,2.1,0.6c0.4,0.1,0.8,0,1-0.4c0.2-0.4,0-0.7-0.2-1c-0.4-0.5-0.8-0.7-1.4-0.9c-1.8-0.4-3.5-1.2-4.9-2.4
				c-0.6-0.5-1.2-0.8-1.9-1c-3.5-1.4-6-3.7-7.5-7.1c-0.2-0.5-0.4-1-0.9-1.3c-1-0.8-1.2-1.9-1-3.1c0.2-1.1,0.5-2.2,1.2-3.2
				c1.3-1.8,1.6-3.7,0.9-5.8c-0.3-1-0.5-2.1-0.1-3.1c0.1-0.2,0.1-0.5,0.5-0.5c0.3,0,0.4,0.2,0.5,0.4c1.2,1.8,2.3,3.7,3.1,5.7
				c0.7,1.6,1.5,3.2,2.4,4.7c0.3,0.5,0.7,1,1.4,0.9c0.8-0.2,0.9-0.8,0.9-1.5c0-1.8,0-3.7,0-5.5c0.1-3.8,0.7-7.5,1.1-11.3
				c0.3-2.8,0.7-5.6,1-8.4c0-0.4,0.1-0.8,0.2-1.2c0.1-0.2,0.1-0.4,0.3-0.4c0.2,0,0.3,0.2,0.3,0.3c0.3,3,2.3,5.3,3.3,8.1
				c1.2,3.4,2.5,6.8,3.8,10.2c0.1,0.3,0.2,0.6,0.4,0.9c0.2,0.3,0.3,0.8,0.8,0.6c0.5-0.2,0.5-0.6,0.4-1c-1.4-5.5-2.9-11-5.1-16.2
				c-0.9-2-1.1-4-1-6.2c0-0.5,0.1-1,0.5-1.3c2.6-2.9,5.1-6,8.2-8.4c4.1-3.3,8.9-4.9,14.1-5.5c0.4,0,0.8-0.1,1.2-0.1
				c2-0.4,3.7,0.4,5,1.8c1.5,1.6,2.5,3.6,3.3,5.7c2.2,5.7,3.8,11.5,4.7,17.5c0.3,2.5,0.5,5,0.6,7.6c0.1,3.5,0.3,7,0,10.5
				c-0.7,9.4-2.1,18.7-5.4,27.6c-0.4,1.2-0.8,2.4-1.2,3.5c-0.4,1.2-1,2.3-1.8,3.2c-0.1,0.1-0.2,0.4-0.4,0.3
				c-0.2-0.1-0.2-0.3-0.2-0.5c0-1.6-0.1-3.2,0-4.9c0.4-9.1-0.6-18.1-2.8-27c-0.8-3.3-1.5-6.7-2.2-10.1c-0.1-0.5-0.3-1-0.5-1.4
				c-0.1-0.4-0.4-0.7-0.9-0.6c-0.5,0.1-0.6,0.5-0.6,0.9c0.1,0.8,0.1,1.5,0.3,2.3c1.4,5.5,2.2,11.1,2.9,16.7
				c0.6,4.8,1.2,9.6,1.7,14.4c0.3,2.7,0.8,5.3,0.6,8c-0.2,2.2-0.6,4.3-1.3,6.5c-0.4,1.3-0.9,2.7-0.8,4.1c0,0.8,0.2,1.4,0.8,2
				c0.3,0.3,0.6,0.3,0.7-0.1c0.5-1.5,1.2-2.8,2.2-4c0.2-0.3,0.3-0.6,0.4-1c0.9-3,2.3-5.6,4.7-7.6c0.8-0.7,1.3-1.6,1.8-2.5
				c1.1-2,2.4-3.8,4.3-5.1c0.3-0.2,0.5-0.5,0.8-0.8c2.8-3.6,6.3-6.3,10.4-8.1c1-0.5,1.1-0.4,1.1,0.7c0,2.4-0.8,4.6-2.2,6.6
				c-1.6,2.3-3.5,4.3-5.5,6.2c-2.1,2-3.8,4.2-5.2,6.7c-1.2,2.1-2.4,4.3-3.6,6.4c-2.5,4.3-1.9,8.4,0.6,12.5c0.4,0.7,1.1,1.1,1.9,1.3
				c1.2,0.4,1.4,0.7,1,2c-0.9,3.1-1.6,6.3-2.3,9.4c-0.2,0.8-0.1,1.4,0.5,1.9c0.4,0.3,0.4,0.7,0,1c-0.5,0.6-1.2,1-2,1.3
				c-0.7,0.3-1-0.2-1.2-0.7c-0.3-0.8-0.2-1.7-0.1-2.6c0.3-2.2,1-4.3,1.5-6.4c0-0.1,0-0.2,0.1-0.4c-0.5,0.3-0.8,0.7-1,1.1
				c-0.3,0.6-0.8,0.8-1.4,0.4c-0.4-0.3-0.9-0.4-1.4-0.5c-0.8-0.2-1.2,0.2-1.1,1c0.1,0.8,0.3,1.7,0.5,2.5c0.2,0.7,0.1,1.3-0.6,1.7
				c-0.5,0.3-0.6,0.7-0.5,1.2c0.2,1.4-0.3,2.4-1.7,3c-0.6,0.2-0.9,0.7-0.7,1.3c0.2,0.6,0.6,0.9,1.2,0.9c5.4-0.5,10.7,0.7,16,1.6
				c6,1,12.1,2,18.1,2.9c7.1,1.1,14.3,2.3,21.4,3.6c7.6,1.3,15.3,2.7,22.9,4.1c3.8,0.7,7.7,1.4,11.5,2.2c1.3,0.3,2.5,0.8,3.7,1.4
				c0.7,0.3,1,1.8,0.6,2.4c-0.2,0.3-0.4,0.4-0.7,0.1c-0.1-0.2-0.2-0.3-0.4-0.5c-0.8-1.3-1.9-2-3.4-2.2c-0.7-0.1-1.3-0.3-2-0.4
				c-0.9-0.2-1.4,0.2-1.5,1.1c-0.1,1,0.1,2,0.2,3c0.1,1.2,0.3,2.4,0.4,3.6c0,0.3,0.3,0.7-0.1,0.8c-0.3,0.1-0.4-0.4-0.6-0.6
				c-0.3-0.3-0.5-0.7-0.7-1c-0.2-0.3-0.5-0.5-0.9-0.3c-0.4,0.1-0.4,0.5-0.4,0.8c0.1,4.4,0.6,8.7,3.7,12.2c0.8,0.9,1.3,2,1.8,3.1
				c0.3,0.6,0.2,1.2-0.4,1.6c-0.2,0.2-0.5,0.4-0.7,0.6c-0.8,0.6-1.1,0.5-1.6-0.4c-0.6-1.4-1.3-2.8-1.9-4.2c-0.4-0.8-0.8-1.6-1.6-2.1
				c-0.5-0.3-0.8-0.8-0.9-1.4c-0.6-3.3-2.7-5.6-5.1-7.6c-1.1-0.9-2.1-1.8-3.2-2.7c-0.5-0.4-0.7-0.8-0.1-1.3c0.4-0.4,0.5-0.8,0.1-1.3
				c-1-1.4-1.6-2.9-2.1-4.5c-0.4-1.3-1.2-2-2.5-2.2c-10.2-1.7-20.3-3.5-30.5-5.2c-1.4-0.2-1.9,0-2,1.3c-0.2,2-1.1,3.2-3,3.8
				c-0.6,0.2-1.2,0.7-1.8,1c-0.3,0.2-0.6,0.3-0.9,0.1c-0.6-0.4-1.3-0.5-2-0.6c-1.9-0.3-3.7-1-5.5-1.7c-0.3-0.1-0.6-0.2-0.9-0.3
				c-0.8-0.2-1.1,0.1-1.1,0.9c0.1,0.8,0.1,1.6,0.2,2.3c0,0.4,0.2,0.7,0.6,0.7c1.6,0.2,3,0.9,4.5,1.6c1.1,0.4,2.1,0.9,3.3,0.9
				c0.5,0,0.5,0.3,0.4,0.7c-0.2,0.6-0.7,1.1-1.1,1.5c-2.6,2.3-5.7,3.6-9.2,4.1c-0.3,0-0.6,0.1-0.8,0.1c-1.7,0.3-2.3,1.6-1.5,3.1
				c0.3,0.5,0.7,1,1.2,1.4c3.8,3.2,7.8,6,12.3,8.2c0.7,0.4,0.7,0.5,0.1,1c-0.4,0.3-0.6,0.7-0.7,1.1c-1.3,3.2-2.1,6.5-2.7,9.9
				c-0.1,0.3,0,0.7-0.5,0.7c-0.4,0-0.8-0.2-0.9-0.7c-0.1-0.8-0.5-1.3-1.1-1.7c-2.3-1.7-4.1-3.8-6-5.8c-1.4-1.5-2.9-3-4.5-4.4
				c-0.1-0.1-0.2-0.2-0.3-0.3c-1.7-1.5-1.7-1.8-0.3-3.5c1.4-1.6,1.9-3.6,2.1-5.7c0.1-0.7-0.6-1.4-1.5-1.5c-1-0.2-1.8,0.3-2.5,0.8
				c-0.9,0.6-0.9,0.6-1.7-0.2c-0.9-1-2-1.8-3.2-2.3c-1.1-0.5-2.1-0.5-3,0.4c-0.5,0.5-0.8,0.4-1.2-0.1c-1.5-1.7-2.7-3.6-3.7-5.7
				c-0.5-1.1-0.4-2.3-0.3-3.4c0-0.4,0.3-0.6,0.7-0.6c0.4,0.1,0.9,0.1,1.3,0.3c1.9,0.5,3.7,1.1,5.5,1.8c1.4,0.5,2.8,0.7,4.3,0.3
				c0.6-0.2,0.8,0.1,0.8,0.7c0,1.3-0.3,2.5-0.5,3.7c-0.1,0.4-0.1,0.8-0.1,1.2c0,0.1,0,0.3,0.2,0.4c0.2,0.1,0.3-0.1,0.3-0.2
				c0.3-0.5,0.6-1.1,0.8-1.7c0.3-1,0.5-2,0.8-3c0.3-1.2,0.8-1.6,2-1.8c1-0.2,2.1-0.4,3.1-0.6c0.9-0.2,1-0.5,0.6-1.3
				c-0.3-0.5-0.6-1.1-0.9-1.6c-0.3-0.5-0.2-0.8,0.4-0.9c0,0,0.1,0,0.1,0c0.3-0.1,0.8,0.1,0.9-0.4c0-0.5-0.3-0.8-0.8-1
				c-0.8-0.4-1.6-0.4-2.4-0.6c-2.3-0.3-4.5-0.9-6.6-1.7c-0.1,0-0.3-0.1-0.3-0.2c-1.7-1.6-3.8-2.3-6-2.9c-1.9-0.6-3.7-1.3-5.7-1.5
				c-1.3-0.1-2-1.1-2.6-2.1c-0.4-0.6-0.7-0.7-1.4-0.4c-2.1,0.8-3.6,2.5-5.1,4.1c-0.3,0.4-0.7,0.7-1,1c-0.5,0.4-1,0.5-1.6,0.2
				c-0.4-0.2-0.6-0.4-0.6-0.9c0-0.5,0.2-0.7,0.6-0.9c0.4-0.2,0.9-0.4,1.3-0.7c2.2-1.5,1.9-4.4-0.5-5.5c-0.4-0.2-0.9-0.3-1.3-0.6
				c-0.8-0.4-0.9-0.9-0.5-1.7c0,0,0,0,0-0.1c0.9-1,1.2-1.9-0.1-2.8c-0.2-0.2-0.2-0.4,0.2-0.4c0.3,0,0.5,0,0.8,0
				c1.2,0,1.8-0.5,2.2-1.7c0.2-0.7,0.3-1.5,0.3-2.3c0-0.5-0.3-0.8-0.7-1.1c-0.8-0.6-1.6-1.1-2.4-1.7c-1.3-0.9-1.6-2.5-0.7-3.7
				c0.4-0.5,0.8-0.7,1.4-0.5c1,0.3,1.6,1,2.2,1.8c0.2,0.3,0.3,0.9,1,0.6c0.5-0.3,0.8-0.9,0.5-1.5c-0.3-0.7-0.8-1.3-1.4-1.8
				c-0.9-0.7-1.9-1.2-2.8-1.8c-1.9-1.1-3.8-2.2-6-2.6c-0.8-0.1-1.5-0.5-2-1.1c-2.3-2.5-5.2-4.1-8.1-5.8c-2.3-1.3-4.7-2.4-6.8-4
				c-1.7-1.3-3.3-2.8-4.8-4.4C15.2,115,15,114.7,14.9,114.3z M41.5,68.8c0.1-3.8,0.2-7.6,0.1-11.5c0-2.2-0.2-4.3-0.8-6.5
				c-0.1-0.3-0.1-0.7-0.5-0.6C40,50.3,40,50.6,40,50.9c0,0.5,0,1-0.1,1.4c-0.5,6.7-1,13.4-1.6,20.1c-0.5,5.6-1.1,11.1-1.6,16.7
				c-0.3,3.2-0.4,6.4,0.4,9.5c0.1,0.5,0.1,0.9-0.3,1.2c-0.6,0.6-0.6,1.2-0.4,2c0.6,2.3,1.8,4.2,3.3,6c0.2,0.2,0.4,0.4,0.7,0.5
				c0.6,0.3,1,0.2,1.1-0.5c0.1-0.7,0.2-1.3,0.1-2C41.4,101,41,96.2,41,91.4c0-3.6,0.1-7.3,0.3-10.9C41.4,76.5,41.4,72.7,41.5,68.8z
				 M43.3,109c0,0.9-0.1,1.9,0.3,2.9c0.2,0.6,0.6,0.9,1.3,0.9c0.7-0.1,1.1-0.7,1.3-1.6c0.2-1.4,0.2-2.9,0.1-4.3
				c-0.2-3.9-0.2-7.7,0.1-11.6c0.3-5.1,0.8-10.1,1.3-15.2c0.5-5.1,1.1-10.2,1.6-15.3c0.2-2.2,0.6-4.3,0.6-6.5c0-2.8-0.6-5.5-1.1-8.3
				c-0.4-2.2-0.7-4.5-1.4-6.7c-0.1-0.3-0.1-0.6-0.5-0.6c-0.4,0-0.5,0.3-0.6,0.6c-0.7,1.9-0.7,3.8-0.4,5.7c0.1,0.3,0.2,0.6,0.5,0.8
				c0.6,0.3,0.8,0.9,0.8,1.5c0.1,1.1,0.3,2.1,0.3,3.2c0.1,4.5-0.3,9.1-1.1,13.5c-1.5,8.6-2.6,17.3-2.9,26
				C43.5,98.9,43.7,103.9,43.3,109z M30.6,95.3c0,0,0.1-0.1,0.1-0.1c0.2,0,0.4,0.1,0.6,0.1c0.2,0,0.4,0.1,0.7,0.1
				c0.8,0.1,1.1-0.2,1-1c-0.1-0.6-0.4-1-0.7-1.5c-0.9-1.4-2.1-2.5-3.4-3.5c-3.9-3.1-8.3-4.9-13.3-5.5c-0.2,0-0.5-0.2-0.7,0.1
				c-0.1,0.3,0.1,0.5,0.3,0.7c1.1,1.5,2.5,2.6,4.1,3.4c1.3,0.6,2.6,1.2,3.9,1.8c1.8,0.8,3.5,1.7,5,3c0.8,0.7,1.2,1.4,1,2.5
				c-0.1,0.8,0,1.5,0.5,2.2c1.2,1.7,2.9,2.6,4.7,3.3c0.2,0.1,0.5,0.1,0.7-0.1c0.2-0.2,0.1-0.5-0.1-0.7c-0.4-0.6-0.9-1.1-1.4-1.6
				C32.5,97.3,31.5,96.3,30.6,95.3z M61.8,156.3c0.1,0.3,0.3,0.3,0.5,0.3c2.7,0.5,5.4,0.9,8.1,1.4c2.6,0.4,5.2,0.9,7.6,2.2
				c2.2,1.2,4.5,2.4,6.8,3.5c0.4,0.2,0.9,0.5,1.4,0.3c1.6-0.6,3.2-1.1,4.6-2c0.2-0.1,0.5-0.2,0.4-0.5c0-0.3-0.3-0.3-0.5-0.3
				c-1.8-0.6-3.7-1.1-5.6-1.5c-6.4-1.5-12.9-2.4-19.4-3.2C64.4,156.2,63.1,156.1,61.8,156.3z M139.8,173.1c0-1.2-0.1-1.3-1.1-1.4
				c-0.2,0-0.4,0-0.5,0c-1.2,0-1.9-0.4-2.3-1.5c-0.2-0.5-0.4-1.1-0.5-1.7c-0.1-0.4-0.3-0.8-0.8-0.9c-0.7-0.2-1.3-0.2-2-0.1
				c-0.5,0.1-0.7,0.3-0.5,0.8c0.8,1.9,1.5,3.8,2.3,5.6c0.7,1.6,1.8,2.8,3.4,3.5c0.8,0.4,1.1,0.2,1.4-0.6
				C139.4,175.7,139.6,174.3,139.8,173.1z M62.1,138.2c0-1.4-0.4-2.6-1-3.8c-0.3-0.5-0.5-0.6-0.9-0.1c-1.2,1.7-1.9,3.5-2.3,5.5
				c-0.1,0.3-0.1,0.6,0.3,0.8c2,0.8,3.9,0.9,4-2.1C62.1,138.4,62.1,138.3,62.1,138.2z M49.9,151.9c0.6-0.1,1.2-0.2,1.9-0.3
				c0.4-0.1,0.5-0.3,0.3-0.6c-1.2-1.4-2.7-2.4-4.6-2.8c-0.5-0.1-0.8,0.1-0.9,0.6c-0.3,0.9,0,1.9,0.9,2.5
				C48.1,151.8,49,151.9,49.9,151.9z M58.5,49.3c0.2,2.2,1.3,4.2,2.6,5.9c0.2,0.2,0.3,0.5,0.7,0.4c0.3-0.1,0.3-0.5,0.2-0.7
				c-0.2-1.4-0.6-2.8-1.2-4c-0.4-0.8-0.8-1.6-1.4-2.3c-0.1-0.2-0.3-0.4-0.6-0.3c-0.3,0.1-0.3,0.4-0.3,0.6
				C58.6,49,58.6,49.2,58.5,49.3z M58.6,63.9c-0.6-1.5-2.9-3.1-4.1-3C55.5,62.4,56.8,63.3,58.6,63.9z"/>
			<path class="st0" d="M91,192.4c0.6,0.1,0.8,0.5,1.2,0.8c0.8,0.6,1.6,1.1,2.4,1.7c0.9,0.6,1,1.1,0.8,2.2c-0.3,1.1-0.5,2.1-0.8,3.2
				c0.1,0,0.1,0,0.2,0.1c0.4-0.9,0.8-1.7,1.2-2.6c0.8-1.8,1-1.8,2.5-0.7c3.9,2.9,6,6.7,5.9,11.6c0,2.1-0.8,4-1.7,5.8
				c-3.6,7.3-9.3,12.2-16.5,15.5c-5.4,2.4-11.1,3.7-17,4.4c-4.5,0.6-9,0.8-13.6,0.7c-0.6,0-0.9,0.2-1,0.8c-0.1,0.9-0.3,1.9,0.4,2.7
				c0.3,0.4,0.1,0.6-0.2,0.8c-0.6,0.5-1.3,0.6-2,0.7c-1.1,0.2-1.3,0.3-1.5,1.4c-1.1,4.9-2.4,9.8-3.7,14.6c-0.1,0.3-0.2,0.6-0.3,0.8
				c-0.2-0.4-0.1-0.8-0.1-1.2c0.5-4.2,0.8-8.5,1.3-12.7c0.3-2.4,0.7-4.8,1.1-7.2c0.1-0.7-0.1-0.9-0.8-0.9c-3.4-0.2-6.8-0.4-10.2-0.8
				c-5.9-0.8-11.1-3.1-16-6.4c-2.6-1.7-4.7-3.9-6.2-6.7c-1.5-2.8-2-5.8-1.3-8.9c0.2-0.7,0.5-1.3,0.8-2c0.1-0.2,0.2-0.4,0.5-0.3
				c0.2,0.1,0.2,0.3,0.1,0.5c-0.1,0.7-0.1,1.4-0.2,2c0,0.1-0.1,0.3,0.1,0.4c0.2,0.1,0.2-0.1,0.3-0.2c0.8-1.2,0.8-1.2,1.6,0.1
				c0.6,0.9,1.1,1.9,1.8,2.8c0.7,0.9,0.8,1.9,0.5,3c-0.3,1.2-0.7,2.4-0.6,3.6c0.1,2.6,1.3,4.5,3.7,5.5c1.1,0.5,2.3,0.7,3.4,1
				c0.6,0.1,0.9-0.1,1.1-0.7c0.5-1.8,1.3-3.5,1.5-5.3c0-0.2,0-0.5,0.2-0.5c0.2-0.1,0.4,0.2,0.6,0.3c0.5,0.5,0.6,1.1,0.6,1.8
				c-0.1,0.9-0.4,1.7-0.6,2.5c-0.3,1.3,0.3,2.2,1.5,2.3c0.5,0,0.9-0.1,1.2-0.5c0.3-0.3,0.5-0.4,0.7,0c0.2,0.5,0.6,0.3,1,0.3
				c0.5,0,0.6-0.3,0.8-0.7c0.5-1.8,0.8-3.7,1.5-5.4c0.1-0.2,0.2-0.5,0.3-0.7c0.2-0.4,0.5-0.6,0.9-0.3c0.4,0.2,0.7,0.6,0.4,1.1
				c-1.2,1.6-0.9,3.4-0.7,5.2c0,0.4,0.2,0.6,0.7,0.6c1.6-0.2,3.1-0.4,4.7-0.6c0.5,0,0.7-0.3,0.8-0.7c0.1-0.4,0.2-0.7,0.3-1.1
				c0.1-0.2,0.2-0.4,0.5-0.4c0.3,0,0.5,0.2,0.5,0.5c0,0.1,0,0.1,0,0.2c0.1,0.4-0.3,1,0.2,1.2c0.4,0.1,0.8-0.1,1.3-0.1
				c7.2-1.2,14.4-2.4,21.6-3.7c3.3-0.6,6.7-1.1,10-1.7c3.6-0.6,6.1-2.8,8.1-5.5c0.2-0.3,0.2-0.6,0.1-1c-0.4-1.1-0.2-2.2,0.3-3.2
				c0.4-0.9,0.7-1.9,0.9-2.9c0.2-1,0.5-2,1.1-2.9c0.4-0.6,0.4-1.1-0.1-1.7c-0.8-1-1-2.2-0.6-3.4c0.5-1.5,0.6-3.1,0.3-4.7
				c-0.2-1,0.1-1.9,1.1-2.4C90.7,194,91,193.3,91,192.4z"/>
			<path class="st0" d="M103.4,40.4c0,0.6,0,1.2,0,1.8c0,0.3,0,0.6,0.4,0.7c0.3,0.1,0.5-0.2,0.6-0.5c0.1-0.2,0.3-0.5,0.4-0.7
				c0.1-0.2,0.2-0.3,0.4-0.3c0.2,0,0.3,0.2,0.4,0.4c0.1,0.4,0.2,0.8,0.4,1.2c0.1,0.3,0.2,0.6,0.4,0.8c0.3,0.4,0.6,1.2,1.2,0.9
				c0.7-0.2,0.2-0.9,0.2-1.4c0-0.2-0.1-0.3-0.1-0.5c-0.1-0.6,0.4-1,0.9-0.7c1,0.5,1.7,1.2,2,2.3c0.1,0.4,0,0.8-0.2,1.1
				c-0.6,0.7-0.6,1.4-0.3,2.1c0.3,0.7,0.5,1.3,0.7,2c0.2,0.5,0,0.8-0.6,0.8c-1.6,0.1-3.2-0.3-4.7-0.9c-0.7-0.3-1-0.8-1.2-1.5
				c-0.3-0.9-0.6-1.8-0.9-2.7c-0.1-0.3-0.2-0.6-0.6-0.5c-0.3,0-0.3,0.3-0.4,0.6c-0.3,1-0.5,2.1-0.8,3.1c-0.3,1.3,0.2,2.1,1.5,2.4
				c1,0.2,1.9,0.4,2.9,0.6c0.5,0.1,1.1,0.3,1.5,0.6c0.6,0.4,0.8,0.8,0.4,1.4c-0.4,0.7-0.3,1.4-0.1,2.1c0.3,1.3,0.6,2.6,0.9,3.8
				c0.2,1,0.2,2-0.2,2.9c-0.3,0.9-0.7,1.7-1.8,1.8c-1.1,0.1-1.9-0.4-2.5-1.1c-0.6-0.7-0.8-1.5-0.9-2.4c-0.2-2-0.1-4-0.7-5.9
				c-0.2-0.6-0.3-1.5-1.1-1.6c-0.8-0.1-1,0.8-1.4,1.3c-1.7,3.2-2.5,6.8-2.9,10.4c-0.1,1-0.3,2-0.6,3c-0.3,1.1-0.3,1.1,0.9,1.2
				c2.7,0.2,5.3,0.6,7.8,1.4c0.6,0.2,1.2,0.4,1.8,0.7c0.8,0.3,1.3,0.9,1.6,1.7c0.7,1.9,1.7,3.6,2.9,5.1c0.8,1.1,1.2,2.2,1.1,3.5
				c-0.2,2.2-0.2,4.4-0.7,6.6c-0.1,0.6-0.3,1.1-0.6,1.6c-0.2,0.5-0.5,0.6-1,0.2c-1.2-0.9-2.4-1.7-3.7-2.3c-0.1-0.1-0.3-0.2-0.4-0.2
				c-1.7-0.3-3-1.4-4.1-2.7c-1.8-2.1-4.3-3.2-7-4c-1-0.3-2-0.7-3-1c-1.1-0.4-1.3-0.8-1.2-1.9c0.1-1.3,0.2-2.6,0.9-3.7
				c0.2-0.3,0-0.7-0.1-1.1c-0.3-0.9-0.5-1.9-0.3-2.8c0.1-0.6,0.3-1,1-1.1c0.6,0,0.8-0.5,1-1c0.7-2.6,1.2-5.2,1.7-7.8
				c0.5-3.2,1.1-6.5,1.8-9.7c0-0.2,0.3-0.5,0-0.6c-0.2-0.1-0.4,0.1-0.6,0.2c-1.3,0.8-2.5,1.5-3.7,2.4c-0.9,0.8-1.5,1.7-1.8,2.9
				c-1,4-2,8.1-3.8,11.8c-1.3,2.8-2.8,5.4-4.7,7.8c-0.5,0.7-0.8,0.8-1.4,0.1c-0.5-0.4-0.8-1-1.1-1.5c-0.9-1.5-1.8-3.1-2.7-4.6
				c-0.3-0.5-0.5-1-0.3-1.7c0.2-0.5,0-0.9-0.5-1.2c-1.9-1.2-2.8-3-3.1-5.2c-0.1-0.6,0.1-0.8,0.7-0.7c0.6,0.1,1.3,0.1,1.9,0.2
				c1,0.1,2-0.2,2.8-0.9c0.6-0.5,1.3-0.4,2-0.3c1.1,0.2,1.5-0.1,1.7-1.3c0.3-2.4-0.1-2.4,2.8-3.1c0.6-0.2,1.3-0.2,2-0.2
				c0.8,0.1,1.4-0.2,2.1-0.6c0.2-0.1,0.4-0.2,0.3-0.5c-0.1-0.2-0.2-0.4-0.5-0.5c-0.3-0.1-0.7-0.1-1,0c-0.6,0.1-1-0.1-1.3-0.6
				c-0.8-1.5-2.1-2.3-3.6-3.1c-0.5-0.3-1.1-0.2-1.6,0.1c-0.4,0.2-0.9,0.4-1.3,0.5c-0.9,0.1-1.4-0.4-1.1-1.2c0.3-1,0.1-1.8-0.5-2.7
				c-0.7-1-1.1-2.1-1.1-3.3c0-0.8,0.2-0.9,0.9-0.6c1.2,0.5,2.4,1.1,3.6,1.6c1.9,0.9,3.9,1.3,6,1.3c1.4,0,2.8,0.3,4.1,0.7
				c1.6,0.4,3.2,0.4,4.6-0.6c0.3-0.2,0.6-0.4,0.5-0.8c-0.1-0.4-0.5-0.3-0.7-0.4c-1.2-0.4-2.4-0.5-3.7-0.4c-2.2,0.1-4.1-0.6-5.7-2.1
				c-0.8-0.8-1.7-1.4-2.5-2.1c-0.8-0.6-1.2-1.5-1.4-2.5c-0.1-0.5,0.1-0.8,0.7-0.7c0.6,0.1,1.2,0.1,1.7,0.1c0.9,0,1.2-0.3,1.3-1.2
				c0-0.5,0-1.1-0.1-1.6c-0.1-0.7-0.2-1.4,0.6-1.8c0.7-0.3,1.3-0.2,1.9,0.5c1,1.1,1.8,2.3,2.5,3.6c0.6,1.2,1.4,2,2.8,2.2
				c0.5,0.1,0.9,0.4,1.3,0.7c0.5,0.5,1.2,0.6,1.8,0.4c1.7-0.6,3.4-0.6,5.1-1.2c0.4-0.1,0.5,0,0.5,0.4
				C103.4,39.1,103.4,39.8,103.4,40.4C103.4,40.4,103.4,40.4,103.4,40.4z M107.2,60.7c-0.2-2.2-0.4-4.3-0.8-6.5
				c-0.1-0.3,0-0.6-0.5-0.6c-0.4,0-0.7,0.1-0.8,0.5c-0.3,0.6-0.3,1.2-0.2,1.9c0.2,1.3,0.3,2.6,0.3,3.8c0,0.3,0,0.7,0.2,1
				c0.2,0.6,0.7,0.9,1.3,0.8C107.1,61.5,107.2,61.1,107.2,60.7z"/>
			<path class="st0" d="M125.4,155.4c-0.5-0.2-0.8-0.6-1.1-1c-2.4-3-4.1-6.3-5.7-9.7c-2.9-6.2-5.8-12.4-8-18.8
				c-0.2-0.6-0.4-1.3-0.4-1.9c0-0.3,0-0.6-0.2-0.8c-1-1.9-1.1-3.9-1.3-6c-0.1-1.3-0.4-2.6-1.2-3.7c-0.6-0.8-0.6-2-0.9-3
				c-0.1-0.3-0.1-0.7-0.5-0.8c-0.4-0.1-0.5,0.3-0.7,0.5c-0.7,0.9-1.6,1.4-2.8,1.1c-1-0.2-2-0.3-3-0.5c-1.4-0.3-1.9-1.1-1.7-2.5
				c0.2-1.4,0.7-2.8,1-4.2c0.3-1.4,0-2.2-1.3-2.8c-0.9-0.5-1.9-0.9-2.8-1.3c-1.6-0.6-2.9,0.3-2.9,2c0,0.5,0,0.9,0,1.4
				c0,0.7,0.2,1.3,0.8,1.7c0.6,0.4,0.9,1,1.1,1.7c0.9,2.9,2,5.6,2.5,8.6c0.5,2.9,0.7,5.9,1,8.8c0.7,6.4,1.1,12.9,1.6,19.4
				c0.4,4.5-0.3,8.6-3,12.4c-0.6,0.8-1.2,1.2-2.2,1.1c-1.4-0.1-2.7-0.1-4.1-0.3c-0.9-0.2-1.1-0.4-1-1.3c0.8-6.8,1.5-13.5,2-20.3
				c0.6-7,1.5-14,1.4-21.1c0-2.8-0.5-5.5-1.4-8.2c-0.2-0.7-0.5-1.3-1-1.8c-1.1-1.1-2.5-1.1-3.3,0.2c-0.5,0.7-0.8,1.5-1.2,2.2
				c-0.1,0.1-0.1,0.2-0.2,0.3c-0.1,0.2-0.2,0.6-0.5,0.4c-0.3-0.1-0.1-0.5-0.1-0.7c0.1-0.3,0.2-0.7,0.2-1c1.3-5.8,3-11.5,4.4-17.3
				c0.4-1.5,0.7-3,0.9-4.6c0-0.2,0.1-0.6-0.2-0.6c-0.3-0.1-0.4,0.3-0.5,0.5c-3.5,9.8-6.7,19.6-8.4,29.8c-0.5,3.1-0.9,6.2-0.5,9.3
				c0.1,0.6,0.2,1.1,0.3,1.7c0.1,0.4,0.1,0.7-0.4,0.8c-1.6,0.4-2.4,1.5-2.7,3c-0.8,3.1-1.6,6.3-2.4,9.4c-0.1,0.3-0.2,0.6-0.3,0.9
				c-0.2,0.4-0.5,0.6-0.9,0.5c-0.4-0.1-0.8-0.3-0.8-0.8c0-0.3,0-0.7,0.1-1c5.2-17.3,9.4-34.8,14.3-52.2c0.3-0.9,0.5-1.9,0.8-2.8
				c0.4-1.3,1.4-1.9,2.8-1.6c0.6,0.1,0.6,0.5,0.5,1c-0.2,1.3-0.4,2.6-0.5,3.9c-0.3,2.7-0.5,5.3-0.1,8c0.2,1.4,0.9,2.4,2.2,3.1
				c4.2,2.1,8.3,4.3,12.6,6.2c1.4,0.6,1.8,1.2,1.6,2.8c-0.1,1,0.2,1.8,1,2.4c1.6,1.3,3.3,2.3,5.3,2.8c1.8,0.4,2.5,1.2,2.6,3
				c0.4,4.6,1.7,9.1,2.8,13.6c2.2,8.9,4.4,17.8,6.5,26.7C125.5,154.6,125.5,155,125.4,155.4z"/>
			<path class="st0" d="M30.3,213c0.1,0.1,0.1,0.1,0.1,0.2c0.7,1,1.2,1.3,1.8,1c0.9-0.4,1.4-1.5,1.1-2.5c-0.6-1.9-0.8-3.8-0.7-5.8
				c0.2-3,1.1-5.9,2.1-8.7c2.5-6.9,6.2-13.2,10.3-19.3c0.2-0.2,0.3-0.5,0.6-0.4c0.3,0.1,0.3,0.4,0.4,0.7c0.2,1.8,0.3,3.7,0.6,5.5
				c0.2,0.9,0.5,1.7,0.8,2.5c0.4,1.1,0.2,2.1-0.6,3.1c-0.3,0.3-0.6,0.5-0.9,0c-0.3-0.6-0.6-0.4-0.9,0.1c-1.6,2.2-2.2,4.7-2.7,7.3
				c-0.6,3.6-0.6,7.3-0.9,10.9c-0.3,3.3-1.2,6.4-2.7,9.4c-0.4,0.9-1.1,1.3-2.1,1.3c-0.8-0.1-1.6,0.2-2.3,0.3
				c-1.8,0.3-2.1,0.2-2.9-1.4c-0.3-0.6-0.7-1.3-1.5-1.4c-0.3,0-0.4-0.4-0.4-0.6C29.4,214.2,29.6,213.5,30.3,213z M34.7,212.1
				c0,1.1,0.3,1.7,1.1,2.1c0.7,0.3,1.4,0.5,2.1-0.1c0.7-0.6,0.6-1.4,0.3-2.2c-0.2-0.4-0.2-0.9-0.1-1.3c0.2-1.4,0.4-2.7,0.6-4.1
				c0.3-1.8,0.6-3.5,0.9-5.3c0.1-0.6-0.1-1-0.7-1.1c-0.6-0.2-0.9,0.1-1.1,0.6c-0.2,0.4-0.3,0.7-0.4,1.1c-0.5,2-1,3.9-1.5,5.9
				C35.4,209.2,34.9,210.8,34.7,212.1z"/>
			<path class="st0" d="M28.5,189.9c0.1,0.7-0.1,1.3-0.4,1.9c-0.4,0.7-0.8,1.4-1.1,2.2c-0.5,1-0.3,1.8,0.4,2.6
				c0.5,0.5,0.7,0.5,1-0.2c1.7-3.5,2.8-7.2,3.1-11c0.2-2.6,1.2-4.8,2.9-6.7c0.7-0.8,1.5-1.7,2.2-2.5c0.7-0.8,1.7-1.3,2.7-1.7
				c0.8-0.3,1.5-0.8,1.8-1.6c0.7-1.8,1.9-3.3,3.1-4.7c1.2-1.4,2.4-2.9,3-4.7c0.1-0.4,0.4-0.6,0.7-0.8c0.5-0.4,1-0.7,1.4-1.1
				c0.2-0.1,0.3-0.3,0.2-0.6c-0.1-0.3-0.4-0.2-0.6-0.2c-0.1,0-0.2,0.1-0.4,0.1c-0.1,0.1-0.3,0.1-0.4-0.1c-0.1-0.2,0-0.3,0.1-0.5
				c0.7-0.7,2.7-0.9,3.6-0.4c0.6,0.3,0.8,0.9,0.6,1.5c-0.6,2-1.1,4-1.8,6c-0.2,0.8-0.8,1.3-1.6,1.4c-0.8,0.2-1.2,0.7-1.3,1.5
				c-0.1,1.4-0.6,2.6-1.8,3.3c-0.2,0.1-0.3,0.4-0.5,0.6c-0.6,1.1-1.4,2.2-2.2,3.2c-0.8,0.8-1.3,0.9-2.2,0.2
				c-1.8-1.3-2.3-1.2-3.4,0.8c-0.3,0.6-0.7,1.2-1,1.9c-0.2,0.5-0.5,0.7-1.1,0.5c-1-0.2-1.3-0.1-1.9,0.8c-1.1,1.6-1.5,3.4-1.8,5.2
				c-0.4,2.8-0.8,5.6-2,8.2c-0.8,1.8-1.8,3.5-2.9,5.2c-0.6,0.9-1.4,1.6-2.4,2.1c-0.8,0.4-1.6,0.5-2.3-0.1c-0.5-0.3-0.8-0.3-1.2,0.1
				c-0.5,0.5-1.1,0.9-1.6,1.3c-0.2,0.2-0.5,0.3-0.8,0.1c-0.3-0.2-0.3-0.5-0.3-0.7c0.7-3.8,1.9-7.4,4.4-10.4c0.1-0.2,0.3-0.3,0.4-0.4
				c1.5-0.7,2.4-1.9,3.3-3.2c0.2-0.3,0.5-0.8,1-0.7c0.5,0.1,0.6,0.7,0.6,1.2C28.5,189.6,28.5,189.8,28.5,189.9z"/>
			<path class="st0" d="M68.5,150c1.4,0,1.5-0.1,1.9-1.4c0.6-1.9,0.9-3.8,1.6-5.7c0.1-0.3,0.2-0.5,0.4-0.7c0.2-0.3,0.6-0.5,1-0.3
				c0.5,0.2,0.3,0.6,0.2,0.8c-0.6,2.3-1.4,4.6-1.8,7c-0.2,0.9-0.2,1.8-0.1,2.7c0.1,0.9-0.2,1.2-1,1.1c-1.1-0.2-2.2-0.6-3.2-1.2
				c-0.6-0.4-0.6-1-0.4-1.6C67.3,149.7,68,150,68.5,150z"/>
			<path class="st0" d="M111.2,103.1c0,0.5-0.1,1-0.7,1.1c-0.6,0.1-1.1-0.2-1.4-0.7c-0.2-0.5-0.3-1-0.5-1.5
				c-0.7-2.2-1.4-4.3-1.8-6.6c-0.1-0.5-0.1-1,0.1-1.5c0.3-0.7,0.7-0.8,1.3-0.5c0.5,0.3,0.9,0.7,1.1,1.2c0.7,2.7,1.3,5.5,1.9,8.2
				C111.2,103,111.2,103.1,111.2,103.1z"/>
			<path class="st0" d="M84.5,31.8c-1.3,0-2.1-1.2-1.7-2.3c0.3-1.1,1.1-2,1.9-2.8c0.2-0.3,0.6-0.2,0.9,0c0.9,0.5,1.4,1.3,1.5,2.2
				c0.3,1.9,0.5,1.9-1.3,2.5C85.3,31.6,84.8,31.8,84.5,31.8z"/>
			<path class="st0" d="M57.2,162.5c0,0.1-0.1,0.4-0.2,0.6c-0.5,1.2-1,2.4-1.6,3.5c-0.2,0.5-0.5,0.6-1,0.4c-1.5-0.5-1.7-0.9-1.2-2.3
				c0.4-1.1,0.8-2.1,1.2-3.2c0.2-0.6,0.7-0.8,1.2-0.5c0.4,0.2,0.7,0.4,1.1,0.7C57,161.9,57.2,162.1,57.2,162.5z"/>
			<path class="st0" d="M37,168.4c0-1.9,1.6-4.1,3.3-4.7c0.4-0.1,0.8-0.3,1.1,0c0.4,0.4,0.1,0.8,0,1.1c-0.7,1.6-1.7,2.9-3,4.1
				c-0.3,0.3-0.5,0.6-1,0.4C37,169.1,37,168.7,37,168.4z"/>
			<path class="st0" d="M76,58.7c-1.7-0.1-3.1-0.6-4.3-1.7c-0.2-0.2-0.4-0.4-0.5-0.6c-0.2-0.4-0.1-0.8,0.2-1.2c0.3-0.3,0.7-0.3,1,0
				c1.3,0.9,2.5,1.8,3.7,2.7c0.2,0.1,0.3,0.3,0.2,0.5C76.4,58.8,76.1,58.7,76,58.7z"/>
		</g>
		<g>
			<path class="st1" d="M0,272.2C0,183.2,0,94.1,0,5c0-0.6,0.1-0.7,0.7-0.7c53.9,0,107.8,0,161.7,0c0.2,0.4,0.2,0.8,0.2,1.2
				c0,56.3,0,112.5,0,168.8c0,32.3,0,64.5,0,96.8c0,1.2,0,1.2-1.2,1.2c-52.5,0-104.9,0-157.4,0C2.7,272.2,1.3,272.2,0,272.2z
				 M14.9,114.3c0,0.4,0.2,0.7,0.5,1c1.5,1.5,3,3.1,4.8,4.4c2.1,1.6,4.5,2.7,6.8,4c2.9,1.7,5.8,3.3,8.1,5.8c0.5,0.6,1.2,1,2,1.1
				c2.2,0.4,4.1,1.5,6,2.6c1,0.6,2,1,2.8,1.8c0.6,0.5,1,1.1,1.4,1.8c0.3,0.6,0,1.2-0.5,1.5c-0.6,0.4-0.7-0.2-1-0.6
				c-0.6-0.8-1.2-1.5-2.2-1.8c-0.6-0.2-1,0-1.4,0.5c-0.9,1.3-0.6,2.8,0.7,3.7c0.8,0.6,1.7,1.1,2.4,1.7c0.4,0.3,0.6,0.6,0.7,1.1
				c0,0.8,0,1.5-0.3,2.3c-0.4,1.2-1,1.6-2.2,1.7c-0.3,0-0.5,0-0.8,0c-0.4,0-0.4,0.3-0.2,0.4c1.3,0.9,1,1.8,0.1,2.8c0,0,0,0,0,0.1
				c-0.4,0.8-0.3,1.3,0.5,1.7c0.4,0.2,0.9,0.3,1.3,0.6c2.4,1.2,2.6,4,0.5,5.5c-0.4,0.3-0.9,0.5-1.3,0.7c-0.4,0.2-0.6,0.5-0.6,0.9
				c0,0.4,0.3,0.7,0.6,0.9c0.6,0.3,1.1,0.2,1.6-0.2c0.4-0.3,0.7-0.7,1-1c1.5-1.6,3-3.2,5.1-4.1c0.7-0.3,1-0.2,1.4,0.4
				c0.6,1,1.4,2,2.6,2.1c2,0.2,3.8,0.9,5.7,1.5c2.1,0.6,4.3,1.3,6,2.9c0.1,0.1,0.2,0.1,0.3,0.2c2.1,0.8,4.3,1.3,6.6,1.7
				c0.8,0.1,1.7,0.2,2.4,0.6c0.4,0.2,0.8,0.6,0.8,1c0,0.5-0.6,0.3-0.9,0.4c0,0-0.1,0-0.1,0c-0.6,0.1-0.7,0.4-0.4,0.9
				c0.3,0.5,0.6,1,0.9,1.6c0.5,0.9,0.4,1.1-0.6,1.3c-1,0.2-2.1,0.4-3.1,0.6c-1.2,0.2-1.7,0.6-2,1.8c-0.2,1-0.5,2-0.8,3
				c-0.2,0.6-0.4,1.2-0.8,1.7c-0.1,0.1-0.1,0.3-0.3,0.2c-0.2-0.1-0.2-0.3-0.2-0.4c0-0.4,0.1-0.8,0.1-1.2c0.2-1.2,0.5-2.4,0.5-3.7
				c0-0.6-0.2-0.9-0.8-0.7c-1.5,0.4-2.9,0.2-4.3-0.3c-1.8-0.7-3.6-1.3-5.5-1.8c-0.4-0.1-0.9-0.2-1.3-0.3c-0.4-0.1-0.7,0.1-0.7,0.6
				c-0.1,1.2-0.2,2.4,0.3,3.4c1,2,2.1,4,3.7,5.7c0.4,0.4,0.7,0.5,1.2,0.1c0.9-0.9,1.9-1,3-0.4c1.2,0.6,2.3,1.3,3.2,2.3
				c0.7,0.8,0.7,0.8,1.7,0.2c0.8-0.5,1.6-1,2.5-0.8c0.8,0.1,1.5,0.8,1.5,1.5c-0.2,2.1-0.7,4-2.1,5.7c-1.4,1.7-1.4,2,0.3,3.5
				c0.1,0.1,0.2,0.2,0.3,0.3c1.6,1.3,3.1,2.8,4.5,4.4c1.9,2,3.7,4.1,6,5.8c0.6,0.4,1.1,0.9,1.1,1.7c0,0.5,0.4,0.6,0.9,0.7
				c0.5,0,0.4-0.4,0.5-0.7c0.6-3.4,1.4-6.7,2.7-9.9c0.2-0.4,0.4-0.8,0.7-1.1c0.6-0.5,0.6-0.6-0.1-1c-4.5-2.2-8.5-5-12.3-8.2
				c-0.5-0.4-0.9-0.8-1.2-1.4c-0.8-1.5-0.1-2.8,1.5-3.1c0.3,0,0.6-0.1,0.8-0.1c3.5-0.5,6.5-1.8,9.2-4.1c0.5-0.4,0.9-0.9,1.1-1.5
				c0.1-0.4,0.1-0.7-0.4-0.7c-1.2,0-2.2-0.4-3.3-0.9c-1.5-0.6-2.9-1.3-4.5-1.6c-0.4-0.1-0.6-0.3-0.6-0.7c-0.1-0.8-0.1-1.6-0.2-2.3
				c-0.1-0.8,0.3-1.1,1.1-0.9c0.3,0.1,0.6,0.2,0.9,0.3c1.8,0.7,3.6,1.3,5.5,1.7c0.7,0.1,1.4,0.2,2,0.6c0.3,0.2,0.6,0.1,0.9-0.1
				c0.6-0.4,1.1-0.8,1.8-1c1.9-0.6,2.8-1.8,3-3.8c0.1-1.3,0.7-1.6,2-1.3c10.2,1.7,20.3,3.5,30.5,5.2c1.3,0.2,2.2,0.9,2.5,2.2
				c0.4,1.6,1.1,3.2,2.1,4.5c0.3,0.5,0.3,0.9-0.1,1.3c-0.6,0.5-0.4,0.9,0.1,1.3c1.1,0.9,2.1,1.8,3.2,2.7c2.4,2.1,4.4,4.4,5.1,7.6
				c0.1,0.6,0.4,1.1,0.9,1.4c0.8,0.5,1.2,1.2,1.6,2.1c0.6,1.4,1.2,2.8,1.9,4.2c0.4,0.9,0.7,1,1.6,0.4c0.2-0.2,0.5-0.4,0.7-0.6
				c0.5-0.4,0.7-1,0.4-1.6c-0.5-1.1-1-2.2-1.8-3.1c-3.1-3.5-3.6-7.8-3.7-12.2c0-0.3,0-0.7,0.4-0.8c0.4-0.1,0.7,0.1,0.9,0.3
				c0.3,0.3,0.5,0.7,0.7,1c0.2,0.2,0.3,0.7,0.6,0.6c0.4-0.1,0.2-0.5,0.1-0.8c-0.1-1.2-0.3-2.4-0.4-3.6c-0.1-1-0.3-2-0.2-3
				c0.1-1,0.5-1.3,1.5-1.1c0.7,0.1,1.3,0.2,2,0.4c1.5,0.2,2.6,1,3.4,2.2c0.1,0.2,0.2,0.3,0.4,0.5c0.3,0.4,0.5,0.3,0.7-0.1
				c0.4-0.6,0.1-2.1-0.6-2.4c-1.2-0.5-2.4-1.1-3.7-1.4c-3.8-0.7-7.7-1.5-11.5-2.2c-7.6-1.4-15.2-2.7-22.9-4.1
				c-7.1-1.2-14.3-2.4-21.4-3.6c-6-1-12.1-1.9-18.1-2.9c-5.3-0.9-10.6-2.1-16-1.6c-0.6,0.1-1.1-0.3-1.2-0.9
				c-0.2-0.7,0.1-1.1,0.7-1.3c1.3-0.6,1.9-1.5,1.7-3c-0.1-0.5,0.1-1,0.5-1.2c0.7-0.4,0.8-1,0.6-1.7c-0.2-0.8-0.4-1.7-0.5-2.5
				c-0.1-0.8,0.3-1.2,1.1-1c0.5,0.1,1,0.2,1.4,0.5c0.7,0.4,1.1,0.2,1.4-0.4c0.2-0.4,0.5-0.8,1-1.1c0,0.2,0,0.3-0.1,0.4
				c-0.5,2.1-1.2,4.2-1.5,6.4c-0.1,0.9-0.2,1.7,0.1,2.6c0.2,0.5,0.5,1,1.2,0.7c0.8-0.3,1.5-0.7,2-1.3c0.3-0.4,0.4-0.7,0-1
				c-0.6-0.5-0.7-1.2-0.5-1.9c0.7-3.2,1.4-6.3,2.3-9.4c0.4-1.2,0.2-1.6-1-2c-0.8-0.2-1.5-0.6-1.9-1.3c-2.5-4-3.1-8.2-0.6-12.5
				c1.2-2.1,2.4-4.3,3.6-6.4c1.4-2.5,3.1-4.8,5.2-6.7c2-1.9,3.9-3.9,5.5-6.2c1.4-2,2.2-4.1,2.2-6.6c0-1.1-0.1-1.2-1.1-0.7
				c-4.1,1.9-7.6,4.5-10.4,8.1c-0.2,0.3-0.5,0.6-0.8,0.8c-1.9,1.3-3.2,3.1-4.3,5.1c-0.5,0.9-1,1.8-1.8,2.5c-2.4,2-3.8,4.6-4.7,7.6
				c-0.1,0.3-0.2,0.7-0.4,1c-1,1.2-1.7,2.6-2.2,4c-0.1,0.5-0.4,0.5-0.7,0.1c-0.5-0.6-0.8-1.2-0.8-2c0-1.4,0.4-2.8,0.8-4.1
				c0.7-2.1,1.2-4.2,1.3-6.5c0.2-2.7-0.3-5.4-0.6-8c-0.5-4.8-1.2-9.6-1.7-14.4c-0.7-5.6-1.4-11.2-2.9-16.7c-0.2-0.7-0.2-1.5-0.3-2.3
				c0-0.4,0.1-0.8,0.6-0.9c0.5-0.1,0.7,0.2,0.9,0.6c0.2,0.5,0.4,0.9,0.5,1.4c0.8,3.4,1.4,6.7,2.2,10.1c2.1,8.9,3.1,17.8,2.8,27
				c-0.1,1.6,0,3.2,0,4.9c0,0.2,0,0.5,0.2,0.5c0.3,0.1,0.3-0.2,0.4-0.3c0.8-1,1.4-2.1,1.8-3.2c0.4-1.2,0.7-2.4,1.2-3.5
				c3.3-8.9,4.7-18.2,5.4-27.6c0.3-3.5,0.1-7,0-10.5c-0.1-2.5-0.2-5.1-0.6-7.6c-0.8-6-2.5-11.8-4.7-17.5c-0.8-2.1-1.8-4-3.3-5.7
				c-1.4-1.5-3-2.2-5-1.8c-0.4,0.1-0.8,0.1-1.2,0.1c-5.2,0.5-10,2.2-14.1,5.5c-3.1,2.4-5.6,5.5-8.2,8.4c-0.3,0.4-0.4,0.9-0.5,1.3
				c-0.1,2.1,0.1,4.2,1,6.2c2.3,5.2,3.7,10.7,5.1,16.2c0.1,0.4,0.1,0.8-0.4,1c-0.5,0.2-0.6-0.3-0.8-0.6c-0.1-0.3-0.3-0.6-0.4-0.9
				c-1.3-3.4-2.6-6.7-3.8-10.2c-1-2.8-3-5.1-3.3-8.1c0-0.1-0.1-0.3-0.3-0.3c-0.2,0-0.3,0.2-0.3,0.4c-0.2,0.4-0.2,0.8-0.2,1.2
				c-0.3,2.8-0.7,5.6-1,8.4c-0.4,3.7-1,7.5-1.1,11.3c-0.1,1.8,0,3.7,0,5.5c0,0.7-0.2,1.3-0.9,1.5c-0.7,0.1-1.1-0.4-1.4-0.9
				c-0.9-1.5-1.7-3-2.4-4.7c-0.8-2-1.9-3.9-3.1-5.7c-0.1-0.2-0.2-0.4-0.5-0.4c-0.3,0-0.4,0.3-0.5,0.5c-0.4,1.1-0.2,2.1,0.1,3.1
				c0.7,2.1,0.4,4-0.9,5.8c-0.7,0.9-1,2-1.2,3.2c-0.2,1.2,0,2.3,1,3.1c0.4,0.4,0.6,0.8,0.9,1.3c1.5,3.4,4.1,5.8,7.5,7.1
				c0.7,0.3,1.4,0.6,1.9,1c1.4,1.2,3.1,2,4.9,2.4c0.6,0.1,1,0.4,1.4,0.9c0.2,0.3,0.4,0.6,0.2,1c-0.2,0.4-0.6,0.5-1,0.4
				c-0.7-0.1-1.4-0.3-2.1-0.6c-1.4-0.6-2.9-0.7-4.5-0.4c-0.7,0.1-0.9,0.5-0.7,1.1c0.2,0.5,0.3,1,0.5,1.5c0.2,0.9-0.3,1.5-1.2,1.4
				c-0.9-0.1-1.7-0.8-1.7-1.8c0-0.5,0.1-0.9,0-1.4c0-0.7-0.8-1.1-1.4-0.7c-0.9,0.7-1.7,1.6-2.4,2.6c-0.7,1,0,2.3,1.2,2.4
				c0.4,0,0.7,0,1.1,0c1,0.1,1.8,0.5,2.2,1.5c0.7,2,2.2,2.9,4,3.4c3.1,0.9,6.2,1.6,9.4,2c1.2,0.2,2.3,0.1,3.5,0.4
				c1.2,0.3,2.3,0.8,3.2,1.8c0.1,0.1,0.3,0.3,0.2,0.5c-0.1,0.2-0.3,0.1-0.5,0c-2-0.3-3.9-0.6-5.9-0.9c-0.6-0.1-1.2-0.2-1.5,0.4
				c-0.4,0.7,0.1,1.1,0.5,1.5c0.9,0.9,1.9,1.5,3,2.2c1,0.6,2.1,1.2,3.1,1.9c0.4,0.3,0.7,0.7,0.5,1.2c-0.1,0.5-0.5,0.8-1.1,0.9
				c-0.7,0.1-1.4,0.1-2-0.1c-2.3-0.6-4.5-1.2-6.8-1.8c-2.7-0.7-5.2-1.7-7.5-3.2c-1.7-1.1-3.4-2-5.2-3
				C16.1,114.5,15.6,114.3,14.9,114.3z M91,192.4c0.1,0.9-0.2,1.6-1,1.9c-1.1,0.5-1.3,1.3-1.1,2.4c0.3,1.6,0.2,3.2-0.3,4.7
				c-0.4,1.2-0.3,2.4,0.6,3.4c0.5,0.6,0.5,1.1,0.1,1.7c-0.6,0.9-0.9,1.9-1.1,2.9c-0.2,1-0.4,2-0.9,2.9c-0.5,1-0.7,2.1-0.3,3.2
				c0.1,0.4,0.1,0.7-0.1,1c-2.1,2.8-4.6,4.9-8.1,5.5c-3.3,0.6-6.7,1.1-10,1.7c-7.2,1.3-14.4,2.6-21.6,3.7c-0.4,0.1-0.9,0.3-1.3,0.1
				c-0.5-0.2-0.1-0.8-0.2-1.2c0,0,0-0.1,0-0.2c0-0.3-0.2-0.4-0.5-0.5c-0.3,0-0.4,0.2-0.5,0.4c-0.1,0.4-0.2,0.7-0.3,1.1
				c-0.1,0.4-0.3,0.7-0.8,0.7c-1.6,0.2-3.1,0.4-4.7,0.6c-0.5,0.1-0.7-0.2-0.7-0.6c-0.2-1.8-0.5-3.6,0.7-5.2c0.3-0.4,0-0.8-0.4-1.1
				c-0.4-0.3-0.7-0.1-0.9,0.3c-0.1,0.2-0.2,0.5-0.3,0.7c-0.7,1.7-1,3.6-1.5,5.4c-0.1,0.4-0.3,0.7-0.8,0.7c-0.4,0-0.7,0.2-1-0.3
				c-0.2-0.4-0.5-0.3-0.7,0c-0.3,0.4-0.7,0.5-1.2,0.5c-1.3-0.1-1.9-1-1.5-2.3c0.2-0.8,0.6-1.6,0.6-2.5c0-0.7,0-1.3-0.6-1.8
				c-0.2-0.2-0.3-0.4-0.6-0.3c-0.2,0.1-0.2,0.3-0.2,0.5c-0.2,1.9-1,3.5-1.5,5.3c-0.1,0.6-0.5,0.8-1.1,0.7c-1.2-0.2-2.3-0.5-3.4-1
				c-2.4-1.1-3.6-2.9-3.7-5.5c0-1.3,0.3-2.5,0.6-3.6c0.3-1.1,0.2-2.1-0.5-3c-0.6-0.9-1.2-1.8-1.8-2.8c-0.8-1.2-0.8-1.2-1.6-0.1
				c-0.1,0.1-0.2,0.3-0.3,0.2c-0.2-0.1-0.1-0.3-0.1-0.4c0.1-0.7,0.1-1.4,0.2-2c0-0.2,0.1-0.4-0.1-0.5c-0.2-0.1-0.4,0.1-0.5,0.3
				c-0.3,0.6-0.7,1.3-0.8,2c-0.7,3.1-0.2,6.1,1.3,8.9c1.5,2.8,3.6,5,6.2,6.7c4.9,3.3,10.1,5.7,16,6.4c3.4,0.4,6.8,0.6,10.2,0.8
				c0.6,0,0.9,0.2,0.8,0.9c-0.4,2.4-0.8,4.8-1.1,7.2c-0.6,4.2-0.9,8.5-1.3,12.7c0,0.4-0.1,0.8,0.1,1.2c0.2-0.3,0.2-0.5,0.3-0.8
				c1.4-4.8,2.6-9.7,3.7-14.6c0.3-1.2,0.4-1.3,1.5-1.4c0.7-0.1,1.4-0.2,2-0.7c0.3-0.2,0.4-0.5,0.2-0.8c-0.6-0.8-0.5-1.8-0.4-2.7
				c0.1-0.6,0.4-0.8,1-0.8c4.5,0,9.1-0.2,13.6-0.7c5.9-0.7,11.6-2,17-4.4c7.3-3.3,13-8.3,16.5-15.5c0.9-1.8,1.7-3.7,1.7-5.8
				c0.1-4.9-2-8.7-5.9-11.6c-1.6-1.2-1.8-1.1-2.5,0.7c-0.4,0.9-0.8,1.7-1.2,2.6c-0.1,0-0.1,0-0.2-0.1c0.3-1.1,0.5-2.1,0.8-3.2
				c0.2-1,0.1-1.5-0.8-2.2c-0.8-0.6-1.6-1.1-2.4-1.7C91.8,192.9,91.5,192.5,91,192.4z M103.4,40.4C103.4,40.4,103.4,40.4,103.4,40.4
				c0-0.6,0-1.3,0-1.9c0-0.4-0.2-0.5-0.5-0.4c-1.6,0.6-3.4,0.7-5.1,1.2c-0.7,0.2-1.3,0.1-1.8-0.4c-0.4-0.3-0.8-0.6-1.3-0.7
				c-1.4-0.2-2.2-1.1-2.8-2.2c-0.7-1.3-1.5-2.5-2.5-3.6c-0.6-0.7-1.3-0.9-1.9-0.5c-0.8,0.4-0.7,1.1-0.6,1.8c0.1,0.5,0.2,1,0.1,1.6
				c-0.1,0.9-0.4,1.2-1.3,1.2c-0.6,0-1.2-0.1-1.7-0.1c-0.6-0.1-0.7,0.2-0.7,0.7c0.1,1,0.6,1.8,1.4,2.5c0.8,0.7,1.7,1.3,2.5,2.1
				c1.6,1.6,3.5,2.3,5.7,2.1c1.3-0.1,2.5,0.1,3.7,0.4c0.3,0.1,0.7,0,0.7,0.4c0.1,0.4-0.3,0.6-0.5,0.8c-1.4,1.1-2.9,1.1-4.6,0.6
				c-1.3-0.4-2.7-0.7-4.1-0.7c-2.1,0-4.1-0.5-6-1.3c-1.2-0.5-2.4-1.1-3.6-1.6c-0.7-0.3-0.9-0.2-0.9,0.6c0,1.2,0.4,2.3,1.1,3.3
				c0.6,0.8,0.8,1.7,0.5,2.7c-0.2,0.8,0.3,1.4,1.1,1.2c0.5-0.1,0.9-0.3,1.3-0.5c0.5-0.3,1.1-0.3,1.6-0.1c1.4,0.8,2.8,1.6,3.6,3.1
				c0.3,0.5,0.7,0.7,1.3,0.6c0.3-0.1,0.7-0.1,1,0c0.2,0.1,0.4,0.2,0.5,0.5c0.1,0.3-0.1,0.4-0.3,0.5c-0.6,0.4-1.3,0.7-2.1,0.6
				c-0.7-0.1-1.3,0-2,0.2c-2.9,0.7-2.5,0.7-2.8,3.1c-0.1,1.1-0.5,1.4-1.7,1.3c-0.7-0.1-1.4-0.2-2,0.3c-0.8,0.7-1.7,0.9-2.8,0.9
				c-0.6-0.1-1.3-0.1-1.9-0.2c-0.6-0.1-0.8,0.1-0.7,0.7c0.3,2.2,1.1,4,3.1,5.2c0.5,0.3,0.7,0.7,0.5,1.2c-0.2,0.6,0,1.1,0.3,1.7
				c0.9,1.5,1.8,3.1,2.7,4.6c0.3,0.5,0.7,1.1,1.1,1.5c0.7,0.6,0.9,0.6,1.4-0.1c1.8-2.4,3.4-5,4.7-7.8c1.7-3.8,2.8-7.8,3.8-11.8
				c0.3-1.2,0.9-2.1,1.8-2.9c1.2-0.9,2.4-1.6,3.7-2.4c0.2-0.1,0.4-0.4,0.6-0.2c0.3,0.2,0,0.4,0,0.6c-0.8,3.2-1.3,6.4-1.8,9.7
				c-0.4,2.6-0.9,5.2-1.7,7.8c-0.1,0.5-0.3,0.9-1,1c-0.6,0-0.9,0.5-1,1.1c-0.1,1,0,1.9,0.3,2.8c0.1,0.4,0.3,0.8,0.1,1.1
				c-0.7,1.1-0.8,2.4-0.9,3.7c-0.1,1.1,0.1,1.5,1.2,1.9c1,0.4,2,0.7,3,1c2.6,0.8,5.1,1.9,7,4c1.2,1.3,2.4,2.4,4.1,2.7
				c0.1,0,0.3,0.1,0.4,0.2c1.3,0.6,2.5,1.4,3.7,2.3c0.5,0.3,0.7,0.3,1-0.2c0.2-0.5,0.4-1.1,0.6-1.6c0.5-2.2,0.5-4.4,0.7-6.6
				c0.1-1.4-0.2-2.5-1.1-3.5c-1.2-1.6-2.2-3.3-2.9-5.1c-0.3-0.8-0.8-1.4-1.6-1.7c-0.6-0.2-1.2-0.5-1.8-0.7c-2.6-0.8-5.2-1.2-7.8-1.4
				c-1.2-0.1-1.2-0.1-0.9-1.2c0.3-1,0.5-2,0.6-3c0.4-3.6,1.2-7.1,2.9-10.4c0.3-0.6,0.6-1.4,1.4-1.3c0.8,0.1,0.9,1,1.1,1.6
				c0.6,1.9,0.6,3.9,0.7,5.9c0.1,0.9,0.3,1.7,0.9,2.4c0.7,0.8,1.5,1.3,2.5,1.1c1-0.1,1.4-0.9,1.8-1.8c0.4-1,0.4-1.9,0.2-2.9
				c-0.3-1.3-0.6-2.6-0.9-3.8c-0.2-0.7-0.3-1.5,0.1-2.1c0.4-0.6,0.2-1-0.4-1.4c-0.5-0.3-1-0.5-1.5-0.6c-1-0.2-1.9-0.4-2.9-0.6
				c-1.4-0.3-1.8-1-1.5-2.4c0.2-1,0.5-2.1,0.8-3.1c0.1-0.2,0.1-0.5,0.4-0.6c0.4,0,0.5,0.3,0.6,0.5c0.3,0.9,0.6,1.8,0.9,2.7
				c0.2,0.6,0.5,1.2,1.2,1.5c1.5,0.6,3.1,0.9,4.7,0.9c0.6,0,0.8-0.3,0.6-0.8c-0.2-0.7-0.5-1.3-0.7-2c-0.3-0.8-0.3-1.5,0.3-2.1
				c0.3-0.3,0.4-0.7,0.2-1.1c-0.3-1.1-1-1.8-2-2.3c-0.6-0.3-1,0.1-0.9,0.7c0,0.2,0.1,0.3,0.1,0.5c0,0.5,0.5,1.1-0.2,1.4
				c-0.7,0.2-0.9-0.5-1.2-0.9c-0.2-0.2-0.3-0.5-0.4-0.8c-0.1-0.4-0.2-0.8-0.4-1.2c-0.1-0.2-0.1-0.4-0.4-0.4c-0.2,0-0.3,0.2-0.4,0.3
				c-0.1,0.3-0.2,0.5-0.4,0.7c-0.1,0.2-0.3,0.6-0.6,0.5c-0.3-0.1-0.4-0.4-0.4-0.7C103.4,41.6,103.4,41,103.4,40.4z M125.4,155.4
				c0.1-0.4,0.1-0.8,0-1.2c-2.2-8.9-4.4-17.8-6.5-26.7c-1.1-4.5-2.4-9-2.8-13.6c-0.2-1.8-0.8-2.6-2.6-3c-2-0.5-3.7-1.5-5.3-2.8
				c-0.8-0.6-1.1-1.4-1-2.4c0.2-1.6-0.2-2.1-1.6-2.8c-4.3-1.9-8.4-4.1-12.6-6.2c-1.3-0.6-2-1.7-2.2-3.1c-0.4-2.7-0.1-5.4,0.1-8
				c0.1-1.3,0.4-2.6,0.5-3.9c0.1-0.4,0.1-0.9-0.5-1c-1.4-0.2-2.3,0.3-2.8,1.6c-0.3,0.9-0.5,1.8-0.8,2.8c-5,17.3-9.1,34.9-14.3,52.2
				c-0.1,0.3-0.1,0.6-0.1,1c0,0.5,0.4,0.7,0.8,0.8c0.4,0.1,0.7-0.1,0.9-0.5c0.1-0.3,0.2-0.6,0.3-0.9c0.8-3.1,1.6-6.3,2.4-9.4
				c0.4-1.5,1.2-2.6,2.7-3c0.5-0.1,0.5-0.4,0.4-0.8c-0.1-0.6-0.2-1.1-0.3-1.7c-0.4-3.1,0-6.2,0.5-9.3c1.7-10.3,4.9-20.1,8.4-29.8
				c0.1-0.2,0.1-0.6,0.5-0.5c0.4,0.1,0.2,0.4,0.2,0.6c-0.1,1.6-0.5,3.1-0.9,4.6c-1.4,5.8-3,11.5-4.4,17.3c-0.1,0.3-0.2,0.7-0.2,1
				c0,0.2-0.2,0.6,0.1,0.7c0.3,0.1,0.4-0.2,0.5-0.4c0.1-0.1,0.1-0.2,0.2-0.3c0.4-0.7,0.7-1.5,1.2-2.2c0.9-1.3,2.3-1.4,3.3-0.2
				c0.5,0.5,0.8,1.2,1,1.8c1,2.6,1.4,5.4,1.4,8.2c0,7.1-0.9,14-1.4,21.1c-0.6,6.8-1.3,13.6-2,20.3c-0.1,0.9,0.1,1.1,1,1.3
				c1.3,0.3,2.7,0.3,4.1,0.3c1,0.1,1.6-0.3,2.2-1.1c2.6-3.7,3.3-7.9,3-12.4c-0.6-6.5-1-12.9-1.6-19.4c-0.3-2.9-0.5-5.9-1-8.8
				c-0.5-3-1.6-5.7-2.5-8.6c-0.2-0.7-0.5-1.2-1.1-1.7c-0.6-0.4-0.8-1-0.8-1.7c0-0.5,0-0.9,0-1.4c0-1.7,1.3-2.6,2.9-2
				c1,0.4,1.9,0.8,2.8,1.3c1.3,0.6,1.6,1.4,1.3,2.8c-0.3,1.4-0.8,2.8-1,4.2c-0.2,1.5,0.3,2.2,1.7,2.5c1,0.2,2,0.3,3,0.5
				c1.2,0.3,2.1-0.2,2.8-1.1c0.2-0.3,0.3-0.6,0.7-0.5c0.4,0.1,0.4,0.5,0.5,0.8c0.3,1,0.2,2.1,0.9,3c0.8,1.1,1.1,2.3,1.2,3.7
				c0.2,2,0.4,4.1,1.3,6c0.1,0.2,0.2,0.5,0.2,0.8c0,0.7,0.2,1.3,0.4,1.9c2.2,6.5,5.1,12.7,8,18.8c1.6,3.4,3.3,6.8,5.7,9.7
				C124.6,154.8,124.9,155.2,125.4,155.4z M30.3,213c-0.7,0.6-0.9,1.3-0.8,2.1c0,0.3,0.1,0.6,0.4,0.6c0.8,0.1,1.2,0.7,1.5,1.4
				c0.8,1.6,1.2,1.8,2.9,1.4c0.8-0.2,1.5-0.4,2.3-0.3c1,0.1,1.7-0.4,2.1-1.3c1.5-3,2.4-6.1,2.7-9.4c0.3-3.6,0.3-7.3,0.9-10.9
				c0.5-2.6,1.1-5.1,2.7-7.3c0.3-0.4,0.6-0.7,0.9-0.1c0.3,0.5,0.6,0.4,0.9,0c0.7-0.9,1-1.9,0.6-3.1c-0.3-0.8-0.6-1.7-0.8-2.5
				c-0.4-1.8-0.4-3.7-0.6-5.5c0-0.3,0-0.6-0.4-0.7c-0.3-0.1-0.5,0.2-0.6,0.4c-4.1,6.1-7.7,12.4-10.3,19.3c-1,2.8-1.9,5.7-2.1,8.7
				c-0.1,2,0.1,3.9,0.7,5.8c0.3,1-0.2,2-1.1,2.5c-0.7,0.3-1.2,0-1.8-1C30.4,213.1,30.4,213,30.3,213z M28.5,189.9c0-0.2,0-0.4,0-0.5
				c-0.1-0.5-0.1-1.1-0.6-1.2c-0.5-0.1-0.7,0.4-1,0.7c-0.9,1.3-1.8,2.5-3.3,3.2c-0.2,0.1-0.3,0.3-0.4,0.4c-2.5,3-3.7,6.6-4.4,10.4
				c-0.1,0.3,0,0.6,0.3,0.7c0.3,0.2,0.5,0.1,0.8-0.1c0.6-0.4,1.1-0.9,1.6-1.3c0.4-0.4,0.7-0.4,1.2-0.1c0.7,0.5,1.5,0.5,2.3,0.1
				c1-0.5,1.7-1.2,2.4-2.1c1.1-1.6,2.1-3.4,2.9-5.2c1.2-2.6,1.5-5.4,2-8.2c0.3-1.8,0.7-3.6,1.8-5.2c0.6-0.9,0.9-1,1.9-0.8
				c0.6,0.1,0.9-0.1,1.1-0.5c0.3-0.6,0.7-1.2,1-1.9c1.1-2,1.5-2.1,3.4-0.8c0.9,0.7,1.4,0.6,2.2-0.2c0.9-0.9,1.6-2,2.2-3.2
				c0.1-0.2,0.2-0.5,0.5-0.6c1.2-0.8,1.7-1.9,1.8-3.3c0.1-0.8,0.5-1.3,1.3-1.5c0.8-0.2,1.4-0.7,1.6-1.4c0.6-2,1.2-4,1.8-6
				c0.2-0.6,0-1.2-0.6-1.5c-0.9-0.5-2.9-0.3-3.6,0.4c-0.2,0.1-0.2,0.3-0.1,0.5c0.1,0.2,0.2,0.1,0.4,0.1c0.1,0,0.2-0.1,0.4-0.1
				c0.2-0.1,0.5-0.1,0.6,0.2c0.1,0.3,0,0.4-0.2,0.6c-0.5,0.4-1,0.7-1.4,1.1c-0.3,0.2-0.6,0.5-0.7,0.8c-0.6,1.8-1.8,3.3-3,4.7
				c-1.2,1.5-2.4,2.9-3.1,4.7c-0.3,0.8-1,1.3-1.8,1.6c-1,0.4-1.9,0.9-2.7,1.7c-0.8,0.8-1.5,1.7-2.2,2.5c-1.7,1.9-2.7,4.1-2.9,6.7
				c-0.3,3.9-1.4,7.5-3.1,11c-0.3,0.7-0.4,0.7-1,0.2c-0.7-0.7-0.9-1.6-0.4-2.6c0.3-0.7,0.7-1.4,1.1-2.2
				C28.3,191.2,28.5,190.6,28.5,189.9z M68.5,150c-0.5,0.1-1.2-0.3-1.5,0.6c-0.2,0.6-0.2,1.2,0.4,1.6c0.9,0.7,2,1.1,3.2,1.2
				c0.8,0.1,1.1-0.2,1-1.1c-0.1-0.9,0-1.8,0.1-2.7c0.5-2.4,1.2-4.6,1.8-7c0.1-0.3,0.3-0.7-0.2-0.8c-0.4-0.2-0.8,0-1,0.3
				c-0.2,0.2-0.3,0.5-0.4,0.7c-0.8,1.8-1,3.8-1.6,5.7C70,149.9,69.9,150,68.5,150z M111.2,103.1c0-0.1,0-0.1,0-0.2
				c-0.6-2.7-1.2-5.5-1.9-8.2c-0.1-0.6-0.6-1-1.1-1.2c-0.6-0.3-1.1-0.2-1.3,0.5c-0.2,0.5-0.2,1-0.1,1.5c0.4,2.2,1.2,4.4,1.8,6.6
				c0.2,0.5,0.3,1,0.5,1.5c0.3,0.5,0.7,0.9,1.4,0.7C111.1,104.1,111.2,103.7,111.2,103.1z M84.5,31.8c0.3,0,0.8-0.2,1.3-0.4
				c1.8-0.6,1.6-0.6,1.3-2.5c-0.1-0.9-0.6-1.8-1.5-2.2c-0.3-0.1-0.7-0.3-0.9,0c-0.7,0.9-1.5,1.7-1.9,2.8
				C82.4,30.7,83.2,31.8,84.5,31.8z M57.2,162.5c0-0.4-0.1-0.6-0.4-0.8c-0.4-0.2-0.7-0.5-1.1-0.7c-0.6-0.3-1-0.2-1.2,0.5
				c-0.4,1.1-0.8,2.1-1.2,3.2c-0.5,1.4-0.3,1.8,1.2,2.3c0.5,0.2,0.8,0.1,1-0.4c0.5-1.2,1-2.4,1.6-3.5
				C57.1,162.9,57.1,162.7,57.2,162.5z M37,168.4c0,0.3,0,0.7,0.4,0.9c0.4,0.2,0.7-0.1,1-0.4c1.3-1.2,2.4-2.5,3-4.1
				c0.2-0.4,0.4-0.8,0-1.1c-0.3-0.3-0.8-0.2-1.1,0C38.6,164.2,37,166.5,37,168.4z M76,58.7c0.1,0,0.4,0.1,0.5-0.2
				c0.1-0.2-0.1-0.4-0.2-0.5c-1.2-0.9-2.5-1.8-3.7-2.7c-0.3-0.2-0.7-0.3-1,0c-0.4,0.3-0.5,0.7-0.2,1.2c0.1,0.2,0.3,0.4,0.5,0.6
				C72.9,58.1,74.3,58.6,76,58.7z"/>
			<path class="st1" d="M41.5,68.8c-0.1,3.9-0.1,7.8-0.3,11.7c-0.1,3.6-0.3,7.3-0.3,10.9c0,4.8,0.4,9.6,0.6,14.4c0,0.7,0,1.4-0.1,2
				c-0.1,0.7-0.5,0.8-1.1,0.5c-0.2-0.1-0.5-0.3-0.7-0.5c-1.5-1.8-2.7-3.7-3.3-6c-0.2-0.7-0.1-1.4,0.4-2c0.3-0.3,0.4-0.7,0.3-1.2
				c-0.8-3.1-0.8-6.3-0.4-9.5c0.5-5.6,1.1-11.1,1.6-16.7c0.6-6.7,1.1-13.4,1.6-20.1c0-0.5,0-1,0.1-1.4c0-0.3,0-0.6,0.3-0.7
				c0.4-0.1,0.4,0.3,0.5,0.6c0.6,2.1,0.7,4.3,0.8,6.5C41.7,61.1,41.6,64.9,41.5,68.8z"/>
			<path class="st1" d="M43.3,109c0.3-5.1,0.2-10.1,0.4-15.1c0.3-8.7,1.4-17.4,2.9-26c0.8-4.5,1.2-9,1.1-13.5c0-1.1-0.2-2.1-0.3-3.2
				c-0.1-0.6-0.3-1.1-0.8-1.5c-0.3-0.2-0.4-0.5-0.5-0.8c-0.3-1.9-0.3-3.8,0.4-5.7c0.1-0.3,0.1-0.6,0.6-0.6c0.4,0,0.4,0.3,0.5,0.6
				c0.7,2.2,1,4.4,1.4,6.7c0.5,2.7,1.1,5.5,1.1,8.3c0,2.2-0.4,4.3-0.6,6.5c-0.5,5.1-1.1,10.2-1.6,15.3c-0.5,5.1-1,10.1-1.3,15.2
				c-0.2,3.9-0.2,7.7-0.1,11.6c0.1,1.4,0.1,2.9-0.1,4.3c-0.1,1-0.6,1.6-1.3,1.6c-0.7,0.1-1-0.3-1.3-0.9
				C43.3,110.9,43.3,109.9,43.3,109z"/>
			<path class="st1" d="M30.6,95.3c1,1,2,2,2.9,3c0.5,0.5,1,1,1.4,1.6c0.2,0.2,0.3,0.5,0.1,0.7c-0.2,0.2-0.5,0.2-0.7,0.1
				c-1.9-0.7-3.5-1.6-4.7-3.3c-0.5-0.6-0.6-1.4-0.5-2.2c0.2-1.1-0.3-1.8-1-2.5c-1.5-1.3-3.2-2.2-5-3c-1.3-0.6-2.6-1.2-3.9-1.8
				c-1.7-0.8-3.1-1.9-4.1-3.4c-0.1-0.2-0.4-0.4-0.3-0.7c0.2-0.3,0.5-0.1,0.7-0.1c4.9,0.6,9.4,2.5,13.3,5.5c1.3,1,2.5,2.1,3.4,3.5
				c0.3,0.5,0.6,0.9,0.7,1.5c0.1,0.8-0.2,1.1-1,1c-0.2,0-0.4-0.1-0.7-0.1c-0.2,0-0.4-0.1-0.6-0.1C30.6,95.2,30.6,95.2,30.6,95.3z"/>
			<path class="st1" d="M61.8,156.3c1.3-0.2,2.6,0,3.8,0.1c6.5,0.8,13,1.7,19.4,3.2c1.9,0.4,3.8,0.9,5.6,1.5
				c0.2,0.1,0.5,0.1,0.5,0.3c0,0.3-0.2,0.4-0.4,0.5c-1.4,0.9-3,1.4-4.6,2c-0.5,0.2-0.9,0-1.4-0.3c-2.3-1.2-4.6-2.3-6.8-3.5
				c-2.4-1.3-5-1.8-7.6-2.2c-2.7-0.4-5.4-0.9-8.1-1.4C62.2,156.5,61.9,156.6,61.8,156.3z"/>
			<path class="st1" d="M139.8,173.1c-0.2,1.2-0.3,2.6-0.8,3.9c-0.3,0.8-0.6,1-1.4,0.6c-1.6-0.8-2.7-2-3.4-3.5
				c-0.8-1.8-1.5-3.7-2.3-5.6c-0.2-0.5,0-0.8,0.5-0.8c0.7-0.1,1.4,0,2,0.1c0.5,0.1,0.7,0.5,0.8,0.9c0.2,0.6,0.3,1.1,0.5,1.7
				c0.4,1.1,1.1,1.5,2.3,1.5c0.2,0,0.4,0,0.5,0C139.6,171.7,139.8,171.9,139.8,173.1z"/>
			<path class="st1" d="M62.1,138.2c0,0.1,0,0.2,0,0.2c0,3-2,3-4,2.1c-0.4-0.2-0.4-0.5-0.3-0.8c0.4-2,1.2-3.8,2.3-5.5
				c0.4-0.5,0.6-0.4,0.9,0.1C61.7,135.6,62.1,136.8,62.1,138.2z"/>
			<path class="st1" d="M49.9,151.9c-0.9-0.1-1.7-0.1-2.5-0.6c-0.9-0.6-1.2-1.6-0.9-2.5c0.2-0.5,0.5-0.6,0.9-0.6
				c1.9,0.3,3.4,1.3,4.6,2.8c0.3,0.3,0.1,0.6-0.3,0.6C51.1,151.8,50.5,151.9,49.9,151.9z"/>
			<path class="st1" d="M58.5,49.3c0-0.2,0-0.3,0-0.5c0-0.2,0-0.5,0.3-0.6c0.3-0.1,0.4,0.1,0.6,0.3c0.6,0.7,1,1.5,1.4,2.3
				c0.6,1.3,1,2.6,1.2,4c0,0.3,0.1,0.6-0.2,0.7c-0.3,0.1-0.5-0.1-0.7-0.4C59.8,53.5,58.8,51.6,58.5,49.3z"/>
			<path class="st1" d="M58.6,63.9c-1.8-0.6-3.1-1.5-4.1-3C55.7,60.8,58,62.4,58.6,63.9z"/>
			<path class="st1" d="M107.2,60.7c0,0.4-0.1,0.8-0.6,0.9c-0.6,0.1-1.1-0.2-1.3-0.8c-0.1-0.3-0.1-0.7-0.2-1c0-1.3-0.1-2.6-0.3-3.8
				c-0.1-0.6,0-1.3,0.2-1.9c0.2-0.4,0.5-0.5,0.8-0.5c0.5,0,0.4,0.4,0.5,0.6C106.8,56.4,107,58.5,107.2,60.7z"/>
			<path class="st1" d="M34.7,212.1c0.2-1.4,0.7-2.9,1.1-4.5c0.5-2,1-3.9,1.5-5.9c0.1-0.4,0.3-0.8,0.4-1.1c0.2-0.5,0.6-0.8,1.1-0.6
				c0.6,0.2,0.8,0.5,0.7,1.1c-0.3,1.8-0.6,3.5-0.9,5.3c-0.2,1.4-0.4,2.7-0.6,4.1c-0.1,0.5,0,0.9,0.1,1.3c0.3,0.8,0.4,1.6-0.3,2.2
				c-0.7,0.6-1.4,0.4-2.1,0.1C35,213.8,34.6,213.2,34.7,212.1z"/>
		</g>
	</g>
	<g>
		<path class="st0" d="M486.9,114.3c0.6,0,1.2,0.2,1.7,0.5c1.7,1,3.5,2,5.2,3c2.3,1.5,4.9,2.5,7.5,3.2c2.3,0.6,4.5,1.2,6.8,1.8
			c0.7,0.2,1.4,0.2,2,0.1c0.5-0.1,0.9-0.3,1.1-0.9c0.1-0.5-0.1-1-0.5-1.2c-1-0.6-2.1-1.3-3.1-1.9c-1.1-0.6-2.1-1.3-3-2.2
			c-0.4-0.4-0.9-0.9-0.5-1.5c0.4-0.6,0.9-0.5,1.5-0.4c2,0.3,3.9,0.6,5.9,0.9c0.2,0,0.4,0.2,0.5,0c0.1-0.2-0.1-0.4-0.2-0.5
			c-0.9-0.9-2-1.4-3.2-1.8c-1.1-0.3-2.3-0.3-3.5-0.4c-3.2-0.5-6.3-1.1-9.4-2c-1.8-0.5-3.4-1.5-4-3.4c-0.3-1-1.2-1.4-2.2-1.5
			c-0.4,0-0.7,0-1.1,0c-1.2-0.1-1.9-1.4-1.2-2.4c0.6-1,1.5-1.8,2.4-2.6c0.6-0.5,1.3-0.1,1.4,0.7c0,0.5,0,0.9,0,1.4
			c0,1,0.7,1.7,1.7,1.8c0.9,0.1,1.5-0.6,1.2-1.4c-0.1-0.5-0.3-1-0.5-1.5c-0.2-0.6,0-1,0.7-1.1c1.5-0.3,3-0.2,4.5,0.4
			c0.7,0.3,1.4,0.5,2.1,0.6c0.4,0.1,0.8,0,1-0.4c0.2-0.4,0-0.7-0.2-1c-0.4-0.5-0.8-0.7-1.4-0.9c-1.8-0.4-3.5-1.2-4.9-2.4
			c-0.6-0.5-1.2-0.8-1.9-1c-3.5-1.4-6-3.7-7.5-7.1c-0.2-0.5-0.4-1-0.9-1.3c-1-0.8-1.2-1.9-1-3.1c0.2-1.1,0.5-2.2,1.2-3.2
			c1.3-1.8,1.6-3.7,0.9-5.8c-0.3-1-0.5-2.1-0.1-3.1c0.1-0.2,0.1-0.5,0.5-0.5c0.3,0,0.4,0.2,0.5,0.4c1.2,1.8,2.3,3.7,3.1,5.7
			c0.7,1.6,1.5,3.2,2.4,4.7c0.3,0.5,0.7,1,1.4,0.9c0.8-0.2,0.9-0.8,0.9-1.5c0-1.8,0-3.7,0-5.5c0.1-3.8,0.7-7.5,1.1-11.3
			c0.3-2.8,0.7-5.6,1-8.4c0-0.4,0.1-0.8,0.2-1.2c0.1-0.2,0.1-0.4,0.3-0.4c0.2,0,0.3,0.2,0.3,0.3c0.3,3,2.3,5.3,3.3,8.1
			c1.2,3.4,2.5,6.8,3.8,10.2c0.1,0.3,0.2,0.6,0.4,0.9c0.2,0.3,0.3,0.8,0.8,0.6c0.5-0.2,0.5-0.6,0.4-1c-1.4-5.5-2.9-11-5.1-16.2
			c-0.9-2-1.1-4-1-6.2c0-0.5,0.1-1,0.5-1.3c2.6-2.9,5.1-6,8.2-8.4c4.1-3.3,8.9-4.9,14.1-5.5c0.4,0,0.8-0.1,1.2-0.1
			c2-0.4,3.7,0.4,5,1.8c1.5,1.6,2.5,3.6,3.3,5.7c2.2,5.7,3.8,11.5,4.7,17.5c0.3,2.5,0.5,5,0.6,7.6c0.1,3.5,0.3,7,0,10.5
			c-0.7,9.4-2.1,18.7-5.4,27.6c-0.4,1.2-0.8,2.4-1.2,3.5c-0.4,1.2-1,2.3-1.8,3.2c-0.1,0.1-0.2,0.4-0.4,0.3c-0.2-0.1-0.2-0.3-0.2-0.5
			c0-1.6-0.1-3.2,0-4.9c0.4-9.1-0.6-18.1-2.8-27c-0.8-3.3-1.5-6.7-2.2-10.1c-0.1-0.5-0.3-1-0.5-1.4c-0.1-0.4-0.4-0.7-0.9-0.6
			c-0.5,0.1-0.6,0.5-0.6,0.9c0.1,0.8,0.1,1.5,0.3,2.3c1.4,5.5,2.2,11.1,2.9,16.7c0.6,4.8,1.2,9.6,1.7,14.4c0.3,2.7,0.8,5.3,0.6,8
			c-0.2,2.2-0.6,4.3-1.3,6.5c-0.4,1.3-0.9,2.7-0.8,4.1c0,0.8,0.2,1.4,0.8,2c0.3,0.3,0.6,0.3,0.7-0.1c0.5-1.5,1.2-2.8,2.2-4
			c0.2-0.3,0.3-0.6,0.4-1c0.9-3,2.3-5.6,4.7-7.6c0.8-0.7,1.3-1.6,1.8-2.5c1.1-2,2.4-3.8,4.3-5.1c0.3-0.2,0.5-0.5,0.8-0.8
			c2.8-3.6,6.3-6.3,10.4-8.1c1-0.5,1.1-0.4,1.1,0.7c0,2.4-0.8,4.6-2.2,6.6c-1.6,2.3-3.5,4.3-5.5,6.2c-2.1,2-3.8,4.2-5.2,6.7
			c-1.2,2.1-2.4,4.3-3.6,6.4c-2.5,4.3-1.9,8.4,0.6,12.5c0.4,0.7,1.1,1.1,1.9,1.3c1.2,0.4,1.4,0.7,1,2c-0.9,3.1-1.6,6.3-2.3,9.4
			c-0.2,0.8-0.1,1.4,0.5,1.9c0.4,0.3,0.4,0.7,0,1c-0.5,0.6-1.2,1-2,1.3c-0.7,0.3-1-0.2-1.2-0.7c-0.3-0.8-0.2-1.7-0.1-2.6
			c0.3-2.2,1-4.3,1.5-6.4c0-0.1,0-0.2,0.1-0.4c-0.5,0.3-0.8,0.7-1,1.1c-0.3,0.6-0.8,0.8-1.4,0.4c-0.4-0.3-0.9-0.4-1.4-0.5
			c-0.8-0.2-1.2,0.2-1.1,1c0.1,0.8,0.3,1.7,0.5,2.5c0.2,0.7,0.1,1.3-0.6,1.7c-0.5,0.3-0.6,0.7-0.5,1.2c0.2,1.4-0.3,2.4-1.7,3
			c-0.6,0.2-0.9,0.7-0.7,1.3c0.2,0.6,0.6,0.9,1.2,0.9c5.4-0.5,10.7,0.7,16,1.6c6,1,12.1,2,18.1,2.9c7.1,1.1,14.3,2.3,21.4,3.6
			c7.6,1.3,15.3,2.7,22.9,4.1c3.8,0.7,7.7,1.4,11.5,2.2c1.3,0.3,2.5,0.8,3.7,1.4c0.7,0.3,1,1.8,0.6,2.4c-0.2,0.3-0.4,0.4-0.7,0.1
			c-0.1-0.2-0.2-0.3-0.4-0.5c-0.8-1.3-1.9-2-3.4-2.2c-0.7-0.1-1.3-0.3-2-0.4c-0.9-0.2-1.4,0.2-1.5,1.1c-0.1,1,0.1,2,0.2,3
			c0.1,1.2,0.3,2.4,0.4,3.6c0,0.3,0.3,0.7-0.1,0.8c-0.3,0.1-0.4-0.4-0.6-0.6c-0.3-0.3-0.5-0.7-0.7-1c-0.2-0.3-0.5-0.5-0.9-0.3
			c-0.4,0.1-0.4,0.5-0.4,0.8c0.1,4.4,0.6,8.7,3.7,12.2c0.8,0.9,1.3,2,1.8,3.1c0.3,0.6,0.2,1.2-0.4,1.6c-0.2,0.2-0.5,0.4-0.7,0.6
			c-0.8,0.6-1.1,0.5-1.6-0.4c-0.6-1.4-1.3-2.8-1.9-4.2c-0.4-0.8-0.8-1.6-1.6-2.1c-0.5-0.3-0.8-0.8-0.9-1.4c-0.6-3.3-2.7-5.6-5.1-7.6
			c-1.1-0.9-2.1-1.8-3.2-2.7c-0.5-0.4-0.7-0.8-0.1-1.3c0.4-0.4,0.5-0.8,0.1-1.3c-1-1.4-1.6-2.9-2.1-4.5c-0.4-1.3-1.2-2-2.5-2.2
			c-10.2-1.7-20.3-3.5-30.5-5.2c-1.4-0.2-1.9,0-2,1.3c-0.2,2-1.1,3.2-3,3.8c-0.6,0.2-1.2,0.7-1.8,1c-0.3,0.2-0.6,0.3-0.9,0.1
			c-0.6-0.4-1.3-0.5-2-0.6c-1.9-0.3-3.7-1-5.5-1.7c-0.3-0.1-0.6-0.2-0.9-0.3c-0.8-0.2-1.1,0.1-1.1,0.9c0.1,0.8,0.1,1.6,0.2,2.3
			c0,0.4,0.2,0.7,0.6,0.7c1.6,0.2,3,0.9,4.5,1.6c1.1,0.4,2.1,0.9,3.3,0.9c0.5,0,0.5,0.3,0.4,0.7c-0.2,0.6-0.7,1.1-1.1,1.5
			c-2.6,2.3-5.7,3.6-9.2,4.1c-0.3,0-0.6,0.1-0.8,0.1c-1.7,0.3-2.3,1.6-1.5,3.1c0.3,0.5,0.7,1,1.2,1.4c3.8,3.2,7.8,6,12.3,8.2
			c0.7,0.4,0.7,0.5,0.1,1c-0.4,0.3-0.6,0.7-0.7,1.1c-1.3,3.2-2.1,6.5-2.7,9.9c-0.1,0.3,0,0.7-0.5,0.7c-0.4,0-0.8-0.2-0.9-0.7
			c-0.1-0.8-0.5-1.3-1.1-1.7c-2.3-1.7-4.1-3.8-6-5.8c-1.4-1.5-2.9-3-4.5-4.4c-0.1-0.1-0.2-0.2-0.3-0.3c-1.7-1.5-1.7-1.8-0.3-3.5
			c1.4-1.6,1.9-3.6,2.1-5.7c0.1-0.7-0.6-1.4-1.5-1.5c-1-0.2-1.8,0.3-2.5,0.8c-0.9,0.6-0.9,0.6-1.7-0.2c-0.9-1-2-1.8-3.2-2.3
			c-1.1-0.5-2.1-0.5-3,0.4c-0.5,0.5-0.8,0.4-1.2-0.1c-1.5-1.7-2.7-3.6-3.7-5.7c-0.5-1.1-0.4-2.3-0.3-3.4c0-0.4,0.3-0.6,0.7-0.6
			c0.4,0.1,0.9,0.1,1.3,0.3c1.9,0.5,3.7,1.1,5.5,1.8c1.4,0.5,2.8,0.7,4.3,0.3c0.6-0.2,0.8,0.1,0.8,0.7c0,1.3-0.3,2.5-0.5,3.7
			c-0.1,0.4-0.1,0.8-0.1,1.2c0,0.1,0,0.3,0.2,0.4c0.2,0.1,0.3-0.1,0.3-0.2c0.3-0.5,0.6-1.1,0.8-1.7c0.3-1,0.5-2,0.8-3
			c0.3-1.2,0.8-1.6,2-1.8c1-0.2,2.1-0.4,3.1-0.6c0.9-0.2,1-0.5,0.6-1.3c-0.3-0.5-0.6-1.1-0.9-1.6c-0.3-0.5-0.2-0.8,0.4-0.9
			c0,0,0.1,0,0.1,0c0.3-0.1,0.8,0.1,0.9-0.4c0-0.5-0.3-0.8-0.8-1c-0.8-0.4-1.6-0.4-2.4-0.6c-2.3-0.3-4.5-0.9-6.6-1.7
			c-0.1,0-0.3-0.1-0.3-0.2c-1.7-1.6-3.8-2.3-6-2.9c-1.9-0.6-3.7-1.3-5.7-1.5c-1.3-0.1-2-1.1-2.6-2.1c-0.4-0.6-0.7-0.7-1.4-0.4
			c-2.1,0.8-3.6,2.5-5.1,4.1c-0.3,0.4-0.7,0.7-1,1c-0.5,0.4-1,0.5-1.6,0.2c-0.4-0.2-0.6-0.4-0.6-0.9c0-0.5,0.2-0.7,0.6-0.9
			c0.4-0.2,0.9-0.4,1.3-0.7c2.2-1.5,1.9-4.4-0.5-5.5c-0.4-0.2-0.9-0.3-1.3-0.6c-0.8-0.4-0.9-0.9-0.5-1.7c0,0,0,0,0-0.1
			c0.9-1,1.2-1.9-0.1-2.8c-0.2-0.2-0.2-0.4,0.2-0.4c0.3,0,0.5,0,0.8,0c1.2,0,1.8-0.5,2.2-1.7c0.2-0.7,0.3-1.5,0.3-2.3
			c0-0.5-0.3-0.8-0.7-1.1c-0.8-0.6-1.6-1.1-2.4-1.7c-1.3-0.9-1.6-2.5-0.7-3.7c0.4-0.5,0.8-0.7,1.4-0.5c1,0.3,1.6,1,2.2,1.8
			c0.2,0.3,0.3,0.9,1,0.6c0.5-0.3,0.8-0.9,0.5-1.5c-0.3-0.7-0.8-1.3-1.4-1.8c-0.9-0.7-1.9-1.2-2.8-1.8c-1.9-1.1-3.8-2.2-6-2.6
			c-0.8-0.1-1.5-0.5-2-1.1c-2.3-2.5-5.2-4.1-8.1-5.8c-2.3-1.3-4.7-2.4-6.8-4c-1.7-1.3-3.3-2.8-4.8-4.4
			C487.1,115,486.9,114.7,486.9,114.3z M513.5,68.7c0.1-3.8,0.2-7.6,0.1-11.5c0-2.2-0.2-4.3-0.8-6.5c-0.1-0.3-0.1-0.7-0.5-0.6
			c-0.3,0.1-0.3,0.4-0.3,0.7c0,0.5,0,1-0.1,1.4c-0.5,6.7-1,13.4-1.6,20.1c-0.5,5.6-1.1,11.1-1.6,16.7c-0.3,3.2-0.4,6.4,0.4,9.5
			c0.1,0.5,0.1,0.9-0.3,1.2c-0.6,0.6-0.6,1.2-0.4,2c0.6,2.3,1.8,4.2,3.3,6c0.2,0.2,0.4,0.4,0.7,0.5c0.6,0.3,1,0.2,1.1-0.5
			c0.1-0.7,0.2-1.3,0.1-2c-0.3-4.8-0.6-9.6-0.6-14.4c0-3.6,0.1-7.3,0.3-10.9C513.4,76.5,513.4,72.6,513.5,68.7z M515.3,109
			c0,0.9-0.1,1.9,0.3,2.9c0.2,0.6,0.6,0.9,1.3,0.9c0.7-0.1,1.1-0.7,1.3-1.6c0.2-1.4,0.2-2.9,0.1-4.3c-0.2-3.9-0.2-7.7,0.1-11.6
			c0.3-5.1,0.8-10.1,1.3-15.2c0.5-5.1,1.1-10.2,1.6-15.3c0.2-2.2,0.6-4.3,0.6-6.5c0-2.8-0.6-5.5-1.1-8.3c-0.4-2.2-0.7-4.5-1.4-6.7
			c-0.1-0.3-0.1-0.6-0.5-0.6c-0.4,0-0.5,0.3-0.6,0.6c-0.7,1.9-0.7,3.8-0.4,5.7c0.1,0.3,0.2,0.6,0.5,0.8c0.6,0.3,0.8,0.9,0.8,1.5
			c0.1,1.1,0.3,2.1,0.3,3.2c0.1,4.5-0.3,9.1-1.1,13.5c-1.5,8.6-2.6,17.3-2.9,26C515.5,98.9,515.6,103.9,515.3,109z M502.5,95.2
			c0,0,0.1-0.1,0.1-0.1c0.2,0,0.4,0.1,0.6,0.1c0.2,0,0.4,0.1,0.7,0.1c0.8,0.1,1.1-0.2,1-1c-0.1-0.6-0.4-1-0.7-1.5
			c-0.9-1.4-2.1-2.5-3.4-3.5c-3.9-3.1-8.3-4.9-13.3-5.5c-0.2,0-0.5-0.2-0.7,0.1c-0.1,0.3,0.1,0.5,0.3,0.7c1.1,1.5,2.5,2.6,4.1,3.4
			c1.3,0.6,2.6,1.2,3.9,1.8c1.8,0.8,3.5,1.7,5,3c0.8,0.7,1.2,1.4,1,2.5c-0.1,0.8,0,1.5,0.5,2.2c1.2,1.7,2.9,2.6,4.7,3.3
			c0.2,0.1,0.5,0.1,0.7-0.1c0.2-0.2,0.1-0.5-0.1-0.7c-0.4-0.6-0.9-1.1-1.4-1.6C504.4,97.3,503.5,96.3,502.5,95.2z M533.8,156.2
			c0.1,0.3,0.3,0.3,0.5,0.3c2.7,0.5,5.4,0.9,8.1,1.4c2.6,0.4,5.2,0.9,7.6,2.2c2.2,1.2,4.5,2.4,6.8,3.5c0.4,0.2,0.9,0.5,1.4,0.3
			c1.6-0.6,3.2-1.1,4.6-2c0.2-0.1,0.5-0.2,0.4-0.5c0-0.3-0.3-0.3-0.5-0.3c-1.8-0.6-3.7-1.1-5.6-1.5c-6.4-1.5-12.9-2.4-19.4-3.2
			C536.3,156.2,535.1,156.1,533.8,156.2z M611.7,173.1c0-1.2-0.1-1.3-1.1-1.4c-0.2,0-0.4,0-0.5,0c-1.2,0-1.9-0.4-2.3-1.5
			c-0.2-0.5-0.4-1.1-0.5-1.7c-0.1-0.4-0.3-0.8-0.8-0.9c-0.7-0.2-1.3-0.2-2-0.1c-0.5,0.1-0.7,0.3-0.5,0.8c0.8,1.9,1.5,3.8,2.3,5.6
			c0.7,1.6,1.8,2.8,3.4,3.5c0.8,0.4,1.1,0.2,1.4-0.6C611.4,175.6,611.6,174.3,611.7,173.1z M534,138.2c0-1.4-0.4-2.6-1-3.8
			c-0.3-0.5-0.5-0.6-0.9-0.1c-1.2,1.7-1.9,3.5-2.3,5.5c-0.1,0.3-0.1,0.6,0.3,0.8c2,0.8,3.9,0.9,4-2.1C534,138.4,534,138.3,534,138.2
			z M521.8,151.9c0.6-0.1,1.2-0.2,1.9-0.3c0.4-0.1,0.5-0.3,0.3-0.6c-1.2-1.4-2.7-2.4-4.6-2.8c-0.5-0.1-0.8,0.1-0.9,0.6
			c-0.3,0.9,0,1.9,0.9,2.5C520.1,151.8,520.9,151.9,521.8,151.9z M530.5,49.3c0.2,2.2,1.3,4.2,2.6,5.9c0.2,0.2,0.3,0.5,0.7,0.4
			c0.3-0.1,0.3-0.5,0.2-0.7c-0.2-1.4-0.6-2.8-1.2-4c-0.4-0.8-0.8-1.6-1.4-2.3c-0.1-0.2-0.3-0.4-0.6-0.3c-0.3,0.1-0.3,0.4-0.3,0.6
			C530.5,49,530.5,49.1,530.5,49.3z M530.5,63.9c-0.6-1.5-2.9-3.1-4.1-3C527.4,62.4,528.8,63.3,530.5,63.9z"/>
		<path class="st0" d="M562.9,192.4c0.6,0.1,0.8,0.5,1.2,0.8c0.8,0.6,1.6,1.1,2.4,1.7c0.9,0.6,1,1.1,0.8,2.2
			c-0.3,1.1-0.5,2.1-0.8,3.2c0.1,0,0.1,0,0.2,0.1c0.4-0.9,0.8-1.7,1.2-2.6c0.8-1.8,1-1.8,2.5-0.7c3.9,2.9,6,6.7,5.9,11.6
			c0,2.1-0.8,4-1.7,5.8c-3.6,7.3-9.3,12.2-16.5,15.5c-5.4,2.4-11.1,3.7-17,4.4c-4.5,0.6-9,0.8-13.6,0.7c-0.6,0-0.9,0.2-1,0.8
			c-0.1,0.9-0.3,1.9,0.4,2.7c0.3,0.4,0.1,0.6-0.2,0.8c-0.6,0.5-1.3,0.6-2,0.7c-1.1,0.2-1.3,0.3-1.5,1.4c-1.1,4.9-2.4,9.8-3.7,14.6
			c-0.1,0.3-0.2,0.6-0.3,0.8c-0.2-0.4-0.1-0.8-0.1-1.2c0.5-4.2,0.8-8.5,1.3-12.7c0.3-2.4,0.7-4.8,1.1-7.2c0.1-0.7-0.1-0.9-0.8-0.9
			c-3.4-0.2-6.8-0.4-10.2-0.8c-5.9-0.8-11.1-3.1-16-6.4c-2.6-1.7-4.7-3.9-6.2-6.7c-1.5-2.8-2-5.8-1.3-8.9c0.2-0.7,0.5-1.3,0.8-2
			c0.1-0.2,0.2-0.4,0.5-0.3c0.2,0.1,0.2,0.3,0.1,0.5c-0.1,0.7-0.1,1.4-0.2,2c0,0.1-0.1,0.3,0.1,0.4c0.2,0.1,0.2-0.1,0.3-0.2
			c0.8-1.2,0.8-1.2,1.6,0.1c0.6,0.9,1.1,1.9,1.8,2.8c0.7,0.9,0.8,1.9,0.5,3c-0.3,1.2-0.7,2.4-0.6,3.6c0.1,2.6,1.3,4.5,3.7,5.5
			c1.1,0.5,2.3,0.7,3.4,1c0.6,0.1,0.9-0.1,1.1-0.7c0.5-1.8,1.3-3.5,1.5-5.3c0-0.2,0-0.5,0.2-0.5c0.2-0.1,0.4,0.2,0.6,0.3
			c0.5,0.5,0.6,1.1,0.6,1.8c-0.1,0.9-0.4,1.7-0.6,2.5c-0.3,1.3,0.3,2.2,1.5,2.3c0.5,0,0.9-0.1,1.2-0.5c0.3-0.3,0.5-0.4,0.7,0
			c0.2,0.5,0.6,0.3,1,0.3c0.5,0,0.6-0.3,0.8-0.7c0.5-1.8,0.8-3.7,1.5-5.4c0.1-0.2,0.2-0.5,0.3-0.7c0.2-0.4,0.5-0.6,0.9-0.3
			c0.4,0.2,0.7,0.6,0.4,1.1c-1.2,1.6-0.9,3.4-0.7,5.2c0,0.4,0.2,0.6,0.7,0.6c1.6-0.2,3.1-0.4,4.7-0.6c0.5,0,0.7-0.3,0.8-0.7
			c0.1-0.4,0.2-0.7,0.3-1.1c0.1-0.2,0.2-0.4,0.5-0.4c0.3,0,0.5,0.2,0.5,0.5c0,0.1,0,0.1,0,0.2c0.1,0.4-0.3,1,0.2,1.2
			c0.4,0.1,0.8-0.1,1.3-0.1c7.2-1.2,14.4-2.4,21.6-3.7c3.3-0.6,6.7-1.1,10-1.7c3.6-0.6,6.1-2.8,8.1-5.5c0.2-0.3,0.2-0.6,0.1-1
			c-0.4-1.1-0.2-2.2,0.3-3.2c0.4-0.9,0.7-1.9,0.9-2.9c0.2-1,0.5-2,1.1-2.9c0.4-0.6,0.4-1.1-0.1-1.7c-0.8-1-1-2.2-0.6-3.4
			c0.5-1.5,0.6-3.1,0.3-4.7c-0.2-1,0.1-1.9,1.1-2.4C562.7,194,562.9,193.2,562.9,192.4z"/>
		<path class="st0" d="M575.4,40.4c0,0.6,0,1.2,0,1.8c0,0.3,0,0.6,0.4,0.7c0.3,0.1,0.5-0.2,0.6-0.5c0.1-0.2,0.3-0.5,0.4-0.7
			c0.1-0.2,0.2-0.3,0.4-0.3c0.2,0,0.3,0.2,0.4,0.4c0.1,0.4,0.2,0.8,0.4,1.2c0.1,0.3,0.2,0.6,0.4,0.8c0.3,0.4,0.6,1.2,1.2,0.9
			c0.7-0.2,0.2-0.9,0.2-1.4c0-0.2-0.1-0.3-0.1-0.5c-0.1-0.6,0.4-1,0.9-0.7c1,0.5,1.7,1.2,2,2.3c0.1,0.4,0,0.8-0.2,1.1
			c-0.6,0.7-0.6,1.4-0.3,2.1c0.3,0.7,0.5,1.3,0.7,2c0.2,0.5,0,0.8-0.6,0.8c-1.6,0.1-3.2-0.3-4.7-0.9c-0.7-0.3-1-0.8-1.2-1.5
			c-0.3-0.9-0.6-1.8-0.9-2.7c-0.1-0.3-0.2-0.6-0.6-0.5c-0.3,0-0.3,0.3-0.4,0.6c-0.3,1-0.5,2.1-0.8,3.1c-0.3,1.3,0.2,2.1,1.5,2.4
			c1,0.2,1.9,0.4,2.9,0.6c0.5,0.1,1.1,0.3,1.5,0.6c0.6,0.4,0.8,0.8,0.4,1.4c-0.4,0.7-0.3,1.4-0.1,2.1c0.3,1.3,0.6,2.6,0.9,3.8
			c0.2,1,0.2,2-0.2,2.9c-0.3,0.9-0.7,1.7-1.8,1.8c-1.1,0.1-1.9-0.4-2.5-1.1c-0.6-0.7-0.8-1.5-0.9-2.4c-0.2-2-0.1-4-0.7-5.9
			c-0.2-0.6-0.3-1.5-1.1-1.6c-0.8-0.1-1,0.8-1.4,1.3c-1.7,3.2-2.5,6.8-2.9,10.4c-0.1,1-0.3,2-0.6,3c-0.3,1.1-0.3,1.1,0.9,1.2
			c2.7,0.2,5.3,0.6,7.8,1.4c0.6,0.2,1.2,0.4,1.8,0.7c0.8,0.3,1.3,0.9,1.6,1.7c0.7,1.9,1.7,3.6,2.9,5.1c0.8,1.1,1.2,2.2,1.1,3.5
			c-0.2,2.2-0.2,4.4-0.7,6.6c-0.1,0.6-0.3,1.1-0.6,1.6c-0.2,0.5-0.5,0.6-1,0.2c-1.2-0.9-2.4-1.7-3.7-2.3c-0.1-0.1-0.3-0.2-0.4-0.2
			c-1.7-0.3-3-1.4-4.1-2.7c-1.8-2.1-4.3-3.2-7-4c-1-0.3-2-0.7-3-1c-1.1-0.4-1.3-0.8-1.2-1.9c0.1-1.3,0.2-2.6,0.9-3.7
			c0.2-0.3,0-0.7-0.1-1.1c-0.3-0.9-0.5-1.9-0.3-2.8c0.1-0.6,0.3-1,1-1.1c0.6,0,0.8-0.5,1-1c0.7-2.6,1.2-5.2,1.7-7.8
			c0.5-3.2,1.1-6.5,1.8-9.7c0-0.2,0.3-0.5,0-0.6c-0.2-0.1-0.4,0.1-0.6,0.2c-1.3,0.8-2.5,1.5-3.7,2.4c-0.9,0.8-1.5,1.7-1.8,2.9
			c-1,4-2,8.1-3.8,11.8c-1.3,2.8-2.8,5.4-4.7,7.8c-0.5,0.7-0.8,0.8-1.4,0.1c-0.5-0.4-0.8-1-1.1-1.5c-0.9-1.5-1.8-3.1-2.7-4.6
			c-0.3-0.5-0.5-1-0.3-1.7c0.2-0.5,0-0.9-0.5-1.2c-1.9-1.2-2.8-3-3.1-5.2c-0.1-0.6,0.1-0.8,0.7-0.7c0.6,0.1,1.3,0.1,1.9,0.2
			c1,0.1,2-0.2,2.8-0.9c0.6-0.5,1.3-0.4,2-0.3c1.1,0.2,1.5-0.1,1.7-1.3c0.3-2.4-0.1-2.4,2.8-3.1c0.6-0.2,1.3-0.2,2-0.2
			c0.8,0.1,1.4-0.2,2.1-0.6c0.2-0.1,0.4-0.2,0.3-0.5c-0.1-0.2-0.2-0.4-0.5-0.5c-0.3-0.1-0.7-0.1-1,0c-0.6,0.1-1-0.1-1.3-0.6
			c-0.8-1.5-2.1-2.3-3.6-3.1c-0.5-0.3-1.1-0.2-1.6,0.1c-0.4,0.2-0.9,0.4-1.3,0.5c-0.9,0.1-1.4-0.4-1.1-1.2c0.3-1,0.1-1.8-0.5-2.7
			c-0.7-1-1.1-2.1-1.1-3.3c0-0.8,0.2-0.9,0.9-0.6c1.2,0.5,2.4,1.1,3.6,1.6c1.9,0.9,3.9,1.3,6,1.3c1.4,0,2.8,0.3,4.1,0.7
			c1.6,0.4,3.2,0.4,4.6-0.6c0.3-0.2,0.6-0.4,0.5-0.8c-0.1-0.4-0.5-0.3-0.7-0.4c-1.2-0.4-2.4-0.5-3.7-0.4c-2.2,0.1-4.1-0.6-5.7-2.1
			c-0.8-0.8-1.7-1.4-2.5-2.1c-0.8-0.6-1.2-1.5-1.4-2.5c-0.1-0.5,0.1-0.8,0.7-0.7c0.6,0.1,1.2,0.1,1.7,0.1c0.9,0,1.2-0.3,1.3-1.2
			c0-0.5,0-1.1-0.1-1.6c-0.1-0.7-0.2-1.4,0.6-1.8c0.7-0.3,1.3-0.2,1.9,0.5c1,1.1,1.8,2.3,2.5,3.6c0.6,1.2,1.4,2,2.8,2.2
			c0.5,0.1,0.9,0.4,1.3,0.7c0.5,0.5,1.2,0.6,1.8,0.4c1.7-0.6,3.4-0.6,5.1-1.2c0.4-0.1,0.5,0,0.5,0.4
			C575.3,39.1,575.4,39.8,575.4,40.4C575.4,40.4,575.4,40.4,575.4,40.4z M579.1,60.7c-0.2-2.2-0.4-4.3-0.8-6.5
			c-0.1-0.3,0-0.6-0.5-0.6c-0.4,0-0.7,0.1-0.8,0.5c-0.3,0.6-0.3,1.2-0.2,1.9c0.2,1.3,0.3,2.6,0.3,3.8c0,0.3,0,0.7,0.2,1
			c0.2,0.6,0.7,0.9,1.3,0.8C579,61.5,579.2,61.1,579.1,60.7z"/>
		<path class="st0" d="M597.3,155.4c-0.5-0.2-0.8-0.6-1.1-1c-2.4-3-4.1-6.3-5.7-9.7c-2.9-6.2-5.8-12.4-8-18.8
			c-0.2-0.6-0.4-1.3-0.4-1.9c0-0.3,0-0.6-0.2-0.8c-1-1.9-1.1-3.9-1.3-6c-0.1-1.3-0.4-2.6-1.2-3.7c-0.6-0.8-0.6-2-0.9-3
			c-0.1-0.3-0.1-0.7-0.5-0.8c-0.4-0.1-0.5,0.3-0.7,0.5c-0.7,0.9-1.6,1.4-2.8,1.1c-1-0.2-2-0.3-3-0.5c-1.4-0.3-1.9-1.1-1.7-2.5
			c0.2-1.4,0.7-2.8,1-4.2c0.3-1.4,0-2.2-1.3-2.8c-0.9-0.5-1.9-0.9-2.8-1.3c-1.6-0.6-2.9,0.3-2.9,2c0,0.5,0,0.9,0,1.4
			c0,0.7,0.2,1.3,0.8,1.7c0.6,0.4,0.9,1,1.1,1.7c0.9,2.9,2,5.6,2.5,8.6c0.5,2.9,0.7,5.9,1,8.8c0.7,6.4,1.1,12.9,1.6,19.4
			c0.4,4.5-0.3,8.6-3,12.4c-0.6,0.8-1.2,1.2-2.2,1.1c-1.4-0.1-2.7-0.1-4.1-0.3c-0.9-0.2-1.1-0.4-1-1.3c0.8-6.8,1.5-13.5,2-20.3
			c0.6-7,1.5-14,1.4-21.1c0-2.8-0.5-5.5-1.4-8.2c-0.2-0.7-0.5-1.3-1-1.8c-1.1-1.1-2.5-1.1-3.3,0.2c-0.5,0.7-0.8,1.5-1.2,2.2
			c-0.1,0.1-0.1,0.2-0.2,0.3c-0.1,0.2-0.2,0.6-0.5,0.4c-0.3-0.1-0.1-0.5-0.1-0.7c0.1-0.3,0.2-0.7,0.2-1c1.3-5.8,3-11.5,4.4-17.3
			c0.4-1.5,0.7-3,0.9-4.6c0-0.2,0.1-0.6-0.2-0.6c-0.3-0.1-0.4,0.3-0.5,0.5c-3.5,9.8-6.7,19.6-8.4,29.8c-0.5,3.1-0.9,6.2-0.5,9.3
			c0.1,0.6,0.2,1.1,0.3,1.7c0.1,0.4,0.1,0.7-0.4,0.8c-1.6,0.4-2.4,1.5-2.7,3c-0.8,3.1-1.6,6.3-2.4,9.4c-0.1,0.3-0.2,0.6-0.3,0.9
			c-0.2,0.4-0.5,0.6-0.9,0.5c-0.4-0.1-0.8-0.3-0.8-0.8c0-0.3,0-0.7,0.1-1c5.2-17.3,9.4-34.8,14.3-52.2c0.3-0.9,0.5-1.9,0.8-2.8
			c0.4-1.3,1.4-1.9,2.8-1.6c0.6,0.1,0.6,0.5,0.5,1c-0.2,1.3-0.4,2.6-0.5,3.9c-0.3,2.7-0.5,5.3-0.1,8c0.2,1.4,0.9,2.4,2.2,3.1
			c4.2,2.1,8.3,4.3,12.6,6.2c1.4,0.6,1.8,1.2,1.6,2.8c-0.1,1,0.2,1.8,1,2.4c1.6,1.3,3.3,2.3,5.3,2.8c1.8,0.4,2.5,1.2,2.6,3
			c0.4,4.6,1.7,9.1,2.8,13.6c2.2,8.9,4.4,17.8,6.5,26.7C597.4,154.6,597.5,155,597.3,155.4z"/>
		<path class="st0" d="M502.3,212.9c0.1,0.1,0.1,0.1,0.1,0.2c0.7,1,1.2,1.3,1.8,1c0.9-0.4,1.4-1.5,1.1-2.5c-0.6-1.9-0.8-3.8-0.7-5.8
			c0.2-3,1.1-5.9,2.1-8.7c2.5-6.9,6.2-13.2,10.3-19.3c0.2-0.2,0.3-0.5,0.6-0.4c0.3,0.1,0.3,0.4,0.4,0.7c0.2,1.8,0.3,3.7,0.6,5.5
			c0.2,0.9,0.5,1.7,0.8,2.5c0.4,1.1,0.2,2.1-0.6,3.1c-0.3,0.3-0.6,0.5-0.9,0c-0.3-0.6-0.6-0.4-0.9,0.1c-1.6,2.2-2.2,4.7-2.7,7.3
			c-0.6,3.6-0.6,7.3-0.9,10.9c-0.3,3.3-1.2,6.4-2.7,9.4c-0.4,0.9-1.1,1.3-2.1,1.3c-0.8-0.1-1.6,0.2-2.3,0.3
			c-1.8,0.3-2.1,0.2-2.9-1.4c-0.3-0.6-0.7-1.3-1.5-1.4c-0.3,0-0.4-0.4-0.4-0.6C501.4,214.2,501.6,213.5,502.3,212.9z M506.6,212.1
			c0,1.1,0.3,1.7,1.1,2.1c0.7,0.3,1.4,0.5,2.1-0.1c0.7-0.6,0.6-1.4,0.3-2.2c-0.2-0.4-0.2-0.9-0.1-1.3c0.2-1.4,0.4-2.7,0.6-4.1
			c0.3-1.8,0.6-3.5,0.9-5.3c0.1-0.6-0.1-1-0.7-1.1c-0.6-0.2-0.9,0.1-1.1,0.6c-0.2,0.4-0.3,0.7-0.4,1.1c-0.5,2-1,3.9-1.5,5.9
			C507.3,209.2,506.8,210.7,506.6,212.1z"/>
		<path class="st0" d="M500.4,189.9c0.1,0.7-0.1,1.3-0.4,1.9c-0.4,0.7-0.8,1.4-1.1,2.2c-0.5,1-0.3,1.8,0.4,2.6
			c0.5,0.5,0.7,0.5,1-0.2c1.7-3.5,2.8-7.2,3.1-11c0.2-2.6,1.2-4.8,2.9-6.7c0.7-0.8,1.5-1.7,2.2-2.5c0.7-0.8,1.7-1.3,2.7-1.7
			c0.8-0.3,1.5-0.8,1.8-1.6c0.7-1.8,1.9-3.3,3.1-4.7c1.2-1.4,2.4-2.9,3-4.7c0.1-0.4,0.4-0.6,0.7-0.8c0.5-0.4,1-0.7,1.4-1.1
			c0.2-0.1,0.3-0.3,0.2-0.6c-0.1-0.3-0.4-0.2-0.6-0.2c-0.1,0-0.2,0.1-0.4,0.1c-0.1,0.1-0.3,0.1-0.4-0.1c-0.1-0.2,0-0.3,0.1-0.5
			c0.7-0.7,2.7-0.9,3.6-0.4c0.6,0.3,0.8,0.9,0.6,1.5c-0.6,2-1.1,4-1.8,6c-0.2,0.8-0.8,1.3-1.6,1.4c-0.8,0.2-1.2,0.7-1.3,1.5
			c-0.1,1.4-0.6,2.6-1.8,3.3c-0.2,0.1-0.3,0.4-0.5,0.6c-0.6,1.1-1.4,2.2-2.2,3.2c-0.8,0.8-1.3,0.9-2.2,0.2c-1.8-1.3-2.3-1.2-3.4,0.8
			c-0.3,0.6-0.7,1.2-1,1.9c-0.2,0.5-0.5,0.7-1.1,0.5c-1-0.2-1.3-0.1-1.9,0.8c-1.1,1.6-1.5,3.4-1.8,5.2c-0.4,2.8-0.8,5.6-2,8.2
			c-0.8,1.8-1.8,3.5-2.9,5.2c-0.6,0.9-1.4,1.6-2.4,2.1c-0.8,0.4-1.6,0.5-2.3-0.1c-0.5-0.3-0.8-0.3-1.2,0.1c-0.5,0.5-1.1,0.9-1.6,1.3
			c-0.2,0.2-0.5,0.3-0.8,0.1c-0.3-0.2-0.3-0.5-0.3-0.7c0.7-3.8,1.9-7.4,4.4-10.4c0.1-0.2,0.3-0.3,0.4-0.4c1.5-0.7,2.4-1.9,3.3-3.2
			c0.2-0.3,0.5-0.8,1-0.7c0.5,0.1,0.6,0.7,0.6,1.2C500.4,189.6,500.4,189.8,500.4,189.9z"/>
		<path class="st0" d="M540.4,149.9c1.4,0,1.5-0.1,1.9-1.4c0.6-1.9,0.9-3.8,1.6-5.7c0.1-0.3,0.2-0.5,0.4-0.7c0.2-0.3,0.6-0.5,1-0.3
			c0.5,0.2,0.3,0.6,0.2,0.8c-0.6,2.3-1.4,4.6-1.8,7c-0.2,0.9-0.2,1.8-0.1,2.7c0.1,0.9-0.2,1.2-1,1.1c-1.1-0.2-2.2-0.6-3.2-1.2
			c-0.6-0.4-0.6-1-0.4-1.6C539.2,149.7,539.9,150,540.4,149.9z"/>
		<path class="st0" d="M583.1,103.1c0,0.5-0.1,1-0.7,1.1c-0.6,0.1-1.1-0.2-1.4-0.7c-0.2-0.5-0.3-1-0.5-1.5c-0.7-2.2-1.4-4.3-1.8-6.6
			c-0.1-0.5-0.1-1,0.1-1.5c0.3-0.7,0.7-0.8,1.3-0.5c0.5,0.3,0.9,0.7,1.1,1.2c0.7,2.7,1.3,5.5,1.9,8.2
			C583.1,103,583.1,103.1,583.1,103.1z"/>
		<path class="st0" d="M556.4,31.8c-1.3,0-2.1-1.2-1.7-2.3c0.3-1.1,1.1-2,1.9-2.8c0.2-0.3,0.6-0.2,0.9,0c0.9,0.5,1.4,1.3,1.5,2.2
			c0.3,1.9,0.5,1.9-1.3,2.5C557.2,31.6,556.8,31.8,556.4,31.8z"/>
		<path class="st0" d="M529.1,162.5c0,0.1-0.1,0.4-0.2,0.6c-0.5,1.2-1,2.4-1.6,3.5c-0.2,0.5-0.5,0.6-1,0.4c-1.5-0.5-1.7-0.9-1.2-2.3
			c0.4-1.1,0.8-2.1,1.2-3.2c0.2-0.6,0.7-0.8,1.2-0.5c0.4,0.2,0.7,0.4,1.1,0.7C529,161.9,529.1,162.1,529.1,162.5z"/>
		<path class="st0" d="M508.9,168.3c0-1.9,1.6-4.1,3.3-4.7c0.4-0.1,0.8-0.3,1.1,0c0.4,0.4,0.1,0.8,0,1.1c-0.7,1.6-1.7,2.9-3,4.1
			c-0.3,0.3-0.5,0.6-1,0.4C508.9,169.1,509,168.7,508.9,168.3z"/>
		<path class="st0" d="M548,58.7c-1.7-0.1-3.1-0.6-4.3-1.7c-0.2-0.2-0.4-0.4-0.5-0.6c-0.2-0.4-0.1-0.8,0.2-1.2c0.3-0.3,0.7-0.3,1,0
			c1.3,0.9,2.5,1.8,3.7,2.7c0.2,0.1,0.3,0.3,0.2,0.5C548.3,58.8,548,58.7,548,58.7z"/>
	</g>
	<g>
		<path class="st1" d="M241.8,267.9c0-89.1,0-178.2,0-267.2c0-0.6,0.1-0.7,0.7-0.7c53.9,0,107.8,0,161.7,0c0.2,0.4,0.2,0.8,0.2,1.2
			c0,56.3,0,112.5,0,168.8c0,32.3,0,64.5,0,96.8c0,1.2,0,1.2-1.2,1.2c-52.5,0-104.9,0-157.4,0C244.5,267.9,243.2,267.9,241.8,267.9z
			 M256.8,110c0,0.4,0.2,0.7,0.5,1c1.5,1.5,3,3.1,4.8,4.4c2.1,1.6,4.5,2.7,6.8,4c2.9,1.7,5.8,3.3,8.1,5.8c0.5,0.6,1.2,1,2,1.1
			c2.2,0.4,4.1,1.5,6,2.6c1,0.6,2,1,2.8,1.8c0.6,0.5,1,1.1,1.4,1.8c0.3,0.6,0,1.2-0.5,1.5c-0.6,0.4-0.7-0.2-1-0.6
			c-0.6-0.8-1.2-1.5-2.2-1.8c-0.6-0.2-1,0-1.4,0.5c-0.9,1.3-0.6,2.8,0.7,3.7c0.8,0.6,1.7,1.1,2.4,1.7c0.4,0.3,0.6,0.6,0.7,1.1
			c0,0.8,0,1.5-0.3,2.3c-0.4,1.2-1,1.6-2.2,1.7c-0.3,0-0.5,0-0.8,0c-0.4,0-0.4,0.3-0.2,0.4c1.3,0.9,1,1.8,0.1,2.8c0,0,0,0,0,0.1
			c-0.4,0.8-0.3,1.3,0.5,1.7c0.4,0.2,0.9,0.3,1.3,0.6c2.4,1.2,2.6,4,0.5,5.5c-0.4,0.3-0.9,0.5-1.3,0.7c-0.4,0.2-0.6,0.5-0.6,0.9
			c0,0.4,0.3,0.7,0.6,0.9c0.6,0.3,1.1,0.2,1.6-0.2c0.4-0.3,0.7-0.7,1-1c1.5-1.6,3-3.2,5.1-4.1c0.7-0.3,1-0.2,1.4,0.4
			c0.6,1,1.4,2,2.6,2.1c2,0.2,3.8,0.9,5.7,1.5c2.1,0.6,4.3,1.3,6,2.9c0.1,0.1,0.2,0.1,0.3,0.2c2.1,0.8,4.3,1.3,6.6,1.7
			c0.8,0.1,1.7,0.2,2.4,0.6c0.4,0.2,0.8,0.6,0.8,1c0,0.5-0.6,0.3-0.9,0.4c0,0-0.1,0-0.1,0c-0.6,0.1-0.7,0.4-0.4,0.9
			c0.3,0.5,0.6,1,0.9,1.6c0.5,0.9,0.4,1.1-0.6,1.3c-1,0.2-2.1,0.4-3.1,0.6c-1.2,0.2-1.7,0.6-2,1.8c-0.2,1-0.5,2-0.8,3
			c-0.2,0.6-0.4,1.2-0.8,1.7c-0.1,0.1-0.1,0.3-0.3,0.2c-0.2-0.1-0.2-0.3-0.2-0.4c0-0.4,0.1-0.8,0.1-1.2c0.2-1.2,0.5-2.4,0.5-3.7
			c0-0.6-0.2-0.9-0.8-0.7c-1.5,0.4-2.9,0.2-4.3-0.3c-1.8-0.7-3.6-1.3-5.5-1.8c-0.4-0.1-0.9-0.2-1.3-0.3c-0.4-0.1-0.7,0.1-0.7,0.6
			c-0.1,1.2-0.2,2.4,0.3,3.4c1,2,2.1,4,3.7,5.7c0.4,0.4,0.7,0.5,1.2,0.1c0.9-0.9,1.9-1,3-0.4c1.2,0.6,2.3,1.3,3.2,2.3
			c0.7,0.8,0.7,0.8,1.7,0.2c0.8-0.5,1.6-1,2.5-0.8c0.8,0.1,1.5,0.8,1.5,1.5c-0.2,2.1-0.7,4-2.1,5.7c-1.4,1.7-1.4,2,0.3,3.5
			c0.1,0.1,0.2,0.2,0.3,0.3c1.6,1.3,3.1,2.8,4.5,4.4c1.9,2,3.7,4.1,6,5.8c0.6,0.4,1.1,0.9,1.1,1.7c0,0.5,0.4,0.6,0.9,0.7
			c0.5,0,0.4-0.4,0.5-0.7c0.6-3.4,1.4-6.7,2.7-9.9c0.2-0.4,0.4-0.8,0.7-1.1c0.6-0.5,0.6-0.6-0.1-1c-4.5-2.2-8.5-5-12.3-8.2
			c-0.5-0.4-0.9-0.8-1.2-1.4c-0.8-1.5-0.1-2.8,1.5-3.1c0.3,0,0.6-0.1,0.8-0.1c3.5-0.5,6.5-1.8,9.2-4.1c0.5-0.4,0.9-0.9,1.1-1.5
			c0.1-0.4,0.1-0.7-0.4-0.7c-1.2,0-2.2-0.4-3.3-0.9c-1.5-0.6-2.9-1.3-4.5-1.6c-0.4-0.1-0.6-0.3-0.6-0.7c-0.1-0.8-0.1-1.6-0.2-2.3
			c-0.1-0.8,0.3-1.1,1.1-0.9c0.3,0.1,0.6,0.2,0.9,0.3c1.8,0.7,3.6,1.3,5.5,1.7c0.7,0.1,1.4,0.2,2,0.6c0.3,0.2,0.6,0.1,0.9-0.1
			c0.6-0.4,1.1-0.8,1.8-1c1.9-0.6,2.8-1.8,3-3.8c0.1-1.3,0.7-1.6,2-1.3c10.2,1.7,20.3,3.5,30.5,5.2c1.3,0.2,2.2,0.9,2.5,2.2
			c0.4,1.6,1.1,3.2,2.1,4.5c0.3,0.5,0.3,0.9-0.1,1.3c-0.6,0.5-0.4,0.9,0.1,1.3c1.1,0.9,2.1,1.8,3.2,2.7c2.4,2.1,4.4,4.4,5.1,7.6
			c0.1,0.6,0.4,1.1,0.9,1.4c0.8,0.5,1.2,1.2,1.6,2.1c0.6,1.4,1.2,2.8,1.9,4.2c0.4,0.9,0.7,1,1.6,0.4c0.2-0.2,0.5-0.4,0.7-0.6
			c0.5-0.4,0.7-1,0.4-1.6c-0.5-1.1-1-2.2-1.8-3.1c-3.1-3.5-3.6-7.8-3.7-12.2c0-0.3,0-0.7,0.4-0.8c0.4-0.1,0.7,0.1,0.9,0.3
			c0.3,0.3,0.5,0.7,0.7,1c0.2,0.2,0.3,0.7,0.6,0.6c0.4-0.1,0.2-0.5,0.1-0.8c-0.1-1.2-0.3-2.4-0.4-3.6c-0.1-1-0.3-2-0.2-3
			c0.1-1,0.5-1.3,1.5-1.1c0.7,0.1,1.3,0.2,2,0.4c1.5,0.2,2.6,1,3.4,2.2c0.1,0.2,0.2,0.3,0.4,0.5c0.3,0.4,0.5,0.3,0.7-0.1
			c0.4-0.6,0.1-2.1-0.6-2.4c-1.2-0.5-2.4-1.1-3.7-1.4c-3.8-0.7-7.7-1.5-11.5-2.2c-7.6-1.4-15.2-2.7-22.9-4.1
			c-7.1-1.2-14.3-2.4-21.4-3.6c-6-1-12.1-1.9-18.1-2.9c-5.3-0.9-10.6-2.1-16-1.6c-0.6,0.1-1.1-0.3-1.2-0.9c-0.2-0.7,0.1-1.1,0.7-1.3
			c1.3-0.6,1.9-1.5,1.7-3c-0.1-0.5,0.1-1,0.5-1.2c0.7-0.4,0.8-1,0.6-1.7c-0.2-0.8-0.4-1.7-0.5-2.5c-0.1-0.8,0.3-1.2,1.1-1
			c0.5,0.1,1,0.2,1.4,0.5c0.7,0.4,1.1,0.2,1.4-0.4c0.2-0.4,0.5-0.8,1-1.1c0,0.2,0,0.3-0.1,0.4c-0.5,2.1-1.2,4.2-1.5,6.4
			c-0.1,0.9-0.2,1.7,0.1,2.6c0.2,0.5,0.5,1,1.2,0.7c0.8-0.3,1.5-0.7,2-1.3c0.3-0.4,0.4-0.7,0-1c-0.6-0.5-0.7-1.2-0.5-1.9
			c0.7-3.2,1.4-6.3,2.3-9.4c0.4-1.2,0.2-1.6-1-2c-0.8-0.2-1.5-0.6-1.9-1.3c-2.5-4-3.1-8.2-0.6-12.5c1.2-2.1,2.4-4.3,3.6-6.4
			c1.4-2.5,3.1-4.8,5.2-6.7c2-1.9,3.9-3.9,5.5-6.2c1.4-2,2.2-4.1,2.2-6.6c0-1.1-0.1-1.2-1.1-0.7c-4.1,1.9-7.6,4.5-10.4,8.1
			c-0.2,0.3-0.5,0.6-0.8,0.8c-1.9,1.3-3.2,3.1-4.3,5.1c-0.5,0.9-1,1.8-1.8,2.5c-2.4,2-3.8,4.6-4.7,7.6c-0.1,0.3-0.2,0.7-0.4,1
			c-1,1.2-1.7,2.6-2.2,4c-0.1,0.5-0.4,0.5-0.7,0.1c-0.5-0.6-0.8-1.2-0.8-2c0-1.4,0.4-2.8,0.8-4.1c0.7-2.1,1.2-4.2,1.3-6.5
			c0.2-2.7-0.3-5.4-0.6-8c-0.5-4.8-1.2-9.6-1.7-14.4c-0.7-5.6-1.4-11.2-2.9-16.7c-0.2-0.7-0.2-1.5-0.3-2.3c0-0.4,0.1-0.8,0.6-0.9
			c0.5-0.1,0.7,0.2,0.9,0.6c0.2,0.5,0.4,0.9,0.5,1.4c0.8,3.4,1.4,6.7,2.2,10.1c2.1,8.9,3.1,17.8,2.8,27c-0.1,1.6,0,3.2,0,4.9
			c0,0.2,0,0.5,0.2,0.5c0.3,0.1,0.3-0.2,0.4-0.3c0.8-1,1.4-2.1,1.8-3.2c0.4-1.2,0.7-2.4,1.2-3.5c3.3-8.9,4.7-18.2,5.4-27.6
			c0.3-3.5,0.1-7,0-10.5c-0.1-2.5-0.2-5.1-0.6-7.6c-0.8-6-2.5-11.8-4.7-17.5c-0.8-2.1-1.8-4-3.3-5.7c-1.4-1.5-3-2.2-5-1.8
			c-0.4,0.1-0.8,0.1-1.2,0.1c-5.2,0.5-10,2.2-14.1,5.5c-3.1,2.4-5.6,5.5-8.2,8.4c-0.3,0.4-0.4,0.9-0.5,1.3c-0.1,2.1,0.1,4.2,1,6.2
			c2.3,5.2,3.7,10.7,5.1,16.2c0.1,0.4,0.1,0.8-0.4,1c-0.5,0.2-0.6-0.3-0.8-0.6c-0.1-0.3-0.3-0.6-0.4-0.9c-1.3-3.4-2.6-6.7-3.8-10.2
			c-1-2.8-3-5.1-3.3-8.1c0-0.1-0.1-0.3-0.3-0.3c-0.2,0-0.3,0.2-0.3,0.4c-0.2,0.4-0.2,0.8-0.2,1.2c-0.3,2.8-0.7,5.6-1,8.4
			c-0.4,3.7-1,7.5-1.1,11.3c-0.1,1.8,0,3.7,0,5.5c0,0.7-0.2,1.3-0.9,1.5c-0.7,0.1-1.1-0.4-1.4-0.9c-0.9-1.5-1.7-3-2.4-4.7
			c-0.8-2-1.9-3.9-3.1-5.7c-0.1-0.2-0.2-0.4-0.5-0.4c-0.3,0-0.4,0.3-0.5,0.5c-0.4,1.1-0.2,2.1,0.1,3.1c0.7,2.1,0.4,4-0.9,5.8
			c-0.7,0.9-1,2-1.2,3.2c-0.2,1.2,0,2.3,1,3.1c0.4,0.4,0.6,0.8,0.9,1.3c1.5,3.4,4.1,5.8,7.5,7.1c0.7,0.3,1.4,0.6,1.9,1
			c1.4,1.2,3.1,2,4.9,2.4c0.6,0.1,1,0.4,1.4,0.9c0.2,0.3,0.4,0.6,0.2,1c-0.2,0.4-0.6,0.5-1,0.4c-0.7-0.1-1.4-0.3-2.1-0.6
			c-1.4-0.6-2.9-0.7-4.5-0.4c-0.7,0.1-0.9,0.5-0.7,1.1c0.2,0.5,0.3,1,0.5,1.5c0.2,0.9-0.3,1.5-1.2,1.4c-0.9-0.1-1.7-0.8-1.7-1.8
			c0-0.5,0.1-0.9,0-1.4c0-0.7-0.8-1.1-1.4-0.7c-0.9,0.7-1.7,1.6-2.4,2.6c-0.7,1,0,2.3,1.2,2.4c0.4,0,0.7,0,1.1,0
			c1,0.1,1.8,0.5,2.2,1.5c0.7,2,2.2,2.9,4,3.4c3.1,0.9,6.2,1.6,9.4,2c1.2,0.2,2.3,0.1,3.5,0.4c1.2,0.3,2.3,0.8,3.2,1.8
			c0.1,0.1,0.3,0.3,0.2,0.5c-0.1,0.2-0.3,0.1-0.5,0c-2-0.3-3.9-0.6-5.9-0.9c-0.6-0.1-1.2-0.2-1.5,0.4c-0.4,0.7,0.1,1.1,0.5,1.5
			c0.9,0.9,1.9,1.5,3,2.2c1,0.6,2.1,1.2,3.1,1.9c0.4,0.3,0.7,0.7,0.5,1.2c-0.1,0.5-0.5,0.8-1.1,0.9c-0.7,0.1-1.4,0.1-2-0.1
			c-2.3-0.6-4.5-1.2-6.8-1.8c-2.7-0.7-5.2-1.7-7.5-3.2c-1.7-1.1-3.4-2-5.2-3C257.9,110.2,257.4,110,256.8,110z M332.8,188.1
			c0.1,0.9-0.2,1.6-1,1.9c-1.1,0.5-1.3,1.3-1.1,2.4c0.3,1.6,0.2,3.2-0.3,4.7c-0.4,1.2-0.3,2.4,0.6,3.4c0.5,0.6,0.5,1.1,0.1,1.7
			c-0.6,0.9-0.9,1.9-1.1,2.9c-0.2,1-0.4,2-0.9,2.9c-0.5,1-0.7,2.1-0.3,3.2c0.1,0.4,0.1,0.7-0.1,1c-2.1,2.8-4.6,4.9-8.1,5.5
			c-3.3,0.6-6.7,1.1-10,1.7c-7.2,1.3-14.4,2.6-21.6,3.7c-0.4,0.1-0.9,0.3-1.3,0.1c-0.5-0.2-0.1-0.8-0.2-1.2c0,0,0-0.1,0-0.2
			c0-0.3-0.2-0.4-0.5-0.5c-0.3,0-0.4,0.2-0.5,0.4c-0.1,0.4-0.2,0.7-0.3,1.1c-0.1,0.4-0.3,0.7-0.8,0.7c-1.6,0.2-3.1,0.4-4.7,0.6
			c-0.5,0.1-0.7-0.2-0.7-0.6c-0.2-1.8-0.5-3.6,0.7-5.2c0.3-0.4,0-0.8-0.4-1.1c-0.4-0.3-0.7-0.1-0.9,0.3c-0.1,0.2-0.2,0.5-0.3,0.7
			c-0.7,1.7-1,3.6-1.5,5.4c-0.1,0.4-0.3,0.7-0.8,0.7c-0.4,0-0.7,0.2-1-0.3c-0.2-0.4-0.5-0.3-0.7,0c-0.3,0.4-0.7,0.5-1.2,0.5
			c-1.3-0.1-1.9-1-1.5-2.3c0.2-0.8,0.6-1.6,0.6-2.5c0-0.7,0-1.3-0.6-1.8c-0.2-0.2-0.3-0.4-0.6-0.3c-0.2,0.1-0.2,0.3-0.2,0.5
			c-0.2,1.9-1,3.5-1.5,5.3c-0.1,0.6-0.5,0.8-1.1,0.7c-1.2-0.2-2.3-0.5-3.4-1c-2.4-1.1-3.6-2.9-3.7-5.5c0-1.3,0.3-2.5,0.6-3.6
			c0.3-1.1,0.2-2.1-0.5-3c-0.6-0.9-1.2-1.8-1.8-2.8c-0.8-1.2-0.8-1.2-1.6-0.1c-0.1,0.1-0.2,0.3-0.3,0.2c-0.2-0.1-0.1-0.3-0.1-0.4
			c0.1-0.7,0.1-1.4,0.2-2c0-0.2,0.1-0.4-0.1-0.5c-0.2-0.1-0.4,0.1-0.5,0.3c-0.3,0.6-0.7,1.3-0.8,2c-0.7,3.1-0.2,6.1,1.3,8.9
			c1.5,2.8,3.6,5,6.2,6.7c4.9,3.3,10.1,5.7,16,6.4c3.4,0.4,6.8,0.6,10.2,0.8c0.6,0,0.9,0.2,0.8,0.9c-0.4,2.4-0.8,4.8-1.1,7.2
			c-0.6,4.2-0.9,8.5-1.3,12.7c0,0.4-0.1,0.8,0.1,1.2c0.2-0.3,0.2-0.5,0.3-0.8c1.4-4.8,2.6-9.7,3.7-14.6c0.3-1.2,0.4-1.3,1.5-1.4
			c0.7-0.1,1.4-0.2,2-0.7c0.3-0.2,0.4-0.5,0.2-0.8c-0.6-0.8-0.5-1.8-0.4-2.7c0.1-0.6,0.4-0.8,1-0.8c4.5,0,9.1-0.2,13.6-0.7
			c5.9-0.7,11.6-2,17-4.4c7.3-3.3,13-8.3,16.5-15.5c0.9-1.8,1.7-3.7,1.7-5.8c0.1-4.9-2-8.7-5.9-11.6c-1.6-1.2-1.8-1.1-2.5,0.7
			c-0.4,0.9-0.8,1.7-1.2,2.6c-0.1,0-0.1,0-0.2-0.1c0.3-1.1,0.5-2.1,0.8-3.2c0.2-1,0.1-1.5-0.8-2.2c-0.8-0.6-1.6-1.1-2.4-1.7
			C333.6,188.6,333.3,188.2,332.8,188.1z M345.2,36.1C345.2,36.1,345.2,36.1,345.2,36.1c0-0.6,0-1.3,0-1.9c0-0.4-0.2-0.5-0.5-0.4
			c-1.6,0.6-3.4,0.7-5.1,1.2c-0.7,0.2-1.3,0.1-1.8-0.4c-0.4-0.3-0.8-0.6-1.3-0.7c-1.4-0.2-2.2-1.1-2.8-2.2c-0.7-1.3-1.5-2.5-2.5-3.6
			c-0.6-0.7-1.3-0.9-1.9-0.5c-0.8,0.4-0.7,1.1-0.6,1.8c0.1,0.5,0.2,1,0.1,1.6c-0.1,0.9-0.4,1.2-1.3,1.2c-0.6,0-1.2-0.1-1.7-0.1
			c-0.6-0.1-0.7,0.2-0.7,0.7c0.1,1,0.6,1.8,1.4,2.5c0.8,0.7,1.7,1.3,2.5,2.1c1.6,1.6,3.5,2.3,5.7,2.1c1.3-0.1,2.5,0.1,3.7,0.4
			c0.3,0.1,0.7,0,0.7,0.4c0.1,0.4-0.3,0.6-0.5,0.8c-1.4,1.1-2.9,1.1-4.6,0.6c-1.3-0.4-2.7-0.7-4.1-0.7c-2.1,0-4.1-0.5-6-1.3
			c-1.2-0.5-2.4-1.1-3.6-1.6c-0.7-0.3-0.9-0.2-0.9,0.6c0,1.2,0.4,2.3,1.1,3.3c0.6,0.8,0.8,1.7,0.5,2.7c-0.2,0.8,0.3,1.4,1.1,1.2
			c0.5-0.1,0.9-0.3,1.3-0.5c0.5-0.3,1.1-0.3,1.6-0.1c1.4,0.8,2.8,1.6,3.6,3.1c0.3,0.5,0.7,0.7,1.3,0.6c0.3-0.1,0.7-0.1,1,0
			c0.2,0.1,0.4,0.2,0.5,0.5c0.1,0.3-0.1,0.4-0.3,0.5c-0.6,0.4-1.3,0.7-2.1,0.6c-0.7-0.1-1.3,0-2,0.2c-2.9,0.7-2.5,0.7-2.8,3.1
			c-0.1,1.1-0.5,1.4-1.7,1.3c-0.7-0.1-1.4-0.2-2,0.3c-0.8,0.7-1.7,0.9-2.8,0.9c-0.6-0.1-1.3-0.1-1.9-0.2c-0.6-0.1-0.8,0.1-0.7,0.7
			c0.3,2.2,1.1,4,3.1,5.2c0.5,0.3,0.7,0.7,0.5,1.2c-0.2,0.6,0,1.1,0.3,1.7c0.9,1.5,1.8,3.1,2.7,4.6c0.3,0.5,0.7,1.1,1.1,1.5
			c0.7,0.6,0.9,0.6,1.4-0.1c1.8-2.4,3.4-5,4.7-7.8c1.7-3.8,2.8-7.8,3.8-11.8c0.3-1.2,0.9-2.1,1.8-2.9c1.2-0.9,2.4-1.6,3.7-2.4
			c0.2-0.1,0.4-0.4,0.6-0.2c0.3,0.2,0,0.4,0,0.6c-0.8,3.2-1.3,6.4-1.8,9.7c-0.4,2.6-0.9,5.2-1.7,7.8c-0.1,0.5-0.3,0.9-1,1
			c-0.6,0-0.9,0.5-1,1.1c-0.1,1,0,1.9,0.3,2.8c0.1,0.4,0.3,0.8,0.1,1.1c-0.7,1.1-0.8,2.4-0.9,3.7c-0.1,1.1,0.1,1.5,1.2,1.9
			c1,0.4,2,0.7,3,1c2.6,0.8,5.1,1.9,7,4c1.2,1.3,2.4,2.4,4.1,2.7c0.1,0,0.3,0.1,0.4,0.2c1.3,0.6,2.5,1.4,3.7,2.3
			c0.5,0.3,0.7,0.3,1-0.2c0.2-0.5,0.4-1.1,0.6-1.6c0.5-2.2,0.5-4.4,0.7-6.6c0.1-1.4-0.2-2.5-1.1-3.5c-1.2-1.6-2.2-3.3-2.9-5.1
			c-0.3-0.8-0.8-1.4-1.6-1.7c-0.6-0.2-1.2-0.5-1.8-0.7c-2.6-0.8-5.2-1.2-7.8-1.4c-1.2-0.1-1.2-0.1-0.9-1.2c0.3-1,0.5-2,0.6-3
			c0.4-3.6,1.2-7.1,2.9-10.4c0.3-0.6,0.6-1.4,1.4-1.3c0.8,0.1,0.9,1,1.1,1.6c0.6,1.9,0.6,3.9,0.7,5.9c0.1,0.9,0.3,1.7,0.9,2.4
			c0.7,0.8,1.5,1.3,2.5,1.1c1-0.1,1.4-0.9,1.8-1.8c0.4-1,0.4-1.9,0.2-2.9c-0.3-1.3-0.6-2.6-0.9-3.8c-0.2-0.7-0.3-1.5,0.1-2.1
			c0.4-0.6,0.2-1-0.4-1.4c-0.5-0.3-1-0.5-1.5-0.6c-1-0.2-1.9-0.4-2.9-0.6c-1.4-0.3-1.8-1-1.5-2.4c0.2-1,0.5-2.1,0.8-3.1
			c0.1-0.2,0.1-0.5,0.4-0.6c0.4,0,0.5,0.3,0.6,0.5c0.3,0.9,0.6,1.8,0.9,2.7c0.2,0.6,0.5,1.2,1.2,1.5c1.5,0.6,3.1,0.9,4.7,0.9
			c0.6,0,0.8-0.3,0.6-0.8c-0.2-0.7-0.5-1.3-0.7-2c-0.3-0.8-0.3-1.5,0.3-2.1c0.3-0.3,0.4-0.7,0.2-1.1c-0.3-1.1-1-1.8-2-2.3
			c-0.6-0.3-1,0.1-0.9,0.7c0,0.2,0.1,0.3,0.1,0.5c0,0.5,0.5,1.1-0.2,1.4c-0.7,0.2-0.9-0.5-1.2-0.9c-0.2-0.2-0.3-0.5-0.4-0.8
			c-0.1-0.4-0.2-0.8-0.4-1.2c-0.1-0.2-0.1-0.4-0.4-0.4c-0.2,0-0.3,0.2-0.4,0.3c-0.1,0.3-0.2,0.5-0.4,0.7c-0.1,0.2-0.3,0.6-0.6,0.5
			c-0.3-0.1-0.4-0.4-0.4-0.7C345.2,37.3,345.2,36.7,345.2,36.1z M367.2,151.1c0.1-0.4,0.1-0.8,0-1.2c-2.2-8.9-4.4-17.8-6.5-26.7
			c-1.1-4.5-2.4-9-2.8-13.6c-0.2-1.8-0.8-2.6-2.6-3c-2-0.5-3.7-1.5-5.3-2.8c-0.8-0.6-1.1-1.4-1-2.4c0.2-1.6-0.2-2.1-1.6-2.8
			c-4.3-1.9-8.4-4.1-12.6-6.2c-1.3-0.6-2-1.7-2.2-3.1c-0.4-2.7-0.1-5.4,0.1-8c0.1-1.3,0.4-2.6,0.5-3.9c0.1-0.4,0.1-0.9-0.5-1
			c-1.4-0.2-2.3,0.3-2.8,1.6c-0.3,0.9-0.5,1.8-0.8,2.8c-5,17.3-9.1,34.9-14.3,52.2c-0.1,0.3-0.1,0.6-0.1,1c0,0.5,0.4,0.7,0.8,0.8
			c0.4,0.1,0.7-0.1,0.9-0.5c0.1-0.3,0.2-0.6,0.3-0.9c0.8-3.1,1.6-6.3,2.4-9.4c0.4-1.5,1.2-2.6,2.7-3c0.5-0.1,0.5-0.4,0.4-0.8
			c-0.1-0.6-0.2-1.1-0.3-1.7c-0.4-3.1,0-6.2,0.5-9.3c1.7-10.3,4.9-20.1,8.4-29.8c0.1-0.2,0.1-0.6,0.5-0.5c0.4,0.1,0.2,0.4,0.2,0.6
			c-0.1,1.6-0.5,3.1-0.9,4.6c-1.4,5.8-3,11.5-4.4,17.3c-0.1,0.3-0.2,0.7-0.2,1c0,0.2-0.2,0.6,0.1,0.7c0.3,0.1,0.4-0.2,0.5-0.4
			c0.1-0.1,0.1-0.2,0.2-0.3c0.4-0.7,0.7-1.5,1.2-2.2c0.9-1.3,2.3-1.4,3.3-0.2c0.5,0.5,0.8,1.2,1,1.8c1,2.6,1.4,5.4,1.4,8.2
			c0,7.1-0.9,14-1.4,21.1c-0.6,6.8-1.3,13.6-2,20.3c-0.1,0.9,0.1,1.1,1,1.3c1.3,0.3,2.7,0.3,4.1,0.3c1,0.1,1.6-0.3,2.2-1.1
			c2.6-3.7,3.3-7.9,3-12.4c-0.6-6.5-1-12.9-1.6-19.4c-0.3-2.9-0.5-5.9-1-8.8c-0.5-3-1.6-5.7-2.5-8.6c-0.2-0.7-0.5-1.2-1.1-1.7
			c-0.6-0.4-0.8-1-0.8-1.7c0-0.5,0-0.9,0-1.4c0-1.7,1.3-2.6,2.9-2c1,0.4,1.9,0.8,2.8,1.3c1.3,0.6,1.6,1.4,1.3,2.8
			c-0.3,1.4-0.8,2.8-1,4.2c-0.2,1.5,0.3,2.2,1.7,2.5c1,0.2,2,0.3,3,0.5c1.2,0.3,2.1-0.2,2.8-1.1c0.2-0.3,0.3-0.6,0.7-0.5
			c0.4,0.1,0.4,0.5,0.5,0.8c0.3,1,0.2,2.1,0.9,3c0.8,1.1,1.1,2.3,1.2,3.7c0.2,2,0.4,4.1,1.3,6c0.1,0.2,0.2,0.5,0.2,0.8
			c0,0.7,0.2,1.3,0.4,1.9c2.2,6.5,5.1,12.7,8,18.8c1.6,3.4,3.3,6.8,5.7,9.7C366.5,150.5,366.7,150.9,367.2,151.1z M272.1,208.7
			c-0.7,0.6-0.9,1.3-0.8,2.1c0,0.3,0.1,0.6,0.4,0.6c0.8,0.1,1.2,0.7,1.5,1.4c0.8,1.6,1.2,1.8,2.9,1.4c0.8-0.2,1.5-0.4,2.3-0.3
			c1,0.1,1.7-0.4,2.1-1.3c1.5-3,2.4-6.1,2.7-9.4c0.3-3.6,0.3-7.3,0.9-10.9c0.5-2.6,1.1-5.1,2.7-7.3c0.3-0.4,0.6-0.7,0.9-0.1
			c0.3,0.5,0.6,0.4,0.9,0c0.7-0.9,1-1.9,0.6-3.1c-0.3-0.8-0.6-1.7-0.8-2.5c-0.4-1.8-0.4-3.7-0.6-5.5c0-0.3,0-0.6-0.4-0.7
			c-0.3-0.1-0.5,0.2-0.6,0.4c-4.1,6.1-7.7,12.4-10.3,19.3c-1,2.8-1.9,5.7-2.1,8.7c-0.1,2,0.1,3.9,0.7,5.8c0.3,1-0.2,2-1.1,2.5
			c-0.7,0.3-1.2,0-1.8-1C272.2,208.8,272.2,208.7,272.1,208.7z M270.3,185.6c0-0.2,0-0.4,0-0.5c-0.1-0.5-0.1-1.1-0.6-1.2
			c-0.5-0.1-0.7,0.4-1,0.7c-0.9,1.3-1.8,2.5-3.3,3.2c-0.2,0.1-0.3,0.3-0.4,0.4c-2.5,3-3.7,6.6-4.4,10.4c-0.1,0.3,0,0.6,0.3,0.7
			c0.3,0.2,0.5,0.1,0.8-0.1c0.6-0.4,1.1-0.9,1.6-1.3c0.4-0.4,0.7-0.4,1.2-0.1c0.7,0.5,1.5,0.5,2.3,0.1c1-0.5,1.7-1.2,2.4-2.1
			c1.1-1.6,2.1-3.4,2.9-5.2c1.2-2.6,1.5-5.4,2-8.2c0.3-1.8,0.7-3.6,1.8-5.2c0.6-0.9,0.9-1,1.9-0.8c0.6,0.1,0.9-0.1,1.1-0.5
			c0.3-0.6,0.7-1.2,1-1.9c1.1-2,1.5-2.1,3.4-0.8c0.9,0.7,1.4,0.6,2.2-0.2c0.9-0.9,1.6-2,2.2-3.2c0.1-0.2,0.2-0.5,0.5-0.6
			c1.2-0.8,1.7-1.9,1.8-3.3c0.1-0.8,0.5-1.3,1.3-1.5c0.8-0.2,1.4-0.7,1.6-1.4c0.6-2,1.2-4,1.8-6c0.2-0.6,0-1.2-0.6-1.5
			c-0.9-0.5-2.9-0.3-3.6,0.4c-0.2,0.1-0.2,0.3-0.1,0.5c0.1,0.2,0.2,0.1,0.4,0.1c0.1,0,0.2-0.1,0.4-0.1c0.2-0.1,0.5-0.1,0.6,0.2
			c0.1,0.3,0,0.4-0.2,0.6c-0.5,0.4-1,0.7-1.4,1.1c-0.3,0.2-0.6,0.5-0.7,0.8c-0.6,1.8-1.8,3.3-3,4.7c-1.2,1.5-2.4,2.9-3.1,4.7
			c-0.3,0.8-1,1.3-1.8,1.6c-1,0.4-1.9,0.9-2.7,1.7c-0.8,0.8-1.5,1.7-2.2,2.5c-1.7,1.9-2.7,4.1-2.9,6.7c-0.3,3.9-1.4,7.5-3.1,11
			c-0.3,0.7-0.4,0.7-1,0.2c-0.7-0.7-0.9-1.6-0.4-2.6c0.3-0.7,0.7-1.4,1.1-2.2C270.2,186.9,270.3,186.3,270.3,185.6z M310.3,145.7
			c-0.5,0.1-1.2-0.3-1.5,0.6c-0.2,0.6-0.2,1.2,0.4,1.6c0.9,0.7,2,1.1,3.2,1.2c0.8,0.1,1.1-0.2,1-1.1c-0.1-0.9,0-1.8,0.1-2.7
			c0.5-2.4,1.2-4.6,1.8-7c0.1-0.3,0.3-0.7-0.2-0.8c-0.4-0.2-0.8,0-1,0.3c-0.2,0.2-0.3,0.5-0.4,0.7c-0.8,1.8-1,3.8-1.6,5.7
			C311.9,145.6,311.7,145.7,310.3,145.7z M353,98.8c0-0.1,0-0.1,0-0.2c-0.6-2.7-1.2-5.5-1.9-8.2c-0.1-0.6-0.6-1-1.1-1.2
			c-0.6-0.3-1.1-0.2-1.3,0.5c-0.2,0.5-0.2,1-0.1,1.5c0.4,2.2,1.2,4.4,1.8,6.6c0.2,0.5,0.3,1,0.5,1.5c0.3,0.5,0.7,0.9,1.4,0.7
			C352.9,99.8,353,99.4,353,98.8z M326.3,27.5c0.3,0,0.8-0.2,1.3-0.4c1.8-0.6,1.6-0.6,1.3-2.5c-0.1-0.9-0.6-1.8-1.5-2.2
			c-0.3-0.1-0.7-0.3-0.9,0c-0.7,0.9-1.5,1.7-1.9,2.8C324.2,26.4,325.1,27.5,326.3,27.5z M299,158.2c0-0.4-0.1-0.6-0.4-0.8
			c-0.4-0.2-0.7-0.5-1.1-0.7c-0.6-0.3-1-0.2-1.2,0.5c-0.4,1.1-0.8,2.1-1.2,3.2c-0.5,1.4-0.3,1.8,1.2,2.3c0.5,0.2,0.8,0.1,1-0.4
			c0.5-1.2,1-2.4,1.6-3.5C298.9,158.6,298.9,158.4,299,158.2z M278.8,164.1c0,0.3,0,0.7,0.4,0.9c0.4,0.2,0.7-0.1,1-0.4
			c1.3-1.2,2.4-2.5,3-4.1c0.2-0.4,0.4-0.8,0-1.1c-0.3-0.3-0.8-0.2-1.1,0C280.4,159.9,278.8,162.2,278.8,164.1z M317.9,54.4
			c0.1,0,0.4,0.1,0.5-0.2c0.1-0.2-0.1-0.4-0.2-0.5c-1.2-0.9-2.5-1.8-3.7-2.7c-0.3-0.2-0.7-0.3-1,0c-0.4,0.3-0.5,0.7-0.2,1.2
			c0.1,0.2,0.3,0.4,0.5,0.6C314.7,53.8,316.1,54.3,317.9,54.4z"/>
		<path class="st1" d="M283.3,64.5c-0.1,3.9-0.1,7.8-0.3,11.7c-0.1,3.6-0.3,7.3-0.3,10.9c0,4.8,0.4,9.6,0.6,14.4c0,0.7,0,1.4-0.1,2
			c-0.1,0.7-0.5,0.8-1.1,0.5c-0.2-0.1-0.5-0.3-0.7-0.5c-1.5-1.8-2.7-3.7-3.3-6c-0.2-0.7-0.1-1.4,0.4-2c0.3-0.3,0.4-0.7,0.3-1.2
			c-0.8-3.1-0.8-6.3-0.4-9.5c0.5-5.6,1.1-11.1,1.6-16.7c0.6-6.7,1.1-13.4,1.6-20.1c0-0.5,0-1,0.1-1.4c0-0.3,0-0.6,0.3-0.7
			c0.4-0.1,0.4,0.3,0.5,0.6c0.6,2.1,0.7,4.3,0.8,6.5C283.5,56.8,283.4,60.6,283.3,64.5z"/>
		<path class="st1" d="M285.2,104.7c0.3-5.1,0.2-10.1,0.4-15.1c0.3-8.7,1.4-17.4,2.9-26c0.8-4.5,1.2-9,1.1-13.5
			c0-1.1-0.2-2.1-0.3-3.2c-0.1-0.6-0.3-1.1-0.8-1.5c-0.3-0.2-0.4-0.5-0.5-0.8c-0.3-1.9-0.3-3.8,0.4-5.7c0.1-0.3,0.1-0.6,0.6-0.6
			c0.4,0,0.4,0.3,0.5,0.6c0.7,2.2,1,4.4,1.4,6.7c0.5,2.7,1.1,5.5,1.1,8.3c0,2.2-0.4,4.3-0.6,6.5c-0.5,5.1-1.1,10.2-1.6,15.3
			c-0.5,5.1-1,10.1-1.3,15.2c-0.2,3.9-0.2,7.7-0.1,11.6c0.1,1.4,0.1,2.9-0.1,4.3c-0.1,1-0.6,1.6-1.3,1.6c-0.7,0.1-1-0.3-1.3-0.9
			C285.1,106.6,285.1,105.6,285.2,104.7z"/>
		<path class="st1" d="M272.4,91c1,1,2,2,2.9,3c0.5,0.5,1,1,1.4,1.6c0.2,0.2,0.3,0.5,0.1,0.7c-0.2,0.2-0.5,0.2-0.7,0.1
			c-1.9-0.7-3.5-1.6-4.7-3.3c-0.5-0.6-0.6-1.4-0.5-2.2c0.2-1.1-0.3-1.8-1-2.5c-1.5-1.3-3.2-2.2-5-3c-1.3-0.6-2.6-1.2-3.9-1.8
			c-1.7-0.8-3.1-1.9-4.1-3.4c-0.1-0.2-0.4-0.4-0.3-0.7c0.2-0.3,0.5-0.1,0.7-0.1c4.9,0.6,9.4,2.5,13.3,5.5c1.3,1,2.5,2.1,3.4,3.5
			c0.3,0.5,0.6,0.9,0.7,1.5c0.1,0.8-0.2,1.1-1,1c-0.2,0-0.4-0.1-0.7-0.1c-0.2,0-0.4-0.1-0.6-0.1C272.4,90.9,272.4,90.9,272.4,91z"/>
		<path class="st1" d="M303.6,152c1.3-0.2,2.6,0,3.8,0.1c6.5,0.8,13,1.7,19.4,3.2c1.9,0.4,3.8,0.9,5.6,1.5c0.2,0.1,0.5,0.1,0.5,0.3
			c0,0.3-0.2,0.4-0.4,0.5c-1.4,0.9-3,1.4-4.6,2c-0.5,0.2-0.9,0-1.4-0.3c-2.3-1.2-4.6-2.3-6.8-3.5c-2.4-1.3-5-1.8-7.6-2.2
			c-2.7-0.4-5.4-0.9-8.1-1.4C304,152.2,303.7,152.3,303.6,152z"/>
		<path class="st1" d="M381.6,168.8c-0.2,1.2-0.3,2.6-0.8,3.9c-0.3,0.8-0.6,1-1.4,0.6c-1.6-0.8-2.7-2-3.4-3.5
			c-0.8-1.8-1.5-3.7-2.3-5.6c-0.2-0.5,0-0.8,0.5-0.8c0.7-0.1,1.4,0,2,0.1c0.5,0.1,0.7,0.5,0.8,0.9c0.2,0.6,0.3,1.1,0.5,1.7
			c0.4,1.1,1.1,1.5,2.3,1.5c0.2,0,0.4,0,0.5,0C381.5,167.4,381.6,167.6,381.6,168.8z"/>
		<path class="st1" d="M303.9,133.9c0,0.1,0,0.2,0,0.2c0,3-2,3-4,2.1c-0.4-0.2-0.4-0.5-0.3-0.8c0.4-2,1.2-3.8,2.3-5.5
			c0.4-0.5,0.6-0.4,0.9,0.1C303.5,131.3,303.9,132.5,303.9,133.9z"/>
		<path class="st1" d="M291.7,147.6c-0.9-0.1-1.7-0.1-2.5-0.6c-0.9-0.6-1.2-1.6-0.9-2.5c0.2-0.5,0.5-0.6,0.9-0.6
			c1.9,0.3,3.4,1.3,4.6,2.8c0.3,0.3,0.1,0.6-0.3,0.6C292.9,147.5,292.3,147.6,291.7,147.6z"/>
		<path class="st1" d="M300.4,45c0-0.2,0-0.3,0-0.5c0-0.2,0-0.5,0.3-0.6c0.3-0.1,0.4,0.1,0.6,0.3c0.6,0.7,1,1.5,1.4,2.3
			c0.6,1.3,1,2.6,1.2,4c0,0.3,0.1,0.6-0.2,0.7c-0.3,0.1-0.5-0.1-0.7-0.4C301.6,49.2,300.6,47.3,300.4,45z"/>
		<path class="st1" d="M300.4,59.6c-1.8-0.6-3.1-1.5-4.1-3C297.5,56.5,299.8,58.1,300.4,59.6z"/>
		<path class="st1" d="M349,56.4c0,0.4-0.1,0.8-0.6,0.9c-0.6,0.1-1.1-0.2-1.3-0.8c-0.1-0.3-0.1-0.7-0.2-1c0-1.3-0.1-2.6-0.3-3.8
			c-0.1-0.6,0-1.3,0.2-1.9c0.2-0.4,0.5-0.5,0.8-0.5c0.5,0,0.4,0.4,0.5,0.6C348.6,52.1,348.8,54.2,349,56.4z"/>
		<path class="st1" d="M276.5,207.8c0.2-1.4,0.7-2.9,1.1-4.5c0.5-2,1-3.9,1.5-5.9c0.1-0.4,0.3-0.8,0.4-1.1c0.2-0.5,0.6-0.8,1.1-0.6
			c0.6,0.2,0.8,0.5,0.7,1.1c-0.3,1.8-0.6,3.5-0.9,5.3c-0.2,1.4-0.4,2.7-0.6,4.1c-0.1,0.5,0,0.9,0.1,1.3c0.3,0.8,0.4,1.6-0.3,2.2
			c-0.7,0.6-1.4,0.4-2.1,0.1C276.8,209.5,276.5,208.9,276.5,207.8z"/>
	</g>
</g>
<g>
</g>
<g>
</g>
<g>
</g>
<g>
</g>
<g>
</g>
<g>
</g>
<g>
</g>
<g>
</g>
<g>
</g>
<g>
</g>
<g>
</g>
<g>
</g>
<g>
</g>
<g>
</g>
<g>
</g>
</svg>
