<?xml version="1.0" encoding="utf-8"?>
<!-- Generator: Adobe Illustrator 17.1.0, SVG Export Plug-In . SVG Version: 6.00 Build 0)  -->
<!DOCTYPE svg PUBLIC "-//W3C//DTD SVG 1.1//EN" "http://www.w3.org/Graphics/SVG/1.1/DTD/svg11.dtd">
<svg version="1.1" id="Layer_1" xmlns="http://www.w3.org/2000/svg" xmlns:xlink="http://www.w3.org/1999/xlink" x="0px" y="0px"
	 viewBox="0 0 634.6 200.2" style="enable-background:new 0 0 634.6 200.2;" xml:space="preserve">
<style type="text/css">
	.st0{fill:#020101;}
	.st1{fill:#FA0101;}
	.st2{fill:#080203;}
</style>
<g>
	<g>
		<path class="st0" d="M0.1,0.1c65.3,0,130.7,0,196-0.1c3.4,0,4.1,0.7,4.1,4.1c-0.1,64-0.1,128,0,192c0,3.4-0.7,4.1-4.1,4.1
			c-64-0.1-128-0.1-192,0c-3.4,0-4.1-0.7-4.1-4.1C0.1,130.8,0.1,65.4,0.1,0.1z M161,155.2L161,155.2c-0.4-1.4-1.5-1.9-3-2
			c-3.1-2.3-4.6-6.2-7.9-8.3c0.7-1.6,1.3-3.1,2-4.7c0.3,0,0.7,0,1,0c0.8,1,1.8,1.7,3,0.7c0.8,0.1,1.6,0.3,2,1.1
			c0,3.7,2.4,4.1,5.3,3.9c2,0.1,4.1,0.5,4.7-2.3c0.7-3.3-2.1-8.8-4.9-9.8c-0.7-1.2-1.3-1.2-2,0c-2,0-4,0-6,0c-1-1.5-2.1-3-4-0.9
			c-3.7-0.2-2.2,2.4-2.1,4.1c-2.4,0.1-4.7,0.3-5.9,2.9c-0.3,0.2-0.5,0.2-0.8,0.1c-0.4,0.2-0.8,0.5-1.2,0.7c-0.2,0.2-0.5,0.3-0.8,0.3
			c-0.8,0.4-3.4-0.4-1.3,1.9c0.2,4.5,4,6.8,6.6,9.4c8,8.1,16.9,15.1,26.6,21.1c1.1,0.7,2.1,2.1,3.4,0.8c1.3-1.3-0.1-2.4-0.9-3.4
			c-0.5-0.6-1-1.3-1.5-1.9c-0.4-1.7-1.4-2.7-3-3.1l0,0c0.1-6.2-2.3-9.5-7.1-9.9l0.1,0.1C162.4,155.9,161.7,155.5,161,155.2z
			 M185.9,66.6c0,0.3,0.1,0.7,0.1,1c-0.7,1.7-0.9,3.3,0.9,4.5c-0.3,5.7-0.7,11.3-1,17c0,0.3,0,0.7,0,1c0.1,1,0.2,1.9,0.3,2.9
			c-1.4,2.4-0.6,8.1-6.2,4c-0.1-0.3,0-0.6,0.3-0.9c0.2-0.4,0.5-0.8,0.7-1.2c0.4-5.4-0.5-10.7-0.2-16.2c0.3-7.2,0.7-14.4,0.6-21.6
			c0.2-0.4,0.5-0.8,0.7-1.1c0-3.6,0-7.2-0.1-10.8c1.2-1.7,0.4-3.1-0.7-4.4c-1.7-1.9-2-4.1-1.2-6.5c0.9-0.3,1.9-0.6,2.8-0.8
			c1.5,2.1,2.9,3.7,4.2-0.1c1.6-0.7,4-0.6,3.7-3.1c-0.2-1.9-2.2-2.6-3.7-2.8c-7.3-1-14.5-3.2-21.9-3.1c-1.7,0-4.2-1.1-4.8,1.2
			c-0.6,2.4,0.2,5.2,2.6,6.4c1.6,0.9,2.6,1.7,1.9,3.3c-0.9,2.1,0.1,3.4,1.1,4.9c2,2.6,1.3,4.6-1.5,5.9c-2.3,1.1-5.1,2.1-5.8,4.4
			c-1.3,4.1-5.4,5.3-7.4,8.8c-2,3.5-5.3,6.5-6.1,10.6c-0.7,3.8,3.7,3.6,5.5,5.5c1,1,1.6,2.1,1.2,3.6c-0.4,1.5-1.8,1.3-2.9,1.3
			c-2.7,0.1-5,0.7-5.1,4c-2.6,1.4-6.8-0.9-8.1,3.4c-1.2,3.9,4.1,2.2,4.4,4.9c0.1,1.9-1.2,3.4-1.7,5.1c-0.7,2.3-2.7,5.2,1.3,6.5
			c3.7,1.3,7.5-0.6,7.9-4.2c0.1-1.3,0.1-1.5,1.3-1.7c4.6-1,7.8,2,7.1,7c-0.2,1.7-1,2.4-2.7,1.7c-1.4-0.5-3.4-1.3-3.8,0.3
			c-0.4,1.9,1,3.4,3.3,4.1c4.1,1.3,7.3,3.8,7.2,8.7c0.2,0.7,0,1.9,1.4,1.2c2.9-0.4,6.3,1.3,8.4-2c3.2-0.3,3.9-2.5,4-5.2
			c0.3-1.8,1.8-2,3.1-2.6c1,1.3,1.5,0.8,1.8-0.5l-0.1,0.1c1,0.1,2.1,0.1,3.1,0.2c0.5,1.3,1,2.6,1.5,3.9c-2.7,1.9-0.1,4.8-1.3,6.9
			c-0.2,0.2-0.4,0.3-0.8,0.3c-1,0.2-1.8,0.7-2.2,1.7c-0.9,0.4-1.9,0.9-2.8,1.3c-0.4,0.2-0.8,0.5-1.2,0.7c-1.8,0.3-2.9,1.4-3.2,3.2
			c-1.2,0.7-1.2,1.3,0,2c0.1,1.3,0.2,2.5,0.2,3.8c-0.3,0.9-0.3,1.7,0.8,2.2c3.1,5.9,6.1,11.8,9.5,18.3c1.6-3.6-0.4-5.6-0.4-7.9
			c0-3.5-0.8-7,5-6.7c2.9,0.1,6.8-1.6,6.9-5.3c0.3-8.4,0.8-16.9-0.5-25.1c-0.9-6.1,0-12.2-1.4-18.1c-0.9-3.9,0.5-8.1-1.2-11.8
			c-2.3-5.1-3.7-10-0.8-15.3c-0.3-1.2,0.7-3.5-2.2-2.7c-0.9-0.1-1.6,0.2-2,1l-0.2,0.2l0.2,0.2c0,0.5,0,1,0,1.5l-0.2,0.2l0.3,0.2
			C186.1,66.1,186.1,66.3,185.9,66.6l-0.2,0.3L185.9,66.6z M141.4,174.2c-2.1-0.4-4.1-0.7-6.2-1.1c-0.3-2.4,1-4.5,1.7-6.7
			c0.8-2.6-0.7-4.2-2.5-5.4c-2.1-1.5-3.2,0.2-4.5,1.6c-3.9,4.1-7.8,8.1-11.8,12.1c-7.7,7.7-13.9,7.5-20.7-0.8c-1.7-2.1-3-1-4.5-0.2
			c3.1,2.3-1.4,6.8,2.9,9c1.6,0.8,3.6,3.6,1.8,4.8c-4.3,2.9-1,3.2,0.7,4.9c2.2,2.1,4.2,2.8,7.2,2.4c5.3-0.7,10.7,1.5,16-0.6
			c5.3-2.1,6.2-4.9,2.9-9.3c-1-1.3-1.9-2.6-0.4-3.9c1.3-1.2,2.2-3.1,4.9-1.9c2.1,1,5.7,3.5,6.1-1.9c1.7,0.3,3.3,0.6,5,1
			c0.2,4.2,2,8.3,0.6,12.7c-0.6,1.9,1.7,3.6,3.2,3.8c2.3,0.4,3.2-2,3.9-3.8c0.6-1.6-0.4-2.9-1.9-3.5c-2.5-1-2.5-1-0.9-3.4
			C147.7,179.5,146.2,175.5,141.4,174.2z M91.3,87c-2.1,1.6-4.1,3.3-6.2,4.9c-4.6,0-7.8,2.1-9.9,6.2c-2.3,1.1-2.4,2.5-0.3,4
			c0.1,1,0.2,2,0.3,2.9c-0.6,1.2,0.1,1.7,1.1,2c0.3,0.3,0.5,0.6,0.8,0.9c1.2,2.1,6,1.9,4.4,5.4c-1.2,2.9-0.7,5.8-1.5,8.6
			c-2.7,0-5.3,0-8,0c-0.4-0.8-0.7-0.7-1,0c-3.8-0.5-4.1-3.5-3.9-6.3c0.3-7-1.1-13.8-2-20.7c-0.2-1.8-0.7-2.9-2.7-2.8
			c-6,0.3-11.9,0.3-17.9,0.4c-9,0.2-17.8,6.2-26.9,0.6c-0.4-0.2-1-0.1-1.5,0c-2.7,1.2-3.5-0.4-4.1-2.6c-0.7-2.6-2.5-4-5.2-3.5
			c-2.7,0.5-1.7,2.9-1.7,4.5c0,21.5-0.5,42.9,1.1,64.4c0.5,6.7,1.9,13,9.8,16.3c5.6,2.4,11.8,5.4,15.6,10.4
			c3.4,4.6,10.6,4.4,12.1,10.7c0.1,0.2,1,0.5,1.3,0.3c3.4-1.7,6.4,0.3,9.6,0.9c3.5,0.7,7.2-1.5,7.4-4.7c0.4-9.3-0.1-18.6-3.2-27.4
			c-1.1-3.3-0.6-5.8,1.7-8.4c6.3,7.7,5.1,17.6,8.1,25.8c6.4,2.1,12.4-1.4,19.7-1c-3-2.8-5.4-2.9-8.2-1.5c-2.5,1.2-4.8,0.8-4.9-2.6
			c-0.2-4,3.5-8,7.4-7.7c4.6,0.3,6.1-1.6,5.5-5.8c-0.2-1.3,0.9-3.5-1.3-3.7c-1.5-0.1-1.7,1.7-1.7,3.1c-0.1,2.4-1.8,3-3.7,3.2
			c-1.1,0.1-3,0.3-2.9-1c0.2-3.5-2.7-4.6-4.2-6.9c-1.7-2.5-2.4-5.1-1.6-8.4c1.5-6.8,7.1-8.7,12.1-11.5c2.1-1.2,4.1-1.4,6,0.2
			c2.2,1.7,3.6,2.4,5.2-1c1.1-2.2,4-3.2,6.8-2.5c1.9,0.4,3.4,2.6,3,3.5c-2.2,4.6,1.8,8.7,0.7,13.2c-0.4,1.7,1.1,2.8,2.8,0.9
			c1.2-1.3,2.6-2.5,3.2-4.3c1-3,2.7-5.7,3.7-8.6c3.2-9.2,11.1-16.3,12.1-26.5c3.1-1.9,6.5-4.3,5.7-8.1c-0.8-4-1-7.5,1.6-11.5
			c-2.3,0.3-3.7,0.5-5.1,0.6c-0.4-0.7-0.8-1.3-1.2-2c-0.3-0.7-0.5-1.3-0.8-2c-1-4.2,3.4-2.3,4.6-4.1c1.9-0.6,3.2-1.7,2.2-3.9
			c2.6-3.2-1.5-5.8-1-8.8c0.1-0.8-0.8-1-1.4-0.4c-4,4-9.6,2.8-14.3,4.6c-4.6,1.7-9.2,3.5-14,4.6c-4.8,1-7.6,6.2-12.9,5.6
			C91.5,85.6,91.4,86.5,91.3,87z M24.3,27.1C24.3,27.1,24.3,27.1,24.3,27.1c-2,0-4-0.1-6,0.1c-6.9,0.6-12.2,4.9-12.1,10.6
			c0.1,6.6,0.4,13-1,19.6c-0.4,2-1.3,5.4,1.4,6.2c2.6,0.7,3.3-2.7,4.4-4.6c5.6-8.7,11.2-17.5,18.1-25.2c1.5-1.6,4.2-3.4,3.1-5.7
			c-1-1.9-3.9-0.6-6-0.9C25.6,27,25,27.1,24.3,27.1z M67.6,7.4c2.5,0.7,4.3,1.9,5.5,1.5c4.9-2,9.6,1.5,14.4,0.3
			c1.2-0.3,2.7-0.4,3.6,1.1c1.6,2.5,4.4,2.4,6.7,2.7c9.1,1.3,18.4-0.1,27.5,1.1c0.9,0.1,2.7,0.7,2.6-1.2c0-1.4-1.5-1.8-2.6-1.7
			c-4.9,0.5-9.5-1.3-14.3-1c-4.3,0.3-8.7,1.4-11.1-3.8c-0.2-0.5-1.1-1-1.6-1C92.4,5.2,86.7,2.6,81,5.2c-1.6,0.7-3.1,1.2-4.8,0.4
			C73.5,4.4,71.1,5.3,67.6,7.4z M19.7,19.8c1,1.6,2.6,1.4,4,1.2c4.9-0.4,9.6,0.8,14.3,1.1c7,0.5,13.5-1.9,20-4.1
			c1.3-0.4,2.9-1.4,2.5-2.7c-0.4-1.7-2.4-1.3-3.9-1.3c-0.8,0-1.6,0.4-2.4,0.4c-6.9,0.3-13.8,3.2-20.4,1.4
			C27.8,14.3,23.8,16.5,19.7,19.8z M106.2,156.9c1,1.9,2.1,4.1,4.6,5c0.8,0.3,1.4-0.8,1.3-1.7c-0.2-2.7-2.1-4.3-4.2-5.6
			C107.2,154.2,106.3,155.5,106.2,156.9z"/>
		<path class="st1" d="M72.1,121.9c2.7,0,5.3,0,8,0c3.5,0.8,6.9,1.9,11,0.7c-3.6-6.6-3.4-14.6-9.8-19.5c-0.8-0.7,0.6-3.6-2.1-2.8
			c-1.9,0.6-1.1,2.5-1,3.9c0.2,1.5,1.9,3.2-1.1,3.7c-0.3-0.3-0.5-0.6-0.8-0.9c-0.4-0.7-0.7-1.3-1.1-2c-0.1-1-0.2-2-0.3-2.9
			c0.1-1.3,0.2-2.6,0.3-4c2-4.1,5.3-6.2,9.9-6.2c1.7,0.4,3.6-0.2,4.1,2.5c1.5,8,2.3,8.6,9.8,9.8c2,0.3,4.4,2.1,5.7-0.4
			c1.3-2.5-0.3-4.9-2.1-6.7c-3.7-3.5-7.5-6.8-11.3-10.2c0.1-0.5,0.2-1.4,0.2-1.4c5.4,0.6,8.2-4.6,12.9-5.6c4.8-1,9.4-2.8,14-4.6
			c4.7-1.8,10.3-0.6,14.3-4.6c0.5-0.5,1.5-0.4,1.4,0.4c-0.6,3.1,3.6,5.6,1,8.8c-1.2,1-1.9,2.4-2.2,3.9c-1.2,1.8-5.6-0.1-4.6,4.1
			c-0.2,0.8-0.1,1.6,0.8,2c0.4,0.7,0.8,1.3,1.2,2c1.3,4.6,2.1,8.9-4.1,10.7c-1.2,0.3-2.2,1.6-2,3.1c0.2,1.3,1.1,2.2,2.4,2.1
			c3.3-0.2,1.3,1.9,1.5,3.1c-0.9,10.2-8.9,17.3-12.1,26.5c-1,3-2.7,5.7-3.7,8.6c-0.7,1.9-2,3-3.2,4.3c-1.7,1.8-3.2,0.7-2.8-0.9
			c1.1-4.5-2.9-8.6-0.7-13.2c0.4-0.9-1.1-3.1-3-3.5c-2.8-0.7-5.8,0.3-6.8,2.5c-1.6,3.4-3,2.7-5.2,1c-1.9-1.5-3.8-1.4-6-0.2
			c-5,2.8-10.5,4.7-12.1,11.5c-0.8,3.4,0,5.9,1.6,8.4c1.5,2.2,4.4,3.4,4.2,6.9c-0.1,1.3,1.9,1.2,2.9,1c1.9-0.2,3.6-0.8,3.7-3.2
			c0-1.4,0.2-3.2,1.7-3.1c2.2,0.2,1.1,2.4,1.3,3.7c0.6,4.2-0.9,6.2-5.5,5.8c-3.9-0.3-7.6,3.7-7.4,7.7c0.2,3.4,2.4,3.8,4.9,2.6
			c2.8-1.4,5.1-1.3,8.2,1.5c-7.3-0.4-13.3,3.1-19.7,1c-2.9-8.2-1.8-18-8.1-25.8c-2.3,2.6-2.8,5.1-1.7,8.4c3.1,8.9,3.6,18.1,3.2,27.4
			c-0.1,3.3-3.8,5.4-7.4,4.7c-3.2-0.6-6.2-2.6-9.6-0.9c-0.3,0.2-1.3-0.1-1.3-0.3c-1.5-6.4-8.7-6.2-12.1-10.7c-3.7-5-10-8-15.6-10.4
			c-7.9-3.3-9.3-9.6-9.8-16.3c-1.6-21.4-1.1-42.9-1.1-64.4c0-1.6-1-4,1.7-4.5c2.7-0.5,4.5,0.8,5.2,3.5c0.6,2.2,1.4,3.8,4.1,2.6
			c0.4-0.2,1.1-0.3,1.5,0c9.1,5.5,18-0.4,26.9-0.6c6-0.2,11.9-0.1,17.9-0.4c1.9-0.1,2.4,1,2.7,2.8c0.9,6.9,2.3,13.7,2,20.7
			c-0.1,2.9,0.1,5.8,3.9,6.3C71.4,121.9,71.8,121.9,72.1,121.9z M109.1,113.5c-1.1-1.6-0.4-4.4-2.8-4.9c-1.8-0.4-2.7,1.5-3.5,3
			c-0.9,1.8-1.9,3.5-2.6,5.4c-0.5,1.5-0.3,3.1,1.4,3.8c1.2,0.5,2.9,0.8,3.7-0.3C106.9,118.3,107.9,115.9,109.1,113.5z M58.8,151.4
			c-0.1-1.6-1.2-2.4-2.4-3c-1.2-0.6-2.6-0.6-3.6,0.6c-0.5,0.6-0.6,1.1-0.3,1.8c0.8,1.7,2,0.3,3,0.3
			C56.6,151.2,57.7,151.3,58.8,151.4z"/>
		<path class="st1" d="M143.9,84.1c0.2-3.3,2.4-3.9,5.1-4c1.1,0,2.5,0.2,2.9-1.3c0.4-1.4-0.3-2.6-1.2-3.6c-1.8-1.9-6.2-1.7-5.5-5.5
			c0.8-4.1,4.1-7.1,6.1-10.6c2-3.5,6.1-4.7,7.4-8.8c0.7-2.3,3.5-3.3,5.8-4.4c2.8-1.3,3.5-3.3,1.5-5.9c-1.1-1.4-2-2.8-1.1-4.9
			c0.7-1.6-0.3-2.5-1.9-3.3c-2.4-1.3-3.1-4-2.6-6.4c0.6-2.3,3.1-1.2,4.8-1.2c7.5-0.1,14.6,2.2,21.9,3.1c1.5,0.2,3.5,0.9,3.7,2.8
			c0.3,2.5-2.2,2.5-3.7,3.1c-1.4,0-2.8,0.1-4.2,0.1c-0.9,0.3-1.9,0.6-2.8,0.8c-3.7,0-5.2,0.8-3.6,5.2c1.1,3.1,4,3.5,5.5,5.7
			c0,3.6,0,7.2,0.1,10.8c-0.2,0.4-0.5,0.8-0.7,1.1c0.1,7.2-0.2,14.4-0.6,21.6c-0.3,5.5,0.6,10.8,0.2,16.2c-0.2,0.4-0.5,0.8-0.7,1.2
			c-0.2,0.2-0.3,0.5-0.3,0.9c-3.4,3.5-5.6,7.2-1.3,11.7c0.4,0.4,0.1,1.5,0.2,2.3l0.1-0.1c-0.6,0.2-1.2,0.3-1.8,0.5
			c-1.3,0.5-2.8,0.8-3.1,2.6c-1.7,1.5-3.7,2.7-4,5.2c-2.2,3.3-5.6,1.6-8.4,2c-0.5-0.4-0.9-0.8-1.4-1.2c0-4.9-3.1-7.4-7.2-8.7
			c-2.3-0.7-3.7-2.2-3.3-4.1c0.4-1.7,2.4-0.9,3.8-0.3c1.7,0.6,2.4,0,2.7-1.7c0.7-4.9-2.5-8-7.1-7c-1.2,0.3-1.1,0.5-1.3,1.7
			c-0.4,3.6-4.2,5.5-7.9,4.2c-4-1.4-1.9-4.2-1.3-6.5c0.5-1.7,1.8-3.2,1.7-5.1c4.2-0.9,5.4-3.4,3.9-7.3C144,84.7,144,84.4,143.9,84.1
			z M151.8,70.8c3.3,0.4,2.2,6.5,6.7,4.2c2-1.1,2.2-4.2,0.8-5.8C156.8,66.5,154.5,68.9,151.8,70.8z"/>
		<path class="st1" d="M185.9,65.3c0-0.5,0-1,0-1.5l0-0.4c0.4-0.9,1.1-1.1,2-1c0.3,1.3,1,2.1,2.2,2.7c-2.9,5.3-1.5,10.2,0.8,15.3
			c1.7,3.7,0.2,7.9,1.2,11.8c1.4,5.9,0.4,12,1.4,18.1c1.3,8.2,0.8,16.7,0.5,25.1c-0.1,3.7-4,5.4-6.9,5.3c-5.8-0.2-4.9,3.3-5,6.7
			c0,2.3,2,4.3,0.4,7.9c-3.4-6.5-6.4-12.4-9.5-18.3c0.1-0.9,0-1.6-0.8-2.2c-0.1-1.3-0.2-2.5-0.2-3.8c0-0.7,0-1.3,0-2
			c0.3-1.8,1.4-2.9,3.2-3.2c0.4-0.2,0.8-0.5,1.2-0.7c0.9-0.4,1.9-0.9,2.8-1.3c1.1-0.1,1.7-0.9,2.2-1.7c0.3,0,0.6-0.1,0.8-0.3
			c2.3-2,6.6-3.5,1.3-6.9c-0.5-1.3-1-2.6-1.5-3.9c0.1-4,4.2-5.1,6.1-7.9c1.3-2.1,2.1-3.4,0.9-5.6c-0.9-1.6-1.8-3.1-2.7-4.7
			c-0.1-1-0.2-1.9-0.3-2.9c0.1-0.3,0.1-0.7,0-1c0.3-5.7,0.7-11.3,1-17c0.2-1.6,0.6-3.3-0.9-4.5c0-0.3-0.1-0.7-0.1-1
			c0,0-0.1-0.1-0.1-0.1c0.2-0.2,0.3-0.4,0.1-0.6C186.1,65.7,186.1,65.5,185.9,65.3z"/>
		<path class="st1" d="M135,177.1c-0.5,5.5-4,2.9-6.1,1.9c-2.7-1.3-3.6,0.7-4.9,1.9c-1.5,1.3-0.6,2.6,0.4,3.9
			c3.3,4.4,2.4,7.1-2.9,9.3c-5.3,2.1-10.7-0.1-16,0.6c-3,0.4-5.1-0.3-7.2-2.4c-1.7-1.7-5-2-0.7-4.9c1.9-1.3-0.2-4-1.8-4.8
			c-4.3-2.1,0.2-6.7-2.9-9c1.5-0.8,2.8-1.9,4.5,0.2c6.8,8.4,13,8.6,20.7,0.8c4-4,7.9-8.1,11.8-12.1c1.3-1.3,2.4-3,4.5-1.6
			c1.8,1.3,3.3,2.8,2.5,5.4c-0.7,2.2-2,4.2-1.7,6.7C134.5,174.4,133.4,175.7,135,177.1z"/>
		<path class="st1" d="M24.3,27.1c0.7,0,1.3-0.1,2,0c2.1,0.3,5-1.1,6,0.9c1.1,2.3-1.6,4.1-3.1,5.7c-6.9,7.8-12.5,16.5-18.1,25.2
			c-1.2,1.8-1.8,5.2-4.4,4.6c-2.8-0.7-1.9-4.2-1.4-6.2c1.3-6.5,1-13,1-19.6c-0.1-5.7,5.3-10.1,12.1-10.6
			C20.3,27,22.3,27.1,24.3,27.1C24.3,27.1,24.3,27.1,24.3,27.1z"/>
		<path class="st1" d="M140.3,141.2c0.3,0,0.6-0.1,0.8-0.3c0.4-0.2,0.8-0.5,1.2-0.7c0.3,0.1,0.6,0,0.8-0.1c2.3,1.6,4.7,3.2,7,4.8
			c3.3,2.1,4.8,6,7.9,8.3c0.6,1.3,1.6,2,3,2.1l-0.1,0c0.4,0.9,1.3,1,2.1,1.1l-0.1-0.1c2.4,3.3,4.7,6.6,7.1,9.9l0,0
			c0.6,1.4,1.8,2.3,3,3.1c0.5,0.6,1,1.3,1.5,1.9c0.8,1,2.2,2,0.9,3.4c-1.3,1.3-2.3-0.1-3.4-0.8c-9.6-6.1-18.6-13.1-26.6-21.1
			c-2.6-2.6-6.3-5-6.6-9.4C139.4,142.5,139.8,141.8,140.3,141.2z"/>
		<path class="st1" d="M67.6,7.4c3.5-2.2,5.9-3,8.6-1.8c1.7,0.8,3.2,0.3,4.8-0.4c5.7-2.6,11.4-0.1,17.1,0.1c0.6,0,1.4,0.5,1.6,1
			c2.4,5.2,6.8,4.1,11.1,3.8c4.8-0.3,9.5,1.5,14.3,1c1.1-0.1,2.6,0.3,2.6,1.7c0,1.9-1.7,1.3-2.6,1.2c-9.1-1.3-18.4,0.2-27.5-1.1
			c-2.3-0.3-5.1-0.2-6.7-2.7c-0.9-1.4-2.4-1.4-3.6-1.1c-4.8,1.3-9.5-2.3-14.4-0.3C72,9.4,70.1,8.2,67.6,7.4z"/>
		<path class="st1" d="M19.7,19.8c4.1-3.3,8.1-5.5,14.1-3.9c6.7,1.8,13.6-1.1,20.4-1.4c0.8,0,1.6-0.4,2.4-0.4c1.5,0,3.5-0.4,3.9,1.3
			c0.3,1.3-1.3,2.3-2.5,2.7c-6.5,2.2-12.9,4.6-20,4.1c-4.8-0.4-9.5-1.6-14.3-1.1C22.2,21.2,20.6,21.4,19.7,19.8z"/>
		<path class="st2" d="M91.3,87c3.8,3.4,7.6,6.7,11.3,10.2c1.9,1.8,3.4,4.2,2.1,6.7c-1.3,2.5-3.7,0.8-5.7,0.4
			c-7.6-1.2-8.3-1.8-9.8-9.8c-0.5-2.7-2.5-2.1-4.1-2.5C87.2,90.3,89.2,88.7,91.3,87z"/>
		<path class="st1" d="M153.1,140.2c-0.3,0-0.7,0-1,0c-1-1-2.1-2.1-3.1-3.1c0-1.8-1.6-4.3,2.1-4.1c1.2,1,2.5,1.3,4,0.9c2,0,4,0,6,0
			c0.7,0,1.3,0,2,0c2.8,1,5.6,6.5,4.9,9.8c-0.6,2.8-2.7,2.4-4.7,2.3c-1.4-1.9-3.2-3.1-5.3-3.9c-0.4-0.8-1.2-1-2-1.1
			C155.3,139.9,154.2,140,153.1,140.2z"/>
		<path class="st2" d="M77.2,107.9c3-0.5,1.3-2.3,1.1-3.7c-0.2-1.4-0.9-3.3,1-3.9c2.7-0.8,1.2,2.1,2.1,2.8c6.4,5,6.2,13,9.8,19.5
			c-4.1,1.2-7.6,0.1-11-0.7c0.8-2.8,0.3-5.7,1.5-8.6C83.1,109.8,78.4,110,77.2,107.9z"/>
		<path class="st2" d="M186.2,92.9c0.9,1.6,1.8,3.1,2.7,4.7c1.2,2.1,0.5,3.5-0.9,5.6c-1.8,2.9-6,3.9-6.1,7.9c-1-0.1-2.1-0.1-3.1-0.2
			c0-0.8,0.2-1.9-0.2-2.3c-4.3-4.5-2.1-8.1,1.3-11.7C185.6,101,184.8,95.3,186.2,92.9z"/>
		<path class="st1" d="M141.4,174.2c4.9,1.3,6.4,5.3,3.5,9.7c-1.6,2.4-1.6,2.4,0.9,3.4c1.5,0.6,2.5,1.9,1.9,3.5
			c-0.7,1.8-1.6,4.2-3.9,3.8c-1.5-0.3-3.8-1.9-3.2-3.8c1.5-4.4-0.3-8.5-0.6-12.7C140.8,176.9,141.3,175.7,141.4,174.2z"/>
		<path class="st2" d="M128.1,111.1c-0.1-1.2,1.9-3.3-1.5-3.1c-1.3,0.1-2.1-0.9-2.4-2.1c-0.3-1.6,0.8-2.8,2-3.1
			c6.2-1.8,5.4-6.1,4.1-10.7c1.4-0.2,2.9-0.4,5.1-0.6c-2.6,4-2.4,7.5-1.6,11.5C134.5,106.8,131.1,109.2,128.1,111.1z"/>
		<path class="st2" d="M143.9,84.1c0.1,0.3,0,0.7,0.2,0.9c1.5,3.9,0.3,6.4-3.9,7.3c-0.3-2.7-5.6-1-4.4-4.9
			C137.1,83.2,141.3,85.5,143.9,84.1z"/>
		<path class="st2" d="M149,137.1c1,1,2.1,2.1,3.1,3.1c-0.7,1.6-1.3,3.1-2,4.7c-2.3-1.6-4.7-3.2-7-4.8
			C144.2,137.4,146.6,137.2,149,137.1z"/>
		<path class="st2" d="M182,45.1c-1.4-2.2-4.4-2.6-5.5-5.7c-1.6-4.4-0.1-5.2,3.6-5.2c-0.8,2.4-0.5,4.5,1.2,6.5
			C182.4,42,183.2,43.4,182,45.1z"/>
		<path class="st1" d="M106.2,156.9c0.2-1.4,1-2.7,1.7-2.3c2,1.2,3.9,2.9,4.2,5.6c0.1,0.9-0.5,2-1.3,1.7
			C108.3,161,107.2,158.8,106.2,156.9z"/>
		<path class="st2" d="M170.1,166.1c-2.4-3.3-4.7-6.6-7.1-9.9C167.8,156.6,170.2,159.9,170.1,166.1z"/>
		<path class="st2" d="M141.4,174.2c0,1.5-0.5,2.7-1.4,3.9c-1.7-0.3-3.3-0.6-5-1c-1.6-1.4-0.5-2.7,0.2-4
			C137.2,173.5,139.3,173.8,141.4,174.2z"/>
		<path class="st2" d="M183.4,115c5.3,3.4,0.9,5-1.3,6.9C183.4,119.7,180.7,116.8,183.4,115z"/>
		<path class="st2" d="M158.1,142.1c2.1,0.9,3.9,2.1,5.3,3.9C160.5,146.2,158.1,145.8,158.1,142.1z"/>
		<path class="st2" d="M170,119.1c0.3-2.5,2.3-3.7,4-5.2C173.9,116.6,173.2,118.8,170,119.1z"/>
		<path class="st2" d="M182.9,33.4c1.4,0,2.8-0.1,4.2-0.1C185.8,37.1,184.4,35.5,182.9,33.4z"/>
		<path class="st2" d="M155.1,133.9c-1.5,0.4-2.8,0.1-4-0.9C153,131,154.1,132.4,155.1,133.9z"/>
		<path class="st2" d="M132.9,84c0.3-1.5,0.9-2.9,2.2-3.9C136.1,82.3,134.8,83.4,132.9,84z"/>
		<path class="st2" d="M186,67.6c1.6,1.3,1.2,2.9,0.9,4.5C185.1,70.9,185.3,69.3,186,67.6z"/>
		<path class="st2" d="M75.2,98.1c-0.1,1.3-0.2,2.6-0.3,4C72.8,100.6,73,99.3,75.2,98.1z"/>
		<path class="st2" d="M190.1,65.2c-1.1-0.6-1.9-1.5-2.2-2.7C190.8,61.7,189.7,64,190.1,65.2z"/>
		<path class="st2" d="M173.1,169.2c-1.3-0.8-2.4-1.7-3-3.1C171.7,166.5,172.7,167.5,173.1,169.2z"/>
		<path class="st2" d="M161,155.2c-1.4-0.1-2.4-0.8-3-2.1C159.4,153.2,160.5,153.8,161,155.2z"/>
		<path class="st2" d="M140.3,141.2c-0.4,0.6-0.9,1.3-1.3,1.9C136.9,140.8,139.4,141.6,140.3,141.2z"/>
		<path class="st2" d="M153.1,140.2c1.1-0.2,2.2-0.4,3,0.7C154.9,141.9,153.9,141.3,153.1,140.2z"/>
		<path class="st2" d="M177.1,111.3c0.6-0.2,1.2-0.3,1.8-0.5C178.6,112.1,178.1,112.7,177.1,111.3z"/>
		<path class="st2" d="M163.1,133.9c-0.7,0-1.3,0-2,0C161.8,132.7,162.4,132.7,163.1,133.9z"/>
		<path class="st2" d="M171.9,129.1c0,0.7,0,1.3,0,2C170.7,130.4,170.7,129.8,171.9,129.1z"/>
		<path class="st2" d="M75.2,105c0.4,0.7,0.7,1.3,1.1,2C75.3,106.7,74.6,106.3,75.2,105z"/>
		<path class="st2" d="M172.2,134.9c0.7,0.6,0.9,1.3,0.8,2.2C171.9,136.7,171.8,135.9,172.2,134.9z"/>
		<path class="st2" d="M160.2,119.9c0.5,0.4,0.9,0.8,1.4,1.2C160.1,121.9,160.3,120.7,160.2,119.9z"/>
		<path class="st2" d="M181.3,122.2c-0.5,0.8-1.2,1.5-2.2,1.7C179.6,122.9,180.3,122.4,181.3,122.2z"/>
		<path class="st2" d="M72.1,121.9c-0.3,0-0.7,0-1,0C71.4,121.2,71.7,121.1,72.1,121.9z"/>
		<path class="st2" d="M129.1,90.1c-0.9-0.4-0.9-1.2-0.8-2C128.6,88.8,128.8,89.5,129.1,90.1z"/>
		<path class="st2" d="M163.1,156.3c-0.8-0.1-1.7-0.3-2.1-1.1C161.7,155.5,162.4,155.9,163.1,156.3z"/>
		<path class="st2" d="M181.3,57.1c0.2-0.4,0.5-0.8,0.7-1.1C181.8,56.3,181.6,56.7,181.3,57.1z"/>
		<path class="st2" d="M185.9,89.1c0.1,0.3,0.1,0.7,0,1C185.9,89.8,185.9,89.4,185.9,89.1z"/>
		<path class="st2" d="M180.3,96.1c0.2-0.4,0.5-0.8,0.7-1.2C180.8,95.3,180.5,95.7,180.3,96.1z"/>
		<path class="st2" d="M176.3,125.2c-0.4,0.2-0.8,0.5-1.2,0.7C175.5,125.6,175.9,125.4,176.3,125.2z"/>
		<polygon class="st2" points="185.9,63.5 185.9,63.9 185.7,63.7 		"/>
		<path class="st2" d="M142.3,140.2c-0.4,0.2-0.8,0.5-1.2,0.7C141.5,140.7,141.9,140.4,142.3,140.2z"/>
		<path class="st2" d="M185.9,65.3c0.2,0.2,0.2,0.3,0,0.5l-0.3-0.2L185.9,65.3z"/>
		<path class="st2" d="M185.8,66.5c0,0,0.1,0.1,0.1,0.1s-0.2,0.3-0.2,0.3L185.8,66.5z"/>
		<path class="st2" d="M109.1,113.5c-1.2,2.4-2.2,4.9-3.7,7c-0.8,1.1-2.5,0.8-3.7,0.3c-1.7-0.7-2-2.3-1.4-3.8
			c0.7-1.9,1.7-3.6,2.6-5.4c0.8-1.5,1.6-3.4,3.5-3C108.7,109,108,111.9,109.1,113.5z"/>
		<path class="st2" d="M58.8,151.4c-1.1-0.1-2.2-0.2-3.3-0.2c-1,0-2.1,1.4-3-0.3c-0.3-0.7-0.2-1.2,0.3-1.8c1-1.2,2.4-1.2,3.6-0.6
			C57.6,149,58.7,149.8,58.8,151.4z"/>
		<path class="st2" d="M151.8,70.8c2.7-1.9,5-4.2,7.4-1.6c1.4,1.6,1.3,4.8-0.8,5.8C154,77.3,155.1,71.2,151.8,70.8z"/>
	</g>
	<g>
		<path class="st2" d="M420.4,4.1c0-3.4-0.7-4.1-4.1-4.1c-65.3,0.1-130.7,0.1-196,0.1c0,65.3,0,130.7-0.1,196c0,3.4,0.7,4.1,4.1,4.1
			c64-0.1,128-0.1,192,0c3.4,0,4.1-0.7,4.1-4.1C420.3,132.1,420.3,68.1,420.4,4.1z M369.3,80.1c1.1,0,2.5,0.2,2.9-1.3
			c0.4-1.4-0.3-2.6-1.2-3.6c-1.8-1.9-6.2-1.7-5.5-5.5c0.8-4.1,4.1-7.1,6.1-10.6c2-3.5,6.1-4.7,7.4-8.8c0.7-2.3,3.5-3.3,5.8-4.4
			c2.8-1.3,3.5-3.3,1.5-5.9c-1.1-1.4-2-2.8-1.1-4.9c0.7-1.6-0.3-2.5-1.9-3.3c-2.4-1.3-3.1-4-2.6-6.4c0.6-2.3,3.1-1.2,4.8-1.2
			c7.5-0.1,14.6,2.2,21.9,3.1c1.5,0.2,3.5,0.9,3.7,2.8c0.3,2.5-2.2,2.5-3.7,3.1c-1.4,0-2.8,0.1-4.2,0.1c-0.9,0.3-1.9,0.6-2.8,0.8
			c-0.2,0.6-0.3,1.2-0.4,1.7c0.1-0.6,0.2-1.1,0.4-1.7c-3.7,0-5.2,0.8-3.6,5.2c1.1,3.1,4,3.5,5.5,5.7c0,3.6,0,7.2,0.1,10.8
			c-0.2,0.4-0.5,0.8-0.7,1.1c0.1,7.2-0.2,14.4-0.6,21.6c-0.3,5.5,0.6,10.8,0.2,16.2c-0.2,0.4-0.5,0.8-0.7,1.2
			c-0.2,0.2-0.3,0.5-0.3,0.9c0.7,0.5,1.3,0.9,1.8,1.1c0.4,0.2,0.7,0.3,1,0.3c-0.3,0-0.6-0.1-1-0.3c-0.5-0.2-1.1-0.6-1.8-1.1
			c-3.4,3.5-5.6,7.2-1.3,11.7c0.4,0.4,0.2,1.5,0.2,2.3c-0.6,0.2-1.2,0.3-1.8,0.5c-1.3,0.5-2.8,0.8-3.1,2.6c-1.7,1.5-3.7,2.7-4,5.2
			c-2.2,3.3-5.6,1.6-8.4,2c-0.4,0.2-0.6,0.3-0.8,0.2c0.2,0,0.4-0.1,0.8-0.2c-0.5-0.4-0.9-0.8-1.4-1.2c0-4.9-3.1-7.4-7.2-8.7
			c-2.3-0.7-3.7-2.2-3.3-4.1c0.4-1.7,2.4-0.9,3.8-0.3c1.7,0.6,2.4,0,2.7-1.7c0.7-4.9-2.5-8-7.1-7c-1.2,0.3-1.1,0.5-1.3,1.7
			c-0.4,3.6-4.2,5.5-7.9,4.2c-4-1.4-1.9-4.2-1.3-6.5c0.5-1.7,1.8-3.2,1.7-5.1c4.2-0.9,5.4-3.4,3.9-7.3c-0.1-0.3-0.1-0.6-0.2-0.9
			C364.3,80.8,366.6,80.2,369.3,80.1z M373.3,140.2c-0.3,0-0.7,0-1,0c-0.3,0.6-0.5,1.3-0.8,1.9c0.3-0.6,0.5-1.3,0.8-1.9
			c-1-1-2.1-2.1-3.1-3.1c0-1.8-1.6-4.3,2.1-4.1c1.2,1,2.5,1.3,4,0.9c2,0,4,0,6,0c0.1-0.2,0.2-0.3,0.3-0.4c0.3-0.3,0.5-0.5,0.8-0.5
			c-0.3,0-0.5,0.2-0.8,0.5c-0.1,0.1-0.2,0.3-0.3,0.4c0.7,0,1.3,0,2,0c2.8,1,5.6,6.5,4.9,9.8c-0.6,2.8-2.7,2.4-4.7,2.3h0
			c-1.4-1.9-3.2-3.1-5.3-3.9c-0.4-0.8-1.2-1-2-1.1C375.5,139.9,374.4,140,373.3,140.2z M380.4,120.5c0,0.2,0.1,0.4,0.1,0.5
			C380.5,120.9,380.5,120.7,380.4,120.5z M388.5,159c-0.1-0.2-0.3-0.4-0.5-0.6C388.2,158.6,388.4,158.8,388.5,159z M296.4,5.7
			c1.7,0.8,3.2,0.3,4.8-0.4c5.7-2.6,11.4-0.1,17.1,0.1c0.6,0,1.4,0.5,1.6,1c2.4,5.2,6.8,4.1,11.1,3.8c4.8-0.3,9.5,1.5,14.3,1
			c1.1-0.1,2.6,0.3,2.6,1.7c0,1.9-1.7,1.3-2.6,1.2c-9.1-1.3-18.4,0.2-27.5-1.1c-2.3-0.3-5.1-0.2-6.7-2.7c-0.9-1.4-2.4-1.4-3.6-1.1
			c-4.8,1.3-9.5-2.3-14.4-0.3c-1.2,0.5-3-0.8-5.5-1.5C291.3,5.3,293.7,4.4,296.4,5.7z M253.9,15.9c6.7,1.8,13.6-1.1,20.4-1.4
			c0.8,0,1.6-0.4,2.4-0.4c1.5,0,3.5-0.4,3.9,1.3c0.3,1.3-1.3,2.3-2.5,2.7c-6.5,2.2-12.9,4.6-20,4.1c-4.8-0.4-9.5-1.6-14.3-1.1
			c-1.4,0.1-3.1,0.4-4-1.2C244,16.5,248,14.3,253.9,15.9z M225.4,57.3c1.3-6.5,1-13,1-19.6c-0.1-5.7,5.3-10.1,12.1-10.6
			c2-0.2,4,0,6,0c0,0,0,0,0,0c0.7,0,1.3-0.1,2,0c2.1,0.3,5-1.1,6,0.9c1.1,2.3-1.6,4.1-3.1,5.7c-6.9,7.8-12.5,16.5-18.1,25.2
			c-1.2,1.8-1.8,5.2-4.4,4.6C224.1,62.8,225,59.3,225.4,57.3z M294.4,156.2c1.5,2.2,4.4,3.4,4.2,6.9c-0.1,1.3,1.9,1.2,2.9,1
			c1.9-0.2,3.6-0.8,3.7-3.2c0-1.4,0.2-3.2,1.7-3.1c2.2,0.2,1.1,2.4,1.3,3.7c0.6,4.2-0.9,6.2-5.5,5.8c-3.9-0.3-7.6,3.7-7.4,7.7
			c0.2,3.4,2.4,3.8,4.9,2.6c2.8-1.4,5.1-1.3,8.2,1.5c-7.3-0.4-13.3,3.1-19.7,1c-2.9-8.2-1.8-18-8.1-25.8c-2.3,2.6-2.8,5.1-1.7,8.4
			c3.1,8.9,3.6,18.1,3.2,27.4c-0.1,3.3-3.8,5.4-7.4,4.7c-3.2-0.6-6.2-2.6-9.6-0.9c-0.3,0.2-1.3-0.1-1.3-0.3
			c-1.5-6.4-8.7-6.2-12.1-10.7c-3.7-5-10-8-15.6-10.4c-7.9-3.3-9.3-9.6-9.8-16.3c-1.6-21.4-1.1-42.9-1.1-64.4c0-1.6-1-4,1.7-4.5
			c2.7-0.5,4.5,0.8,5.2,3.5c0.6,2.2,1.4,3.8,4.1,2.6c0.4-0.2,1.1-0.3,1.5,0c9.1,5.5,18-0.4,26.9-0.6c6-0.2,11.9-0.1,17.9-0.4
			c1.9-0.1,2.4,1,2.7,2.8c0.9,6.9,2.3,13.7,2,20.7c-0.1,2.9,0.1,5.8,3.9,6.3c0.1-0.3,0.2-0.5,0.4-0.5c-0.1,0.1-0.2,0.3-0.4,0.5
			c0.3,0,0.7,0,1,0c2.7,0,5.3,0,8,0c3.5,0.8,6.9,1.9,11,0.7c-3.6-6.6-3.4-14.6-9.8-19.5c-0.8-0.7,0.6-3.6-2.1-2.8
			c-1.9,0.6-1.1,2.5-1,3.9c0.2,1.5,1.9,3.2-1.1,3.7c-0.3-0.3-0.5-0.6-0.8-0.9c-0.4-0.7-0.7-1.3-1.1-2c-0.1-1-0.2-2-0.3-2.9
			c-0.5-0.4-0.9-0.7-1.2-1.1c0.2,0.4,0.6,0.7,1.2,1.1c0.1-1.3,0.2-2.6,0.3-4c2-4.1,5.3-6.2,9.9-6.2c1.7,0.4,3.6-0.2,4.1,2.5
			c1.5,8,2.3,8.6,9.8,9.8c2,0.3,4.4,2.1,5.7-0.4c1.3-2.5-0.3-4.9-2.1-6.7c-3.7-3.5-7.5-6.8-11.3-10.2c0.1-0.5,0.2-1.4,0.2-1.4
			c5.4,0.6,8.2-4.6,12.9-5.6c4.8-1,9.4-2.8,14-4.6c4.7-1.8,10.3-0.6,14.3-4.6c0.5-0.5,1.5-0.4,1.4,0.4c-0.6,3.1,3.6,5.6,1,8.8
			c-1.2,1-1.9,2.4-2.2,3.9c-1.2,1.8-5.6-0.1-4.6,4.1c-0.2,0.8-0.1,1.6,0.8,2c0.4,0.7,0.8,1.3,1.2,2c0.5-0.1,1.1-0.1,1.6-0.2
			c0.4,0,0.8-0.1,1.2-0.2c-0.4,0.1-0.8,0.1-1.2,0.2c-0.6,0.1-1.1,0.1-1.6,0.2c1.3,4.6,2.1,8.9-4.1,10.7c-1.2,0.3-2.2,1.6-2,3.1
			c0.2,1.3,1.1,2.2,2.4,2.1c3.3-0.2,1.3,1.9,1.5,3.1c-0.9,10.2-8.9,17.3-12.1,26.5c-1,3-2.7,5.7-3.7,8.6c-0.7,1.9-2,3-3.2,4.3
			c-1.7,1.8-3.2,0.7-2.8-0.9c1.1-4.5-2.9-8.6-0.7-13.2c0.4-0.9-1.1-3.1-3-3.5c-2.8-0.7-5.8,0.3-6.8,2.5c-1.6,3.4-3,2.7-5.2,1
			c-1.9-1.5-3.8-1.4-6-0.2c-5,2.8-10.5,4.7-12.1,11.5C292,151.1,292.8,153.7,294.4,156.2z M332.2,160.1c0.1,0.9-0.5,2-1.3,1.7
			c-2.4-0.9-3.5-3.1-4.6-5c0.2-1.4,1-2.7,1.7-2.3C330.1,155.8,332,157.5,332.2,160.1z M349,179.1c-2.7-1.3-3.6,0.7-4.9,1.9
			c-1.5,1.3-0.6,2.6,0.4,3.9c3.3,4.4,2.4,7.1-2.9,9.3c-5.3,2.1-10.7-0.1-16,0.6c-3,0.4-5.1-0.3-7.2-2.4c-1.7-1.7-5-2-0.7-4.9
			c1.9-1.3-0.2-4-1.8-4.8c-4.3-2.1,0.2-6.7-2.9-9c1.5-0.8,2.8-1.9,4.5,0.2c6.8,8.4,13,8.6,20.7,0.8c4-4,7.9-8.1,11.8-12.1
			c1.3-1.3,2.4-3,4.5-1.6c1.8,1.3,3.3,2.8,2.5,5.4c-0.7,2.2-2,4.2-1.7,6.7c-0.7,1.3-1.8,2.6-0.2,4
			C354.7,182.6,351.2,180.1,349,179.1z M367.8,190.8c-0.7,1.8-1.6,4.2-3.9,3.8c-1.5-0.3-3.8-1.9-3.2-3.8c1.5-4.4-0.3-8.5-0.6-12.7
			c0.9-1.2,1.3-2.4,1.4-3.9c4.9,1.3,6.4,5.3,3.5,9.7c-1.6,2.4-1.6,2.4,0.9,3.4C367.4,187.9,368.4,189.2,367.8,190.8z M395.7,174.5
			c-1.3,1.3-2.3-0.1-3.4-0.8c-9.6-6.1-18.6-13.1-26.6-21.1c-2.6-2.6-6.3-5-6.6-9.4c0.4-0.6,0.9-1.3,1.3-1.9c0.3,0,0.6-0.1,0.8-0.3
			c0.4-0.2,0.8-0.5,1.2-0.7c0.3,0.1,0.6,0,0.8-0.1c2.3,1.6,4.7,3.2,7,4.8l0,0c3.3,2.1,4.8,6,7.9,8.3c0.4,0,0.7,0.1,1,0.2
			c-0.3-0.1-0.6-0.1-1-0.2c0.6,1.2,1.6,2,3,2.1c0.4,0.8,1.2,0.9,2,1.1c2.4,3.3,4.7,6.6,7.1,9.9c0.6,1.4,1.8,2.3,3,3.1
			c0.5,0.6,1,1.3,1.5,1.9C395.6,172.1,397,173.2,395.7,174.5z M414.1,135.5c-0.1,3.7-4,5.4-6.9,5.3c-5.8-0.2-4.9,3.3-5,6.7
			c0,2.3,2,4.3,0.4,7.9c-3.4-6.5-6.4-12.4-9.5-18.3c0.1-0.9,0-1.6-0.8-2.2c-0.1-1.3-0.2-2.5-0.2-3.8c0-0.7,0-1.3,0-2
			c0.3-1.8,1.4-2.9,3.2-3.2c0.4-0.2,0.8-0.5,1.2-0.7c0.9-0.4,1.9-0.9,2.8-1.3c1.1-0.1,1.7-0.9,2.2-1.7c0.3,0,0.6-0.1,0.8-0.3
			c2.3-2,6.6-3.5,1.3-6.9c-0.5-1.3-1-2.6-1.5-3.9c0.1-4,4.2-5.1,6.1-7.9c1.3-2.1,2.1-3.4,0.9-5.6c-0.9-1.6-1.8-3.1-2.7-4.7
			c-0.1-1-0.2-1.9-0.3-2.9c0.1-0.3,0.1-0.7,0-1c0.3-5.7,0.7-11.3,1-17c0.2-1.6,0.6-3.3-0.9-4.5c0-0.3-0.1-0.7-0.1-1l0,0l0,0l0,0l0,0
			c0,0-0.1-0.1-0.1-0.1c0.2-0.2,0.3-0.4,0.1-0.6l0,0c0,0,0,0,0,0c0.1-0.2,0.1-0.3,0-0.5c0-0.5,0-1,0-1.5l0-0.4c0.4-0.9,1.1-1.1,2-1
			c0.3,1.3,1,2.1,2.2,2.7c-2.9,5.3-1.5,10.2,0.8,15.3c1.7,3.7,0.2,7.9,1.2,11.8c1.4,5.9,0.4,12,1.4,18.1
			C414.9,118.6,414.4,127.2,414.1,135.5z M405.9,65.6c0,0,0.1,0.1,0.2,0.2L405.9,65.6z"/>
		<path class="st2" d="M321.9,120.8c1.2,0.5,2.9,0.8,3.7-0.3c1.5-2.1,2.5-4.6,3.7-7c-1.1-1.6-0.4-4.4-2.8-4.9
			c-1.8-0.4-2.7,1.5-3.5,3c-0.9,1.8-1.9,3.5-2.6,5.4C320,118.4,320.2,120,321.9,120.8z"/>
		<path class="st2" d="M276.7,148.4c-1.2-0.6-2.6-0.6-3.6,0.6c-0.5,0.6-0.6,1.1-0.3,1.8c0.8,1.7,2,0.3,3,0.3c1.1,0,2.1,0.2,3.3,0.2
			C278.9,149.8,277.8,149,276.7,148.4z"/>
		<path class="st2" d="M378.6,75c2-1.1,2.2-4.2,0.8-5.8c-2.4-2.7-4.7-0.3-7.4,1.6C375.3,71.2,374.2,77.3,378.6,75z"/>
	</g>
	<g>
		<path class="st1" d="M512.5,121.9c2.7,0,5.3,0,8,0c3.5,0.8,6.9,1.9,11,0.7c-3.6-6.6-3.4-14.6-9.8-19.5c-0.8-0.7,0.6-3.6-2.1-2.8
			c-1.9,0.6-1.1,2.5-1,3.9c0.2,1.5,1.9,3.2-1.1,3.7c-0.3-0.3-0.5-0.6-0.8-0.9c-0.4-0.7-0.7-1.3-1.1-2c-0.1-1-0.2-2-0.3-2.9
			c0.1-1.3,0.2-2.6,0.3-4c2-4.1,5.3-6.2,9.9-6.2c1.7,0.4,3.6-0.2,4.1,2.5c1.5,8,2.3,8.6,9.8,9.8c2,0.3,4.4,2.1,5.7-0.4
			c1.3-2.5-0.3-4.9-2.1-6.7c-3.7-3.5-7.5-6.8-11.3-10.2c0.1-0.5,0.2-1.4,0.2-1.4c5.4,0.6,8.2-4.6,12.9-5.6c4.8-1,9.4-2.8,14-4.6
			c4.7-1.8,10.3-0.6,14.3-4.6c0.5-0.5,1.5-0.4,1.4,0.4c-0.6,3.1,3.6,5.6,1,8.8c-1.2,1-1.9,2.4-2.2,3.9c-1.2,1.8-5.6-0.1-4.6,4.1
			c-0.2,0.8-0.1,1.6,0.8,2c0.4,0.7,0.8,1.3,1.2,2c1.3,4.6,2.1,8.9-4.1,10.7c-1.2,0.3-2.2,1.6-2,3.1c0.2,1.3,1.1,2.2,2.4,2.1
			c3.3-0.2,1.3,1.9,1.5,3.1c-0.9,10.2-8.9,17.3-12.1,26.5c-1,3-2.7,5.7-3.7,8.6c-0.7,1.9-2,3-3.2,4.3c-1.7,1.8-3.2,0.7-2.8-0.9
			c1.1-4.5-2.9-8.6-0.7-13.2c0.4-0.9-1.1-3.1-3-3.5c-2.8-0.7-5.8,0.3-6.8,2.5c-1.6,3.4-3,2.7-5.2,1c-1.9-1.5-3.8-1.4-6-0.2
			c-5,2.8-10.5,4.7-12.1,11.5c-0.8,3.4,0,5.9,1.6,8.4c1.5,2.2,4.4,3.4,4.2,6.9c-0.1,1.3,1.9,1.2,2.9,1c1.9-0.2,3.6-0.8,3.7-3.2
			c0-1.4,0.2-3.2,1.7-3.1c2.2,0.2,1.1,2.4,1.3,3.7c0.6,4.2-0.9,6.2-5.5,5.8c-3.9-0.3-7.6,3.7-7.4,7.7c0.2,3.4,2.4,3.8,4.9,2.6
			c2.8-1.4,5.1-1.3,8.2,1.5c-7.3-0.4-13.3,3.1-19.7,1c-2.9-8.2-1.8-18-8.1-25.8c-2.3,2.6-2.8,5.1-1.7,8.4c3.1,8.9,3.6,18.1,3.2,27.4
			c-0.1,3.3-3.8,5.4-7.4,4.7c-3.2-0.6-6.2-2.6-9.6-0.9c-0.3,0.2-1.3-0.1-1.3-0.3c-1.5-6.4-8.7-6.2-12.1-10.7c-3.7-5-10-8-15.6-10.4
			c-7.9-3.3-9.3-9.6-9.8-16.3c-1.6-21.4-1.1-42.9-1.1-64.4c0-1.6-1-4,1.7-4.5c2.7-0.5,4.5,0.8,5.2,3.5c0.6,2.2,1.4,3.8,4.1,2.6
			c0.4-0.2,1.1-0.3,1.5,0c9.1,5.5,18-0.4,26.9-0.6c6-0.2,11.9-0.1,17.9-0.4c1.9-0.1,2.4,1,2.7,2.8c0.9,6.9,2.3,13.7,2,20.7
			c-0.1,2.9,0.1,5.8,3.9,6.3C511.8,121.9,512.2,121.9,512.5,121.9z M549.5,113.5c-1.1-1.6-0.4-4.4-2.8-4.9c-1.8-0.4-2.7,1.5-3.5,3
			c-0.9,1.8-1.9,3.5-2.6,5.4c-0.5,1.5-0.3,3.1,1.4,3.8c1.2,0.5,2.9,0.8,3.7-0.3C547.3,118.3,548.3,115.9,549.5,113.5z M499.2,151.4
			c-0.1-1.6-1.2-2.4-2.4-3c-1.2-0.6-2.6-0.6-3.6,0.6c-0.5,0.6-0.6,1.1-0.3,1.8c0.8,1.7,2,0.3,3,0.3
			C497,151.2,498.1,151.3,499.2,151.4z"/>
		<path class="st1" d="M584.3,84.1c0.2-3.3,2.4-3.9,5.1-4c1.1,0,2.5,0.2,2.9-1.3c0.4-1.4-0.3-2.6-1.2-3.6c-1.8-1.9-6.2-1.7-5.5-5.5
			c0.8-4.1,4.1-7.1,6.1-10.6c2-3.5,6.1-4.7,7.4-8.8c0.7-2.3,3.5-3.3,5.8-4.4c2.8-1.3,3.5-3.3,1.5-5.9c-1.1-1.4-2-2.8-1.1-4.9
			c0.7-1.6-0.3-2.5-1.9-3.3c-2.4-1.3-3.1-4-2.6-6.4c0.6-2.3,3.1-1.2,4.8-1.2c7.5-0.1,14.6,2.2,21.9,3.1c1.5,0.2,3.5,0.9,3.7,2.8
			c0.3,2.5-2.2,2.5-3.7,3.1c-1.4,0-2.8,0.1-4.2,0.1c-0.9,0.3-1.9,0.6-2.8,0.8c-3.7,0-5.2,0.8-3.6,5.2c1.1,3.1,4,3.5,5.5,5.7
			c0,3.6,0,7.2,0.1,10.8c-0.2,0.4-0.5,0.8-0.7,1.1c0.1,7.2-0.2,14.4-0.6,21.6c-0.3,5.5,0.6,10.8,0.2,16.2c-0.2,0.4-0.5,0.8-0.7,1.2
			c-0.2,0.2-0.3,0.5-0.3,0.9c-3.4,3.5-5.6,7.2-1.3,11.7c0.4,0.4,0.1,1.5,0.2,2.3l0.1-0.1c-0.6,0.2-1.2,0.3-1.8,0.5
			c-1.3,0.5-2.8,0.8-3.1,2.6c-1.7,1.5-3.7,2.7-4,5.2c-2.2,3.3-5.6,1.6-8.4,2c-0.5-0.4-0.9-0.8-1.4-1.2c0-4.9-3.1-7.4-7.2-8.7
			c-2.3-0.7-3.7-2.2-3.3-4.1c0.4-1.7,2.4-0.9,3.8-0.3c1.7,0.6,2.4,0,2.7-1.7c0.7-4.9-2.5-8-7.1-7c-1.2,0.3-1.1,0.5-1.3,1.7
			c-0.4,3.6-4.2,5.5-7.9,4.2c-4-1.4-1.9-4.2-1.3-6.5c0.5-1.7,1.8-3.2,1.7-5.1c4.2-0.9,5.4-3.4,3.9-7.3
			C584.4,84.7,584.4,84.4,584.3,84.1z M592.2,70.8c3.3,0.4,2.2,6.5,6.7,4.2c2-1.1,2.2-4.2,0.8-5.8C597.2,66.5,594.9,68.9,592.2,70.8
			z"/>
		<path class="st1" d="M626.3,65.3c0-0.5,0-1,0-1.5l0-0.4c0.4-0.9,1.1-1.1,2-1c0.3,1.3,1,2.1,2.2,2.7c-2.9,5.3-1.5,10.2,0.8,15.3
			c1.7,3.7,0.2,7.9,1.2,11.8c1.4,5.9,0.4,12,1.4,18.1c1.3,8.2,0.8,16.7,0.5,25.1c-0.1,3.7-4,5.4-6.9,5.3c-5.8-0.2-4.9,3.3-5,6.7
			c0,2.3,2,4.3,0.4,7.9c-3.4-6.5-6.4-12.4-9.5-18.3c0.1-0.9,0-1.6-0.8-2.2c-0.1-1.3-0.2-2.5-0.2-3.8c0-0.7,0-1.3,0-2
			c0.3-1.8,1.4-2.9,3.2-3.2c0.4-0.2,0.8-0.5,1.2-0.7c0.9-0.4,1.9-0.9,2.8-1.3c1.1-0.1,1.7-0.9,2.2-1.7c0.3,0,0.6-0.1,0.8-0.3
			c2.3-2,6.6-3.5,1.3-6.9c-0.5-1.3-1-2.6-1.5-3.9c0.1-4,4.2-5.1,6.1-7.9c1.3-2.1,2.1-3.4,0.9-5.6c-0.9-1.6-1.8-3.1-2.7-4.7
			c-0.1-1-0.2-1.9-0.3-2.9c0.1-0.3,0.1-0.7,0-1c0.3-5.7,0.7-11.3,1-17c0.2-1.6,0.6-3.3-0.9-4.5c0-0.3-0.1-0.7-0.1-1
			c0,0-0.1-0.1-0.1-0.1c0.2-0.2,0.3-0.4,0.1-0.6C626.5,65.7,626.5,65.5,626.3,65.3z"/>
		<path class="st1" d="M575.4,177.1c-0.5,5.5-4,2.9-6.1,1.9c-2.7-1.3-3.6,0.7-4.9,1.9c-1.5,1.3-0.6,2.6,0.4,3.9
			c3.3,4.4,2.4,7.1-2.9,9.3c-5.3,2.1-10.7-0.1-16,0.6c-3,0.4-5.1-0.3-7.2-2.4c-1.7-1.7-5-2-0.7-4.9c1.9-1.3-0.2-4-1.8-4.8
			c-4.3-2.1,0.2-6.7-2.9-9c1.5-0.8,2.8-1.9,4.5,0.2c6.8,8.4,13,8.6,20.7,0.8c4-4,7.9-8.1,11.8-12.1c1.3-1.3,2.4-3,4.5-1.6
			c1.8,1.3,3.3,2.8,2.5,5.4c-0.7,2.2-2,4.2-1.7,6.7C574.8,174.4,573.7,175.7,575.4,177.1z"/>
		<path class="st1" d="M464.7,27.1c0.7,0,1.3-0.1,2,0c2.1,0.3,5-1.1,6,0.9c1.1,2.3-1.6,4.1-3.1,5.7c-6.9,7.8-12.5,16.5-18.1,25.2
			c-1.2,1.8-1.8,5.2-4.4,4.6c-2.8-0.7-1.9-4.2-1.4-6.2c1.3-6.5,1-13,1-19.6c-0.1-5.7,5.3-10.1,12.1-10.6
			C460.7,27,462.7,27.1,464.7,27.1C464.7,27.1,464.7,27.1,464.7,27.1z"/>
		<path class="st1" d="M580.7,141.2c0.3,0,0.6-0.1,0.8-0.3c0.4-0.2,0.8-0.5,1.2-0.7c0.3,0.1,0.6,0,0.8-0.1c2.3,1.6,4.7,3.2,7,4.8
			c3.3,2.1,4.8,6,7.9,8.3c0.6,1.3,1.6,2,3,2.1l-0.1,0c0.4,0.9,1.3,1,2.1,1.1l-0.1-0.1c2.4,3.3,4.7,6.6,7.1,9.9l0,0
			c0.6,1.4,1.8,2.3,3,3.1c0.5,0.6,1,1.3,1.5,1.9c0.8,1,2.2,2,0.9,3.4c-1.3,1.3-2.3-0.1-3.4-0.8c-9.6-6.1-18.6-13.1-26.6-21.1
			c-2.6-2.6-6.3-5-6.6-9.4C579.8,142.5,580.2,141.8,580.7,141.2z"/>
		<path class="st1" d="M508,7.4c3.5-2.2,5.9-3,8.6-1.8c1.7,0.8,3.2,0.3,4.8-0.4c5.7-2.6,11.4-0.1,17.1,0.1c0.6,0,1.4,0.5,1.6,1
			c2.4,5.2,6.8,4.1,11.1,3.8c4.8-0.3,9.5,1.5,14.3,1c1.1-0.1,2.6,0.3,2.6,1.7c0,1.9-1.7,1.3-2.6,1.2c-9.1-1.3-18.4,0.2-27.5-1.1
			c-2.3-0.3-5.1-0.2-6.7-2.7c-0.9-1.4-2.4-1.4-3.6-1.1c-4.8,1.3-9.5-2.3-14.4-0.3C512.3,9.4,510.5,8.2,508,7.4z"/>
		<path class="st1" d="M460,19.8c4.1-3.3,8.1-5.5,14.1-3.9c6.7,1.8,13.6-1.1,20.4-1.4c0.8,0,1.6-0.4,2.4-0.4c1.5,0,3.5-0.4,3.9,1.3
			c0.3,1.3-1.3,2.3-2.5,2.7c-6.5,2.2-12.9,4.6-20,4.1c-4.8-0.4-9.5-1.6-14.3-1.1C462.6,21.2,461,21.4,460,19.8z"/>
		<path class="st1" d="M593.5,140.2c-0.3,0-0.7,0-1,0c-1-1-2.1-2.1-3.1-3.1c0-1.8-1.6-4.3,2.1-4.1c1.2,1,2.5,1.3,4,0.9c2,0,4,0,6,0
			c0.7,0,1.3,0,2,0c2.8,1,5.6,6.5,4.9,9.8c-0.6,2.8-2.7,2.4-4.7,2.3c-1.4-1.9-3.2-3.1-5.3-3.9c-0.4-0.8-1.2-1-2-1.1
			C595.7,139.9,594.6,140,593.5,140.2z"/>
		<path class="st1" d="M581.7,174.2c4.9,1.3,6.4,5.3,3.5,9.7c-1.6,2.4-1.6,2.4,0.9,3.4c1.5,0.6,2.5,1.9,1.9,3.5
			c-0.7,1.8-1.6,4.2-3.9,3.8c-1.5-0.3-3.8-1.9-3.2-3.8c1.5-4.4-0.3-8.5-0.6-12.7C581.2,176.9,581.7,175.7,581.7,174.2z"/>
		<path class="st1" d="M546.5,156.9c0.2-1.4,1-2.7,1.7-2.3c2,1.2,3.9,2.9,4.2,5.6c0.1,0.9-0.5,2-1.3,1.7
			C548.7,161,547.6,158.8,546.5,156.9z"/>
	</g>
</g>
<g>
</g>
<g>
</g>
<g>
</g>
<g>
</g>
<g>
</g>
<g>
</g>
<g>
</g>
<g>
</g>
<g>
</g>
<g>
</g>
<g>
</g>
<g>
</g>
<g>
</g>
<g>
</g>
<g>
</g>
</svg>
