<?xml version="1.0" encoding="utf-8"?>
<!-- Generator: Adobe Illustrator 17.1.0, SVG Export Plug-In . SVG Version: 6.00 Build 0)  -->
<!DOCTYPE svg PUBLIC "-//W3C//DTD SVG 1.1//EN" "http://www.w3.org/Graphics/SVG/1.1/DTD/svg11.dtd">
<svg version="1.1" id="Layer_1" xmlns="http://www.w3.org/2000/svg" xmlns:xlink="http://www.w3.org/1999/xlink" x="0px" y="0px"
	 viewBox="0 0 640.5 200.2" style="enable-background:new 0 0 640.5 200.2;" xml:space="preserve">
<style type="text/css">
	.st0{fill:#020001;}
	.st1{fill:#FA0101;}
	.st2{fill:#0B0203;}
</style>
<g>
	<g>
		<path class="st0" d="M200.1,88.1c0,15.3,0,30.7,0,46c-0.1,0.1-0.1,0.3-0.3,0.4c-0.1,0.1-0.2,0.2-0.3,0.1c-1.3-0.1-1.2-2.7-2.3-2
			c-4.2,2.6-6.7-1.1-9.7-2.5c-7.6-3.6-7.5-3.7-10.7,4.3c-0.4,1-1.2,1.9-1.8,2.9c-0.5,0.9-1.1,1.8-0.2,2.7c4.1,4.2,0.4,3.7-2.3,4
			c-1.1,0.1-2.5-0.4-3.1,1c-0.6,1.5,0.4,2.7,1.3,3.5c1.5,1.3,3.1,3.3,5.5,1.4c1.4-1,2.8-0.7,3.9,0.6c2.2,2.5,5.2,2.5,8.2,2.5
			c4,0.1,8.1-0.5,11.7,1.9c0,8,0,16,0,24c-10.2,0.3-20.3,1.2-30.3,3.6c-11.7,2.8-23.4,5.5-35.1,8.3l-0.2-0.2l-0.2,0.2
			c-0.4,0-0.7,0-1.1,0c-0.4-1.5-0.8-3.1-1.1-4.6c-2.2-3.5-0.1-5.8,2.7-6.9c6.1-2.3,9.2-7.3,12.4-12.4c2.2-3.5,4-8.4,7.2-9.8
			c3.7-1.6,4.1-4.4,5.5-7c0.9-1.7,0.8-3.9,1.6-5.7c2.3-5.3-0.4-9.4-4.4-11.1c-6.4-2.8-9.3-8.3-12.5-13.5
			c-7.8-12.7-16.4-24.5-28.9-33.1c-2.2-1.5-4.3-3.2-5.4-5.8c-2-4.9-5.5-6.5-10-3.9c-3.5,2.1-7.3,4.3-9.9,7.4
			C83,93.2,73.4,96.2,62.5,96.1c-3.6,0-6.9,0.6-10,2.4c1.7,3.7,4.7,4.2,8.5,3.1c-0.4,3.8-3.1,5.3-5.3,7.1c-3.6,2.9-7.3,5.7-11.3,8.1
			c-2.9,1.8-2.9,3.9-1.4,6.3c1.8,2.9,4.3,4.7,8.1,4.2c3.1-0.4,6.4-0.6,9.5-0.1c5.7,1,11.9,4.5,11.2,9.3c-0.4,2.9,0,5.4,1,8.1
			c1.4,3.4,0.9,6.1-3,7.5c-2.9,1-3.4,2.8-1.7,5.4c0.7,1.1,1.3,2.3,1.9,3.5c-1.7,1.8-2,3.8-0.2,5.6c2.1,2,0.2,2.7-0.9,3.7
			c-2-0.1-4-0.2-6-0.2c-2.4-0.2-5.5-1.4-4.8,3.2c-0.2,1.3-0.9,2.3-2,3c-2.8,1-5.5,3.8-8.2-0.1c0.1-0.3,0.1-0.6,0.2-1
			c1.1-0.2,2.6-0.1,2.7-1.5c0.1-1.6-1.5-1.3-2.5-1.6c0.6-1.3,1.3-2.6,1.9-3.9c0.6-0.6,1.2-1.2,1.8-1.8c0.6-0.4,1.2-0.9,1.8-1.3
			c2.5-1.2,2.5-2.9,0.8-4.8c-2.1-0.2-4.5,0.2-6.4-0.6c-6.6-2.9-13.2-5.9-19.6-9.3c-9.1-4.7-18.1-9.2-28.6-4.3c0-47.5,0-95-0.1-142.5
			C0,0.6,0.6,0,3.6,0c64.3,0.1,128.7,0.1,193,0c3,0,3.6,0.6,3.6,3.6c-0.2,12.5-0.1,25-0.1,37.5c-2.1,5.5-3,11.1-2.7,17.2
			c0.3,4.3,0.5,8.7,0.4,13c-0.1,4.4-1,8.7-1.7,13.1C195.5,87.8,196.7,89.1,200.1,88.1z M39.1,66.1c-1,0.4-2,0.7-3,1.1
			c-0.3,0-0.6,0-0.8,0c-0.7,0-1.4,0-2.1-0.1l0,0c0.2,1.4,0.8,2.5,2.2,3c1.2,1.4,2.3,2.7,3.5,4.1c-0.3,1.1-3.3,2-0.1,3.4
			c4.4,2,1.5,3.3-0.6,4.6c-2.5-0.7-5-1.7-7.5-2c-2-0.2-5.6-1-5.7,1.1c-0.1,2.7,3.3,1.3,5.2,1.7c0.6,0.1,1.3,0.2,1.9,0.2
			c-0.2,0.8-1.1,1.8-0.1,2.5c1,0.7,1.7,0.2,2.2-0.9c0.7,0.4,1.3,0.7,2,1.1c0.8,1.1,1.9,1.7,3.2,1.9c1,0.5,1.9,1.3,3,1.5
			c2.6,0.4,4.4-0.1,2.6-3.3c3.4-2.3-0.3-5.7,1.3-8.2c4.3,2.4,8.6-0.8,13-0.2c-2.6-1.8-5.3-3.3-7.8-4.9c-1.4-0.9-3.5-1.4-4.2-0.6
			c-2.9,3.1-4.3,0.7-6.1-1.1c0-0.4-0.1-0.9-0.1-1.3c-0.3,0.1-0.6,0.2-0.9,0.3c-0.5-0.4-1-0.8-1.5-1.2C38.8,68,38.9,67,39.1,66.1
			L39.1,66.1z M94.5,63.6c-1.9,1.8-3.9,3.6-4.5,6.4c2.1-1.6,4.7-2.7,5.2-5.8c0.7-0.4,1.2-0.9,0.6-1.8C95.3,62.7,94.9,63.1,94.5,63.6
			z M128.3,60.3c0.3,0.1,0.7,0.2,1,0.3c-0.2,0.1-0.3,0.3-0.5,0.4c0.7-0.3,1.3-0.5,2-0.8c-0.4-0.9-0.8-1.8-1.2-2.7
			c2.6-0.8,4.8-0.1,7,0.6c0.5,0.2,1.4-0.1,1.8-0.5c0.5-0.5,0.3-1.4-0.3-1.7c-8.6-3.3-16.5-8.3-26.1-10.2c1,2.2,3.7,3.7,2.2,6.4
			c-0.7,1.4-1.6,2.7-3.2,3.2c-4.1-3.9-7.8-8.6-12.5-11.6c-5.7-3.8-12-7-18.8-8.7c-1.9-0.5-4.3-1.8-5.1,0.6c-0.9,2.4,2.1,2.2,3.5,3.2
			c8,5.7,18.5,9,19.9,21.6c0.8-1.4,1.4-2.3,2-3.3c1.7-2.8,2.6-4.7,6.3-1c2.7,2.8,7.1,5.1,11.7,5.1C121.3,61.1,125.1,65,128.3,60.3z
			 M49.5,21c-6.4,0.1-12.8,1.2-19.3,1.2c-5.6,0-11.1,1.1-16.6,2c-1.5,0.2-3.9,0.3-4,2.1c-0.1,1.9,1.2,3.6,3.7,3.9
			c2.2,0.3,4.5,1.1,6.6,1.9c1.2,0.5,2.6,1.2,1.5,2.9c-2.4,3.8-1.7,5.6,3.1,5.4c0.7,0,1.5,0.6,2.2,1c6.3,3.9,10.5,3.6,15.9-1.4
			c5.2-4.8,9.6-10.5,16.6-13.1c2.3-0.9,2.7-2.3-0.2-4.1C55.9,20.8,52.7,21.2,49.5,21z M80.8,74.7c2.3,0.4,4.2,1,6.1,1
			c1.5,0,3.3-0.3,4.5-1.6c0.5-0.6,0.5-1.4-0.2-1.6c-1.6-0.6-3.2-1.7-5.1-0.4C84.6,73,82.9,73.6,80.8,74.7z M61.4,77.6
			c2.9,2.5,6.3,2.5,9.3,3.3c1.1,0.3,2.3-0.6,2.7-1.7c0.3-0.7-0.5-1.2-1.2-1.1C68.7,78.7,65.3,76.1,61.4,77.6z M185.1,56.8
			c2.4-2.5,2.2-5.7,3.1-8.6c0.3-1.1,1.1-2.4-0.7-2.7c-1.7-0.3-2.3,1-2.4,2.4C185.1,50.9,185.1,53.9,185.1,56.8z"/>
		<path class="st1" d="M133.2,190.9c0.4,0,0.7,0,1.1,0l0.3,0c11.7-2.8,23.4-5.5,35.1-8.3c10-2.4,20.1-3.2,30.3-3.6
			c0,6-0.1,12,0.1,17.9c0.1,2.3-0.3,3.2-3,3.1c-10.3-0.2-20.6-0.1-30.9-0.1c-37.1,0-74.1,0-111.2,0c-3.2-8.2-2.5-16.1,1.1-23.9
			c1.2-0.7,1.8-1.7,2-3c1.6-1.1,3.2-2.1,4.8-3.2c2,0.1,4,0.2,6,0.2c2.4,0.9,4.8,1.9,7.3,2.7c0.7,0.2,1.6,0.3,2.1-0.6
			c0.5-0.9,0.3-1.7-0.5-2.1c-4.1-1.9-6.3-5.3-7.8-9.3c-0.6-1.2-1.2-2.4-1.9-3.5c-1.7-2.6-1.1-4.4,1.7-5.4c4-1.4,4.4-4.1,3-7.5
			c-1.1-2.6-1.4-5.1-1-8.1c0.6-4.8-5.5-8.3-11.2-9.3c-3.1-0.5-6.3-0.3-9.5,0.1c-3.8,0.5-6.3-1.3-8.1-4.2c-1.5-2.4-1.6-4.4,1.4-6.3
			c3.9-2.4,7.7-5.2,11.3-8.1c2.2-1.8,4.9-3.4,5.3-7.1c-3.8,1.2-6.8,0.7-8.5-3.1c3.1-1.8,6.4-2.5,10-2.4c10.9,0.2,20.4-2.8,27.8-11.6
			c2.6-3.1,6.4-5.3,9.9-7.4c4.4-2.6,7.9-1,10,3.9c1.1,2.6,3.2,4.3,5.4,5.8c12.5,8.6,21.1,20.4,28.9,33.1c3.2,5.3,6.1,10.7,12.5,13.5
			c4,1.7,6.6,5.9,4.4,11.1c-0.8,1.8-0.7,4-1.6,5.7c-1.4,2.5-1.8,5.3-5.5,7c-3.2,1.4-5,6.3-7.2,9.8c-3.2,5.1-6.3,10.1-12.4,12.4
			c-2.8,1.1-4.8,3.4-2.7,6.9c-3.3,1.3-6.6,2.7-10.4,4.2C126,193.2,129.6,192,133.2,190.9z M120.1,137.3c-0.9-0.2-1.6-0.1-2.1,0.7
			c-2.3,0.1-4.6,0.2-6.9,0.2c-4.7-2.3-8.9-0.8-13,1.8c-1.5,1-2.8,2.3-1.4,4c2.3,2.8,1,4.8-0.8,7c-0.5,0.4-1.1,0.7-1.5,1.2
			c-3.1,3.9-5.7,8.2-11.6,8.2c-1.3,0-2.2,1.7-1.4,3.1c2.6,4.6-1.6,4.9-4,6.1c-0.9,0.4-2.5-0.1-2.7,1.3c-0.2,1.4,1.2,1.7,2.1,2.2
			c5.4,3.1,11.3,4.4,17.1,6.1c0.8,1,2,0.9,3.1,1c2,0.6,4,1.2,6,1.7c0.3,0.2,0.5,0.2,0.9,0.2c2.7,0.8,5.2,3,8.2,1
			c3.5-1.6,5.5-4.8,7.8-7.6c2.6-3.1-0.6-2.4-2.3-2.4l-0.3-0.2c-0.4-0.9-0.9-1.7-1.9-2.1c-1.8-6,0-10.9,4.8-14.8
			c1.8-1.3,3.6-2.6,4.2-5c0.3-0.3,0.6-0.6,0.9-0.8c1-0.2,2.1-0.4,3.1-0.6c4.4-1.4,1.3-5.3,2.5-7.8c0.2-0.3,0.2-0.6,0-0.8
			c-0.2-0.3-0.5-0.7-0.7-1c-0.3-0.4-0.7-0.7-1-1.1C126.5,136.3,123.2,137.1,120.1,137.3z M95.5,124.1c-3.6-2.3-3.5-2.2-2.2-4.9
			c2-4.4,5.7-7.3,8.8-10.7c2-2.2,3.2-5.6,2.1-7.7c-1.4-2.8-4.8-1.6-7.7-0.7c-9.3,2.9-16.1,7.6-18.5,18.2c-1.2,5.2-4.9,8.9,4.1,7.1
			c0.3-0.1,0.7,0.1,0.9,0.4C87.7,129.9,91.2,126.6,95.5,124.1z M81.8,101.5c-1.1-1.5-2.7-1.8-4.7-1c-4.9,2.1-8.4,5.8-11.3,10
			c-1.6,2.4-2.9,5.3,0.3,7.3c2.9,1.8,6.3,1,8.5-1.2C78.5,112.7,79.3,107,81.8,101.5z"/>
		<path class="st1" d="M0.1,146.1c10.5-4.9,19.5-0.4,28.6,4.3c6.4,3.3,13,6.4,19.6,9.3c1.9,0.8,4.2,0.4,6.4,0.6
			c0.9,1.8-0.7,3.2-0.8,4.8c-0.6,0.4-1.2,0.9-1.8,1.3c-1,0.2-1.6,0.8-1.8,1.8c-0.6,1.3-1.3,2.6-1.9,3.9c-0.1,1-0.1,2.1-0.2,3.1
			c-0.1,0.3-0.1,0.6-0.2,1c-0.2,0.4-0.5,0.7-0.7,1.1c-0.2,0.2-0.3,0.4-0.3,0.7c-6.7,3.3-7.1,10.1-9.3,16c-0.5,1.4-0.3,2.3,0.9,2.9
			c1.3,0.6,2.6,0.7,3.5-0.8c1-1.7,2.1-3.4,2-5.5c0-2-0.1-4,0.4-5.9c0.5-2.1,2.2-2.7,4.3-2.4c2.5,0.4,1.6,2.5,1.3,3.5
			c-1.2,3.6-0.9,7.9-5,10.2c-1.6,0.8-2.1,2.5-1.9,4.3c-13.3,0-26.7-0.1-40,0.1c-2.5,0-3.1-0.6-3.1-3.1
			C0.1,180.1,0.1,163.1,0.1,146.1z"/>
		<path class="st1" d="M200.1,155.1c-3.6-2.4-7.7-1.8-11.7-1.9c-3.1-0.1-6-0.1-8.2-2.5c-1.2-1.3-2.5-1.6-3.9-0.6
			c-2.5,1.8-4-0.1-5.5-1.4c-0.9-0.8-1.9-2-1.3-3.5c0.6-1.4,2-0.9,3.1-1c2.7-0.2,6.4,0.2,2.3-4c-0.9-0.9-0.3-1.8,0.2-2.7
			c0.6-1,1.4-1.9,1.8-2.9c3.2-8,3.1-7.9,10.7-4.3c3,1.4,5.5,5.1,9.7,2.5c1.2-0.7,1,1.9,2.3,2c0.1,0,0.2-0.1,0.3-0.1
			c0.1-0.1,0.2-0.3,0.3-0.4C200.1,141.1,200.1,148.1,200.1,155.1z"/>
		<path class="st2" d="M47.3,177.1c0.2-0.4,0.5-0.7,0.7-1.1c2.7,3.9,5.5,1.1,8.2,0.1c-3.6,7.8-4.4,15.8-1.1,23.9c-4,0-8,0-12,0
			c-0.2-1.8,0.3-3.4,1.9-4.3c4.1-2.2,3.8-6.6,5-10.2c0.3-1,1.2-3.1-1.3-3.5c-2-0.3-3.8,0.3-4.3,2.4c-0.4,1.9-0.4,3.9-0.4,5.9
			c0,2.1-1.1,3.8-2,5.5c-0.8,1.4-2.2,1.4-3.5,0.8c-1.2-0.6-1.4-1.5-0.9-2.9c2.2-5.9,2.6-12.7,9.3-16c0.3,0.5,0.6,1.5,1.1,1
			C48.8,178.2,47.7,177.6,47.3,177.1z"/>
		<path class="st1" d="M200.1,88.1c-3.4,1-4.6-0.2-4-3.7c0.7-4.3,1.6-8.7,1.7-13.1c0.1-4.3-0.1-8.7-0.4-13
			c-0.4-6.1,0.5-11.6,2.7-17.2C200.1,56.7,200.1,72.4,200.1,88.1z"/>
		<path class="st1" d="M49.5,21c3.2,0.2,6.4-0.2,9.5,1.8c2.8,1.8,2.5,3.3,0.2,4.1c-7,2.6-11.4,8.3-16.6,13.1
			c-5.4,5-9.6,5.3-15.9,1.4c-0.7-0.4-1.5-1.1-2.2-1c-4.7,0.2-5.5-1.6-3.1-5.4c1.1-1.7-0.3-2.5-1.5-2.9c-2.2-0.8-4.4-1.7-6.6-1.9
			c-2.5-0.3-3.8-2-3.7-3.9c0.1-1.8,2.5-1.9,4-2.1c5.5-0.8,11.1-2,16.6-2C36.7,22.2,43,21.2,49.5,21z"/>
		<path class="st1" d="M117.8,61c-4.6,0-9-2.3-11.7-5.1c-3.7-3.7-4.6-1.8-6.3,1c-0.6,1-1.1,1.9-2,3.3c-1.3-12.5-11.9-15.9-19.9-21.6
			c-1.4-1-4.4-0.8-3.5-3.2c0.9-2.3,3.2-1.1,5.1-0.6c6.8,1.8,13.1,4.9,18.8,8.7c4.7,3.1,8.4,7.7,12.5,11.6c0.9,1.7,2.4,2.1,4.1,2.1
			c0.9,0.6,1.8,1.3,2.8,1.9C117.8,59.8,117.8,60.4,117.8,61z"/>
		<path class="st1" d="M114.1,52c1.5-2.7-1.2-4.2-2.2-6.4c9.6,1.9,17.5,7,26.1,10.2c0.6,0.2,0.8,1.2,0.3,1.7
			c-0.4,0.4-1.3,0.6-1.8,0.5c-2.2-0.7-4.4-1.3-7-0.6c0.4,0.9,0.8,1.8,1.2,2.7c-0.8,0-1.6-0.2-2,0.8c0.2-0.1,0.3-0.3,0.5-0.4
			c-0.3-0.1-0.7-0.2-1-0.3c-3.3,0.3-5.4-2.4-8.1-3.3c-0.9-1.5-2.1-2.7-3.9-3.1C115.5,53.2,114.8,52.6,114.1,52z"/>
		<path class="st1" d="M38.6,68.9c0.5,0.4,1,0.8,1.5,1.2c0.3,0.3,0.7,0.7,1,1c1.8,1.7,3.2,4.2,6.1,1.1c0.7-0.8,2.8-0.3,4.2,0.6
			c2.6,1.6,5.3,3.1,7.8,4.9c-4.4-0.5-8.7,2.6-13,0.2c-2.2-1.8-4.8-2.8-7.4-3.8c-1.2-1.4-2.3-2.7-3.5-4.1c0-1,0-2,0-2.9
			c0.3,0,0.6,0,0.8,0C36.9,67.8,37.7,68.3,38.6,68.9z"/>
		<path class="st2" d="M38.7,74.2c2.6,0.9,5.2,2,7.4,3.8c-1.5,2.6,2.1,6-1.3,8.2c-1.8,0.8-4,0.3-5.6,1.8c-1.3-0.2-2.4-0.8-3.2-1.9
			c3.9-2.7,3.9-2.7,2-3.9c2.2-1.3,5-2.6,0.6-4.6C35.5,76.2,38.5,75.3,38.7,74.2z"/>
		<path class="st1" d="M38,82.2c1.9,1.2,1.9,1.2-2,3.9c-0.7-0.4-1.3-0.7-2-1.1c-0.4-1-0.9-1.7-2.1-1.7c-0.6-0.1-1.3-0.1-1.9-0.2
			c-1.9-0.4-5.4,1-5.2-1.7c0.1-2.1,3.7-1.4,5.7-1.1C33.1,80.5,35.5,81.5,38,82.2z"/>
		<path class="st2" d="M70.1,160.9c1.5,4,3.7,7.4,7.8,9.3c0.8,0.4,1,1.2,0.5,2.1c-0.5,0.9-1.5,0.8-2.1,0.6c-2.4-0.8-4.8-1.8-7.3-2.7
			c1.1-1,3-1.7,0.9-3.7C68.2,164.7,68.4,162.7,70.1,160.9z"/>
		<path class="st2" d="M133.2,190.9c-3.6,1.1-7.2,2.3-11.5-0.4c3.8-1.5,7.1-2.9,10.4-4.2C132.5,187.8,132.9,189.4,133.2,190.9z"/>
		<path class="st1" d="M80.8,74.7c2.1-1,3.8-1.7,5.3-2.7c1.9-1.3,3.5-0.2,5.1,0.4c0.7,0.3,0.7,1.1,0.2,1.6c-1.2,1.3-2.9,1.6-4.5,1.6
			C85,75.7,83,75.1,80.8,74.7z"/>
		<path class="st1" d="M61.4,77.6c4-1.5,7.3,1.1,10.8,0.5c0.7-0.1,1.5,0.4,1.2,1.1c-0.5,1.1-1.6,2-2.7,1.7
			C67.6,80.1,64.2,80.1,61.4,77.6z"/>
		<path class="st1" d="M185.1,56.8c0-3-0.1-5.9,0-8.9c0-1.4,0.7-2.7,2.4-2.4c1.8,0.3,1,1.6,0.7,2.7
			C187.3,51.1,187.5,54.3,185.1,56.8z"/>
		<path class="st2" d="M120.1,57c2.8,0.9,4.9,3.6,8.1,3.3c-3.2,4.7-7,0.9-10.5,0.7c0-0.6,0-1.2,0-1.8C119.5,59.4,120,58.4,120.1,57z
			"/>
		<path class="st1" d="M39.3,88c1.6-1.5,3.8-1,5.6-1.8c1.8,3.2,0,3.7-2.6,3.3C41.2,89.3,40.3,88.5,39.3,88z"/>
		<path class="st2" d="M114.1,52c0.7,0.6,1.4,1.3,2,1.9c-0.4,1.1-0.8,2.2-1.2,3.3c-1.7,0-3.2-0.4-4.1-2.1
			C112.5,54.6,113.4,53.4,114.1,52z"/>
		<path class="st1" d="M95.1,64.1c-0.5,3.1-3.1,4.2-5.2,5.8c0.7-2.8,2.6-4.6,4.5-6.4C94.7,63.7,94.9,63.9,95.1,64.1z"/>
		<path class="st2" d="M63,170c-1.6,1.1-3.2,2.1-4.8,3.2C57.5,168.6,60.6,169.8,63,170z"/>
		<path class="st2" d="M48.2,175.1c0.1-1,0.1-2.1,0.2-3.1c1,0.3,2.6,0,2.5,1.6C50.8,175,49.3,174.9,48.2,175.1z"/>
		<path class="st2" d="M32,83.3c1.1,0,1.7,0.7,2.1,1.7c-0.4,1-1.2,1.6-2.2,0.9C30.9,85.1,31.8,84.2,32,83.3z"/>
		<path class="st2" d="M53.9,165c0.1-1.6,1.7-3,0.8-4.8C56.3,162.1,56.4,163.8,53.9,165z"/>
		<path class="st2" d="M35.2,67.1c0,1,0,2,0,2.9c-1.4-0.5-2-1.6-2.2-3l0,0C33.8,67.1,34.5,67.1,35.2,67.1z"/>
		<path class="st2" d="M38.6,68.9c-0.8-0.6-1.7-1.2-2.5-1.8c1-0.4,2-0.7,3-1.1l0,0C38.9,67,38.8,68,38.6,68.9z"/>
		<path class="st2" d="M41,71.2c-0.3-0.3-0.7-0.7-1-1c0.3-0.1,0.6-0.2,0.9-0.3C41,70.3,41,70.7,41,71.2z"/>
		<path class="st2" d="M50.3,168.1c0.2-1,0.8-1.6,1.8-1.8C51.5,166.9,50.9,167.5,50.3,168.1z"/>
		<path class="st1" d="M94.5,63.6c0.4-0.4,0.8-0.8,1.2-1.2c0.6,0.8,0.2,1.4-0.6,1.8C94.9,63.9,94.7,63.7,94.5,63.6z"/>
		<path class="st2" d="M33.1,67.1L33.1,67.1L33.1,67.1z"/>
		<path class="st2" d="M39.1,66.1L39.1,66.1L39.1,66.1z"/>
		<path class="st2" d="M128.8,60.9c0.4-1,1.2-0.8,2-0.8C130.1,60.4,129.4,60.7,128.8,60.9z"/>
		<polygon class="st2" points="134.7,190.9 134.4,190.9 134.5,190.7 		"/>
		<path class="st0" d="M117.3,173l0.3,0.2c-2.1,3.2-5.1,5.8-5.5,9.9c-3,2.1-5.5-0.2-8.2-1c0-0.3,0.2-0.8,0.1-0.9
			c-0.7-0.3-0.7,0.3-0.9,0.7c-2-0.6-4-1.2-6-1.7c-0.6-1.6-1.6-2-3.1-1c-5.8-1.7-11.8-3-17.1-6.1c-1-0.6-2.4-0.8-2.1-2.2
			c0.2-1.4,1.8-0.9,2.7-1.3c2.4-1.1,6.6-1.4,4-6.1c-0.8-1.4,0-3.1,1.4-3.1c5.9,0,8.5-4.3,11.6-8.2c0.4-0.5,1-0.8,1.5-1.2
			c1.4,0.2,2.6,0.8,3.2,2.2c-0.3,2.4-2.9,3.9-2.4,6.5c4.9,1.4,9.2,0.3,13.1-3c3.2-2.7,6.8-5.1,10.3-7.6c0.3-0.3,0.7-0.6,1-0.9
			c1.4-2.2-0.4-2.1-1.6-2.1c-2.8-0.1-5.6-0.2-8.3-0.2c0-0.9,0-1.8,0-2.6c1.5-0.7,3.5,0.7,4.8-1.1c0.2-0.2,0.4-0.3,0.6-0.5
			c-0.5,0.1-1,0.2-1.5,0.3c-1.8,0.4-3.5,0.1-5.1-1c0.4-0.9,0.7-1.8,1.1-2.7c2.3-0.1,4.6-0.2,6.9-0.2c0.7-0.2,1.4-0.5,2.1-0.7
			c3.2-0.2,6.4-1,9,1.8c0.3,0.4,0.7,0.7,1,1.1c0.2,0.3,0.5,0.7,0.7,1c-0.1,0.1-0.2,0.2-0.2,0.3c0,0.2,0.1,0.4,0.2,0.6
			c-1.2,2.5,1.9,6.4-2.5,7.8c-1.3-1.3-2.4-1.3-3.1,0.6c-0.3,0.3-0.6,0.6-0.9,0.8c-3,0.4-4.3,2.1-4.2,5c-4.8,3.9-6.6,8.7-4.8,14.8
			C114.3,173.2,115.5,173.4,117.3,173z"/>
		<path class="st2" d="M95.5,124.1c-4.3,2.5-7.9,5.8-12.4,1.6c-0.2-0.2-0.6-0.4-0.9-0.4c-9,1.9-5.3-1.8-4.1-7.1
			c2.4-10.7,9.2-15.3,18.5-18.2c2.8-0.9,6.3-2.1,7.7,0.7c1,2.1-0.1,5.5-2.1,7.7c-3.1,3.4-6.8,6.3-8.8,10.7
			C92.1,121.9,91.9,121.8,95.5,124.1z"/>
		<path class="st2" d="M81.8,101.5c-2.5,5.5-3.3,11.2-7.2,15.2c-2.2,2.2-5.6,3-8.5,1.2c-3.2-2-1.9-4.9-0.3-7.3
			c2.9-4.3,6.4-8,11.3-10C79.1,99.7,80.7,100,81.8,101.5z"/>
		<path class="st2" d="M111.1,143.2c0,0.9,0,1.8,0,2.6c-0.6-0.1-1.5,0.1-1.8-0.3c-2.3-2.3-4.9,0.5-7.5-0.4c-1-0.3,0,3.1-0.7,4.7
			c-0.5,1.2-1.2,2.2-1.9,3.3c-0.6-1.4-1.7-2-3.2-2.2c1.8-2.2,3.1-4.2,0.8-7c-1.4-1.7-0.2-3,1.4-4c4.1-2.6,8.3-4,13-1.8
			c-0.4,0.9-0.7,1.8-1.1,2.7c-1.9,0.6-4.2-0.4-5.9,1.5C106.7,141.3,108.9,142.3,111.1,143.2z"/>
		<path class="st2" d="M112.1,183.1c0.4-4.1,3.4-6.8,5.5-9.9c1.7,0,4.8-0.7,2.3,2.4C117.6,178.3,115.6,181.5,112.1,183.1z"/>
		<path class="st2" d="M120.1,156.2c-0.1-2.9,1.2-4.6,4.2-5C123.7,153.5,121.9,154.9,120.1,156.2z"/>
		<path class="st2" d="M94,179.2c1.5-1,2.4-0.6,3.1,1C96,180.1,94.8,180.2,94,179.2z"/>
		<path class="st2" d="M125.2,150.3c0.7-1.9,1.8-1.9,3.1-0.6C127.3,149.9,126.2,150.1,125.2,150.3z"/>
		<path class="st2" d="M117.3,173c-1.8,0.4-3,0.2-1.9-2.1C116.3,171.3,116.9,172.1,117.3,173z"/>
		<path class="st2" d="M103.1,182c0.2-0.4,0.3-1,0.9-0.7c0.1,0-0.1,0.6-0.1,0.9C103.6,182.2,103.3,182.2,103.1,182z"/>
		<path class="st2" d="M120.1,137.3c-0.7,0.2-1.4,0.5-2.1,0.7C118.4,137.2,119.2,137.1,120.1,137.3z"/>
		<path class="st2" d="M130.9,141.9c-0.1-0.2-0.2-0.4-0.2-0.6c0-0.1,0.1-0.2,0.2-0.3C131.1,141.4,131.1,141.7,130.9,141.9z"/>
		<path class="st2" d="M130.1,140.1c-0.3-0.4-0.7-0.7-1-1.1C129.4,139.4,129.8,139.8,130.1,140.1z"/>
		<path class="st0" d="M47.3,177.1c0.5,0.5,1.5,1.1,0.8,1.7c-0.5,0.5-0.8-0.5-1.1-1C47,177.6,47.1,177.3,47.3,177.1z"/>
		<path class="st0" d="M115,57.2c0.4-1.1,0.8-2.2,1.2-3.3c1.8,0.4,3,1.6,3.9,3.1c-0.1,1.4-0.7,2.4-2.3,2.2
			C116.9,58.5,116,57.9,115,57.2z"/>
		<path class="st1" d="M99.1,153.2c0.6-1.1,1.3-2.2,1.9-3.3c0.7-1.6-0.3-5,0.7-4.7c2.6,0.9,5.2-2,7.5,0.4c0.4,0.4,1.2,0.2,1.8,0.3
			c2.8,0.1,5.6,0.1,8.3,0.2c1.3,0.1,3-0.1,1.6,2.1c-0.3,0.3-0.7,0.6-1,0.9c-3.4,2.5-7,4.8-10.3,7.6c-3.9,3.3-8.1,4.4-13.1,3
			C96.2,157.1,98.8,155.6,99.1,153.2z"/>
		<path class="st1" d="M111.1,143.2c-2.2-0.9-4.4-2-7-0.8c1.7-1.9,4-0.9,5.9-1.5c1.5,1.2,3.2,1.4,5.1,1c0.3,0.2,0.5,0.2,0.8,0.2
			C114.6,143.9,112.6,142.6,111.1,143.2z"/>
		<path class="st2" d="M115.9,142.2c-0.3,0-0.6,0-0.8-0.2c0.5-0.1,1-0.2,1.5-0.3C116.3,141.8,116.1,142,115.9,142.2z"/>
		<path class="st2" d="M120,149.1c0.3-0.3,0.7-0.6,1-0.9C120.7,148.5,120.4,148.8,120,149.1z"/>
	</g>
	<g>
		<path class="st0" d="M420.3,88.1c0,15.3,0,30.7,0,46c-0.1,0.1-0.1,0.3-0.3,0.4c-0.1,0.1-0.2,0.2-0.3,0.1c-1.3-0.1-1.2-2.7-2.3-2
			c-4.2,2.6-6.7-1.1-9.7-2.5c-7.6-3.6-7.5-3.7-10.7,4.3c-0.4,1-1.2,1.9-1.8,2.9c-0.5,0.9-1.1,1.8-0.2,2.7c4.1,4.2,0.4,3.7-2.3,4
			c-1.1,0.1-2.5-0.4-3.1,1c-0.6,1.5,0.4,2.7,1.3,3.5c1.5,1.3,3.1,3.3,5.5,1.4c1.4-1,2.8-0.7,3.9,0.6c2.2,2.5,5.2,2.5,8.2,2.5
			c4,0.1,8.1-0.5,11.7,1.9c0,8,0,16,0,24c-10.2,0.3-20.3,1.2-30.3,3.6c-11.7,2.8-23.4,5.5-35.1,8.3l-0.2-0.2l-0.2,0.2
			c-0.4,0-0.7,0-1.1,0c-0.4-1.5-0.8-3.1-1.1-4.6c-2.2-3.5-0.1-5.8,2.7-6.9c6.1-2.3,9.2-7.3,12.4-12.4c2.2-3.5,4-8.4,7.2-9.8
			c3.7-1.6,4.1-4.4,5.5-7c0.9-1.7,0.8-3.9,1.6-5.7c2.3-5.3-0.4-9.4-4.4-11.1c-6.4-2.8-9.3-8.3-12.5-13.5
			c-7.8-12.7-16.4-24.5-28.9-33.1c-2.2-1.5-4.3-3.2-5.4-5.8c-2-4.9-5.5-6.5-10-3.9c-3.5,2.1-7.3,4.3-9.9,7.4
			c-7.4,8.8-16.9,11.7-27.8,11.6c-3.6,0-6.9,0.6-10,2.4c1.7,3.7,4.7,4.2,8.5,3.1c-0.4,3.8-3.1,5.3-5.3,7.1
			c-3.6,2.9-7.3,5.7-11.3,8.1c-2.9,1.8-2.9,3.9-1.4,6.3c1.8,2.9,4.3,4.7,8.1,4.2c3.1-0.4,6.4-0.6,9.5-0.1c5.7,1,11.9,4.5,11.2,9.3
			c-0.4,2.9,0,5.4,1,8.1c1.4,3.4,0.9,6.1-3,7.5c-2.9,1-3.4,2.8-1.7,5.4c0.7,1.1,1.3,2.3,1.9,3.5c-1.7,1.8-2,3.8-0.2,5.6
			c2.1,2,0.2,2.7-0.9,3.7c-2-0.1-4-0.2-6-0.2c-2.4-0.2-5.5-1.4-4.8,3.2c-0.2,1.3-0.9,2.3-2,3c-2.8,1-5.5,3.8-8.2-0.1
			c0.1-0.3,0.1-0.6,0.2-1c1.1-0.2,2.6-0.1,2.7-1.5c0.1-1.6-1.5-1.3-2.5-1.6c0.6-1.3,1.3-2.6,1.9-3.9c0.6-0.6,1.2-1.2,1.8-1.8
			c0.6-0.4,1.2-0.9,1.8-1.3c2.5-1.2,2.5-2.9,0.8-4.8c-2.1-0.2-4.5,0.2-6.4-0.6c-6.6-2.9-13.2-5.9-19.6-9.3
			c-9.1-4.7-18.1-9.2-28.6-4.3c0-47.5,0-95-0.1-142.5c0-3,0.6-3.6,3.6-3.6c64.3,0.1,128.7,0.1,193,0c3,0,3.6,0.6,3.6,3.6
			c-0.2,12.5-0.1,25-0.1,37.5c-2.1,5.5-3,11.1-2.7,17.2c0.3,4.3,0.5,8.7,0.4,13c-0.1,4.4-1,8.7-1.7,13.1
			C415.7,87.8,416.8,89.1,420.3,88.1z M259.3,66.1c-1,0.4-2,0.7-3,1.1c-0.3,0-0.6,0-0.8,0c-0.7,0-1.4,0-2.1-0.1l0,0
			c0.2,1.4,0.8,2.5,2.2,3c1.2,1.4,2.3,2.7,3.5,4.1c-0.3,1.1-3.3,2-0.1,3.4c4.4,2,1.5,3.3-0.6,4.6c-2.5-0.7-5-1.7-7.5-2
			c-2-0.2-5.6-1-5.7,1.1c-0.1,2.7,3.3,1.3,5.2,1.7c0.6,0.1,1.3,0.2,1.9,0.2c-0.2,0.8-1.1,1.8-0.1,2.5c1,0.7,1.7,0.2,2.2-0.9
			c0.7,0.4,1.3,0.7,2,1.1c0.8,1.1,1.9,1.7,3.2,1.9c1,0.5,1.9,1.3,3,1.5c2.6,0.4,4.4-0.1,2.6-3.3c3.4-2.3-0.3-5.7,1.3-8.2
			c4.3,2.4,8.6-0.8,13-0.2c-2.6-1.8-5.3-3.3-7.8-4.9c-1.4-0.9-3.5-1.4-4.2-0.6c-2.9,3.1-4.3,0.7-6.1-1.1c0-0.4-0.1-0.9-0.1-1.3
			c-0.3,0.1-0.6,0.2-0.9,0.3c-0.5-0.4-1-0.8-1.5-1.2C258.9,68,259.1,67,259.3,66.1L259.3,66.1z M314.6,63.6
			c-1.9,1.8-3.9,3.6-4.5,6.4c2.1-1.6,4.7-2.7,5.2-5.8c0.7-0.4,1.2-0.9,0.6-1.8C315.5,62.7,315,63.1,314.6,63.6z M348.4,60.3
			c0.3,0.1,0.7,0.2,1,0.3c-0.2,0.1-0.3,0.3-0.5,0.4c0.7-0.3,1.3-0.5,2-0.8c-0.4-0.9-0.8-1.8-1.2-2.7c2.6-0.8,4.8-0.1,7,0.6
			c0.5,0.2,1.4-0.1,1.8-0.5c0.5-0.5,0.3-1.4-0.3-1.7c-8.6-3.3-16.5-8.3-26.1-10.2c1,2.2,3.7,3.7,2.2,6.4c-0.7,1.4-1.6,2.7-3.2,3.2
			c-4.1-3.9-7.8-8.6-12.5-11.6c-5.7-3.8-12-7-18.8-8.7c-1.9-0.5-4.3-1.8-5.1,0.6c-0.9,2.4,2.1,2.2,3.5,3.2c8,5.7,18.5,9,19.9,21.6
			c0.8-1.4,1.4-2.3,2-3.3c1.7-2.8,2.6-4.7,6.3-1c2.7,2.8,7.1,5.1,11.7,5.1C341.5,61.1,345.2,65,348.4,60.3z M269.7,21
			c-6.4,0.1-12.8,1.2-19.3,1.2c-5.6,0-11.1,1.1-16.6,2c-1.5,0.2-3.9,0.3-4,2.1c-0.1,1.9,1.2,3.6,3.7,3.9c2.2,0.3,4.5,1.1,6.6,1.9
			c1.2,0.5,2.6,1.2,1.5,2.9c-2.4,3.8-1.7,5.6,3.1,5.4c0.7,0,1.5,0.6,2.2,1c6.3,3.9,10.5,3.6,15.9-1.4c5.2-4.8,9.6-10.5,16.6-13.1
			c2.3-0.9,2.7-2.3-0.2-4.1C276.1,20.8,272.9,21.2,269.7,21z M301,74.7c2.3,0.4,4.2,1,6.1,1c1.5,0,3.3-0.3,4.5-1.6
			c0.5-0.6,0.5-1.4-0.2-1.6c-1.6-0.6-3.2-1.7-5.1-0.4C304.8,73,303.1,73.6,301,74.7z M281.5,77.6c2.9,2.5,6.3,2.5,9.3,3.3
			c1.1,0.3,2.3-0.6,2.7-1.7c0.3-0.7-0.5-1.2-1.2-1.1C288.9,78.7,285.5,76.1,281.5,77.6z M405.3,56.8c2.4-2.5,2.2-5.7,3.1-8.6
			c0.3-1.1,1.1-2.4-0.7-2.7c-1.7-0.3-2.3,1-2.4,2.4C405.2,50.9,405.3,53.9,405.3,56.8z"/>
		<path class="st2" d="M267.5,177.1c0.2-0.4,0.5-0.7,0.7-1.1c2.7,3.9,5.5,1.1,8.2,0.1c-3.6,7.8-4.4,15.8-1.1,23.9c-4,0-8,0-12,0
			c-0.2-1.8,0.3-3.4,1.9-4.3c4.1-2.2,3.8-6.6,5-10.2c0.3-1,1.2-3.1-1.3-3.5c-2-0.3-3.8,0.3-4.3,2.4c-0.4,1.9-0.4,3.9-0.4,5.9
			c0,2.1-1.1,3.8-2,5.5c-0.8,1.4-2.2,1.4-3.5,0.8c-1.2-0.6-1.4-1.5-0.9-2.9c2.2-5.9,2.6-12.7,9.3-16c0.3,0.5,0.6,1.5,1.1,1
			C269,178.2,267.9,177.6,267.5,177.1z"/>
		<path class="st2" d="M258.9,74.2c2.6,0.9,5.2,2,7.4,3.8c-1.5,2.6,2.1,6-1.3,8.2c-1.8,0.8-4,0.3-5.6,1.8c-1.3-0.2-2.4-0.8-3.2-1.9
			c3.9-2.7,3.9-2.7,2-3.9c2.2-1.3,5-2.6,0.6-4.6C255.7,76.2,258.6,75.3,258.9,74.2z"/>
		<path class="st2" d="M290.3,160.9c1.5,4,3.7,7.4,7.8,9.3c0.8,0.4,1,1.2,0.5,2.1c-0.5,0.9-1.5,0.8-2.1,0.6
			c-2.4-0.8-4.8-1.8-7.3-2.7c1.1-1,3-1.7,0.9-3.7C288.4,164.7,288.6,162.7,290.3,160.9z"/>
		<path class="st2" d="M353.4,190.9c-3.6,1.1-7.2,2.3-11.5-0.4c3.8-1.5,7.1-2.9,10.4-4.2C352.7,187.8,353,189.4,353.4,190.9z"/>
		<path class="st2" d="M340.3,57c2.8,0.9,4.9,3.6,8.1,3.3c-3.2,4.7-7,0.9-10.5,0.7c0-0.6,0-1.2,0-1.8
			C339.6,59.4,340.2,58.4,340.3,57z"/>
		<path class="st2" d="M334.3,52c0.7,0.6,1.4,1.3,2,1.9c-0.4,1.1-0.8,2.2-1.2,3.3c-1.7,0-3.2-0.4-4.1-2.1
			C332.7,54.6,333.6,53.4,334.3,52z"/>
		<path class="st2" d="M283.2,170c-1.6,1.1-3.2,2.1-4.8,3.2C277.7,168.6,280.8,169.8,283.2,170z"/>
		<path class="st2" d="M268.4,175.1c0.1-1,0.1-2.1,0.2-3.1c1,0.3,2.6,0,2.5,1.6C271,175,269.5,174.9,268.4,175.1z"/>
		<path class="st2" d="M252.2,83.3c1.1,0,1.7,0.7,2.1,1.7c-0.4,1-1.2,1.6-2.2,0.9C251.1,85.1,252,84.2,252.2,83.3z"/>
		<path class="st2" d="M274.1,165c0.1-1.6,1.7-3,0.8-4.8C276.5,162.1,276.6,163.8,274.1,165z"/>
		<path class="st2" d="M255.4,67.1c0,1,0,2,0,2.9c-1.4-0.5-2-1.6-2.2-3l0,0C254,67.1,254.7,67.1,255.4,67.1z"/>
		<path class="st2" d="M258.8,68.9c-0.8-0.6-1.7-1.2-2.5-1.8c1-0.4,2-0.7,3-1.1l0,0C259.1,67,258.9,68,258.8,68.9z"/>
		<path class="st2" d="M261.2,71.2c-0.3-0.3-0.7-0.7-1-1c0.3-0.1,0.6-0.2,0.9-0.3C261.1,70.3,261.2,70.7,261.2,71.2z"/>
		<path class="st2" d="M270.5,168.1c0.2-1,0.8-1.6,1.8-1.8C271.7,166.9,271.1,167.5,270.5,168.1z"/>
		<path class="st2" d="M253.3,67.1L253.3,67.1L253.3,67.1z"/>
		<path class="st2" d="M259.3,66.1L259.3,66.1L259.3,66.1z"/>
		<path class="st2" d="M348.9,60.9c0.4-1,1.2-0.8,2-0.8C350.3,60.4,349.6,60.7,348.9,60.9z"/>
		<polygon class="st2" points="354.9,190.9 354.5,190.9 354.7,190.7 		"/>
		<path class="st0" d="M337.4,173l0.3,0.2c-2.1,3.2-5.1,5.8-5.5,9.9c-3,2.1-5.5-0.2-8.2-1c0-0.3,0.2-0.8,0.1-0.9
			c-0.7-0.3-0.7,0.3-0.9,0.7c-2-0.6-4-1.2-6-1.7c-0.6-1.6-1.6-2-3.1-1c-5.8-1.7-11.8-3-17.1-6.1c-1-0.6-2.4-0.8-2.1-2.2
			c0.2-1.4,1.8-0.9,2.7-1.3c2.4-1.1,6.6-1.4,4-6.1c-0.8-1.4,0-3.1,1.4-3.1c5.9,0,8.5-4.3,11.6-8.2c0.4-0.5,1-0.8,1.5-1.2
			c1.4,0.2,2.6,0.8,3.2,2.2c-0.3,2.4-2.9,3.9-2.4,6.5c4.9,1.4,9.2,0.3,13.1-3c3.2-2.7,6.8-5.1,10.3-7.6c0.3-0.3,0.7-0.6,1-0.9
			c1.4-2.2-0.4-2.1-1.6-2.1c-2.8-0.1-5.6-0.2-8.3-0.2c0-0.9,0-1.8,0-2.6c1.5-0.7,3.5,0.7,4.8-1.1c0.2-0.2,0.4-0.3,0.6-0.5
			c-0.5,0.1-1,0.2-1.5,0.3c-1.8,0.4-3.5,0.1-5.1-1c0.4-0.9,0.7-1.8,1.1-2.7c2.3-0.1,4.6-0.2,6.9-0.2c0.7-0.2,1.4-0.5,2.1-0.7
			c3.2-0.2,6.4-1,9,1.8c0.3,0.4,0.7,0.7,1,1.1c0.2,0.3,0.5,0.7,0.7,1c-0.1,0.1-0.2,0.2-0.2,0.3c0,0.2,0.1,0.4,0.2,0.6
			c-1.2,2.5,1.9,6.4-2.5,7.8c-1.3-1.3-2.4-1.3-3.1,0.6c-0.3,0.3-0.6,0.6-0.9,0.8c-3,0.4-4.3,2.1-4.2,5c-4.8,3.9-6.6,8.7-4.8,14.8
			C334.4,173.2,335.6,173.4,337.4,173z"/>
		<path class="st2" d="M315.7,124.1c-4.3,2.5-7.9,5.8-12.4,1.6c-0.2-0.2-0.6-0.4-0.9-0.4c-9,1.9-5.3-1.8-4.1-7.1
			c2.4-10.7,9.2-15.3,18.5-18.2c2.8-0.9,6.3-2.1,7.7,0.7c1,2.1-0.1,5.5-2.1,7.7c-3.1,3.4-6.8,6.3-8.8,10.7
			C312.3,121.9,312.1,121.8,315.7,124.1z"/>
		<path class="st2" d="M302,101.5c-2.5,5.5-3.3,11.2-7.2,15.2c-2.2,2.2-5.6,3-8.5,1.2c-3.2-2-1.9-4.9-0.3-7.3c2.9-4.3,6.4-8,11.3-10
			C299.3,99.7,300.9,100,302,101.5z"/>
		<path class="st2" d="M331.3,143.2c0,0.9,0,1.8,0,2.6c-0.6-0.1-1.5,0.1-1.8-0.3c-2.3-2.3-4.9,0.5-7.5-0.4c-1-0.3,0,3.1-0.7,4.7
			c-0.5,1.2-1.2,2.2-1.9,3.3c-0.6-1.4-1.7-2-3.2-2.2c1.8-2.2,3.1-4.2,0.8-7c-1.4-1.7-0.2-3,1.4-4c4.1-2.6,8.3-4,13-1.8
			c-0.4,0.9-0.7,1.8-1.1,2.7c-1.9,0.6-4.2-0.4-5.9,1.5C326.9,141.3,329,142.3,331.3,143.2z"/>
		<path class="st2" d="M332.3,183.1c0.4-4.1,3.4-6.8,5.5-9.9c1.7,0,4.8-0.7,2.3,2.4C337.8,178.3,335.7,181.5,332.3,183.1z"/>
		<path class="st2" d="M340.3,156.2c-0.1-2.9,1.2-4.6,4.2-5C343.9,153.5,342.1,154.9,340.3,156.2z"/>
		<path class="st2" d="M314.2,179.2c1.5-1,2.4-0.6,3.1,1C316.2,180.1,315,180.2,314.2,179.2z"/>
		<path class="st2" d="M345.4,150.3c0.7-1.9,1.8-1.9,3.1-0.6C347.4,149.9,346.4,150.1,345.4,150.3z"/>
		<path class="st2" d="M337.4,173c-1.8,0.4-3,0.2-1.9-2.1C336.5,171.3,337.1,172.1,337.4,173z"/>
		<path class="st2" d="M323.2,182c0.2-0.4,0.3-1,0.9-0.7c0.1,0-0.1,0.6-0.1,0.9C323.8,182.2,323.5,182.2,323.2,182z"/>
		<path class="st2" d="M340.2,137.3c-0.7,0.2-1.4,0.5-2.1,0.7C338.6,137.2,339.4,137.1,340.2,137.3z"/>
		<path class="st2" d="M351,141.9c-0.1-0.2-0.2-0.4-0.2-0.6c0-0.1,0.1-0.2,0.2-0.3C351.2,141.4,351.2,141.7,351,141.9z"/>
		<path class="st2" d="M350.3,140.1c-0.3-0.4-0.7-0.7-1-1.1C349.6,139.4,350,139.8,350.3,140.1z"/>
		<path class="st0" d="M267.5,177.1c0.5,0.5,1.5,1.1,0.8,1.7c-0.5,0.5-0.8-0.5-1.1-1C267.1,177.6,267.2,177.3,267.5,177.1z"/>
		<path class="st0" d="M335.2,57.2c0.4-1.1,0.8-2.2,1.2-3.3c1.8,0.4,3,1.6,3.9,3.1c-0.1,1.4-0.7,2.4-2.3,2.2
			C337.1,58.5,336.1,57.9,335.2,57.2z"/>
		<path class="st2" d="M336.1,142.2c-0.3,0-0.6,0-0.8-0.2c0.5-0.1,1-0.2,1.5-0.3C336.5,141.8,336.3,142,336.1,142.2z"/>
		<path class="st2" d="M340.2,149.1c0.3-0.3,0.7-0.6,1-0.9C340.9,148.5,340.6,148.8,340.2,149.1z"/>
	</g>
	<g>
		<path class="st1" d="M573.6,190.9c0.4,0,0.7,0,1.1,0l0.3,0c11.7-2.8,23.4-5.5,35.1-8.3c10-2.4,20.1-3.2,30.3-3.6
			c0,6-0.1,12,0.1,17.9c0.1,2.3-0.3,3.2-3,3.1c-10.3-0.2-20.6-0.1-30.9-0.1c-37.1,0-74.1,0-111.2,0c-3.2-8.2-2.5-16.1,1.1-23.9
			c1.2-0.7,1.8-1.7,2-3c1.6-1.1,3.2-2.1,4.8-3.2c2,0.1,4,0.2,6,0.2c2.4,0.9,4.8,1.9,7.3,2.7c0.7,0.2,1.6,0.3,2.1-0.6
			c0.5-0.9,0.3-1.7-0.5-2.1c-4.1-1.9-6.3-5.3-7.8-9.3c-0.6-1.2-1.2-2.4-1.9-3.5c-1.7-2.6-1.1-4.4,1.7-5.4c4-1.4,4.4-4.1,3-7.5
			c-1.1-2.6-1.4-5.1-1-8.1c0.6-4.8-5.5-8.3-11.2-9.3c-3.1-0.5-6.3-0.3-9.5,0.1c-3.8,0.5-6.3-1.3-8.1-4.2c-1.5-2.4-1.6-4.4,1.4-6.3
			c3.9-2.4,7.7-5.2,11.3-8.1c2.2-1.8,4.9-3.4,5.3-7.1c-3.8,1.2-6.8,0.7-8.5-3.1c3.1-1.8,6.4-2.5,10-2.4c10.9,0.2,20.4-2.8,27.8-11.6
			c2.6-3.1,6.4-5.3,9.9-7.4c4.4-2.6,7.9-1,10,3.9c1.1,2.6,3.2,4.3,5.4,5.8c12.5,8.6,21.1,20.4,28.9,33.1c3.2,5.3,6.1,10.7,12.5,13.5
			c4,1.7,6.6,5.9,4.4,11.1c-0.8,1.8-0.7,4-1.6,5.7c-1.4,2.5-1.8,5.3-5.5,7c-3.2,1.4-5,6.3-7.2,9.8c-3.2,5.1-6.3,10.1-12.4,12.4
			c-2.8,1.1-4.8,3.4-2.7,6.9c-3.3,1.3-6.6,2.7-10.4,4.2C566.4,193.2,570,192,573.6,190.9z M560.4,137.3c-0.9-0.2-1.6-0.1-2.1,0.7
			c-2.3,0.1-4.6,0.2-6.9,0.2c-4.7-2.3-8.9-0.8-13,1.8c-1.5,1-2.8,2.3-1.4,4c2.3,2.8,1,4.8-0.8,7c-0.5,0.4-1.1,0.7-1.5,1.2
			c-3.1,3.9-5.7,8.2-11.6,8.2c-1.3,0-2.2,1.7-1.4,3.1c2.6,4.6-1.6,4.9-4,6.1c-0.9,0.4-2.5-0.1-2.7,1.3c-0.2,1.4,1.2,1.7,2.1,2.2
			c5.4,3.1,11.3,4.4,17.1,6.1c0.8,1,2,0.9,3.1,1c2,0.6,4,1.2,6,1.7c0.3,0.2,0.5,0.2,0.9,0.2c2.7,0.8,5.2,3,8.2,1
			c3.5-1.6,5.5-4.8,7.8-7.6c2.6-3.1-0.6-2.4-2.3-2.4l-0.3-0.2c-0.4-0.9-0.9-1.7-1.9-2.1c-1.8-6,0-10.9,4.8-14.8
			c1.8-1.3,3.6-2.6,4.2-5c0.3-0.3,0.6-0.6,0.9-0.8c1-0.2,2.1-0.4,3.1-0.6c4.4-1.4,1.3-5.3,2.5-7.8c0.2-0.3,0.2-0.6,0-0.8
			c-0.2-0.3-0.5-0.7-0.7-1c-0.3-0.4-0.7-0.7-1-1.1C566.9,136.3,563.6,137.1,560.4,137.3z M535.9,124.1c-3.6-2.3-3.5-2.2-2.2-4.9
			c2-4.4,5.7-7.3,8.8-10.7c2-2.2,3.2-5.6,2.1-7.7c-1.4-2.8-4.8-1.6-7.7-0.7c-9.3,2.9-16.1,7.6-18.5,18.2c-1.2,5.2-4.9,8.9,4.1,7.1
			c0.3-0.1,0.7,0.1,0.9,0.4C528,129.9,531.6,126.6,535.9,124.1z M522.2,101.5c-1.1-1.5-2.7-1.8-4.7-1c-4.9,2.1-8.4,5.8-11.3,10
			c-1.6,2.4-2.9,5.3,0.3,7.3c2.9,1.8,6.3,1,8.5-1.2C518.8,112.7,519.7,107,522.2,101.5z"/>
		<path class="st1" d="M440.4,146.1c10.5-4.9,19.5-0.4,28.6,4.3c6.4,3.3,13,6.4,19.6,9.3c1.9,0.8,4.2,0.4,6.4,0.6
			c0.9,1.8-0.7,3.2-0.8,4.8c-0.6,0.4-1.2,0.9-1.8,1.3c-1,0.2-1.6,0.8-1.8,1.8c-0.6,1.3-1.3,2.6-1.9,3.9c-0.1,1-0.1,2.1-0.2,3.1
			c-0.1,0.3-0.1,0.6-0.2,1c-0.2,0.4-0.5,0.7-0.7,1.1c-0.2,0.2-0.3,0.4-0.3,0.7c-6.7,3.3-7.1,10.1-9.3,16c-0.5,1.4-0.3,2.3,0.9,2.9
			c1.3,0.6,2.6,0.7,3.5-0.8c1-1.7,2.1-3.4,2-5.5c0-2-0.1-4,0.4-5.9c0.5-2.1,2.2-2.7,4.3-2.4c2.5,0.4,1.6,2.5,1.3,3.5
			c-1.2,3.6-0.9,7.9-5,10.2c-1.6,0.8-2.1,2.5-1.9,4.3c-13.3,0-26.7-0.1-40,0.1c-2.5,0-3.1-0.6-3.1-3.1
			C440.5,180.1,440.4,163.1,440.4,146.1z"/>
		<path class="st1" d="M640.4,155.1c-3.6-2.4-7.7-1.8-11.7-1.9c-3.1-0.1-6-0.1-8.2-2.5c-1.2-1.3-2.5-1.6-3.9-0.6
			c-2.5,1.8-4-0.1-5.5-1.4c-0.9-0.8-1.9-2-1.3-3.5c0.6-1.4,2-0.9,3.1-1c2.7-0.2,6.4,0.2,2.3-4c-0.9-0.9-0.3-1.8,0.2-2.7
			c0.6-1,1.4-1.9,1.8-2.9c3.2-8,3.1-7.9,10.7-4.3c3,1.4,5.5,5.1,9.7,2.5c1.2-0.7,1,1.9,2.3,2c0.1,0,0.2-0.1,0.3-0.1
			c0.1-0.1,0.2-0.3,0.3-0.4C640.4,141.1,640.4,148.1,640.4,155.1z"/>
		<path class="st1" d="M640.4,88.1c-3.4,1-4.6-0.2-4-3.7c0.7-4.3,1.6-8.7,1.7-13.1c0.1-4.3-0.1-8.7-0.4-13
			c-0.4-6.1,0.5-11.6,2.7-17.2C640.4,56.7,640.4,72.4,640.4,88.1z"/>
		<path class="st1" d="M489.8,21c3.2,0.2,6.4-0.2,9.5,1.8c2.8,1.8,2.5,3.3,0.2,4.1c-7,2.6-11.4,8.3-16.6,13.1
			c-5.4,5-9.6,5.3-15.9,1.4c-0.7-0.4-1.5-1.1-2.2-1c-4.7,0.2-5.5-1.6-3.1-5.4c1.1-1.7-0.3-2.5-1.5-2.9c-2.2-0.8-4.4-1.7-6.6-1.9
			c-2.5-0.3-3.8-2-3.7-3.9c0.1-1.8,2.5-1.9,4-2.1c5.5-0.8,11.1-2,16.6-2C477,22.2,483.4,21.2,489.8,21z"/>
		<path class="st1" d="M558.1,61c-4.6,0-9-2.3-11.7-5.1c-3.7-3.7-4.6-1.8-6.3,1c-0.6,1-1.1,1.9-2,3.3c-1.3-12.5-11.9-15.9-19.9-21.6
			c-1.4-1-4.4-0.8-3.5-3.2c0.9-2.3,3.2-1.1,5.1-0.6c6.8,1.8,13.1,4.9,18.8,8.7c4.7,3.1,8.4,7.7,12.5,11.6c0.9,1.7,2.4,2.1,4.1,2.1
			c0.9,0.6,1.8,1.3,2.8,1.9C558.1,59.8,558.1,60.4,558.1,61z"/>
		<path class="st1" d="M554.5,52c1.5-2.7-1.2-4.2-2.2-6.4c9.6,1.9,17.5,7,26.1,10.2c0.6,0.2,0.8,1.2,0.3,1.7
			c-0.4,0.4-1.3,0.6-1.8,0.5c-2.2-0.7-4.4-1.3-7-0.6c0.4,0.9,0.8,1.8,1.2,2.7c-0.8,0-1.6-0.2-2,0.8c0.2-0.1,0.3-0.3,0.5-0.4
			c-0.3-0.1-0.7-0.2-1-0.3c-3.3,0.3-5.4-2.4-8.1-3.3c-0.9-1.5-2.1-2.7-3.9-3.1C555.9,53.2,555.2,52.6,554.5,52z"/>
		<path class="st1" d="M478.9,68.9c0.5,0.4,1,0.8,1.5,1.2c0.3,0.3,0.7,0.7,1,1c1.8,1.7,3.2,4.2,6.1,1.1c0.7-0.8,2.8-0.3,4.2,0.6
			c2.6,1.6,5.3,3.1,7.8,4.9c-4.4-0.5-8.7,2.6-13,0.2c-2.2-1.8-4.8-2.8-7.4-3.8c-1.2-1.4-2.3-2.7-3.5-4.1c0-1,0-2,0-2.9
			c0.3,0,0.6,0,0.8,0C477.2,67.8,478.1,68.3,478.9,68.9z"/>
		<path class="st1" d="M478.4,82.2c1.9,1.2,1.9,1.2-2,3.9c-0.7-0.4-1.3-0.7-2-1.1c-0.4-1-0.9-1.7-2.1-1.7c-0.6-0.1-1.3-0.1-1.9-0.2
			c-1.9-0.4-5.4,1-5.2-1.7c0.1-2.1,3.7-1.4,5.7-1.1C473.4,80.5,475.9,81.5,478.4,82.2z"/>
		<path class="st1" d="M521.1,74.7c2.1-1,3.8-1.7,5.3-2.7c1.9-1.3,3.5-0.2,5.1,0.4c0.7,0.3,0.7,1.1,0.2,1.6
			c-1.2,1.3-2.9,1.6-4.5,1.6C525.3,75.7,523.4,75.1,521.1,74.7z"/>
		<path class="st1" d="M501.7,77.6c4-1.5,7.3,1.1,10.8,0.5c0.7-0.1,1.5,0.4,1.2,1.1c-0.5,1.1-1.6,2-2.7,1.7
			C508,80.1,504.6,80.1,501.7,77.6z"/>
		<path class="st1" d="M625.5,56.8c0-3-0.1-5.9,0-8.9c0-1.4,0.7-2.7,2.4-2.4c1.8,0.3,1,1.6,0.7,2.7
			C627.7,51.1,627.9,54.3,625.5,56.8z"/>
		<path class="st1" d="M479.6,88c1.6-1.5,3.8-1,5.6-1.8c1.8,3.2,0,3.7-2.6,3.3C481.6,89.3,480.6,88.5,479.6,88z"/>
		<path class="st1" d="M535.5,64.1c-0.5,3.1-3.1,4.2-5.2,5.8c0.7-2.8,2.6-4.6,4.5-6.4C535,63.7,535.2,63.9,535.5,64.1z"/>
		<path class="st1" d="M534.8,63.6c0.4-0.4,0.8-0.8,1.2-1.2c0.6,0.8,0.2,1.4-0.6,1.8C535.2,63.9,535,63.7,534.8,63.6z"/>
		<path class="st1" d="M539.5,153.2c0.6-1.1,1.3-2.2,1.9-3.3c0.7-1.6-0.3-5,0.7-4.7c2.6,0.9,5.2-2,7.5,0.4c0.4,0.4,1.2,0.2,1.8,0.3
			c2.8,0.1,5.6,0.1,8.3,0.2c1.3,0.1,3-0.1,1.6,2.1c-0.3,0.3-0.7,0.6-1,0.9c-3.4,2.5-7,4.8-10.3,7.6c-3.9,3.3-8.1,4.4-13.1,3
			C536.5,157.1,539.2,155.6,539.5,153.2z"/>
		<path class="st1" d="M551.4,143.2c-2.2-0.9-4.4-2-7-0.8c1.7-1.9,4-0.9,5.9-1.5c1.5,1.2,3.2,1.4,5.1,1c0.3,0.2,0.5,0.2,0.8,0.2
			C555,143.9,553,142.6,551.4,143.2z"/>
	</g>
</g>
<g>
</g>
<g>
</g>
<g>
</g>
<g>
</g>
<g>
</g>
<g>
</g>
<g>
</g>
<g>
</g>
<g>
</g>
<g>
</g>
<g>
</g>
<g>
</g>
<g>
</g>
<g>
</g>
<g>
</g>
</svg>
