<?xml version="1.0" encoding="utf-8"?>
<!-- Generator: Adobe Illustrator 17.1.0, SVG Export Plug-In . SVG Version: 6.00 Build 0)  -->
<!DOCTYPE svg PUBLIC "-//W3C//DTD SVG 1.1//EN" "http://www.w3.org/Graphics/SVG/1.1/DTD/svg11.dtd">
<svg version="1.1" id="Layer_1" xmlns="http://www.w3.org/2000/svg" xmlns:xlink="http://www.w3.org/1999/xlink" x="0px" y="0px"
	 viewBox="0 0 586.4 235.7" style="enable-background:new 0 0 586.4 235.7;" xml:space="preserve">
<style type="text/css">
	.st0{fill:#010000;}
	.st1{fill:#080202;}
	.st2{fill:#FC0000;}
</style>
<g>
	<g>
		<path class="st0" d="M141.1,122.3c0.3,1.3,0.5,2.6,0.8,3.8c0.1,0.3,0.2,0.6,0.3,0.9c2.4,7.5,0.3,14.9-1.7,21.7
			c-5.3,17.7-8.2,35.9-12.1,53.9c-1.1,5.1-0.1,10.2,0.2,15.1c0.4,6.1-2.2,11.5-2.5,17.3c-39.3,0-78.7,0-118,0
			c1.1-7.3,1.9-14.7,3.6-21.9c0.8-3.5,0.5-6.8,0.4-10.2c0-10.5-0.3-21,0-31.4c0.4-12.1,1.5-24.3,6.1-35.4c4-10,10.6-18.7,21.2-23.1
			c3.8-1.6,5.9-3.7,4.1-7.9c-1.2-2.7,0.1-4.8,1.5-7.2c-2.4-1.3-4.5-0.9-6.7,0.1c-1.1,0.5-2.4,1.8-3.6,0.6c-1.2-1.2-0.8-2.8-0.2-4.2
			c1.1-2.5,2.8-4.6,5.4-5.6c2.6-1,5.3-1.7,8-2.5c1.2-0.3,2.4-0.3,3,1c1.1,2.7,3.3,2,5.1,1.5c1.4-0.4,1.3-1.9,0.8-3
			c-0.9-1.8-1-4.4-3.8-4.7c-4.4-0.5-7.8-6.4-5.1-10.1c3.3-4.5,3-10,5.8-14.5c0.8-1.3,1.2-3.2,2.4-4.3c3.3-2.7,2-7.1,4-10.2
			c0.7,0.2,1.3,0.5,2,0.7c3.9-1.8,5.7-6.4,10.4-7.3c0.7,8.3-2.7,16-3.6,24c-0.6,5.1-1.2,10.1-1.7,15.2c-0.2,1.9,0.2,3.8,1.7,5
			c4.6,3.8,8,8.2,7.4,14.6c-0.1,1.1-0.3,2.4,1.7,2.2c4.4-0.5,7.1,3.3,4.6,7.3c-1.9,3.1-2.5,6-2.4,9.4c0,1.2,0.1,2.4-1,3.2
			c-6.7,5.2-2.4,11.2-0.2,16c5.1,11.5,12.7,21.6,20.2,31.7c2.9,3.8,4.3,3.8,7-0.1c3.5-5.1,3.9-11.1,4.9-16.9
			c0.9-5,1.4-10.1,1.9-15.2c0.4-4-1.6-7.4-2.9-10.9c-1.1-3-1.6-6-0.1-9c0.1-0.3,0.2-0.6,0.3-0.9c-0.1-1.7,0.8-2.9,1.8-4.1
			c1.2,0.9,2.6,1.1,4.1,1.1l0,0c0.4,1,0.7,2,1.1,3c0.7,0.9,1.3,1.9,2,2.8c0.3,1.1,0.8,1.7,2,1c2,0.5,4,0.9,5.9,1.4
			c1.4,2.8,3,4.7,6,1.7c0.6,0,1.2,0,1.8,0.1C136.9,119.4,139,120.9,141.1,122.3z M116,116.1L116,116.1L116,116.1z M65.7,116.3
			c-0.1,0.6-0.1,1.2-0.2,1.7c0.2-0.1,0.6-0.1,0.7-0.2C66.7,117.1,66.9,116.4,65.7,116.3c0.3,0.2,0,1.2,0.9,0.6
			C66.3,116.8,66,116.5,65.7,116.3z M42.1,119.2c3.7-0.8,6.5-1.8,9.4-0.5c1.2,0.5,3-0.4,3.1-1.7c0.3-2.6-1.5-4.6-2.8-6.6
			c-1-1.4-1.6,0-2.5,0.1C44.5,111.4,45.7,116.6,42.1,119.2z M73.9,97.1c0.1-1.4,0-3.7-1.5-3.4c-2.1,0.5-3,2.9-3.3,5.1
			c-0.2,1.5-0.3,3.1,2,3.2C75,102.2,72.8,98.7,73.9,97.1z M96.2,232.9c1.1,0.1,1.6-0.5,1.7-1.4c0.2-1.2,0-2.6-1.2-2.9
			c-1.1-0.3-1.4,1-1.6,1.9C94.9,231.6,95.1,232.5,96.2,232.9z"/>
		<path class="st1" d="M116,108.1c-1.5,0-2.9-0.2-4.1-1.1c-0.1-1.9,1.4-3.1,2.3-4.3c4.4-5.4,5.9-11.4,6-18.4
			c0.1-7.9,1.8-15.7-1.1-23.5c-0.4-1.1-0.2-2.4,1-3.1c1.6-0.9,1.8,0.8,2.5,1.5c6.3,6.9,6.8,8.2,6.4,18.5c0,1.3,0,2.7-0.8,3.9
			C122.9,89.9,121.7,100,116,108.1z"/>
		<path class="st1" d="M79.3,22.3c-5.5,4.8-11.1,9.5-16,13.8c-1.1-5.4,4.6-11.7,14.8-14.8C78.6,21.6,79,21.9,79.3,22.3z"/>
		<path class="st1" d="M141.1,122.3c-2.1-1.4-4.2-2.8-6.3-4.3c-0.8-1-1.7-2-2.3-3.1c-0.8-1.7,0.3-2.5,1.9-2.5
			C138.4,112.5,142.3,118.3,141.1,122.3z"/>
		<path class="st1" d="M77.1,67.1c-0.3,1.8,0.5,4.6-2,4.3c-1.6-0.2-2-3.1-2.1-5c-0.1-1.9,1-3.9,2.5-3.7
			C77.8,63.1,76.6,65.7,77.1,67.1z"/>
		<path class="st1" d="M133.1,118c-3,3-4.7,1.1-6-1.7C129.3,115.8,131.3,116.3,133.1,118z"/>
		<g>
			<path class="st2" d="M200.1,4.1c0-3.4-0.7-4.1-4.1-4.1C130.7,0.1,65.3,0.1,0,0.1c0,10.7,0,21.3,0,32c0,6.7,0,13.3,0,20
				c0,58.3,0,116.7,0,175c0,8,0,8,8,8c1.1-7.3,1.9-14.7,3.6-21.9c0.8-3.5,0.5-6.8,0.4-10.2c0-10.5-0.3-21,0-31.4
				c0.4-12.1,1.5-24.3,6.1-35.4c4-10,10.6-18.7,21.2-23.1c3.8-1.6,5.9-3.7,4.1-7.9c-1.2-2.7,0.1-4.8,1.5-7.2
				c-2.4-1.3-4.5-0.9-6.7,0.1c-1.1,0.5-2.4,1.8-3.6,0.6c-1.2-1.2-0.8-2.8-0.2-4.2c1.1-2.5,2.8-4.6,5.4-5.6c2.6-1,5.3-1.7,8-2.5
				c1.2-0.3,2.4-0.3,3,1c1.1,2.7,3.3,2,5.1,1.5c1.4-0.4,1.3-1.9,0.8-3c-0.9-1.8-1-4.4-3.8-4.7c-4.4-0.5-7.8-6.4-5.1-10.1
				c3.3-4.5,3-10,5.8-14.5c0.8-1.3,1.2-3.2,2.4-4.3c3.3-2.7,2-7.1,4-10.2c0.5-1.2,1.3-2.1,2.5-2.7c1.1,1.4,0.1,2.4-0.5,3.5
				c3.9-1.8,5.7-6.4,10.4-7.3c0.7,8.3-2.7,16-3.6,24c-0.6,5.1-1.2,10.1-1.7,15.2c-0.2,1.9,0.2,3.8,1.7,5c4.6,3.8,8,8.2,7.4,14.6
				c-0.1,1.1-0.3,2.4,1.7,2.2c4.4-0.5,7.1,3.3,4.6,7.3c-1.9,3.1-2.5,6-2.4,9.4c0,1.2,0.1,2.4-1,3.2c-6.7,5.2-2.4,11.2-0.2,16
				c5.1,11.5,12.7,21.6,20.2,31.7c2.9,3.8,4.3,3.8,7-0.1c3.5-5.1,3.9-11.1,4.9-16.9c0.9-5,1.4-10.1,1.9-15.2c0.4-4-1.6-7.4-2.9-10.9
				c-1.1-3-1.6-6-0.1-9c0-0.3,0.1-0.7,0.3-0.9c-0.1-1.7,0.8-2.9,1.8-4.1c-0.1-1.9,1.4-3.1,2.3-4.3c4.4-5.4,5.9-11.4,6-18.4
				c0.1-7.9,1.8-15.7-1.1-23.5c-0.4-1.1-0.2-2.4,1-3.1c1.6-0.9,1.8,0.8,2.5,1.5c6.3,6.9,6.8,8.2,6.4,18.5c0,1.3,0,2.7-0.8,3.9
				c-5.3,8.2-6.6,18.4-12.2,26.4c1.2,0.7,1,1.9,1.1,3c0.7,0.9,1.3,1.9,2,2.8c0.7,0.3,1.3,0.7,2,1c2,0.5,4,0.9,5.9,1.4
				c2.3-0.5,4.3,0.1,6,1.7c0.6,0,1.2,0,1.8,0.1c-0.8-1-1.7-2-2.3-3.1c-0.8-1.7,0.3-2.5,1.9-2.5c4,0.1,7.9,5.9,6.7,9.9
				c0.3,1.3,0.5,2.6,0.8,3.8c0.2,0.3,0.3,0.6,0.3,0.9c2.4,7.5,0.3,14.9-1.7,21.7c-5.3,17.7-8.2,35.9-12.1,53.9
				c-1.1,5.1-0.1,10.2,0.2,15.1c0.4,6.1-2.2,11.5-2.5,17.3c23.3,0,46.7-0.1,70,0.1c3.4,0,4.1-0.7,4.1-4.1
				C200,155.4,200,79.8,200.1,4.1z M75.1,71.4c-1.6-0.2-2-3.1-2.1-5c-0.1-1.9,1-3.9,2.5-3.7c2.4,0.3,1.2,3,1.6,4.4
				C76.8,69,77.5,71.8,75.1,71.4z M63.4,36.1c-1.1-5.4,4.6-11.7,14.8-14.8c0.4,0.3,0.8,0.7,1.1,1C73.8,27,68.3,31.8,63.4,36.1z
				 M83.3,70.9c-0.5-0.1-1.1-0.8-1.1-1.3c0-0.9,0.6-1.4,1.6-1.3c0.8,0.1,1,0.7,1.1,1.3C84.7,70.5,84.2,71.2,83.3,70.9z M84.6,7
				c0.8-0.1,1.1-0.5,1-1.3c-0.5-0.9-1-1.8-1.9-2.1c0.9,0.3,1.4,1.2,1.9,2.1C85.7,6.4,85.4,6.9,84.6,7z"/>
			<polygon class="st2" points="116,108.1 116,108.1 116,108.1 			"/>
		</g>
		<path class="st1" d="M84.9,69.6c-0.2,0.9-0.7,1.5-1.6,1.3c-0.5-0.1-1.1-0.8-1.1-1.3c0-0.9,0.6-1.4,1.6-1.3
			C84.5,68.4,84.7,69,84.9,69.6z"/>
		<path class="st1" d="M62,42.8c-0.7-0.2-1.3-0.5-2-0.7c0.5-1.2,1.3-2.1,2.5-2.7C63.6,40.7,62.5,41.7,62,42.8z"/>
		<path class="st1" d="M121.1,114.9c-1.2,0.7-1.7,0.1-2-1C119.8,114.2,120.4,114.6,121.1,114.9z"/>
		<path class="st1" d="M117.1,111c-0.4-1-0.7-2-1.1-3C117.3,108.7,117,110,117.1,111z"/>
		<path class="st1" d="M110.1,111.1c-0.1,0.3-0.2,0.6-0.3,0.9C109.9,111.7,109.9,111.4,110.1,111.1z"/>
		<path class="st1" d="M142.1,127c-0.1-0.3-0.2-0.6-0.3-0.9C142.1,126.4,142.2,126.7,142.1,127z"/>
		<path class="st2" d="M42.1,119.2c3.6-2.6,2.4-7.9,7.3-8.6c0.9-0.1,1.5-1.6,2.5-0.1c1.4,2,3.1,4,2.8,6.6c-0.1,1.3-1.9,2.2-3.1,1.7
			C48.6,117.4,45.8,118.4,42.1,119.2z"/>
		<path class="st2" d="M73.9,97.1c-1.1,1.6,1.1,5.1-2.9,5c-2.2-0.1-2.2-1.7-2-3.2c0.3-2.2,1.2-4.6,3.3-5.1
			C73.9,93.4,74,95.6,73.9,97.1z"/>
		<path class="st2" d="M96.2,232.9c-1.2-0.4-1.3-1.3-1.1-2.3c0.1-0.9,0.5-2.2,1.6-1.9c1.2,0.3,1.4,1.7,1.2,2.9
			C97.8,232.4,97.3,233,96.2,232.9z"/>
		<path class="st2" d="M65.7,116.2c1.2,0.2,1,0.9,0.5,1.6c-0.1,0.2-0.5,0.2-0.7,0.2c0.1-0.6,0.1-1.2,0.2-1.7L65.7,116.2z"/>
		<path class="st1" d="M116,116.1L116,116.1L116,116.1z"/>
		<path class="st2" d="M65.7,116.3c0.3,0.2,0.6,0.4,0.9,0.6C65.7,117.6,66,116.6,65.7,116.3C65.7,116.2,65.7,116.3,65.7,116.3z"/>
		<path class="st1" d="M116,116.1L116,116.1L116,116.1z"/>
	</g>
	<g>
		<path class="st0" d="M584.3,122.3c0.3,1.3,0.5,2.6,0.8,3.8c0.1,0.3,0.2,0.6,0.3,0.9c2.4,7.5,0.3,14.9-1.7,21.7
			c-5.3,17.7-8.2,35.9-12.1,53.9c-1.1,5.1-0.1,10.2,0.2,15.1c0.4,6.1-2.2,11.5-2.5,17.3c-39.3,0-78.7,0-118,0
			c1.1-7.3,1.9-14.7,3.6-21.9c0.8-3.5,0.5-6.8,0.4-10.2c0-10.5-0.3-21,0-31.4c0.4-12.1,1.5-24.3,6.1-35.4c4-10,10.6-18.7,21.2-23.1
			c3.8-1.6,5.9-3.7,4.1-7.9c-1.2-2.7,0.1-4.8,1.5-7.2c-2.4-1.3-4.5-0.9-6.7,0.1c-1.1,0.5-2.4,1.8-3.6,0.6c-1.2-1.2-0.8-2.8-0.2-4.2
			c1.1-2.5,2.8-4.6,5.4-5.6c2.6-1,5.3-1.7,8-2.5c1.2-0.3,2.4-0.3,3,1c1.1,2.7,3.3,2,5.1,1.5c1.4-0.4,1.3-1.9,0.8-3
			c-0.9-1.8-1-4.4-3.8-4.7c-4.4-0.5-7.8-6.4-5.1-10.1c3.3-4.5,3-10,5.8-14.5c0.8-1.3,1.2-3.2,2.4-4.3c3.3-2.7,2-7.1,4-10.2
			c0.7,0.2,1.3,0.5,2,0.7c3.9-1.8,5.7-6.4,10.4-7.3c0.7,8.3-2.7,16-3.6,24c-0.6,5.1-1.2,10.1-1.7,15.2c-0.2,1.9,0.2,3.8,1.7,5
			c4.6,3.8,8,8.2,7.4,14.6c-0.1,1.1-0.3,2.4,1.7,2.2c4.4-0.5,7.1,3.3,4.6,7.3c-1.9,3.1-2.5,6-2.4,9.4c0,1.2,0.1,2.4-1,3.2
			c-6.7,5.2-2.4,11.2-0.2,16c5.1,11.5,12.7,21.6,20.2,31.7c2.9,3.8,4.3,3.8,7-0.1c3.5-5.1,3.9-11.1,4.9-16.9
			c0.9-5,1.4-10.1,1.9-15.2c0.4-4-1.6-7.4-2.9-10.9c-1.1-3-1.6-6-0.1-9c0.1-0.3,0.2-0.6,0.3-0.9c-0.1-1.7,0.8-2.9,1.8-4.1
			c1.2,0.9,2.6,1.1,4.1,1.1l0,0c0.4,1,0.7,2,1.1,3c0.7,0.9,1.3,1.9,2,2.8c0.3,1.1,0.8,1.7,2,1c2,0.5,4,0.9,5.9,1.4
			c1.4,2.8,3,4.7,6,1.7c0.6,0,1.2,0,1.8,0.1C580.1,119.4,582.2,120.9,584.3,122.3z M559.2,116.1L559.2,116.1L559.2,116.1z
			 M509,116.3c-0.1,0.6-0.1,1.2-0.2,1.7c0.2-0.1,0.6-0.1,0.7-0.2C510,117.1,510.2,116.4,509,116.3c0.3,0.2,0,1.2,0.9,0.6
			C509.6,116.8,509.3,116.5,509,116.3z M485.4,119.2c3.7-0.8,6.5-1.8,9.4-0.5c1.2,0.5,3-0.4,3.1-1.7c0.3-2.6-1.5-4.6-2.8-6.6
			c-1-1.4-1.6,0-2.5,0.1C487.8,111.4,488.9,116.6,485.4,119.2z M517.1,97.1c0.1-1.4,0-3.7-1.5-3.4c-2.1,0.5-3,2.9-3.3,5.1
			c-0.2,1.5-0.3,3.1,2,3.2C518.3,102.2,516,98.7,517.1,97.1z M539.5,232.9c1.1,0.1,1.6-0.5,1.7-1.4c0.2-1.2,0-2.6-1.2-2.9
			c-1.1-0.3-1.4,1-1.6,1.9C538.2,231.6,538.3,232.5,539.5,232.9z"/>
		<path class="st1" d="M559.3,108.1c-1.5,0-2.9-0.2-4.1-1.1c-0.1-1.9,1.4-3.1,2.3-4.3c4.4-5.4,5.9-11.4,6-18.4
			c0.1-7.9,1.8-15.7-1.1-23.5c-0.4-1.1-0.2-2.4,1-3.1c1.6-0.9,1.8,0.8,2.5,1.5c6.3,6.9,6.8,8.2,6.4,18.5c0,1.3,0,2.7-0.8,3.9
			C566.2,89.9,564.9,100,559.3,108.1z"/>
		<path class="st1" d="M522.6,22.3c-5.5,4.8-11.1,9.5-16,13.8c-1.1-5.4,4.6-11.7,14.8-14.8C521.8,21.6,522.2,21.9,522.6,22.3z"/>
		<path class="st1" d="M584.3,122.3c-2.1-1.4-4.2-2.8-6.3-4.3c-0.8-1-1.7-2-2.3-3.1c-0.8-1.7,0.3-2.5,1.9-2.5
			C581.7,112.5,585.5,118.3,584.3,122.3z"/>
		<path class="st1" d="M520.3,67.1c-0.3,1.8,0.5,4.6-2,4.3c-1.6-0.2-2-3.1-2.1-5c-0.1-1.9,1-3.9,2.5-3.7
			C521.1,63.1,519.9,65.7,520.3,67.1z"/>
		<path class="st1" d="M576.3,118c-3,3-4.7,1.1-6-1.7C572.6,115.8,574.6,116.3,576.3,118z"/>
		<path class="st1" d="M528.1,69.6c-0.2,0.9-0.7,1.5-1.6,1.3c-0.5-0.1-1.1-0.8-1.1-1.3c0-0.9,0.6-1.4,1.6-1.3
			C527.8,68.4,528,69,528.1,69.6z"/>
		<path class="st1" d="M505.2,42.8c-0.7-0.2-1.3-0.5-2-0.7c0.5-1.2,1.3-2.1,2.5-2.7C506.8,40.7,505.8,41.7,505.2,42.8z"/>
		<path class="st1" d="M564.3,114.9c-1.2,0.7-1.7,0.1-2-1C563,114.2,563.7,114.6,564.3,114.9z"/>
		<path class="st1" d="M560.4,111c-0.4-1-0.7-2-1.1-3C560.5,108.7,560.2,110,560.4,111z"/>
		<path class="st1" d="M553.4,111.1c-0.1,0.3-0.2,0.6-0.3,0.9C553.1,111.7,553.2,111.4,553.4,111.1z"/>
		<path class="st1" d="M585.4,127c-0.1-0.3-0.2-0.6-0.3-0.9C585.3,126.4,585.4,126.7,585.4,127z"/>
		<path class="st1" d="M559.2,116.1L559.2,116.1L559.2,116.1z"/>
		<path class="st1" d="M559.3,116.1L559.3,116.1L559.3,116.1z"/>
	</g>
	<g>
		<g>
			<polygon class="st2" points="337.4,108.5 337.4,108.5 337.4,108.5 			"/>
			<path class="st2" d="M421.5,4.6c0-3.4-0.7-4.1-4.1-4.1c-65.3,0.1-130.7,0.1-196,0.1c0,10.7,0,21.3,0,32c0,6.7,0,13.3,0,20
				c0,58.3,0,116.7,0,175c0,8,0,8,8,8c1.1-7.3,1.9-14.7,3.6-21.9c0.8-3.5,0.5-6.8,0.4-10.2c0-10.5-0.3-21,0-31.4
				c0.4-12.1,1.5-24.3,6.1-35.4c4-10,10.6-18.7,21.2-23.1c3.8-1.6,5.9-3.7,4.1-7.9c-1.2-2.7,0.1-4.8,1.5-7.2
				c-2.4-1.3-4.5-0.9-6.7,0.1c-1.1,0.5-2.4,1.8-3.6,0.6c-1.2-1.2-0.8-2.8-0.2-4.2c1.1-2.5,2.8-4.6,5.4-5.6c2.6-1,5.3-1.7,8-2.5
				c1.2-0.3,2.4-0.3,3,1c1.1,2.7,3.3,2,5.1,1.5c1.4-0.4,1.3-1.9,0.8-3c-0.9-1.8-1-4.4-3.8-4.7c-4.4-0.5-7.8-6.4-5.1-10.1
				c3.3-4.5,3-10,5.8-14.5c0.8-1.3,1.2-3.2,2.4-4.3c3.3-2.7,2-7.1,4-10.2c0.5-1.2,1.3-2.1,2.5-2.7c1.1,1.4,0.1,2.4-0.5,3.5
				c3.9-1.8,5.7-6.4,10.4-7.3c0.7,8.3-2.7,16-3.6,24c-0.6,5.1-1.2,10.1-1.7,15.2c-0.2,1.9,0.2,3.8,1.7,5c4.6,3.8,8,8.2,7.4,14.6
				c-0.1,1.1-0.3,2.4,1.7,2.2c4.4-0.5,7.1,3.3,4.6,7.3c-1.9,3.1-2.5,6-2.4,9.4c0,1.2,0.1,2.4-1,3.2c-6.7,5.2-2.4,11.2-0.2,16
				c5.1,11.5,12.7,21.6,20.2,31.7c2.9,3.8,4.3,3.8,7-0.1c3.5-5.1,3.9-11.1,4.9-16.9c0.9-5,1.4-10.1,1.9-15.2c0.4-4-1.6-7.4-2.9-10.9
				c-1.1-3-1.6-6-0.1-9c0-0.3,0.1-0.7,0.3-0.9c-0.1-1.7,0.8-2.9,1.8-4.1c-0.1-1.9,1.4-3.1,2.3-4.3c4.4-5.4,5.9-11.4,6-18.4
				c0.1-7.9,1.8-15.7-1.1-23.5c-0.4-1.1-0.2-2.4,1-3.1c1.6-0.9,1.8,0.8,2.5,1.5c6.3,6.9,6.8,8.2,6.4,18.5c0,1.3,0,2.7-0.8,3.9
				c-5.3,8.2-6.6,18.4-12.2,26.4c1.2,0.7,1,1.9,1.1,3c0.7,0.9,1.3,1.9,2,2.8c0.7,0.3,1.3,0.7,2,1c2,0.5,4,0.9,5.9,1.4
				c2.3-0.5,4.3,0.1,6,1.7c0.6,0,1.2,0,1.8,0.1c-0.8-1-1.7-2-2.3-3.1c-0.8-1.7,0.3-2.5,1.9-2.5c4,0.1,7.9,5.9,6.7,9.9
				c0.3,1.3,0.5,2.6,0.8,3.8c0.2,0.3,0.3,0.6,0.3,0.9c2.4,7.5,0.3,14.9-1.7,21.7c-5.3,17.7-8.2,35.9-12.1,53.9
				c-1.1,5.1-0.1,10.2,0.2,15.1c0.4,6.1-2.2,11.5-2.5,17.3c23.3,0,46.7-0.1,70,0.1c3.4,0,4.1-0.7,4.1-4.1
				C421.3,155.9,421.3,80.2,421.5,4.6z M296.4,71.9c-1.6-0.2-2-3.1-2.1-5c-0.1-1.9,1-3.9,2.5-3.7c2.4,0.3,1.2,3,1.6,4.4
				C298.2,69.4,298.9,72.2,296.4,71.9z M284.7,36.5c-1.1-5.4,4.6-11.7,14.8-14.8c0.4,0.3,0.8,0.7,1.1,1
				C295.2,27.5,289.7,32.3,284.7,36.5z M304.7,71.3c-0.5-0.1-1.1-0.8-1.1-1.3c0-0.9,0.6-1.4,1.6-1.3c0.8,0.1,1,0.7,1.1,1.3
				C306.1,71,305.6,71.6,304.7,71.3z"/>
		</g>
		<path class="st2" d="M263.5,119.7c3.6-2.6,2.4-7.9,7.3-8.6c0.9-0.1,1.5-1.6,2.5-0.1c1.4,2,3.1,4,2.8,6.6c-0.1,1.3-1.9,2.2-3.1,1.7
			C269.9,117.9,267.2,118.9,263.5,119.7z"/>
		<path class="st2" d="M295.3,97.5c-1.1,1.6,1.1,5.1-2.9,5c-2.2-0.1-2.2-1.7-2-3.2c0.3-2.2,1.2-4.6,3.3-5.1
			C295.3,93.8,295.4,96.1,295.3,97.5z"/>
		<path class="st2" d="M317.6,233.4c-1.2-0.4-1.3-1.3-1.1-2.3c0.1-0.9,0.5-2.2,1.6-1.9c1.2,0.3,1.4,1.7,1.2,2.9
			C319.1,232.8,318.7,233.5,317.6,233.4z"/>
		<path class="st2" d="M287.1,116.7c1.2,0.2,1,0.9,0.5,1.6c-0.1,0.2-0.5,0.2-0.7,0.2c0.1-0.6,0.1-1.2,0.2-1.7L287.1,116.7z"/>
		<path class="st2" d="M287.1,116.8c0.3,0.2,0.6,0.4,0.9,0.6C287.1,118,287.4,117,287.1,116.8C287.1,116.7,287.1,116.8,287.1,116.8z
			"/>
	</g>
</g>
<g>
</g>
<g>
</g>
<g>
</g>
<g>
</g>
<g>
</g>
<g>
</g>
<g>
</g>
<g>
</g>
<g>
</g>
<g>
</g>
<g>
</g>
<g>
</g>
<g>
</g>
<g>
</g>
<g>
</g>
</svg>
