<?xml version="1.0" encoding="utf-8"?>
<!-- Generator: Adobe Illustrator 17.1.0, SVG Export Plug-In . SVG Version: 6.00 Build 0)  -->
<!DOCTYPE svg PUBLIC "-//W3C//DTD SVG 1.1//EN" "http://www.w3.org/Graphics/SVG/1.1/DTD/svg11.dtd">
<svg version="1.1" id="Layer_1" xmlns="http://www.w3.org/2000/svg" xmlns:xlink="http://www.w3.org/1999/xlink" x="0px" y="0px"
	 viewBox="0 0 640.4 220.3" style="enable-background:new 0 0 640.4 220.3;" xml:space="preserve">
<style type="text/css">
	.st0{fill:#FB0001;}
	.st1{fill:#020101;}
	.st2{fill:#080202;}
</style>
<g>
	<g>
		<path class="st0" d="M200.1,21.1c0,32.7,0,65.3,0,98c-7.8-0.9-15.7,1.8-23.7-0.5c-0.1,1-0.2,2-0.3,3c-0.6,5.6-3.7,11.7,3.4,15.6
			c0.2,0.1,0.4,0.6,0.4,0.9c0,4.7,0.5,9.4-0.1,13.9c-0.4,3.1-4.1,2.7-6.5,3.6c-0.4,0.2-0.7,0.7-1.1,0.9c-1,0.6-1.5,2.6-3.1,1.7
			c-1.4-0.7-0.9-2.4-1-3.7c0-1.1,0-2.2,0-3.4c-1,1.7-2.6,2.6-3.7,4c-3.3,4.6-9.3,6.8-11,12.9c-1.9,6.9-5.5,13.2-8.7,19.6
			c-2.9,5.7-9.1,7.9-15.3,5.5c-2.9-1.1-5.9-2.7-8.9-2.8c-4.3-0.1-10.5-3.8-12.6,0.1c-3.3,6-8.3,4.8-12.7,5.7
			c-4.7,0.9-6.9,5.7-11.6,6.1c-0.7,0.1-1.5,1.1-1.1,1.9c0.3,0.7,1.1,1.4,1.7,1.5c8,1.9,12.6,7.9,16.9,14.2c-15,0-30,0-45,0
			c-0.1-0.8,0-1.7-0.3-2.4c-2.7-5.4-7.2-10-6.9-16.7c0-0.8-1-2-2.1-1.7c-2.1,0.5-3-1.3-4.7-2.4c0,1.3,0,2.1,0,2.9
			c0.1,3.4,0.5,5.9-4.9,4.9c-5.9-1.1-9.8,3.3-10.1,9.5c-0.1,2,0,4,0,6c-3,0-6,0-9,0c-0.2-5.1,1.2-9.8,4.8-13.1
			c5.9-5.6,10.3-12.1,13.5-19.5c0.4-1,1.7-2.8,1.9-2.7c4.4,2,2.4-1.7,2.8-3.1c0.3-1.1,0.1-2.4,0.5-3.4c4-10.5,3.9-21.5,3.3-32.4
			c-0.2-3.4,1.8-7.2-0.9-10.4c-3.1-3.7-5.9-7.6-9.2-11.1c-1.8-2-3.7-4.6-6.6-4.6c-9.4-0.1-18.7,0.2-28.1,0.4c0-31,0-62,0-93
			c4.5-1.1,9.6,0.7,13.6-0.5c7.7-2.4,15.7-1.4,23.3-3.4c4.1-1.1,8.2,3.6,6.4,6.8c-5,9.3-8.2,19.3-11.6,29.3
			c-4,11.6-2.7,23.4-3.4,35.1c0,0.1,0.5,0.3,1.1,0.7c6.4-7.5,13.7-2.5,20.8-1c-3.5,4.9,1.1,6.1,3.1,8.7c2.5-2.4-3-4.8,1-6.6
			c2.1-0.4,2.3-1.4,1.9-3.5c-0.7-4.5-0.6-9.6,3.4-12.4c5.4-3.9,6.6-9.8,8.2-15.1c2.4-7.9,2.4-16.4,4.1-24.5
			c3.4-16.4,22.5-28.3,38.4-23.1c4.4,1.5,8.9,4.3,13.1,3.9c9.5-0.8,16,5.5,23.6,8.8c3.3,1.4,6.2,3.8,10,3.9c0.7,1,1.8,0.9,2.9,1
			c0.7,1.3,2.3,2,2,3.8c-1.3,1.2,0.5,2,0.4,3.1c0,2.5,1.4,4.7,2,7c0.2,0.4,0.5,0.8,0.7,1.2l-0.1-0.1c0.2,0.7,0.3,1.4,0.5,2.1
			c0.5,1.3,1.4,2.2,2.6,2.8c0.4,1,0.7,1,1.2,0l0,0l0.4,0l0.4,0.1c0.8,3,1.6,5.9,2.4,8.9c0.8,2.1,0.6,4.2,0.8,6.3
			c0.2,3.2-1,6.6,1.1,9.7c-0.1,1.2-0.2,2.4-0.3,3.7c-0.6,0-1.2,0-1.7,0c-2.1-7.2-14.9-11.9-21.1-10.5c-1.6,0.4-3.2,1.1-4,2.7
			c-1.5,3.3-3.2,6.5-4.4,9.9c-1.5,4.1,2.6,17.6,5.9,20.2c1,0.8,2.2,1.5,3.1,0.5c1.8-2,3.7-0.5,5.5-0.6c1.4-0.1,3.5,0.8,4.1-0.6
			c0.9-2-1.5-1.9-2.7-2.6c-1.1-0.7-2.7-1.5-2-2.9c0.7-1.4,2.3-0.3,3.5-0.2c3.5,0.2,6.8,2.9,10.5,0.7c0.2-0.7,0.4-1.4,0.6-2.1
			c1.1,0.3,1.5,1.4,2.1,2.2c0.5,0.9,0.5,2.5,2,2.1c1.1-0.3,0.7-1.6,0.5-2.5c0.4-6.6-0.1-13.3,1-19.9c0.3-5.4,0.6-10.8-1-16
			c0.1-1.7,0.7-3.5-0.7-5c-0.1-2.2-0.2-4.5-0.3-6.7c-0.5-3.9,1.6-7.3,2.2-11c1.2-1.5,1.4-2.9,0-4.3c-1-2.5,0.4-5.4-1.1-7.9
			c0.9-2.3-1.7-4.7,0.2-6.9c2.6-0.1,5.2-0.2,7.9-0.2c2.1,0.1,4.2,0.9,6.1-0.7C193.4,21.2,196.8,21.2,200.1,21.1z M144.8,146.9
			c-3.4,3.5-6.4,7.1-10.5,9.6c8.1,4.8,10.2,4.6,16.6-1.7c2.1-2,4.5-3.4,7.1-4.5c7-3,9.4-12.2,4.7-18.1c-0.8-1-2.2-2.2-1.4-3.4
			c2.4-3.6-0.7-5.3-2.7-6.2c-4-1.6-8.3-3.2-12.8-2.2c-2.6,0.6-5.2,1.6-6.6,4c-1.3,2.1-3.1,3.4-5.2,4.4c-1.7,0.8-3.7,1.7-3.7,3.7
			c0.1,2.6,2.7,2.4,4.5,3.1c0.8,0.3,1.6,0.5,2.4,0.7c4.5,1.1,9,2.1,13.4,3.4c1.4,0.4,2.9,1.3,2.4,3.2c-0.5,2-1.9,1-3.2,0.8
			c-3.6-0.6-7.3-0.5-11,0.7C140.6,145,142.5,145.9,144.8,146.9z M111.4,79.5c-3.1,1.5-5.6,2.3-8.4,2.7c-3.5,0.5-6.8,1.6-9,4.7
			c-0.8,1.1-1.5,3,0.7,2.7c8.7-1.5,16.6,1.5,24.7,3.5c1.4,0.4,2.4-0.7,3.6-1.2c4.4-2,5.9-7,10-9.3c3.4-1.9,3.6-5.8,3.7-8.8
			c0.1-3.2-3.8-2.2-6-2.9c-1.1-0.3-2.2-0.9-3.3-1c-10.5-1.4-20.9-1.9-30,5.1c-0.9,0.7-2.5,1.1-1.8,2.5c0.6,1.2,2.1,0.9,3.1,0.3
			C103.2,75.5,106.9,77.6,111.4,79.5z M115,175.5c0,4.5,1.4,5.7,5,3.6c1.2-0.7,1.4,0,2,0.4c2.5,1.7,5.5,2.4,8.3,3.2
			c5.8,1.7,11.6-1.3,13.9-6.6c1.1-2.6,0.4-4.3-2.2-3.8c-5.4,1-9.1-2-13.3-4.3C122.2,164.4,115.1,168.3,115,175.5z M88.1,130.6
			c-0.1,1.9-0.2,3.3,1.2,4c1.6,0.8,1.8-1,2.6-1.7c1-0.8,2-2.5,3-2.4c4.3,0.1,6.4-3.1,8.9-5.6c2.1-2,2.3-5.6,5.5-6.8
			c0.6-0.2,0.6-1.1,0.2-1.8c-0.5-0.9-1.1-0.7-2-0.5c-6.3,1.3-11.2,4.6-15.7,9C90,126.6,88.4,128.4,88.1,130.6z M108.4,141.3
			c-0.4-3.4-3.3-2.4-5.3-2.6c-3.6-0.4-7.3,0.1-10.7-1.7c-1.1-0.6-1.7-0.6-2.4,0.4c-1.1,1.6-1,3,0.1,4.5c0.8,1.1,2.1,1.7,2.8,0.5
			c2.1-3.4,3.1-0.5,4.5,0.5c1.3,1,2.6,2,4,2.8C104,147.1,108.3,144.4,108.4,141.3z M129.3,117.1c-3.6-0.4-6.9,1.1-6.9,4.5
			c0,3.5,3.3,2.4,5.7,1.8c0.7-0.2,1.5,0.5,2.3,0.6c2.5,0.3,4.8-1.2,5-3c0.3-2-1.9-3.5-4.2-3.9C130.6,117.1,129.9,117.1,129.3,117.1z
			 M128.3,142.8c-4.2-6-4.2-6-15.1-3.8C119.2,139.4,122.6,145,128.3,142.8z"/>
		<path class="st1" d="M184.1,22c-2.6,0.1-5.2,0.2-7.9,0.2c-1.6,0.2-3.9-0.6-4.2,1.5c-0.5,2.8,1.3,4.6,4,5.4
			c1.6,2.4,0.1,5.3,1.1,7.9c0,1.4,0,2.9,0,4.3c-0.7,3.7-2.8,7.1-2.2,11c-1.5,0.9-4.7-2.9-4.8,1.8l0,0c-0.3,0.4-0.6,0.7-1,1.1l0,0
			c-0.4,0-0.8,0-1.2,0c-1.2-0.6-2.1-1.5-2.6-2.8c1-1,0.7-1.7-0.5-2.1l0.1,0.1c-0.2-0.4-0.5-0.8-0.7-1.2c-0.6-2.4-2.1-4.5-2-7
			c0.9-0.3,2-0.6,1.8-1.8c-0.1-1.2-1.3-1.1-2.2-1.3c0.3-1.8-1.3-2.5-2-3.8c0-3.2-1.6-1.6-2.9-1c-3.9-0.2-6.8-2.5-10-3.9
			c-7.6-3.3-14.1-9.5-23.6-8.8c-4.3,0.3-8.8-2.5-13.1-3.9c-15.8-5.3-35,6.7-38.4,23.1c-1.7,8.2-1.7,16.6-4.1,24.5
			c-1.6,5.3-2.8,11.3-8.2,15.1c-3.9,2.8-4.1,7.8-3.4,12.4c0.3,2.1,0.2,3.1-1.9,3.5c-1.4-0.6-3-0.8-4-2.1c-7.1-1.5-14.4-6.4-20.8,1
			c-0.6-0.4-1.1-0.5-1.1-0.7C29,82.8,27.7,71,31.7,59.4c3.5-10,6.6-20,11.6-29.3c1.8-3.2-2.3-7.9-6.4-6.8c-7.6,2-15.6,1-23.3,3.4
			c-3.9,1.2-9-0.6-13.6,0.5c0-2.7,0-5.3,0-8c13.8,0.1,27.6-0.4,41.3,2.7c4.4,1,10.6-0.5,12.9-3.6c5.8-7.8,14.1-10.6,22.1-14.4
			c2.1-1,4.4-1.6,5.7-3.8c19.3,0,38.7,0,58,0c0.8,0.6,1.6,1.5,2.4,1.6c9.9,1.5,16.7,8.1,23.5,14.5c0.7,1.3,1.8,1.8,3.2,1.8
			c4.9,0.1,9.9,0.2,14.8,0.2C184.1,19.5,184.1,20.7,184.1,22z"/>
		<path class="st1" d="M101.1,220.1c-4.3-6.3-8.9-12.3-16.9-14.2c-0.7-0.2-1.5-0.9-1.7-1.5c-0.4-0.8,0.4-1.9,1.1-1.9
			c4.7-0.4,6.9-5.2,11.6-6.1c4.4-0.9,9.5,0.3,12.7-5.7c2.1-3.9,8.3-0.2,12.6-0.1c3,0.1,6,1.6,8.9,2.8c6.2,2.4,12.4,0.2,15.3-5.5
			c3.2-6.4,6.8-12.6,8.7-19.6c1.7-6.1,7.6-8.3,11-12.9c1-1.4,2.6-2.4,3.7-4c0,1.1,0,2.2,0,3.4c0.1,1.3-0.4,2.9,1,3.7
			c1.6,0.9,2.1-1.1,3.1-1.7c0.4-0.3,0.7-0.8,1.1-0.9c2.4-0.9,6.1-0.5,6.5-3.6c0.6-4.6,0.1-9.3,0.1-13.9c0-0.3-0.2-0.7-0.4-0.9
			c-7.1-3.9-4-10-3.4-15.6c0.1-1,0.2-2,0.3-3c8,2.3,15.9-0.4,23.7,0.5c0,32.5,0,65,0,97.5c0,2.2,0.4,4.4-3,3.5c0-1,0-2,0-3
			c0.2-7.1-0.2-14.2-2-21c-1.3-5.1-5.9-7.4-11.6-7c-4.8,0.4-5.8,3.6-6.6,7.7c-1.5,7.8-0.3,15.5-0.8,23.2c-14.7,0-29.3,0-44,0
			c-0.6-1.2,2.1-2.9-0.3-3.8c-1.5-0.6-2.4,0.8-3.1,1.9c-0.4,0.5-0.4,1.2-0.6,1.9C119.1,220.1,110.1,220.1,101.1,220.1z"/>
		<path class="st1" d="M0.1,120.1c9.4-0.2,18.7-0.5,28.1-0.4c2.9,0,4.8,2.7,6.6,4.6c3.3,3.5,6.1,7.4,9.2,11.1
			c2.7,3.2,0.7,7,0.9,10.4c0.6,10.9,0.7,21.9-3.3,32.4c-0.4,1-0.2,2.3-0.5,3.4c-0.4,1.4,1.6,5.1-2.8,3.1c-0.2-0.1-1.4,1.7-1.9,2.7
			c-3.2,7.4-7.5,13.9-13.5,19.5c-3.6,3.4-5.1,8.1-4.8,13.1c-5,0-10-0.2-15,0.1c-2.5,0.1-3.1-0.6-3.1-3.1c0.1-19,0.1-38,0.1-57
			c3.2,0.1,6.1-0.5,7.9-3.6c0.9-1.6,2.3-1.5,3.9-0.9c4.7,1.9,6.9,0.1,7.3-5.1c0.3-3.7-1.7-7.1-1-10.8c1.4-6.7-0.8-9.3-7.8-9.6
			c-3.5-0.1-6.8,1.6-10.3,1C0.1,127.5,0.1,123.8,0.1,120.1z"/>
		<path class="st0" d="M82.1,0.1c-1.3,2.2-3.6,2.8-5.7,3.8c-8,3.8-16.3,6.6-22.1,14.4c-2.3,3.1-8.5,4.6-12.9,3.6
			c-13.7-3.1-27.5-2.7-41.3-2.7c0-5.3,0-10.7,0-16c10,0.8,20-1.2,30-1.1c1.1,0,3.4,0.9,3-1.9C49.4,0.1,65.7,0.1,82.1,0.1z"/>
		<path class="st0" d="M184.1,18.3c-4.9-0.1-9.9-0.2-14.8-0.2c-0.7-1.2-1.6-2.1-3.2-1.8c-6.9-6.4-13.6-13-23.5-14.5
			c-0.9-0.1-1.6-1.1-2.4-1.6c19,0,38,0.1,57-0.1c2.5,0,3.2,0.6,3.1,3.1c-0.2,4-0.1,8-0.1,12c-2.7,0.6-5.4,1.2-8.1,1.8
			c-0.3,0-0.6,0.1-0.9,0.3c-1.7,0.3-3.3,0.7-5,1C185.4,18.3,184.7,18.3,184.1,18.3z"/>
		<path class="st0" d="M176.1,220.1c0.5-7.7-0.7-15.5,0.8-23.2c0.8-4.2,1.8-7.4,6.6-7.7c5.7-0.5,10.3,1.9,11.6,7
			c1.8,6.8,2.2,13.9,2,21c0,1,0,2,0,3C190.1,220.1,183.1,220.1,176.1,220.1z"/>
		<path class="st0" d="M0.1,131.1c3.5,0.6,6.8-1.1,10.3-1c7,0.2,9.1,2.9,7.8,9.6c-0.8,3.7,1.2,7.1,1,10.8c-0.4,5.3-2.5,7-7.3,5.1
			c-1.6-0.6-3-0.8-3.9,0.9c-1.8,3.2-4.6,3.8-7.9,3.6C0.1,150.5,0.1,140.8,0.1,131.1z"/>
		<path class="st2" d="M27.1,220.1c0-2-0.1-4,0-6c0.3-6.1,4.2-10.6,10.1-9.5c5.4,1,5-1.5,4.9-4.9c0-0.8,0-1.6,0-2.9
			c1.7,1.1,2.6,2.9,4.7,2.4c1.1-0.2,2.1,0.9,2.1,1.7c-0.4,6.7,4.2,11.3,6.9,16.7c0.3,0.7,0.2,1.6,0.3,2.4
			C46.4,220.1,36.7,220.1,27.1,220.1z"/>
		<path class="st2" d="M33.1,0.1c0.4,2.8-1.8,2-3,1.9c-10-0.1-20,1.8-30,1.1c0-1.7-0.6-3.2,2.5-3.1C12.7,0.3,22.9,0.1,33.1,0.1z"/>
		<path class="st1" d="M192,17c2.7-0.6,5.4-1.2,8.1-1.8c0,2,0,4,0,6c-3.3,0-6.6,0.1-9.9,0.1c-1.3-1.1-3.3-1.2-4.1-3
			c1.7-0.3,3.3-0.7,5-1C191.4,17.2,191.7,17.1,192,17z"/>
		<path class="st0" d="M128.1,220.1c0.2-0.6,0.2-1.3,0.6-1.9c0.7-1.1,1.7-2.5,3.1-1.9c2.4,0.9-0.4,2.5,0.3,3.8
			C130.7,220.1,129.4,220.1,128.1,220.1z"/>
		<path class="st1" d="M173.9,83.8c0.1-1.2,0.2-2.4,0.3-3.7c0.9,0,1.8,0,2.7,0c-1.1,6.6-0.6,13.2-1,19.9c-0.8,0.1-1.7,0.3-2.5,0.4
			c-0.6-0.8-1-1.9-2.1-2.2c-1.2,0.4-1.5,1.1-0.6,2.1c-3.6,2.2-7-0.6-10.5-0.7c-1.2-0.1-2.8-1.1-3.5,0.2c-0.7,1.4,0.9,2.3,2,2.9
			c1.2,0.7,3.5,0.6,2.7,2.6c-0.6,1.4-2.7,0.6-4.1,0.6c-1.8,0.1-3.7-1.4-5.5,0.6c-0.9,1-2.1,0.3-3.1-0.5c-3.2-2.6-7.4-16.1-5.9-20.2
			c1.2-3.4,2.9-6.6,4.4-9.9c0.8-1.7,2.4-2.4,4-2.7c6.2-1.4,19,3.2,21.1,10.5c0,1.3-1.4,2.3-0.5,3.8C174,87.2,173.8,85.4,173.9,83.8z
			"/>
		<path class="st2" d="M144.8,146.9c-2.3-1-4.3-1.8-6.2-2.7c3.7-1.2,7.4-1.3,11-0.7c1.3,0.2,2.7,1.2,3.2-0.8c0.5-1.9-1-2.8-2.4-3.2
			c-4.4-1.2-8.9-2.2-13.4-3.4c-0.8-0.2-1.6-0.4-2.4-0.7c-1.8-0.7-4.4-0.5-4.5-3.1c0-2,2-2.9,3.7-3.7c2.1-1,3.9-2.2,5.2-4.4
			c1.4-2.4,4-3.4,6.6-4c4.5-1,8.8,0.6,12.8,2.2c2,0.8,5.1,2.6,2.7,6.2c-0.8,1.2,0.6,2.4,1.4,3.4c4.7,5.8,2.3,15-4.7,18.1
			c-2.6,1.1-5,2.5-7.1,4.5c-6.4,6.3-8.5,6.4-16.6,1.7C138.5,154,141.5,150.4,144.8,146.9z"/>
		<path class="st2" d="M111.4,79.5c-4.5-1.9-8.2-3.9-12.6-1.7c-1.1,0.5-2.5,0.9-3.1-0.3c-0.7-1.4,0.9-1.8,1.8-2.5
			c9.1-7,19.5-6.5,30-5.1c1.1,0.2,2.2,0.7,3.3,1c2.2,0.7,6.1-0.3,6,2.9c-0.1,3-0.4,6.8-3.7,8.8c-4.1,2.3-5.6,7.3-10,9.3
			c-1.2,0.5-2.2,1.6-3.6,1.2c-8.1-2-16-5-24.7-3.5c-2.2,0.4-1.5-1.6-0.7-2.7c2.2-3.1,5.6-4.2,9-4.7C105.8,81.8,108.3,81,111.4,79.5z
			"/>
		<path class="st2" d="M115,175.5c0-7.2,7.1-11.1,13.6-7.6c4.1,2.3,7.9,5.3,13.3,4.3c2.7-0.5,3.3,1.2,2.2,3.8
			c-2.3,5.4-8.1,8.4-13.9,6.6c-2.8-0.8-5.8-1.5-8.3-3.2c-0.5-0.4-0.8-1.1-2-0.4C116.4,181.2,115,180,115,175.5z"/>
		<path class="st2" d="M88.1,130.6c0.3-2.1,1.9-3.9,3.7-5.7c4.4-4.4,9.4-7.8,15.7-9c0.9-0.2,1.5-0.4,2,0.5c0.4,0.7,0.4,1.5-0.2,1.8
			c-3.2,1.2-3.4,4.7-5.5,6.8c-2.6,2.5-4.6,5.7-8.9,5.6c-1,0-2,1.6-3,2.4c-0.8,0.7-1,2.5-2.6,1.7C87.9,133.9,88,132.4,88.1,130.6z"/>
		<path class="st2" d="M108.4,141.3c-0.2,3.1-4.4,5.9-7,4.5c-1.4-0.8-2.7-1.8-4-2.8c-1.4-1.1-2.4-4-4.5-0.5c-0.7,1.2-2,0.6-2.8-0.5
			c-1.1-1.5-1.2-3-0.1-4.5c0.7-1.1,1.4-1,2.4-0.4c3.3,1.8,7.1,1.3,10.7,1.7C105.1,138.9,108.1,137.8,108.4,141.3z"/>
		<path class="st2" d="M129.3,117.1c0.6,0,1.3-0.1,1.9,0c2.3,0.4,4.5,1.9,4.2,3.9c-0.3,1.8-2.6,3.3-5,3c-0.8-0.1-1.6-0.8-2.3-0.6
			c-2.4,0.5-5.7,1.7-5.7-1.8C122.4,118.2,125.7,116.7,129.3,117.1z"/>
		<path class="st2" d="M176.9,80.1c-0.9,0-1.8,0-2.7,0c-2.1-3-0.9-6.4-1.1-9.7c-0.1-2.1,0-4.3-0.8-6.3c1.2,0,2.4,0,3.6,0
			C177.5,69.4,177.2,74.8,176.9,80.1z"/>
		<path class="st2" d="M128.3,142.7c-5.7,2.3-9.1-3.4-15.1-3.8C124.1,136.8,124.1,136.8,128.3,142.7z"/>
		<path class="st1" d="M175.9,64.1c-1.2,0-2.4,0-3.6,0c-0.8-3-1.6-5.9-2.4-8.9c0-0.4,0.1-0.8,0.1-1.1l0,0c3.7-0.4,2.6,4.1,5.1,5
			C176.6,60.6,176,62.4,175.9,64.1z"/>
		<path class="st2" d="M50.3,94.2c1,1.3,2.6,1.5,4,2.1c-4,1.8,1.5,4.2-1,6.6C51.4,100.3,46.8,99,50.3,94.2z"/>
		<path class="st2" d="M176,29.1c-2.7-0.8-4.4-2.7-4-5.4c0.4-2.1,2.7-1.3,4.2-1.5C174.3,24.4,176.8,26.8,176,29.1z"/>
		<path class="st2" d="M175.2,59.1c-2.5-0.8-1.4-5.4-5.1-5c0.1-4.7,3.3-0.9,4.8-1.8C175,54.6,175.1,56.8,175.2,59.1z"/>
		<path class="st2" d="M186.1,18.3c0.8,1.8,2.8,1.9,4.1,3c-1.9,1.6-4,0.8-6.1,0.7c0-1.2,0-2.4,0-3.7
			C184.7,18.3,185.4,18.3,186.1,18.3z"/>
		<path class="st2" d="M173.9,83.8c-0.2,1.6,0.1,3.4-2.3,3.8c-0.9-1.5,0.5-2.5,0.5-3.8C172.8,83.8,173.4,83.8,173.9,83.8z"/>
		<path class="st2" d="M161.9,39c0.9,0.2,2.1,0.2,2.2,1.3c0.1,1.1-1,1.4-1.8,1.8C162.4,41.1,160.6,40.3,161.9,39z"/>
		<path class="st2" d="M157,34.3c1.3-0.6,2.9-2.3,2.9,1C158.8,35.2,157.7,35.3,157,34.3z"/>
		<path class="st2" d="M173.4,100.4c0.8-0.1,1.7-0.3,2.5-0.4c0.2,0.9,0.5,2.2-0.5,2.5C173.8,103,173.8,101.3,173.4,100.4z"/>
		<path class="st2" d="M177.1,41.3c0-1.4,0-2.9,0-4.3C178.5,38.4,178.4,39.9,177.1,41.3z"/>
		<path class="st2" d="M164.9,50.2c1.2,0.5,1.5,1.2,0.5,2.1C165.2,51.7,165.1,50.9,164.9,50.2z"/>
		<path class="st2" d="M170.6,100.3c-0.9-1-0.6-1.7,0.6-2.1C171,98.9,170.8,99.6,170.6,100.3z"/>
		<path class="st2" d="M164.3,49.1c0.2,0.4,0.5,0.8,0.7,1.2C164.8,49.9,164.5,49.5,164.3,49.1z"/>
		<path class="st2" d="M170.1,54.1c0,0.4-0.1,0.8-0.1,1.1c0,0-0.4-0.1-0.4-0.1l-0.4,0C169.4,54.9,169.7,54.5,170.1,54.1z"/>
		<path class="st2" d="M168,55.2c0.4,0,0.8,0,1.2,0C168.7,56.2,168.3,56.1,168,55.2z"/>
		<path class="st2" d="M166.1,16.3c1.6-0.3,2.5,0.6,3.2,1.8C167.9,18,166.7,17.6,166.1,16.3z"/>
		<path class="st2" d="M192,17c-0.3,0.1-0.6,0.2-0.9,0.3C191.4,17.1,191.7,17,192,17z"/>
	</g>
	<g>
		<path class="st0" d="M420.2,21.1c0,32.7,0,65.3,0,98c-7.8-0.9-15.7,1.8-23.7-0.5c-0.1,1-0.2,2-0.3,3c-0.6,5.6-3.7,11.7,3.4,15.6
			c0.2,0.1,0.4,0.6,0.4,0.9c0,4.7,0.5,9.4-0.1,13.9c-0.4,3.1-4.1,2.7-6.5,3.6c-0.4,0.2-0.7,0.7-1.1,0.9c-1,0.6-1.5,2.6-3.1,1.7
			c-1.4-0.7-0.9-2.4-1-3.7c0-1.1,0-2.2,0-3.4c-1,1.7-2.6,2.6-3.7,4c-3.3,4.6-9.3,6.8-11,12.9c-1.9,6.9-5.5,13.2-8.7,19.6
			c-2.9,5.7-9.1,7.9-15.3,5.5c-2.9-1.1-5.9-2.7-8.9-2.8c-4.3-0.1-10.5-3.8-12.6,0.1c-3.3,6-8.3,4.8-12.7,5.7
			c-4.7,0.9-6.9,5.7-11.6,6.1c-0.7,0.1-1.5,1.1-1.1,1.9c0.3,0.7,1.1,1.4,1.7,1.5c8,1.9,12.6,7.9,16.9,14.2c-15,0-30,0-45,0
			c-0.1-0.8,0-1.7-0.3-2.4c-2.7-5.4-7.2-10-6.9-16.7c0-0.8-1-2-2.1-1.7c-2.1,0.5-3-1.3-4.7-2.4c0,1.3,0,2.1,0,2.9
			c0.1,3.4,0.5,5.9-4.9,4.9c-5.9-1.1-9.8,3.3-10.1,9.5c-0.1,2,0,4,0,6c-3,0-6,0-9,0c-0.2-5.1,1.2-9.8,4.8-13.1
			c5.9-5.6,10.3-12.1,13.5-19.5c0.4-1,1.7-2.8,1.9-2.7c4.4,2,2.4-1.7,2.8-3.1c0.3-1.1,0.1-2.4,0.5-3.4c4-10.5,3.9-21.5,3.3-32.4
			c-0.2-3.4,1.8-7.2-0.9-10.4c-3.1-3.7-5.9-7.6-9.2-11.1c-1.8-2-3.7-4.6-6.6-4.6c-9.4-0.1-18.7,0.2-28.1,0.4c0-31,0-62,0-93
			c4.5-1.1,9.6,0.7,13.6-0.5c7.7-2.4,15.7-1.4,23.3-3.4c4.1-1.1,8.2,3.6,6.4,6.8c-5,9.3-8.2,19.3-11.6,29.3
			c-4,11.6-2.7,23.4-3.4,35.1c0,0.1,0.5,0.3,1.1,0.7c6.4-7.5,13.7-2.5,20.8-1c-3.5,4.9,1.1,6.1,3.1,8.7c2.5-2.4-3-4.8,1-6.6
			c2.1-0.4,2.3-1.4,1.9-3.5c-0.7-4.5-0.6-9.6,3.4-12.4c5.4-3.9,6.6-9.8,8.2-15.1c2.4-7.9,2.4-16.4,4.1-24.5
			c3.4-16.4,22.5-28.3,38.4-23.1c4.4,1.5,8.9,4.3,13.1,3.9c9.5-0.8,16,5.5,23.6,8.8c3.3,1.4,6.2,3.8,10,3.9c0.7,1,1.8,0.9,2.9,1
			c0.7,1.3,2.3,2,2,3.8c-1.3,1.2,0.5,2,0.4,3.1c0,2.5,1.4,4.7,2,7c0.2,0.4,0.5,0.8,0.7,1.2l-0.1-0.1c0.2,0.7,0.3,1.4,0.5,2.1
			c0.5,1.3,1.4,2.2,2.6,2.8c0.4,1,0.7,1,1.2,0c0,0,0,0,0,0l0.4,0l0.4,0.1c0.8,3,1.6,5.9,2.4,8.9c0.8,2.1,0.6,4.2,0.8,6.3
			c0.2,3.2-1,6.6,1.1,9.7c-0.1,1.2-0.2,2.4-0.3,3.7c-0.6,0-1.2,0-1.7,0c-2.1-7.2-14.9-11.9-21.1-10.5c-1.6,0.4-3.2,1.1-4,2.7
			c-1.5,3.3-3.2,6.5-4.4,9.9c-1.5,4.1,2.6,17.6,5.9,20.2c1,0.8,2.2,1.5,3.1,0.5c1.8-2,3.7-0.5,5.5-0.6c1.4-0.1,3.5,0.8,4.1-0.6
			c0.9-2-1.5-1.9-2.7-2.6c-1.1-0.7-2.7-1.5-2-2.9c0.7-1.4,2.3-0.3,3.5-0.2c3.5,0.2,6.8,2.9,10.5,0.7c0.2-0.7,0.4-1.4,0.6-2.1
			c1.1,0.3,1.5,1.4,2.1,2.2c0.5,0.9,0.5,2.5,2,2.1c1.1-0.3,0.7-1.6,0.5-2.5c0.4-6.6-0.1-13.3,1-19.9c0.3-5.4,0.6-10.8-1-16
			c0.1-1.7,0.7-3.5-0.7-5c-0.1-2.2-0.2-4.5-0.3-6.7c-0.5-3.9,1.6-7.3,2.2-11c1.2-1.5,1.4-2.9,0-4.3c-1-2.5,0.4-5.4-1.1-7.9
			c0.9-2.3-1.7-4.7,0.2-6.9c2.6-0.1,5.2-0.2,7.9-0.2c2.1,0.1,4.2,0.9,6.1-0.7C413.6,21.2,416.9,21.2,420.2,21.1z M365,146.9
			c-3.4,3.5-6.4,7.1-10.5,9.6c8.1,4.8,10.2,4.6,16.6-1.7c2.1-2,4.5-3.4,7.1-4.5c7-3,9.4-12.2,4.7-18.1c-0.8-1-2.2-2.2-1.4-3.4
			c2.4-3.6-0.7-5.3-2.7-6.2c-4-1.6-8.3-3.2-12.8-2.2c-2.6,0.6-5.2,1.6-6.6,4c-1.3,2.1-3.1,3.4-5.2,4.4c-1.7,0.8-3.7,1.7-3.7,3.7
			c0.1,2.6,2.7,2.4,4.5,3.1c0.8,0.3,1.6,0.5,2.4,0.7c4.5,1.1,9,2.1,13.4,3.4c1.4,0.4,2.9,1.3,2.4,3.2c-0.5,2-1.9,1-3.2,0.8
			c-3.6-0.6-7.3-0.5-11,0.7C360.7,145,362.6,145.9,365,146.9z M331.5,79.5c-3.1,1.5-5.6,2.3-8.4,2.7c-3.5,0.5-6.8,1.6-9,4.7
			c-0.8,1.1-1.5,3,0.7,2.7c8.7-1.5,16.6,1.5,24.7,3.5c1.4,0.4,2.4-0.7,3.6-1.2c4.4-2,5.9-7,10-9.3c3.4-1.9,3.6-5.8,3.7-8.8
			c0.1-3.2-3.8-2.2-6-2.9c-1.1-0.3-2.2-0.9-3.3-1c-10.5-1.4-20.9-1.9-30,5.1c-0.9,0.7-2.5,1.1-1.8,2.5c0.6,1.2,2.1,0.9,3.1,0.3
			C323.3,75.5,327.1,77.6,331.5,79.5z M335.2,175.5c0,4.5,1.4,5.7,5,3.6c1.2-0.7,1.4,0,2,0.4c2.5,1.7,5.5,2.4,8.3,3.2
			c5.8,1.7,11.6-1.3,13.9-6.6c1.1-2.6,0.4-4.3-2.2-3.8c-5.4,1-9.1-2-13.3-4.3C342.3,164.4,335.2,168.3,335.2,175.5z M308.3,130.6
			c-0.1,1.9-0.2,3.3,1.2,4c1.6,0.8,1.8-1,2.6-1.7c1-0.8,2-2.5,3-2.4c4.3,0.1,6.4-3.1,8.9-5.6c2.1-2,2.3-5.6,5.5-6.8
			c0.6-0.2,0.6-1.1,0.2-1.8c-0.5-0.9-1.1-0.7-2-0.5c-6.3,1.3-11.2,4.6-15.7,9C310.2,126.6,308.5,128.4,308.3,130.6z M328.6,141.3
			c-0.4-3.4-3.3-2.4-5.3-2.6c-3.6-0.4-7.3,0.1-10.7-1.7c-1.1-0.6-1.7-0.6-2.4,0.4c-1.1,1.6-1,3,0.1,4.5c0.8,1.1,2.1,1.7,2.8,0.5
			c2.1-3.4,3.1-0.5,4.5,0.5c1.3,1,2.6,2,4,2.8C324.2,147.1,328.4,144.4,328.6,141.3z M349.4,117.1c-3.6-0.4-6.9,1.1-6.9,4.5
			c0,3.5,3.3,2.4,5.7,1.8c0.7-0.2,1.5,0.5,2.3,0.6c2.5,0.3,4.8-1.2,5-3c0.3-2-1.9-3.5-4.2-3.9C350.7,117.1,350.1,117.1,349.4,117.1z
			 M348.4,142.8c-4.2-6-4.2-6-15.1-3.8C339.3,139.4,342.7,145,348.4,142.8z"/>
		<path class="st0" d="M302.2,0.1c-1.3,2.2-3.6,2.8-5.7,3.8c-8,3.8-16.3,6.6-22.1,14.4c-2.3,3.1-8.5,4.6-12.9,3.6
			c-13.7-3.1-27.5-2.7-41.3-2.7c0-5.3,0-10.7,0-16c10,0.8,20-1.2,30-1.1c1.1,0,3.4,0.9,3-1.9C269.6,0.1,285.9,0.1,302.2,0.1z"/>
		<path class="st0" d="M404.2,18.3c-4.9-0.1-9.9-0.2-14.8-0.2c-0.7-1.2-1.6-2.1-3.2-1.8c-6.9-6.4-13.6-13-23.5-14.5
			c-0.9-0.1-1.6-1.1-2.4-1.6c19,0,38,0.1,57-0.1c2.5,0,3.2,0.6,3.1,3.1c-0.2,4-0.1,8-0.1,12c-2.7,0.6-5.4,1.2-8.1,1.8
			c-0.3,0-0.6,0.1-0.9,0.3c-1.7,0.3-3.3,0.7-5,1C405.6,18.3,404.9,18.3,404.2,18.3z"/>
		<path class="st0" d="M396.2,220.1c0.5-7.7-0.7-15.5,0.8-23.2c0.8-4.2,1.8-7.4,6.6-7.7c5.7-0.5,10.3,1.9,11.6,7
			c1.8,6.8,2.2,13.9,2,21c0,1,0,2,0,3C410.2,220.1,403.2,220.1,396.2,220.1z"/>
		<path class="st0" d="M220.2,131.1c3.5,0.6,6.8-1.1,10.3-1c7,0.2,9.1,2.9,7.8,9.6c-0.8,3.7,1.2,7.1,1,10.8c-0.4,5.3-2.5,7-7.3,5.1
			c-1.6-0.6-3-0.8-3.9,0.9c-1.8,3.2-4.6,3.8-7.9,3.6C220.2,150.5,220.2,140.8,220.2,131.1z"/>
		<path class="st0" d="M348.2,220.1c0.2-0.6,0.2-1.3,0.6-1.9c0.7-1.1,1.7-2.5,3.1-1.9c2.4,0.9-0.4,2.5,0.3,3.8
			C350.9,220.1,349.6,220.1,348.2,220.1z"/>
	</g>
	<g>
		<path class="st1" d="M624.4,22c-2.6,0.1-5.2,0.2-7.9,0.2c-1.6,0.2-3.9-0.6-4.2,1.5c-0.5,2.8,1.3,4.6,4,5.4
			c1.6,2.4,0.1,5.3,1.1,7.9c0,1.4,0,2.9,0,4.3c-0.7,3.7-2.8,7.1-2.2,11c-1.5,0.9-4.7-2.9-4.8,1.8l0,0c-0.3,0.4-0.6,0.7-1,1.1l0,0
			c-0.4,0-0.8,0-1.2,0c-1.2-0.6-2.1-1.5-2.6-2.8c1-1,0.7-1.7-0.5-2.1l0.1,0.1c-0.2-0.4-0.5-0.8-0.7-1.2c-0.6-2.4-2.1-4.5-2-7
			c0.9-0.3,2-0.6,1.8-1.8c-0.1-1.2-1.3-1.1-2.2-1.3c0.3-1.8-1.3-2.5-2-3.8c0-3.2-1.6-1.6-2.9-1c-3.9-0.2-6.8-2.5-10-3.9
			c-7.6-3.3-14.1-9.5-23.6-8.8c-4.3,0.3-8.8-2.5-13.1-3.9c-15.8-5.3-35,6.7-38.4,23.1c-1.7,8.2-1.7,16.6-4.1,24.5
			c-1.6,5.3-2.8,11.3-8.2,15.1c-3.9,2.8-4.1,7.8-3.4,12.4c0.3,2.1,0.2,3.1-1.9,3.5c-1.4-0.6-3-0.8-4-2.1c-7.1-1.5-14.4-6.4-20.8,1
			c-0.6-0.4-1.1-0.5-1.1-0.7c0.7-11.7-0.7-23.5,3.4-35.1c3.5-10,6.6-20,11.6-29.3c1.8-3.2-2.3-7.9-6.4-6.8c-7.6,2-15.6,1-23.3,3.4
			c-3.9,1.2-9-0.6-13.6,0.5c0-2.7,0-5.3,0-8c13.8,0.1,27.6-0.4,41.3,2.7c4.4,1,10.6-0.5,12.9-3.6c5.8-7.8,14.1-10.6,22.1-14.4
			c2.1-1,4.4-1.6,5.7-3.8c19.3,0,38.7,0,58,0c0.8,0.6,1.6,1.5,2.4,1.6c9.9,1.5,16.7,8.1,23.5,14.5c0.7,1.3,1.8,1.8,3.2,1.8
			c4.9,0.1,9.9,0.2,14.8,0.2C624.4,19.5,624.4,20.7,624.4,22z"/>
		<path class="st1" d="M541.4,220.1c-4.3-6.3-8.9-12.3-16.9-14.2c-0.7-0.2-1.5-0.9-1.7-1.5c-0.4-0.8,0.4-1.9,1.1-1.9
			c4.7-0.4,6.9-5.2,11.6-6.1c4.4-0.9,9.5,0.3,12.7-5.7c2.1-3.9,8.3-0.2,12.6-0.1c3,0.1,6,1.6,8.9,2.8c6.2,2.4,12.4,0.2,15.3-5.5
			c3.2-6.4,6.8-12.6,8.7-19.6c1.7-6.1,7.6-8.3,11-12.9c1-1.4,2.6-2.4,3.7-4c0,1.1,0,2.2,0,3.4c0.1,1.3-0.4,2.9,1,3.7
			c1.6,0.9,2.1-1.1,3.1-1.7c0.4-0.3,0.7-0.8,1.1-0.9c2.4-0.9,6.1-0.5,6.5-3.6c0.6-4.6,0.1-9.3,0.1-13.9c0-0.3-0.2-0.7-0.4-0.9
			c-7.1-3.9-4-10-3.4-15.6c0.1-1,0.2-2,0.3-3c8,2.3,15.9-0.4,23.7,0.5c0,32.5,0,65,0,97.5c0,2.2,0.4,4.4-3,3.5c0-1,0-2,0-3
			c0.2-7.1-0.2-14.2-2-21c-1.3-5.1-5.9-7.4-11.6-7c-4.8,0.4-5.8,3.6-6.6,7.7c-1.5,7.8-0.3,15.5-0.8,23.2c-14.7,0-29.3,0-44,0
			c-0.6-1.2,2.1-2.9-0.3-3.8c-1.5-0.6-2.4,0.8-3.1,1.9c-0.4,0.5-0.4,1.2-0.6,1.9C559.4,220.1,550.4,220.1,541.4,220.1z"/>
		<path class="st1" d="M440.4,120.1c9.4-0.2,18.7-0.5,28.1-0.4c2.9,0,4.8,2.7,6.6,4.6c3.3,3.5,6.1,7.4,9.2,11.1
			c2.7,3.2,0.7,7,0.9,10.4c0.6,10.9,0.7,21.9-3.3,32.4c-0.4,1-0.2,2.3-0.5,3.4c-0.4,1.4,1.6,5.1-2.8,3.1c-0.2-0.1-1.4,1.7-1.9,2.7
			c-3.2,7.4-7.5,13.9-13.5,19.5c-3.6,3.4-5.1,8.1-4.8,13.1c-5,0-10-0.2-15,0.1c-2.5,0.1-3.1-0.6-3.1-3.1c0.1-19,0.1-38,0.1-57
			c3.2,0.1,6.1-0.5,7.9-3.6c0.9-1.6,2.3-1.5,3.9-0.9c4.7,1.9,6.9,0.1,7.3-5.1c0.3-3.7-1.7-7.1-1-10.8c1.4-6.7-0.8-9.3-7.8-9.6
			c-3.5-0.1-6.8,1.6-10.3,1C440.4,127.5,440.4,123.8,440.4,120.1z"/>
		<path class="st2" d="M467.4,220.1c0-2-0.1-4,0-6c0.3-6.1,4.2-10.6,10.1-9.5c5.4,1,5-1.5,4.9-4.9c0-0.8,0-1.6,0-2.9
			c1.7,1.1,2.6,2.9,4.7,2.4c1.1-0.2,2.1,0.9,2.1,1.7c-0.4,6.7,4.2,11.3,6.9,16.7c0.3,0.7,0.2,1.6,0.3,2.4
			C486.7,220.1,477,220.1,467.4,220.1z"/>
		<path class="st2" d="M473.4,0.1c0.4,2.8-1.8,2-3,1.9c-10-0.1-20,1.8-30,1.1c0-1.7-0.6-3.2,2.5-3.1C453,0.3,463.2,0.1,473.4,0.1z"
			/>
		<path class="st1" d="M632.3,17c2.7-0.6,5.4-1.2,8.1-1.8c0,2,0,4,0,6c-3.3,0-6.6,0.1-9.9,0.1c-1.3-1.1-3.3-1.2-4.1-3
			c1.7-0.3,3.3-0.7,5-1C631.7,17.2,632,17.1,632.3,17z"/>
		<path class="st1" d="M614.2,83.8c0.1-1.2,0.2-2.4,0.3-3.7c0.9,0,1.8,0,2.7,0c-1.1,6.6-0.6,13.2-1,19.9c-0.8,0.1-1.7,0.3-2.5,0.4
			c-0.6-0.8-1-1.9-2.1-2.2c-1.2,0.4-1.5,1.1-0.6,2.1c-3.6,2.2-7-0.6-10.5-0.7c-1.2-0.1-2.8-1.1-3.5,0.2c-0.7,1.4,0.9,2.3,2,2.9
			c1.2,0.7,3.5,0.6,2.7,2.6c-0.6,1.4-2.7,0.6-4.1,0.6c-1.8,0.1-3.7-1.4-5.5,0.6c-0.9,1-2.1,0.3-3.1-0.5c-3.2-2.6-7.4-16.1-5.9-20.2
			c1.2-3.4,2.9-6.6,4.4-9.9c0.8-1.7,2.4-2.4,4-2.7c6.2-1.4,19,3.2,21.1,10.5c0,1.3-1.4,2.3-0.5,3.8
			C614.3,87.2,614.1,85.4,614.2,83.8z"/>
		<path class="st2" d="M585.1,146.9c-2.3-1-4.3-1.8-6.2-2.7c3.7-1.2,7.4-1.3,11-0.7c1.3,0.2,2.7,1.2,3.2-0.8c0.5-1.9-1-2.8-2.4-3.2
			c-4.4-1.2-8.9-2.2-13.4-3.4c-0.8-0.2-1.6-0.4-2.4-0.7c-1.8-0.7-4.4-0.5-4.5-3.1c0-2,2-2.9,3.7-3.7c2.1-1,3.9-2.2,5.2-4.4
			c1.4-2.4,4-3.4,6.6-4c4.5-1,8.8,0.6,12.8,2.2c2,0.8,5.1,2.6,2.7,6.2c-0.8,1.2,0.6,2.4,1.4,3.4c4.7,5.8,2.3,15-4.7,18.1
			c-2.6,1.1-5,2.5-7.1,4.5c-6.4,6.3-8.5,6.4-16.6,1.7C578.8,154,581.8,150.4,585.1,146.9z"/>
		<path class="st2" d="M551.7,79.5c-4.5-1.9-8.2-3.9-12.6-1.7c-1.1,0.5-2.5,0.9-3.1-0.3c-0.7-1.4,0.9-1.8,1.8-2.5
			c9.1-7,19.5-6.5,30-5.1c1.1,0.2,2.2,0.7,3.3,1c2.2,0.7,6.1-0.3,6,2.9c-0.1,3-0.4,6.8-3.7,8.8c-4.1,2.3-5.6,7.3-10,9.3
			c-1.2,0.5-2.2,1.6-3.6,1.2c-8.1-2-16-5-24.7-3.5c-2.2,0.4-1.5-1.6-0.7-2.7c2.2-3.1,5.6-4.2,9-4.7C546.1,81.8,548.6,81,551.7,79.5z
			"/>
		<path class="st2" d="M555.3,175.5c0-7.2,7.1-11.1,13.6-7.6c4.1,2.3,7.9,5.3,13.3,4.3c2.7-0.5,3.3,1.2,2.2,3.8
			c-2.3,5.4-8.1,8.4-13.9,6.6c-2.8-0.8-5.8-1.5-8.3-3.2c-0.5-0.4-0.8-1.1-2-0.4C556.7,181.2,555.3,180,555.3,175.5z"/>
		<path class="st2" d="M528.4,130.6c0.3-2.1,1.9-3.9,3.7-5.7c4.4-4.4,9.4-7.8,15.7-9c0.9-0.2,1.5-0.4,2,0.5c0.4,0.7,0.4,1.5-0.2,1.8
			c-3.2,1.2-3.4,4.7-5.5,6.8c-2.6,2.5-4.6,5.7-8.9,5.6c-1,0-2,1.6-3,2.4c-0.8,0.7-1,2.5-2.6,1.7
			C528.2,133.9,528.3,132.4,528.4,130.6z"/>
		<path class="st2" d="M548.7,141.3c-0.2,3.1-4.4,5.9-7,4.5c-1.4-0.8-2.7-1.8-4-2.8c-1.4-1.1-2.4-4-4.5-0.5c-0.7,1.2-2,0.6-2.8-0.5
			c-1.1-1.5-1.2-3-0.1-4.5c0.7-1.1,1.4-1,2.4-0.4c3.3,1.8,7.1,1.3,10.7,1.7C545.4,138.9,548.4,137.8,548.7,141.3z"/>
		<path class="st2" d="M569.6,117.1c0.6,0,1.3-0.1,1.9,0c2.3,0.4,4.5,1.9,4.2,3.9c-0.3,1.8-2.6,3.3-5,3c-0.8-0.1-1.6-0.8-2.3-0.6
			c-2.4,0.5-5.7,1.7-5.7-1.8C562.7,118.2,566,116.7,569.6,117.1z"/>
		<path class="st2" d="M617.2,80.1c-0.9,0-1.8,0-2.7,0c-2.1-3-0.9-6.4-1.1-9.7c-0.1-2.1,0-4.3-0.8-6.3c1.2,0,2.4,0,3.6,0
			C617.8,69.4,617.5,74.8,617.2,80.1z"/>
		<path class="st2" d="M568.6,142.7c-5.7,2.3-9.1-3.4-15.1-3.8C564.4,136.8,564.4,136.8,568.6,142.7z"/>
		<path class="st1" d="M616.2,64.1c-1.2,0-2.4,0-3.6,0c-0.8-3-1.6-5.9-2.4-8.9c0-0.4,0.1-0.8,0.1-1.1l0,0c3.7-0.4,2.6,4.1,5.1,5
			C616.9,60.6,616.3,62.4,616.2,64.1z"/>
		<path class="st2" d="M490.6,94.2c1,1.3,2.6,1.5,4,2.1c-4,1.8,1.5,4.2-1,6.6C491.7,100.3,487.1,99,490.6,94.2z"/>
		<path class="st2" d="M616.3,29.1c-2.7-0.8-4.4-2.7-4-5.4c0.4-2.1,2.7-1.3,4.2-1.5C614.6,24.4,617.1,26.8,616.3,29.1z"/>
		<path class="st2" d="M615.5,59.1c-2.5-0.8-1.4-5.4-5.1-5c0.1-4.7,3.3-0.9,4.8-1.8C615.3,54.6,615.4,56.8,615.5,59.1z"/>
		<path class="st2" d="M626.4,18.3c0.8,1.8,2.8,1.9,4.1,3c-1.9,1.6-4,0.8-6.1,0.7c0-1.2,0-2.4,0-3.7C625,18.3,625.7,18.3,626.4,18.3
			z"/>
		<path class="st2" d="M614.2,83.8c-0.2,1.6,0.1,3.4-2.3,3.8c-0.9-1.5,0.5-2.5,0.5-3.8C613.1,83.8,613.7,83.8,614.2,83.8z"/>
		<path class="st2" d="M602.2,39c0.9,0.2,2.1,0.2,2.2,1.3c0.1,1.1-1,1.4-1.8,1.8C602.7,41.1,600.9,40.3,602.2,39z"/>
		<path class="st2" d="M597.3,34.3c1.3-0.6,2.9-2.3,2.9,1C599.1,35.2,598,35.3,597.3,34.3z"/>
		<path class="st2" d="M613.7,100.4c0.8-0.1,1.7-0.3,2.5-0.4c0.2,0.9,0.5,2.2-0.5,2.5C614.1,103,614.1,101.3,613.7,100.4z"/>
		<path class="st2" d="M617.4,41.3c0-1.4,0-2.9,0-4.3C618.8,38.4,618.7,39.9,617.4,41.3z"/>
		<path class="st2" d="M605.2,50.2c1.2,0.5,1.5,1.2,0.5,2.1C605.5,51.7,605.4,50.9,605.2,50.2z"/>
		<path class="st2" d="M610.9,100.3c-0.9-1-0.6-1.7,0.6-2.1C611.3,98.9,611.1,99.6,610.9,100.3z"/>
		<path class="st2" d="M604.6,49.1c0.2,0.4,0.5,0.8,0.7,1.2C605.1,49.9,604.8,49.5,604.6,49.1z"/>
		<path class="st2" d="M610.4,54.1c0,0.4-0.1,0.8-0.1,1.1l-0.4-0.1l-0.4,0C609.7,54.9,610,54.5,610.4,54.1z"/>
		<path class="st2" d="M608.3,55.2c0.4,0,0.8,0,1.2,0C609,56.2,608.6,56.1,608.3,55.2z"/>
		<path class="st2" d="M606.4,16.3c1.6-0.3,2.5,0.6,3.2,1.8C608.2,18,607,17.6,606.4,16.3z"/>
		<path class="st2" d="M632.3,17c-0.3,0.1-0.6,0.2-0.9,0.3C631.7,17.1,632,17,632.3,17z"/>
	</g>
</g>
<g>
</g>
<g>
</g>
<g>
</g>
<g>
</g>
<g>
</g>
<g>
</g>
<g>
</g>
<g>
</g>
<g>
</g>
<g>
</g>
<g>
</g>
<g>
</g>
<g>
</g>
<g>
</g>
<g>
</g>
</svg>
