<?xml version="1.0" encoding="utf-8"?>
<!-- Generator: Adobe Illustrator 17.1.0, SVG Export Plug-In . SVG Version: 6.00 Build 0)  -->
<!DOCTYPE svg PUBLIC "-//W3C//DTD SVG 1.1//EN" "http://www.w3.org/Graphics/SVG/1.1/DTD/svg11.dtd">
<svg version="1.1" id="Layer_1" xmlns="http://www.w3.org/2000/svg" xmlns:xlink="http://www.w3.org/1999/xlink" x="0px" y="0px"
	 viewBox="0 0 640.5 215.3" style="enable-background:new 0 0 640.5 215.3;" xml:space="preserve">
<style type="text/css">
	.st0{fill:#FB0001;}
	.st1{fill:#070203;}
</style>
<g>
	<g>
		<path class="st0" d="M200.1,81.2c0,43.5,0,87,0.1,130.5c0,3-0.6,3.6-3.6,3.6c-19.2-0.2-38.3-0.1-57.5-0.1c0.3-3.2-0.5-6.1-2.8-8.5
			c-2.1-2.1-3.1-4.6-1-7.4c4.5-1.2,6.7-4.4,7.7-8.6c0.3-1.4,0.5-3.9-1.6-4c-1.8-0.1-2.6,1.8-2.3,3.7c0.5,3.2-1.2,4.1-4,3.9
			c-0.6-0.3-1.2-1-1.7-0.9c-3.3,0.9-5,0.9-5.9-3.5c-0.7-3.3-4.5-5.5-8.1-6.6c-1.3-0.4-3.8-0.7-3.9,0.9c-0.2,3.2-3.5,4.4-3.7,7.7
			c-0.1,2.3-2.5,4.9-4.9,4.9c-3,0.1-4,2.1-6.4,4c0.7-5.4-1.1-9.3-5-12.4c0.3-0.2,0.5-0.4,0.8-0.6c0.8-0.3,1.4-0.8,1.6-1.7
			c1.8-2.8,6.3-2.8,7-6.8c0.4-0.4,0.3-1.2,1.2-1.1l-0.1-0.1c-0.1,1.6,0.4,2.9,1.7,3.9c1.6,1.3,3.5,1.7,4.7-0.1c1.3-2-1.3-2-2.2-2.9
			c1.1-1.7,2.6-1.2,3.8-0.4c3,1.8,5.9,1.7,9,0.5c3-1.2,6.1-1.1,9.1-0.1c0.7,0.3,1.3,0.6,2,0.9c2.3,0.8,4.6,1.6,6.9,2.4
			c1.1,1.4,2.8,3.1,4.2,1.8c2.3-2-0.3-3.4-1.5-4.8c-0.4-0.5-1.1-0.6-1.7-1c-1.7-0.5-3.2-1.3-3.9-3.2c0.9-0.4,1.6-1.1,1.9-2
			c1.9-1.6,2.5-3.8,1.9-5.9c-1.5-5.4-1.9-11-2.5-16.6c-1-8.6-4.1-16.6-5.7-25.1c-1.8-9.5-6.6-15.7-16.5-18.7
			c-5.7-1.7-12.2-3.8-15-10.9c-1.2-3-0.9-5.8-1.3-8.7c-1.2-7-3.5-13.7-5.3-20.6c-1-3.8,0.2-8.1-2.8-11.6c-1.6-1.9-4.2-2.9-4.9-5.7
			c2.5-1.4,5.2-1.6,8-1.5c1.5,0.1,3.1,0.2,3.9-1.5c0.2-0.4-0.2-1.3-0.6-1.7c-1.3-1.2-2.7-0.9-4.1-0.2c-2.7,1.3-5.4,1.1-8.1-0.2
			c-3.4-1.7-7.1-1.7-10.8-1.4c-6.2,0.5-12.5,1.2-18.7,2.1c-2.9,0.5-5.8,1.4-7.9,3.9c-1.3,1.5-2.7,3.1,0.5,3.9c2.8,0.7,1,1.9,0.6,3.2
			c-1.9,5.9-3.9,11.8-4.7,18.1c-0.8,6.3-2.9,12.5-4.5,18.7c-1.9,7.6-9.6,11.3-12.2,18.5l-0.1,0.1c-0.5-0.5-0.9-0.2-1.1,0.3
			c-1.5,0.1-2.3,0.8-1.7,2.4c0.2,1.2,2.4,2,0.6,3.6c-1.9,0.8-3.8,1.3-4.7-1.4c-0.6-1.7-2.5-2.2-3.4-3.5c-2.3-3.2-4.2-0.6-4.2,0.9
			c0,1.6-1.3,3.6,0.6,5.5c1.1,1.1,3.1,3.2-0.4,5c-1.7,0.9-0.1,2.3,1.3,2.3c1.3,0.1,2.5-0.8,3.8-0.3c0.4,1.2,0.8,2.4,1.2,3.7
			c-1.5,3-0.2,5.2,1.8,7.2c1,3.1,0.3,6.7,3.8,9c0.5,0.3,4.4,4.6,0.4,5.9c-5.9,1.9-3,4.3-1.2,6.8c1.3,1.9,2.9,3.6,4.5,5.2
			c1.1,1.1,2.5,2.4,2.3,3.7c-0.6,4.2,0.7,7.7,3.3,10.8c1,1.1,0.8,2.5-0.5,2.8c-2.6,0.6-3.3,3.8-6.2,4.1c5.6,1.9,7.8,8.7,14.3,9.4
			c1.7,0.2,3.7,1.6,2.7,4.4c-0.6,1.8,0.7,3.8,2,4.1c6.4,1.4,7.5,6.8,9.6,11.5c-18,0-35.9-0.2-53.9,0.1c-3.9,0.1-4.2-1.2-4.2-4.5
			c0.1-47.2,0.1-94.4,0.1-141.7c2.4-0.4,3.9-1.8,5.5-3.6c4.3-4.7,6.7-10.8,11.1-15c6.1-5.9,13.4-10.7,17.4-18.6c3,0,1.6-2.4,2-3.8
			c0.8-0.5,1-1.1,0.7-2c0.4-1-0.5-2.9,1.5-2.8c1.1,0.1,1.8,1.2,1.8,2.5c0,0.8,0.1,1.6,0.2,2.4c-3.8,2.7,0.5,4,1,6
			c-0.2,3.6,2.4,1.5,3.8,1.9c1.3,0,2.7,0,4-0.1c0.6,0.1,1.2,0.2,1.8,0.3c2.8,1.3,5.5,1.4,8.3,0c0.7-0.1,1.3-0.2,2-0.3
			c3.7,0,7.3,0,11,0c2.8,0.5,5.4,0.1,8-1c4.2-1.7,8.9,0.1,13.1-1.7c1.5-0.1,3-0.2,4.5-0.3c5.8-1.3,11.6-2.7,17.4-4
			c2.3-0.1,4.3,0.7,6,2.2c0.6,0.7,1.2,1.3,1.8,2c1.2,3.4,4.5,4.5,7.2,6.4c1.6,1.1,2.8,0.5,3.1-1.6c0.1-1.1-0.5-3.2,1.9-2.2
			c1.4,0.6,2.2,1.7,0.7,3.4c-1.3,1.4-0.8,3,0.9,4.2c0.6,0.4,1.2,1,1,2c-0.6,2.5,0.4,3.9,2.8,3.7c1.2-0.1,2.4-0.8,3.7-1.2
			c9.6,5.7,20.1,8.8,31,11.1c0.3,0.1,0.6,0.1,1,0.2c0.7,1.1,1.8,0.9,2.9,1c2.8,2.9,5.5,5.8,8.3,8.7c0,0.5,0,1.1-0.1,1.6l0,0.1
			l-0.1,0.2c-2,0.4-3.8,1-1.4,3.3c1,1,2.2,1.8,3.3,2.7l0.2,0.1c2,0.7,3.1,5.3,6.1,1.3c0.2,0,0.5,0,0.7,0
			C197.2,79.3,197.6,81.7,200.1,81.2z M31.2,202.2c-1.2,1.7-2.8,3.4-2.9,5.7c-0.1,1.4,1.2,2.5,2.8,2c2.1-0.6,3.1-2.3,3-4.6
			C34,203.7,33.4,202.6,31.2,202.2z M125,45.9c-3.2-1.9-5.1-2.4-7-0.9c-0.2,0.2-0.3,0.9-0.1,1.1C119.9,48.4,121.6,45.9,125,45.9z"/>
		<path class="st0" d="M85.3,5.2C81.1,6.8,77.2,6.6,73.4,4c-2.3-1.5-3.9,2.3-6.3,1c0.9-1.5,2.4-2.8,1.9-4.9c5.7,0,11.3,0,17,0
			C86.5,2,83.2,3.2,85.3,5.2z"/>
		<path class="st0" d="M121,10.2c-1.4,1.8-2.9,0.8-4.3,0c-1.1-0.7-2.1-2-3.3-2.1c-6.6-0.5-5.2-4.1-3.3-8c1.3,0,2.7,0,4,0
			c-0.4,1.7-2.8,3-0.8,5.1c1.2,1.3,2.1,0.2,3-0.3c2.5-1.2,2-3,0.8-4.8c1,0,2,0,3,0C119.2,3.6,117.2,7.2,121,10.2z"/>
		<path class="st0" d="M135.1,0.2c-0.1,1.5,1.2,1.7,2.1,2.3c1.2,0.8,1.1,2.5-0.3,2.4c-4.5-0.4-3,3.2-3.9,5.2
			c-0.8,0.5-0.6,1.4-0.8,2.1c-2.2-1.1-0.3-4.1-2.4-5.3c-0.3-0.6-0.5-1.2-0.8-1.8c-0.3-2.1-0.7-4-2.9-5
			C129.1,0.2,132.1,0.2,135.1,0.2z"/>
		<path class="st0" d="M52.2,6.1c-0.2-2,0.1-4.1-1.2-5.9c4.7,0,9.3,0,14,0c-0.8,1.7-3.8,0.1-4.1,2.7C59.8,4,57.7,1.3,57,3.9
			c-0.3,0.3-0.7,0.7-1,1c-0.6,0.2-1.3,0.3-1.9,0.5c-0.4,0.2-0.7,0.5-1.1,0.7l-0.4,0L52.2,6.1z"/>
		<path class="st0" d="M92,3c-2,0-2-1.4-1.9-2.8c3.3,0,6.7,0,10,0C98,2.9,94.7,2.1,92,3z"/>
		<path class="st0" d="M47.1,0.2c-2.7,4.1-3.7,4.1-6,0C43.1,0.2,45.1,0.2,47.1,0.2z"/>
		<path class="st0" d="M75.1,130.3c-3.3,0.4-6.8,0.1-6.4-5.6c0.1-1.5-1.2-3.3-2.7-4.6c-3.8-3.4-3.5-3.4-2.1-8.6
			c0.5-2-1.8-3.5-3.2-3.9c-6.7-1.9-7.8-8-9.2-13c-1.5-5.1-0.8-10.9,3.1-15.6c0.6-0.8,1.3-1.7,1.1-3.1c-1.4-6.5,3.1-10.1,7.2-13.6
			c3.5-3,7.5-1.4,11.3-0.6c0.9,0.2,2.3,1,1.8,2c-1.6,3.2,0.1,6.5-0.7,9.6c-1.5,5.4,0.9,9.4,6.5,9.7c3.6,0.2,4,1.8,4.6,4.9
			c1.5,8.8,0.4,16.4-6.7,22.4c-0.6,0.5-1.5,1.5-0.8,2.1c5.9,4.8-1.7,10.3,0.9,15.4C79.9,128.6,78.5,131.5,75.1,130.3z M61.8,77.7
			c-2.4,0.6-5.6,0.7-5.2,3.8c0.2,2.2,2.8,1.7,4.6,1.6c2.6-0.2,4.2-1.5,4-4.4c-0.3-3.5-2.7-3.5-5.5-3.4
			C60.3,76.1,60.9,76.8,61.8,77.7z"/>
		<path class="st0" d="M100.2,176.1c-0.1,0.6-0.2,1.2-0.3,1.8l0.1,0c-0.2,0.4-0.4,0.8-0.7,1.2c-0.5,2.4-2.1,2.9-4.4,3.1
			c-2.1,0.2-4.4-1.1-6.3,1.4c-1.1,1.4-2.1-0.7-2.4-1.9c-1.4-4.7-2.7-9.5-3.9-14.2c-0.4-1.9-1.3-4.2,2.9-3.6c4.7,0.6,6.8-2,5.7-6.2
			c-1.7-6.7,0.6-13.1,0.7-19.6c0-2,0.3-3.9,0.5-5.9c0.1-1.3,0.4-2.5,1.9-2.3c1.4,0.1,0.9,1.5,1,2.4c0.6,5.7-0.5,11.2-1.2,16.8
			c-0.9,7.1,0.6,10.2,7.3,12.7c0.7,0.3,1.7,0.4,1.9,1.4c-1.4,1.4-2.2,3-1.8,5C100.9,170.8,100.6,173.5,100.2,176.1z"/>
		<path class="st0" d="M77,140.9c0.6,0.1,1,0.2,1.3,0.2c2.3,0.3,5.4-0.9,5.7,3c0.2,2-1.1,3-3.1,3c-2.9,0.1-6.2,0.8-6.8-3.7
			c-0.1-1.1-0.3-2.3-0.6-3.4c-0.4-1.5-1.1-3,1-3.7c1.2-0.4,2.7-0.4,3.7,0.7C79.9,138.8,77.5,139.4,77,140.9z"/>
		<path class="st0" d="M107.2,148.6c-0.6-4.1,2.4-4.9,4.6-6c0.8-0.4,1.5,0.9,1.1,1.7c-1.2,2.3-1.4,5.5-4.1,6.5
			C106.8,151.5,107.5,149.2,107.2,148.6z"/>
		<path class="st0" d="M73.1,191.8c-4.1-0.9-3.9-4.2-4.9-6.6c-0.4-1-0.5-2.4,1.1-2.8c1.3-0.3,2.3,0.6,2.6,1.8
			C72.4,186.5,72.7,188.9,73.1,191.8z"/>
		<path class="st0" d="M20.1,125c0.1-3.5,1.3-5.1,4.7-2.6c1.3,0.9,2.8,0.7,4.2,0.9c-1,2.3-3,2.2-4.9,1.7
			C22.7,124.6,21.5,124.3,20.1,125z"/>
		<path class="st0" d="M187.2,57.1c-0.3,1.2,0,2.7-1.4,3.5c-3.4-3.4-3.6-4.6-1.9-8.3c0.3-0.6,1.3-1.2,0.5-2.1c-1.5-1.9-3,0.1-4.5,0
			c-0.4-0.4-0.7-0.7-1.1-1.1c0.6-2.6-0.4-4.3-2.9-5c-0.3-0.7-0.9-1-1.7-1c-3.8-2.5,0.3-6.2-1.5-9c0-0.7-0.1-1.3-0.1-2
			c-0.1-1.1-0.7-1.7-1.7-2.1c-0.3-0.3-1-0.8-0.9-1c1.7-4.7-2.2-5.4-5-6.9c0.7-0.6,1.4-1.3,2.1-1.9c0,0-0.2,0.1-0.2,0.1
			c0.5-0.3,1-0.6,1.5-0.9l0.1,0.3c4.5-2,6.1,0.9,7.3,4.4c0.4,1.3-0.4,3,1.1,4c-0.9,6.1,6.2,8.3,6.9,13.6c-0.7,0.3-1.7,0.1-1.7,1.3
			c0.1,1,0.9,1.2,1.7,1.5c0.6,2.3,2.3,4.2,2.3,6.6c0,1.1,0.1,2.1,0.1,3.2C186.6,55.3,186.9,56.2,187.2,57.1z"/>
		<path class="st0" d="M138.4,15c2.3-1.1,5.1-5,6.4,1C142.6,15.7,140.5,15.3,138.4,15z"/>
		<path class="st0" d="M148.2,4.8c0.3-2.3,1.8-3.3,3.8-2.3c1.7,0.8,1.2,2.4,0,3.6C150.8,5.7,149.5,5.3,148.2,4.8z"/>
		<path class="st0" d="M135.1,18.1c-0.4,0.6-0.7,1.1-1.1,1.7c-0.6,0-1.2,0-1.8,0c-0.1-1.6-0.2-3.1-0.3-4.7c0.5-1-0.9-2.1,0.1-3.1
			C133.1,14.1,134.1,16.1,135.1,18.1z"/>
		<path class="st0" d="M47.3,21.1c-1.3-4.9-4.7-1.7-7.2-1.9c1.2-2,3.3-3.9,0.2-6c0.8-3.1,2.4-2.3,3.4-0.4c2.2,4.1,3.9,3,5.5-0.3
			c1.1-0.1,1.9,0.5,2.2,1.5c1.3,3.9,2.9,2.8,4.7,0.4c0.3,0,0.6-0.1,0.9-0.3c2.3-0.1,3.5,1.5,3.4,3.3c-0.1,1.3-2,1.7-3.4,1.8
			c-1,0.1-2,0.1-2.9,0.2c-2.3-1.1-4.2-1.3-5,1.7C48.4,21.1,47.8,21.1,47.3,21.1z M41.8,15.6c-0.1-0.1-0.2-0.2-0.3-0.3
			c-0.1,0.1-0.2,0.2-0.3,0.3c0.2,0.1,0.3,0.2,0.5,0.3C41.7,15.8,41.7,15.7,41.8,15.6z"/>
		<path class="st0" d="M72.9,32.1l-0.4,0l-0.4,0.1c-1.2-2-4.2-2.2-4.9-4.7c0.6-0.4,1.3-0.8,1.9-1.1c1-0.1,2-0.2,2.9-0.3
			c0.3,0,0.7,0,1,0c0.9,0.6,1.8,1.2,2.7,1.8c2.5,2-2.3,1.5-1.1,3.1C74.1,31.4,73.5,31.7,72.9,32.1z"/>
		<path class="st0" d="M94.1,11.1c1,0.6,1.8,1.3,1.9,2.5c-1.5,0.4-3,0.8-4.4,1.2c-0.3,0.5-0.6,1-1,1.5c-0.5,0.3-1,0.5-1.5,0.8
			c1.1-1.9-2.7-4.5,0.9-6C91.4,11,92.7,11,94.1,11.1z"/>
		<path class="st0" d="M131.3,23.2c0.3-0.3,0.6-0.7,0.8-1c0.3,0,0.6,0,0.8,0c1.8,2.8,1.1,6,0.9,9c0,0.8-0.6,2-1.9,1c0-1,0-2,0-3
			c0-0.7,0-1.3,0-2C131.7,25.8,131.5,24.5,131.3,23.2z"/>
		<path class="st0" d="M105.2,20.4c1.8,0.6,5.2-0.4,3.7,3.6c-0.9,0.1-1.9,0.1-2.8,0.2c-0.6-0.4-1.3-0.8-1.9-1.2
			C104.5,22.2,104.8,21.3,105.2,20.4z"/>
		<path class="st0" d="M85,5.1c1.7,0.3,3.7,0.5,1.8,3C85.3,7.7,84.3,6.9,85,5.1z"/>
		<path class="st0" d="M33.2,12.4c1.1-0.4,1.7-2.3,3-1.7c1.5,0.6,0.6,2.2,0.5,3.3c-1.1,0.6-2.2,1.1-3.5,1.8
			C33.2,14.6,33.2,13.5,33.2,12.4z"/>
		<g>
			<path class="st1" d="M200.1,4.5c0-3.3-0.3-4.7-4.2-4.5c-7.6,0.4-15.2,0.1-22.9,0.1c-4,0-8,0-12,0c-2,0-4,0-6,0
				c-6.7,0-13.3,0-20,0c-0.1,1.5,1.2,1.7,2.1,2.3c1.2,0.8,1.1,2.5-0.3,2.4c-4.5-0.4-3,3.2-3.9,5.2c-0.8,0.5-0.6,1.4-0.8,2.1
				c1,2,1.9,3.9,2.9,5.9c-0.4,0.6-0.7,1.1-1.1,1.7c-0.6,0-1.2,0-1.8,0c-0.1-1.6-0.2-3.1-0.3-4.7c0.5-1-0.8-2.1,0.1-3
				c-1.9-1.2-0.1-4-2.2-5.2c-0.3-0.6-0.5-1.2-0.8-1.8c-0.3-2.1-0.7-4-2.9-5c-0.3,0-0.7,0-1,0s-0.7,0-1,0c-1.3,0-2.7,0-4,0
				c-0.9,3.5-2.9,7,0.9,10.1c-1.4,1.8-2.9,0.8-4.3,0c-1.1-0.7-2.1-2-3.3-2.1c-6.6-0.5-5.2-4.1-3.3-8c-2,0-4,0-6,0c-1.3,0-2.7,0-4,0
				c-2,2.8-5.3,2-8.1,2.8c-2,0-2-1.4-1.9-2.8c-1.3,0-2.7,0-4,0c0.4,1.8-2.8,3-0.9,5c1.7,0.3,3.5,0.5,1.7,2.9C85.4,7.7,84.4,7,85,5.3
				c-4,1.5-7.9,1.2-11.6-1.3c-2.3-1.5-3.9,2.3-6.3,1c0.9-1.5,2.4-2.8,1.9-4.9c-1.3,0-2.7,0-4,0c-0.8,1.7-3.8,0.1-4.1,2.7
				C59.8,4,57.7,1.3,57,3.9c-0.3,0.3-0.7,0.7-1,1c-0.6,0.2-1.3,0.3-1.9,0.5c-0.4,0.2-0.7,0.5-1.1,0.7l-0.4,0l-0.4,0
				c-0.2-2,0.1-4.1-1.2-5.9c-1.3,0-2.7,0-4,0c-2.7,4.1-3.7,4.1-6,0c-2.3,0-4.7,0-7,0c-0.3,0-0.7,0-1,0s-0.7,0-1,0
				c-9.7,0-19.3,0.1-29-0.1C0.6,0,0,0.7,0,3.2c0.1,22,0.1,44,0.1,66c2.4-0.4,3.9-1.8,5.5-3.6c4.3-4.7,6.7-10.8,11.1-15
				c6.1-5.9,13.4-10.7,17.4-18.6c3,0,1.6-2.4,2-3.8c0.8-0.5,1-1.1,0.7-2c0.4-1-0.5-2.9,1.5-2.8c1.1,0.1,1.8,1.2,1.8,2.5
				c0,0.8,0.1,1.6,0.2,2.4c-3.8,2.7,0.5,4,1,6c-0.2,3.6,2.4,1.5,3.8,1.9c1.3,0,2.7,0,4-0.1c0.6,0.1,1.2,0.2,1.8,0.3
				c2.8,1.3,5.5,1.4,8.3,0c0.7-0.1,1.3-0.2,2-0.3c3.7,0,7.3,0,11,0c2.8,0.5,5.4,0.1,8-1c4.2-1.7,8.9,0.1,13.1-1.7
				c1.5-0.1,3-0.2,4.5-0.3c5.8-1.3,11.6-2.7,17.4-4c2.3-0.1,4.3,0.7,6,2.2c0.6,0.7,1.2,1.3,1.8,2c1.2,3.4,4.5,4.5,7.2,6.4
				c1.6,1.1,2.8,0.5,3.1-1.6c0.1-1.1-0.5-3.2,1.9-2.2c1.4,0.6,2.2,1.7,0.7,3.4c-1.3,1.4-0.8,3,0.9,4.2c0.6,0.4,1.2,1,1,2
				c-0.6,2.5,0.4,3.9,2.8,3.7c1.2-0.1,2.4-0.8,3.7-1.2c9.6,5.7,20.1,8.8,31,11.1c0.3,0.1,0.6,0.1,1,0.2c0.7,1.1,1.8,0.9,2.9,1
				c0.1-0.2,0.2-0.5,0.3-0.7c0-0.2,0-0.4,0-0.7c0,0.2,0,0.4,0,0.7c0,0.2-0.1,0.5-0.3,0.7c2.8,2.9,5.5,5.8,8.3,8.7
				c0,0.5,0,1.1-0.1,1.6l0,0.1l-0.1,0.2c-2,0.4-3.8,1-1.4,3.3c1,1,2.2,1.8,3.3,2.7l0.2,0.1c2,0.7,3.1,5.3,6.1,1.3c0.2,0,0.5,0,0.7,0
				c1.3,1.1,1.7,3.5,4.1,2.9c0-1.3,0-2.7,0-4c0-0.7,0-1.3,0-2c0-1,0-2,0-3C200.1,49.6,200,27,200.1,4.5z M56.9,4.3
				c-0.1,0.3-0.2,0.5-0.5,0.5C56.7,4.8,56.8,4.6,56.9,4.3z M48.5,7.2c-0.2,0.4-0.3,0.8-0.3,1.3C48.2,8,48.2,7.6,48.5,7.2z M57,19.1
				c-1,0.1-2,0.1-2.9,0.2c-2.3-1.1-4.2-1.3-5,1.7c-0.6,0-1.2,0-1.8,0c-1.3-4.9-4.7-1.7-7.2-1.9c1.2-2,3.3-3.9,0.2-6
				c-1.2,0.3-2.4,0.6-3.6,0.9c-1.1,0.6-2.2,1.1-3.5,1.8c0-1.2,0-2.3,0-3.4c1.1-0.4,1.7-2.3,3-1.7c1.5,0.6,0.6,2.2,0.5,3.3
				c1.2-0.3,2.4-0.6,3.6-0.9c0.8-3.1,2.4-2.3,3.4-0.4c2.2,4.1,3.9,3,5.5-0.3c-0.3-1.3-1-2.7-1-3.9c0.1,1.2,0.7,2.6,1,3.9
				c1.1-0.1,1.9,0.5,2.2,1.5c1.3,3.9,2.9,2.8,4.7,0.4c0.3,0,0.6-0.1,0.9-0.3c2.3-0.1,3.5,1.5,3.4,3.3C60.4,18.7,58.5,19,57,19.1z
				 M91,7.1c-0.2,0.6-0.6,1.1-1.2,1.3C90.4,8.2,90.7,7.7,91,7.1z M74.7,31c-0.6,0.4-1.2,0.7-1.8,1.1l-0.4,0l-0.4,0.1
				c-1.2-2-4.2-2.2-4.9-4.7c0.6-0.4,1.3-0.8,1.9-1.1c1-0.1,2-0.2,2.9-0.3c0.3,0,0.7,0,1,0c0.9,0.6,1.8,1.2,2.7,1.8l0,0
				C78.3,29.9,73.5,29.4,74.7,31z M90.6,16.2L90.6,16.2c-0.5,0.3-1,0.5-1.5,0.8c1.1-1.9-2.7-4.5,0.9-6c1.3,0,2.7,0,4,0.1
				c1,0.6,1.8,1.3,1.9,2.5c-0.5,0.6-1,1.5-1.5,2c0.6-0.5,1-1.4,1.5-2c-1.5,0.4-3,0.8-4.4,1.2C91.3,15.3,90.9,15.8,90.6,16.2z
				 M106.1,24.3c-0.6-0.4-1.3-0.8-1.9-1.2c0.4-0.9,0.7-1.7,1.1-2.6c1.8,0.6,5.2-0.4,3.7,3.6C107.9,24.1,107,24.2,106.1,24.3z
				 M131.3,34.2c0-0.2,0-0.4,0.1-0.6C131.4,33.9,131.3,34,131.3,34.2z M133.9,31.2c0,0.8-0.6,2-1.9,1c-0.3,0.3-0.4,0.6-0.5,1
				c0.1-0.4,0.2-0.7,0.5-1c0-1,0-2,0-3c0-0.7,0-1.3,0-2c-0.2-1.3-0.4-2.6-0.6-3.9c0.3-0.3,0.6-0.7,0.8-1c0.3,0,0.6,0,0.8,0
				C134.8,25,134,28.2,133.9,31.2z M138.4,15c2.3-1.1,5.1-5,6.4,1C142.6,15.7,140.5,15.3,138.4,15z M153.1,7.2
				c-0.2-0.1-0.5-0.3-0.8-0.7c-0.1-0.1-0.2-0.2-0.3-0.4c-1.3-0.4-2.6-0.9-3.8-1.3c0.3-2.3,1.8-3.3,3.8-2.3c1.7,0.8,1.2,2.4,0,3.6
				c0.1,0.1,0.2,0.3,0.3,0.4C152.6,6.9,152.9,7.1,153.1,7.2c0.2,0.1,0.3,0.1,0.4,0.1C153.4,7.3,153.3,7.3,153.1,7.2z M159.3,23
				c0.3,0,0.5,0,0.8-0.1C159.8,23,159.6,23,159.3,23z M178.8,57.6c0.1,0.2,0.2,0.4,0.2,0.6C179,58.1,178.9,57.8,178.8,57.6z
				 M185.8,60.7c-3.4-3.4-3.6-4.6-1.9-8.3c0.3-0.6,1.3-1.2,0.5-2.1c-1.5-1.9-3,0.1-4.5,0c-0.4-0.4-0.7-0.7-1.1-1.1
				c0.6-2.6-0.4-4.3-2.9-5c-0.3-0.7-0.9-1-1.7-1l0,0c-3.8-2.5,0.3-6.2-1.5-9c0-0.7-0.1-1.3-0.1-2c-0.4-0.2-0.8-0.5-1.1-0.8
				c0.3,0.3,0.6,0.6,1.1,0.8c-0.1-1.1-0.7-1.7-1.7-2.1c-0.3-0.3-1-0.8-0.9-1c1.7-4.7-2.2-5.4-5-6.9c-0.7-0.4-1.3-0.4-2-0.3
				c0.6-0.1,1.3-0.1,2,0.3c0.7-0.6,1.4-1.3,2.1-1.9c0,0,0,0,0,0c0.5-0.3,0.9-0.6,1.4-0.8l0.1,0.3c4.5-2,6.1,0.9,7.3,4.4
				c0.4,1.3-0.4,3,1.1,4c-0.9,6.1,6.2,8.3,6.9,13.6c0,0.9,0,1.8,0,2.7c0.6,2.3,2.3,4.2,2.3,6.6c0,1.1,0.1,2.1,0.1,3.2
				c0.3,0.9,0.6,1.9,0.9,2.8C186.9,58.4,187.2,59.8,185.8,60.7z"/>
			<path class="st1" d="M132.1,12.2C132.1,12.2,132.1,12.2,132.1,12.2c0-0.1-0.1-0.1-0.1-0.2c0,0,0,0,0,0
				C132.1,12.1,132.1,12.1,132.1,12.2c0-0.1-0.1-0.1-0.1-0.2c0,0,0,0,0,0c0,0-0.1,0.1-0.1,0.1C132,12.2,132.1,12.2,132.1,12.2
				L132.1,12.2z"/>
			<path class="st1" d="M85.2,5.1c0,0-0.1,0-0.1,0c0,0.1,0,0.2-0.1,0.2c0.1,0,0.2-0.1,0.3-0.1C85.2,5.2,85.2,5.2,85.2,5.1z"/>
			<path class="st1" d="M116.2,5c2.5-1.2,2-3,0.8-4.8c-1,0-2,0-3,0c-0.4,1.7-2.8,3-0.8,5.1C114.4,6.5,115.3,5.4,116.2,5z"/>
			<path class="st1" d="M31.2,202.2c-1.2,1.7-2.8,3.4-2.9,5.7c-0.1,1.4,1.2,2.5,2.8,2c2.1-0.6,3.1-2.3,3-4.6
				C34,203.7,33.4,202.6,31.2,202.2z"/>
			<path class="st1" d="M143.7,179.3c-0.4-0.5-1.1-0.6-1.7-1c-1.7-0.5-3.2-1.3-3.9-3.2c0.9-0.4,1.6-1.1,1.9-2
				c1.9-1.6,2.5-3.8,1.9-5.9c-1.5-5.4-1.9-11-2.5-16.6c-1-8.6-4.1-16.6-5.7-25.1c-1.8-9.5-6.6-15.7-16.5-18.7
				c-5.7-1.7-12.2-3.8-15-10.9c-1.2-3-0.9-5.8-1.3-8.7c-1.2-7-3.5-13.7-5.3-20.6c-1-3.8,0.2-8.1-2.8-11.6c-1.6-1.9-4.2-2.9-4.9-5.7
				c2.5-1.4,5.2-1.6,8-1.5c1.5,0.1,3.1,0.2,3.9-1.5c0.2-0.4-0.2-1.3-0.6-1.7c-1.3-1.2-2.7-0.9-4.1-0.2c-2.7,1.3-5.4,1.1-8.1-0.2
				c-3.4-1.7-7.1-1.7-10.8-1.4c-6.2,0.5-12.5,1.2-18.7,2.1c-2.9,0.5-5.8,1.4-7.9,3.9c-1.3,1.5-2.7,3.1,0.5,3.9
				c2.8,0.7,1,1.9,0.6,3.2c-1.9,5.9-3.9,11.8-4.7,18.1c-0.8,6.3-2.9,12.5-4.5,18.7c-1.9,7.6-9.6,11.3-12.2,18.5c0,0-0.1,0.1-0.1,0.1
				c-0.6-0.5-0.9-0.2-1.1,0.3c-1.5,0.1-2.3,0.8-1.7,2.4c0.2,1.2,2.4,2,0.6,3.6c-1.9,0.8-3.8,1.3-4.7-1.4c-0.6-1.7-2.5-2.2-3.4-3.5
				c-2.3-3.2-4.2-0.6-4.2,0.9c0,1.6-1.3,3.6,0.6,5.5c1.1,1.1,3.1,3.2-0.4,5c-1.7,0.9-0.1,2.3,1.3,2.3c1.3,0.1,2.5-0.8,3.8-0.3
				c0.4,1.2,0.8,2.4,1.2,3.7c-1.5,3-0.2,5.2,1.8,7.2c1,3.1,0.3,6.7,3.8,9c0.5,0.3,4.4,4.6,0.4,5.9c-5.9,1.9-3,4.3-1.2,6.8
				c1.3,1.9,2.9,3.6,4.5,5.2c1.1,1.1,2.5,2.4,2.3,3.7c-0.6,4.2,0.7,7.7,3.3,10.8c1,1.1,0.8,2.5-0.5,2.8c-2.6,0.6-3.3,3.8-6.2,4.1
				c5.6,1.9,7.8,8.7,14.3,9.4c1.7,0.2,3.7,1.6,2.7,4.4c-0.6,1.8,0.7,3.8,2,4.1c6.4,1.4,7.5,6.8,9.6,11.5c27,0,54,0,81,0
				c0.3-3.2-0.5-6.1-2.8-8.5c-2.1-2.1-3.1-4.6-1-7.4c4.5-1.2,6.7-4.4,7.7-8.6c0.3-1.4,0.5-3.9-1.6-4c-1.8-0.1-2.6,1.8-2.3,3.7
				c0.5,3.2-1.2,4.1-4,3.9c-0.6-0.3-1.2-1-1.7-0.9c-3.3,0.9-5,0.9-5.9-3.5c-0.7-3.3-4.5-5.5-8.1-6.6c-1.3-0.4-3.8-0.7-3.9,0.9
				c-0.2,3.2-3.5,4.4-3.7,7.7c-0.1,2.3-2.5,4.9-4.9,4.9c-3,0.1-4,2.1-6.4,4c0.7-5.4-1.1-9.3-5-12.4c0.3-0.2,0.5-0.4,0.8-0.6
				c0.8-0.3,1.4-0.8,1.6-1.7c1.8-2.8,6.3-2.8,7-6.8c0.3-0.4,0.3-1.2,1.1-1.1c0,1.5,0.4,2.8,1.7,3.8c1.6,1.3,3.5,1.7,4.7-0.1
				c1.3-2-1.3-2-2.2-2.9c1.1-1.7,2.6-1.2,3.8-0.4c3,1.8,5.9,1.7,9,0.5c3-1.2,6.1-1.1,9.1-0.1c0.7,0.3,1.3,0.6,2,0.9
				c2.3,0.8,4.6,1.6,6.9,2.4c1.1,1.4,2.8,3.1,4.2,1.8C147.5,182.2,145,180.7,143.7,179.3z M20.1,125c0.1-3.5,1.3-5.1,4.7-2.6
				c1.3,0.9,2.8,0.7,4.2,0.9c-1,2.3-3,2.2-4.9,1.7C22.7,124.6,21.5,124.3,20.1,125z M103.2,166c0.2-0.4,0.2-0.9,0.2-1.3
				C103.5,165.2,103.4,165.6,103.2,166z M66,120.1c-3.8-3.4-3.5-3.4-2.1-8.6c0.5-2-1.8-3.5-3.2-3.9c-6.7-1.9-7.8-8-9.2-13
				c-1.5-5.1-0.8-10.9,3.1-15.6c0.6-0.8,1.3-1.7,1.1-3.1c-1.4-6.5,3.1-10.1,7.2-13.6c3.5-3,7.5-1.4,11.3-0.6c0.9,0.2,2.3,1,1.8,2
				c-1.6,3.2,0.1,6.5-0.7,9.6c-1.5,5.4,0.9,9.4,6.5,9.7c3.6,0.2,4,1.8,4.6,4.9c1.5,8.8,0.4,16.4-6.7,22.4c-0.6,0.5-1.5,1.5-0.8,2.1
				c5.9,4.8-1.7,10.3,0.9,15.4c0.4,0.8-1,3.6-4.4,2.5c-3.3,0.4-6.8,0.1-6.4-5.6C68.8,123.2,67.4,121.4,66,120.1z M68.3,185.2
				c-0.4-1-0.5-2.4,1.1-2.8c1.3-0.3,2.3,0.6,2.6,1.8c0.5,2.3,0.8,4.8,1.2,7.6C69.1,190.9,69.3,187.6,68.3,185.2z M74.1,143.5
				c-0.1-1.1-0.3-2.3-0.6-3.4c-0.4-1.5-1.1-3,1-3.7c1.2-0.4,2.7-0.4,3.7,0.7c1.7,1.8-0.7,2.4-1.2,3.9c0.6,0.1,1,0.2,1.3,0.2
				c2.3,0.3,5.4-0.9,5.7,3c0.2,2-1.1,3-3.1,3C77.9,147.2,74.6,147.9,74.1,143.5z M99.3,179.1c-0.5,2.4-2.1,2.9-4.4,3.1
				c-2.1,0.2-4.4-1.1-6.3,1.4c-1.1,1.4-2.1-0.7-2.4-1.9c-1.4-4.7-2.7-9.5-3.9-14.2c-0.4-1.9-1.3-4.2,2.9-3.6c4.7,0.6,6.8-2,5.7-6.2
				c-1.7-6.7,0.6-13.1,0.7-19.6c0-2,0.3-3.9,0.5-5.9c0.1-1.3,0.4-2.5,1.9-2.3c1.4,0.1,0.9,1.5,1,2.4c0.6,5.7-0.5,11.2-1.2,16.8
				c-0.9,7.1,0.6,10.2,7.3,12.7c0.7,0.3,1.7,0.4,1.9,1.4c-1.4,1.4-2.2,3-1.8,5c-0.3,2.7-0.7,5.3-1,8c-0.1,0.6-0.2,1.2-0.3,1.8
				c0,0,0,0,0,0C99.8,178.4,99.5,178.7,99.3,179.1z M112.9,144.3c-1.2,2.3-1.4,5.5-4.1,6.5c-2,0.8-1.3-1.6-1.6-2.1
				c-0.6-4.1,2.4-4.9,4.6-6C112.6,142.3,113.3,143.5,112.9,144.3z"/>
			<path class="st1" d="M125,45.9c-3.2-1.9-5.1-2.4-7-0.9c-0.2,0.2-0.3,0.9-0.1,1.1C119.9,48.4,121.6,45.9,125,45.9z"/>
			<path class="st1" d="M182.3,43c0.1,1,0.9,1.2,1.7,1.5c0-0.9,0-1.8,0-2.7C183.3,42,182.2,41.9,182.3,43z"/>
			<path class="st1" d="M59.6,75.3c0.8,0.9,1.4,1.5,2.2,2.5c-2.4,0.6-5.6,0.7-5.2,3.8c0.2,2.2,2.8,1.7,4.6,1.6
				c2.6-0.2,4.2-1.5,4-4.4C64.8,75.1,62.4,75.1,59.6,75.3z"/>
		</g>
	</g>
	<g>
		<path class="st1" d="M420.3,4.5c0-3.3-0.3-4.7-4.2-4.5c-7.6,0.4-15.2,0.1-22.9,0.1c-4,0-8,0-12,0c-2,0-4,0-6,0c-6.7,0-13.3,0-20,0
			c-0.1,1.5,1.2,1.7,2.1,2.3c1.2,0.8,1.1,2.5-0.3,2.4c-4.5-0.4-3,3.2-3.9,5.2c-0.8,0.5-0.6,1.4-0.8,2.1c1,2,1.9,3.9,2.9,5.9
			c-0.4,0.6-0.7,1.1-1.1,1.7c-0.6,0-1.2,0-1.8,0c-0.1-1.6-0.2-3.1-0.3-4.7c0.5-1-0.8-2.1,0.1-3c-1.9-1.2-0.1-4-2.2-5.2
			c-0.3-0.6-0.5-1.2-0.8-1.8c-0.3-2.1-0.7-4-2.9-5c-0.3,0-0.7,0-1,0c-0.3,0-0.7,0-1,0c-1.3,0-2.7,0-4,0c-0.9,3.5-2.9,7,0.9,10.1
			c-1.4,1.8-2.9,0.8-4.3,0c-1.1-0.7-2.1-2-3.3-2.1c-6.6-0.5-5.2-4.1-3.3-8c-2,0-4,0-6,0c-1.3,0-2.7,0-4,0c-2,2.8-5.3,2-8.1,2.8
			c-2,0-2-1.4-1.9-2.8c-1.3,0-2.7,0-4,0c0.4,1.8-2.8,3-0.9,5c1.7,0.3,3.5,0.5,1.7,2.9h0c-1.5-0.4-2.5-1.1-1.9-2.7
			c-4,1.5-7.9,1.2-11.6-1.3c-2.3-1.5-3.9,2.3-6.3,1c0.9-1.5,2.4-2.8,1.9-4.9c-1.3,0-2.7,0-4,0c-0.8,1.7-3.8,0.1-4.1,2.7
			c-1.1,1.2-3.3-1.5-3.9,1.1c-0.3,0.3-0.7,0.7-1,1c-0.6,0.2-1.3,0.3-1.9,0.5c-0.4,0.2-0.7,0.5-1.1,0.7l-0.4,0l-0.4,0
			c-0.2-2,0.1-4.1-1.2-5.9c-1.3,0-2.7,0-4,0c-2.7,4.1-3.7,4.1-6,0c-2.3,0-4.7,0-7,0c-0.3,0-0.7,0-1,0c-0.3,0-0.7,0-1,0
			c-9.7,0-19.3,0.1-29-0.1c-2.5,0-3.1,0.6-3.1,3.1c0.1,22,0.1,44,0.1,66c2.4-0.4,3.9-1.8,5.5-3.6c4.3-4.7,6.7-10.8,11.1-15
			c6.1-5.9,13.4-10.7,17.4-18.6c3,0,1.6-2.4,2-3.8c0.8-0.5,1-1.1,0.7-2c0.4-1-0.5-2.9,1.5-2.8c1.1,0.1,1.8,1.2,1.8,2.5
			c0,0.8,0.1,1.6,0.2,2.4c-3.8,2.7,0.5,4,1,6c-0.2,3.6,2.4,1.5,3.8,1.9c1.3,0,2.7,0,4-0.1c0.6,0.1,1.2,0.2,1.8,0.3
			c2.8,1.3,5.5,1.4,8.3,0c0.7-0.1,1.3-0.2,2-0.3c3.7,0,7.3,0,11,0c0-1.3,0-2.6,0-3.8c-1.2-2-4.2-2.2-4.9-4.7
			c0.6-0.4,1.3-0.8,1.9-1.1c1-0.1,2-0.2,2.9-0.3c0.3,0,0.7,0,1,0c0.9,0.6,1.8,1.2,2.7,1.8c2.5,2-2.3,1.5-1.1,3.1
			c-0.6,0.4-1.2,0.7-1.8,1.1l-0.4,0l-0.4,0.1c0,1.3,0,2.6,0,3.8c2.8,0.5,5.4,0.1,8-1c4.2-1.7,8.9,0.1,13.1-1.7
			c1.5-0.1,3-0.2,4.5-0.3c5.8-1.3,11.6-2.7,17.4-4c2.3-0.1,4.3,0.7,6,2.2c0.6,0.7,1.2,1.3,1.8,2c1.2,3.4,4.5,4.5,7.2,6.4
			c1.6,1.1,2.8,0.5,3.1-1.6c0.1-1.1-0.5-3.2,1.9-2.2c1.4,0.6,2.2,1.7,0.7,3.4c-1.3,1.4-0.8,3,0.9,4.2c0.6,0.4,1.2,1,1,2
			c-0.6,2.5,0.4,3.9,2.8,3.7c1.2-0.1,2.4-0.8,3.7-1.2c9.6,5.7,20.1,8.8,31,11.1c0.3,0.1,0.6,0.1,1,0.2c0.7,1.1,1.8,0.9,2.9,1
			c2.8,2.9,5.5,5.8,8.3,8.7c0,0.5,0,1.1-0.1,1.6l0,0.1l-0.1,0.2c-2,0.4-3.8,1-1.4,3.3c1,1,2.2,1.8,3.3,2.7l0.2,0.1
			c2,0.7,3.1,5.3,6.1,1.3c0.2,0,0.5,0,0.7,0c1.3,1.1,1.7,3.5,4.1,2.9c0-1.3,0-2.7,0-4c0-0.7,0-1.3,0-2c0-1,0-2,0-3
			C420.2,49.6,420.2,27,420.3,4.5z M276.9,4.6c-0.1,0.1-0.2,0.3-0.3,0.3C276.8,4.8,276.9,4.7,276.9,4.6z M253.3,12.4
			c1.1-0.4,1.7-2.3,3-1.7c1.5,0.6,0.6,2.2,0.5,3.3c-1.1,0.6-2.2,1.1-3.5,1.8C253.3,14.6,253.3,13.5,253.3,12.4z M277.2,19.1
			c-1,0.1-2,0.1-2.9,0.2c-0.2,0.2-0.3,0.5-0.5,0.7s-0.3,0.5-0.5,0.7c0.2-0.2,0.3-0.5,0.5-0.7s0.3-0.5,0.5-0.7
			c-2.3-1.1-4.2-1.3-5,1.7c-0.6,0-1.2,0-1.8,0c-1.3-4.9-4.7-1.7-7.2-1.9c1.2-2,3.3-3.9,0.2-6c0.8-3.1,2.4-2.3,3.4-0.4
			c2.2,4.1,3.9,3,5.5-0.3c-0.4-1.5-1.1-3.1-1-4.4c-0.1,1.2,0.6,2.9,1,4.4c1.1-0.1,1.9,0.5,2.2,1.5c1.3,3.9,2.9,2.8,4.7,0.4
			c0.3,0,0.6-0.1,0.9-0.3c2.3-0.1,3.5,1.5,3.4,3.3C280.5,18.7,278.6,19,277.2,19.1z M312.3,9.8c-0.2,0-0.3,0-0.5,0.1
			C311.9,9.8,312.1,9.8,312.3,9.8z M310.8,16.2L310.8,16.2c-0.5,0.3-1,0.5-1.5,0.8c1.1-1.9-2.7-4.5,0.9-6c0.2-0.2,0.3-0.4,0.5-0.5
			c-0.2,0.2-0.3,0.3-0.5,0.5c1.3,0,2.7,0,4,0.1c1,0.6,1.8,1.3,1.9,2.5c-0.5,0.6-0.9,1.3-1.4,1.8c0.5-0.5,0.9-1.2,1.4-1.8
			c-1.5,0.4-3,0.8-4.4,1.2C311.4,15.3,311.1,15.8,310.8,16.2z M326.2,24.3c-0.6-0.4-1.3-0.8-1.9-1.2c0.4-0.9,0.7-1.7,1.1-2.6
			c1.8,0.6,5.2-0.4,3.7,3.6C328.1,24.1,327.2,24.2,326.2,24.3z M351.5,34.2c0-0.2,0-0.4,0.1-0.6C351.5,33.9,351.5,34,351.5,34.2z
			 M354,31.2c0,0.8-0.6,2-1.9,1c-0.3,0.3-0.4,0.6-0.5,1c0.1-0.4,0.2-0.7,0.5-1c0-1,0-2,0-3c0-0.7,0-1.3,0-2
			c-0.2-1.3-0.4-2.6-0.6-3.9c0.3-0.3,0.6-0.7,0.8-1c0.3,0,0.6,0,0.8,0C354.9,25,354.2,28.2,354,31.2z M358.6,15c2.3-1.1,5.1-5,6.4,1
			C362.8,15.7,360.7,15.3,358.6,15z M368.4,4.8c0.3-2.3,1.8-3.3,3.8-2.3c1.7,0.8,1.2,2.4,0,3.6C370.9,5.7,369.7,5.3,368.4,4.8z
			 M379.5,23c0.3,0,0.5,0,0.8-0.1C380,23,379.7,23,379.5,23z M406,60.7c-3.4-3.4-3.6-4.6-1.9-8.3c0.3-0.6,1.3-1.2,0.5-2.1
			c-1.5-1.9-3,0.1-4.5,0c-0.4-0.4-0.7-0.7-1.1-1.1c0.6-2.6-0.4-4.3-2.9-5c-0.3-0.7-0.9-1-1.7-1l0,0c-3.8-2.5,0.3-6.2-1.5-9
			c0-0.7-0.1-1.3-0.1-2c-0.4-0.2-0.8-0.5-1.1-0.8c0.3,0.3,0.6,0.6,1.1,0.8c-0.1-1.1-0.7-1.7-1.7-2.1c-0.3-0.3-1-0.8-0.9-1
			c1.7-4.7-2.2-5.4-5-6.9c-0.7-0.4-1.4-0.4-2-0.3c0.6-0.1,1.3-0.1,2,0.3c0.7-0.6,1.4-1.3,2.1-1.9c0,0,0,0,0,0
			c0.5-0.3,0.9-0.6,1.4-0.8l0.1,0.3c4.5-2,6.1,0.9,7.3,4.4c0.4,1.3-0.4,3,1.1,4c-0.9,6.1,6.2,8.3,6.9,13.6c0,0.9,0,1.8,0,2.7
			c0.6,2.3,2.3,4.2,2.3,6.6c0,1.1,0.1,2.1,0.1,3.2c0.3,0.9,0.6,1.9,0.9,2.8C407.1,58.4,407.3,59.8,406,60.7z"/>
		<path class="st1" d="M352.3,12.2L352.3,12.2L352.3,12.2L352.3,12.2C352.3,12.2,352.3,12.2,352.3,12.2c0-0.1-0.1-0.1-0.1-0.2
			c0,0,0,0,0,0c0,0,0,0,0,0c0,0-0.1,0.1-0.1,0.1C352.2,12.2,352.2,12.2,352.3,12.2L352.3,12.2z"/>
		<path class="st1" d="M305.3,5.1c0,0-0.1,0-0.1,0c0,0.1,0,0.2-0.1,0.2c0.1,0,0.2-0.1,0.3-0.1C305.4,5.2,305.3,5.2,305.3,5.1z"/>
		<path class="st1" d="M336.4,5c2.5-1.2,2-3,0.8-4.8c-1,0-2,0-3,0c-0.4,1.7-2.8,3-0.8,5.1C334.6,6.5,335.5,5.4,336.4,5z"/>
		<path class="st1" d="M251.4,202.2c-1.2,1.7-2.8,3.4-2.9,5.7c-0.1,1.4,1.2,2.5,2.8,2c2.1-0.6,3.1-2.3,3-4.6
			C254.1,203.7,253.5,202.6,251.4,202.2z"/>
		<path class="st1" d="M363.9,179.3c-0.4-0.5-1.1-0.6-1.7-1c-1.7-0.5-3.2-1.3-3.9-3.2c0.9-0.4,1.6-1.1,1.9-2
			c1.9-1.6,2.5-3.8,1.9-5.9c-1.5-5.4-1.9-11-2.5-16.6c-1-8.6-4.1-16.6-5.7-25.1c-1.8-9.5-6.6-15.7-16.5-18.7
			c-5.7-1.7-12.2-3.8-15-10.9c-1.2-3-0.9-5.8-1.3-8.7c-1.2-7-3.5-13.7-5.3-20.6c-1-3.8,0.2-8.1-2.8-11.6c-1.6-1.9-4.2-2.9-4.9-5.7
			c2.5-1.4,5.2-1.6,8-1.5c1.5,0.1,3.1,0.2,3.9-1.5c0.2-0.4-0.2-1.3-0.6-1.7c-1.3-1.2-2.7-0.9-4.1-0.2c-2.7,1.3-5.4,1.1-8.1-0.2
			c-3.4-1.7-7.1-1.7-10.8-1.4c-6.2,0.5-12.5,1.2-18.7,2.1c-2.9,0.5-5.8,1.4-7.9,3.9c-1.3,1.5-2.7,3.1,0.5,3.9c2.8,0.7,1,1.9,0.6,3.2
			c-1.9,5.9-3.9,11.8-4.7,18.1c-0.8,6.3-2.9,12.5-4.5,18.7c-1.9,7.6-9.6,11.3-12.2,18.5c0,0-0.1,0.1-0.1,0.1
			c-0.6-0.5-0.9-0.2-1.1,0.3c-1.5,0.1-2.3,0.8-1.7,2.4c0.2,1.2,2.4,2,0.6,3.6c-1.9,0.8-3.8,1.3-4.7-1.4c-0.6-1.7-2.5-2.2-3.4-3.5
			c-2.3-3.2-4.2-0.6-4.2,0.9c0,1.6-1.3,3.6,0.6,5.5c1.1,1.1,3.1,3.2-0.4,5c-1.7,0.9-0.1,2.3,1.3,2.3c1.3,0.1,2.5-0.8,3.8-0.3
			c0.4,1.2,0.8,2.4,1.2,3.7c-1.5,3-0.2,5.2,1.8,7.2c1,3.1,0.3,6.7,3.8,9c0.5,0.3,4.4,4.6,0.4,5.9c-5.9,1.9-3,4.3-1.2,6.8
			c1.3,1.9,2.9,3.6,4.5,5.2c1.1,1.1,2.5,2.4,2.3,3.7c-0.6,4.2,0.7,7.7,3.3,10.8c1,1.1,0.8,2.5-0.5,2.8c-2.6,0.6-3.3,3.8-6.2,4.1
			c5.6,1.9,7.8,8.7,14.3,9.4c1.7,0.2,3.7,1.6,2.7,4.4c-0.6,1.8,0.7,3.8,2,4.1c6.4,1.4,7.5,6.8,9.6,11.5c27,0,54,0,81,0
			c0.3-3.2-0.5-6.1-2.8-8.5c-2.1-2.1-3.1-4.6-1-7.4c4.5-1.2,6.7-4.4,7.7-8.6c0.3-1.4,0.5-3.9-1.6-4c-1.8-0.1-2.6,1.8-2.3,3.7
			c0.5,3.2-1.2,4.1-4,3.9c-0.6-0.3-1.2-1-1.7-0.9c-3.3,0.9-5,0.9-5.9-3.5c-0.7-3.3-4.5-5.5-8.1-6.6c-1.3-0.4-3.8-0.7-3.9,0.9
			c-0.2,3.2-3.5,4.4-3.7,7.7c-0.1,2.3-2.5,4.9-4.9,4.9c-3,0.1-4,2.1-6.4,4c0.7-5.4-1.1-9.3-5-12.4c0.3-0.2,0.5-0.4,0.8-0.6
			c0.8-0.3,1.4-0.8,1.6-1.7c1.8-2.8,6.3-2.8,7-6.8c0.3-0.4,0.3-1.2,1.1-1.1c0,1.5,0.4,2.8,1.7,3.8c1.6,1.3,3.5,1.7,4.7-0.1
			c1.3-2-1.3-2-2.2-2.9c1.1-1.7,2.6-1.2,3.8-0.4c3,1.8,5.9,1.7,9,0.5c3-1.2,6.1-1.1,9.1-0.1c0.7,0.3,1.3,0.6,2,0.9
			c2.3,0.8,4.6,1.6,6.9,2.4c1.1,1.4,2.8,3.1,4.2,1.8C367.6,182.2,365.1,180.7,363.9,179.3z M240.3,125c0.1-3.5,1.3-5.1,4.7-2.6
			c1.3,0.9,2.8,0.7,4.2,0.9c-1,2.3-3,2.2-4.9,1.7C242.9,124.6,241.6,124.3,240.3,125z M323.4,166c0.2-0.4,0.2-0.9,0.2-1.3
			C323.6,165.2,323.6,165.6,323.4,166z M286.2,120.1c-3.8-3.4-3.5-3.4-2.1-8.6c0.5-2-1.8-3.5-3.2-3.9c-6.7-1.9-7.8-8-9.2-13
			c-1.5-5.1-0.8-10.9,3.1-15.6c0.6-0.8,1.3-1.7,1.1-3.1c-1.4-6.5,3.1-10.1,7.2-13.6c3.5-3,7.5-1.4,11.3-0.6c0.9,0.2,2.3,1,1.8,2
			c-1.6,3.2,0.1,6.5-0.7,9.6c-1.5,5.4,0.9,9.4,6.5,9.7c3.6,0.2,4,1.8,4.6,4.9c1.5,8.8,0.4,16.4-6.7,22.4c-0.6,0.5-1.5,1.5-0.8,2.1
			c5.9,4.8-1.7,10.3,0.9,15.4c0.4,0.8-1,3.6-4.4,2.5c-3.3,0.4-6.8,0.1-6.4-5.6C288.9,123.2,287.6,121.4,286.2,120.1z M288.4,185.2
			c-0.4-1-0.5-2.4,1.1-2.8c1.3-0.3,2.3,0.6,2.6,1.8c0.5,2.3,0.8,4.8,1.2,7.6C289.2,190.9,289.4,187.6,288.4,185.2z M294.2,143.5
			c-0.1-1.1-0.3-2.3-0.6-3.4c-0.4-1.5-1.1-3,1-3.7c1.2-0.4,2.7-0.4,3.7,0.7c1.7,1.8-0.7,2.4-1.2,3.9c0.6,0.1,1,0.2,1.3,0.2
			c2.3,0.3,5.4-0.9,5.7,3c0.2,2-1.1,3-3.1,3C298.1,147.2,294.8,147.9,294.2,143.5z M319.5,179.1c-0.5,2.4-2.1,2.9-4.4,3.1
			c-2.1,0.2-4.4-1.1-6.3,1.4c-1.1,1.4-2.1-0.7-2.4-1.9c-1.4-4.7-2.7-9.5-3.9-14.2c-0.4-1.9-1.3-4.2,2.9-3.6c4.7,0.6,6.8-2,5.7-6.2
			c-1.7-6.7,0.6-13.1,0.7-19.6c0-2,0.3-3.9,0.5-5.9c0.1-1.3,0.4-2.5,1.9-2.3c1.4,0.1,0.9,1.5,1,2.4c0.6,5.7-0.5,11.2-1.2,16.8
			c-0.9,7.1,0.6,10.2,7.3,12.7c0.7,0.3,1.7,0.4,1.9,1.4c-1.4,1.4-2.2,3-1.8,5c-0.3,2.7-0.7,5.3-1,8c-0.1,0.6-0.2,1.2-0.3,1.8
			c0,0,0,0,0,0C319.9,178.4,319.7,178.7,319.5,179.1z M333,144.3c-1.2,2.3-1.4,5.5-4.1,6.5c-2,0.8-1.3-1.6-1.6-2.1
			c-0.6-4.1,2.4-4.9,4.6-6C332.7,142.3,333.4,143.5,333,144.3z"/>
		<path class="st1" d="M345.1,45.9c-3.2-1.9-5.1-2.4-7-0.9c-0.2,0.2-0.3,0.9-0.1,1.1C340,48.4,341.8,45.9,345.1,45.9z"/>
		<path class="st1" d="M402.4,43c0.1,1,0.9,1.2,1.7,1.5c0-0.9,0-1.8,0-2.7C403.4,42,402.4,41.9,402.4,43z"/>
		<path class="st1" d="M279.7,75.3c0.8,0.9,1.4,1.5,2.2,2.5c-2.4,0.6-5.6,0.7-5.2,3.8c0.2,2.2,2.8,1.7,4.6,1.6
			c2.6-0.2,4.2-1.5,4-4.4C285,75.1,282.6,75.1,279.7,75.3z"/>
	</g>
	<g>
		<path class="st0" d="M640.4,81.2c0,43.5,0,87,0.1,130.5c0,3-0.6,3.6-3.6,3.6c-19.2-0.2-38.3-0.1-57.5-0.1c0.3-3.2-0.5-6.1-2.8-8.5
			c-2.1-2.1-3.1-4.6-1-7.4c4.5-1.2,6.7-4.4,7.7-8.6c0.3-1.4,0.5-3.9-1.6-4c-1.8-0.1-2.6,1.8-2.3,3.7c0.5,3.2-1.2,4.1-4,3.9
			c-0.6-0.3-1.2-1-1.7-0.9c-3.3,0.9-5,0.9-5.9-3.5c-0.7-3.3-4.5-5.5-8.1-6.6c-1.3-0.4-3.8-0.7-3.9,0.9c-0.2,3.2-3.5,4.4-3.7,7.7
			c-0.1,2.3-2.5,4.9-4.9,4.9c-3,0.1-4,2.1-6.4,4c0.7-5.4-1.1-9.3-5-12.4c0.3-0.2,0.5-0.4,0.8-0.6c0.8-0.3,1.4-0.8,1.6-1.7
			c1.8-2.8,6.3-2.8,7-6.8c0.4-0.4,0.3-1.2,1.2-1.1l-0.1-0.1c-0.1,1.6,0.4,2.9,1.7,3.9c1.6,1.3,3.5,1.7,4.7-0.1c1.3-2-1.3-2-2.2-2.9
			c1.1-1.7,2.6-1.2,3.8-0.4c3,1.8,5.9,1.7,9,0.5c3-1.2,6.1-1.1,9.1-0.1c0.7,0.3,1.3,0.6,2,0.9c2.3,0.8,4.6,1.6,6.9,2.4
			c1.1,1.4,2.8,3.1,4.2,1.8c2.3-2-0.3-3.4-1.5-4.8c-0.4-0.5-1.1-0.6-1.7-1c-1.7-0.5-3.2-1.3-3.9-3.2c0.9-0.4,1.6-1.1,1.9-2
			c1.9-1.6,2.5-3.8,1.9-5.9c-1.5-5.4-1.9-11-2.5-16.6c-1-8.6-4.1-16.6-5.7-25.1c-1.8-9.5-6.6-15.7-16.5-18.7
			c-5.7-1.7-12.2-3.8-15-10.9c-1.2-3-0.9-5.8-1.3-8.7c-1.2-7-3.5-13.7-5.3-20.6c-1-3.8,0.2-8.1-2.8-11.6c-1.6-1.9-4.2-2.9-4.9-5.7
			c2.5-1.4,5.2-1.6,8-1.5c1.5,0.1,3.1,0.2,3.9-1.5c0.2-0.4-0.2-1.3-0.6-1.7c-1.3-1.2-2.7-0.9-4.1-0.2c-2.7,1.3-5.4,1.1-8.1-0.2
			c-3.4-1.7-7.1-1.7-10.8-1.4c-6.2,0.5-12.5,1.2-18.7,2.1c-2.9,0.5-5.8,1.4-7.9,3.9c-1.3,1.5-2.7,3.1,0.5,3.9c2.8,0.7,1,1.9,0.6,3.2
			c-1.9,5.9-3.9,11.8-4.7,18.1c-0.8,6.3-2.9,12.5-4.5,18.7c-1.9,7.6-9.6,11.3-12.2,18.5l-0.1,0.1c-0.5-0.5-0.9-0.2-1.1,0.3
			c-1.5,0.1-2.3,0.8-1.7,2.4c0.2,1.2,2.4,2,0.6,3.6c-1.9,0.8-3.8,1.3-4.7-1.4c-0.6-1.7-2.5-2.2-3.4-3.5c-2.3-3.2-4.2-0.6-4.2,0.9
			c0,1.6-1.3,3.6,0.6,5.5c1.1,1.1,3.1,3.2-0.4,5c-1.7,0.9-0.1,2.3,1.3,2.3c1.3,0.1,2.5-0.8,3.8-0.3c0.4,1.2,0.8,2.4,1.2,3.7
			c-1.5,3-0.2,5.2,1.8,7.2c1,3.1,0.3,6.7,3.8,9c0.5,0.3,4.4,4.6,0.4,5.9c-5.9,1.9-3,4.3-1.2,6.8c1.3,1.9,2.9,3.6,4.5,5.2
			c1.1,1.1,2.5,2.4,2.3,3.7c-0.6,4.2,0.7,7.7,3.3,10.8c1,1.1,0.8,2.5-0.5,2.8c-2.6,0.6-3.3,3.8-6.2,4.1c5.6,1.9,7.8,8.7,14.3,9.4
			c1.7,0.2,3.7,1.6,2.7,4.4c-0.6,1.8,0.7,3.8,2,4.1c6.4,1.4,7.5,6.8,9.6,11.5c-18,0-35.9-0.2-53.9,0.1c-3.9,0.1-4.2-1.2-4.2-4.5
			c0.1-47.2,0.1-94.4,0.1-141.7c2.4-0.4,3.9-1.8,5.5-3.6c4.3-4.7,6.7-10.8,11.1-15c6.1-5.9,13.4-10.7,17.4-18.6c3,0,1.6-2.4,2-3.8
			c0.8-0.5,1-1.1,0.7-2c0.4-1-0.5-2.9,1.5-2.8c1.1,0.1,1.8,1.2,1.8,2.5c0,0.8,0.1,1.6,0.2,2.4c-3.8,2.7,0.5,4,1,6
			c-0.2,3.6,2.4,1.5,3.8,1.9c1.3,0,2.7,0,4-0.1c0.6,0.1,1.2,0.2,1.8,0.3c2.8,1.3,5.5,1.4,8.3,0c0.7-0.1,1.3-0.2,2-0.3
			c3.7,0,7.3,0,11,0c2.8,0.5,5.4,0.1,8-1c4.2-1.7,8.9,0.1,13.1-1.7c1.5-0.1,3-0.2,4.5-0.3c5.8-1.3,11.6-2.7,17.4-4
			c2.3-0.1,4.3,0.7,6,2.2c0.6,0.7,1.2,1.3,1.8,2c1.2,3.4,4.5,4.5,7.2,6.4c1.6,1.1,2.8,0.5,3.1-1.6c0.1-1.1-0.5-3.2,1.9-2.2
			c1.4,0.6,2.2,1.7,0.7,3.4c-1.3,1.4-0.8,3,0.9,4.2c0.6,0.4,1.2,1,1,2c-0.6,2.5,0.4,3.9,2.8,3.7c1.2-0.1,2.4-0.8,3.7-1.2
			c9.6,5.7,20.1,8.8,31,11.1c0.3,0.1,0.6,0.1,1,0.2c0.7,1.1,1.8,0.9,2.9,1c2.8,2.9,5.5,5.8,8.3,8.7c0,0.5,0,1.1-0.1,1.6l0,0.1
			l-0.1,0.2c-2,0.4-3.8,1-1.4,3.3c1,1,2.2,1.8,3.3,2.7l0.2,0.1c2,0.7,3.1,5.3,6.1,1.3c0.2,0,0.5,0,0.7,0
			C637.5,79.3,637.9,81.7,640.4,81.2z M471.5,202.2c-1.2,1.7-2.8,3.4-2.9,5.7c-0.1,1.4,1.2,2.5,2.8,2c2.1-0.6,3.1-2.3,3-4.6
			C474.3,203.7,473.7,202.6,471.5,202.2z M565.3,45.9c-3.2-1.9-5.1-2.4-7-0.9c-0.2,0.2-0.3,0.9-0.1,1.1
			C560.2,48.4,561.9,45.9,565.3,45.9z"/>
		<path class="st0" d="M525.6,5.2c-4.2,1.6-8.1,1.3-11.9-1.2c-2.3-1.5-3.9,2.3-6.3,1c0.9-1.5,2.4-2.8,1.9-4.9c5.7,0,11.3,0,17,0
			C526.8,2,523.5,3.2,525.6,5.2z"/>
		<path class="st0" d="M561.3,10.2c-1.4,1.8-2.9,0.8-4.3,0c-1.1-0.7-2.1-2-3.3-2.1c-6.6-0.5-5.2-4.1-3.3-8c1.3,0,2.7,0,4,0
			c-0.4,1.7-2.8,3-0.8,5.1c1.2,1.3,2.1,0.2,3-0.3c2.5-1.2,2-3,0.8-4.8c1,0,2,0,3,0C559.5,3.6,557.5,7.2,561.3,10.2z"/>
		<path class="st0" d="M575.4,0.2c-0.1,1.5,1.2,1.7,2.1,2.3c1.2,0.8,1.1,2.5-0.3,2.4c-4.5-0.4-3,3.2-3.9,5.2
			c-0.8,0.5-0.6,1.4-0.8,2.1c-2.2-1.1-0.3-4.1-2.4-5.3c-0.3-0.6-0.5-1.2-0.8-1.8c-0.3-2.1-0.7-4-2.9-5
			C569.4,0.2,572.4,0.2,575.4,0.2z"/>
		<path class="st0" d="M492.5,6.1c-0.2-2,0.1-4.1-1.2-5.9c4.7,0,9.3,0,14,0c-0.8,1.7-3.8,0.1-4.1,2.7c-1.1,1.2-3.3-1.5-3.9,1.1
			c-0.3,0.3-0.7,0.7-1,1c-0.6,0.2-1.3,0.3-1.9,0.5c-0.4,0.2-0.7,0.5-1.1,0.7l-0.4,0L492.5,6.1z"/>
		<path class="st0" d="M532.3,3c-2,0-2-1.4-1.9-2.8c3.3,0,6.7,0,10,0C538.3,2.9,535.1,2.1,532.3,3z"/>
		<path class="st0" d="M487.4,0.2c-2.7,4.1-3.7,4.1-6,0C483.4,0.2,485.4,0.2,487.4,0.2z"/>
		<path class="st0" d="M515.4,130.3c-3.3,0.4-6.8,0.1-6.4-5.6c0.1-1.5-1.2-3.3-2.7-4.6c-3.8-3.4-3.5-3.4-2.1-8.6
			c0.5-2-1.8-3.5-3.2-3.9c-6.7-1.9-7.8-8-9.2-13c-1.5-5.1-0.8-10.9,3.1-15.6c0.6-0.8,1.3-1.7,1.1-3.1c-1.4-6.5,3.1-10.1,7.2-13.6
			c3.5-3,7.5-1.4,11.3-0.6c0.9,0.2,2.3,1,1.8,2c-1.6,3.2,0.1,6.5-0.7,9.6c-1.5,5.4,0.9,9.4,6.5,9.7c3.6,0.2,4,1.8,4.6,4.9
			c1.5,8.8,0.4,16.4-6.7,22.4c-0.6,0.5-1.5,1.5-0.8,2.1c5.9,4.8-1.7,10.3,0.9,15.4C520.2,128.6,518.9,131.5,515.4,130.3z
			 M502.1,77.7c-2.4,0.6-5.6,0.7-5.2,3.8c0.2,2.2,2.8,1.7,4.6,1.6c2.6-0.2,4.2-1.5,4-4.4c-0.3-3.5-2.7-3.5-5.5-3.4
			C500.6,76.1,501.2,76.8,502.1,77.7z"/>
		<path class="st0" d="M540.5,176.1c-0.1,0.6-0.2,1.2-0.3,1.8c0,0,0.1,0,0.1,0c-0.2,0.4-0.4,0.8-0.7,1.2c-0.5,2.4-2.1,2.9-4.4,3.1
			c-2.1,0.2-4.4-1.1-6.3,1.4c-1.1,1.4-2.1-0.7-2.4-1.9c-1.4-4.7-2.7-9.5-3.9-14.2c-0.4-1.9-1.3-4.2,2.9-3.6c4.7,0.6,6.8-2,5.7-6.2
			c-1.7-6.7,0.6-13.1,0.7-19.6c0-2,0.3-3.9,0.5-5.9c0.1-1.3,0.4-2.5,1.9-2.3c1.4,0.1,0.9,1.5,1,2.4c0.6,5.7-0.5,11.2-1.2,16.8
			c-0.9,7.1,0.6,10.2,7.3,12.7c0.7,0.3,1.7,0.4,1.9,1.4c-1.4,1.4-2.2,3-1.8,5C541.2,170.8,540.9,173.5,540.5,176.1z"/>
		<path class="st0" d="M517.3,140.9c0.6,0.1,1,0.2,1.3,0.2c2.3,0.3,5.4-0.9,5.7,3c0.2,2-1.1,3-3.1,3c-2.9,0.1-6.2,0.8-6.8-3.7
			c-0.1-1.1-0.3-2.3-0.6-3.4c-0.4-1.5-1.1-3,1-3.7c1.2-0.4,2.7-0.4,3.7,0.7C520.2,138.8,517.9,139.4,517.3,140.9z"/>
		<path class="st0" d="M547.5,148.6c-0.6-4.1,2.4-4.9,4.6-6c0.8-0.4,1.5,0.9,1.1,1.7c-1.2,2.3-1.4,5.5-4.1,6.5
			C547.1,151.5,547.8,149.2,547.5,148.6z"/>
		<path class="st0" d="M513.5,191.8c-4.1-0.9-3.9-4.2-4.9-6.6c-0.4-1-0.5-2.4,1.1-2.8c1.3-0.3,2.3,0.6,2.6,1.8
			C512.7,186.5,513,188.9,513.5,191.8z"/>
		<path class="st0" d="M460.4,125c0.1-3.5,1.3-5.1,4.7-2.6c1.3,0.9,2.8,0.7,4.2,0.9c-1,2.3-3,2.2-4.9,1.7
			C463,124.6,461.8,124.3,460.4,125z"/>
		<path class="st0" d="M627.6,57.1c-0.3,1.2,0,2.7-1.4,3.5c-3.4-3.4-3.6-4.6-1.9-8.3c0.3-0.6,1.3-1.2,0.5-2.1c-1.5-1.9-3,0.1-4.5,0
			c-0.4-0.4-0.7-0.7-1.1-1.1c0.6-2.6-0.4-4.3-2.9-5c-0.3-0.7-0.9-1-1.7-1c-3.8-2.5,0.3-6.2-1.5-9c0-0.7-0.1-1.3-0.1-2
			c-0.1-1.1-0.7-1.7-1.7-2.1c-0.3-0.3-1-0.8-0.9-1c1.7-4.7-2.2-5.4-5-6.9c0.7-0.6,1.4-1.3,2.1-1.9c0,0-0.2,0.1-0.2,0.1
			c0.5-0.3,1-0.6,1.5-0.9l0.1,0.3c4.5-2,6.1,0.9,7.3,4.4c0.4,1.3-0.4,3,1.1,4c-0.9,6.1,6.2,8.3,6.9,13.6c-0.7,0.3-1.7,0.1-1.7,1.3
			c0.1,1,0.9,1.2,1.7,1.5c0.6,2.3,2.3,4.2,2.3,6.6c0,1.1,0.1,2.1,0.1,3.2C626.9,55.3,627.2,56.2,627.6,57.1z"/>
		<path class="st0" d="M578.7,15c2.3-1.1,5.1-5,6.4,1C582.9,15.7,580.8,15.3,578.7,15z"/>
		<path class="st0" d="M588.5,4.8c0.3-2.3,1.8-3.3,3.8-2.3c1.7,0.8,1.2,2.4,0,3.6C591.1,5.7,589.8,5.3,588.5,4.8z"/>
		<path class="st0" d="M575.4,18.1c-0.4,0.6-0.7,1.1-1.1,1.7c-0.6,0-1.2,0-1.8,0c-0.1-1.6-0.2-3.1-0.3-4.7c0.5-1-0.9-2.1,0.1-3.1
			C573.4,14.1,574.4,16.1,575.4,18.1z"/>
		<path class="st0" d="M487.6,21.1c-1.3-4.9-4.7-1.7-7.2-1.9c1.2-2,3.3-3.9,0.2-6c0.8-3.1,2.4-2.3,3.4-0.4c2.2,4.1,3.9,3,5.5-0.3
			c1.1-0.1,1.9,0.5,2.2,1.5c1.3,3.9,2.9,2.8,4.7,0.4c0.3,0,0.6-0.1,0.9-0.3c2.3-0.1,3.5,1.5,3.4,3.3c-0.1,1.3-2,1.7-3.4,1.8
			c-1,0.1-2,0.1-2.9,0.2c-2.3-1.1-4.2-1.3-5,1.7C488.8,21.1,488.2,21.1,487.6,21.1z M482.1,15.6c-0.1-0.1-0.2-0.2-0.3-0.3
			c-0.1,0.1-0.2,0.2-0.3,0.3c0.2,0.1,0.3,0.2,0.5,0.3C482,15.8,482,15.7,482.1,15.6z"/>
		<path class="st0" d="M513.2,32.1l-0.4,0l-0.4,0.1c-1.2-2-4.2-2.2-4.9-4.7c0.6-0.4,1.3-0.8,1.9-1.1c1-0.1,2-0.2,2.9-0.3
			c0.3,0,0.7,0,1,0c0.9,0.6,1.8,1.2,2.7,1.8c2.5,2-2.3,1.5-1.1,3.1C514.4,31.4,513.8,31.7,513.2,32.1z"/>
		<path class="st0" d="M534.4,11.1c1,0.6,1.8,1.3,1.9,2.5c-1.5,0.4-3,0.8-4.4,1.2c-0.3,0.5-0.6,1-1,1.5c-0.5,0.3-1,0.5-1.5,0.8
			c1.1-1.9-2.7-4.5,0.9-6C531.7,11,533.1,11,534.4,11.1z"/>
		<path class="st0" d="M571.6,23.2c0.3-0.3,0.6-0.7,0.8-1c0.3,0,0.6,0,0.8,0c1.8,2.8,1.1,6,0.9,9c0,0.8-0.6,2-1.9,1c0-1,0-2,0-3
			c0-0.7,0-1.3,0-2C572,25.8,571.8,24.5,571.6,23.2z"/>
		<path class="st0" d="M545.5,20.4c1.8,0.6,5.2-0.4,3.7,3.6c-0.9,0.1-1.9,0.1-2.8,0.2c-0.6-0.4-1.3-0.8-1.9-1.2
			C544.8,22.2,545.2,21.3,545.5,20.4z"/>
		<path class="st0" d="M525.4,5.1c1.7,0.3,3.7,0.5,1.8,3C525.6,7.7,524.6,6.9,525.4,5.1z"/>
		<path class="st0" d="M473.5,12.4c1.1-0.4,1.7-2.3,3-1.7c1.5,0.6,0.6,2.2,0.5,3.3c-1.1,0.6-2.2,1.1-3.5,1.8
			C473.5,14.6,473.5,13.5,473.5,12.4z"/>
	</g>
</g>
<g>
</g>
<g>
</g>
<g>
</g>
<g>
</g>
<g>
</g>
<g>
</g>
<g>
</g>
<g>
</g>
<g>
</g>
<g>
</g>
<g>
</g>
<g>
</g>
<g>
</g>
<g>
</g>
<g>
</g>
</svg>
