<?xml version="1.0" encoding="utf-8"?>
<!-- Generator: Adobe Illustrator 17.1.0, SVG Export Plug-In . SVG Version: 6.00 Build 0)  -->
<!DOCTYPE svg PUBLIC "-//W3C//DTD SVG 1.1//EN" "http://www.w3.org/Graphics/SVG/1.1/DTD/svg11.dtd">
<svg version="1.1" id="Layer_1" xmlns="http://www.w3.org/2000/svg" xmlns:xlink="http://www.w3.org/1999/xlink" x="0px" y="0px"
	 viewBox="0 0 638.5 241.9" style="enable-background:new 0 0 638.5 241.9;" xml:space="preserve">
<style type="text/css">
	.st0{fill:#010000;}
	.st1{fill:#FB0001;}
	.st2{fill:#080203;}
</style>
<g>
	<g>
		<path class="st0" d="M400.6,240.1c-37.7,0-75.3,0-113,0c0-1.6-0.2-3.1-1.8-4c0-3.3,0-6.7,0-10c2.4-1.9,0.4-2.4-1-3
			c-0.4-2.1-2.5-3.6-2.4-5.9c2.7-2.3,0.3-4.6,0.1-6.9c3.9-1.8,0.6-6.3,3.1-8.6c2.1,0.1,4.6,2.2,6.1-1c1.3-2.9-0.6-4.6-2.7-6.1
			c-0.4-0.3-0.8-0.5-1.3-0.8c0.6-0.6,1.1-1.1,1.7-1.7c1.9-0.1,3-1.1,3.1-3.1c0.3-0.6,0.6-1.3,0.9-1.9c1.4-0.5,2-1.5,2.1-2.9
			c0.3,0,0.7,0,1,0c0.5,0.4,1,0.8,1.4,1.2c0.1-0.2,0.2-0.4,0.3-0.6c-0.6-0.2-1.2-0.4-1.8-0.6c-0.3,0-0.7,0-1,0
			c-0.7-0.3-1.4-0.7-2.1-1c-0.2-0.6-0.5-1.2-0.7-1.8c1-0.7,1.2-1.4,0-2.2c-0.3-6.9-4-13.6-0.4-20.6c0.3-0.7-0.6-2.2-1.3-3.1
			c-1.4-2.1-3.7-3.8-4.2-6c-1.5-6.1-5.7-5.5-10.2-4.9c-1.1-1.3-2.2-2.6-1.1-4.5c0.7-1.2,0.4-2.2-0.9-2.9c0-0.3,0-0.7,0-1
			c0.3-0.7,0.5-1.4,0.8-2.2c-0.1-1.9,0.7-4-1.3-5.5c-1.8,0.6-1.5,2.3-1.8,3.6c-2.1,0.6-2.7,2.2-2.8,4.1c-0.7,1.1-1.9,0.8-3,1
			c-0.7-0.8-1.4-1.6-2.2-2.4c0-0.3,0.1-0.6,0.3-0.7c3.5-1.2,3-3,0.9-5.2c-0.1-0.3-0.1-0.6,0.1-0.8c1.4-0.8,2.3-1.9,1.8-3.6
			c-0.5-1.7-1.8-2.2-3.4-2.3c-1.1,0-2.5-0.3-3.2,0.8c-0.8,1.4,0.7,1.9,1.5,2.6c-1.7,2.6-0.1,6.4-3.1,8.5c0,0.3,0,0.7,0,1
			c0.4,0.7,0.8,1.4,1.1,2c3.7,1.6,3.9,4.4,2.6,7.7c-0.3,0.7-0.3,1.6-0.4,2.4l0,0c-2,0.7-2.3,1.6-0.4,2.8c0,6.3,0,12.7,0,19
			c-1.3,0-2.5,0-3.8,0c-2.2-0.4-2.5-2-1.9-3.7c0.8-2.1,0.8-4.2,1-6.3c1.2-0.7,1-1.5,0-2.2c0.1-0.5-0.5-1.4,0.7-1.2
			c-0.4-0.5-0.8-1-1.2-1.5c-0.3,0.1-0.5,0-0.7-0.2c-0.8-1.8-2.7-1.9-4-2.9c0-0.3,0-0.6,0-0.9c-0.3-1-0.5-2-0.8-3.1
			c-0.1-2.4,2.1-4.8-0.2-7.2c0-1.3,0-2.7-0.1-4c1.1-2.5,2.6-4.9,2.2-7.8c1.5-0.8,1.3-1.9,0.7-3.1l0,0c2.1-0.6,2.8-2.1,2.6-4.1
			c-0.3-2,0.4-3.5,1.8-4.9c3.5-0.2,6.9,1.8,10.5,1c0.1-0.3,0.3-0.6,0.4-0.9c0-0.8-0.1-1.6,0.7-2.1c2-0.9,4.6-2,4.8-4.1
			c0.2-1.8-2.4-1.5-3.8-1.9c0.2-1.1,0.1-2.2,1.1-3c2.3-1,2.1-3.1,2-5.1c0.3-0.8,0.4-1.6,0.9-2.3c3.5-5.7,8.6-9.4,14.8-11.8
			c5.1-2,8.7-7.1,15-7.1c2,0,2.7-3,1.6-5.2c-0.9-1.8-1.9-3.5-2.8-5.2c2.2-2.2,1.6-5.5,2.9-8.1c0.5,0,1,0,1.5,0
			c0.8,1.3,1.6,2.7,2.4,4c0.7,2.2,1.3,4.4,2,6.6c0.3,0.7,0.7,1.4,1,2.2c0.3,0.6,0.6,1.2,1,1.8c0.1,0.6,0.2,1.3,0.4,1.9
			c2.9,5.4,4.4,5.6,9.5,2.1c4.9-3.4,7.7-8,9-13.7c0.5-0.1,0.9-0.1,1.4-0.2c3.3-2.3,6.6-4.7,9.9-7c1.3-0.9,2.6-2.2,1.1-3.6
			c-2.2-2-1.4-4.4-1.2-6.5c0.4-5.6-0.9-10.7-3.1-15.8c-0.8-2-1.9-4.1-1.8-6.1c0.1-2.7-0.7-6.7,2.5-7.6c5.2-1.4,10.8-1.9,14.5,3.5
			c2.7-3,2.6-5.8,0-8.4c-2.5-2.6-5.1-3.1-8.3-0.6c-1.9,1.5-4.3,2.9-7.3,1.1c-5.5-3.3-10.8-2.4-16.4,0.7c-4.6,2.5-9,6.5-14.4,6.1
			c-3.4-0.3-5.5-0.1-7.3,2.8c-0.8,1.2-2.2,2.1-4.4,4c-0.7-10-4-18.8,0.7-27.6c10.7,0,21.3,0,32,0c0.9,3.1-2.8,2.7-4.1,5.6
			c7.7,0.5,14-1.9,20.1-5.6c2.3,0,4.7,0,7,0c3.1,1.8,8.2,2.5,4.5,8c4.1,5.3,0,12.3,3.8,17.8c1.6,2.4,1,5.6,0.4,8.3
			c-0.6,2.5-3.3,1.5-5.1,2.1c-1.5,0.5-2.1,1.7-2.9,3.1c-3.1,5.7-4.5,11.7-3.6,18.2c1.2,8.8-2.4,16-7.2,22.6c-4,5.5-9,9.8-16.7,8.8
			c-2.8-0.4-4.9-2.6-7.7-2.4c-1.6,3.4,1.8,5.5,2.1,8.3c1,10.1,9.9,14.6,18.3,8.9c4.8-3.2,9.4-6.6,14.1-10c1.2,0.9,2.6,2.2,3.9,1.2
			c1.6-1.2-0.4-2.2-1-3.2c0.3-0.3,0.6-0.5,1-0.8c2.7,0.4,5.1,2.2,8,2.1c-2.3,4.4-1.9,4.5,3,5.1c7.7,0.9,16-2.8,23.1,2.8
			c0.2,0.2,0.7,0.2,1,0c7-3.2,9.3,2.5,12.7,6.4c4.5,5.1,7.7,11.7,14.3,14.7c0,13,0,26,0,39c-1.1,0.2-2.2,0.5-3.4,0.7
			c-4.9,0.7-10.2,3.3-14.5,0.5c-4.2-2.8-4.2-0.1-5,2.2c-0.4,1.2-0.4,2.6-1.3,3.7c-1.4,1.1-2,2.4-0.7,4c-0.1,0.6-0.2,1.3-0.3,1.9
			c-1.9,0.6-1.6,3.3-2.7,3.7c-6.1,2.6-2.5,5-0.1,7.5c-0.1,1.3-0.2,2.5-0.2,3.8c-1.3,0.7-1.3,1.3,0,2c0.9,4.9,2.2,9.8,2.2,14.8
			c0.3,0.7,0.5,1.4,0.8,2.1c0,0.3,0,0.7,0,1c-2.2,1.8-4.2,3.8-4.8,6.7c-0.6,2.4,1.2,3.8,2.7,4.9c1.2,0.9,1.9-0.7,2.4-1.7
			c1.5-0.8,1.1-2.6,1.8-3.8c2.5-4,2.8-8.2,2.4-13.1c-0.5-6.5-3.3-12.4-3.5-18.9c8.2-2.5,9.2-5.1,3.9-10.1c0.4-2-0.2-4.2,1.4-5.9
			c2.5-1,3.1,3.8,5.9,2c1.3,1.5,2.2,3,1.7,5.1c0,0.4,0,0.9,0,1.3c0.1,0.7-0.1,1.2-0.8,1.4c0.1,0,0.2,0,0.3-0.1c-0.1,0-0.2,0-0.3,0
			c0.4-0.4,0.7-0.3,0.9,0.1c-0.8,0.5-2,0.8-1.8,2c0.2,1,1.2,0.9,2,0.9c1.3,0.1,2.6,0.1,3.9,0.2c1.5,0.9,0.7,2.4,1.1,3.7
			c-2.1,2.8,0.4,4,2,5.4c-0.1,0.7-0.3,1.3-0.4,2c-0.2,0.4-0.5,0.7-0.7,1.1c-0.9,4.6-2,9-1.3,13.9c0.4,3,2.9,7.5-1.8,9.9
			c0,0.3,0,0.7-0.1,1c-0.9,2.8-1.8,5.7-4.7,7.2c-2.4-1-2.7,0.7-3,2.4c-0.4,2.4,0.9,4.3,1.9,6.3C403.5,234.4,402.1,237.2,400.6,240.1
			z M297.9,178l-0.4-0.1l0.1,0.3L297.9,178z"/>
		<path class="st1" d="M312.7,70.9c-0.7-2.2-1.3-4.4-2-6.6c2-2.9,4.4-4.6,8.2-3.6c1.6,0.4,3.1-0.2,3.5-1.8c0.4-1.7-1.3-1.9-2.4-2.6
			c-5.4-3.3-8.2,1.4-11.7,3.9c-0.5,0-1,0-1.5,0c-4.7,1.4-5.2,3.1-2.9,8.1c0.9,1.7,2,3.4,2.8,5.2c1.1,2.2,0.4,5.2-1.6,5.2
			c-6.3,0-9.8,5.1-15,7.1c-6.1,2.4-11.3,6.1-14.8,11.8c-0.4,0.7-0.6,1.5-0.9,2.3c-1.4,1.4-2.1,3.1-2,5.1c-1,0.8-0.9,1.9-1.1,3
			c-1.5,1.8-0.4,4-1,6c-0.8,0.5-0.8,1.3-0.7,2.1c-0.3,0.2-0.4,0.5-0.4,0.9c-3.6,0.8-6.9-1.2-10.5-1c-3.5-0.8-6.9-1.9-10.4-2.4
			c-9.4-1.4-18.3-4.8-27.8-5.5c0-18.3,0-36.7,0-55c2.9-2,7.3-0.9,9.5-4.2c-3.3-3.3-6.4-0.4-9.5,0.2c0-15.3,0.1-30.7-0.1-46
			c0-2.5,0.6-3.1,3.1-3.1c25.3,0.1,50.7,0.1,76,0.1c-4.7,8.8-1.4,17.6-0.7,27.6c2.2-1.9,3.6-2.8,4.4-4c1.8-2.9,3.9-3.1,7.3-2.8
			c5.4,0.4,9.9-3.6,14.4-6.1c5.6-3,10.9-4,16.4-0.7c3,1.8,5.3,0.4,7.3-1.1c3.2-2.5,5.7-2,8.3,0.6c2.5,2.6,2.7,5.4,0,8.4
			c-3.8-5.3-9.3-4.9-14.5-3.5c-3.3,0.9-2.4,4.9-2.5,7.6c-0.1,2,0.9,4.2,1.8,6.1c2.1,5.1,3.5,10.2,3.1,15.8c-0.2,2.1-0.9,4.5,1.2,6.5
			c1.5,1.4,0.2,2.7-1.1,3.6c-3.3,2.3-6.6,4.6-9.9,7c-0.2-1.7-0.8-3.2-2.3-4.2c-1.1-0.8-2.2-0.8-3.2,0.1c-0.6,0.6-1.4,1.3-1.4,1.9
			c0.1,1.8,1.7,1,2.7,1.3c0.9,0.3,1.8,0.7,2.8,1c-1.3,5.7-4.1,10.3-9,13.7c-5,3.5-6.6,3.3-9.5-2.1c0.8-0.8,0.3-1.4-0.4-1.9
			c-0.3-0.6-0.6-1.2-1-1.8C313.7,72.2,313.5,71.4,312.7,70.9z M247.1,54c7.5-1,15.2,1.8,22.5-1.6c0.7-0.3,1.3-1,1.8-1.7
			c2.4-2.9,5.5-3.7,9.3-3.8c6.8-0.1,13.4-1,18.8-6.1c2.4-2.3,5.5-3.2,8.1,0.3c0.5,0.7,1.6,1.2,2.5,1.5c0.9,0.4,1.8,1.8,2.9,0.2
			c0.8-1.1,0.6-2.2-0.3-3.2c-1.2-1.2-2.6-2.1-3.6-3.4c-4.4-5.9-7.4-6.2-11.1,0.2c-3,5.2-6.9,7.3-12.6,6.4
			c-7.6-1.1-13.9,1.1-19.2,6.8c-2.2,2.4-5.2,2.8-8.3,1.8C254,50.4,250.3,50.9,247.1,54z M330.8,37.4c1.8-4.2-0.8-4.4-2.6-5
			c-2.7-0.8-5.3,0.1-6.2,2.6c-1.1,2.9,1.6,5.2,3,7.4c0.2,0.4,3.1-0.9,4.8-1.4C328.2,38.4,330.6,37.6,330.8,37.4z"/>
		<path class="st1" d="M420.6,122.1c-6.7-3.1-9.8-9.6-14.3-14.7c-3.5-3.9-5.8-9.7-12.7-6.4c-0.3,0.1-0.8,0.1-1,0
			c-7.1-5.6-15.4-1.9-23.1-2.8c-5-0.6-5.3-0.7-3-5.1c1.6-3.6-0.9-2.9-2.9-2.8c-0.3-0.1-0.6-0.2-0.9-0.3c0.7-0.9,1.4-1.8,2.1-2.6
			c1-1.1,2.6-2.3,1.3-3.6c-1.7-1.7-3.6,0-4.5,1.2c-1.4,1.7-2.1,4-3,6c-0.3,0.3-0.6,0.5-1,0.8c-1.3,0.3-2.3,0.9-3,2.1
			c-4.7,3.3-9.4,6.8-14.1,10c-8.4,5.7-17.3,1.2-18.3-8.9c-0.3-2.7-3.7-4.8-2.1-8.3c2.8-0.2,4.9,2.1,7.7,2.4c7.7,1,12.7-3.3,16.7-8.8
			c4.8-6.7,8.4-13.9,7.2-22.6c-0.9-6.4,0.6-12.4,3.6-18.2c0.8-1.4,1.3-2.6,2.9-3.1c1.8-0.6,4.5,0.4,5.1-2.1c0.6-2.7,1.3-5.9-0.4-8.3
			c-3.8-5.5,0.3-12.5-3.8-17.8c3.7-5.6-1.4-6.2-4.5-8c20.9,0,41.8,0.1,62.7-0.1c2.6,0,3.5,0.3,3.4,3.2c-0.2,9.9-0.1,19.9-0.1,29.8
			c-2.2-0.1-4.4,0.2-6.4-0.4c-5.5-1.7-8.7-1.1-11.3,4.1c-2.3,4.6-5.8,7-10.5,8.2c-1.4,0.4-3.5,0.6-3.2,2.4c0.3,2.1,2.6,1.8,4.1,1.6
			c5.7-0.5,11.9-2.1,13.7-9.3c1.3-5.2,4.6-5.9,9-3.1c1.4,0.9,2.9,1.6,4.7,1.4c0,0.7,0,1.3,0,2c-8.1,0.4-13.1,4-14.7,10.7
			c-0.5,2.2-1.1,5.2,3.1,3.6c1.5-0.6,2.9-0.4,4.2,0.7c2.2,1.9,4.7,2.2,7.5,2C420.6,78.7,420.6,100.4,420.6,122.1z M391.9,53.2
			c2.9,1.3,5.4,0.8,7.9,0.8c1.8,0,2.4-1.6,2.7-3.1c0.1-0.6-0.5-1.7-1-1.3C398.8,51.9,394.6,49.9,391.9,53.2z"/>
		<path class="st2" d="M220.6,108.1c9.5,0.7,18.5,4,27.8,5.5c3.5,0.5,6.9,1.6,10.4,2.4c-1.4,1.3-2.1,2.9-1.8,4.9
			c0.3,2.1-0.4,3.5-2.6,4.1c-0.8-3-3.1-3.2-5.4-2.7c-2.7,0.7-1.7,2.9-1.5,4.8c0.2,1.9,0.1,3.9-0.7,5.8c-0.5,1.2-0.4,2.6,0.8,3.6
			c1.5,1.3,2.7,0.4,3.9-0.5c0,1.3,0,2.7,0.1,4c-4.5-0.6-4.4,2.6-3.7,5.3c0.6,2.3,1,4.5,0.3,6.8c-0.3,1.2-2.4,2.7,0,3.6
			c1.6,0.6,2.1-1.1,2.7-2.2c0.5-0.8,1.1-1.6,1.7-2.4c1.3,1,3.3,1.2,4,2.9c-4.8,2.7-4,7.3-4,11.6c0,4.2,1.5,5,6,3.6
			c1.3,0,2.5,0,3.8,0c-0.3,1.7-1.1,3.7,1.3,4.4c2.5,0.8,2.2-1.8,3-2.9c1-1.3,0.8-2.8,0.8-4.3c-0.1-5.1-1.4-10-1.1-15.2
			c0.1-2.2-1.3-3.6-3.7-3.8c0.1-0.8,0.1-1.7,0.4-2.4c1.3-3.4,1.1-6.1-2.6-7.7c1.3-0.8,2.6-1.5,3.9-2.3c0.7,0.8,1.4,1.6,2.2,2.4
			c2.9,4,4.3,4,8.1-0.1c1.3,0.6,1.6,1.6,0.9,2.9c-1.1,1.9,0,3.1,1.1,4.5c-1.3,4.8-3.5,9.7-0.3,14.6c0.4,0.7,0.3,1.9-0.7,2
			c-2.7,0.5-2,2.5-2.2,4.2c-0.2,3.3,0.5,6.6-0.5,9.9c-0.5,1.8,0.5,3.4,2.3,2.2c2.5-1.8,5.5-1.8,7-0.2c2.3,2.3,3.3,5.8,1.5,9.2
			c-1.5,2.9-0.1,5.3,1.1,7.8c1.6,3.4,1.7-0.8,2.7-0.4c0.4,0.3,0.9,0.5,1.3,0.8c2.1,1.5,4.1,3.2,2.7,6.1c-1.4,3.1-4,1.1-6.1,1
			c0.1-1.5,1.7-3.3-0.7-4.2c-2-0.8-3.6,0-4.7,1.7c-1.4,2.2-2.7,4.4-2.7,7.3c0,5.3,0.2,5.6,5,3.9c0.1,2.3,2.5,4.7-0.1,6.9
			c-2-1.1-3.9-2.9-6.4-1.6c-2.1,1.1-1.4,3.2-1.3,5c0.2,5.9-4.4,8.8-10.9,6.4c5-2.1,5.2-6.2,4.8-10.5c-0.1-1.6,0.3-3.8-2-3.9
			c-2.3,0-2,2.2-2,3.8c0,4.2-4.2,4.3-6.4,6.3c-1.5,1.4-4.1,0-5.9-1.5c-0.7-0.6-1.7-1.3-1.3-2.4c0.4-0.9,1.4-0.8,2.2-0.8
			c4.6,0.1,4.7-2.5,3.8-5.9c-0.7-2.9-2.9-5.3-2.6-8.5c0.1-1.4-0.2-3-1.8-3.1c-2-0.1-2.5,1.7-2.1,3.2c1.3,5.1-3,6.6-5.6,9.1
			c-1.3,1.2-3,1.1-4.6,0.3c-0.8-0.4-1.6-0.5-1.6-1.5c0-1,0.8-1.4,1.6-1.5c3-0.2,3.2-2.3,3.2-4.6c-0.1-2.5-0.1-5,0-7.5
			c0.1-2.2-0.2-4.5-2.7-4.5c-3-0.1-2.1,2.7-2.3,4.6c-0.2,1.8,0.8,4.7-2.3,4.3c-2.1-0.2-1.8-2.2-0.9-4.2c0.8-2.1-0.2-4.8-2.3-5.5
			c-2.7-0.9-2.1,2-2.7,3.5c-1.3,2.9-6.7,4.9-9.8,3.8c0-1,0-2,0-3c4.8-3.2,4.8-6,0-11c0-4.3,0-8.7,0-13c5.4-1.4,5.1-5.1,4.5-9.6
			c-0.4-3.4-1.7-4-4.5-3.4c0-1.7,0-3.3,0-5c2.4-0.3,5.2-1.2,3.6-3.8c-1-1.7,2-6.8-3.6-5.2C220.6,133.4,220.6,120.7,220.6,108.1z
			 M239.7,152.1c1.7,0.7,3.5,1.7,4.6-0.7c0.4-0.9,1-2.1-0.6-2.8c-3.9-1.7-3.6-5.4-2.7-8.2c0.6-2,0.1-4,1-5.8
			c0.8-1.7-0.6-1.5-1.4-1.7c-0.8-0.2-2.1-1.4-2.4,0.2c-0.6,3.3-3.5,6.2-1,10.2c1.6,2.5,2.9,5.6,2.8,8.9c-1,0.1-2.4-1.8-2.9-0.1
			c-0.6,2.6-0.5,5.4-0.5,8.1c0,0.5,1.1,1.3,1.8,1.4c1.2,0.2,1.5-1.1,1.9-1.9C241.6,157.1,239.4,154.7,239.7,152.1z M249.8,195.3
			c4.2-0.7,4.9-5.2,8-6.4c1.4-0.6,2.7-0.5,1.5-1.9c-2.6-3.1-1.8-6.5-1.1-9.8c0.4-2,0.4-3.4-1.6-3.9c-1.9-0.4-2.3,1.2-3,2.6
			c-1.3,2.5,0.4,6.1-1.2,7.6C248.2,187,250.1,191.2,249.8,195.3z M269.1,181.2c0.8-2.5-1.1-3.2-2.8-3.6c-2.5-0.6-2.4,1.4-2.6,3.1
			c-0.7,6,1.7,12.2-1.6,18c-0.2,0.4,0.2,1.3,0.5,1.7c0.8,0.9,1.5-0.1,2.1-0.4c3.6-1.8,6.3-8.7,4.7-12.5
			C268.5,185.4,268.5,183.4,269.1,181.2z M274.7,190.4C274.7,190.4,274.7,190.4,274.7,190.4c0,2.1,0,4.3,0,6.4c0,0.8,0.2,1.6,1.2,2
			c0.7,0.2,1.2,0,1.7-0.5c2.5-2.3,4-10.1,2.6-13.2c-0.8-1.7-1.7-3.4-4-2.9c-2.1,0.5-1.3,2.3-1.5,3.7
			C274.6,187.4,274.7,188.9,274.7,190.4z M245,175.4c0.8-1.2,1.5-2.5,2.4-3.6c3.3-3.6,2.2-7.3,0.5-11c-0.6-1.3-2.7-2.3-2.7-0.8
			C245.2,165.1,240.7,170.3,245,175.4z M236.9,130c1.7,0,2.6-1,2.7-2.7c0.1-1.6,0.1-3.2,0.7-4.8c0.7-1.7-0.4-2.9-2.1-3.2
			c-1.7-0.3-3,0.3-3.4,2c-0.3,1.4,0,2.9-1,4.3C230.8,129.6,234.6,129.3,236.9,130z M227.9,181.3c6.9-4,6.4-8.9,4.8-14.1
			c-0.5-1.6,0.6-4.5-1.8-4.3c-2.1,0.2-1.2,3.1-1.2,4.8C229.5,171.9,230.7,176.1,227.9,181.3z M228.7,138.9c0,5.9,0,11.7,0,17.6
			c0,1.1,0.5,2.1,1.7,2.1c1.5,0.1,2.1-1.6,1.9-2.4C230.5,150.4,233.2,144.2,228.7,138.9z M242.3,191.6c0.9-3.4,1.2-6.8,2.9-9.9
			c0.7-1.2,0.3-2.3-0.8-3c-1.5-0.9-2.1,0.4-2.7,1.3C239.2,183.6,239.5,188.4,242.3,191.6z M237.5,171.3c0.9,1.8-1.3,5,1.6,5.3
			c2.1,0.3,2.4-2.9,2.4-4.6c-0.1-2-0.4-5.2-2.6-5.2C236.5,166.7,238.3,169.7,237.5,171.3z M225,127.1c5.6-2.4,6.2-5.6,2.8-9.6
			C225.8,120.2,227.2,123.6,225,127.1z"/>
		<path class="st1" d="M220.6,200.1c3.1,1,8.6-1,9.8-3.8c0.7-1.5,0-4.4,2.7-3.5c2.1,0.7,3.1,3.4,2.3,5.5c-0.8,2-1.1,3.9,0.9,4.2
			c3,0.4,2-2.6,2.3-4.3c0.2-1.8-0.7-4.6,2.3-4.6c2.5,0,2.8,2.3,2.7,4.5c-0.1,2.5-0.1,5,0,7.5c0.1,2.3-0.2,4.4-3.2,4.6
			c-0.9,0.1-1.6,0.5-1.6,1.5c0,1,0.9,1.2,1.6,1.5c1.7,0.8,3.3,0.9,4.6-0.3c2.6-2.5,6.9-4,5.6-9.1c-0.4-1.5,0.1-3.3,2.1-3.2
			c1.5,0.1,1.9,1.7,1.8,3.1c-0.3,3.2,1.8,5.6,2.6,8.5c0.9,3.4,0.8,6.1-3.8,5.9c-0.8,0-1.8-0.2-2.2,0.8c-0.5,1.2,0.5,1.8,1.3,2.4
			c1.7,1.4,4.4,2.9,5.9,1.5c2.2-2,6.4-2.1,6.4-6.3c0-1.6-0.3-3.9,2-3.8c2.2,0,1.8,2.3,2,3.9c0.3,4.3,0.2,8.4-4.8,10.5
			c6.5,2.5,11.1-0.5,10.9-6.4c-0.1-1.7-0.8-3.9,1.3-5c2.5-1.3,4.4,0.5,6.4,1.6c-0.1,2.3,2,3.8,2.4,5.9c-0.3,1.2,0.4,2.1,1,3
			c0,3.3,0,6.7,0,10c-0.1,1.3-0.1,2.7-0.2,4c-20.6,0-41.1-0.1-61.7,0.1c-2.6,0-3.4-0.4-3.4-3.2C220.8,224.6,220.6,212.3,220.6,200.1
			z M228.1,219.7c0.6,0.5,1.1,0.6,1.7,0c-0.4-0.2-0.7-0.5-1.1-0.7c-0.9-1.7-1.8-3.5-2.7-5.2C223.4,216.8,224.9,218.5,228.1,219.7z
			 M231.3,207.9c-1.9-1.7-3.8-4.3-6.1-2.9c-1.6,1-0.2,3.7,0.9,4.8C228.5,212.1,229.2,208.1,231.3,207.9z M238.5,235.8
			c-1-2.4-2.2-4-4.6-4.2c-0.5,0-1.2,0.7-0.8,1.4C234.1,235,235.6,236.3,238.5,235.8z"/>
		<path class="st1" d="M396.5,168.1c0.9-1.1,0.9-2.5,1.3-3.7c0.8-2.3,0.8-5,5-2.2c4.2,2.9,9.6,0.2,14.5-0.5c1.1-0.2,2.3-0.4,3.4-0.7
			c0,24.7,0,49.3,0,74c-2.3,0.2-4.5-1.8-6.7-0.9c-4.8,1.9-4.8-3.2-7.1-4.8c-2.2-1.5,0.4-3.4,1-5.1c2.9-1.6,3.8-4.4,4.7-7.2
			c0-0.3,0-0.7,0.1-1c4.7-2.5,2.2-6.9,1.8-9.9c-0.7-4.9,0.4-9.3,1.3-13.9c0.2-0.4,0.5-0.7,0.7-1.1c0.1-0.7,0.3-1.3,0.4-2
			c1.9-2.7,0.6-4.3-2-5.4c-0.4-1.2,0.4-2.8-1.1-3.7c-0.5-2.3-3.2-1.5-4.2-3.2c-0.3-0.5-0.6-0.5-0.9-0.1c0,0,0,0,0,0
			c0.7-0.2,1-0.7,0.8-1.4c0-0.4,0-0.9,0-1.3c0.5-2-0.4-3.6-1.7-5.1c-2.4-4.1-3.2-4.4-5.9-2c-1.6,1.7-1,3.9-1.4,5.9
			c-0.5,0.7-1,1.4-1.5,2.1c-0.3,0.2-0.4,0.5-0.3,0.8c-1.1,0.4-1.4,2.3-2.9,1.5c-1.6-0.9,0.6-2.2-0.2-3.3c0.1-0.6,0.2-1.3,0.3-1.9
			C397.1,171,396.6,169.5,396.5,168.1z"/>
		<path class="st2" d="M420.6,57.1c-2.7,0.2-5.3-0.1-7.5-2c-1.2-1.1-2.6-1.3-4.2-0.7c-4.2,1.5-3.6-1.4-3.1-3.6
			c1.6-6.8,6.7-10.3,14.7-10.7C420.6,45.7,420.6,51.4,420.6,57.1z"/>
		<path class="st2" d="M420.6,38.1c-1.8,0.2-3.3-0.5-4.7-1.4c-4.4-2.8-7.7-2.1-9,3.1c-1.8,7.2-8,8.8-13.7,9.3
			c-1.6,0.1-3.8,0.5-4.1-1.6c-0.3-1.8,1.8-2,3.2-2.4c4.7-1.2,8.2-3.6,10.5-8.2c2.6-5.2,5.8-5.8,11.3-4.1c2,0.6,4.3,0.3,6.4,0.4
			C420.6,34.7,420.6,36.4,420.6,38.1z"/>
		<path class="st2" d="M407.7,224.3c-0.6,1.7-3.2,3.6-1,5.1c2.3,1.6,2.4,6.7,7.1,4.8c2.3-0.9,4.4,1.1,6.7,0.9c0.9,4.2-0.7,5.6-5,5.1
			c-4-0.4-8-0.1-12-0.1c-0.3-2.9,3.2-4.2,3-7.1c-0.9-2-2.3-3.9-1.9-6.3C405,225,405.3,223.2,407.7,224.3z"/>
		<path class="st1" d="M347.6,0.1c-6,3.7-12.3,6-20.1,5.6c1.3-2.9,4.9-2.5,4.1-5.6C337,0.1,342.3,0.1,347.6,0.1z"/>
		<path class="st1" d="M220.6,160.1c2.8-0.6,4.1,0,4.5,3.4c0.6,4.5,0.8,8.2-4.5,9.6C220.6,168.7,220.6,164.4,220.6,160.1z"/>
		<path class="st1" d="M220.6,146.1c5.6-1.7,2.6,3.5,3.6,5.2c1.6,2.6-1.2,3.6-3.6,3.8C220.6,152.1,220.6,149.1,220.6,146.1z"/>
		<path class="st2" d="M220.6,49.1c3.2-0.6,6.2-3.5,9.5-0.2c-2.2,3.3-6.6,2.2-9.5,4.2C220.6,51.7,220.6,50.4,220.6,49.1z"/>
		<path class="st1" d="M220.6,186.1c4.8,5,4.8,7.8,0,11C220.6,193.4,220.6,189.7,220.6,186.1z"/>
		<path class="st1" d="M406.6,233c0.2,2.9-3.3,4.2-3,7.1c-1,0-2,0-3,0C402.1,237.2,403.5,234.4,406.6,233z"/>
		<path class="st2" d="M285.6,240.1c0.1-1.3,0.1-2.7,0.2-4c1.6,0.9,1.8,2.4,1.8,4C287,240.1,286.3,240.1,285.6,240.1z"/>
		<path class="st1" d="M287.8,193.7c-1-0.4-1.1,3.8-2.7,0.4c-1.2-2.5-2.7-4.8-1.1-7.8c1.7-3.4,0.7-6.9-1.5-9.2
			c-1.5-1.6-4.5-1.5-7,0.2c-1.7,1.2-2.8-0.5-2.3-2.2c1-3.3,0.3-6.6,0.5-9.9c0.1-1.7-0.6-3.8,2.2-4.2c1-0.2,1.1-1.3,0.7-2
			c-3.2-5-1-9.8,0.3-14.6c4.4-0.6,8.7-1.2,10.2,4.9c0.5,2.2,2.8,4,4.2,6c0.6,0.9,1.6,2.4,1.3,3.1c-3.6,7,0.1,13.8,0.4,20.6
			c0,0.7,0,1.5,0,2.2c0.2,0.6,0.5,1.2,0.7,1.8c0,1.3,0,2.6,0,4c-0.3,0.6-0.6,1.3-0.9,1.9c-3-1-2.3,1.8-3.1,3.1
			C288.9,192.6,288.4,193.1,287.8,193.7z"/>
		<path class="st1" d="M395.5,209.1c0-0.3,0-0.7,0-1c0.2-0.9,0-1.6-0.8-2.1c0-5.1-1.3-9.9-2.2-14.8c0-0.7,0-1.3,0-2
			c0.1-1.3,0.2-2.5,0.2-3.8c1.7,0.1,0.3-5.3,3.7-2.1c0.3,6.4,3,12.3,3.5,18.9c0.4,5,0.1,9.1-2.4,13.1c-0.8,1.2-0.4,3-1.8,3.8
			C393.4,215.7,396.2,212.3,395.5,209.1z"/>
		<path class="st1" d="M262.9,147.3c2.3,0.2,3.8,1.6,3.7,3.8c-0.3,5.1,1,10.1,1.1,15.2c0,1.5,0.2,3-0.8,4.3c-0.9,1.1-0.6,3.7-3,2.9
			c-2.3-0.7-1.6-2.7-1.3-4.4c0-6.3,0-12.7,0-19C262.6,149.1,262.8,148.2,262.9,147.3L262.9,147.3z"/>
		<path class="st1" d="M282.6,210.2c-4.7,1.7-5,1.4-5-3.9c0-2.8,1.3-5.1,2.7-7.3c1-1.7,2.7-2.5,4.7-1.7c2.4,0.9,0.8,2.8,0.7,4.2
			C283.2,203.9,286.5,208.4,282.6,210.2z"/>
		<path class="st1" d="M251.6,135.9c-1.2,0.9-2.4,1.8-3.9,0.5c-1.2-1-1.3-2.4-0.8-3.6c0.8-1.9,0.9-3.8,0.7-5.8
			c-0.2-1.9-1.2-4.1,1.5-4.8c2.3-0.5,4.6-0.3,5.4,2.7l0,0c-1.1,0.9-0.8,2-0.7,3.1C254.2,131,252.7,133.4,251.6,135.9z"/>
		<path class="st2" d="M396.5,183.1c-3.5-3.2-2,2.2-3.7,2.1c-2.4-2.5-6.1-4.8,0.1-7.5c1-0.4,0.7-3.2,2.7-3.7
			c0.7,1.1-1.5,2.4,0.2,3.3c1.5,0.8,1.8-1.2,2.9-1.5c0.4,0,0.8,0.1,1.2,0.1c-0.3-0.3-0.6-0.6-0.8-1c0.5-0.7,1-1.4,1.5-2.1
			C405.7,178,404.7,180.6,396.5,183.1z"/>
		<path class="st1" d="M258.7,169.1c-4.5,1.5-6,0.7-6-3.6c0-4.3-0.8-8.9,4-11.6c0.2,0.2,0.4,0.3,0.7,0.2c0.2,0.7,0.2,1.5,1.2,1.5
			c-1.2-0.2-0.7,0.7-0.7,1.2c0,0.7,0,1.5,0,2.2c-0.2,2.1-0.3,4.2-1,6.3C256.2,167,256.6,168.7,258.7,169.1z"/>
		<path class="st2" d="M308.3,60.2c3.5-2.6,6.2-7.2,11.7-3.9c1.1,0.6,2.8,0.9,2.4,2.6c-0.4,1.6-1.9,2.2-3.5,1.8
			c-3.7-1-6.2,0.7-8.2,3.6C309.9,62.9,309.1,61.5,308.3,60.2z"/>
		<path class="st1" d="M252.6,151c-0.6,0.8-1.2,1.5-1.7,2.4c-0.7,1.1-1.1,2.9-2.7,2.2c-2.4-1-0.3-2.4,0-3.6c0.7-2.3,0.3-4.4-0.3-6.8
			c-0.6-2.7-0.8-5.9,3.7-5.3c2.3,2.3,0.1,4.8,0.2,7.2c-0.2,1.1-0.5,2.3,0.8,3.1C252.6,150.4,252.6,150.7,252.6,151z"/>
		<path class="st1" d="M264.5,134.8c-1.3,0.8-2.6,1.5-3.9,2.3c-0.4-0.7-0.8-1.4-1.1-2c0-0.3,0-0.7,0-1c2.9-2.2,1.4-5.9,3.1-8.5
			c2.3-0.7,3.9-0.6,3.3,2.5c-0.2,0.3-0.2,0.5-0.1,0.8c-0.3,1.7-0.6,3.5-0.9,5.2C264.6,134.3,264.5,134.5,264.5,134.8z"/>
		<path class="st2" d="M363.6,90.3c2-0.2,4.5-0.8,2.9,2.8c-2.9,0.1-5.3-1.7-8-2.1c1-2,1.7-4.3,3-6c1-1.2,2.8-2.9,4.5-1.2
			c1.4,1.4-0.3,2.6-1.3,3.6c-0.8,0.8-1.4,1.7-2.1,2.6C363,90.1,363.3,90.2,363.6,90.3z"/>
		<path class="st1" d="M274.8,137.1c-3.8,4.1-5.2,4.2-8.1,0.1c1-0.2,2.2,0.1,3-1c2.5-0.3,3.2-1.8,2.8-4.1c0.3-1.4,0-3,1.8-3.6
			c2,1.5,1.2,3.6,1.3,5.5c-0.8,0.5-0.9,1.3-0.8,2.2C274.8,136.4,274.8,136.7,274.8,137.1z"/>
		<path class="st2" d="M395.5,209.1c0.8,3.3-2.1,6.6,0.2,9.9c-0.5,1-1.1,2.7-2.4,1.7c-1.5-1.1-3.3-2.5-2.7-4.9
			C391.3,212.9,393.2,210.9,395.5,209.1z"/>
		<path class="st2" d="M265.9,128.1c0.6-3.1-1-3.2-3.3-2.5c-0.9-0.7-2.3-1.2-1.5-2.6c0.6-1.1,2.1-0.8,3.2-0.8c1.6,0,2.9,0.5,3.4,2.3
			C268.2,126.1,267.3,127.3,265.9,128.1z"/>
		<path class="st2" d="M333.6,65.1c-0.9-0.3-1.8-0.7-2.8-1c-1-0.3-2.6,0.4-2.7-1.3c0-0.6,0.8-1.4,1.4-1.9c1-1,2.1-0.9,3.2-0.1
			c1.5,1,2.1,2.5,2.3,4.2C334.5,65,334,65,333.6,65.1z"/>
		<path class="st2" d="M270.5,114c0.6-2-0.5-4.2,1-6c1.5,0.3,4.1,0.1,3.8,1.9C275,112,272.5,113.1,270.5,114z"/>
		<path class="st2" d="M304,68.3c-2.4-5-1.8-6.6,2.9-8.1C305.6,62.8,306.2,66.1,304,68.3z"/>
		<path class="st2" d="M414.8,183.7c2.6,1.1,3.9,2.7,2,5.4C415.2,187.7,412.7,186.5,414.8,183.7z"/>
		<path class="st2" d="M401.9,167.1c2.8-2.4,3.5-2.2,5.9,2C405,170.9,404.4,166.1,401.9,167.1z"/>
		<path class="st2" d="M354.6,93.9c0.7-1.2,1.7-1.8,3-2.1c0.5,1.1,2.5,2,1,3.2C357.2,96.1,355.8,94.7,354.6,93.9z"/>
		<path class="st2" d="M409.5,176.9c0.9,1.7,3.7,0.9,4.2,3.2c-1.3-0.1-2.6-0.2-3.9-0.2c-0.8,0-1.8,0-2-0.9
			C407.5,177.7,408.7,177.4,409.5,176.9z"/>
		<path class="st2" d="M264.9,134.1c0.3-1.7,0.6-3.5,0.9-5.2C267.9,131,268.4,132.9,264.9,134.1z"/>
		<path class="st2" d="M272.5,132.1c0.5,2.3-0.3,3.8-2.8,4.1C269.7,134.2,270.4,132.7,272.5,132.1z"/>
		<path class="st2" d="M289.5,192c0.8-1.3,0.1-4,3.1-3.1C292.5,190.9,291.4,191.9,289.5,192z"/>
		<path class="st2" d="M272.5,105c0-2,0.7-3.7,2-5.1C274.6,101.9,274.9,104,272.5,105z"/>
		<path class="st2" d="M396.5,168.1c0.1,1.4,0.6,2.9-0.7,4C394.5,170.5,395.1,169.2,396.5,168.1z"/>
		<path class="st2" d="M285.8,226.1c-0.6-0.9-1.3-1.8-1-3C286.2,223.7,288.2,224.2,285.8,226.1z"/>
		<path class="st2" d="M293.5,187c0-1.3,0-2.6,0-4c0.7,0.3,1.4,0.7,2.1,1l0,0C295.5,185.5,294.9,186.5,293.5,187z"/>
		<path class="st2" d="M262.9,147.2c-0.1,0.9-0.3,1.9-0.4,2.8C260.6,148.8,260.9,147.9,262.9,147.2z"/>
		<path class="st2" d="M253.8,128.1c-0.2-1.1-0.4-2.3,0.7-3.1C255.1,126.2,255.4,127.3,253.8,128.1z"/>
		<path class="st2" d="M296.6,184.1c0.6,0.2,1.2,0.4,1.8,0.6c-0.1,0.2-0.2,0.4-0.3,0.6C297.6,184.9,297.1,184.5,296.6,184.1
			L296.6,184.1z"/>
		<path class="st2" d="M392.5,189.1c0,0.7,0,1.3,0,2C391.2,190.4,391.2,189.7,392.5,189.1z"/>
		<path class="st2" d="M257.8,159.1c0-0.7,0-1.5,0-2.2C258.8,157.6,259,158.3,257.8,159.1z"/>
		<path class="st2" d="M292.8,181.2c0-0.7,0-1.5,0-2.2C294,179.8,293.8,180.5,292.8,181.2z"/>
		<polygon class="st2" points="297.9,178 297.6,178.3 297.5,178 		"/>
		<path class="st2" d="M252.6,150.1c-1.3-0.8-1-1.9-0.8-3.1C252.1,148.1,252.4,149.1,252.6,150.1z"/>
		<path class="st2" d="M312.7,70.9c0.8,0.5,1,1.3,1,2.2C313.4,72.3,313.1,71.6,312.7,70.9z"/>
		<path class="st2" d="M394.7,205.9c0.8,0.5,1,1.3,0.8,2.1C395.2,207.3,395,206.6,394.7,205.9z"/>
		<path class="st2" d="M274.8,136.1c-0.2-0.9,0-1.6,0.8-2.2C275.3,134.6,275.1,135.3,274.8,136.1z"/>
		<path class="st2" d="M259.5,134.1c0,0.3,0,0.7,0,1C259.5,134.7,259.5,134.4,259.5,134.1z"/>
		<path class="st2" d="M416.4,191.1c-0.2,0.4-0.5,0.7-0.7,1.1C415.9,191.8,416.2,191.5,416.4,191.1z"/>
		<path class="st2" d="M269.3,117c0-0.3,0.2-0.6,0.4-0.9C269.6,116.4,269.5,116.7,269.3,117z"/>
		<path class="st2" d="M412.5,216.1c0,0.3,0,0.7-0.1,1C412.5,216.7,412.5,216.4,412.5,216.1z"/>
		<path class="st2" d="M258.6,155.7c-1,0-1-0.9-1.2-1.5C257.8,154.7,258.2,155.2,258.6,155.7z"/>
		<path class="st2" d="M295.6,184.1c0.3,0,0.7,0,1,0l0,0C296.3,184.1,296,184.1,295.6,184.1L295.6,184.1z"/>
		<path class="st2" d="M409.5,174.1c0,0.4,0,0.9,0,1.3C409.5,175,409.5,174.5,409.5,174.1z"/>
		<path class="st2" d="M314.7,74.8c0.6,0.5,1.1,1.1,0.4,1.9C315,76.1,314.9,75.5,314.7,74.8z"/>
		<path class="st2" d="M408.6,176.8C408.6,176.8,408.6,176.8,408.6,176.8c0.1,0,0.2,0,0.3-0.1C408.8,176.7,408.7,176.7,408.6,176.8z
			"/>
		<path class="st2" d="M247.1,54c3.3-3.1,6.9-3.6,10.9-2.4c3.1,1,6.1,0.5,8.3-1.8c5.3-5.7,11.6-7.9,19.2-6.8
			c5.7,0.9,9.6-1.2,12.6-6.4c3.7-6.3,6.7-6.1,11.1-0.2c1,1.3,2.5,2.2,3.6,3.4c0.9,0.9,1.1,2,0.3,3.2c-1.1,1.5-2,0.2-2.9-0.2
			c-0.9-0.4-2-0.8-2.5-1.5c-2.6-3.6-5.7-2.6-8.1-0.3c-5.4,5-12,6-18.8,6.1c-3.8,0.1-6.8,0.9-9.3,3.8c-0.5,0.6-1.1,1.3-1.8,1.7
			C262.2,55.8,254.6,53,247.1,54z"/>
		<path class="st2" d="M330.8,37.4c-0.2,0.2-2.6,1.1-1,3.7c-1.7,0.5-4.6,1.8-4.8,1.4c-1.4-2.3-4.1-4.5-3-7.4
			c0.9-2.5,3.5-3.5,6.2-2.6C330,33,332.6,33.1,330.8,37.4z"/>
		<path class="st2" d="M391.9,53.2c2.7-3.4,6.9-1.3,9.6-3.7c0.4-0.4,1.1,0.7,1,1.3c-0.3,1.5-0.9,3-2.7,3.1
			C397.3,54.1,394.8,54.5,391.9,53.2z"/>
		<path class="st0" d="M363.6,90.3c-0.3-0.1-0.6-0.2-0.9-0.3C363,90.1,363.3,90.2,363.6,90.3z"/>
		<path class="st1" d="M249.8,195.3c0.4-4.1-1.5-8.3,2.5-11.9c1.6-1.4,0-5.1,1.2-7.6c0.7-1.4,1.1-3,3-2.6c2,0.5,2.1,1.9,1.6,3.9
			c-0.7,3.3-1.5,6.7,1.1,9.8c1.2,1.4-0.1,1.4-1.5,1.9C254.7,190.1,254,194.6,249.8,195.3z"/>
		<path class="st1" d="M269.1,181.2c-0.5,2.2-0.6,4.2,0.3,6.4c1.6,3.8-1.1,10.7-4.7,12.5c-0.6,0.3-1.3,1.3-2.1,0.4
			c-0.4-0.4-0.7-1.4-0.5-1.7c3.3-5.8,0.9-12,1.6-18c0.2-1.7,0.2-3.7,2.6-3.1C267.9,178,269.9,178.7,269.1,181.2z"/>
		<path class="st1" d="M274.7,190.4c0-1.5-0.1-3,0-4.5c0.1-1.3-0.7-3.2,1.5-3.7c2.3-0.5,3.2,1.2,4,2.9c1.5,3.2-0.1,10.9-2.6,13.2
			c-0.5,0.5-1.1,0.7-1.7,0.5c-0.9-0.3-1.1-1.1-1.2-2C274.7,194.7,274.7,192.5,274.7,190.4C274.7,190.4,274.7,190.4,274.7,190.4z"/>
		<path class="st1" d="M239.9,152.3c0.1-3.3-1.2-6.4-2.8-8.9c-2.5-4,0.3-6.9,1-10.2c0.3-1.6,1.6-0.4,2.4-0.2c0.8,0.2,2.2,0,1.4,1.7
			c-0.9,1.8-0.3,3.8-1,5.8c-0.9,2.8-1.2,6.5,2.7,8.2c1.7,0.7,1,1.9,0.6,2.8c-1.1,2.4-2.9,1.4-4.6,0.7L239.9,152.3z"/>
		<path class="st1" d="M245,175.4c-4.3-5.1,0.2-10.2,0.2-15.3c0-1.5,2.1-0.5,2.7,0.8c1.8,3.7,2.8,7.4-0.5,11
			C246.5,172.8,245.8,174.1,245,175.4z"/>
		<path class="st1" d="M236.9,130c-2.3-0.7-6.1-0.3-3.1-4.5c1-1.3,0.7-2.8,1-4.3c0.4-1.7,1.8-2.3,3.4-2c1.7,0.3,2.8,1.5,2.1,3.2
			c-0.6,1.6-0.7,3.2-0.7,4.8C239.5,129,238.6,129.9,236.9,130z"/>
		<path class="st1" d="M227.9,181.3c2.8-5.2,1.6-9.4,1.8-13.6c0.1-1.7-0.8-4.6,1.2-4.8c2.5-0.2,1.4,2.7,1.8,4.3
			C234.4,172.4,234.8,177.3,227.9,181.3z"/>
		<path class="st1" d="M228.7,138.9c4.5,5.3,1.8,11.6,3.5,17.2c0.2,0.8-0.3,2.5-1.9,2.4c-1.1,0-1.7-1-1.7-2.1
			C228.7,150.6,228.7,144.7,228.7,138.9z"/>
		<path class="st1" d="M242.3,191.6c-2.9-3.2-3.1-8-0.6-11.6c0.6-0.9,1.2-2.2,2.7-1.3c1.1,0.7,1.5,1.8,0.8,3
			C243.6,184.8,243.2,188.3,242.3,191.6z"/>
		<path class="st1" d="M239.7,152.1c-0.3,2.6,1.9,5,0.5,7.6c-0.4,0.8-0.6,2.1-1.9,1.9c-0.7-0.1-1.8-0.9-1.8-1.4
			c0-2.7-0.1-5.5,0.5-8.1c0.4-1.7,1.8,0.3,2.9,0.1C239.9,152.3,239.7,152.1,239.7,152.1z"/>
		<path class="st1" d="M237.5,171.3c0.8-1.6-1-4.6,1.4-4.5c2.2,0,2.5,3.3,2.6,5.2c0.1,1.8-0.3,4.9-2.4,4.6
			C236.2,176.2,238.4,173,237.5,171.3z"/>
		<path class="st1" d="M225,127.1c2.3-3.5,0.8-6.9,2.8-9.6C231.2,121.5,230.6,124.7,225,127.1z"/>
		<path class="st2" d="M231.3,207.9c-2.1,0.2-2.8,4.2-5.2,1.9c-1.1-1.1-2.5-3.8-0.9-4.8C227.5,203.6,229.4,206.2,231.3,207.9z"/>
		<path class="st2" d="M238.5,235.8c-2.9,0.5-4.4-0.8-5.4-2.8c-0.4-0.7,0.3-1.5,0.8-1.4C236.3,231.8,237.5,233.4,238.5,235.8z"/>
		<path class="st2" d="M228.1,219.7c-3.2-1.1-4.7-2.8-2-6c0.9,1.8,1.8,3.5,2.7,5.2C228.5,219.2,228.3,219.4,228.1,219.7z"/>
		<path class="st2" d="M228.8,219c0.4,0.2,0.7,0.5,1.1,0.7c-0.6,0.6-1.1,0.5-1.7,0C228.3,219.4,228.5,219.2,228.8,219z"/>
		<path class="st0" d="M398.9,175.1c0.3,0.3,0.6,0.6,0.8,1c-0.4,0-0.8-0.1-1.2-0.1C398.5,175.6,398.6,175.3,398.9,175.1z"/>
	</g>
	<g>
		<path class="st0" d="M180,241.7c-37.7,0-75.3,0-113,0c0-1.6-0.2-3.1-1.8-4c0-3.3,0-6.7,0-10c2.4-1.9,0.4-2.4-1-3
			c-0.4-2.1-2.5-3.6-2.4-5.9c2.7-2.3,0.3-4.6,0.1-6.9c3.9-1.8,0.6-6.3,3.1-8.6c2.1,0.1,4.6,2.2,6.1-1c1.3-2.9-0.6-4.6-2.7-6.1
			c-0.4-0.3-0.8-0.5-1.3-0.8c0.6-0.6,1.1-1.1,1.7-1.7c1.9-0.1,3-1.1,3.1-3.1c0.3-0.6,0.6-1.3,0.9-1.9c1.4-0.5,2-1.5,2.1-2.9
			c0.3,0,0.7,0,1,0c0.5,0.4,1,0.8,1.4,1.2c0.1-0.2,0.2-0.4,0.3-0.6c-0.6-0.2-1.2-0.4-1.8-0.6c-0.3,0-0.7,0-1,0
			c-0.7-0.3-1.4-0.7-2.1-1c-0.2-0.6-0.5-1.2-0.7-1.8c1-0.7,1.2-1.4,0-2.2c-0.3-6.9-4-13.6-0.4-20.6c0.3-0.7-0.6-2.2-1.3-3.1
			c-1.4-2.1-3.7-3.8-4.2-6c-1.5-6.1-5.7-5.5-10.2-4.9c-1.1-1.3-2.2-2.6-1.1-4.5c0.7-1.2,0.4-2.2-0.9-2.9c0-0.3,0-0.7,0-1
			c0.3-0.7,0.5-1.4,0.8-2.2c-0.1-1.9,0.7-4-1.3-5.5c-1.8,0.6-1.5,2.3-1.8,3.6c-2.1,0.6-2.7,2.2-2.8,4.1c-0.7,1.1-1.9,0.8-3,1
			c-0.7-0.8-1.4-1.6-2.2-2.4c0-0.3,0.1-0.6,0.3-0.7c3.5-1.2,3-3,0.9-5.2c-0.1-0.3-0.1-0.6,0.1-0.8c1.4-0.8,2.3-1.9,1.8-3.6
			c-0.5-1.7-1.8-2.2-3.4-2.3c-1.1,0-2.5-0.3-3.2,0.8c-0.8,1.4,0.7,1.9,1.5,2.6c-1.7,2.6-0.1,6.4-3.1,8.5c0,0.3,0,0.7,0,1
			c0.4,0.7,0.8,1.4,1.1,2c3.7,1.6,3.9,4.4,2.6,7.7c-0.3,0.7-0.3,1.6-0.4,2.4l0,0c-2,0.7-2.3,1.6-0.4,2.8c0,6.3,0,12.7,0,19
			c-1.3,0-2.5,0-3.8,0c-2.2-0.4-2.5-2-1.9-3.7c0.8-2.1,0.8-4.2,1-6.3c1.2-0.7,1-1.5,0-2.2c0.1-0.5-0.5-1.4,0.7-1.2
			c-0.4-0.5-0.8-1-1.2-1.5c-0.3,0.1-0.5,0-0.7-0.2c-0.8-1.8-2.7-1.9-4-2.9c0-0.3,0-0.6,0-0.9c-0.3-1-0.5-2-0.8-3.1
			c-0.1-2.4,2.1-4.8-0.2-7.2c0-1.3,0-2.7-0.1-4c1.1-2.5,2.6-4.9,2.2-7.8c1.5-0.8,1.3-1.9,0.7-3.1l0,0c2.1-0.6,2.8-2.1,2.6-4.1
			c-0.3-2,0.4-3.5,1.8-4.9c3.5-0.2,6.9,1.8,10.5,1c0.1-0.3,0.3-0.6,0.4-0.9c0-0.8-0.1-1.6,0.7-2.1c2-0.9,4.6-2,4.8-4.1
			c0.2-1.8-2.4-1.5-3.8-1.9c0.2-1.1,0.1-2.2,1.1-3c2.3-1,2.1-3.1,2-5.1c0.3-0.8,0.4-1.6,0.9-2.3c3.5-5.7,8.6-9.4,14.8-11.8
			c5.1-2,8.7-7.1,15-7.1c2,0,2.7-3,1.6-5.2c-0.9-1.8-1.9-3.5-2.8-5.2c2.2-2.2,1.6-5.5,2.9-8.1c0.5,0,1,0,1.5,0
			c0.8,1.3,1.6,2.7,2.4,4c0.7,2.2,1.3,4.4,2,6.6c0.3,0.7,0.7,1.4,1,2.2c0.3,0.6,0.6,1.2,1,1.8c0.1,0.6,0.2,1.3,0.4,1.9
			c2.9,5.4,4.4,5.6,9.5,2.1c4.9-3.4,7.7-8,9-13.7c0.5-0.1,0.9-0.1,1.4-0.2c3.3-2.3,6.6-4.7,9.9-7c1.3-0.9,2.6-2.2,1.1-3.6
			c-2.2-2-1.4-4.4-1.2-6.5c0.4-5.6-0.9-10.7-3.1-15.8c-0.8-2-1.9-4.1-1.8-6.1c0.1-2.7-0.7-6.7,2.5-7.6c5.2-1.4,10.8-1.9,14.5,3.5
			c2.7-3,2.6-5.8,0-8.4c-2.5-2.6-5.1-3.1-8.3-0.6c-1.9,1.5-4.3,2.9-7.3,1.1c-5.5-3.3-10.8-2.4-16.4,0.7c-4.6,2.5-9,6.5-14.4,6.1
			c-3.4-0.3-5.5-0.1-7.3,2.8c-0.8,1.2-2.2,2.1-4.4,4c-0.7-10-4-18.8,0.7-27.6c10.7,0,21.3,0,32,0c0.9,3.1-2.8,2.7-4.1,5.6
			c7.7,0.5,14-1.9,20.1-5.6c2.3,0,4.7,0,7,0c3.1,1.8,8.2,2.5,4.5,8c4.1,5.3,0,12.3,3.8,17.8c1.6,2.4,1,5.6,0.4,8.3
			c-0.6,2.5-3.3,1.5-5.1,2.1c-1.5,0.5-2.1,1.7-2.9,3.1c-3.1,5.7-4.5,11.7-3.6,18.2c1.2,8.8-2.4,16-7.2,22.6c-4,5.5-9,9.8-16.7,8.8
			c-2.8-0.4-4.9-2.6-7.7-2.4c-1.6,3.4,1.8,5.5,2.1,8.3c1,10.1,9.9,14.6,18.3,8.9c4.8-3.2,9.4-6.6,14.1-10c1.2,0.9,2.6,2.2,3.9,1.2
			c1.6-1.2-0.4-2.2-1-3.2c0.3-0.3,0.6-0.5,1-0.8c2.7,0.4,5.1,2.2,8,2.1c-2.3,4.4-1.9,4.5,3,5.1c7.7,0.9,16-2.8,23.1,2.8
			c0.2,0.2,0.7,0.2,1,0c7-3.2,9.3,2.5,12.7,6.4c4.5,5.1,7.7,11.7,14.3,14.7c0,13,0,26,0,39c-1.1,0.2-2.2,0.5-3.4,0.7
			c-4.9,0.7-10.2,3.3-14.5,0.5c-4.2-2.8-4.2-0.1-5,2.2c-0.4,1.2-0.4,2.6-1.3,3.7c-1.4,1.1-2,2.4-0.7,4c-0.1,0.6-0.2,1.3-0.3,1.9
			c-1.9,0.6-1.6,3.3-2.7,3.7c-6.1,2.6-2.5,5-0.1,7.5c-0.1,1.3-0.2,2.5-0.2,3.8c-1.3,0.7-1.3,1.3,0,2c0.9,4.9,2.2,9.8,2.2,14.8
			c0.3,0.7,0.5,1.4,0.8,2.1c0,0.3,0,0.7,0,1c-2.2,1.8-4.2,3.8-4.8,6.7c-0.6,2.4,1.2,3.8,2.7,4.9c1.2,0.9,1.9-0.7,2.4-1.7
			c1.5-0.8,1.1-2.6,1.8-3.8c2.5-4,2.8-8.2,2.4-13.1c-0.5-6.5-3.3-12.4-3.5-18.9c8.2-2.5,9.2-5.1,3.9-10.1c0.4-2-0.2-4.2,1.4-5.9
			c2.5-1,3.1,3.8,5.9,2c1.3,1.5,2.2,3,1.7,5.1c0,0.4,0,0.9,0,1.3c0.1,0.7-0.1,1.2-0.8,1.4c0.1,0,0.2,0,0.3-0.1c-0.1,0-0.2,0-0.3,0
			c0.4-0.4,0.7-0.3,0.9,0.1c-0.8,0.5-2,0.8-1.8,2c0.2,1,1.2,0.9,2,0.9c1.3,0.1,2.6,0.1,3.9,0.2c1.5,0.9,0.7,2.4,1.1,3.7
			c-2.1,2.8,0.4,4,2,5.4c-0.1,0.7-0.3,1.3-0.4,2c-0.2,0.4-0.5,0.7-0.7,1.1c-0.9,4.6-2,9-1.3,13.9c0.4,3,2.9,7.5-1.8,9.9
			c0,0.3,0,0.7-0.1,1c-0.9,2.8-1.8,5.7-4.7,7.2c-2.4-1-2.7,0.7-3,2.4c-0.4,2.4,0.9,4.3,1.9,6.3C182.9,236,181.4,238.8,180,241.7z
			 M77.2,179.6l-0.4-0.1l0.1,0.3L77.2,179.6z"/>
		<path class="st2" d="M0,109.7c9.5,0.7,18.5,4,27.8,5.5c3.5,0.5,6.9,1.6,10.4,2.4c-1.4,1.3-2.1,2.9-1.8,4.9
			c0.3,2.1-0.4,3.5-2.6,4.1c-0.8-3-3.1-3.2-5.4-2.7c-2.7,0.7-1.7,2.9-1.5,4.8c0.2,1.9,0.1,3.9-0.7,5.8c-0.5,1.2-0.4,2.6,0.8,3.6
			c1.5,1.3,2.7,0.4,3.9-0.5c0,1.3,0,2.7,0.1,4c-4.5-0.6-4.4,2.6-3.7,5.3c0.6,2.3,1,4.5,0.3,6.8c-0.3,1.2-2.4,2.7,0,3.6
			c1.6,0.6,2.1-1.1,2.7-2.2c0.5-0.8,1.1-1.6,1.7-2.4c1.3,1,3.3,1.2,4,2.9c-4.8,2.7-4,7.3-4,11.6c0,4.2,1.5,5,6,3.6
			c1.3,0,2.5,0,3.8,0c-0.3,1.7-1.1,3.7,1.3,4.4c2.5,0.8,2.2-1.8,3-2.9c1-1.3,0.8-2.8,0.8-4.3c-0.1-5.1-1.4-10-1.1-15.2
			c0.1-2.2-1.3-3.6-3.7-3.8c0.1-0.8,0.1-1.7,0.4-2.4c1.3-3.4,1.1-6.1-2.6-7.7c1.3-0.8,2.6-1.5,3.9-2.3c0.7,0.8,1.4,1.6,2.2,2.4
			c2.9,4,4.3,4,8.1-0.1c1.3,0.6,1.6,1.6,0.9,2.9c-1.1,1.9,0,3.1,1.1,4.5c-1.3,4.8-3.5,9.7-0.3,14.6c0.4,0.7,0.3,1.9-0.7,2
			c-2.7,0.5-2,2.5-2.2,4.2c-0.2,3.3,0.5,6.6-0.5,9.9c-0.5,1.8,0.5,3.4,2.3,2.2c2.5-1.8,5.5-1.8,7-0.2c2.3,2.3,3.3,5.8,1.5,9.2
			c-1.5,2.9-0.1,5.3,1.1,7.8c1.6,3.4,1.7-0.8,2.7-0.4c0.4,0.3,0.9,0.5,1.3,0.8c2.1,1.5,4.1,3.2,2.7,6.1c-1.4,3.1-4,1.1-6.1,1
			c0.1-1.5,1.7-3.3-0.7-4.2c-2-0.8-3.6,0-4.7,1.7c-1.4,2.2-2.7,4.4-2.7,7.3c0,5.3,0.2,5.6,5,3.9c0.1,2.3,2.5,4.7-0.1,6.9
			c-2-1.1-3.9-2.9-6.4-1.6c-2.1,1.1-1.4,3.2-1.3,5c0.2,5.9-4.4,8.8-10.9,6.4c5-2.1,5.2-6.2,4.8-10.5c-0.1-1.6,0.3-3.8-2-3.9
			c-2.3,0-2,2.2-2,3.8c0,4.2-4.2,4.3-6.4,6.3c-1.5,1.4-4.1,0-5.9-1.5c-0.7-0.6-1.7-1.3-1.3-2.4c0.4-0.9,1.4-0.8,2.2-0.8
			c4.6,0.1,4.7-2.5,3.8-5.9c-0.7-2.9-2.9-5.3-2.6-8.5c0.1-1.4-0.2-3-1.8-3.1c-2-0.1-2.5,1.7-2.1,3.2c1.3,5.1-3,6.6-5.6,9.1
			c-1.3,1.2-3,1.1-4.6,0.3c-0.8-0.4-1.6-0.5-1.6-1.5c0-1,0.8-1.4,1.6-1.5c3-0.2,3.2-2.3,3.2-4.6c-0.1-2.5-0.1-5,0-7.5
			c0.1-2.2-0.2-4.5-2.7-4.5c-3-0.1-2.1,2.7-2.3,4.6c-0.2,1.8,0.8,4.7-2.3,4.3c-2.1-0.2-1.8-2.2-0.9-4.2c0.8-2.1-0.2-4.8-2.3-5.5
			c-2.7-0.9-2.1,2-2.7,3.5c-1.3,2.9-6.7,4.9-9.8,3.8c0-1,0-2,0-3c4.8-3.2,4.8-6,0-11c0-4.3,0-8.7,0-13c5.4-1.4,5.1-5.1,4.5-9.6
			c-0.4-3.4-1.7-4-4.5-3.4c0-1.7,0-3.3,0-5c2.4-0.3,5.2-1.2,3.6-3.8c-1-1.7,2-6.8-3.6-5.2C0,135,0,122.3,0,109.7z M19.1,153.7
			c1.7,0.7,3.5,1.7,4.6-0.7c0.4-0.9,1-2.1-0.6-2.8c-3.9-1.7-3.6-5.4-2.7-8.2c0.6-2,0.1-4,1-5.8c0.8-1.7-0.6-1.5-1.4-1.7
			c-0.8-0.2-2.1-1.4-2.4,0.2c-0.6,3.3-3.5,6.2-1,10.2c1.6,2.5,2.9,5.6,2.8,8.9c-1,0.1-2.4-1.8-2.9-0.1c-0.6,2.6-0.5,5.4-0.5,8.1
			c0,0.5,1.1,1.3,1.8,1.4c1.2,0.2,1.5-1.1,1.9-1.9C21,158.7,18.8,156.3,19.1,153.7z M29.1,196.9c4.2-0.7,4.9-5.2,8-6.4
			c1.4-0.6,2.7-0.5,1.5-1.9c-2.6-3.1-1.8-6.5-1.1-9.8c0.4-2,0.4-3.4-1.6-3.9c-1.9-0.4-2.3,1.2-3,2.6c-1.3,2.5,0.4,6.1-1.2,7.6
			C27.6,188.6,29.5,192.8,29.1,196.9z M48.4,182.8c0.8-2.5-1.1-3.2-2.8-3.6c-2.5-0.6-2.4,1.4-2.6,3.1c-0.7,6,1.7,12.2-1.6,18
			c-0.2,0.4,0.2,1.3,0.5,1.7c0.8,0.9,1.5-0.1,2.1-0.4c3.6-1.8,6.3-8.7,4.7-12.5C47.8,187,47.9,185,48.4,182.8z M54,192
			C54,192,54,192,54,192c0,2.1,0,4.3,0,6.4c0,0.8,0.2,1.6,1.2,2c0.7,0.2,1.2,0,1.7-0.5c2.5-2.3,4-10.1,2.6-13.2
			c-0.8-1.7-1.7-3.4-4-2.9c-2.1,0.5-1.3,2.3-1.5,3.7C53.9,189,54,190.5,54,192z M24.4,177c0.8-1.2,1.5-2.5,2.4-3.6
			c3.3-3.6,2.2-7.3,0.5-11c-0.6-1.3-2.7-2.3-2.7-0.8C24.6,166.7,20,171.9,24.4,177z M16.2,131.6c1.7,0,2.6-1,2.7-2.7
			c0.1-1.6,0.1-3.2,0.7-4.8c0.7-1.7-0.4-2.9-2.1-3.2c-1.7-0.3-3,0.3-3.4,2c-0.3,1.4,0,2.9-1,4.3C10.1,131.2,13.9,130.9,16.2,131.6z
			 M7.3,182.9c6.9-4,6.4-8.9,4.8-14.1c-0.5-1.6,0.6-4.5-1.8-4.3c-2.1,0.2-1.2,3.1-1.2,4.8C8.9,173.5,10.1,177.8,7.3,182.9z
			 M8.1,140.5c0,5.9,0,11.7,0,17.6c0,1.1,0.5,2.1,1.7,2.1c1.5,0.1,2.1-1.6,1.9-2.4C9.9,152.1,12.5,145.8,8.1,140.5z M21.7,193.2
			c0.9-3.4,1.2-6.8,2.9-9.9c0.7-1.2,0.3-2.3-0.8-3c-1.5-0.9-2.1,0.4-2.7,1.3C18.6,185.2,18.8,190,21.7,193.2z M16.9,172.9
			c0.9,1.8-1.3,5,1.6,5.3c2.1,0.3,2.4-2.9,2.4-4.6c-0.1-2-0.4-5.2-2.6-5.2C15.9,168.3,17.6,171.3,16.9,172.9z M4.3,128.7
			c5.6-2.4,6.2-5.6,2.8-9.6C5.2,121.8,6.6,125.2,4.3,128.7z"/>
		<path class="st2" d="M200,58.7c-2.7,0.2-5.3-0.1-7.5-2c-1.2-1.1-2.6-1.3-4.2-0.7c-4.2,1.5-3.6-1.4-3.1-3.6
			c1.6-6.8,6.7-10.3,14.7-10.7C200,47.3,200,53,200,58.7z"/>
		<path class="st2" d="M200,39.7c-1.8,0.2-3.3-0.5-4.7-1.4c-4.4-2.8-7.7-2.1-9,3.1c-1.8,7.2-8,8.8-13.7,9.3
			c-1.6,0.1-3.8,0.5-4.1-1.6c-0.3-1.8,1.8-2,3.2-2.4c4.7-1.2,8.2-3.6,10.5-8.2c2.6-5.2,5.8-5.8,11.3-4.1c2,0.6,4.3,0.3,6.4,0.4
			C200,36.3,200,38,200,39.7z"/>
		<path class="st2" d="M187.1,225.9c-0.6,1.7-3.2,3.6-1,5.1c2.3,1.6,2.4,6.7,7.1,4.8c2.3-0.9,4.4,1.1,6.7,0.9c0.9,4.2-0.7,5.6-5,5.1
			c-4-0.4-8-0.1-12-0.1c-0.3-2.9,3.2-4.2,3-7.1c-0.9-2-2.3-3.9-1.9-6.3C184.4,226.6,184.7,224.8,187.1,225.9z"/>
		<path class="st2" d="M0,50.7c3.2-0.6,6.2-3.5,9.5-0.2c-2.2,3.3-6.6,2.2-9.5,4.2C0,53.3,0,52,0,50.7z"/>
		<path class="st2" d="M65,241.7c0.1-1.3,0.1-2.7,0.2-4c1.6,0.9,1.8,2.4,1.8,4C66.3,241.7,65.7,241.7,65,241.7z"/>
		<path class="st2" d="M175.8,184.7c-3.5-3.2-2,2.2-3.7,2.1c-2.4-2.5-6.1-4.8,0.1-7.5c1-0.4,0.7-3.2,2.7-3.7
			c0.7,1.1-1.5,2.4,0.2,3.3c1.5,0.8,1.8-1.2,2.9-1.5c0.4,0,0.8,0.1,1.2,0.1c-0.3-0.3-0.6-0.6-0.8-1c0.5-0.7,1-1.4,1.5-2.1
			C185,179.6,184,182.2,175.8,184.7z"/>
		<path class="st2" d="M87.7,61.8c3.5-2.6,6.2-7.2,11.7-3.9c1.1,0.6,2.8,0.9,2.4,2.6c-0.4,1.6-1.9,2.2-3.5,1.8
			c-3.7-1-6.2,0.7-8.2,3.6C89.3,64.5,88.5,63.2,87.7,61.8z"/>
		<path class="st2" d="M143,91.9c2-0.2,4.5-0.8,2.9,2.8c-2.9,0.1-5.3-1.7-8-2.1c1-2,1.7-4.3,3-6c1-1.2,2.8-2.9,4.5-1.2
			c1.4,1.4-0.3,2.6-1.3,3.6c-0.8,0.8-1.4,1.7-2.1,2.6C142.3,91.7,142.7,91.8,143,91.9z"/>
		<path class="st2" d="M174.8,210.7c0.8,3.3-2.1,6.6,0.2,9.9c-0.5,1-1.1,2.7-2.4,1.7c-1.5-1.1-3.3-2.5-2.7-4.9
			C170.7,214.5,172.6,212.5,174.8,210.7z"/>
		<path class="st2" d="M45.3,129.7c0.6-3.1-1-3.2-3.3-2.5c-0.9-0.7-2.3-1.2-1.5-2.6c0.6-1.1,2.1-0.8,3.2-0.8c1.6,0,2.9,0.5,3.4,2.3
			C47.5,127.8,46.7,128.9,45.3,129.7z"/>
		<path class="st2" d="M112.9,66.7c-0.9-0.3-1.8-0.7-2.8-1c-1-0.3-2.6,0.4-2.7-1.3c0-0.6,0.8-1.4,1.4-1.9c1-1,2.1-0.9,3.2-0.1
			c1.5,1,2.1,2.5,2.3,4.2C113.9,66.6,113.4,66.7,112.9,66.7z"/>
		<path class="st2" d="M49.8,115.6c0.6-2-0.5-4.2,1-6c1.5,0.3,4.1,0.1,3.8,1.9C54.4,113.7,51.8,114.7,49.8,115.6z"/>
		<path class="st2" d="M83.3,69.9c-2.4-5-1.8-6.6,2.9-8.1C85,64.4,85.5,67.7,83.3,69.9z"/>
		<path class="st2" d="M194.2,185.3c2.6,1.1,3.9,2.7,2,5.4C194.5,189.3,192,188.1,194.2,185.3z"/>
		<path class="st2" d="M181.2,168.7c2.8-2.4,3.5-2.2,5.9,2C184.3,172.5,183.7,167.7,181.2,168.7z"/>
		<path class="st2" d="M133.9,95.5c0.7-1.2,1.7-1.8,3-2.1c0.5,1.1,2.5,2,1,3.2C136.5,97.7,135.1,96.4,133.9,95.5z"/>
		<path class="st2" d="M188.9,178.5c0.9,1.7,3.7,0.9,4.2,3.2c-1.3-0.1-2.6-0.2-3.9-0.2c-0.8,0-1.8,0-2-0.9
			C186.9,179.3,188.1,179,188.9,178.5z"/>
		<path class="st2" d="M44.2,135.7c0.3-1.7,0.6-3.5,0.9-5.2C47.3,132.7,47.7,134.5,44.2,135.7z"/>
		<path class="st2" d="M51.8,133.7c0.5,2.3-0.3,3.8-2.8,4.1C49.1,135.8,49.8,134.3,51.8,133.7z"/>
		<path class="st2" d="M68.8,193.6c0.8-1.3,0.1-4,3.1-3.1C71.8,192.5,70.8,193.5,68.8,193.6z"/>
		<path class="st2" d="M51.9,106.6c0-2,0.7-3.7,2-5.1C53.9,103.5,54.2,105.6,51.9,106.6z"/>
		<path class="st2" d="M175.9,169.7c0.1,1.4,0.6,2.9-0.7,4C173.9,172.1,174.5,170.8,175.9,169.7z"/>
		<path class="st2" d="M65.1,227.7c-0.6-0.9-1.3-1.8-1-3C65.6,225.3,67.5,225.8,65.1,227.7z"/>
		<path class="st2" d="M72.9,188.6c0-1.3,0-2.6,0-4c0.7,0.3,1.4,0.7,2.1,1l0,0C74.9,187.1,74.3,188.2,72.9,188.6z"/>
		<path class="st2" d="M42.3,148.9c-0.1,0.9-0.3,1.9-0.4,2.8C40,150.4,40.3,149.5,42.3,148.9z"/>
		<path class="st2" d="M33.2,129.7c-0.2-1.1-0.4-2.3,0.7-3.1C34.4,127.8,34.7,128.9,33.2,129.7z"/>
		<path class="st2" d="M76,185.7c0.6,0.2,1.2,0.4,1.8,0.6c-0.1,0.2-0.2,0.4-0.3,0.6C77,186.5,76.5,186.1,76,185.7L76,185.7z"/>
		<path class="st2" d="M171.8,190.7c0,0.7,0,1.3,0,2C170.6,192,170.6,191.3,171.8,190.7z"/>
		<path class="st2" d="M37.2,160.7c0-0.7,0-1.5,0-2.2C38.2,159.2,38.3,159.9,37.2,160.7z"/>
		<path class="st2" d="M72.2,182.8c0-0.7,0-1.5,0-2.2C73.3,181.4,73.2,182.1,72.2,182.8z"/>
		<polygon class="st2" points="77.2,179.6 77,179.9 76.9,179.6 		"/>
		<path class="st2" d="M32,151.7c-1.3-0.8-1-1.9-0.8-3.1C31.4,149.7,31.7,150.7,32,151.7z"/>
		<path class="st2" d="M92.1,72.5c0.8,0.5,1,1.3,1,2.2C92.8,73.9,92.4,73.2,92.1,72.5z"/>
		<path class="st2" d="M174.1,207.5c0.8,0.5,1,1.3,0.8,2.1C174.6,209,174.3,208.2,174.1,207.5z"/>
		<path class="st2" d="M54.2,137.7c-0.2-0.9,0-1.6,0.8-2.2C54.7,136.2,54.4,136.9,54.2,137.7z"/>
		<path class="st2" d="M38.9,135.7c0,0.3,0,0.7,0,1C38.9,136.3,38.9,136,38.9,135.7z"/>
		<path class="st2" d="M195.7,192.7c-0.2,0.4-0.5,0.7-0.7,1.1C195.3,193.4,195.5,193.1,195.7,192.7z"/>
		<path class="st2" d="M48.7,118.6c0-0.3,0.2-0.6,0.4-0.9C49,118,48.8,118.3,48.7,118.6z"/>
		<path class="st2" d="M191.9,217.7c0,0.3,0,0.7-0.1,1C191.8,218.3,191.9,218,191.9,217.7z"/>
		<path class="st2" d="M37.9,157.3c-1,0-1-0.9-1.2-1.5C37.1,156.3,37.5,156.8,37.9,157.3z"/>
		<path class="st2" d="M75,185.7c0.3,0,0.7,0,1,0l0,0C75.7,185.7,75.3,185.7,75,185.7L75,185.7z"/>
		<path class="st2" d="M188.8,175.7c0,0.4,0,0.9,0,1.3C188.8,176.6,188.8,176.1,188.8,175.7z"/>
		<path class="st2" d="M94.1,76.4c0.6,0.5,1.1,1.1,0.4,1.9C94.3,77.7,94.2,77.1,94.1,76.4z"/>
		<path class="st2" d="M188,178.4C188,178.4,188,178.4,188,178.4c0.1,0,0.2,0,0.3-0.1C188.2,178.3,188.1,178.3,188,178.4z"/>
		<path class="st2" d="M26.4,55.6c3.3-3.1,6.9-3.6,10.9-2.4c3.1,1,6.1,0.5,8.3-1.8c5.3-5.7,11.6-7.9,19.2-6.8
			c5.7,0.9,9.6-1.2,12.6-6.4c3.7-6.3,6.7-6.1,11.1-0.2c1,1.3,2.5,2.2,3.6,3.4c0.9,0.9,1.1,2,0.3,3.2c-1.1,1.5-2,0.2-2.9-0.2
			c-0.9-0.4-2-0.8-2.5-1.5c-2.6-3.6-5.7-2.6-8.1-0.3c-5.4,5-12,6-18.8,6.1c-3.8,0.1-6.8,0.9-9.3,3.8c-0.5,0.6-1.1,1.3-1.8,1.7
			C41.6,57.4,33.9,54.7,26.4,55.6z"/>
		<path class="st2" d="M110.1,39c-0.2,0.2-2.6,1.1-1,3.7c-1.7,0.5-4.6,1.8-4.8,1.4c-1.4-2.3-4.1-4.5-3-7.4c0.9-2.5,3.5-3.5,6.2-2.6
			C109.4,34.6,111.9,34.8,110.1,39z"/>
		<path class="st2" d="M171.2,54.8c2.7-3.4,6.9-1.3,9.6-3.7c0.4-0.4,1.1,0.7,1,1.3c-0.3,1.5-0.9,3-2.7,3.1
			C176.7,55.7,174.2,56.1,171.2,54.8z"/>
		<path class="st0" d="M143,91.9c-0.3-0.1-0.6-0.2-0.9-0.3C142.3,91.7,142.7,91.8,143,91.9z"/>
		<path class="st2" d="M10.7,209.5c-2.1,0.2-2.8,4.2-5.2,1.9c-1.1-1.1-2.5-3.8-0.9-4.8C6.8,205.2,8.8,207.8,10.7,209.5z"/>
		<path class="st2" d="M17.9,237.4c-2.9,0.5-4.4-0.8-5.4-2.8c-0.4-0.7,0.3-1.5,0.8-1.4C15.6,233.4,16.9,235,17.9,237.4z"/>
		<path class="st2" d="M7.5,221.3c-3.2-1.1-4.7-2.8-2-6c0.9,1.8,1.8,3.5,2.7,5.2C7.9,220.8,7.7,221,7.5,221.3z"/>
		<path class="st2" d="M8.1,220.6c0.4,0.2,0.7,0.5,1.1,0.7c-0.6,0.6-1.1,0.5-1.7,0C7.7,221,7.9,220.8,8.1,220.6z"/>
		<path class="st0" d="M178.2,176.7c0.3,0.3,0.6,0.6,0.8,1c-0.4,0-0.8-0.1-1.2-0.1C177.9,177.2,178,176.9,178.2,176.7z"/>
	</g>
	<g>
		<path class="st1" d="M530.5,70.9c-0.7-2.2-1.3-4.4-2-6.6c2-2.9,4.4-4.6,8.2-3.6c1.6,0.4,3.1-0.2,3.5-1.8c0.4-1.7-1.3-1.9-2.4-2.6
			c-5.4-3.3-8.2,1.4-11.7,3.9c-0.5,0-1,0-1.5,0c-4.7,1.4-5.2,3.1-2.9,8.1c0.9,1.7,2,3.4,2.8,5.2c1.1,2.2,0.4,5.2-1.6,5.2
			c-6.3,0-9.8,5.1-15,7.1c-6.1,2.4-11.3,6.1-14.8,11.8c-0.4,0.7-0.6,1.5-0.9,2.3c-1.4,1.4-2.1,3.1-2,5.1c-1,0.8-0.9,1.9-1.1,3
			c-1.5,1.8-0.4,4-1,6c-0.8,0.5-0.8,1.3-0.7,2.1c-0.3,0.2-0.4,0.5-0.4,0.9c-3.6,0.8-6.9-1.2-10.5-1c-3.5-0.8-6.9-1.9-10.4-2.4
			c-9.4-1.4-18.3-4.8-27.8-5.5c0-18.3,0-36.7,0-55c2.9-2,7.3-0.9,9.5-4.2c-3.3-3.3-6.4-0.4-9.5,0.2c0-15.3,0.1-30.7-0.1-46
			c0-2.5,0.6-3.1,3.1-3.1c25.3,0.1,50.7,0.1,76,0.1c-4.7,8.8-1.4,17.6-0.7,27.6c2.2-1.9,3.6-2.8,4.4-4c1.8-2.9,3.9-3.1,7.3-2.8
			c5.4,0.4,9.9-3.6,14.4-6.1c5.6-3,10.9-4,16.4-0.7c3,1.8,5.3,0.4,7.3-1.1c3.2-2.5,5.7-2,8.3,0.6c2.5,2.6,2.7,5.4,0,8.4
			c-3.8-5.3-9.3-4.9-14.5-3.5c-3.3,0.9-2.4,4.9-2.5,7.6c-0.1,2,0.9,4.2,1.8,6.1c2.1,5.1,3.5,10.2,3.1,15.8c-0.2,2.1-0.9,4.5,1.2,6.5
			c1.5,1.4,0.2,2.7-1.1,3.6c-3.3,2.3-6.6,4.6-9.9,7c-0.2-1.7-0.8-3.2-2.3-4.2c-1.1-0.8-2.2-0.8-3.2,0.1c-0.6,0.6-1.4,1.3-1.4,1.9
			c0.1,1.8,1.7,1,2.7,1.3c0.9,0.3,1.8,0.7,2.8,1c-1.3,5.7-4.1,10.3-9,13.7c-5,3.5-6.6,3.3-9.5-2.1c0.8-0.8,0.3-1.4-0.4-1.9
			c-0.3-0.6-0.6-1.2-1-1.8C531.4,72.2,531.2,71.4,530.5,70.9z M464.8,54c7.5-1,15.2,1.8,22.5-1.6c0.7-0.3,1.3-1,1.8-1.7
			c2.4-2.9,5.5-3.7,9.3-3.8c6.8-0.1,13.4-1,18.8-6.1c2.4-2.3,5.5-3.2,8.1,0.3c0.5,0.7,1.6,1.2,2.5,1.5c0.9,0.4,1.8,1.8,2.9,0.2
			c0.8-1.1,0.6-2.2-0.3-3.2c-1.2-1.2-2.6-2.1-3.6-3.4c-4.4-5.9-7.4-6.2-11.1,0.2c-3,5.2-6.9,7.3-12.6,6.4
			c-7.6-1.1-13.9,1.1-19.2,6.8c-2.2,2.4-5.2,2.8-8.3,1.8C471.7,50.4,468.1,50.9,464.8,54z M548.5,37.4c1.8-4.2-0.8-4.4-2.6-5
			c-2.7-0.8-5.3,0.1-6.2,2.6c-1.1,2.9,1.6,5.2,3,7.4c0.2,0.4,3.1-0.9,4.8-1.4C545.9,38.4,548.3,37.6,548.5,37.4z"/>
		<path class="st1" d="M638.4,122.1c-6.7-3.1-9.8-9.6-14.3-14.7c-3.5-3.9-5.8-9.7-12.7-6.4c-0.3,0.1-0.8,0.1-1,0
			c-7.1-5.6-15.4-1.9-23.1-2.8c-5-0.6-5.3-0.7-3-5.1c1.6-3.6-0.9-2.9-2.9-2.8c-0.3-0.1-0.6-0.2-0.9-0.3c0.7-0.9,1.4-1.8,2.1-2.6
			c1-1.1,2.6-2.3,1.3-3.6c-1.7-1.7-3.6,0-4.5,1.2c-1.4,1.7-2.1,4-3,6c-0.3,0.3-0.6,0.5-1,0.8c-1.3,0.3-2.3,0.9-3,2.1
			c-4.7,3.3-9.4,6.8-14.1,10c-8.4,5.7-17.3,1.2-18.3-8.9c-0.3-2.7-3.7-4.8-2.1-8.3c2.8-0.2,4.9,2.1,7.7,2.4c7.7,1,12.7-3.3,16.7-8.8
			c4.8-6.7,8.4-13.9,7.2-22.6c-0.9-6.4,0.6-12.4,3.6-18.2c0.8-1.4,1.3-2.6,2.9-3.1c1.8-0.6,4.5,0.4,5.1-2.1c0.6-2.7,1.3-5.9-0.4-8.3
			c-3.8-5.5,0.3-12.5-3.8-17.8c3.7-5.6-1.4-6.2-4.5-8c20.9,0,41.8,0.1,62.7-0.1c2.6,0,3.5,0.3,3.4,3.2c-0.2,9.9-0.1,19.9-0.1,29.8
			c-2.2-0.1-4.4,0.2-6.4-0.4c-5.5-1.7-8.7-1.1-11.3,4.1c-2.3,4.6-5.8,7-10.5,8.2c-1.4,0.4-3.5,0.6-3.2,2.4c0.3,2.1,2.6,1.8,4.1,1.6
			c5.7-0.5,11.9-2.1,13.7-9.3c1.3-5.2,4.6-5.9,9-3.1c1.4,0.9,2.9,1.6,4.7,1.4c0,0.7,0,1.3,0,2c-8.1,0.4-13.1,4-14.7,10.7
			c-0.5,2.2-1.1,5.2,3.1,3.6c1.5-0.6,2.9-0.4,4.2,0.7c2.2,1.9,4.7,2.2,7.5,2C638.4,78.7,638.4,100.4,638.4,122.1z M609.6,53.2
			c2.9,1.3,5.4,0.8,7.9,0.8c1.8,0,2.4-1.6,2.7-3.1c0.1-0.6-0.5-1.7-1-1.3C616.5,51.9,612.3,49.9,609.6,53.2z"/>
		<path class="st1" d="M438.4,200.1c3.1,1,8.6-1,9.8-3.8c0.7-1.5,0-4.4,2.7-3.5c2.1,0.7,3.1,3.4,2.3,5.5c-0.8,2-1.1,3.9,0.9,4.2
			c3,0.4,2-2.6,2.3-4.3c0.2-1.8-0.7-4.6,2.3-4.6c2.5,0,2.8,2.3,2.7,4.5c-0.1,2.5-0.1,5,0,7.5c0.1,2.3-0.2,4.4-3.2,4.6
			c-0.9,0.1-1.6,0.5-1.6,1.5c0,1,0.9,1.2,1.6,1.5c1.7,0.8,3.3,0.9,4.6-0.3c2.6-2.5,6.9-4,5.6-9.1c-0.4-1.5,0.1-3.3,2.1-3.2
			c1.5,0.1,1.9,1.7,1.8,3.1c-0.3,3.2,1.8,5.6,2.6,8.5c0.9,3.4,0.8,6.1-3.8,5.9c-0.8,0-1.8-0.2-2.2,0.8c-0.5,1.2,0.5,1.8,1.3,2.4
			c1.7,1.4,4.4,2.9,5.9,1.5c2.2-2,6.4-2.1,6.4-6.3c0-1.6-0.3-3.9,2-3.8c2.2,0,1.8,2.3,2,3.9c0.3,4.3,0.2,8.4-4.8,10.5
			c6.5,2.5,11.1-0.5,10.9-6.4c-0.1-1.7-0.8-3.9,1.3-5c2.5-1.3,4.4,0.5,6.4,1.6c-0.1,2.3,2,3.8,2.4,5.9c-0.3,1.2,0.4,2.1,1,3
			c0,3.3,0,6.7,0,10c-0.1,1.3-0.1,2.7-0.2,4c-20.6,0-41.1-0.1-61.7,0.1c-2.6,0-3.4-0.4-3.4-3.2C438.5,224.6,438.4,212.3,438.4,200.1
			z M445.9,219.7c0.6,0.5,1.1,0.6,1.7,0c-0.4-0.2-0.7-0.5-1.1-0.7c-0.9-1.7-1.8-3.5-2.7-5.2C441.2,216.8,442.6,218.5,445.9,219.7z
			 M449,207.9c-1.9-1.7-3.8-4.3-6.1-2.9c-1.6,1-0.2,3.7,0.9,4.8C446.2,212.1,446.9,208.1,449,207.9z M456.2,235.8
			c-1-2.4-2.2-4-4.6-4.2c-0.5,0-1.2,0.7-0.8,1.4C451.9,235,453.4,236.3,456.2,235.8z"/>
		<path class="st1" d="M614.2,168.1c0.9-1.1,0.9-2.5,1.3-3.7c0.8-2.3,0.8-5,5-2.2c4.2,2.9,9.6,0.2,14.5-0.5c1.1-0.2,2.3-0.4,3.4-0.7
			c0,24.7,0,49.3,0,74c-2.3,0.2-4.5-1.8-6.7-0.9c-4.8,1.9-4.8-3.2-7.1-4.8c-2.2-1.5,0.4-3.4,1-5.1c2.9-1.6,3.8-4.4,4.7-7.2
			c0-0.3,0-0.7,0.1-1c4.7-2.5,2.2-6.9,1.8-9.9c-0.7-4.9,0.4-9.3,1.3-13.9c0.2-0.4,0.5-0.7,0.7-1.1c0.1-0.7,0.3-1.3,0.4-2
			c1.9-2.7,0.6-4.3-2-5.4c-0.4-1.2,0.4-2.8-1.1-3.7c-0.5-2.3-3.2-1.5-4.2-3.2c-0.3-0.5-0.6-0.5-0.9-0.1c0,0,0,0,0,0
			c0.7-0.2,1-0.7,0.8-1.4c0-0.4,0-0.9,0-1.3c0.5-2-0.4-3.6-1.7-5.1c-2.4-4.1-3.2-4.4-5.9-2c-1.6,1.7-1,3.9-1.4,5.9
			c-0.5,0.7-1,1.4-1.5,2.1c-0.3,0.2-0.4,0.5-0.3,0.8c-1.1,0.4-1.4,2.3-2.9,1.5c-1.6-0.9,0.6-2.2-0.2-3.3c0.1-0.6,0.2-1.3,0.3-1.9
			C614.9,171,614.3,169.5,614.2,168.1z"/>
		<path class="st1" d="M565.4,0.1c-6,3.7-12.3,6-20.1,5.6c1.3-2.9,4.9-2.5,4.1-5.6C554.7,0.1,560,0.1,565.4,0.1z"/>
		<path class="st1" d="M438.4,160.1c2.8-0.6,4.1,0,4.5,3.4c0.6,4.5,0.8,8.2-4.5,9.6C438.4,168.7,438.4,164.4,438.4,160.1z"/>
		<path class="st1" d="M438.4,146.1c5.6-1.7,2.6,3.5,3.6,5.2c1.6,2.6-1.2,3.6-3.6,3.8C438.4,152.1,438.4,149.1,438.4,146.1z"/>
		<path class="st1" d="M438.4,186.1c4.8,5,4.8,7.8,0,11C438.4,193.4,438.4,189.7,438.4,186.1z"/>
		<path class="st1" d="M624.4,233c0.2,2.9-3.3,4.2-3,7.1c-1,0-2,0-3,0C619.8,237.2,621.3,234.4,624.4,233z"/>
		<path class="st1" d="M505.5,193.7c-1-0.4-1.1,3.8-2.7,0.4c-1.2-2.5-2.7-4.8-1.1-7.8c1.7-3.4,0.7-6.9-1.5-9.2
			c-1.5-1.6-4.5-1.5-7,0.2c-1.7,1.2-2.8-0.5-2.3-2.2c1-3.3,0.3-6.6,0.5-9.9c0.1-1.7-0.6-3.8,2.2-4.2c1-0.2,1.1-1.3,0.7-2
			c-3.2-5-1-9.8,0.3-14.6c4.4-0.6,8.7-1.2,10.2,4.9c0.5,2.2,2.8,4,4.2,6c0.6,0.9,1.6,2.4,1.3,3.1c-3.6,7,0.1,13.8,0.4,20.6
			c0,0.7,0,1.5,0,2.2c0.2,0.6,0.5,1.2,0.7,1.8c0,1.3,0,2.6,0,4c-0.3,0.6-0.6,1.3-0.9,1.9c-3-1-2.3,1.8-3.1,3.1
			C506.7,192.6,506.1,193.1,505.5,193.7z"/>
		<path class="st1" d="M613.2,209.1c0-0.3,0-0.7,0-1c0.2-0.9,0-1.6-0.8-2.1c0-5.1-1.3-9.9-2.2-14.8c0-0.7,0-1.3,0-2
			c0.1-1.3,0.2-2.5,0.2-3.8c1.7,0.1,0.3-5.3,3.7-2.1c0.3,6.4,3,12.3,3.5,18.9c0.4,5,0.1,9.1-2.4,13.1c-0.8,1.2-0.4,3-1.8,3.8
			C611.1,215.7,614,212.3,613.2,209.1z"/>
		<path class="st1" d="M480.6,147.3c2.3,0.2,3.8,1.6,3.7,3.8c-0.3,5.1,1,10.1,1.1,15.2c0,1.5,0.2,3-0.8,4.3c-0.9,1.1-0.6,3.7-3,2.9
			c-2.3-0.7-1.6-2.7-1.3-4.4c0-6.3,0-12.7,0-19C480.4,149.1,480.5,148.2,480.6,147.3L480.6,147.3z"/>
		<path class="st1" d="M500.3,210.2c-4.7,1.7-5,1.4-5-3.9c0-2.8,1.3-5.1,2.7-7.3c1-1.7,2.7-2.5,4.7-1.7c2.4,0.9,0.8,2.8,0.7,4.2
			C500.9,203.9,504.2,208.4,500.3,210.2z"/>
		<path class="st1" d="M469.3,135.9c-1.2,0.9-2.4,1.8-3.9,0.5c-1.2-1-1.3-2.4-0.8-3.6c0.8-1.9,0.9-3.8,0.7-5.8
			c-0.2-1.9-1.2-4.1,1.5-4.8c2.3-0.5,4.6-0.3,5.4,2.7l0,0c-1.1,0.9-0.8,2-0.7,3.1C471.9,131,470.5,133.4,469.3,135.9z"/>
		<path class="st1" d="M476.4,169.1c-4.5,1.5-6,0.7-6-3.6c0-4.3-0.8-8.9,4-11.6c0.2,0.2,0.4,0.3,0.7,0.2c0.2,0.7,0.2,1.5,1.2,1.5
			c-1.2-0.2-0.7,0.7-0.7,1.2c0,0.7,0,1.5,0,2.2c-0.2,2.1-0.3,4.2-1,6.3C473.9,167,474.3,168.7,476.4,169.1z"/>
		<path class="st1" d="M470.4,151c-0.6,0.8-1.2,1.5-1.7,2.4c-0.7,1.1-1.1,2.9-2.7,2.2c-2.4-1-0.3-2.4,0-3.6c0.7-2.3,0.3-4.4-0.3-6.8
			c-0.6-2.7-0.8-5.9,3.7-5.3c2.3,2.3,0.1,4.8,0.2,7.2c-0.2,1.1-0.5,2.3,0.8,3.1C470.4,150.4,470.4,150.7,470.4,151z"/>
		<path class="st1" d="M482.3,134.8c-1.3,0.8-2.6,1.5-3.9,2.3c-0.4-0.7-0.8-1.4-1.1-2c0-0.3,0-0.7,0-1c2.9-2.2,1.4-5.9,3.1-8.5
			c2.3-0.7,3.9-0.6,3.3,2.5c-0.2,0.3-0.2,0.5-0.1,0.8c-0.3,1.7-0.6,3.5-0.9,5.2C482.3,134.3,482.2,134.5,482.3,134.8z"/>
		<path class="st1" d="M492.5,137.1c-3.8,4.1-5.2,4.2-8.1,0.1c1-0.2,2.2,0.1,3-1c2.5-0.3,3.2-1.8,2.8-4.1c0.3-1.4,0-3,1.8-3.6
			c2,1.5,1.2,3.6,1.3,5.5c-0.8,0.5-0.9,1.3-0.8,2.2C492.5,136.4,492.5,136.7,492.5,137.1z"/>
		<path class="st1" d="M467.5,195.3c0.4-4.1-1.5-8.3,2.5-11.9c1.6-1.4,0-5.1,1.2-7.6c0.7-1.4,1.1-3,3-2.6c2,0.5,2.1,1.9,1.6,3.9
			c-0.7,3.3-1.5,6.7,1.1,9.8c1.2,1.4-0.1,1.4-1.5,1.9C472.4,190.1,471.7,194.6,467.5,195.3z"/>
		<path class="st1" d="M486.8,181.2c-0.5,2.2-0.6,4.2,0.3,6.4c1.6,3.8-1.1,10.7-4.7,12.5c-0.6,0.3-1.3,1.3-2.1,0.4
			c-0.4-0.4-0.7-1.4-0.5-1.7c3.3-5.8,0.9-12,1.6-18c0.2-1.7,0.2-3.7,2.6-3.1C485.7,178,487.6,178.7,486.8,181.2z"/>
		<path class="st1" d="M492.4,190.4c0-1.5-0.1-3,0-4.5c0.1-1.3-0.7-3.2,1.5-3.7c2.3-0.5,3.2,1.2,4,2.9c1.5,3.2-0.1,10.9-2.6,13.2
			c-0.5,0.5-1.1,0.7-1.7,0.5c-0.9-0.3-1.1-1.1-1.2-2C492.4,194.7,492.4,192.5,492.4,190.4C492.4,190.4,492.4,190.4,492.4,190.4z"/>
		<path class="st1" d="M457.6,152.3c0.1-3.3-1.2-6.4-2.8-8.9c-2.5-4,0.3-6.9,1-10.2c0.3-1.6,1.6-0.4,2.4-0.2c0.8,0.2,2.2,0,1.4,1.7
			c-0.9,1.8-0.3,3.8-1,5.8c-0.9,2.8-1.2,6.5,2.7,8.2c1.7,0.7,1,1.9,0.6,2.8c-1.1,2.4-2.9,1.4-4.6,0.7L457.6,152.3z"/>
		<path class="st1" d="M462.7,175.4c-4.3-5.1,0.2-10.2,0.2-15.3c0-1.5,2.1-0.5,2.7,0.8c1.8,3.7,2.8,7.4-0.5,11
			C464.2,172.8,463.6,174.1,462.7,175.4z"/>
		<path class="st1" d="M454.6,130c-2.3-0.7-6.1-0.3-3.1-4.5c1-1.3,0.7-2.8,1-4.3c0.4-1.7,1.8-2.3,3.4-2c1.7,0.3,2.8,1.5,2.1,3.2
			c-0.6,1.6-0.7,3.2-0.7,4.8C457.2,129,456.3,129.9,454.6,130z"/>
		<path class="st1" d="M445.6,181.3c2.8-5.2,1.6-9.4,1.8-13.6c0.1-1.7-0.8-4.6,1.2-4.8c2.5-0.2,1.4,2.7,1.8,4.3
			C452.1,172.4,452.6,177.3,445.6,181.3z"/>
		<path class="st1" d="M446.4,138.9c4.5,5.3,1.8,11.6,3.5,17.2c0.2,0.8-0.3,2.5-1.9,2.4c-1.1,0-1.7-1-1.7-2.1
			C446.4,150.6,446.4,144.7,446.4,138.9z"/>
		<path class="st1" d="M460.1,191.6c-2.9-3.2-3.1-8-0.6-11.6c0.6-0.9,1.2-2.2,2.7-1.3c1.1,0.7,1.5,1.8,0.8,3
			C461.3,184.8,460.9,188.3,460.1,191.6z"/>
		<path class="st1" d="M457.4,152.1c-0.3,2.6,1.9,5,0.5,7.6c-0.4,0.8-0.6,2.1-1.9,1.9c-0.7-0.1-1.8-0.9-1.8-1.4
			c0-2.7-0.1-5.5,0.5-8.1c0.4-1.7,1.8,0.3,2.9,0.1C457.6,152.3,457.4,152.1,457.4,152.1z"/>
		<path class="st1" d="M455.2,171.3c0.8-1.6-1-4.6,1.4-4.5c2.2,0,2.5,3.3,2.6,5.2c0.1,1.8-0.3,4.9-2.4,4.6
			C453.9,176.2,456.1,173,455.2,171.3z"/>
		<path class="st1" d="M442.7,127.1c2.3-3.5,0.8-6.9,2.8-9.6C448.9,121.5,448.3,124.7,442.7,127.1z"/>
	</g>
</g>
<g>
</g>
<g>
</g>
<g>
</g>
<g>
</g>
<g>
</g>
<g>
</g>
<g>
</g>
<g>
</g>
<g>
</g>
<g>
</g>
<g>
</g>
<g>
</g>
<g>
</g>
<g>
</g>
<g>
</g>
</svg>
