<?xml version="1.0" encoding="utf-8"?>
<!-- Generator: Adobe Illustrator 17.1.0, SVG Export Plug-In . SVG Version: 6.00 Build 0)  -->
<!DOCTYPE svg PUBLIC "-//W3C//DTD SVG 1.1//EN" "http://www.w3.org/Graphics/SVG/1.1/DTD/svg11.dtd">
<svg version="1.1" id="Layer_1" xmlns="http://www.w3.org/2000/svg" xmlns:xlink="http://www.w3.org/1999/xlink" x="0px" y="0px"
	 viewBox="0 0 641.9 180.6" style="enable-background:new 0 0 641.9 180.6;" xml:space="preserve">
<style type="text/css">
	.st0{fill:#020101;}
	.st1{fill:#F80101;}
	.st2{fill:#080202;}
</style>
<g>
	<g>
		<path class="st0" d="M0.1,156.1c0-6.3,0-12.7,0-19c3.1-1,4.1-3.9,4.5-6.3c0.3-1.6-2.1-3.5-4.5-3.7c0-1.3,0-2.7,0-4
			c3.7-6,2.2-12,0-18c0-15.7,0-31.3,0-47C7,55.5,13.8,56,20.9,56.9c2.8,0.4,5.1,2,8,2.2c8.7,0.6,17.6-2.1,26,1.8
			c0.4,0.2,1,0.2,1.5,0.2c1.1,0,2.1-0.5,2.2-1.6c0.2-1.5-1.1-1.4-2-1.4c-3,0-5.8-0.5-8.5-1.9c-0.2-1.9-1.2-2.3-2.7-1.2
			c-3.6,0.4-7-0.2-10.2-2c-1.3-2.7-2.6-2.3-4,0C25.8,52.4,20.6,50.4,15,51c-4.2,0.5-7-1.5-8-5.8c-0.3-0.4-0.6-0.8-1-1.2l0,0
			c-0.1-1.7,1.4-3.8-1-5.1c0.1-0.7,0.1-1.3,0.2-2c1.4-0.7,2.4-1.8,1.6-3.5c-0.4-1-1.5-1.3-2.4-1.2c-2.2,0.3-2.2,2-2.3,3.6
			c-0.4,1-1.2,0.9-2,1c0-2.7,0-5.3,0-8c1.6-0.3,4.1,0.6,4.1-2.1c0.1-2.5-1.7-3.7-4.1-3.9c0-0.7,0-1.3,0-2c1.1-0.4,2.1-0.7,3.2-1.1
			c1.7,1.5,4,2.6,4.8,4.9c0.3,1.3,0.4,2.9,2.3,2.1c2-0.9,1.2-2.6,0.6-4.2c0-0.5,0-1-0.1-1.4c1-2.3,1.3-4.3-1.6-5.3
			C8.7,12.4,9.6,9,11.4,5.8c1.6,0,3-0.5,4.2-1.7c0.5,0.3,1,0.7,1.5,1c0.3,0.6,0.6,1.3,0.9,1.9c1.2,3,2.9,5.7,3.3,9
			c-0.9,1.5-0.9,3-0.3,4.5c0.1,0.2,0.1,0.3,0,0.5c-1.5-0.6-2.9-0.5-3.8,1c-0.6,0.2-1.2,0.5-1.8,0.7c0.2,0.2,0.3,0.4,0.5,0.6
			c0.4-0.4,0.9-0.9,1.3-1.3c1.3-0.1,2.5-0.1,3.8-0.2c-1.7,5.6-1.5,11.6-3.7,17.1c-0.6,1.4-1,2.7,0,4.1c0.5,1.1,0.9,2.7,2.4,2.6
			c1.1-0.1,1.5-1.5,1.8-2.6c0.4-0.7,0.8-1.3,1.1-2c-0.1-0.4-0.1-0.8-0.2-1.2l0.2-0.2l-0.2-0.2c0-0.8,0-1.6,0-2.4c0-0.3,0-0.7,0-1
			c0-0.7,0-1.3,0-2c0-0.3,0-0.7,0-1c-0.4-4.2-0.6-8.3,2.1-12c1.6-1,1.7-2.5,1.7-4.2c0.4-1.3,0.8-2.6,1.2-3.8
			c1.1-0.7,1.1-1.4,0.2-2.2C28.3,8.7,29,6.4,32,6.3c0.8,1.7,2.1,2.6,4,2.8c1.8,5.3-3.1,8-4.7,12c-0.3,0.4-0.7,0.8-1,1.2
			c-0.3,1.7,1.4,2.4,1.9,3.7c0.3,0.4,0.7,0.7,1,1.1c1.2,0.8,0.9,1.9,0.8,3c0.1,0.3,0.2,0.6,0.3,0.9c0.4,1.7-0.1,4.5,2.4,4.5
			c2.6-0.1,2.3-2.7,2.4-4.7c0-0.7-0.1-1.3,0-2c0.1-1-0.4-2.6,1.5-2.5c1.6,0.1,0.6,1.5,0.8,2.3c1,2.8,0.1,6,2.3,8.9
			c0.8-4.1,3.2-5.2,6-2.4c3.3,3.3,6.8,4.8,11.4,4.1c1-0.1,2.1,1,3.1,1.4c9.1,2.8,16.9,8.6,26.8,9.8c10.6,1.3,14.6,8.5,12.3,19
			c-0.6,2.6-0.6,5.3-0.1,7.9c1.8,8.6,3.7,17.1,5.6,25.7c-1.8-0.2-2.8-1.4-3.7-2.9c-1.6-2.8-2.5-5.7-2.8-8.9c-0.1-1.7-1.3-2.2-2.8-2
			c-0.9,0.1-1.8,0.8-1.1,1.6c2.9,3.3-0.4,6.3-0.3,9.4c-0.3,0.9-0.6,1.8-0.9,2.7c-1.4,0.7-2.7,1.4-2.1,3.3c-0.1,0.6-0.2,1.1-0.3,1.7
			c-0.3,0.3-0.6,0.5-0.9,0.8c0.4,0,0.8,0.1,1.2,0.1l0,0c0,1-0.1,2.1-0.1,3.1c-0.7,0.7-1.4,1.3-2.1,2c-1.5,0.1-3.1,0.2-2.9,2.4
			c0.1,1.2,0.4,2.4,1.6,2.8c1.9,0.6,2.1-1,2.4-2.3c1.7,0.7,3.3,1.4,5,2.1c0.4,0.3,0.7,0.7,1.1,1c1.3,0.8,1.4,3,3.5,2.9
			c1.1-0.2,1.9-0.5,1.4-1.9c0.5-1.9-0.9-2.8-2-3.8c0.4-3,4.5-6.1-0.2-8.9l0,0c1.7-2,3.4-3.8,6.4-3.2c1.2,1.2,1,3.4,2.9,4.2
			c3.1,2.8,3.1,2.8,7-1.9c-1.2-0.9-2.6-0.2-3.8-0.3c-0.8-3,2-6,0.1-9c1.7-2.5,2.5-4.8-1.5-6c-0.4-0.1-0.5-0.3-0.6-0.7
			c0.4-0.5,1.2-1.1,1.1-1.4c-0.4-1.2-1.6-0.8-2.5-0.9c-0.3-0.6-0.6-1.3-0.9-1.9c0.3-0.9,0.3-1.7-0.8-2.1c-0.2-3.1-2.7-6.2-0.3-9.4
			c3.7,2.1,7.7,2.8,12,2.1c-1.7,5-1.7,5.1,0.2,7.6c0.9,1.2,1.8,3,3.5,2.1c2.2-1.1,0.3-2.5-0.3-3.7c-0.6-1.2-0.3-2.2,0.1-3.4
			c0.6,0.3,1.2,0.6,1.7,0.9c0.6,0.6,1.2,1.2,1.8,1.7c0.7,1.3,0.6,3.1,2.2,3.9c2.3-0.7,3.3-4,6.4-3.2c0.2-0.9,0.4-1.9,0.6-2.8
			c-0.8-2.2-0.7-4.2,1.2-5.8c2.1,1,1.8,3.7,3.2,5.1c-0.2,1.6-0.3,3.2-0.5,4.8c-1.8,0.3-3.7,1-3.8,3.1c-0.2,2.1,1.7,2.4,3.3,2.8
			c0.5,0,1,0,1.5,0c0.4-0.2,0.8-0.5,1.2-0.7c2.3-0.3,4.6-0.3,6.8-1.3c0.4-0.2,0.8-0.4,1.2-0.7c0.7,0,1.3,0,2,0
			c0.3,0.6,0.6,1.1,0.9,1.7c1.4,0.7,2.8,1.4,4.2,2.1c0.7,3.7,3.4,3.2,6,2.9l0,0c0.3-1.1,0.7-2.2,1-3.3c0.9,0.1,1.8,0.1,2.6,0.2
			c1.9,0.1,3.7-0.1,5.5-0.9c5.6-9.5,4.6-18.2-3.1-26.1c-0.7-0.3-1.4-0.5-2.1-0.8l0.1,0c0-0.6,0-1.3,0.1-1.9c3.5-1,6.5-3.1,10.1-3.8
			c3.3-0.7,5.9-3.1,6.5-6.2c1.5-8,4-15.8,5.8-23.4c3.1-0.2,5.4,2.6,8.5,2.3c0,4,0,8,0,12c-2.2,1.2-3,3.3-4.1,5.4
			c-2.6,5.3-2.2,11.3-4.9,16.7c-2.1,4.2-0.2,9.6-3.5,13.8c-0.7,0.9,0.6,2,0.9,1.9c2.9-1.5,3.1,1.6,4.5,2.6c0.8,0.6,2.1,1.5,2.5,1.3
			c0.9-0.6,1.6-1.9,1.2-3c-1.2-2.8,0-5.5,0.2-8.2c0.3-3.8,0.8-7.7-0.4-11.4c-1.2-3.5-0.1-5.4,3.5-5.9c0,35.7,0,71.3,0,107
			c-1.8-0.6-3.6-1.2-5.4-1.8c-1.4-0.4-2.7-1.5-4.3-1c-1.8,1.3-3.6,2.7-6,3.3c1.1,1.4,1.9,2.4,2.7,3.4c-1.1,2.2,1.3,2.8,2.1,4.1
			c2.8,5,2.7,5.5-2.8,7.2c-0.9,0.3-1.2,1-1.3,1.9c-2,0-4,0-6,0c-0.1-1.3,0.1-2.9-1.8-2.9c-3.6-0.1-7.3-0.1-10.9,0.1
			c-1.5,0.1-2.1,1.4-2.2,2.9c-4,0-8,0-12,0c-0.6-5.5,2.4-10.7,2-16.2c-0.5-7.2,2-12.3,9.3-14.4c1.7-0.5,2.4-2.1,2.5-3.4
			c0.2-6,0.2-12,0.2-17.9c0-1.9-1.3-2.2-2.7-1.9c-1.1,0.3-3.3,0.3-2.5,2c1.9,4.1,0.2,8.1,0.6,12.1c0.3,3.7-0.6,3.8-3.7,3.2
			c-4.9-1-12.2,4.6-11.5,8.8c1.7,9.3,0.4,18.6,0.9,27.8c-42,0-84,0-126,0c0.1-10.2-3.3-19.9-3.8-30c1.9-0.4,4-0.6,2.1-3.4
			c3-2.2,1.4-4.3-0.2-6.4c1.2-0.9,2.3-1.9,2.3-3.8c-2.2,0.7-2.1,2.3-2.3,3.7c-1.2,3.9-3.6,5.4-7.9,5c-4.2-0.4-6.7,2.5-7.1,6.6
			C4,154.7,3.2,156.3,0.1,156.1z M25.2,148.1c-0.3,0-0.7,0-1,0c-0.4,0.4-0.9,0.9-1.3,1.3c0.2,0.2,0.4,0.3,0.6,0.5
			c0.2-0.6,0.5-1.2,0.7-1.8C24.5,148.1,24.8,148.1,25.2,148.1L25.2,148.1z M44.2,43.1L44.2,43.1L44.2,43.1z M120.1,93.1
			c1.5-0.3,2.9-0.7,2.3-2.7c-0.1-0.3-0.8-0.8-1.1-0.7C119.1,90.1,120.4,91.9,120.1,93.1c-0.1,0.1-0.2,0.2-0.3,0.3
			C119.9,93.3,120,93.2,120.1,93.1z M46.5,152.2c-0.5,0.6-0.9,1.2-1.4,1.9c-0.3,0-0.7,0-1,0l0,0c0.5,2.5,1.4,4.6,4.4,4.5
			c2.8-0.1,2.8-2.3,2.8-4.3c1.4-1.8,3-3.4,4.2-5.3c0.8-1.3,0.8-2.9-0.1-4.2c-1-1.5-1.9-0.1-2.9,0.2c-0.8,0.3-1.1-0.5-1.4-1
			c3.3-5.6-3.2-6.8-4.3-10.5c-3.3,2.4-2.1,4.3,0.2,6c1.7,1.3,2.9,2.1,0.1,3.8c-2.9,1.7-0.9,2.5,1.1,2.9c0.1,1.2,0.1,2.3,0.2,3.5
			C48.2,150.7,48,151.9,46.5,152.2z M145.1,135.2c-1.3-0.1-2.7-0.1-3-1.9c0-0.4,0-0.9,0-1.3c6.1-3.5,8.6-11.6,16.6-12.3
			c-0.9-8.8-8-12.1-14.2-5.6c-0.7,0.8-2.3,1.8-3,1.5c-5.6-2.5-12,3.6-17.6-3c1.9,7.4,3.5,13.6,9.9,16.9c1.5,0.8,2.5,2.5,3.4,4.2
			C139.1,137.2,142,137.1,145.1,135.2c0.9-0.3,2-0.2,2.1-1.5c0-0.2-0.4-0.6-0.6-0.6C145.2,133.2,145.3,134.3,145.1,135.2z
			 M29.2,102.2c0-2.6,0-5.2-2.1-7.3c1.6-3.5,4.3-6.6,2.2-11c-0.6-1.2,0.6-3.7,2.5-3.7c3.4,0.1,5.6-2.4,8.7-3
			c0.9-0.1,2.8,0.1,2.1-1.8c-0.5-1.4-1.6-1-2.9-0.7c-2.2,0.5-3.4,3.7-5.9,2.4c-2.4-1.3-1.5-4.5-2.9-6.7c-0.9-1.3-1-3.1-1.7-4.6
			c-0.5-1-1.5-1.9-2.8-1.7c-1.3,0.2-2.1,1.1-2.2,2.3c-0.2,5.2-2.8,10.4,0.3,15.5c0.4,0.6,0.6,2,0.3,2.3c-5.4,4.4-2.1,10.1-2.6,15.3
			c-0.2,2.6,0.6,5,2.1,7c3,3.8,2.5,7.6,0.5,11.5c-0.8,1.5-2,2.9-0.8,4.5c1.7,2.1,1.7,4.3,1.3,6.9c-0.4,2.5,1.1,3.5,3.6,3.6
			c2.3,0.1,3.2-0.7,3.4-3.1c0.5-6.7-0.5-13.3-1.7-19.9C30.1,107.5,31.4,104.5,29.2,102.2z M55.1,91.6c0.2,3.6-1.1,6.6,3.7,6
			c3.5-0.4,3.4-2.4,3.4-4.7c0-7,0.4-13.8,8.5-16.8c0.8-0.3,1.4-0.8,2.2-1.1c1.6-0.7,2-2.5,1.7-3.7c-0.4-1.8-1.9-0.3-2.9-0.3
			c-2.3,0.1-4.6,0.2-6.8-1.1c-1.7-1-3.4-2.4-5.6-1.7c-3.5,1-0.6,3.7-1.2,5.4c-0.1,0.3-0.1,0.7-0.3,1C54.8,80.4,58.4,87,55.1,91.6z
			 M122,173.1c3,0.4,5.1-2.7,8.3-3.3c1.5-0.3,2.5-1.8,1.4-3.5c-1-1.5-2.6-1.7-3.8-0.2c-2.2,2.8-4,2.7-6.4,0.1
			c-1.6-1.8-4-1.9-5.6,0.2C114.9,167.5,119.8,173,122,173.1z M180.6,130c4.3-0.9,3-5.3,5.1-7.4c0.2-0.2-0.7-1.6-1.7-1
			c-1.9,1.1-5.8-0.7-5.6,3.2C178.5,126.4,178.3,129.1,180.6,130z M62.5,161.5c-0.6-1.3-0.1-3.8-2.7-3.9c-1.6-0.1-2.4,1.1-2.3,2.7
			c0.2,2,1.5,3.4,3.4,3.8C62.7,164.4,62.5,162.9,62.5,161.5z M47.8,90.9C47,89.2,46,88.1,44,88.1c-1.7,0-3,0.3-2.8,2.4
			c0.1,1.1-0.1,2.8,1.7,2C44.5,91.8,46.7,93,47.8,90.9z M45.6,50.6c1.6-0.1,2.2-1.1,2.4-2.5c0.1-0.8-0.1-2-1.1-1.6
			c-1.1,0.5-2,1.5-2.6,2.6C43.7,49.9,44.7,50.4,45.6,50.6z M28.1,150.6c0.2-0.2,0.4-0.4,0.5-0.6c0-0.1-0.3-0.3-0.5-0.5
			c-0.2,0.2-0.4,0.4-0.6,0.6C27.7,150.2,27.9,150.4,28.1,150.6z M28.2,146.3l0.1-0.3l-0.3,0.1L28.2,146.3z M147.9,94.1l0.3,0.1
			l-0.1-0.3L147.9,94.1z"/>
		<path class="st1" d="M22.3,39.9c0.1,0.4,0.1,0.8,0.2,1.2c-0.4,0.7-0.8,1.3-1.1,2c-0.3,1.1-0.7,2.5-1.8,2.6
			c-1.5,0.1-1.8-1.4-2.4-2.6c1.4-1.4,1.3-2.7,0-4.1c2.2-5.5,2.1-11.5,3.7-17.1c0.2-0.3,0.3-0.5,0.1-0.8c0.1-0.2,0.1-0.3,0-0.5
			c1.6-1.4,1.5-2.9,0.3-4.5c-0.4-3.2-2.1-6-3.3-9c0.1-0.8,0.1-1.6-0.9-1.9c-0.5-0.3-1-0.7-1.5-1c-3.2-3.9-3.2,0.1-4.2,1.7
			C9.6,9,8.7,12.4,9.3,16.1c0,0.3,0,0.7,0,1c0,0.6,0,1.3,0,1.9c-0.2,1.3,0.5,2,1.7,2.4c0,0.5,0,1,0.1,1.4c-1.1,0.5-1.5,2-2.9,2.1
			c-0.9-2.4-3.1-3.4-4.8-4.9c-1-2.6-1.5-2.9-3.2-1.9c0-5.2,0.1-10.3-0.1-15.5C0,0.4,0.5,0,2.6,0C17.8,0.1,33,0.1,48.1,0.1
			c-2.2,6.2-1.4,12.7-2.7,19c-0.9,4.3,1,7.7,2,11.5c0.2,0.7,0.9,1.7,1.8,1c1.8-1.3,3.1-0.9,4.7,0.3c0.8,0.6,2.2,0.4,2.2-0.9
			c-0.1-8.3,1.6-16.9-3.3-24.4c-1.4-2.2-1.7-4.1-1.7-6.4c4.7,0,9.3,0,14,0c-3.3,8.9,1.5,16.2,4.5,23.8c0.2,0.5,1,0.9,1.6,1.1
			c3.8,1.1,9.8-2.4,10.8-6.4c0.3-1.2,0.3-2.3,1.9-2.4c1.5-0.1,2,0.9,2.6,1.9c1,1.8,1.6,4.8,3.1,5.3c4.5,1.5,5.7,4,4.5,8.3
			c-0.2,0.8-0.4,2.1,0.6,2.7c1.1,0.6,1.8-0.5,2.5-1.1c2.2-1.8,4.3-3.7,6.7-5.1c2-1.1,5.1-3.4,6.7-1.5c1.6,2-2.5,2.8-3.4,4.6
			c-0.3,0.6-1,0.9-1.3,1.5c-1.6,2.3-3,4.4,0.6,6.6c2.3,1.4,3.2,4.2,3.6,6.9c0.2,1.2,0.5,2.4,1.9,2.5c1.2,0.1,1.6-0.9,2.1-1.8
			c0.6-1.2,1.5-2.2,2-3.5c1.2-3.1,2.7-4.7,5.5-1.4c0.5,0.6,1.6,1.3,2.1,0.4c2.1-3.1,4.9-5.9,6.1-9.5c0.1-0.4-0.6-1.6-0.8-1.6
			c-3.6,0.5-4.9-2-6.4-4.6c-0.7-1.2-1.8-0.6-3-0.2c-3.1,1.1-4-0.4-3.2-3.2c0.4-1.6,1-3.1,1.6-4.6c0.4-1,1.6-2,0.4-3.1
			c-1.2-1.2-2.4-0.5-3.6,0.2c-1.6,1-3.7,2.7-5.2,1c-1.6-1.8-3.6-2.8-5.4-4.1c-1.1-0.8-2.1-1.2-1.3-3c0.7-1.4,1.3-1.5,2.7-1.1
			c2.7,0.8,5.1,0.1,7.3-2.4c-1.1-0.3-2-0.7-2.9-0.8c-4.9-0.3-9.9,0.1-14.7-0.8C90.2,4,85.8,4.4,82.4,9c-1.4-2.1-2.6-3.8-4.5-6.6
			c-0.6,5.4-3.5,8-7.1,10.3c-0.3-4.8,2.8-8.4,3.4-12.6c40.8,0,81.7,0,122.5-0.1c3,0,3.7,0.6,3.6,3.6c-0.2,9.2-0.1,18.3-0.1,27.5
			c-3.2,0.3-5.4-2.5-8.5-2.3c-1.8,7.7-4.3,15.4-5.8,23.4c-0.6,3.1-3.2,5.5-6.5,6.2c-3.6,0.8-6.7,2.8-10.1,3.8
			c-3.8-1-7.5-0.5-10.9,1.9c3.6,0,7.2,0,10.8,0l-0.1,0c0.5,0.8,1.3,0.9,2.1,0.8c7.7,7.9,8.7,16.6,3.1,26.1c-0.8-2.5-3.2-3.1-5-2.8
			c-1.8,0.3,0.8,2.5-0.4,3.7c-0.9-0.1-1.8-0.1-2.6-0.2c-1-1.8-2-3.9-4-0.8c-0.8,1.2-1.9,1.1-3,1.3c-1.4-0.7-2.8-1.4-4.2-2.1
			c0.1-0.7,0.2-1.5-0.9-1.7c-0.7,0-1.3,0-2,0c-0.4,0.2-0.8,0.4-1.2,0.7c-2.1,1.1-4.5,1-6.8,1.3c-0.4,0.2-0.8,0.5-1.2,0.7
			c-0.5,0-1,0-1.5,0c-0.9-2.1,0.8-3.9,0.5-5.9c0.2-1.6,0.3-3.2,0.5-4.8c5.1-0.5,4.8-0.4,2.6-4.6c-0.9-1.7-0.6-4.3-0.1-6.4
			c0.3-1.5,2-1,3.4-0.6c2.2,0.7,3-1.3,3.2-2.8c0.2-1.8-1.6-1.6-2.9-1.7c-4.7-0.6-9.1,1.2-13.8,1c-7.8-0.2-15.6,0.1-23.4-0.1
			c-3.7-0.1-4.7,1.8-4.3,5c0.3,2.1,1,4.1,2.8,5.5l0.1,0.2l-0.1,0c-2.3,3.2,0.1,6.3,0.3,9.4c-0.2,0.9,0,1.6,0.8,2.1
			c0.3,0.6,0.6,1.3,0.9,1.9c0,1,0.5,1.8,1.3,2.3c0,0.4,0.2,0.6,0.6,0.7c0.5,2,1,4,1.5,6c2,3-0.8,6-0.1,9c-0.7,1.2-1.8,1.9-3.1,2.2
			c-1.8-0.8-1.7-3-2.9-4.2c-0.1-0.7-0.2-1.3-0.3-2c-1.9-8.6-3.8-17.1-5.6-25.7c-0.5-2.6-0.5-5.3,0.1-7.9c2.4-10.5-1.7-17.8-12.3-19
			c-9.9-1.2-17.8-7-26.8-9.8c-1.1-0.3-2.2-1.5-3.1-1.4c-4.6,0.7-8.1-0.8-11.4-4.1c-2.8-2.9-5.2-1.7-6,2.4c-2.1-2.9-1.3-6.1-2.3-8.9
			c-0.3-0.8,0.8-2.1-0.8-2.3c-1.9-0.2-1.4,1.4-1.5,2.5c-0.1,0.7,0,1.3,0,2c-0.1,2,0.1,4.6-2.4,4.7c-2.5,0.1-2-2.7-2.4-4.5
			c0-0.3-0.1-0.6-0.3-0.9c0.1-1.1,0.3-2.2-0.8-3c-0.3-0.4-0.7-0.7-1-1.1c-0.5-1.3-2.3-1.9-1.9-3.7c0.3-0.4,0.7-0.8,1-1.2
			c1.6-4,6.6-6.7,4.7-12c0-2.8-2.6-1.9-4-2.8c-2.9,0.1-3.6,2.4-4.5,4.6c-0.1,0.7-0.1,1.5-0.2,2.2c-0.4,1.3-0.8,2.6-1.2,3.8
			c-1.6,1-2.1,2.4-1.7,4.2c-2.7,3.7-2.5,7.8-2.1,12c0,0.3,0,0.7,0,1c0,0.7,0,1.3,0,2c0,0.3,0,0.7,0,1c0,0.8,0,1.6,0,2.4L22.3,39.9z
			 M172.5,55.1c-4.2-7-8.4-14-12.8-20.9c-0.3-0.5-2-1.5-3.1-0.4c-0.8,0.8-0.4,1.8-0.2,2.8c2.3,7.8,8.8,12.9,12.6,19.8
			c0.3,0.6,1,1.6,1.9,1C171.6,57.1,171.8,56.2,172.5,55.1z"/>
		<path class="st2" d="M74.1,0.1c-0.6,4.2-3.6,7.8-3.4,12.6c3.6-2.3,6.5-4.9,7.1-10.3C79.8,5.2,81,6.9,82.4,9
			c3.4-4.6,7.7-5,12.9-4.2c4.8,0.8,9.8,0.5,14.7,0.8c0.9,0,1.8,0.5,2.9,0.8c-2.1,2.6-4.6,3.2-7.3,2.4c-1.4-0.4-1.9-0.3-2.7,1.1
			c-0.9,1.8,0.2,2.2,1.3,3c1.9,1.3,3.8,2.3,5.4,4.1c1.5,1.7,3.6-0.1,5.2-1c1.2-0.7,2.4-1.4,3.6-0.2c1.1,1.1,0,2.1-0.4,3.1
			c-0.6,1.5-1.2,3.1-1.6,4.6c-0.8,2.9,0.1,4.4,3.2,3.2c1.2-0.4,2.4-1,3,0.2c1.5,2.6,2.8,5.1,6.4,4.6c0.2,0,0.9,1.2,0.8,1.6
			c-1.2,3.7-4,6.4-6.1,9.5c-0.6,0.8-1.6,0.2-2.1-0.4c-2.8-3.3-4.3-1.7-5.5,1.4c-0.5,1.2-1.3,2.3-2,3.5c-0.5,0.9-1,1.9-2.1,1.8
			c-1.5-0.1-1.7-1.2-1.9-2.5c-0.5-2.7-1.3-5.4-3.6-6.9c-3.5-2.2-2.2-4.2-0.6-6.6c0.4-0.5,1-0.9,1.3-1.5c1-1.8,5-2.6,3.4-4.6
			c-1.5-1.9-4.6,0.3-6.7,1.5c-2.4,1.4-4.5,3.4-6.7,5.1c-0.8,0.6-1.4,1.7-2.5,1.1c-1-0.6-0.9-1.9-0.6-2.7c1.3-4.3,0-6.8-4.5-8.3
			c-1.5-0.5-2.1-3.5-3.1-5.3c-0.6-1-1.1-2.1-2.6-1.9c-1.6,0.1-1.6,1.2-1.9,2.4c-1,3.9-7.1,7.5-10.8,6.4c-0.6-0.2-1.4-0.6-1.6-1.1
			c-3.1-7.6-7.9-15-4.5-23.8C68.1,0.1,71.1,0.1,74.1,0.1z"/>
		<path class="st1" d="M19.2,140.4c1.6,2.1,3.2,4.1,0.2,6.4c-1.3,0.7-2.4,1.6-2.1,3.4c0.6,10.1,3.9,19.8,3.8,30c-6,0-12,0-18,0
			c0.3-3.6-0.1-7.2,0.6-10.9c0.4-2.2,0.3-5.7-3.6-6.1c0-2.3,0-4.7,0-7c3.1,0.2,3.9-1.4,4.1-4.2c0.3-4.1,2.8-7,7.1-6.6
			c4.3,0.4,6.7-1.1,7.9-5L19.2,140.4z"/>
		<path class="st1" d="M147.1,180.1c-0.5-9.3,0.8-18.5-0.9-27.8c-0.8-4.2,6.6-9.7,11.5-8.8c3.1,0.6,4.1,0.6,3.7-3.2
			c-0.4-4,1.3-8-0.6-12.1c-0.8-1.6,1.5-1.7,2.5-2c1.4-0.4,2.7,0,2.7,1.9c0,6,0,12-0.2,17.9c-0.1,1.3-0.8,2.9-2.5,3.4
			c-7.3,2.1-9.8,7.3-9.3,14.4c0.4,5.5-2.5,10.6-2,16.2C150.5,180.1,148.8,180.1,147.1,180.1z"/>
		<path class="st1" d="M5.3,37.1c-0.1,0.7-0.1,1.3-0.2,2c-2,2.2,0.1,3.5,1,5.1l0,0c0.3,0.4,0.6,0.8,1,1.2c0.9,4.3,3.7,6.2,8,5.8
			c5.6-0.6,10.8,1.3,16.1,1.9c1.3,0,2.7,0,4,0c3.2,1.9,6.6,2.5,10.2,2c0.9,0.4,1.8,0.8,2.7,1.2c2.7,1.4,5.5,1.9,8.5,1.9
			c0.9,0,2.2-0.1,2,1.4c-0.2,1-1.1,1.6-2.2,1.6c-0.5,0-1,0-1.5-0.2c-8.4-3.9-17.3-1.2-26-1.8c-2.9-0.2-5.2-1.8-8-2.2
			c-7.1-1-14-1.4-20.8,1.1c0-7,0-14,0-21c0.8-0.1,1.7,0,2-1C3.8,34.7,4.5,35.9,5.3,37.1z"/>
		<path class="st2" d="M51.1,0.1c0,2.3,0.3,4.3,1.7,6.4c4.9,7.5,3.2,16.1,3.3,24.4c0,1.3-1.4,1.5-2.2,0.9c-1.6-1.2-3-1.7-4.7-0.3
			c-0.9,0.7-1.6-0.3-1.8-1c-1-3.7-2.9-7.2-2-11.5c1.3-6.2,0.5-12.8,2.7-19C49.1,0.1,50.1,0.1,51.1,0.1z"/>
		<path class="st1" d="M200.1,56.1c-3.7,0.5-4.7,2.4-3.5,5.9c1.2,3.7,0.7,7.6,0.4,11.4c-0.2,2.8-1.4,5.4-0.2,8.2
			c0.5,1.1-0.3,2.4-1.2,3c-0.4,0.3-1.7-0.7-2.5-1.3c-1.4-1-1.5-4.1-4.5-2.6c-0.3,0.1-1.6-1-0.9-1.9c3.2-4.1,1.4-9.5,3.5-13.8
			c2.6-5.3,2.2-11.4,4.9-16.7c1.1-2.1,1.9-4.2,4.1-5.4C200.1,47.4,200.1,51.8,200.1,56.1z"/>
		<path class="st1" d="M185.1,180.1c0.1-0.8,0.4-1.6,1.3-1.9c5.4-1.7,5.5-2.1,2.8-7.2c-0.7-1.3-3.2-1.9-2.1-4.1
			c3.7-0.8,7.1-0.9,9.2,3.1c1.1,2,2.5,0.5,3.8,0.1c0,3.3,1.3,8-0.4,9.6s-6.3,0.4-9.6,0.4C188.5,180.1,186.8,180.1,185.1,180.1z"/>
		<path class="st2" d="M200.1,170.1c-1.3,0.5-2.8,2-3.8-0.1c-2.1-4-5.5-4-9.2-3.1c-0.8-1-1.6-2-2.7-3.4c2.4-0.6,4.2-2,6-3.3
			c-0.4,1.6-0.3,3.2,1.5,3.5c1.4,0.2,2.9-0.5,2.8-2.4c1.8,0.6,3.6,1.2,5.4,1.8C200.1,165.4,200.1,167.8,200.1,170.1z"/>
		<path class="st2" d="M0.1,163.1c3.9,0.4,4,3.9,3.6,6.1c-0.7,3.7-0.3,7.3-0.6,10.9c-1.7,0-3.4,0.7-3.1-2.5
			C0.5,172.8,0.1,167.9,0.1,163.1z"/>
		<path class="st1" d="M164.1,180.1c0.1-1.4,0.7-2.8,2.2-2.9c3.6-0.2,7.3-0.1,10.9-0.1c1.9,0,1.8,1.6,1.8,2.9
			C174.1,180.1,169.1,180.1,164.1,180.1z"/>
		<path class="st1" d="M0.1,127.1c2.4,0.2,4.7,2.1,4.5,3.7c-0.4,2.4-1.4,5.3-4.5,6.3C0.1,133.8,0.1,130.4,0.1,127.1z"/>
		<path class="st1" d="M0.1,105.1c2.2,6,3.7,12,0,18C0.1,117.1,0.1,111.1,0.1,105.1z"/>
		<path class="st2" d="M0.1,23.1c2.4,0.2,4.2,1.4,4.1,3.9c-0.1,2.7-2.5,1.8-4.1,2.1C0.1,27.1,0.1,25.1,0.1,23.1z"/>
		<path class="st2" d="M0.1,18.1c1.7-0.9,2.1-0.7,3.2,1.9c-1.1,0.4-2.1,0.7-3.2,1.1C0.1,20.1,0.1,19.1,0.1,18.1z"/>
		<path class="st2" d="M110,75.5c-1.9-1.4-2.6-3.4-2.8-5.5c-0.4-3.2,0.5-5,4.3-5c7.8,0.2,15.6-0.1,23.4,0.1c4.7,0.1,9.1-1.7,13.8-1
			c1.3,0.2,3.1-0.1,2.9,1.7c-0.2,1.5-1,3.5-3.2,2.8c-1.4-0.4-3.1-0.9-3.4,0.6c-0.5,2-0.7,4.7,0.1,6.4c2.2,4.3,2.5,4.1-2.6,4.6
			c-1.4-1.5-1.1-4.1-3.2-5.1c-0.5-1.4-0.6-3.3-2.8-2.5c-3.5,1.3-1,4.2-1.2,6.3c-0.2,1.8,0.4,3.5,2.8,2c-0.2,0.9-0.4,1.9-0.6,2.8
			c-3-0.7-4.1,2.5-6.4,3.2c1.5-2.1,1.9-5.2,0.8-6.5c-1.9-2.3,1.2-6.5-3.1-7.3c-1.9-0.3-4-0.2-6.2-0.4c1.1,2.6,3.5,1.8,4.8,2.6
			c0.6,2.4-4.2,2.1-2.1,5c-0.4,1.1-0.7,2.2-0.1,3.4c0.6,1.2,2.5,2.5,0.3,3.7c-1.7,0.9-2.6-0.9-3.5-2.1c-1.9-2.5-1.8-2.5-0.2-7.6
			c-4.3,0.7-8.3,0-12-2.1c0,0,0.1,0,0.1,0C110.1,75.6,110,75.5,110,75.5z"/>
		<path class="st1" d="M29.2,102.2c2.2,2.3,0.9,5.3,1.4,8c1.1,6.5,2.2,13.1,1.7,19.9c-0.2,2.4-1.1,3.2-3.4,3.1
			c-2.5-0.1-4-1.1-3.6-3.6c0.4-2.5,0.4-4.7-1.3-6.9c-1.3-1.6,0-3.1,0.8-4.5c2-3.9,2.5-7.7-0.5-11.5c-1.5-2-2.3-4.4-2.1-7
			c0.5-5.1-2.8-10.9,2.6-15.3c0.3-0.3,0.1-1.7-0.3-2.3c-3.1-5.1-0.5-10.4-0.3-15.5c0.1-1.3,0.9-2.2,2.2-2.3c1.3-0.2,2.3,0.7,2.8,1.7
			c0.7,1.4,0.8,3.2,1.7,4.6c1.4,2.1,0.4,5.4,2.9,6.7c2.4,1.3,3.7-1.9,5.9-2.4c1.3-0.3,2.4-0.6,2.9,0.7c0.7,2-1.2,1.7-2.1,1.8
			c-3.1,0.5-5.3,3-8.7,3c-1.9,0-3.1,2.4-2.5,3.7c2.1,4.4-0.7,7.5-2.2,11c-1.3,1.4-2,2.9-1.9,4.8C25.2,102.8,26.1,104.2,29.2,102.2z"
			/>
		<path class="st1" d="M142.1,133.3c0.3,1.8,1.7,1.7,3,1.9l0,0c-3.1,2-6,2-7.8-1.5c-0.9-1.7-1.9-3.4-3.4-4.2
			c-6.5-3.4-8-9.5-9.9-16.9c5.6,6.7,12,0.5,17.6,3c0.6,0.3,2.2-0.7,3-1.5c6.2-6.5,13.3-3.2,14.2,5.6c-8,0.7-10.5,8.9-16.6,12.3
			C141.1,132.4,141.2,132.8,142.1,133.3z"/>
		<path class="st1" d="M55.1,91.6c3.3-4.5-0.3-11.2,2.7-16.9c0.2-0.3,0.2-0.6,0.3-1c0.6-1.8-2.3-4.4,1.2-5.4
			c2.1-0.6,3.8,0.8,5.6,1.7c2.2,1.2,4.5,1.1,6.8,1.1c1,0,2.5-1.5,2.9,0.3c0.3,1.2,0,2.9-1.7,3.7c-0.7,0.3-1.4,0.9-2.2,1.1
			c-8.1,2.9-8.5,9.7-8.5,16.8c0,2.3,0.1,4.3-3.4,4.7C54,98.1,55.3,95.1,55.1,91.6z"/>
		<path class="st2" d="M109,103.1c0.1,0.7,0.2,1.3,0.3,2c-3-0.6-4.7,1.3-6.4,3.2c-1.8-0.2-3.7-0.1-4.8-2c-1-1.7-1.9-0.4-2.8,0.1
			c-0.6-1.9,0.7-2.7,2.1-3.3c1.7,0.9,3.3,1.7,6,1.6c-1.5-2.3-2.5-4.2-5.1-4.3c-0.1-3.1,3.2-6.1,0.3-9.4c-0.7-0.8,0.2-1.5,1.1-1.6
			c1.5-0.2,2.7,0.3,2.8,2c0.3,3.2,1.1,6.1,2.8,8.9C106.2,101.7,107.1,102.9,109,103.1z"/>
		<path class="st1" d="M95.3,106.4c0.9-0.5,1.9-1.8,2.8-0.1c1.1,1.9,3,1.9,4.8,2l0,0c0.3,1.9-1.4,2.9-2,4.3
			c-1.2,2.6-0.6,4.1,2.2,4.6c1.1,1.1,2.5,2,2,3.8c-0.5,0.6-0.9,1.3-1.4,1.9c-2,0.1-2.2-2.1-3.5-2.9c-0.4-0.3-0.7-0.7-1.1-1
			c-1.7-0.7-3.3-1.4-5-2.1c-0.4-1-0.8-1.9-1.1-2.9c0.7-0.7,1.4-1.3,2.1-2c1.4-1,1.3-2,0.1-3.1l0,0c0-0.3-0.1-0.6-0.3-0.9
			C95.1,107.5,95.2,106.9,95.3,106.4z"/>
		<path class="st1" d="M122,173.1c-2.2-0.1-7.1-5.6-6.2-6.7c1.6-2.1,4-1.9,5.6-0.2c2.4,2.6,4.2,2.7,6.4-0.1c1.2-1.5,2.7-1.3,3.8,0.2
			c1.1,1.7,0.2,3.2-1.4,3.5C127.1,170.4,125,173.5,122,173.1z"/>
		<path class="st1" d="M125.4,80.4c-2.2-3,2.7-2.6,2.1-5c-1.3-0.8-3.7,0-4.8-2.6c2.2,0.1,4.2,0,6.2,0.4c4.4,0.7,1.3,5,3.1,7.3
			c1.1,1.3,0.7,4.5-0.8,6.5c-1.6-0.8-1.5-2.6-2.2-3.9c-0.2-1-0.8-1.5-1.8-1.7C126.5,81,126,80.7,125.4,80.4z"/>
		<path class="st2" d="M48.3,149.4c-0.1-1.2-0.1-2.3-0.2-3.5c1-0.7,2-1.4,3-2.1c0.3,0.6,0.6,1.3,1.4,1c1-0.3,1.9-1.7,2.9-0.2
			c0.9,1.3,1,2.9,0.1,4.2c-1.2,1.9-2.8,3.6-4.2,5.3L51,154C51,151.9,51.2,149.8,48.3,149.4z"/>
		<path class="st1" d="M51.1,143.9c-1,0.7-2,1.4-3,2.1c-1.9-0.4-4-1.1-1.1-2.9c2.8-1.7,1.6-2.5-0.1-3.8c-2.3-1.7-3.5-3.5-0.2-6
			C47.9,137.1,54.3,138.3,51.1,143.9z"/>
		<path class="st1" d="M180.6,130c-2.3-0.9-2-3.6-2.1-5.2c-0.2-3.8,3.7-2.1,5.6-3.2c1-0.6,1.9,0.8,1.7,1
			C183.6,124.7,184.9,129.1,180.6,130z"/>
		<path class="st2" d="M62.5,161.5c0,1.4,0.2,3-1.6,2.6c-1.9-0.4-3.2-1.8-3.4-3.8c-0.1-1.5,0.7-2.7,2.3-2.7
			C62.4,157.7,61.9,160.1,62.5,161.5z"/>
		<path class="st1" d="M138.1,80.9c-2.4,1.5-3.1-0.2-2.8-2c0.3-2.1-2.3-5,1.2-6.3c2.1-0.8,2.3,1.1,2.8,2.5
			C137.4,76.7,137.3,78.7,138.1,80.9z"/>
		<path class="st2" d="M159.1,92.2c1.1-0.2,2.3-0.1,3-1.3c2-3,3-0.9,4,0.8c-0.3,1.1-0.7,2.2-1,3.3l0,0
			C162.5,95.4,159.8,95.9,159.1,92.2z"/>
		<path class="st2" d="M103.1,117.2c-2.8-0.5-3.4-2-2.2-4.6c0.7-1.4,2.3-2.4,2-4.3C107.6,111.1,103.5,114.2,103.1,117.2z"/>
		<path class="st2" d="M29.2,102.2c-3.1,2-4,0.6-4.1-2.4c0-1.9,0.7-3.5,1.9-4.8C29.2,96.9,29.2,99.5,29.2,102.2z"/>
		<path class="st1" d="M47.8,90.9c-1.1,2.2-3.3,0.9-4.9,1.6c-1.8,0.8-1.7-0.9-1.7-2c-0.2-2.1,1.1-2.4,2.8-2.4
			C46,88.1,47,89.2,47.8,90.9z"/>
		<path class="st2" d="M51.3,154.2c0,2.1,0,4.2-2.8,4.3c-2.9,0.1-3.9-2-4.4-4.5l0,0c0.3,0,0.7,0,1,0l0,0l0.3,0.2l0.4-0.1
			c0.2-0.1,0.3-0.2,0.5-0.3c1.6,1.9,3.1,1.8,4.7,0L51.3,154.2z"/>
		<path class="st2" d="M169.1,64.2c-3.6,0-7.2,0-10.8,0c3.4-2.5,7.1-3,10.9-1.9C169.1,62.9,169.1,63.5,169.1,64.2z"/>
		<path class="st2" d="M112.1,109.2c1.4-0.2,2.5-0.9,3.1-2.2c1.3,0.1,2.6-0.7,3.8,0.3C115.3,112.1,115.3,112.1,112.1,109.2z"/>
		<path class="st2" d="M93,114.1c0.4,1,0.8,1.9,1.1,2.9c-0.3,1.3-0.5,2.8-2.4,2.3c-1.3-0.4-1.5-1.6-1.6-2.8
			C89.9,114.3,91.5,114.2,93,114.1z"/>
		<path class="st1" d="M51,154c-1.6,1.8-3.1,1.8-4.7,0c0.1-0.6,0.1-1.2,0.2-1.7c1.5-0.3,1.7-1.5,1.8-2.8C51.2,149.8,51,151.9,51,154
			z"/>
		<path class="st2" d="M5.3,37.1c-0.8-1.1-1.5-2.4-3.1-1c0.1-1.6,0.1-3.4,2.3-3.6c1-0.1,2,0.2,2.4,1.2C7.6,35.3,6.7,36.3,5.3,37.1z"
			/>
		<path class="st2" d="M45.6,50.6c-0.9-0.2-1.8-0.7-1.3-1.5c0.6-1.1,1.6-2.1,2.6-2.6c0.9-0.4,1.1,0.8,1.1,1.6
			C47.8,49.5,47.1,50.5,45.6,50.6z"/>
		<path class="st2" d="M141.9,85.1c0.3,2-1.4,3.8-0.5,5.9c-1.6-0.4-3.5-0.7-3.3-2.8C138.3,86.1,140.1,85.4,141.9,85.1z"/>
		<path class="st1" d="M98.2,100.3c2.6,0.1,3.6,2,5.1,4.3c-2.7,0.1-4.3-0.7-6-1.6C97.6,102.1,97.9,101.2,98.2,100.3z"/>
		<path class="st2" d="M168.8,92c1.2-1.2-1.4-3.4,0.4-3.7c1.8-0.3,4.2,0.2,5,2.8C172.5,91.8,170.7,92.1,168.8,92z"/>
		<path class="st1" d="M194.8,161.3c0,2-1.4,2.7-2.8,2.4c-1.8-0.3-1.9-1.9-1.5-3.5C192.1,159.8,193.3,160.9,194.8,161.3z"/>
		<path class="st2" d="M8.1,24.9c1.4,0,1.8-1.6,2.9-2.1c0.5,1.5,1.4,3.2-0.6,4.2C8.6,27.9,8.4,26.2,8.1,24.9z"/>
		<path class="st2" d="M120.1,93.1c0.2-1.2-1-3,1.2-3.5c0.3-0.1,1,0.4,1.1,0.7C123.1,92.4,121.6,92.8,120.1,93.1L120.1,93.1z"/>
		<path class="st2" d="M115.3,98.1c-0.5-2-1-4-1.5-6C117.8,93.2,117.1,95.5,115.3,98.1z"/>
		<path class="st2" d="M9.3,17.1c0-0.3,0-0.7,0-1c3,1,2.7,3.1,1.6,5.3c-1.1-0.4-1.9-1-1.7-2.4C9.3,18.4,9.3,17.8,9.3,17.1z"/>
		<path class="st2" d="M17.3,150.1c-0.3-1.7,0.8-2.6,2.1-3.4C21.3,149.5,19.2,149.7,17.3,150.1z"/>
		<path class="st2" d="M11.4,5.8c1-1.6,1-5.5,4.2-1.7C14.4,5.3,13,5.8,11.4,5.8z"/>
		<path class="st2" d="M6.1,44.1c-1-1.6-3.1-2.9-1-5.1C7.5,40.3,6,42.4,6.1,44.1z"/>
		<path class="st2" d="M19.2,140.4l-0.1-0.1c0.2-1.4,0.1-3,2.3-3.7C21.6,138.5,20.4,139.4,19.2,140.4z"/>
		<path class="st2" d="M35.2,53c-1.3,0-2.7,0-4,0C32.5,50.6,33.9,50.3,35.2,53z"/>
		<path class="st2" d="M145.1,135.2c0.2-0.9,0.2-2,1.5-2.1c0.2,0,0.6,0.4,0.6,0.6C147.1,135,145.9,134.9,145.1,135.2L145.1,135.2z"
			/>
		<path class="st2" d="M21.3,16c1.2,1.6,1.3,3.1-0.3,4.5C20.4,19,20.3,17.5,21.3,16z"/>
		<path class="st2" d="M32,6.3c1.4,0.8,4,0,4,2.8C34.1,8.9,32.8,8,32,6.3z"/>
		<path class="st2" d="M17.2,39c1.3,1.4,1.4,2.7,0,4.1C16.2,41.7,16.5,40.4,17.2,39z"/>
		<path class="st2" d="M113.3,91.4c-0.8-0.5-1.3-1.3-1.3-2.3c0.9,0.1,2.1-0.3,2.5,0.9C114.6,90.4,113.7,91,113.3,91.4z"/>
		<path class="st2" d="M24.4,21.1c-0.4-1.8,0.1-3.2,1.7-4.2C26.1,18.6,26,20.1,24.4,21.1z"/>
		<path class="st2" d="M21,21.1c0.2,0.3,0.2,0.6-0.1,0.8c-1.3,0.1-2.5,0.1-3.8,0.2l0,0C18.1,20.6,19.4,20.5,21,21.1z"/>
		<path class="st2" d="M17.1,22.1c-0.4,0.4-0.9,0.9-1.3,1.3c-0.2-0.2-0.3-0.4-0.5-0.6C16,22.6,16.6,22.3,17.1,22.1L17.1,22.1z"/>
		<path class="st2" d="M24.1,148.1c-0.2,0.6-0.5,1.2-0.7,1.8c-0.2-0.2-0.4-0.3-0.6-0.5C23.2,149,23.7,148.5,24.1,148.1L24.1,148.1z"
			/>
		<path class="st2" d="M28.1,150.6c-0.2-0.2-0.4-0.4-0.6-0.5c0.2-0.2,0.4-0.4,0.6-0.6c0.2,0.2,0.5,0.4,0.5,0.5
			C28.5,150.2,28.3,150.4,28.1,150.6z"/>
		<path class="st2" d="M48.1,56.2c-0.9-0.4-1.8-0.8-2.7-1.2C46.9,54,47.9,54.3,48.1,56.2z"/>
		<polygon class="st2" points="28.2,146.3 27.9,146.1 28.3,145.9 		"/>
		<path class="st2" d="M27.3,13.1c0.1-0.7,0.1-1.5,0.2-2.2C28.4,11.7,28.4,12.4,27.3,13.1z"/>
		<polygon class="st2" points="147.9,94.1 148.2,93.9 148.3,94.2 		"/>
		<path class="st2" d="M103.7,122.9c0.5-0.6,0.9-1.3,1.4-1.9C105.6,122.4,104.7,122.7,103.7,122.9z"/>
		<path class="st2" d="M95,108.1c0.2,0.3,0.3,0.6,0.3,0.9c-0.4,0-0.8-0.1-1.2-0.1C94.4,108.6,94.7,108.3,95,108.1z"/>
		<path class="st2" d="M95.2,109c1.2,1.1,1.3,2.1-0.1,3.1C95.2,111,95.2,110,95.2,109z"/>
		<path class="st2" d="M111.1,87.2c-0.8-0.5-0.9-1.3-0.8-2.1C111.3,85.5,111.4,86.3,111.1,87.2z"/>
		<path class="st2" d="M46.5,152.2c-0.1,0.6-0.1,1.2-0.2,1.7c-0.2,0.1-0.3,0.2-0.5,0.3c-0.2,0-0.5-0.1-0.7-0.1l0,0
			C45.6,153.4,46,152.8,46.5,152.2z"/>
		<path class="st2" d="M17.1,5.1c0.9,0.3,1,1.1,0.9,1.9C17.7,6.4,17.4,5.8,17.1,5.1z"/>
		<path class="st2" d="M21.4,43.1c0.4-0.7,0.7-1.3,1.1-2C22.1,41.8,21.8,42.4,21.4,43.1z"/>
		<path class="st2" d="M154.1,88.4c1.1,0.2,0.9,0.9,0.9,1.7C154.7,89.5,154.4,88.9,154.1,88.4z"/>
		<path class="st2" d="M127.1,81.3c1,0.2,1.5,0.8,1.8,1.7C128.3,82.5,127.7,81.9,127.1,81.3z"/>
		<path class="st2" d="M120.1,93.1c-0.1,0.1-0.2,0.2-0.3,0.3C119.9,93.3,120,93.2,120.1,93.1L120.1,93.1z"/>
		<path class="st2" d="M171.1,65c-0.8,0.1-1.6,0-2.1-0.8C169.7,64.4,170.4,64.7,171.1,65z"/>
		<path class="st2" d="M150.9,89c0.4-0.2,0.8-0.4,1.2-0.7C151.7,88.6,151.3,88.8,150.9,89z"/>
		<path class="st2" d="M142.9,91c0.4-0.2,0.8-0.5,1.2-0.7C143.7,90.6,143.3,90.8,142.9,91z"/>
		<path class="st2" d="M32.2,26c0.3,0.4,0.7,0.7,1,1.1C32.9,26.7,32.5,26.4,32.2,26z"/>
		<polygon class="st2" points="22.3,39.9 22.3,39.5 22.5,39.7 		"/>
		<path class="st2" d="M44.1,43.1L44.1,43.1L44.1,43.1z"/>
		<path class="st2" d="M44.1,154.1L44.1,154.1L44.1,154.1z"/>
		<path class="st2" d="M44.2,43.1L44.2,43.1L44.2,43.1z"/>
		<path class="st2" d="M25.2,148.1L25.2,148.1L25.2,148.1z"/>
		<path class="st2" d="M165.2,95.1L165.2,95.1L165.2,95.1z"/>
		<path class="st2" d="M24.1,148.1c0.3,0,0.7,0,1,0l0,0C24.8,148.1,24.5,148.1,24.1,148.1L24.1,148.1z"/>
		<path class="st2" d="M22.3,37.1c0-0.3,0-0.7,0-1C22.3,36.4,22.3,36.7,22.3,37.1z"/>
		<path class="st2" d="M34,30.1c0.2,0.3,0.3,0.6,0.3,0.9C34.2,30.7,34.1,30.4,34,30.1z"/>
		<path class="st2" d="M22.3,34.1c0-0.3,0-0.7,0-1C22.3,33.4,22.3,33.7,22.3,34.1z"/>
		<path class="st2" d="M142.1,133.3c-0.9-0.5-0.9-0.9,0-1.3C142.1,132.4,142.1,132.9,142.1,133.3z"/>
		<path class="st2" d="M7.1,45.3c-0.3-0.4-0.6-0.8-1-1.2C6.4,44.5,6.7,44.9,7.1,45.3z"/>
		<path class="st2" d="M31.2,21.1c-0.3,0.4-0.7,0.8-1,1.2C30.6,21.9,30.9,21.5,31.2,21.1z"/>
		<path class="st2" d="M99.2,119.1c0.4,0.3,0.7,0.7,1.1,1C99.9,119.7,99.5,119.4,99.2,119.1z"/>
		<path class="st2" d="M172.5,55.1c-0.7,1.1-1,2-1.6,2.3c-0.9,0.6-1.6-0.5-1.9-1c-3.8-6.9-10.3-12-12.6-19.8c-0.3-1-0.6-2,0.2-2.8
			c1.1-1.1,2.8-0.1,3.1,0.4C164.1,41.2,168.3,48.2,172.5,55.1z"/>
		<path class="st0" d="M9.3,17.1c0,0.6,0,1.3,0,1.9C9.3,18.4,9.3,17.8,9.3,17.1z"/>
		<path class="st0" d="M110,75.5c0,0,0,0.1,0.1,0.1C110.1,75.7,110,75.5,110,75.5z"/>
		<path class="st0" d="M45.2,154.1c0.2,0,0.5,0.1,0.7,0.1c0,0-0.4,0.1-0.4,0.1L45.2,154.1z"/>
	</g>
	<g>
		<path class="st0" d="M220.8,156.1c0-6.3,0-12.7,0-19c3.1-1,4.1-3.9,4.5-6.3c0.3-1.6-2.1-3.5-4.5-3.7c0-1.3,0-2.7,0-4
			c3.7-6,2.2-12,0-18c0-15.7,0-31.3,0-47c6.8-2.6,13.7-2.1,20.8-1.1c2.8,0.4,5.1,2,8,2.2c8.7,0.6,17.6-2.1,26,1.8
			c0.4,0.2,1,0.2,1.5,0.2c1.1,0,2.1-0.5,2.2-1.6c0.2-1.5-1.1-1.4-2-1.4c-3,0-5.8-0.5-8.5-1.9c-0.2-1.9-1.2-2.3-2.7-1.2
			c-3.6,0.4-7-0.2-10.2-2c-1.3-2.7-2.6-2.3-4,0c-5.4-0.6-10.6-2.5-16.1-1.9c-4.2,0.5-7-1.5-8-5.8c-0.3-0.4-0.6-0.8-1-1.2l0,0
			c-0.1-1.7,1.4-3.8-1-5.1c0.1-0.7,0.1-1.3,0.2-2c1.4-0.7,2.4-1.8,1.6-3.5c-0.4-1-1.5-1.3-2.4-1.2c-2.2,0.3-2.2,2-2.3,3.6
			c-0.4,1-1.2,0.9-2,1c0-2.7,0-5.3,0-8c1.6-0.3,4.1,0.6,4.1-2.1c0.1-2.5-1.7-3.7-4.1-3.9c0-0.7,0-1.3,0-2c1.1-0.4,2.1-0.7,3.2-1.1
			c1.7,1.5,4,2.6,4.8,4.9c0.3,1.3,0.4,2.9,2.3,2.1c2-0.9,1.2-2.6,0.6-4.2c0-0.5,0-1-0.1-1.4c1-2.3,1.3-4.3-1.6-5.3
			c-0.6-3.7,0.3-7.1,2.1-10.3c1.6,0,3-0.5,4.2-1.7c0.5,0.3,1,0.7,1.5,1c0.3,0.6,0.6,1.3,0.9,1.9c1.2,3,2.9,5.7,3.3,9
			c-0.9,1.5-0.9,3-0.3,4.5c0.1,0.2,0.1,0.3,0,0.5c-1.5-0.6-2.9-0.5-3.8,1c-0.6,0.2-1.2,0.5-1.8,0.7c0.2,0.2,0.3,0.4,0.5,0.6
			c0.4-0.4,0.9-0.9,1.3-1.3c1.3-0.1,2.5-0.1,3.8-0.2c-1.7,5.6-1.5,11.6-3.7,17.1c-0.6,1.4-1,2.7,0,4.1c0.5,1.1,0.9,2.7,2.4,2.6
			c1.1-0.1,1.5-1.5,1.8-2.6c0.4-0.7,0.8-1.3,1.1-2c-0.1-0.4-0.1-0.8-0.2-1.2l0.2-0.2l-0.2-0.2c0-0.8,0-1.6,0-2.4c0-0.3,0-0.7,0-1
			c0-0.7,0-1.3,0-2c0-0.3,0-0.7,0-1c-0.4-4.2-0.6-8.3,2.1-12c1.6-1,1.7-2.5,1.7-4.2c0.4-1.3,0.8-2.6,1.2-3.8
			c1.1-0.7,1.1-1.4,0.2-2.2c0.9-2.1,1.6-4.4,4.5-4.6c0.8,1.7,2.1,2.6,4,2.8c1.8,5.3-3.1,8-4.7,12c-0.3,0.4-0.7,0.8-1,1.2
			c-0.3,1.7,1.4,2.4,1.9,3.7c0.3,0.4,0.7,0.7,1,1.1c1.2,0.8,0.9,1.9,0.8,3c0.1,0.3,0.2,0.6,0.3,0.9c0.4,1.7-0.1,4.5,2.4,4.5
			c2.6-0.1,2.3-2.7,2.4-4.7c0-0.7-0.1-1.3,0-2c0.1-1-0.4-2.6,1.5-2.5c1.6,0.1,0.6,1.5,0.8,2.3c1,2.8,0.1,6,2.3,8.9
			c0.8-4.1,3.2-5.2,6-2.4c3.3,3.3,6.8,4.8,11.4,4.1c1-0.1,2.1,1,3.1,1.4c9.1,2.8,16.9,8.6,26.8,9.8c10.6,1.3,14.6,8.5,12.3,19
			c-0.6,2.6-0.6,5.3-0.1,7.9c1.8,8.6,3.7,17.1,5.6,25.7c-1.8-0.2-2.8-1.4-3.7-2.9c-1.6-2.8-2.5-5.7-2.8-8.9c-0.1-1.7-1.3-2.2-2.8-2
			c-0.9,0.1-1.8,0.8-1.1,1.6c2.9,3.3-0.4,6.3-0.3,9.4c-0.3,0.9-0.6,1.8-0.9,2.7c-1.4,0.7-2.7,1.4-2.1,3.3c-0.1,0.6-0.2,1.1-0.3,1.7
			c-0.3,0.3-0.6,0.5-0.9,0.8c0.4,0,0.8,0.1,1.2,0.1l0,0c0,1-0.1,2.1-0.1,3.1c-0.7,0.7-1.4,1.3-2.1,2c-1.5,0.1-3.1,0.2-2.9,2.4
			c0.1,1.2,0.4,2.4,1.6,2.8c1.9,0.6,2.1-1,2.4-2.3c1.7,0.7,3.3,1.4,5,2.1c0.4,0.3,0.7,0.7,1.1,1c1.3,0.8,1.4,3,3.5,2.9
			c1.1-0.2,1.9-0.5,1.4-1.9c0.5-1.9-0.9-2.8-2-3.8c0.4-3,4.5-6.1-0.2-8.9l0,0c1.7-2,3.4-3.8,6.4-3.2c1.2,1.2,1,3.4,2.9,4.2
			c3.1,2.8,3.1,2.8,7-1.9c-1.2-0.9-2.6-0.2-3.8-0.3c-0.8-3,2-6,0.1-9c1.7-2.5,2.5-4.8-1.5-6c-0.4-0.1-0.5-0.3-0.6-0.7
			c0.4-0.5,1.2-1.1,1.1-1.4c-0.4-1.2-1.6-0.8-2.5-0.9c-0.3-0.6-0.6-1.3-0.9-1.9c0.3-0.9,0.3-1.7-0.8-2.1c-0.2-3.1-2.7-6.2-0.3-9.4
			c3.7,2.1,7.7,2.8,12,2.1c-1.7,5-1.7,5.1,0.2,7.6c0.9,1.2,1.8,3,3.5,2.1c2.2-1.1,0.3-2.5-0.3-3.7c-0.6-1.2-0.3-2.2,0.1-3.4
			c0.6,0.3,1.2,0.6,1.7,0.9c0.6,0.6,1.2,1.2,1.8,1.7c0.7,1.3,0.6,3.1,2.2,3.9c2.3-0.7,3.3-4,6.4-3.2c0.2-0.9,0.4-1.9,0.6-2.8
			c-0.8-2.2-0.7-4.2,1.2-5.8c2.1,1,1.8,3.7,3.2,5.1c-0.2,1.6-0.3,3.2-0.5,4.8c-1.8,0.3-3.7,1-3.8,3.1c-0.2,2.1,1.7,2.4,3.3,2.8
			c0.5,0,1,0,1.5,0c0.4-0.2,0.8-0.5,1.2-0.7c2.3-0.3,4.6-0.3,6.8-1.3c0.4-0.2,0.8-0.4,1.2-0.7c0.7,0,1.3,0,2,0
			c0.3,0.6,0.6,1.1,0.9,1.7c1.4,0.7,2.8,1.4,4.2,2.1c0.7,3.7,3.4,3.2,6,2.9l0,0c0.3-1.1,0.7-2.2,1-3.3c0.9,0.1,1.8,0.1,2.6,0.2
			c1.9,0.1,3.7-0.1,5.5-0.9c5.6-9.5,4.6-18.2-3.1-26.1c-0.7-0.3-1.4-0.5-2.1-0.8l0.1,0c0-0.6,0-1.3,0.1-1.9c3.5-1,6.5-3.1,10.1-3.8
			c3.3-0.7,5.9-3.1,6.5-6.2c1.5-8,4-15.8,5.8-23.4c3.1-0.2,5.4,2.6,8.5,2.3c0,4,0,8,0,12c-2.2,1.2-3,3.3-4.1,5.4
			c-2.6,5.3-2.2,11.3-4.9,16.7c-2.1,4.2-0.2,9.6-3.5,13.8c-0.7,0.9,0.6,2,0.9,1.9c2.9-1.5,3.1,1.6,4.5,2.6c0.8,0.6,2.1,1.5,2.5,1.3
			c0.9-0.6,1.6-1.9,1.2-3c-1.2-2.8,0-5.5,0.2-8.2c0.3-3.8,0.8-7.7-0.4-11.4c-1.2-3.5-0.1-5.4,3.5-5.9c0,35.7,0,71.3,0,107
			c-1.8-0.6-3.6-1.2-5.4-1.8c-1.4-0.4-2.7-1.5-4.3-1c-1.8,1.3-3.6,2.7-6,3.3c1.1,1.4,1.9,2.4,2.7,3.4c-1.1,2.2,1.3,2.8,2.1,4.1
			c2.8,5,2.7,5.5-2.8,7.2c-0.9,0.3-1.2,1-1.3,1.9c-2,0-4,0-6,0c-0.1-1.3,0.1-2.9-1.8-2.9c-3.6-0.1-7.3-0.1-10.9,0.1
			c-1.5,0.1-2.1,1.4-2.2,2.9c-4,0-8,0-12,0c-0.6-5.5,2.4-10.7,2-16.2c-0.5-7.2,2-12.3,9.3-14.4c1.7-0.5,2.4-2.1,2.5-3.4
			c0.2-6,0.2-12,0.2-17.9c0-1.9-1.3-2.2-2.7-1.9c-1.1,0.3-3.3,0.3-2.5,2c1.9,4.1,0.2,8.1,0.6,12.1c0.3,3.7-0.6,3.8-3.7,3.2
			c-4.9-1-12.2,4.6-11.5,8.8c1.7,9.3,0.4,18.6,0.9,27.8c-42,0-84,0-126,0c0.1-10.2-3.3-19.9-3.8-30c1.9-0.4,4-0.6,2.1-3.4
			c3-2.2,1.4-4.3-0.2-6.4c1.2-0.9,2.3-1.9,2.3-3.8c-2.2,0.7-2.1,2.3-2.3,3.7c-1.2,3.9-3.6,5.4-7.9,5c-4.2-0.4-6.7,2.5-7.1,6.6
			C224.6,154.7,223.9,156.3,220.8,156.1z M245.8,148.1c-0.3,0-0.7,0-1,0c-0.4,0.4-0.9,0.9-1.3,1.3c0.2,0.2,0.4,0.3,0.6,0.5
			c0.2-0.6,0.5-1.2,0.7-1.8C245.1,148.1,245.4,148.1,245.8,148.1L245.8,148.1z M264.8,43.1L264.8,43.1L264.8,43.1z M340.8,93.1
			c1.5-0.3,2.9-0.7,2.3-2.7c-0.1-0.3-0.8-0.8-1.1-0.7C339.8,90.1,341,91.9,340.8,93.1c-0.1,0.1-0.2,0.2-0.3,0.3
			C340.5,93.3,340.7,93.2,340.8,93.1z M267.1,152.2c-0.5,0.6-0.9,1.2-1.4,1.9c-0.3,0-0.7,0-1,0l0,0c0.5,2.5,1.4,4.6,4.4,4.5
			c2.8-0.1,2.8-2.3,2.8-4.3c1.4-1.8,3-3.4,4.2-5.3c0.8-1.3,0.8-2.9-0.1-4.2c-1-1.5-1.9-0.1-2.9,0.2c-0.8,0.3-1.1-0.5-1.4-1
			c3.3-5.6-3.2-6.8-4.3-10.5c-3.3,2.4-2.1,4.3,0.2,6c1.7,1.3,2.9,2.1,0.1,3.8c-2.9,1.7-0.9,2.5,1.1,2.9c0.1,1.2,0.1,2.3,0.2,3.5
			C268.8,150.7,268.7,151.9,267.1,152.2z M365.7,135.2c-1.3-0.1-2.7-0.1-3-1.9c0-0.4,0-0.9,0-1.3c6.1-3.5,8.6-11.6,16.6-12.3
			c-0.9-8.8-8-12.1-14.2-5.6c-0.7,0.8-2.3,1.8-3,1.5c-5.6-2.5-12,3.6-17.6-3c1.9,7.4,3.5,13.6,9.9,16.9c1.5,0.8,2.5,2.5,3.4,4.2
			C359.7,137.2,362.6,137.1,365.7,135.2c0.9-0.3,2-0.2,2.1-1.5c0-0.2-0.4-0.6-0.6-0.6C365.9,133.2,365.9,134.3,365.7,135.2z
			 M249.8,102.2c0-2.6,0-5.2-2.1-7.3c1.6-3.5,4.3-6.6,2.2-11c-0.6-1.2,0.6-3.7,2.5-3.7c3.4,0.1,5.6-2.4,8.7-3
			c0.9-0.1,2.8,0.1,2.1-1.8c-0.5-1.4-1.6-1-2.9-0.7c-2.2,0.5-3.4,3.7-5.9,2.4c-2.4-1.3-1.5-4.5-2.9-6.7c-0.9-1.3-1-3.1-1.7-4.6
			c-0.5-1-1.5-1.9-2.8-1.7c-1.3,0.2-2.1,1.1-2.2,2.3c-0.2,5.2-2.8,10.4,0.3,15.5c0.4,0.6,0.6,2,0.3,2.3c-5.4,4.4-2.1,10.1-2.6,15.3
			c-0.2,2.6,0.6,5,2.1,7c3,3.8,2.5,7.6,0.5,11.5c-0.8,1.5-2,2.9-0.8,4.5c1.7,2.1,1.7,4.3,1.3,6.9c-0.4,2.5,1.1,3.5,3.6,3.6
			c2.3,0.1,3.2-0.7,3.4-3.1c0.5-6.7-0.5-13.3-1.7-19.9C250.7,107.5,252,104.5,249.8,102.2z M275.7,91.6c0.2,3.6-1.1,6.6,3.7,6
			c3.5-0.4,3.4-2.4,3.4-4.7c0-7,0.4-13.8,8.5-16.8c0.8-0.3,1.4-0.8,2.2-1.1c1.6-0.7,2-2.5,1.7-3.7c-0.4-1.8-1.9-0.3-2.9-0.3
			c-2.3,0.1-4.6,0.2-6.8-1.1c-1.7-1-3.4-2.4-5.6-1.7c-3.5,1-0.6,3.7-1.2,5.4c-0.1,0.3-0.1,0.7-0.3,1C275.4,80.4,279,87,275.7,91.6z
			 M342.6,173.1c3,0.4,5.1-2.7,8.3-3.3c1.5-0.3,2.5-1.8,1.4-3.5c-1-1.5-2.6-1.7-3.8-0.2c-2.2,2.8-4,2.7-6.4,0.1
			c-1.6-1.8-4-1.9-5.6,0.2C335.5,167.5,340.5,173,342.6,173.1z M401.2,130c4.3-0.9,3-5.3,5.1-7.4c0.2-0.2-0.7-1.6-1.7-1
			c-1.9,1.1-5.8-0.7-5.6,3.2C399.2,126.4,398.9,129.1,401.2,130z M283.1,161.5c-0.6-1.3-0.1-3.8-2.7-3.9c-1.6-0.1-2.4,1.1-2.3,2.7
			c0.2,2,1.5,3.4,3.4,3.8C283.3,164.4,283.1,162.9,283.1,161.5z M268.4,90.9c-0.8-1.7-1.8-2.7-3.8-2.8c-1.7,0-3,0.3-2.8,2.4
			c0.1,1.1-0.1,2.8,1.7,2C265.1,91.8,267.4,93,268.4,90.9z M266.2,50.6c1.6-0.1,2.2-1.1,2.4-2.5c0.1-0.8-0.1-2-1.1-1.6
			c-1.1,0.5-2,1.5-2.6,2.6C264.4,49.9,265.3,50.4,266.2,50.6z M248.7,150.6c0.2-0.2,0.4-0.4,0.5-0.6c0-0.1-0.3-0.3-0.5-0.5
			c-0.2,0.2-0.4,0.4-0.6,0.6C248.3,150.2,248.5,150.4,248.7,150.6z M248.8,146.3l0.1-0.3l-0.3,0.1L248.8,146.3z M368.6,94.1l0.3,0.1
			l-0.1-0.3L368.6,94.1z"/>
		<path class="st2" d="M294.8,0.1c-0.6,4.2-3.6,7.8-3.4,12.6c3.6-2.3,6.5-4.9,7.1-10.3c1.9,2.8,3.1,4.5,4.5,6.6
			c3.4-4.6,7.7-5,12.9-4.2c4.8,0.8,9.8,0.5,14.7,0.8c0.9,0,1.8,0.5,2.9,0.8c-2.1,2.6-4.6,3.2-7.3,2.4c-1.4-0.4-1.9-0.3-2.7,1.1
			c-0.9,1.8,0.2,2.2,1.3,3c1.9,1.3,3.8,2.3,5.4,4.1c1.5,1.7,3.6-0.1,5.2-1c1.2-0.7,2.4-1.4,3.6-0.2c1.1,1.1,0,2.1-0.4,3.1
			c-0.6,1.5-1.2,3.1-1.6,4.6c-0.8,2.9,0.1,4.4,3.2,3.2c1.2-0.4,2.4-1,3,0.2c1.5,2.6,2.8,5.1,6.4,4.6c0.2,0,0.9,1.2,0.8,1.6
			c-1.2,3.7-4,6.4-6.1,9.5c-0.6,0.8-1.6,0.2-2.1-0.4c-2.8-3.3-4.3-1.7-5.5,1.4c-0.5,1.2-1.3,2.3-2,3.5c-0.5,0.9-1,1.9-2.1,1.8
			c-1.5-0.1-1.7-1.2-1.9-2.5c-0.5-2.7-1.3-5.4-3.6-6.9c-3.5-2.2-2.2-4.2-0.6-6.6c0.4-0.5,1-0.9,1.3-1.5c1-1.8,5-2.6,3.4-4.6
			c-1.5-1.9-4.6,0.3-6.7,1.5c-2.4,1.4-4.5,3.4-6.7,5.1c-0.8,0.6-1.4,1.7-2.5,1.1c-1-0.6-0.9-1.9-0.6-2.7c1.3-4.3,0-6.8-4.5-8.3
			c-1.5-0.5-2.1-3.5-3.1-5.3c-0.6-1-1.1-2.1-2.6-1.9c-1.6,0.1-1.6,1.2-1.9,2.4c-1,3.9-7.1,7.5-10.8,6.4c-0.6-0.2-1.4-0.6-1.6-1.1
			c-3.1-7.6-7.9-15-4.5-23.8C288.8,0.1,291.8,0.1,294.8,0.1z"/>
		<path class="st2" d="M271.8,0.1c0,2.3,0.3,4.3,1.7,6.4c4.9,7.5,3.2,16.1,3.3,24.4c0,1.3-1.4,1.5-2.2,0.9c-1.6-1.2-3-1.7-4.7-0.3
			c-0.9,0.7-1.6-0.3-1.8-1c-1-3.7-2.9-7.2-2-11.5c1.3-6.2,0.5-12.8,2.7-19C269.8,0.1,270.8,0.1,271.8,0.1z"/>
		<path class="st2" d="M420.8,170.1c-1.3,0.5-2.8,2-3.8-0.1c-2.1-4-5.5-4-9.2-3.1c-0.8-1-1.6-2-2.7-3.4c2.4-0.6,4.2-2,6-3.3
			c-0.4,1.6-0.3,3.2,1.5,3.5c1.4,0.2,2.9-0.5,2.8-2.4c1.8,0.6,3.6,1.2,5.4,1.8C420.8,165.4,420.8,167.8,420.8,170.1z"/>
		<path class="st2" d="M220.8,163.1c3.9,0.4,4,3.9,3.6,6.1c-0.7,3.7-0.3,7.3-0.6,10.9c-1.7,0-3.4,0.7-3.1-2.5
			C221.1,172.8,220.8,167.9,220.8,163.1z"/>
		<path class="st2" d="M220.8,23.1c2.4,0.2,4.2,1.4,4.1,3.9c-0.1,2.7-2.5,1.8-4.1,2.1C220.8,27.1,220.8,25.1,220.8,23.1z"/>
		<path class="st2" d="M220.8,18.1c1.7-0.9,2.1-0.7,3.2,1.9c-1.1,0.4-2.1,0.7-3.2,1.1C220.8,20.1,220.8,19.1,220.8,18.1z"/>
		<path class="st2" d="M330.6,75.5c-1.9-1.4-2.6-3.4-2.8-5.5c-0.4-3.2,0.5-5,4.3-5c7.8,0.2,15.6-0.1,23.4,0.1
			c4.7,0.1,9.1-1.7,13.8-1c1.3,0.2,3.1-0.1,2.9,1.7c-0.2,1.5-1,3.5-3.2,2.8c-1.4-0.4-3.1-0.9-3.4,0.6c-0.5,2-0.7,4.7,0.1,6.4
			c2.2,4.3,2.5,4.1-2.6,4.6c-1.4-1.5-1.1-4.1-3.2-5.1c-0.5-1.4-0.6-3.3-2.8-2.5c-3.5,1.3-1,4.2-1.2,6.3c-0.2,1.8,0.4,3.5,2.8,2
			c-0.2,0.9-0.4,1.9-0.6,2.8c-3-0.7-4.1,2.5-6.4,3.2c1.5-2.1,1.9-5.2,0.8-6.5c-1.9-2.3,1.2-6.5-3.1-7.3c-1.9-0.3-4-0.2-6.2-0.4
			c1.1,2.6,3.5,1.8,4.8,2.6c0.6,2.4-4.2,2.1-2.1,5c-0.4,1.1-0.7,2.2-0.1,3.4c0.6,1.2,2.5,2.5,0.3,3.7c-1.7,0.9-2.6-0.9-3.5-2.1
			c-1.9-2.5-1.8-2.5-0.2-7.6c-4.3,0.7-8.3,0-12-2.1c0,0,0.1,0,0.1,0C330.7,75.6,330.7,75.5,330.6,75.5z"/>
		<path class="st2" d="M329.6,103.1c0.1,0.7,0.2,1.3,0.3,2c-3-0.6-4.7,1.3-6.4,3.2c-1.8-0.2-3.7-0.1-4.8-2c-1-1.7-1.9-0.4-2.8,0.1
			c-0.6-1.9,0.7-2.7,2.1-3.3c1.7,0.9,3.3,1.7,6,1.6c-1.5-2.3-2.5-4.2-5.1-4.3c-0.1-3.1,3.2-6.1,0.3-9.4c-0.7-0.8,0.2-1.5,1.1-1.6
			c1.5-0.2,2.7,0.3,2.8,2c0.3,3.2,1.1,6.1,2.8,8.9C326.8,101.7,327.8,102.9,329.6,103.1z"/>
		<path class="st2" d="M269,149.4c-0.1-1.2-0.1-2.3-0.2-3.5c1-0.7,2-1.4,3-2.1c0.3,0.6,0.6,1.3,1.4,1c1-0.3,1.9-1.7,2.9-0.2
			c0.9,1.3,1,2.9,0.1,4.2c-1.2,1.9-2.8,3.6-4.2,5.3l-0.3-0.3C271.6,151.9,271.8,149.8,269,149.4z"/>
		<path class="st2" d="M283.1,161.5c0,1.4,0.2,3-1.6,2.6c-1.9-0.4-3.2-1.8-3.4-3.8c-0.1-1.5,0.7-2.7,2.3-2.7
			C283,157.7,282.5,160.1,283.1,161.5z"/>
		<path class="st2" d="M379.8,92.2c1.1-0.2,2.3-0.1,3-1.3c2-3,3-0.9,4,0.8c-0.3,1.1-0.7,2.2-1,3.3l0,0
			C383.1,95.4,380.4,95.9,379.8,92.2z"/>
		<path class="st2" d="M323.7,117.2c-2.8-0.5-3.4-2-2.2-4.6c0.7-1.4,2.3-2.4,2-4.3C328.2,111.1,324.2,114.2,323.7,117.2z"/>
		<path class="st2" d="M249.8,102.2c-3.1,2-4,0.6-4.1-2.4c0-1.9,0.7-3.5,1.9-4.8C249.8,96.9,249.8,99.5,249.8,102.2z"/>
		<path class="st2" d="M271.9,154.2c0,2.1,0,4.2-2.8,4.3c-2.9,0.1-3.9-2-4.4-4.5l0,0c0.3,0,0.7,0,1,0l0,0l0.3,0.2l0.4-0.1
			c0.2-0.1,0.3-0.2,0.5-0.3c1.6,1.9,3.1,1.8,4.7,0L271.9,154.2z"/>
		<path class="st2" d="M389.7,64.2c-3.6,0-7.2,0-10.8,0c3.4-2.5,7.1-3,10.9-1.9C389.8,62.9,389.7,63.5,389.7,64.2z"/>
		<path class="st2" d="M332.8,109.2c1.4-0.2,2.5-0.9,3.1-2.2c1.3,0.1,2.6-0.7,3.8,0.3C335.9,112.1,335.9,112.1,332.8,109.2z"/>
		<path class="st2" d="M313.7,114.1c0.4,1,0.8,1.9,1.1,2.9c-0.3,1.3-0.5,2.8-2.4,2.3c-1.3-0.4-1.5-1.6-1.6-2.8
			C310.6,114.3,312.1,114.2,313.7,114.1z"/>
		<path class="st2" d="M225.9,37.1c-0.8-1.1-1.5-2.4-3.1-1c0.1-1.6,0.1-3.4,2.3-3.6c1-0.1,2,0.2,2.4,1.2
			C228.3,35.3,227.3,36.3,225.9,37.1z"/>
		<path class="st2" d="M266.2,50.6c-0.9-0.2-1.8-0.7-1.3-1.5c0.6-1.1,1.6-2.1,2.6-2.6c0.9-0.4,1.1,0.8,1.1,1.6
			C268.4,49.5,267.7,50.5,266.2,50.6z"/>
		<path class="st2" d="M362.6,85.1c0.3,2-1.4,3.8-0.5,5.9c-1.6-0.4-3.5-0.7-3.3-2.8C358.9,86.1,360.7,85.4,362.6,85.1z"/>
		<path class="st2" d="M389.4,92c1.2-1.2-1.4-3.4,0.4-3.7c1.8-0.3,4.2,0.2,5,2.8C393.1,91.8,391.3,92.1,389.4,92z"/>
		<path class="st2" d="M228.8,24.9c1.4,0,1.8-1.6,2.9-2.1c0.5,1.5,1.4,3.2-0.6,4.2C229.2,27.9,229,26.2,228.8,24.9z"/>
		<path class="st2" d="M340.8,93.1c0.2-1.2-1-3,1.2-3.5c0.3-0.1,1,0.4,1.1,0.7C343.7,92.4,342.2,92.8,340.8,93.1L340.8,93.1z"/>
		<path class="st2" d="M336,98.1c-0.5-2-1-4-1.5-6C338.5,93.2,337.7,95.5,336,98.1z"/>
		<path class="st2" d="M229.9,17.1c0-0.3,0-0.7,0-1c3,1,2.7,3.1,1.6,5.3c-1.1-0.4-1.9-1-1.7-2.4C229.9,18.4,229.9,17.8,229.9,17.1z"
			/>
		<path class="st2" d="M237.9,150.1c-0.3-1.7,0.8-2.6,2.1-3.4C241.9,149.5,239.8,149.7,237.9,150.1z"/>
		<path class="st2" d="M232.1,5.8c1-1.6,1-5.5,4.2-1.7C235.1,5.3,233.7,5.8,232.1,5.8z"/>
		<path class="st2" d="M226.7,44.1c-1-1.6-3.1-2.9-1-5.1C228.1,40.3,226.7,42.4,226.7,44.1z"/>
		<path class="st2" d="M239.9,140.4l-0.1-0.1c0.2-1.4,0.1-3,2.3-3.7C242.2,138.5,241,139.4,239.9,140.4z"/>
		<path class="st2" d="M255.8,53c-1.3,0-2.7,0-4,0C253.1,50.6,254.5,50.3,255.8,53z"/>
		<path class="st2" d="M365.7,135.2c0.2-0.9,0.2-2,1.5-2.1c0.2,0,0.6,0.4,0.6,0.6C367.7,135,366.6,134.9,365.7,135.2L365.7,135.2z"
			/>
		<path class="st2" d="M241.9,16c1.2,1.6,1.3,3.1-0.3,4.5C241,19,241,17.5,241.9,16z"/>
		<path class="st2" d="M252.6,6.3c1.4,0.8,4,0,4,2.8C254.7,8.9,253.4,8,252.6,6.3z"/>
		<path class="st2" d="M237.8,39c1.3,1.4,1.4,2.7,0,4.1C236.8,41.7,237.2,40.4,237.8,39z"/>
		<path class="st2" d="M334,91.4c-0.8-0.5-1.3-1.3-1.3-2.3c0.9,0.1,2.1-0.3,2.5,0.9C335.2,90.4,334.4,91,334,91.4z"/>
		<path class="st2" d="M245,21.1c-0.4-1.8,0.1-3.2,1.7-4.2C246.8,18.6,246.6,20.1,245,21.1z"/>
		<path class="st2" d="M241.6,21.1c0.2,0.3,0.2,0.6-0.1,0.8c-1.3,0.1-2.5,0.1-3.8,0.2l0,0C238.7,20.6,240.1,20.5,241.6,21.1z"/>
		<path class="st2" d="M237.8,22.1c-0.4,0.4-0.9,0.9-1.3,1.3c-0.2-0.2-0.3-0.4-0.5-0.6C236.6,22.6,237.2,22.3,237.8,22.1L237.8,22.1
			z"/>
		<path class="st2" d="M244.8,148.1c-0.2,0.6-0.5,1.2-0.7,1.8c-0.2-0.2-0.4-0.3-0.6-0.5C243.9,149,244.3,148.5,244.8,148.1
			L244.8,148.1z"/>
		<path class="st2" d="M248.7,150.6c-0.2-0.2-0.4-0.4-0.6-0.5c0.2-0.2,0.4-0.4,0.6-0.6c0.2,0.2,0.5,0.4,0.5,0.5
			C249.2,150.2,248.9,150.4,248.7,150.6z"/>
		<path class="st2" d="M268.7,56.2c-0.9-0.4-1.8-0.8-2.7-1.2C267.5,54,268.5,54.3,268.7,56.2z"/>
		<polygon class="st2" points="248.8,146.3 248.6,146.1 248.9,145.9 		"/>
		<path class="st2" d="M247.9,13.1c0.1-0.7,0.1-1.5,0.2-2.2C249,11.7,249,12.4,247.9,13.1z"/>
		<polygon class="st2" points="368.6,94.1 368.8,93.9 368.9,94.2 		"/>
		<path class="st2" d="M324.3,122.9c0.5-0.6,0.9-1.3,1.4-1.9C326.2,122.4,325.4,122.7,324.3,122.9z"/>
		<path class="st2" d="M315.6,108.1c0.2,0.3,0.3,0.6,0.3,0.9c-0.4,0-0.8-0.1-1.2-0.1C315,108.6,315.3,108.3,315.6,108.1z"/>
		<path class="st2" d="M315.8,109c1.2,1.1,1.3,2.1-0.1,3.1C315.8,111,315.8,110,315.8,109z"/>
		<path class="st2" d="M331.7,87.2c-0.8-0.5-0.9-1.3-0.8-2.1C332,85.5,332,86.3,331.7,87.2z"/>
		<path class="st2" d="M267.1,152.2c-0.1,0.6-0.1,1.2-0.2,1.7c-0.2,0.1-0.3,0.2-0.5,0.3c-0.2,0-0.5-0.1-0.7-0.1l0,0
			C266.2,153.4,266.7,152.8,267.1,152.2z"/>
		<path class="st2" d="M237.8,5.1c0.9,0.3,1,1.1,0.9,1.9C238.4,6.4,238.1,5.8,237.8,5.1z"/>
		<path class="st2" d="M242,43.1c0.4-0.7,0.7-1.3,1.1-2C242.8,41.8,242.4,42.4,242,43.1z"/>
		<path class="st2" d="M374.8,88.4c1.1,0.2,0.9,0.9,0.9,1.7C375.3,89.5,375.1,88.9,374.8,88.4z"/>
		<path class="st2" d="M347.8,81.3c1,0.2,1.5,0.8,1.8,1.7C348.9,82.5,348.3,81.9,347.8,81.3z"/>
		<path class="st2" d="M340.8,93.1c-0.1,0.1-0.2,0.2-0.3,0.3C340.5,93.3,340.7,93.2,340.8,93.1L340.8,93.1z"/>
		<path class="st2" d="M391.8,65c-0.8,0.1-1.6,0-2.1-0.8C390.4,64.4,391.1,64.7,391.8,65z"/>
		<path class="st2" d="M371.5,89c0.4-0.2,0.8-0.4,1.2-0.7C372.3,88.6,371.9,88.8,371.5,89z"/>
		<path class="st2" d="M363.6,91c0.4-0.2,0.8-0.5,1.2-0.7C364.4,90.6,364,90.8,363.6,91z"/>
		<path class="st2" d="M252.8,26c0.3,0.4,0.7,0.7,1,1.1C253.5,26.7,253.2,26.4,252.8,26z"/>
		<polygon class="st2" points="242.9,39.9 242.9,39.5 243.2,39.7 		"/>
		<path class="st2" d="M264.8,43.1L264.8,43.1L264.8,43.1z"/>
		<path class="st2" d="M264.8,154.1L264.8,154.1L264.8,154.1z"/>
		<path class="st2" d="M264.8,43.1L264.8,43.1L264.8,43.1z"/>
		<path class="st2" d="M245.8,148.1L245.8,148.1L245.8,148.1z"/>
		<path class="st2" d="M385.8,95.1L385.8,95.1L385.8,95.1z"/>
		<path class="st2" d="M244.8,148.1c0.3,0,0.7,0,1,0l0,0C245.4,148.1,245.1,148.1,244.8,148.1L244.8,148.1z"/>
		<path class="st2" d="M243,37.1c0-0.3,0-0.7,0-1C243,36.4,243,36.7,243,37.1z"/>
		<path class="st2" d="M254.6,30.1c0.2,0.3,0.3,0.6,0.3,0.9C254.9,30.7,254.8,30.4,254.6,30.1z"/>
		<path class="st2" d="M243,34.1c0-0.3,0-0.7,0-1C242.9,33.4,242.9,33.7,243,34.1z"/>
		<path class="st2" d="M362.7,133.3c-0.9-0.5-0.9-0.9,0-1.3C362.7,132.4,362.7,132.9,362.7,133.3z"/>
		<path class="st2" d="M227.7,45.3c-0.3-0.4-0.6-0.8-1-1.2C227.1,44.5,227.4,44.9,227.7,45.3z"/>
		<path class="st2" d="M251.8,21.1c-0.3,0.4-0.7,0.8-1,1.2C251.2,21.9,251.5,21.5,251.8,21.1z"/>
		<path class="st2" d="M319.8,119.1c0.4,0.3,0.7,0.7,1.1,1C320.5,119.7,320.1,119.4,319.8,119.1z"/>
		<path class="st2" d="M393.2,55.1c-0.7,1.1-1,2-1.6,2.3c-0.9,0.6-1.6-0.5-1.9-1c-3.8-6.9-10.3-12-12.6-19.8c-0.3-1-0.6-2,0.2-2.8
			c1.1-1.1,2.8-0.1,3.1,0.4C384.7,41.2,388.9,48.2,393.2,55.1z"/>
		<path class="st0" d="M229.9,17.1c0,0.6,0,1.3,0,1.9C229.9,18.4,229.9,17.8,229.9,17.1z"/>
		<path class="st0" d="M330.6,75.5c0,0,0,0.1,0.1,0.1C330.8,75.7,330.6,75.5,330.6,75.5z"/>
		<path class="st0" d="M265.8,154.1c0.2,0,0.5,0.1,0.7,0.1c0,0-0.4,0.1-0.4,0.1L265.8,154.1z"/>
	</g>
	<g>
		<path class="st1" d="M463.6,39.9c0.1,0.4,0.1,0.8,0.2,1.2c-0.4,0.7-0.8,1.3-1.1,2c-0.3,1.1-0.7,2.5-1.8,2.6
			c-1.5,0.1-1.8-1.4-2.4-2.6c1.4-1.4,1.3-2.7,0-4.1c2.2-5.5,2.1-11.5,3.7-17.1c0.2-0.3,0.3-0.5,0.1-0.8c0.1-0.2,0.1-0.3,0-0.5
			c1.6-1.4,1.5-2.9,0.3-4.5c-0.4-3.2-2.1-6-3.3-9c0.1-0.8,0.1-1.6-0.9-1.9c-0.5-0.3-1-0.7-1.5-1c-3.2-3.9-3.2,0.1-4.2,1.7
			c-1.8,3.2-2.7,6.6-2.1,10.3c0,0.3,0,0.7,0,1c0,0.6,0,1.3,0,1.9c-0.2,1.3,0.5,2,1.7,2.4c0,0.5,0,1,0.1,1.4c-1.1,0.5-1.5,2-2.9,2.1
			c-0.9-2.4-3.1-3.4-4.8-4.9c-1-2.6-1.5-2.9-3.2-1.9c0-5.2,0.1-10.3-0.1-15.5c-0.1-2.2,0.4-2.6,2.6-2.6c15.2,0.1,30.3,0.1,45.5,0.1
			c-2.2,6.2-1.4,12.7-2.7,19c-0.9,4.3,1,7.7,2,11.5c0.2,0.7,0.9,1.7,1.8,1c1.8-1.3,3.1-0.9,4.7,0.3c0.8,0.6,2.2,0.4,2.2-0.9
			c-0.1-8.3,1.6-16.9-3.3-24.4c-1.4-2.2-1.7-4.1-1.7-6.4c4.7,0,9.3,0,14,0c-3.3,8.9,1.5,16.2,4.5,23.8c0.2,0.5,1,0.9,1.6,1.1
			c3.8,1.1,9.8-2.4,10.8-6.4c0.3-1.2,0.3-2.3,1.9-2.4c1.5-0.1,2,0.9,2.6,1.9c1,1.8,1.6,4.8,3.1,5.3c4.5,1.5,5.7,4,4.5,8.3
			c-0.2,0.8-0.4,2.1,0.6,2.7c1.1,0.6,1.8-0.5,2.5-1.1c2.2-1.8,4.3-3.7,6.7-5.1c2-1.1,5.1-3.4,6.7-1.5c1.6,2-2.5,2.8-3.4,4.6
			c-0.3,0.6-1,0.9-1.3,1.5c-1.6,2.3-3,4.4,0.6,6.6c2.3,1.4,3.2,4.2,3.6,6.9c0.2,1.2,0.5,2.4,1.9,2.5c1.2,0.1,1.6-0.9,2.1-1.8
			c0.6-1.2,1.5-2.2,2-3.5c1.2-3.1,2.7-4.7,5.5-1.4c0.5,0.6,1.6,1.3,2.1,0.4c2.1-3.1,4.9-5.9,6.1-9.5c0.1-0.4-0.6-1.6-0.8-1.6
			c-3.6,0.5-4.9-2-6.4-4.6c-0.7-1.2-1.8-0.6-3-0.2c-3.1,1.1-4-0.4-3.2-3.2c0.4-1.6,1-3.1,1.6-4.6c0.4-1,1.6-2,0.4-3.1
			c-1.2-1.2-2.4-0.5-3.6,0.2c-1.6,1-3.7,2.7-5.2,1c-1.6-1.8-3.6-2.8-5.4-4.1c-1.1-0.8-2.1-1.2-1.3-3c0.7-1.4,1.3-1.5,2.7-1.1
			c2.7,0.8,5.1,0.1,7.3-2.4c-1.1-0.3-2-0.7-2.9-0.8c-4.9-0.3-9.9,0.1-14.7-0.8c-5.2-0.9-9.5-0.5-12.9,4.2c-1.4-2.1-2.6-3.8-4.5-6.6
			c-0.6,5.4-3.5,8-7.1,10.3c-0.3-4.8,2.8-8.4,3.4-12.6c40.8,0,81.7,0,122.5-0.1c3,0,3.7,0.6,3.6,3.6c-0.2,9.2-0.1,18.3-0.1,27.5
			c-3.2,0.3-5.4-2.5-8.5-2.3c-1.8,7.7-4.3,15.4-5.8,23.4c-0.6,3.1-3.2,5.5-6.5,6.2c-3.6,0.8-6.7,2.8-10.1,3.8
			c-3.8-1-7.5-0.5-10.9,1.9c3.6,0,7.2,0,10.8,0l-0.1,0c0.5,0.8,1.3,0.9,2.1,0.8c7.7,7.9,8.7,16.6,3.1,26.1c-0.8-2.5-3.2-3.1-5-2.8
			c-1.8,0.3,0.8,2.5-0.4,3.7c-0.9-0.1-1.8-0.1-2.6-0.2c-1-1.8-2-3.9-4-0.8c-0.8,1.2-1.9,1.1-3,1.3c-1.4-0.7-2.8-1.4-4.2-2.1
			c0.1-0.7,0.2-1.5-0.9-1.7c-0.7,0-1.3,0-2,0c-0.4,0.2-0.8,0.4-1.2,0.7c-2.1,1.1-4.5,1-6.8,1.3c-0.4,0.2-0.8,0.5-1.2,0.7
			c-0.5,0-1,0-1.5,0c-0.9-2.1,0.8-3.9,0.5-5.9c0.2-1.6,0.3-3.2,0.5-4.8c5.1-0.5,4.8-0.4,2.6-4.6c-0.9-1.7-0.6-4.3-0.1-6.4
			c0.3-1.5,2-1,3.4-0.6c2.2,0.7,3-1.3,3.2-2.8c0.2-1.8-1.6-1.6-2.9-1.7c-4.7-0.6-9.1,1.2-13.8,1c-7.8-0.2-15.6,0.1-23.4-0.1
			c-3.7-0.1-4.7,1.8-4.3,5c0.3,2.1,1,4.1,2.8,5.5l0.1,0.2l-0.1,0c-2.3,3.2,0.1,6.3,0.3,9.4c-0.2,0.9,0,1.6,0.8,2.1
			c0.3,0.6,0.6,1.3,0.9,1.9c0,1,0.5,1.8,1.3,2.3c0,0.4,0.2,0.6,0.6,0.7c0.5,2,1,4,1.5,6c2,3-0.8,6-0.1,9c-0.7,1.2-1.8,1.9-3.1,2.2
			c-1.8-0.8-1.7-3-2.9-4.2c-0.1-0.7-0.2-1.3-0.3-2c-1.9-8.6-3.8-17.1-5.6-25.7c-0.5-2.6-0.5-5.3,0.1-7.9c2.4-10.5-1.7-17.8-12.3-19
			c-9.9-1.2-17.8-7-26.8-9.8c-1.1-0.3-2.2-1.5-3.1-1.4c-4.6,0.7-8.1-0.8-11.4-4.1c-2.8-2.9-5.2-1.7-6,2.4c-2.1-2.9-1.3-6.1-2.3-8.9
			c-0.3-0.8,0.8-2.1-0.8-2.3c-1.9-0.2-1.4,1.4-1.5,2.5c-0.1,0.7,0,1.3,0,2c-0.1,2,0.1,4.6-2.4,4.7c-2.5,0.1-2-2.7-2.4-4.5
			c0-0.3-0.1-0.6-0.3-0.9c0.1-1.1,0.3-2.2-0.8-3c-0.3-0.4-0.7-0.7-1-1.1c-0.5-1.3-2.3-1.9-1.9-3.7c0.3-0.4,0.7-0.8,1-1.2
			c1.6-4,6.6-6.7,4.7-12c0-2.8-2.6-1.9-4-2.8c-2.9,0.1-3.6,2.4-4.5,4.6c-0.1,0.7-0.1,1.5-0.2,2.2c-0.4,1.3-0.8,2.6-1.2,3.8
			c-1.6,1-2.1,2.4-1.7,4.2c-2.7,3.7-2.5,7.8-2.1,12c0,0.3,0,0.7,0,1c0,0.7,0,1.3,0,2c0,0.3,0,0.7,0,1c0,0.8,0,1.6,0,2.4L463.6,39.9z
			 M613.8,55.1c-4.2-7-8.4-14-12.8-20.9c-0.3-0.5-2-1.5-3.1-0.4c-0.8,0.8-0.4,1.8-0.2,2.8c2.3,7.8,8.8,12.9,12.6,19.8
			c0.3,0.6,1,1.6,1.9,1C612.8,57.1,613.1,56.2,613.8,55.1z"/>
		<path class="st1" d="M460.5,140.4c1.6,2.1,3.2,4.1,0.2,6.4c-1.3,0.7-2.4,1.6-2.1,3.4c0.6,10.1,3.9,19.8,3.8,30c-6,0-12,0-18,0
			c0.3-3.6-0.1-7.2,0.6-10.9c0.4-2.2,0.3-5.7-3.6-6.1c0-2.3,0-4.7,0-7c3.1,0.2,3.9-1.4,4.1-4.2c0.3-4.1,2.8-7,7.1-6.6
			c4.3,0.4,6.7-1.1,7.9-5L460.5,140.4z"/>
		<path class="st1" d="M588.4,180.1c-0.5-9.3,0.8-18.5-0.9-27.8c-0.8-4.2,6.6-9.7,11.5-8.8c3.1,0.6,4.1,0.6,3.7-3.2
			c-0.4-4,1.3-8-0.6-12.1c-0.8-1.6,1.5-1.7,2.5-2c1.4-0.4,2.7,0,2.7,1.9c0,6,0,12-0.2,17.9c-0.1,1.3-0.8,2.9-2.5,3.4
			c-7.3,2.1-9.8,7.3-9.3,14.4c0.4,5.5-2.5,10.6-2,16.2C591.7,180.1,590.1,180.1,588.4,180.1z"/>
		<path class="st1" d="M446.5,37.1c-0.1,0.7-0.1,1.3-0.2,2c-2,2.2,0.1,3.5,1,5.1l0,0c0.3,0.4,0.6,0.8,1,1.2c0.9,4.3,3.7,6.2,8,5.8
			c5.6-0.6,10.8,1.3,16.1,1.9c1.3,0,2.7,0,4,0c3.2,1.9,6.6,2.5,10.2,2c0.9,0.4,1.8,0.8,2.7,1.2c2.7,1.4,5.5,1.9,8.5,1.9
			c0.9,0,2.2-0.1,2,1.4c-0.2,1-1.1,1.6-2.2,1.6c-0.5,0-1,0-1.5-0.2c-8.4-3.9-17.3-1.2-26-1.8c-2.9-0.2-5.2-1.8-8-2.2
			c-7.1-1-14-1.4-20.8,1.1c0-7,0-14,0-21c0.8-0.1,1.7,0,2-1C445,34.7,445.7,35.9,446.5,37.1z"/>
		<path class="st1" d="M641.4,56.1c-3.7,0.5-4.7,2.4-3.5,5.9c1.2,3.7,0.7,7.6,0.4,11.4c-0.2,2.8-1.4,5.4-0.2,8.2
			c0.5,1.1-0.3,2.4-1.2,3c-0.4,0.3-1.7-0.7-2.5-1.3c-1.4-1-1.5-4.1-4.5-2.6c-0.3,0.1-1.6-1-0.9-1.9c3.2-4.1,1.4-9.5,3.5-13.8
			c2.6-5.3,2.2-11.4,4.9-16.7c1.1-2.1,1.9-4.2,4.1-5.4C641.4,47.4,641.4,51.8,641.4,56.1z"/>
		<path class="st1" d="M626.4,180.1c0.1-0.8,0.4-1.6,1.3-1.9c5.4-1.7,5.5-2.1,2.8-7.2c-0.7-1.3-3.2-1.9-2.1-4.1
			c3.7-0.8,7.1-0.9,9.2,3.1c1.1,2,2.5,0.5,3.8,0.1c0,3.3,1.3,8-0.4,9.6s-6.3,0.4-9.6,0.4C629.7,180.1,628.1,180.1,626.4,180.1z"/>
		<path class="st1" d="M605.4,180.1c0.1-1.4,0.7-2.8,2.2-2.9c3.6-0.2,7.3-0.1,10.9-0.1c1.9,0,1.8,1.6,1.8,2.9
			C615.4,180.1,610.4,180.1,605.4,180.1z"/>
		<path class="st1" d="M441.4,127.1c2.4,0.2,4.7,2.1,4.5,3.7c-0.4,2.4-1.4,5.3-4.5,6.3C441.4,133.8,441.4,130.4,441.4,127.1z"/>
		<path class="st1" d="M441.4,105.1c2.2,6,3.7,12,0,18C441.4,117.1,441.4,111.1,441.4,105.1z"/>
		<path class="st1" d="M470.4,102.2c2.2,2.3,0.9,5.3,1.4,8c1.1,6.5,2.2,13.1,1.7,19.9c-0.2,2.4-1.1,3.2-3.4,3.1
			c-2.5-0.1-4-1.1-3.6-3.6c0.4-2.5,0.4-4.7-1.3-6.9c-1.3-1.6,0-3.1,0.8-4.5c2-3.9,2.5-7.7-0.5-11.5c-1.5-2-2.3-4.4-2.1-7
			c0.5-5.1-2.8-10.9,2.6-15.3c0.3-0.3,0.1-1.7-0.3-2.3c-3.1-5.1-0.5-10.4-0.3-15.5c0.1-1.3,0.9-2.2,2.2-2.3c1.3-0.2,2.3,0.7,2.8,1.7
			c0.7,1.4,0.8,3.2,1.7,4.6c1.4,2.1,0.4,5.4,2.9,6.7c2.4,1.3,3.7-1.9,5.9-2.4c1.3-0.3,2.4-0.6,2.9,0.7c0.7,2-1.2,1.7-2.1,1.8
			c-3.1,0.5-5.3,3-8.7,3c-1.9,0-3.1,2.4-2.5,3.7c2.1,4.4-0.7,7.5-2.2,11c-1.3,1.4-2,2.9-1.9,4.8
			C466.4,102.8,467.4,104.2,470.4,102.2z"/>
		<path class="st1" d="M583.3,133.3c0.3,1.8,1.7,1.7,3,1.9l0,0c-3.1,2-6,2-7.8-1.5c-0.9-1.7-1.9-3.4-3.4-4.2
			c-6.5-3.4-8-9.5-9.9-16.9c5.6,6.7,12,0.5,17.6,3c0.6,0.3,2.2-0.7,3-1.5c6.2-6.5,13.3-3.2,14.2,5.6c-8,0.7-10.5,8.9-16.6,12.3
			C582.4,132.4,582.4,132.8,583.3,133.3z"/>
		<path class="st1" d="M496.3,91.6c3.3-4.5-0.3-11.2,2.7-16.9c0.2-0.3,0.2-0.6,0.3-1c0.6-1.8-2.3-4.4,1.2-5.4
			c2.1-0.6,3.8,0.8,5.6,1.7c2.2,1.2,4.5,1.1,6.8,1.1c1,0,2.5-1.5,2.9,0.3c0.3,1.2,0,2.9-1.7,3.7c-0.7,0.3-1.4,0.9-2.2,1.1
			c-8.1,2.9-8.5,9.7-8.5,16.8c0,2.3,0.1,4.3-3.4,4.7C495.3,98.1,496.5,95.1,496.3,91.6z"/>
		<path class="st1" d="M536.5,106.4c0.9-0.5,1.9-1.8,2.8-0.1c1.1,1.9,3,1.9,4.8,2l0,0c0.3,1.9-1.4,2.9-2,4.3
			c-1.2,2.6-0.6,4.1,2.2,4.6c1.1,1.1,2.5,2,2,3.8c-0.5,0.6-0.9,1.3-1.4,1.9c-2,0.1-2.2-2.1-3.5-2.9c-0.4-0.3-0.7-0.7-1.1-1
			c-1.7-0.7-3.3-1.4-5-2.1c-0.4-1-0.8-1.9-1.1-2.9c0.7-0.7,1.4-1.3,2.1-2c1.4-1,1.3-2,0.1-3.1l0,0c0-0.3-0.1-0.6-0.3-0.9
			C536.3,107.5,536.4,106.9,536.5,106.4z"/>
		<path class="st1" d="M563.2,173.1c-2.2-0.1-7.1-5.6-6.2-6.7c1.6-2.1,4-1.9,5.6-0.2c2.4,2.6,4.2,2.7,6.4-0.1
			c1.2-1.5,2.7-1.3,3.8,0.2c1.1,1.7,0.2,3.2-1.4,3.5C568.4,170.4,566.3,173.5,563.2,173.1z"/>
		<path class="st1" d="M566.6,80.4c-2.2-3,2.7-2.6,2.1-5c-1.3-0.8-3.7,0-4.8-2.6c2.2,0.1,4.2,0,6.2,0.4c4.4,0.7,1.3,5,3.1,7.3
			c1.1,1.3,0.7,4.5-0.8,6.5c-1.6-0.8-1.5-2.6-2.2-3.9c-0.2-1-0.8-1.5-1.8-1.7C567.8,81,567.2,80.7,566.6,80.4z"/>
		<path class="st1" d="M492.3,143.9c-1,0.7-2,1.4-3,2.1c-1.9-0.4-4-1.1-1.1-2.9c2.8-1.7,1.6-2.5-0.1-3.8c-2.3-1.7-3.5-3.5-0.2-6
			C489.1,137.1,495.6,138.3,492.3,143.9z"/>
		<path class="st1" d="M621.8,130c-2.3-0.9-2-3.6-2.1-5.2c-0.2-3.8,3.7-2.1,5.6-3.2c1-0.6,1.9,0.8,1.7,1
			C624.9,124.7,626.1,129.1,621.8,130z"/>
		<path class="st1" d="M579.3,80.9c-2.4,1.5-3.1-0.2-2.8-2c0.3-2.1-2.3-5,1.2-6.3c2.1-0.8,2.3,1.1,2.8,2.5
			C578.7,76.7,578.6,78.7,579.3,80.9z"/>
		<path class="st1" d="M489.1,90.9c-1.1,2.2-3.3,0.9-4.9,1.6c-1.8,0.8-1.7-0.9-1.7-2c-0.2-2.1,1.1-2.4,2.8-2.4
			C487.2,88.1,488.3,89.2,489.1,90.9z"/>
		<path class="st1" d="M492.3,154c-1.6,1.8-3.1,1.8-4.7,0c0.1-0.6,0.1-1.2,0.2-1.7c1.5-0.3,1.7-1.5,1.8-2.8
			C492.5,149.8,492.2,151.9,492.3,154z"/>
		<path class="st1" d="M539.5,100.3c2.6,0.1,3.6,2,5.1,4.3c-2.7,0.1-4.3-0.7-6-1.6C538.9,102.1,539.2,101.2,539.5,100.3z"/>
		<path class="st1" d="M636,161.3c0,2-1.4,2.7-2.8,2.4c-1.8-0.3-1.9-1.9-1.5-3.5C633.4,159.8,634.6,160.9,636,161.3z"/>
	</g>
</g>
<g>
</g>
<g>
</g>
<g>
</g>
<g>
</g>
<g>
</g>
<g>
</g>
<g>
</g>
<g>
</g>
<g>
</g>
<g>
</g>
<g>
</g>
<g>
</g>
<g>
</g>
<g>
</g>
<g>
</g>
</svg>
