<?xml version="1.0" encoding="utf-8"?>
<!-- Generator: Adobe Illustrator 17.1.0, SVG Export Plug-In . SVG Version: 6.00 Build 0)  -->
<!DOCTYPE svg PUBLIC "-//W3C//DTD SVG 1.1//EN" "http://www.w3.org/Graphics/SVG/1.1/DTD/svg11.dtd">
<svg version="1.1" id="Layer_1" xmlns="http://www.w3.org/2000/svg" xmlns:xlink="http://www.w3.org/1999/xlink" x="0px" y="0px"
	 viewBox="0 0 642.6 210.4" style="enable-background:new 0 0 642.6 210.4;" xml:space="preserve">
<style type="text/css">
	.st0{fill:#F90101;}
	.st1{fill:#080203;}
</style>
<g>
	<g>
		<path class="st0" d="M136.1,198.9c10,1.1,20,2.3,30,3.1c5.7,0.4,6.5-0.9,5.2-6.4c-1.2-5.1,1-9.9,0.9-14.8c0-1.9,1.8-1.9,3-1.6
			c2.1,0.4,4.2,0.9,6.2,1.7c6.6,2.6,8.1,2.3,11.7-3.2c2.6,2.3,2.9,4.9,2,8.3c-2,7.9-0.7,16.1-1,24.1c-6.3,0-12.7,0-19,0
			c-2.8-3.1-5.2-6.9-10.3-6.1c-1.6,0.2-3.3-0.5-4.9-0.5c-11.1-0.2-22.1-2.3-33.6-1.3c2.1,3.1,4.1,5.2,7.9,4.9
			c1.7-0.1,3.7,0.4,3.9,2.9c-16.7,0-33.3,0-50,0c-0.7-1.5-1.3-1.5-2,0c-5.3,0-10.7,0-16,0c0.9-2.8-1.5-2.8-3-3.5
			c-2.2-1-4.7,0.1-6.9-0.7c-4.3-1.6-5.8,0.2-6.1,4.2c-2,0-4,0-6,0c1.2-1.2-0.1-1.5-0.8-2.1c-0.4-0.6-0.8-1.3-1.2-1.9
			c-0.3-0.4-0.6-0.8-0.9-1.2c-0.1-1.6-0.2-3.2-0.4-4.7c-0.2-0.4-0.4-0.7-0.6-1.1c-1.4-5.2-3.1-10.4-0.9-15.9
			c4.4-3.7,2.4-9.2,3.6-13.9c0.7-2.8,1.5-4.2,4.1-2.5c3.5,2.2,3.9,0.1,4.2-2.5c3.2,2.9,3,6.7,3,10.5c-0.9,0.6-1,1.4-0.8,2.3
			c-0.8,2.5,0.9,4.6,1,7c-0.3,2.4-2.5,5.4,2,6.4c3.4,1.8,7.1,1.8,10.8,1.4c0.3,0,0.7,0,1,0c4,2.2,8.5,1.4,12.6,1.6
			c9.5,0.5,18.9,1.9,28.4,2.4c0.6,0.1,1.3,0.2,1.9,0.3c4.7,0.6,9.4,1.3,14,1.9c0.4,1,1.2,0.9,2,0.7c0.7,0,1.3-0.1,2-0.1
			C134.1,198.9,135.1,198.9,136.1,198.9z M189.2,193.8c-0.2-3.3,0.3-6.4-3.5-6.7c-4-0.3-3.9,2.7-4.4,5.5c-0.6,3.5,2,6.4,1.4,10.1
			c-0.2,1.3,1.9,2.7,3.8,2.3c2.5-0.6,1.5-2.2,0.5-3.4c-1.1-1.3,0.4-1.5,0.7-2.2C188.5,197.4,189.5,195.4,189.2,193.8z M64.3,201.1
			C64.3,201.1,64.3,201.1,64.3,201.1c1.3,0,2.7,0,4,0c1.5,0,3.3,0.1,3.4-1.9c0.1-1.6-1.5-2.3-2.7-2.5c-3.2-0.7-6.4-1.1-9.7-1.5
			c-2-0.2-3.1,0.9-3.2,2.9c0,1.8,0.9,2.8,2.7,2.9C60.6,201.1,62.5,201.1,64.3,201.1z"/>
		<path class="st0" d="M34.2,177.3c0.5,0,1.1-0.1,1.6-0.1c2.4,3.1-1.1,5.9-0.5,8.9c-0.3,3.1-1.4,5.4-4.8,6.1
			c-1.7,0.3-2.6,1.6-2.3,3.3c1,4.9-0.7,9.8-0.1,14.6c-8.5,0-17-0.1-25.5,0.1c-2.2,0-2.6-0.4-2.6-2.6c0.2-6.5,0.1-13,0.1-19.5
			c2.5-0.3,5.1-0.6,7.3-2c4.5-0.9,8.9-1.7,13.4-2.6c2.8-0.4,3.9-3.4,6.3-4.3l0.3,0.3c1.3,1.1,2.6,2.2,4.2,3.6
			C32.1,180.6,32.6,178.7,34.2,177.3z"/>
		<path class="st0" d="M188.1,90.9c3.9,1.2,7.9,1.8,12,2.2c0,5.3,0,10.7,0,16c-3.6,0-2.9,4-4.9,5.6c-2.2,1.7-3.8,3.6-5.2-0.6
			c-1.3-3.9-4.8-3.3-7.4-2.7c-3.5,0.8-6.8,0.7-10.3,0.7c-1-1-2.1-2.1-3.1-3.1c0-1.3-0.5-2.8,0.9-3.8c1.4,0.2,2-0.6,2.1-1.9
			c1.7-2.2,1.7-4.6,0.7-7.1c1.1-1.3,2.2-2.5,3.2-3.8c1-0.4,1.9-0.9,2.9-1.3c1,0,2,0,3-0.1c1.3,0,2.7,0,4,0
			C186.7,90.9,187.4,90.9,188.1,90.9z M199.1,97.3c0-1.4-0.4-2.9-2-2.8c-1.6,0.1-2.7,1.4-2.8,3c-0.1,1.5,1,2.5,2.5,2.5
			C198.2,100,199,98.8,199.1,97.3z"/>
		<path class="st0" d="M22.4,103.4c-0.1,0.1-0.3,0.2-0.4,0.2c-3.1-0.3-4.6,2.9-7.2,3.4c-3.3,0.6-3.6-3.3-6.1-4.2
			c-3-1-5.8-1.1-8.6,0.3c0-2,0-4,0-6c6.8,0.6,13-0.5,18.5-5c2.5-2.1,5.8-2.2,9-2c2.7,0.1,4.1-0.5,2.9-3.7c-0.6-1.4-0.6-3.4-0.1-4.9
			c0.8-2.3,1.6-0.1,2.4,0.3c0.5,1.4,1.1,2.9,1.6,4.3c-0.3,2.1,1.4,3.5,2,5.2c-0.3,0.9-0.6,1.8-0.9,2.8c0,1,0,2-0.1,3
			c-0.5,6.5-2.6,7.9-7.8,4.5C24.3,99.5,23.5,101.1,22.4,103.4z"/>
		<path class="st0" d="M200.1,130.1c-1.1-0.1-2.4,0.1-3.4-0.3c-1.2-0.5-3.3-0.7-3.2-2.4c0.1-1.5,1.5-2.2,3.2-2.5
			c1.2-0.2,2.2-1.2,3.3-1.8C200.1,125.4,200.1,127.8,200.1,130.1z"/>
		<path class="st0" d="M152.3,173.1c0,0.7,0,1.3,0,2c0,0.3,0,0.7,0,1c-0.1,2.2-0.2,4.4-0.3,6.7c-0.3,0-0.6,0.1-0.9,0.3
			c-0.3-0.2-0.5-0.3-0.8-0.3c-0.7-1.8-1.4-3.7-1.2-5.7c0.8-7.8,0.2-15.4-2.7-22.7c-0.3-0.7-0.2-1.6-0.3-2.5
			c-0.1-1.7,0.5-4.4-1.9-4.1c-1.6,0.2-2.8,3.4-1.8,5c2.9,4.6-0.5,6-3.4,7.9c-1.4,0.9-3.2,1.5-4,3.3c2.3,0.5,4.4,0.2,6.4-0.9
			c0.8-0.4,1.9-1.5,2.6-0.3c0.8,1.3-0.4,2.1-1.4,2.7c-2.1,1.3-4.3,2.5-6.4,3.8c-5.7,2.2-10.9,0.2-16-2.2c-0.3-0.2-0.7-0.5-1-0.7
			c-9-7-11.7-9.8-13.7-14.5c3.9,1.4,7.8,2.1,10.9,4.1c4.7,2.9,7.4-1,10.9-2.3c1.4-0.5,0.2-1.8-0.6-2.1c-1.3-0.6-2.9-1.3-4.3-1.1
			c-11.8,2.2-17.8-6.3-24.4-13.3c-1.9-2-3-2.4-4.6-0.6c-2.8,3.2-7.8,4.9-6.9,11c0.2,1.6-3.4,3.9-5.4,5.7c-1.7,1.6-3-0.1-4.3-1
			c-1.2-0.8-2.2-2.7-3.8-1.6c-1.7,1.2-0.3,3,0,4.5c1.3,5.7,5.3,9.7,8.8,13.9c1.8,2.2,3,4.7,4.2,7.2c0.1,2.2,0.8,3.9,3.1,4.7
			c0.2,0.2,0.4,0.3,0.7,0.2l0.1,0.1c0.3,0.4,0.7,0.7,1,1.1c0.1,0.6,0.2,1.3,0.3,1.9c-0.2,0.2-0.3,0.5-0.2,0.8
			c-0.7,0.7-1.4,1.4-2.1,2.1c-1.9,0.4-3.9,0.8-5.8,1.2c-0.7,0-1.3,0-2,0c-3-0.1-5.9-0.1-8.9-0.2c-0.3-0.3-0.6-0.7-0.9-1
			c-0.5-2.4-1.2-4.5,0.2-7c2-3.5-2-5.8-2.3-8.9c-0.3-1.6-0.9-3-2.1-4c-3-5.3-2.7-10.7-0.8-16.2c1-3,1.6-5.7,1.1-9.1
			c-0.8-6.1-0.3-12.3-0.3-18.4c0-2,1.2-3,3-3.4c1,0,2,0.2,2.9,0.1c3.9-0.5,5.7-3,7.2-6.4c1.6-3.7-1.6-3.9-3.3-5.3
			c-1.1-0.9-1.8-1.9-2-3.3c-1.2-2.9,1.3-6.1-0.8-8.9c2.1-0.4,3.9-1.3,5.2-3c1.1-0.1,2.2,0,2.9-1c2.6,0.1,4-1.1,3.9-3.7
			c-0.1-1.5,0.2-2.9,1.1-4.1c0.6,0,1.3-0.1,1.9-0.1c1,1.1,2.1,1.3,3.1,0c1.5-0.4,2.7,0.3,3.9,0.9c1.1,1.6,2.6,0.8,4,0.9
			c1,0.5,1.9,0.9,2.9,1.4c0.4,1.1,4,2.7-0.6,2.9c-0.8,0-4.1,0.8-0.2,2.1c1.1,0.3-0.1,1.3-0.3,1.3c-3.5,0.4-5.1,7-10,3
			c-0.2-0.1-0.6,0-0.8,0.1c-2.2,1.5-3.2,3.7-3.7,6.3c-0.2,1,0.7,1.7,1.4,1.8c2.5,0.1,2.7-2.3,3.8-3.9c2.9,5.2,4,5.6,8.8,3.7
			c1-0.4,1.9-0.3,2.8,0.3c1.3,0.9,2.8,2.7,4.3,1.4c1.7-1.5-0.3-3.4-0.6-5.1c-0.1-0.8-0.6-1.5-1-2.3c-0.6-1.3-1.8-2.9,0.6-3.6
			c2-0.6,3.2,0.6,3.4,2.5c0.2,1.8,0.1,3.7,1,5.3c1.2,2,0.6,6.6,5.3,3.5c0.9-0.6,1.5,0.7,1.5,1.3c0.1,2.7,2,4.5,3.2,6.6
			c1.3,2.4-0.8,9.9-2.9,9.6c-3.4-0.5-2,1.2-1.5,2.4c0.5,1.2,1.6,2.1,2.3,3.2c2.7,4.7,2.7,7.2,0.2,12.3c-0.8,1.5-1.2,2.9,0.7,3.7
			c1.9,0.7,2.1-0.7,2.3-2.1c0.5-3.1,1.9-4.9,5.6-4.8c1.7,0,5.2-0.2,2.9-4.5c-2.3-4.2,0.7-14.3,3.2-17.4c1-1.3,1.7-3.8,0.3-6.1
			c-1.2-1.8-2.1-3.4-4.6-2.5c-4.4,1.7-7.3-0.1-9.6-3.8c-2.7-4.2-4.9-8.6-4.8-13.8c0.1-2.2-0.4-4.9-2.1-5.9c-2.9-1.7-3.7-4.4-4.8-7.1
			c0.1-0.3,0-0.6-0.2-0.8c0-0.7,0-1.3-0.1-2c0.1-2.3,0.9-4,3.5-4.2c4.4-0.7,3.7-5,5.4-7.6c2.5-3,4-7.2,8.3-8.4
			c1.8,0.5,3.5,1,5.3,1.5c0.5,0.2,1,0.5,1.5,0.7c0.4,0.3,0.8,0.6,1.2,1l0,0c0.3,0.3,0.7,0.7,1,1c3.4,2.1,7.2,0.4,10.8,1.1
			c0.8,2,1.6,4,2.4,5.9c-0.1,1.3-0.2,2.6-0.3,3.9c-0.8,0.7-1,1.4,0,2.1c0.1,1.3,0.2,2.6,0.3,4c-0.4,1.7-1.5,3.2-1,5
			c-0.5,2.7-2.4,5-2,8c-0.2,1.9-0.8,3.9,1.2,5.7c0.9-2.9,2.3-5,5.5-2.5c0,1.4,1.9,3.3-0.9,4.1c-0.9,0.2-1,0.9-0.9,1.7
			c-0.1,2.2,1.7,3.4,2.7,5c0,2.3,0.1,4.5,0.1,6.8c0,1.2-0.5,2.9,1,3.5c1.9,0.7,1.6-1.5,2.4-2.3c0.3-0.3,0.6-0.8,0.9-1.1
			c2.2-1.1,2-6.1,5.3-4.5c2.9,1.3,1,4.9,1.1,7.6c0,2.1-0.5,4.9,3.2,3.1c2.5,4.4-1,6.9-3.1,9.9c-0.9,0.3-1.8,0.9-2.7,1
			c-1.2,0.1-3-1.5-3.2,1.2c-0.2,2,0.3,4,2.6,3.7c2-0.2,2,1.8,3.3,2.2c1.7,0.6,4.1-2.6,5.2,1c0.1,1.4-1.9,2.6-0.3,4
			c0,1.3,0,2.6,0,3.9c-0.7,0.4-0.8,1-0.3,1.5c0.5,0.5,1.1,0.4,1.4-0.4c0.4,0.3,0.8,0.6,1.2,0.9c0,0.3,0,0.7,0,1c0,2.2,1,3.8,2.6,5.1
			c0.1,1,0.2,2,0.3,2.9c0,5.3-4.9,8.8-5.3,13.9c-0.4,0.6-0.8,1.3-1.1,1.9c-0.6,0.4-1.1,0.7-1.7,1.1c-0.4,0.3-0.8,0.6-1.2,1l0.1-0.1
			c-1.8,0.1-3.7,0.2-5.5,0.4c-1.1-0.5-2.2-1-3.3-1.4c-0.3-1.6-1.3-3.1-2.9-2.4C151.1,169.2,152.3,171.4,152.3,173.1z M142,128.4
			c0-0.5-0.6-1.9-1.3-1.8c-1.4,0.3-2.6,1.5-2.5,3.2c0.1,1.1,0.8,2,1.8,2C141.7,131.7,142.1,130.4,142,128.4z"/>
		<path class="st0" d="M55.3,107c-1.3-5.2-1.6-10.7-4.1-15.6c1.6-0.2,3.3-0.3,4.9-0.5c2.7,0.1,5.3,0.2,8,0.3
			c0.9,2.2,5.1,2.4,4.6,3.9c-1.7,5,2.1,10.1-0.7,14.9c-0.3,0-0.5,0-0.8,0c-0.4-0.9-1.3-1-2.1-1.2c-0.9-1.1-2-0.9-3.1-0.5
			c-0.6,0.3-1.2,0.5-1.8,0.8c-0.7-0.1-1.3-0.2-2-0.2C57.2,108.3,56.3,107.7,55.3,107z"/>
		<path class="st0" d="M178.9,145.1c0.6-8.1,1-10.8,11.1-8c-1.6,2.4-1.3,4.7,0.2,7c-0.1,1.6-0.3,3.3-0.4,4.9
			c-0.3,0.4-0.6,0.7-0.8,1.1c-0.9,0.6-1.8,1.1-2.6,1.7c-2.5,1.9-4.9,4.4-8.3,1.6c-0.6-0.2-1.2-0.4-1.8-0.5c0-0.6,0-1.1,0-1.7
			c0.3-0.6,0.6-1.2,0.9-1.9C178.2,148.1,179.1,146.8,178.9,145.1z"/>
		<path class="st0" d="M22.3,142c-0.8-1.7-2.7-1.7-4.1-2.5c-1-0.6-3-0.6-2.5-2.4c0.4-1.6,1.4-3,3.5-3c2.7,0,5.3-0.1,8-0.2
			c3.9,1.2,6,3.3,4.4,7.7c-0.5,1.3-0.6,3-0.2,4.4c0.6,2,0.8,3.7-1.1,4.7c-1.4,0.8-3.3,0.8-4.8-0.1c-1.7-1-1.5-2.9-1.2-4.5
			c0.3-1.2,0.7-2.2-0.4-3.1c-0.2-0.2-0.5-0.5-0.7-0.7C22.9,142.1,22.6,142,22.3,142z"/>
		<path class="st0" d="M143.1,182.3c0.2-0.4,0.6-0.8,0.7-1.2c0.2-1.2-1.5-2.5,0.1-3.6c0.8-0.5,1.6-0.2,2.2,0.4
			c1.3,1.2,1.5,3.4,0.7,4.1c-4.8,4.1,0.5,5.9,1.7,8.7c0.2,0.3,0.4,0.6,0.6,0.9l0,0.1c-2.8,2.6-6,1.3-9.1,0.8c-1.9-0.4-3.7-1-5.6-1.5
			c-0.3-1.9-0.9-3.4-3.3-2.7c-0.7,0-1.3,0-2-0.1c-1.2-0.7-1.9-1.8-2.2-3.1c1.8-4.4,4.8,0.4,7-0.9c0.3,0.9,1,1.3,1.9,1.5
			c0,0-0.1-0.1-0.1-0.1c1,0.7,1.8,0.4,2.6-0.5c0.9-0.4,1.9-0.8,2.8-1.2c0.7,0,1.4,0,1.7-0.9C143.1,182.9,143.2,182.7,143.1,182.3z"
			/>
		<path class="st0" d="M166.1,93c-0.7-0.4-1.3-0.8-2-1.2l0,0c0-0.4-0.1-0.7-0.3-0.9c-1.2-2.6-0.7-5,0.4-7.5c0.6-0.4,1.3-0.8,1.9-1.1
			c1.6-0.2,3.1-0.2,4.5,0.7c0.2,0.4,0.4,0.7,0.6,1.1c-0.1,1.5-0.1,3-0.2,4.5C171,91.8,169.7,93.6,166.1,93z"/>
		<path class="st0" d="M38.9,168.1c1.6-2.2,2.9-2.6,4.1,0.4c1.6,3.9,0.8,8,0.7,12c0,0.7-0.5,1.3-1.1,1.2c-0.6-0.1-1.2-0.5-1-1.4
			c0.4-1.9-1.4-2.3-2.2-3.3C39.2,174.1,39,171.1,38.9,168.1z"/>
		<path class="st0" d="M23.3,104.3c3.8,1.5,7,4.5,11.2,5c0.8,0.1,0.3,1.1,0.4,1.7c-2.9,0-5.8-0.1-8.7-0.1
			C25.2,108.7,20.9,108,23.3,104.3z"/>
		<path class="st0" d="M15.4,80.5c0.9,2.2-0.7,2.4-2.1,2.6c-1,0.1-2.2-0.2-1.7-1.6c0.5-1.5,1.1-3.3,3.1-3.2
			C16.3,78.4,15.6,79.6,15.4,80.5z"/>
		<path class="st0" d="M5.2,117c4-3.3,10-4.8,12.4-2.8c0.9,0.7,2.2,1.5,1.9,2.7c-0.3,1.2-1.8,1.1-3,1.2C12.6,118.6,9,116.9,5.2,117
			C5.2,117,5.2,117,5.2,117z"/>
		<path class="st0" d="M16.5,122.1c3.1,0.8,3,3.6,3.3,5.6c0.3,1.5-0.8,3.4-2.9,3.2c-3.1-0.2-2.8-2.6-2.9-4.8
			C14,124.3,14.3,122.6,16.5,122.1z"/>
		<g>
			<path class="st1" d="M200.1,130.1c-1.1-0.1-2.4,0.1-3.4-0.3c-1.2-0.5-3.3-0.7-3.2-2.4c0.1-1.5,1.5-2.2,3.2-2.5
				c1.2-0.2,2.2-1.2,3.3-1.8c0-4.7,0-9.3,0-14c-3.6,0-2.9,4-4.9,5.6c-2.2,1.7-3.8,3.6-5.2-0.6c-1.3-3.9-4.8-3.3-7.4-2.7
				c-3.5,0.8-6.8,0.7-10.3,0.7c-1-1-2.1-2.1-3.1-3.1c0-1.3-0.5-2.8,0.9-3.8c0.1-0.2,0.2-0.5,0.4-0.7c-0.1,0.2-0.3,0.4-0.4,0.7
				c1.4,0.2,2-0.6,2.1-1.9c1.7-2.2,1.7-4.6,0.7-7.1c-0.2-0.3-0.5-0.5-0.8-0.7c0.3,0.2,0.5,0.4,0.8,0.7c1.1-1.3,2.2-2.5,3.2-3.8
				c1-0.4,1.9-0.9,2.9-1.3c0.2-0.4,0.5-0.8,0.7-1c-0.2,0.2-0.5,0.6-0.7,1c1,0,2,0,3-0.1c1.3,0,2.7,0,4,0c0.7,0,1.3,0,2,0
				c3.9,1.2,7.9,1.8,12,2.2c0-29.6-0.1-59.3,0.1-88.9c0-3.2-0.3-4.2-4-4.2C132.1,0.2,68,0.2,4,0C0.3,0,0,1.1,0,4.2
				c0.1,31,0.1,61.9,0.1,92.9c6.8,0.6,13-0.5,18.5-5c2.5-2.1,5.8-2.2,9-2c2.7,0.1,4.1-0.5,2.9-3.7c-0.6-1.4-0.6-3.4-0.1-4.9
				c0.8-2.3,1.6-0.1,2.4,0.3c0.6-0.3,1.1-0.5,1.6-0.5c0.4,0,0.8,0,1.2,0.2c-0.3-0.1-0.7-0.2-1.2-0.2c-0.5,0-1,0.2-1.6,0.5
				c0.5,1.4,1.1,2.9,1.6,4.3c-0.3,2.1,1.4,3.5,2,5.2c0.5,0.1,1.2,0,1.7,0.1c-0.5-0.1-1.2,0-1.7-0.1c-0.3,0.9-0.6,1.8-0.9,2.8
				c0,1,0,2-0.1,3c-0.5,6.5-2.6,7.9-7.8,4.5c-3.1-2-4-0.5-5,1.8c-0.1,0.1-0.3,0.2-0.4,0.2c-3.1-0.3-4.6,2.9-7.2,3.4
				c-3.3,0.6-3.6-3.3-6.1-4.2c-3-1-5.8-1.1-8.6,0.3c0,4.7,0,9.3,0,14c0,2,0,4,0,6c0,0.7,0,1.3,0,2c0,17.3,0,34.7,0,52
				c0,3.7,0,7.3,0,11c2.5-0.3,5.1-0.6,7.3-2c4.5-0.9,8.9-1.7,13.4-2.6c-0.1-0.1-0.2-0.2-0.3-0.3c0.1,0.1,0.2,0.2,0.3,0.3
				c2.8-0.4,3.9-3.4,6.3-4.3l0.3,0.3h0c1.3,1.1,2.6,2.2,4.2,3.6c0.6-2.3,1.1-4.3,2.6-5.6c-0.9-0.5-1.7-0.5-2.4-0.3
				c-0.3,0.1-0.6,0.2-0.8,0.4c0.3-0.2,0.5-0.3,0.8-0.4c0.7-0.2,1.5-0.2,2.4,0.3c0.5,0,1.1-0.1,1.6-0.1c1.2-0.1,2.4-0.1,3.5-0.2
				c-0.1-3-0.3-5.9-0.4-8.9c1.6-2.2,2.9-2.6,4.1,0.4c1.6,3.9,0.8,8,0.7,12c0,0.7-0.5,1.3-1.1,1.2c-0.6-0.1-1.2-0.5-1-1.4
				c0.4-1.9-1.4-2.3-2.2-3.3c-1.2,0.1-2.4,0.1-3.5,0.2c2.4,3.1-1.1,5.9-0.5,8.9c-0.3,3.1-1.4,5.4-4.8,6.1c-1.7,0.3-2.6,1.6-2.3,3.3
				c1,4.9-0.7,9.8-0.1,14.6c6,0,12,0,18,0c0.7,0,1.3,0,2,0c1.2-1.2-0.1-1.5-0.8-2.1c-0.4-0.6-0.8-1.3-1.2-1.9
				c-0.3-0.4-0.6-0.8-0.9-1.2c-0.1-1.6-0.2-3.2-0.4-4.7c-0.2-0.4-0.4-0.7-0.6-1.1c-1.4-5.2-3.1-10.4-0.9-15.9
				c4.4-3.7,2.4-9.2,3.6-13.9c0.7-2.8,1.5-4.2,4.1-2.5c3.5,2.2,3.9,0.1,4.2-2.5c3.2,2.9,3,6.7,3,10.5c-0.3,0.8-0.6,1.6-0.8,2.3
				c-0.8,2.5,0.9,4.6,1,7c-0.3,2.4-2.5,5.4,2,6.4c3.4,1.8,7.1,1.8,10.8,1.4c0.3,0,0.7,0,1,0c4,2.2,8.5,1.4,12.6,1.6
				c9.5,0.5,18.9,1.9,28.4,2.4c0.6,0.1,1.3,0.2,1.9,0.3c4.7,0.6,9.4,1.3,14,1.9c0.4,1,1.2,0.9,2,0.7c0.7,0,1.3-0.1,2-0.1
				c1,0,2,0.1,3,0.1c10,1.1,20,2.3,30,3.1c5.7,0.4,6.5-0.9,5.2-6.4c-1.2-5.1,1-9.9,0.9-14.8c0-1.9,1.8-1.9,3-1.6
				c2.1,0.4,4.2,0.9,6.2,1.7c6.6,2.6,8.1,2.3,11.7-3.2c2.6,2.3,2.9,4.9,2,8.3c-2,7.9-0.7,16.1-1,24.1c5.1,1.1,6.2-0.9,6.2-6
				C199.9,179.4,200.1,154.8,200.1,130.1z M13.2,83c-1,0.1-2.2-0.2-1.7-1.6c0.5-1.5,1.1-3.3,3.1-3.2c1.7,0.1,1,1.3,0.7,2.2
				C16.3,82.6,14.7,82.9,13.2,83z M36.2,82c-0.2-0.1-0.4-0.3-0.6-0.4C35.9,81.7,36,81.8,36.2,82z M170.9,94.9c0.3,0,0.6,0.1,0.9,0.3
				C171.5,95,171.2,94.9,170.9,94.9z M166.1,82.3c1.6-0.2,3.1-0.2,4.5,0.7c0.2,0.4,0.4,0.7,0.6,1.1c-0.1,1.5-0.1,3-0.2,4.5
				c-0.1,3.2-1.4,5.1-4.9,4.4c-0.7-0.4-1.3-0.8-2-1.2c-0.1,0.3-0.3,0.6-0.4,0.8c0.2-0.3,0.3-0.6,0.4-0.8l0,0c0-0.4-0.1-0.7-0.3-0.9
				h0c-1.2-2.6-0.7-5,0.4-7.5C164.8,83,165.5,82.7,166.1,82.3z M155,105.5c-0.4-0.6-0.7-1.1-1.2-1.6
				C154.3,104.3,154.7,104.9,155,105.5z M148.9,71.4c0,0.2-0.2,0.3-0.4,0.5C148.7,71.7,148.8,71.5,148.9,71.4z M16.9,131
				c-3.1-0.2-2.8-2.6-2.9-4.8c0-1.9,0.2-3.6,2.4-4.1c3.1,0.8,3,3.6,3.3,5.6C20.1,129.3,19,131.1,16.9,131z M17.6,114.2
				c0.9,0.7,2.2,1.5,1.9,2.7c-0.3,1.2-1.8,1.1-3,1.2c-3.9,0.5-7.5-1.2-11.3-1.1l0,0C9.2,113.7,15.2,112.3,17.6,114.2z M15.5,174.6
				c0-0.1,0.1-0.2,0.1-0.3c0-0.8-0.3-1.4-1-1.5c0.7,0.1,1.1,0.7,1,1.5C15.6,174.4,15.5,174.5,15.5,174.6z M18.1,181.1
				c0.4,0.4,0.9,0.8,1.3,1.3C19,181.9,18.5,181.5,18.1,181.1z M28,179.2c0.3-0.1,0.5-0.3,0.8-0.4C28.6,179,28.3,179.1,28,179.2z
				 M31.5,141.6c-0.5,1.3-0.6,3-0.2,4.4c0.6,2,0.8,3.7-1.1,4.7c-1.4,0.8-3.3,0.8-4.8-0.1c-1.7-1-1.5-2.9-1.2-4.5
				c0.3-1.2,0.7-2.2-0.4-3.1c-0.2-0.2-0.5-0.5-0.7-0.7c-0.2-0.3-0.5-0.4-0.8-0.4c-0.8-1.7-2.7-1.7-4.1-2.5c-1-0.6-3-0.6-2.5-2.4
				c0.4-1.6,1.4-3,3.5-3c2.7,0,5.3-0.1,8-0.2C31,135.1,33.1,137.2,31.5,141.6z M26.2,110.9c-0.9-2.2-5.2-2.9-2.9-6.6
				c3.8,1.5,7,4.5,11.2,5c0.8,0.1,0.3,1.1,0.4,1.7C32,111,29.1,110.9,26.2,110.9z M61.9,108.4c-0.6,0.3-1.2,0.5-1.8,0.8
				c-0.7-0.1-1.3-0.2-2-0.2c-0.1,0.2-0.2,0.3-0.3,0.4c-0.2,0.3-0.5,0.5-0.7,0.7c0.3-0.2,0.5-0.4,0.7-0.7c0.1-0.1,0.2-0.3,0.3-0.4
				c-0.9-0.7-1.9-1.3-2.8-2c-1.3-5.2-1.6-10.7-4.1-15.6c1.6-0.2,3.3-0.3,4.9-0.5c2.7,0.1,5.3,0.2,8,0.3c0.9,2.2,5.1,2.4,4.6,3.9
				c-1.7,5,2.1,10.1-0.7,14.9c-0.3,0-0.5,0-0.8,0c-0.4-0.9-1.3-1-2.1-1.2C64.1,107.8,63,108,61.9,108.4z M66,175.1L66,175.1
				c0.2-0.2,0.4-0.3,0.6-0.5C66.4,174.8,66.2,174.9,66,175.1z M91.3,187.6c0.1,0.2,0.1,0.4,0.3,0.4C91.4,188,91.3,187.8,91.3,187.6z
				 M140,192.5c-1.9-0.4-3.7-1-5.6-1.5c-0.3-1.9-0.9-3.4-3.3-2.7c-0.7,0-1.3,0-2-0.1c-0.1,0.1-0.2,0.2-0.3,0.4
				c-0.1,0.1-0.2,0.3-0.3,0.4c0.1-0.1,0.2-0.3,0.3-0.4c0.1-0.1,0.2-0.3,0.3-0.4c-1.2-0.7-1.9-1.8-2.2-3.1c1.8-4.4,4.8,0.4,7-0.9
				c0.3,0.9,1,1.3,1.9,1.5c0,0,0,0,0,0c1,0.6,1.8,0.3,2.5-0.5c0.9-0.4,1.9-0.8,2.8-1.2c0.7,0,1.4,0,1.7-0.9c0.3-0.2,0.4-0.4,0.3-0.8
				c0.2-0.4,0.6-0.8,0.7-1.2c0.2-1.2-1.5-2.5,0.1-3.6c0.8-0.5,1.6-0.2,2.2,0.4c1.3,1.2,1.5,3.4,0.7,4.1c-4.8,4.1,0.5,5.9,1.7,8.7v0
				c0.2,0.3,0.4,0.6,0.6,0.9h0l0,0.1C146.3,194.4,143.1,193.1,140,192.5z M127.8,176.9C127.8,176.9,127.8,176.9,127.8,176.9
				C127.8,176.9,127.8,176.9,127.8,176.9z M128.8,176c-0.2,0.1-0.4,0.1-0.5,0.2C128.4,176.1,128.6,176,128.8,176
				c0.8,0,1.3,0.4,1.4,1.1C130.1,176.4,129.6,176,128.8,176z M143.4,171.2c1.2-0.2,2.4-0.1,2.5,1.5c0.1,1.1-0.9,1.6-1.4,2.1
				c-1.5-0.2-2.5-0.9-2.8-2C141.3,171.6,142.5,171.3,143.4,171.2z M149.3,191.6L149.3,191.6C149.4,191.7,149.3,191.7,149.3,191.6z
				 M168.9,168c0.2,0.3,0.2,0.6,0.2,0.8C169.2,168.6,169.1,168.4,168.9,168c-0.4,0.6-0.8,1.3-1.1,1.9c-0.6,0.4-1.1,0.7-1.7,1.1
				c-0.4,0.3-0.8,0.6-1.1,0.9c0,0,0,0,0-0.1c-1.8,0.1-3.7,0.2-5.5,0.4c-1.1-0.5-2.2-1-3.3-1.4c-0.3,1.2-1.1,1.6-1.9,1.8
				c0.9-0.2,1.6-0.6,1.9-1.8c-0.3-1.6-1.3-3.1-2.9-2.4c-2.2,0.9-1,3.1-1,4.7c0,0.7,0,1.3,0,2c0,0.3,0,0.7,0,1
				c-0.1,2.2-0.2,4.4-0.3,6.7c-0.3,0-0.6,0.1-0.9,0.3c-0.3-0.2-0.5-0.3-0.8-0.3c-0.2,0.5-0.9,0.8-1.4,1.1c0.5-0.4,1.2-0.7,1.4-1.1
				c-0.7-1.8-1.4-3.7-1.2-5.7c0.8-7.8,0.2-15.4-2.7-22.7c-0.3-0.7-0.2-1.6-0.3-2.5c-0.1-1.7,0.5-4.4-1.9-4.1c-1.6,0.2-2.8,3.4-1.8,5
				c2.9,4.6-0.5,6-3.4,7.9c-1.4,0.9-3.2,1.5-4,3.3c2.3,0.5,4.4,0.2,6.4-0.9c0.8-0.4,1.9-1.5,2.6-0.3c0.8,1.3-0.4,2.1-1.4,2.7
				c-2.1,1.3-4.3,2.5-6.4,3.8c-5.7,2.2-10.9,0.2-16-2.2c-0.2,0-0.3,0.1-0.4,0c0.1,0,0.2,0,0.4,0c-0.3-0.2-0.7-0.5-1-0.7
				c-9-7-11.7-9.8-13.7-14.5c3.9,1.4,7.8,2.1,10.9,4.1c4.7,2.9,7.4-1,10.9-2.3c1.4-0.5,0.2-1.8-0.6-2.1c-1.3-0.6-2.9-1.3-4.3-1.1
				c-11.8,2.2-17.8-6.3-24.4-13.3c-1.9-2-3-2.4-4.6-0.6c-2.8,3.2-7.8,4.9-6.9,11c0.2,1.6-3.4,3.9-5.4,5.7c-1.7,1.6-3-0.1-4.3-1
				c-1.2-0.8-2.2-2.7-3.8-1.6c-1.7,1.2-0.3,3,0,4.5c1.3,5.7,5.3,9.7,8.8,13.9c1.8,2.2,3,4.7,4.2,7.2c0.1,2.2,0.8,3.9,3.1,4.7
				c0.2,0.2,0.4,0.3,0.7,0.2c0.4-0.2,0.7-0.5,1.1-0.7c-0.4,0.2-0.7,0.5-1.1,0.7l0.1,0.1c0.3,0.4,0.7,0.7,1,1.1
				c0.1,0.6,0.2,1.3,0.3,1.9c-0.2,0.2-0.3,0.5-0.2,0.8c-0.7,0.7-1.4,1.4-2.1,2.1c0.7,0,1.5,0.1,2.2,0.1l0,0l0,0l0,0
				c0.1,0.1,0.1,0.2,0.2,0.3c0-0.1-0.1-0.2-0.2-0.3c-0.7,0-1.5-0.1-2.2-0.1c-1.9,0.4-3.9,0.8-5.8,1.2c-0.3,0.6-0.7,0.9-1,0.9
				c0.3,0,0.7-0.3,1-0.9c-0.7,0-1.3,0-2,0c-3-0.1-5.9-0.1-8.9-0.2c-0.3-0.3-0.6-0.7-0.9-1c-0.5-2.4-1.2-4.5,0.2-7
				c2-3.5-2-5.8-2.3-8.9c-0.3-1.6-0.9-3-2.1-4c-3-5.3-2.7-10.7-0.8-16.2c1-3,1.6-5.7,1.1-9.1c-0.8-6.1-0.3-12.3-0.3-18.4
				c0-2,1.2-3,3-3.4c1,0,2,0.2,2.9,0.1c3.9-0.5,5.7-3,7.2-6.4c1.6-3.7-1.6-3.9-3.3-5.3c-1.1-0.9-1.8-1.9-2-3.3l0,0
				c-1.2-2.9,1.3-6.1-0.8-8.9c2.1-0.4,3.9-1.3,5.2-3c1.1-0.1,2.2,0,2.9-1c2.6,0.1,4-1.1,3.9-3.7c-0.1-1.5,0.2-2.9,1.1-4.1
				c0.6,0,1.3-0.1,1.9-0.1c1,1.1,2.1,1.3,3.1,0c1.5-0.4,2.7,0.3,3.9,0.9c1.1,1.6,2.6,0.8,4,0.9c1,0.5,1.9,0.9,2.9,1.4
				c0.3-1.4-0.3-2.6-0.9-3.9c0.7,1.2,1.2,2.4,0.9,3.9c0.4,1.1,4,2.7-0.6,2.9c-0.8,0-4.1,0.8-0.2,2.1c1.1,0.3-0.1,1.3-0.3,1.3
				c-3.5,0.4-5.1,7-10,3c-0.2-0.1-0.6,0-0.8,0.1c-2.2,1.5-3.2,3.7-3.7,6.3c-0.2,1,0.7,1.7,1.4,1.8c2.5,0.1,2.7-2.3,3.8-3.9
				c2.9,5.2,4,5.6,8.8,3.7c1-0.4,1.9-0.3,2.8,0.3c1.3,0.9,2.8,2.7,4.3,1.4c1.7-1.5-0.3-3.4-0.6-5.1c-0.1-0.8-0.6-1.5-1-2.3
				c-0.6-1.3-1.8-2.9,0.6-3.6c2-0.6,3.2,0.6,3.4,2.5c0.2,1.8,0.1,3.7,1,5.3c1.2,2,0.6,6.6,5.3,3.5c0.9-0.6,1.5,0.7,1.5,1.3
				c0.1,2.7,2,4.5,3.2,6.6c1.3,2.4-0.8,9.9-2.9,9.6c-3.4-0.5-2,1.2-1.5,2.4c0.5,1.2,1.6,2.1,2.3,3.2c2.7,4.7,2.7,7.2,0.2,12.3
				c-0.8,1.5-1.2,2.9,0.7,3.7c1.9,0.7,2.1-0.7,2.3-2.1c0.5-3.1,1.9-4.9,5.6-4.8c1.7,0,5.2-0.2,2.9-4.5c-2.3-4.2,0.7-14.3,3.2-17.4
				c1-1.3,1.7-3.8,0.3-6.1c-1.2-1.8-2.1-3.4-4.6-2.5c-4.4,1.7-7.3-0.1-9.6-3.8c-2.7-4.2-4.9-8.6-4.8-13.8c0.1-2.2-0.4-4.9-2.1-5.9
				c-2.9-1.7-3.7-4.4-4.8-7.1c0.1-0.3,0-0.6-0.2-0.8c0-0.7,0-1.3-0.1-2c0.1-2.3,0.9-4,3.5-4.2c4.4-0.7,3.7-5,5.4-7.6
				c2.5-3,4-7.2,8.3-8.4c1.8,0.5,3.5,1,5.3,1.5c0.5,0.2,1,0.5,1.5,0.7c0.4,0.3,0.8,0.6,1.2,1c0.3,0.3,0.7,0.7,1,1
				c3.4,2.1,7.2,0.4,10.8,1.1c0.4,0.1,0.9,0.2,1.2,0.4c-0.4-0.1-0.8-0.3-1.2-0.4c0.8,2,1.6,4,2.4,5.9c-0.1,1.3-0.2,2.6-0.3,3.9l0,0
				c-0.8,0.7-1,1.4,0,2.1c0.1,1.3,0.2,2.6,0.3,4c1.2,0.7,1.9,1.2,2.1,1.7c-0.3-0.5-1-1.1-2.1-1.7c-0.4,1.7-1.5,3.2-1,5
				c-0.5,2.7-2.4,5-2,8c0.2,0,0.5,0,0.7-0.1c-0.2,0-0.5,0-0.7,0.1c-0.2,1.9-0.8,3.9,1.2,5.7c0.9-2.9,2.3-5,5.5-2.5
				c0,1.4,1.9,3.3-0.9,4.1l0,0c-0.9,0.2-1,0.9-0.9,1.7c-0.1,2.2,1.7,3.4,2.7,5l0,0c0,2.3,0.1,4.5,0.1,6.8c0,1.2-0.5,2.9,1,3.5
				c1.9,0.7,1.6-1.5,2.4-2.3c0.3-0.3,0.6-0.8,0.9-1.1c2.2-1.1,2-6.1,5.3-4.5c2.9,1.3,1,4.9,1.1,7.6c0,2.1-0.5,4.9,3.2,3.1
				c2.5,4.4-1,6.9-3.1,9.9c-0.9,0.3-1.8,0.9-2.7,1c-1.2,0.1-3-1.5-3.2,1.2c-0.2,2,0.3,4,2.6,3.7c2-0.2,2,1.8,3.3,2.2
				c1.7,0.6,4.1-2.6,5.2,1c0.1,1.4-1.9,2.6-0.3,4c0,1.3,0,2.6,0,3.9c0.4,0.4,0.8,0.7,1.1,1.1c0.4,0.3,0.8,0.6,1.2,0.9
				c0,0.3,0,0.7,0,1c0,2.2,1,3.8,2.6,5.1c0.1,1,0.2,2,0.3,2.9C174.2,159.4,169.3,162.9,168.9,168z M166.1,130.1L166.1,130.1
				L166.1,130.1L166.1,130.1z M189.9,149.5c0-0.1,0-0.3,0-0.4c-0.3,0.4-0.6,0.7-0.8,1.1c-0.9,0.6-1.8,1.1-2.6,1.7
				c-2.5,1.9-4.9,4.4-8.3,1.6c-0.6-0.2-1.2-0.4-1.8-0.5c0-0.6,0-1.1,0-1.7c0.3-0.6,0.6-1.2,0.9-1.9c-0.2-0.5-0.4-1-0.4-1.4
				c0-0.2,0-0.4,0-0.6c0,0.2,0,0.4,0,0.6c0.1,0.4,0.2,0.9,0.4,1.4c1.1-1.2,1.9-2.5,1.8-4.2c0.6-8.1,1-10.8,11.1-8
				c-1.6,2.4-1.3,4.7,0.2,7c-0.1,1.6-0.3,3.3-0.4,4.9C189.9,149.2,189.9,149.4,189.9,149.5z"/>
			<path class="st1" d="M164.8,204c-1.6,0.2-3.3-0.5-4.9-0.5c-11.1-0.2-22.1-2.3-33.6-1.3c2.1,3.1,4.1,5.2,7.9,4.9
				c1.7-0.1,3.7,0.4,3.9,2.9c12.3,0,24.7,0,37,0C172.3,207,169.9,203.3,164.8,204z"/>
			<path class="st1" d="M67.1,206.6c-2.2-1-4.7,0.1-6.9-0.7c-4.3-1.6-5.8,0.2-6.1,4.2c5.3,0,10.7,0,16,0
				C70.9,207.3,68.6,207.3,67.1,206.6z"/>
			<path class="st1" d="M86.1,210.1c0.7,0,1.3,0,2,0C87.4,208.6,86.7,208.6,86.1,210.1z"/>
			<path class="st1" d="M168.7,144.5c0.5,0.5,1.1,0.4,1.4-0.4c-0.4-0.4-0.8-0.7-1.1-1.1C168.2,143.4,168.2,144,168.7,144.5z"/>
			<path class="st1" d="M57.3,177.1c0.3-0.8,0.6-1.6,0.8-2.3C57.2,175.3,57.1,176.1,57.3,177.1z"/>
			<path class="st1" d="M187.7,199.4c0.8-2,1.7-4,1.4-5.6c-0.2-3.3,0.3-6.4-3.5-6.7c-4-0.3-3.9,2.7-4.4,5.5c-0.6,3.5,2,6.4,1.4,10.1
				c-0.2,1.3,1.9,2.7,3.8,2.3c2.5-0.6,1.5-2.2,0.5-3.4C185.9,200.3,187.4,200.1,187.7,199.4z"/>
			<path class="st1" d="M69,196.7c-3.2-0.7-6.4-1.1-9.7-1.5c-2-0.2-3.1,0.9-3.2,2.9c0,1.8,0.9,2.8,2.7,2.9c1.8,0.1,3.6,0,5.5,0
				c0,0,0,0,0,0c1.3,0,2.7,0,4,0c1.5,0,3.3,0.1,3.4-1.9C71.8,197.6,70.2,196.9,69,196.7z"/>
			<path class="st1" d="M194.2,97.5c-0.1,1.5,1,2.5,2.5,2.5c1.5,0,2.3-1.1,2.4-2.6c0-1.4-0.4-2.9-2-2.8
				C195.5,94.6,194.3,95.9,194.2,97.5z"/>
			<path class="st1" d="M140.7,126.6c-1.4,0.3-2.6,1.5-2.5,3.2c0.1,1.1,0.8,2,1.8,2c1.6-0.1,2-1.4,2-3.4
				C142,127.9,141.5,126.4,140.7,126.6z"/>
		</g>
		<path class="st0" d="M144.5,174.8c-1.5-0.2-2.5-0.9-2.8-2c-0.3-1.2,0.8-1.5,1.8-1.6c1.2-0.2,2.4-0.1,2.5,1.5
			C146,173.9,145.1,174.3,144.5,174.8z"/>
	</g>
	<g>
		<path class="st1" d="M642.4,130.1c-1.1-0.1-2.4,0.1-3.4-0.3c-1.2-0.5-3.3-0.7-3.2-2.4c0.1-1.5,1.5-2.2,3.2-2.5
			c1.2-0.2,2.2-1.2,3.3-1.8c0-4.7,0-9.3,0-14c-3.6,0-2.9,4-4.9,5.6c-2.2,1.7-3.8,3.6-5.2-0.6c-1.3-3.9-4.8-3.3-7.4-2.7
			c-3.5,0.8-6.8,0.7-10.3,0.7c-1-1-2.1-2.1-3.1-3.1c0-1.3-0.5-2.8,0.9-3.8c0.1-0.2,0.2-0.5,0.4-0.7c-0.1,0.2-0.3,0.4-0.4,0.7
			c1.4,0.2,2-0.6,2.1-1.9c1.7-2.2,1.7-4.6,0.7-7.1c-0.2-0.3-0.5-0.5-0.8-0.7c0.3,0.2,0.5,0.4,0.8,0.7c1.1-1.3,2.2-2.5,3.2-3.8
			c1-0.4,1.9-0.9,2.9-1.3c0.2-0.4,0.5-0.8,0.7-1c-0.2,0.2-0.5,0.6-0.7,1c1,0,2,0,3-0.1c1.3,0,2.7,0,4,0c0.7,0,1.3,0,2,0
			c3.9,1.2,7.9,1.8,12,2.2c0-29.6-0.1-59.3,0.1-88.9c0-3.2-0.3-4.2-4-4.2c-64.1,0.2-128.2,0.2-192.3,0c-3.7,0-4,1.1-4,4.2
			c0.1,31,0.1,61.9,0.1,92.9c6.8,0.6,13-0.5,18.5-5c2.5-2.1,5.8-2.2,9-2c2.7,0.1,4.1-0.5,2.9-3.7c-0.6-1.4-0.6-3.4-0.1-4.9
			c0.8-2.3,1.6-0.1,2.4,0.3c0.6-0.3,1.1-0.5,1.6-0.5c0.4,0,0.8,0,1.2,0.2c-0.3-0.1-0.7-0.2-1.2-0.2c-0.5,0-1,0.2-1.6,0.5
			c0.5,1.4,1.1,2.9,1.6,4.3c-0.3,2.1,1.4,3.5,2,5.2c0.5,0.1,1.2,0,1.7,0.1c-0.5-0.1-1.2,0-1.7-0.1c-0.3,0.9-0.6,1.8-0.9,2.8
			c0,1,0,2-0.1,3c-0.5,6.5-2.6,7.9-7.8,4.5c-3.1-2-4-0.5-5,1.8c-0.1,0.1-0.3,0.2-0.4,0.2c-3.1-0.3-4.6,2.9-7.2,3.4
			c-3.3,0.6-3.6-3.3-6.1-4.2c-3-1-5.8-1.1-8.6,0.3c0,4.7,0,9.3,0,14c0,2,0,4,0,6c0,0.7,0,1.3,0,2c0,17.3,0,34.7,0,52
			c0,3.7,0,7.3,0,11c2.5-0.3,5.1-0.6,7.3-2c4.5-0.9,8.9-1.7,13.4-2.6c-0.1-0.1-0.2-0.2-0.3-0.3c0.1,0.1,0.2,0.2,0.3,0.3
			c2.8-0.4,3.9-3.4,6.3-4.3l0.3,0.3h0c1.3,1.1,2.6,2.2,4.2,3.6c0.6-2.3,1.1-4.3,2.6-5.6c-0.9-0.5-1.7-0.5-2.4-0.3
			c-0.3,0.1-0.6,0.2-0.8,0.4c0.3-0.2,0.5-0.3,0.8-0.4c0.7-0.2,1.5-0.2,2.4,0.3c0.5,0,1.1-0.1,1.6-0.1c1.2-0.1,2.4-0.1,3.5-0.2
			c-0.1-3-0.3-5.9-0.4-8.9c1.6-2.2,2.9-2.6,4.1,0.4c1.6,3.9,0.8,8,0.7,12c0,0.7-0.5,1.3-1.1,1.2c-0.6-0.1-1.2-0.5-1-1.4
			c0.4-1.9-1.4-2.3-2.2-3.3c-1.2,0.1-2.4,0.1-3.5,0.2c2.4,3.1-1.1,5.9-0.5,8.9c-0.3,3.1-1.4,5.4-4.8,6.1c-1.7,0.3-2.6,1.6-2.3,3.3
			c1,4.9-0.7,9.8-0.1,14.6c6,0,12,0,18,0c0.7,0,1.3,0,2,0c1.2-1.2-0.1-1.5-0.8-2.1c-0.4-0.6-0.8-1.3-1.2-1.9
			c-0.3-0.4-0.6-0.8-0.9-1.2c-0.1-1.6-0.2-3.2-0.4-4.7c-0.2-0.4-0.4-0.7-0.6-1.1c-1.4-5.2-3.1-10.4-0.9-15.9
			c4.4-3.7,2.4-9.2,3.6-13.9c0.7-2.8,1.5-4.2,4.1-2.5c3.5,2.2,3.9,0.1,4.2-2.5c3.2,2.9,3,6.7,3,10.5c-0.3,0.8-0.6,1.6-0.8,2.3
			c-0.8,2.5,0.9,4.6,1,7c-0.3,2.4-2.5,5.4,2,6.4c3.4,1.8,7.1,1.8,10.8,1.4c0.3,0,0.7,0,1,0c4,2.2,8.5,1.4,12.6,1.6
			c9.5,0.5,18.9,1.9,28.4,2.4c0.6,0.1,1.3,0.2,1.9,0.3c4.7,0.6,9.4,1.3,14,1.9c0.4,1,1.2,0.9,2,0.7c0.7,0,1.3-0.1,2-0.1
			c1,0,2,0.1,3,0.1c10,1.1,20,2.3,30,3.1c5.7,0.4,6.5-0.9,5.2-6.4c-1.2-5.1,1-9.9,0.9-14.8c0-1.9,1.8-1.9,3-1.6
			c2.1,0.4,4.2,0.9,6.2,1.7c6.6,2.6,8.1,2.3,11.7-3.2c2.6,2.3,2.9,4.9,2,8.3c-2,7.9-0.7,16.1-1,24.1c5.1,1.1,6.2-0.9,6.2-6
			C642.2,179.4,642.4,154.8,642.4,130.1z M455.5,83c-1,0.1-2.2-0.2-1.7-1.6c0.5-1.5,1.1-3.3,3.1-3.2c1.7,0.1,1,1.3,0.7,2.2
			C458.6,82.6,457,82.9,455.5,83z M478.5,82c-0.2-0.1-0.4-0.3-0.6-0.4C478.2,81.7,478.4,81.8,478.5,82z M613.2,94.9
			c0.3,0,0.6,0.1,0.9,0.3C613.8,95,613.5,94.9,613.2,94.9z M608.5,82.3C610,82,611.6,82,613,83c0.2,0.4,0.4,0.7,0.6,1.1
			c-0.1,1.5-0.1,3-0.2,4.5c-0.1,3.2-1.4,5.1-4.9,4.4c-0.7-0.4-1.3-0.8-2-1.2c-0.1,0.3-0.3,0.6-0.4,0.8c0.2-0.3,0.3-0.6,0.4-0.8l0,0
			c0-0.4-0.1-0.7-0.3-0.9h0c-1.2-2.6-0.7-5,0.4-7.5C607.2,83,607.8,82.7,608.5,82.3z M597.3,105.5c-0.4-0.6-0.7-1.1-1.2-1.6
			C596.6,104.3,597,104.9,597.3,105.5z M591.2,71.4c0,0.2-0.2,0.3-0.4,0.5C591,71.7,591.1,71.5,591.2,71.4z M459.2,131
			c-3.1-0.2-2.8-2.6-2.9-4.8c0-1.9,0.2-3.6,2.4-4.1c3.1,0.8,3,3.6,3.3,5.6C462.4,129.3,461.3,131.1,459.2,131z M459.9,114.2
			c0.9,0.7,2.2,1.5,1.9,2.7c-0.3,1.2-1.8,1.1-3,1.2c-3.9,0.5-7.5-1.2-11.3-1.1l0,0C451.5,113.7,457.5,112.3,459.9,114.2z
			 M457.8,174.6c0-0.1,0.1-0.2,0.1-0.3c0-0.8-0.3-1.4-1-1.5c0.7,0.1,1.1,0.7,1,1.5C457.9,174.4,457.8,174.5,457.8,174.6z
			 M460.5,181.1c0.4,0.4,0.9,0.8,1.3,1.3C461.3,181.9,460.8,181.5,460.5,181.1z M470.4,179.2c0.3-0.1,0.5-0.3,0.8-0.4
			C470.9,179,470.6,179.1,470.4,179.2z M473.8,141.6c-0.5,1.3-0.6,3-0.2,4.4c0.6,2,0.8,3.7-1.1,4.7c-1.4,0.8-3.3,0.8-4.8-0.1
			c-1.7-1-1.5-2.9-1.2-4.5c0.3-1.2,0.7-2.2-0.4-3.1c-0.2-0.2-0.5-0.5-0.7-0.7c-0.2-0.3-0.5-0.4-0.8-0.4c-0.8-1.7-2.7-1.7-4.1-2.5
			c-1-0.6-3-0.6-2.5-2.4c0.4-1.6,1.4-3,3.5-3c2.7,0,5.3-0.1,8-0.2C473.3,135.1,475.4,137.2,473.8,141.6z M468.5,110.9
			c-0.9-2.2-5.2-2.9-2.9-6.6c3.8,1.5,7,4.5,11.2,5c0.8,0.1,0.3,1.1,0.4,1.7C474.3,111,471.4,110.9,468.5,110.9z M504.2,108.4
			c-0.6,0.3-1.2,0.5-1.8,0.8c-0.7-0.1-1.3-0.2-2-0.2c-0.1,0.2-0.2,0.3-0.3,0.4c-0.2,0.3-0.5,0.5-0.7,0.7c0.3-0.2,0.5-0.4,0.7-0.7
			c0.1-0.1,0.2-0.3,0.3-0.4c-0.9-0.7-1.9-1.3-2.8-2c-1.3-5.2-1.6-10.7-4.1-15.6c1.6-0.2,3.3-0.3,4.9-0.5c2.7,0.1,5.3,0.2,8,0.3
			c0.9,2.2,5.1,2.4,4.6,3.9c-1.7,5,2.1,10.1-0.7,14.9c-0.3,0-0.5,0-0.8,0c-0.4-0.9-1.3-1-2.1-1.2C506.4,107.8,505.3,108,504.2,108.4
			z M508.3,175.1L508.3,175.1c0.2-0.2,0.4-0.3,0.6-0.5C508.7,174.8,508.5,174.9,508.3,175.1z M533.6,187.6c0.1,0.2,0.1,0.4,0.3,0.4
			C533.7,188,533.7,187.8,533.6,187.6z M582.3,192.5c-1.9-0.4-3.7-1-5.6-1.5c-0.3-1.9-0.9-3.4-3.3-2.7c-0.7,0-1.3,0-2-0.1
			c-0.1,0.1-0.2,0.2-0.3,0.4c-0.1,0.1-0.2,0.3-0.3,0.4c0.1-0.1,0.2-0.3,0.3-0.4c0.1-0.1,0.2-0.3,0.3-0.4c-1.2-0.7-1.9-1.8-2.2-3.1
			c1.8-4.4,4.8,0.4,7-0.9c0.3,0.9,1,1.3,1.9,1.5c0,0,0,0,0,0c1,0.6,1.8,0.3,2.5-0.5c0.9-0.4,1.9-0.8,2.8-1.2c0.7,0,1.4,0,1.7-0.9
			c0.3-0.2,0.4-0.4,0.3-0.8c0.2-0.4,0.6-0.8,0.7-1.2c0.2-1.2-1.5-2.5,0.1-3.6c0.8-0.5,1.6-0.2,2.2,0.4c1.3,1.2,1.5,3.4,0.7,4.1
			c-4.8,4.1,0.5,5.9,1.7,8.7v0c0.2,0.3,0.4,0.6,0.6,0.9h0l0,0.1C588.6,194.4,585.4,193.1,582.3,192.5z M570.2,176.9
			C570.2,176.9,570.1,176.9,570.2,176.9C570.1,176.9,570.2,176.9,570.2,176.9z M571.1,176c-0.2,0.1-0.4,0.1-0.5,0.2
			C570.7,176.1,570.9,176,571.1,176c0.8,0,1.3,0.4,1.4,1.1C572.4,176.4,571.9,176,571.1,176z M585.8,171.2c1.2-0.2,2.4-0.1,2.5,1.5
			c0.1,1.1-0.9,1.6-1.4,2.1c-1.5-0.2-2.5-0.9-2.8-2C583.6,171.6,584.8,171.3,585.8,171.2z M591.6,191.6L591.6,191.6
			C591.7,191.7,591.6,191.7,591.6,191.6z M611.2,168c0.2,0.3,0.2,0.6,0.2,0.8C611.5,168.6,611.4,168.4,611.2,168
			c-0.4,0.6-0.8,1.3-1.1,1.9c-0.6,0.4-1.1,0.7-1.7,1.1c-0.4,0.3-0.8,0.6-1.1,0.9c0,0,0,0,0-0.1c-1.8,0.1-3.7,0.2-5.5,0.4
			c-1.1-0.5-2.2-1-3.3-1.4c-0.3,1.2-1.1,1.6-1.9,1.8c0.9-0.2,1.6-0.6,1.9-1.8c-0.3-1.6-1.3-3.1-2.9-2.4c-2.2,0.9-1,3.1-1,4.7
			c0,0.7,0,1.3,0,2c0,0.3,0,0.7,0,1c-0.1,2.2-0.2,4.4-0.3,6.7c-0.3,0-0.6,0.1-0.9,0.3c-0.3-0.2-0.5-0.3-0.8-0.3
			c-0.2,0.5-0.9,0.8-1.4,1.1c0.5-0.4,1.2-0.7,1.4-1.1c-0.7-1.8-1.4-3.7-1.2-5.7c0.8-7.8,0.2-15.4-2.7-22.7c-0.3-0.7-0.2-1.6-0.3-2.5
			c-0.1-1.7,0.5-4.4-1.9-4.1c-1.6,0.2-2.8,3.4-1.8,5c2.9,4.6-0.5,6-3.4,7.9c-1.4,0.9-3.2,1.5-4,3.3c2.3,0.5,4.4,0.2,6.4-0.9
			c0.8-0.4,1.9-1.5,2.6-0.3c0.8,1.3-0.4,2.1-1.4,2.7c-2.1,1.3-4.3,2.5-6.4,3.8c-5.7,2.2-10.9,0.2-16-2.2c-0.2,0-0.3,0.1-0.4,0
			c0.1,0,0.2,0,0.4,0c-0.3-0.2-0.7-0.5-1-0.7c-9-7-11.7-9.8-13.7-14.5c3.9,1.4,7.8,2.1,10.9,4.1c4.7,2.9,7.4-1,10.9-2.3
			c1.4-0.5,0.2-1.8-0.6-2.1c-1.3-0.6-2.9-1.3-4.3-1.1c-11.8,2.2-17.8-6.3-24.4-13.3c-1.9-2-3-2.4-4.6-0.6c-2.8,3.2-7.8,4.9-6.9,11
			c0.2,1.6-3.4,3.9-5.4,5.7c-1.7,1.6-3-0.1-4.3-1c-1.2-0.8-2.2-2.7-3.8-1.6c-1.7,1.2-0.3,3,0,4.5c1.3,5.7,5.3,9.7,8.8,13.9
			c1.8,2.2,3,4.7,4.2,7.2c0.1,2.2,0.8,3.9,3.1,4.7c0.2,0.2,0.4,0.3,0.7,0.2c0.4-0.2,0.7-0.5,1.1-0.7c-0.4,0.2-0.7,0.5-1.1,0.7
			l0.1,0.1c0.3,0.4,0.7,0.7,1,1.1c0.1,0.6,0.2,1.3,0.3,1.9c-0.2,0.2-0.3,0.5-0.2,0.8c-0.7,0.7-1.4,1.4-2.1,2.1
			c0.7,0,1.5,0.1,2.2,0.1l0,0l0,0l0,0c0.1,0.1,0.1,0.2,0.2,0.3c0-0.1-0.1-0.2-0.2-0.3c-0.7,0-1.5-0.1-2.2-0.1
			c-1.9,0.4-3.9,0.8-5.8,1.2c-0.3,0.6-0.7,0.9-1,0.9c0.3,0,0.7-0.3,1-0.9c-0.7,0-1.3,0-2,0c-3-0.1-5.9-0.1-8.9-0.2
			c-0.3-0.3-0.6-0.7-0.9-1c-0.5-2.4-1.2-4.5,0.2-7c2-3.5-2-5.8-2.3-8.9c-0.3-1.6-0.9-3-2.1-4c-3-5.3-2.7-10.7-0.8-16.2
			c1-3,1.6-5.7,1.1-9.1c-0.8-6.1-0.3-12.3-0.3-18.4c0-2,1.2-3,3-3.4c1,0,2,0.2,2.9,0.1c3.9-0.5,5.7-3,7.2-6.4
			c1.6-3.7-1.6-3.9-3.3-5.3c-1.1-0.9-1.8-1.9-2-3.3l0,0c-1.2-2.9,1.3-6.1-0.8-8.9c2.1-0.4,3.9-1.3,5.2-3c1.1-0.1,2.2,0,2.9-1
			c2.6,0.1,4-1.1,3.9-3.7c-0.1-1.5,0.2-2.9,1.1-4.1c0.6,0,1.3-0.1,1.9-0.1c1,1.1,2.1,1.3,3.1,0c1.5-0.4,2.7,0.3,3.9,0.9
			c1.1,1.6,2.6,0.8,4,0.9c1,0.5,1.9,0.9,2.9,1.4c0.3-1.4-0.3-2.6-0.9-3.9c0.7,1.2,1.2,2.4,0.9,3.9c0.4,1.1,4,2.7-0.6,2.9
			c-0.8,0-4.1,0.8-0.2,2.1c1.1,0.3-0.1,1.3-0.3,1.3c-3.5,0.4-5.1,7-10,3c-0.2-0.1-0.6,0-0.8,0.1c-2.2,1.5-3.2,3.7-3.7,6.3
			c-0.2,1,0.7,1.7,1.4,1.8c2.5,0.1,2.7-2.3,3.8-3.9c2.9,5.2,4,5.6,8.8,3.7c1-0.4,1.9-0.3,2.8,0.3c1.3,0.9,2.8,2.7,4.3,1.4
			c1.7-1.5-0.3-3.4-0.6-5.1c-0.1-0.8-0.6-1.5-1-2.3c-0.6-1.3-1.8-2.9,0.6-3.6c2-0.6,3.2,0.6,3.4,2.5c0.2,1.8,0.1,3.7,1,5.3
			c1.2,2,0.6,6.6,5.3,3.5c0.9-0.6,1.5,0.7,1.5,1.3c0.1,2.7,2,4.5,3.2,6.6c1.3,2.4-0.8,9.9-2.9,9.6c-3.4-0.5-2,1.2-1.5,2.4
			c0.5,1.2,1.6,2.1,2.3,3.2c2.7,4.7,2.7,7.2,0.2,12.3c-0.8,1.5-1.2,2.9,0.7,3.7c1.9,0.7,2.1-0.7,2.3-2.1c0.5-3.1,1.9-4.9,5.6-4.8
			c1.7,0,5.2-0.2,2.9-4.5c-2.3-4.2,0.7-14.3,3.2-17.4c1-1.3,1.7-3.8,0.3-6.1c-1.2-1.8-2.1-3.4-4.6-2.5c-4.4,1.7-7.3-0.1-9.6-3.8
			c-2.7-4.2-4.9-8.6-4.8-13.8c0.1-2.2-0.4-4.9-2.1-5.9c-2.9-1.7-3.7-4.4-4.8-7.1c0.1-0.3,0-0.6-0.2-0.8c0-0.7,0-1.3-0.1-2
			c0.1-2.3,0.9-4,3.5-4.2c4.4-0.7,3.7-5,5.4-7.6c2.5-3,4-7.2,8.3-8.4c1.8,0.5,3.5,1,5.3,1.5c0.5,0.2,1,0.5,1.5,0.7
			c0.4,0.3,0.8,0.6,1.2,1c0.3,0.3,0.7,0.7,1,1c3.4,2.1,7.2,0.4,10.8,1.1c0.4,0.1,0.9,0.2,1.2,0.4c-0.4-0.1-0.8-0.3-1.2-0.4
			c0.8,2,1.6,4,2.4,5.9c-0.1,1.3-0.2,2.6-0.3,3.9l0,0c-0.8,0.7-1,1.4,0,2.1c0.1,1.3,0.2,2.6,0.3,4c1.2,0.7,1.9,1.2,2.1,1.7
			c-0.3-0.5-1-1.1-2.1-1.7c-0.4,1.7-1.5,3.2-1,5c-0.5,2.7-2.4,5-2,8c0.2,0,0.5,0,0.7-0.1c-0.2,0-0.5,0-0.7,0.1
			c-0.2,1.9-0.8,3.9,1.2,5.7c0.9-2.9,2.3-5,5.5-2.5c0,1.4,1.9,3.3-0.9,4.1l0,0c-0.9,0.2-1,0.9-0.9,1.7c-0.1,2.2,1.7,3.4,2.7,5l0,0
			c0,2.3,0.1,4.5,0.1,6.8c0,1.2-0.5,2.9,1,3.5c1.9,0.7,1.6-1.5,2.4-2.3c0.3-0.3,0.6-0.8,0.9-1.1c2.2-1.1,2-6.1,5.3-4.5
			c2.9,1.3,1,4.9,1.1,7.6c0,2.1-0.5,4.9,3.2,3.1c2.5,4.4-1,6.9-3.1,9.9c-0.9,0.3-1.8,0.9-2.7,1c-1.2,0.1-3-1.5-3.2,1.2
			c-0.2,2,0.3,4,2.6,3.7c2-0.2,2,1.8,3.3,2.2c1.7,0.6,4.1-2.6,5.2,1c0.1,1.4-1.9,2.6-0.3,4c0,1.3,0,2.6,0,3.9
			c0.4,0.4,0.8,0.7,1.1,1.1c0.4,0.3,0.8,0.6,1.2,0.9c0,0.3,0,0.7,0,1c0,2.2,1,3.8,2.6,5.1c0.1,1,0.2,2,0.3,2.9
			C616.5,159.4,611.6,162.9,611.2,168z M608.4,130.1L608.4,130.1L608.4,130.1L608.4,130.1z M632.2,149.5c0-0.1,0-0.3,0-0.4
			c-0.3,0.4-0.6,0.7-0.8,1.1c-0.9,0.6-1.8,1.1-2.6,1.7c-2.5,1.9-4.9,4.4-8.3,1.6c-0.6-0.2-1.2-0.4-1.8-0.5c0-0.6,0-1.1,0-1.7
			c0.3-0.6,0.6-1.2,0.9-1.9c-0.2-0.5-0.4-1-0.4-1.4c0-0.2,0-0.4,0-0.6c0,0.2,0,0.4,0,0.6c0.1,0.4,0.2,0.9,0.4,1.4
			c1.1-1.2,1.9-2.5,1.8-4.2c0.6-8.1,1-10.8,11.1-8c-1.6,2.4-1.3,4.7,0.2,7c-0.1,1.6-0.3,3.3-0.4,4.9
			C632.2,149.2,632.2,149.4,632.2,149.5z"/>
		<path class="st1" d="M607.1,204c-1.6,0.2-3.3-0.5-4.9-0.5c-11.1-0.2-22.1-2.3-33.6-1.3c2.1,3.1,4.1,5.2,7.9,4.9
			c1.7-0.1,3.7,0.4,3.9,2.9c12.3,0,24.7,0,37,0C614.6,207,612.2,203.3,607.1,204z"/>
		<path class="st1" d="M509.4,206.6c-2.2-1-4.7,0.1-6.9-0.7c-4.3-1.6-5.8,0.2-6.1,4.2c5.3,0,10.7,0,16,0
			C513.3,207.3,510.9,207.3,509.4,206.6z"/>
		<path class="st1" d="M528.4,210.1c0.7,0,1.3,0,2,0C529.7,208.6,529.1,208.6,528.4,210.1z"/>
		<path class="st1" d="M611,144.5c0.5,0.5,1.1,0.4,1.4-0.4c-0.4-0.4-0.8-0.7-1.1-1.1C610.6,143.4,610.5,144,611,144.5z"/>
		<path class="st1" d="M499.6,177.1c0.3-0.8,0.6-1.6,0.8-2.3C499.6,175.3,499.4,176.1,499.6,177.1z"/>
		<path class="st1" d="M630,199.4c0.8-2,1.7-4,1.4-5.6c-0.2-3.3,0.3-6.4-3.5-6.7c-4-0.3-3.9,2.7-4.4,5.5c-0.6,3.5,2,6.4,1.4,10.1
			c-0.2,1.3,1.9,2.7,3.8,2.3c2.5-0.6,1.5-2.2,0.5-3.4C628.2,200.3,629.8,200.1,630,199.4z"/>
		<path class="st1" d="M511.3,196.7c-3.2-0.7-6.4-1.1-9.7-1.5c-2-0.2-3.1,0.9-3.2,2.9c0,1.8,0.9,2.8,2.7,2.9c1.8,0.1,3.6,0,5.5,0
			c0,0,0,0,0,0c1.3,0,2.7,0,4,0c1.5,0,3.3,0.1,3.4-1.9C514.1,197.6,512.5,196.9,511.3,196.7z"/>
		<path class="st1" d="M636.5,97.5c-0.1,1.5,1,2.5,2.5,2.5c1.5,0,2.3-1.1,2.4-2.6c0-1.4-0.4-2.9-2-2.8
			C637.8,94.6,636.6,95.9,636.5,97.5z"/>
		<path class="st1" d="M583,126.6c-1.4,0.3-2.6,1.5-2.5,3.2c0.1,1.1,0.8,2,1.8,2c1.6-0.1,2-1.4,2-3.4
			C584.4,127.9,583.8,126.4,583,126.6z"/>
	</g>
	<g>
		<path class="st0" d="M357.2,171.6c10,1.1,20,2.3,30,3.1c5.7,0.4,6.5-0.9,5.2-6.4c-1.2-5.1,1-9.9,0.9-14.8c0-1.9,1.8-1.9,3-1.6
			c2.1,0.4,4.2,0.9,6.2,1.7c6.6,2.6,8.1,2.3,11.7-3.2c2.6,2.3,2.9,4.9,2,8.3c-2,7.9-0.7,16.1-1,24.1c-6.3,0-12.7,0-19,0
			c-2.8-3.1-5.2-6.9-10.3-6.1c-1.6,0.2-3.3-0.5-4.9-0.5c-11.1-0.2-22.1-2.3-33.6-1.3c2.1,3.1,4.1,5.2,7.9,4.9
			c1.7-0.1,3.7,0.4,3.9,2.9c-16.7,0-33.3,0-50,0c-0.7-1.5-1.3-1.5-2,0c-5.3,0-10.7,0-16,0c0.9-2.8-1.5-2.8-3-3.5
			c-2.2-1-4.7,0.1-6.9-0.7c-4.3-1.6-5.8,0.2-6.1,4.2c-2,0-4,0-6,0c1.2-1.2-0.1-1.5-0.8-2.1c-0.4-0.6-0.8-1.3-1.2-1.9
			c-0.3-0.4-0.6-0.8-0.9-1.2c-0.1-1.6-0.2-3.2-0.4-4.7c-0.2-0.4-0.4-0.7-0.6-1.1c-1.4-5.2-3.1-10.4-0.9-15.9
			c4.4-3.7,2.4-9.2,3.6-13.9c0.7-2.8,1.5-4.2,4.1-2.5c3.5,2.2,3.9,0.1,4.2-2.5c3.2,2.9,3,6.7,3,10.5c-0.9,0.6-1,1.4-0.8,2.3
			c-0.8,2.5,0.9,4.6,1,7c-0.3,2.4-2.5,5.4,2,6.4c3.4,1.8,7.1,1.8,10.8,1.4c0.3,0,0.7,0,1,0c4,2.2,8.5,1.4,12.6,1.6
			c9.5,0.5,18.9,1.9,28.4,2.4c0.6,0.1,1.3,0.2,1.9,0.3c4.7,0.6,9.4,1.3,14,1.9c0.4,1,1.2,0.9,2,0.7c0.7,0,1.3-0.1,2-0.1
			C355.2,171.5,356.2,171.6,357.2,171.6z M410.3,166.5c-0.2-3.3,0.3-6.4-3.5-6.7c-4-0.3-3.9,2.7-4.4,5.5c-0.6,3.5,2,6.4,1.4,10.1
			c-0.2,1.3,1.9,2.7,3.8,2.3c2.5-0.6,1.5-2.2,0.5-3.4c-1.1-1.3,0.4-1.5,0.7-2.2C409.7,170.1,410.6,168.1,410.3,166.5z M285.4,173.7
			C285.4,173.7,285.4,173.7,285.4,173.7c1.3,0,2.7,0,4,0c1.5,0,3.3,0.1,3.4-1.9c0.1-1.6-1.5-2.3-2.7-2.5c-3.2-0.7-6.4-1.1-9.7-1.5
			c-2-0.2-3.1,0.9-3.2,2.9c0,1.8,0.9,2.8,2.7,2.9C281.8,173.8,283.6,173.7,285.4,173.7z"/>
		<path class="st0" d="M255.3,150c0.5,0,1.1-0.1,1.6-0.1c2.4,3.1-1.1,5.9-0.5,8.9c-0.3,3.1-1.4,5.4-4.8,6.1
			c-1.7,0.3-2.6,1.6-2.3,3.3c1,4.9-0.7,9.8-0.1,14.6c-8.5,0-17-0.1-25.5,0.1c-2.2,0-2.6-0.4-2.6-2.6c0.2-6.5,0.1-13,0.1-19.5
			c2.5-0.3,5.1-0.6,7.3-2c4.5-0.9,8.9-1.7,13.4-2.6c2.8-0.4,3.9-3.4,6.3-4.3l0.3,0.3c1.3,1.1,2.6,2.2,4.2,3.6
			C253.3,153.3,253.7,151.4,255.3,150z"/>
		<path class="st0" d="M409.2,63.6c3.9,1.2,7.9,1.8,12,2.2c0,5.3,0,10.7,0,16c-3.6,0-2.9,4-4.9,5.6c-2.2,1.7-3.8,3.6-5.2-0.6
			c-1.3-3.9-4.8-3.3-7.4-2.7c-3.5,0.8-6.8,0.7-10.3,0.7c-1-1-2.1-2.1-3.1-3.1c0-1.3-0.5-2.8,0.9-3.8c1.4,0.2,2-0.6,2.1-1.9
			c1.7-2.2,1.7-4.6,0.7-7.1c1.1-1.3,2.2-2.5,3.2-3.8c1-0.4,1.9-0.9,2.9-1.3c1,0,2,0,3-0.1c1.3,0,2.7,0,4,0
			C407.9,63.6,408.6,63.6,409.2,63.6z M420.2,70c0-1.4-0.4-2.9-2-2.8c-1.6,0.1-2.7,1.4-2.8,3c-0.1,1.5,1,2.5,2.5,2.5
			C419.3,72.6,420.1,71.5,420.2,70z"/>
		<path class="st0" d="M243.5,76.1c-0.1,0.1-0.3,0.2-0.4,0.2c-3.1-0.3-4.6,2.9-7.2,3.4c-3.3,0.6-3.6-3.3-6.1-4.2
			c-3-1-5.8-1.1-8.6,0.3c0-2,0-4,0-6c6.8,0.6,13-0.5,18.5-5c2.5-2.1,5.8-2.2,9-2c2.7,0.1,4.1-0.5,2.9-3.7c-0.6-1.4-0.6-3.4-0.1-4.9
			c0.8-2.3,1.6-0.1,2.4,0.3c0.5,1.4,1.1,2.9,1.6,4.3c-0.3,2.1,1.4,3.5,2,5.2c-0.3,0.9-0.6,1.8-0.9,2.8c0,1,0,2-0.1,3
			c-0.5,6.5-2.6,7.9-7.8,4.5C245.4,72.2,244.6,73.8,243.5,76.1z"/>
		<path class="st0" d="M421.2,102.8c-1.1-0.1-2.4,0.1-3.4-0.3c-1.2-0.5-3.3-0.7-3.2-2.4c0.1-1.5,1.5-2.2,3.2-2.5
			c1.2-0.2,2.2-1.2,3.3-1.8C421.2,98.1,421.2,100.4,421.2,102.8z"/>
		<path class="st0" d="M373.4,145.8c0,0.7,0,1.3,0,2c0,0.3,0,0.7,0,1c-0.1,2.2-0.2,4.4-0.3,6.7c-0.3,0-0.6,0.1-0.9,0.3
			c-0.3-0.2-0.5-0.3-0.8-0.3c-0.7-1.8-1.4-3.7-1.2-5.7c0.8-7.8,0.2-15.4-2.7-22.7c-0.3-0.7-0.2-1.6-0.3-2.5
			c-0.1-1.7,0.5-4.4-1.9-4.1c-1.6,0.2-2.8,3.4-1.8,5c2.9,4.6-0.5,6-3.4,7.9c-1.4,0.9-3.2,1.5-4,3.3c2.3,0.5,4.4,0.2,6.4-0.9
			c0.8-0.4,1.9-1.5,2.6-0.3c0.8,1.3-0.4,2.1-1.4,2.7c-2.1,1.3-4.3,2.5-6.4,3.8c-5.7,2.2-10.9,0.2-16-2.2c-0.3-0.2-0.7-0.5-1-0.7
			c-9-7-11.7-9.8-13.7-14.5c3.9,1.4,7.8,2.1,10.9,4.1c4.7,2.9,7.4-1,10.9-2.3c1.4-0.5,0.2-1.8-0.6-2.1c-1.3-0.6-2.9-1.3-4.3-1.1
			c-11.8,2.2-17.8-6.3-24.4-13.3c-1.9-2-3-2.4-4.6-0.6c-2.8,3.2-7.8,4.9-6.9,11c0.2,1.6-3.4,3.9-5.4,5.7c-1.7,1.6-3-0.1-4.3-1
			c-1.2-0.8-2.2-2.7-3.8-1.6c-1.7,1.2-0.3,3,0,4.5c1.3,5.7,5.3,9.7,8.8,13.9c1.8,2.2,3,4.7,4.2,7.2c0.1,2.2,0.8,3.9,3.1,4.7
			c0.2,0.2,0.4,0.3,0.7,0.2l0.1,0.1c0.3,0.4,0.7,0.7,1,1.1c0.1,0.6,0.2,1.3,0.3,1.9c-0.2,0.2-0.3,0.5-0.2,0.8
			c-0.7,0.7-1.4,1.4-2.1,2.1c-1.9,0.4-3.9,0.8-5.8,1.2c-0.7,0-1.3,0-2,0c-3-0.1-5.9-0.1-8.9-0.2c-0.3-0.3-0.6-0.7-0.9-1
			c-0.5-2.4-1.2-4.5,0.2-7c2-3.5-2-5.8-2.3-8.9c-0.3-1.6-0.9-3-2.1-4c-3-5.3-2.7-10.7-0.8-16.2c1-3,1.6-5.7,1.1-9.1
			c-0.8-6.1-0.3-12.3-0.3-18.4c0-2,1.2-3,3-3.4c1,0,2,0.2,2.9,0.1c3.9-0.5,5.7-3,7.2-6.4c1.6-3.7-1.6-3.9-3.3-5.3
			c-1.1-0.9-1.8-1.9-2-3.3c-1.2-2.9,1.3-6.1-0.8-8.9c2.1-0.4,3.9-1.3,5.2-3c1.1-0.1,2.2,0,2.9-1c2.6,0.1,4-1.1,3.9-3.7
			c-0.1-1.5,0.2-2.9,1.1-4.1c0.6,0,1.3-0.1,1.9-0.1c1,1.1,2.1,1.3,3.1,0c1.5-0.4,2.7,0.3,3.9,0.9c1.1,1.6,2.6,0.8,4,0.9
			c1,0.5,1.9,0.9,2.9,1.4c0.4,1.1,4,2.7-0.6,2.9c-0.8,0-4.1,0.8-0.2,2.1c1.1,0.3-0.1,1.3-0.3,1.3c-3.5,0.4-5.1,7-10,3
			c-0.2-0.1-0.6,0-0.8,0.1c-2.2,1.5-3.2,3.7-3.7,6.3c-0.2,1,0.7,1.7,1.4,1.8c2.5,0.1,2.7-2.3,3.8-3.9c2.9,5.2,4,5.6,8.8,3.7
			c1-0.4,1.9-0.3,2.8,0.3c1.3,0.9,2.8,2.7,4.3,1.4c1.7-1.5-0.3-3.4-0.6-5.1c-0.1-0.8-0.6-1.5-1-2.3c-0.6-1.3-1.8-2.9,0.6-3.6
			c2-0.6,3.2,0.6,3.4,2.5c0.2,1.8,0.1,3.7,1,5.3c1.2,2,0.6,6.6,5.3,3.5c0.9-0.6,1.5,0.7,1.5,1.3c0.1,2.7,2,4.5,3.2,6.6
			c1.3,2.4-0.8,9.9-2.9,9.6c-3.4-0.5-2,1.2-1.5,2.4c0.5,1.2,1.6,2.1,2.3,3.2c2.7,4.7,2.7,7.2,0.2,12.3c-0.8,1.5-1.2,2.9,0.7,3.7
			c1.9,0.7,2.1-0.7,2.3-2.1c0.5-3.1,1.9-4.9,5.6-4.8c1.7,0,5.2-0.2,2.9-4.5c-2.3-4.2,0.7-14.3,3.2-17.4c1-1.3,1.7-3.8,0.3-6.1
			c-1.2-1.8-2.1-3.4-4.6-2.5c-4.4,1.7-7.3-0.1-9.6-3.8c-2.7-4.2-4.9-8.6-4.8-13.8c0.1-2.2-0.4-4.9-2.1-5.9c-2.9-1.7-3.7-4.4-4.8-7.1
			c0.1-0.3,0-0.6-0.2-0.8c0-0.7,0-1.3-0.1-2c0.1-2.3,0.9-4,3.5-4.2c4.4-0.7,3.7-5,5.4-7.6c2.5-3,4-7.2,8.3-8.4
			c1.8,0.5,3.5,1,5.3,1.5c0.5,0.2,1,0.5,1.5,0.7c0.4,0.3,0.8,0.6,1.2,1l0,0c0.3,0.3,0.7,0.7,1,1c3.4,2.1,7.2,0.4,10.8,1.1
			c0.8,2,1.6,4,2.4,5.9c-0.1,1.3-0.2,2.6-0.3,3.9c-0.8,0.7-1,1.4,0,2.1c0.1,1.3,0.2,2.6,0.3,4c-0.4,1.7-1.5,3.2-1,5
			c-0.5,2.7-2.4,5-2,8c-0.2,1.9-0.8,3.9,1.2,5.7c0.9-2.9,2.3-5,5.5-2.5c0,1.4,1.9,3.3-0.9,4.1c-0.9,0.2-1,0.9-0.9,1.7
			c-0.1,2.2,1.7,3.4,2.7,5c0,2.3,0.1,4.5,0.1,6.8c0,1.2-0.5,2.9,1,3.5c1.9,0.7,1.6-1.5,2.4-2.3c0.3-0.3,0.6-0.8,0.9-1.1
			c2.2-1.1,2-6.1,5.3-4.5c2.9,1.3,1,4.9,1.1,7.6c0,2.1-0.5,4.9,3.2,3.1c2.5,4.4-1,6.9-3.1,9.9c-0.9,0.3-1.8,0.9-2.7,1
			c-1.2,0.1-3-1.5-3.2,1.2c-0.2,2,0.3,4,2.6,3.7c2-0.2,2,1.8,3.3,2.2c1.7,0.6,4.1-2.6,5.2,1c0.1,1.4-1.9,2.6-0.3,4
			c0,1.3,0,2.6,0,3.9c-0.7,0.4-0.8,1-0.3,1.5c0.5,0.5,1.1,0.4,1.4-0.4c0.4,0.3,0.8,0.6,1.2,0.9c0,0.3,0,0.7,0,1c0,2.2,1,3.8,2.6,5.1
			c0.1,1,0.2,2,0.3,2.9c0,5.3-4.9,8.8-5.3,13.9c-0.4,0.6-0.8,1.3-1.1,1.9c-0.6,0.4-1.1,0.7-1.7,1.1c-0.4,0.3-0.8,0.6-1.2,1l0.1-0.1
			c-1.8,0.1-3.7,0.2-5.5,0.4c-1.1-0.5-2.2-1-3.3-1.4c-0.3-1.6-1.3-3.1-2.9-2.4C372.3,141.9,373.5,144.1,373.4,145.8z M363.2,101
			c0-0.5-0.6-1.9-1.3-1.8c-1.4,0.3-2.6,1.5-2.5,3.2c0.1,1.1,0.8,2,1.8,2C362.8,104.3,363.2,103,363.2,101z"/>
		<path class="st0" d="M276.5,79.7c-1.3-5.2-1.6-10.7-4.1-15.6c1.6-0.2,3.3-0.3,4.9-0.5c2.7,0.1,5.3,0.2,8,0.3
			c0.9,2.2,5.1,2.4,4.6,3.9c-1.7,5,2.1,10.1-0.7,14.9c-0.3,0-0.5,0-0.8,0c-0.4-0.9-1.3-1-2.1-1.2c-0.9-1.1-2-0.9-3.1-0.5
			c-0.6,0.3-1.2,0.5-1.8,0.8c-0.7-0.1-1.3-0.2-2-0.2C278.3,81,277.4,80.3,276.5,79.7z"/>
		<path class="st0" d="M400.1,117.8c0.6-8.1,1-10.8,11.1-8c-1.6,2.4-1.3,4.7,0.2,7c-0.1,1.6-0.3,3.3-0.4,4.9
			c-0.3,0.4-0.6,0.7-0.8,1.1c-0.9,0.6-1.8,1.1-2.6,1.7c-2.5,1.9-4.9,4.4-8.3,1.6c-0.6-0.2-1.2-0.4-1.8-0.5c0-0.6,0-1.1,0-1.7
			c0.3-0.6,0.6-1.2,0.9-1.9C399.4,120.7,400.2,119.5,400.1,117.8z"/>
		<path class="st0" d="M243.4,114.7c-0.8-1.7-2.7-1.7-4.1-2.5c-1-0.6-3-0.6-2.5-2.4c0.4-1.6,1.4-3,3.5-3c2.7,0,5.3-0.1,8-0.2
			c3.9,1.2,6,3.3,4.4,7.7c-0.5,1.3-0.6,3-0.2,4.4c0.6,2,0.8,3.7-1.1,4.7c-1.4,0.8-3.3,0.8-4.8-0.1c-1.7-1-1.5-2.9-1.2-4.5
			c0.3-1.2,0.7-2.2-0.4-3.1c-0.2-0.2-0.5-0.5-0.7-0.7C244,114.8,243.8,114.7,243.4,114.7z"/>
		<path class="st0" d="M364.3,155c0.2-0.4,0.6-0.8,0.7-1.2c0.2-1.2-1.5-2.5,0.1-3.6c0.8-0.5,1.6-0.2,2.2,0.4
			c1.3,1.2,1.5,3.4,0.7,4.1c-4.8,4.1,0.5,5.9,1.7,8.7c0.2,0.3,0.4,0.6,0.6,0.9l0,0.1c-2.8,2.6-6,1.3-9.1,0.8c-1.9-0.4-3.7-1-5.6-1.5
			c-0.3-1.9-0.9-3.4-3.3-2.7c-0.7,0-1.3,0-2-0.1c-1.2-0.7-1.9-1.8-2.2-3.1c1.8-4.4,4.8,0.4,7-0.9c0.3,0.9,1,1.3,1.9,1.5
			c0,0-0.1-0.1-0.1-0.1c1,0.7,1.8,0.4,2.6-0.5c0.9-0.4,1.9-0.8,2.8-1.2c0.7,0,1.4,0,1.7-0.9C364.2,155.6,364.4,155.3,364.3,155z"/>
		<path class="st0" d="M387.3,65.6c-0.7-0.4-1.3-0.8-2-1.2l0,0c0-0.4-0.1-0.7-0.3-0.9c-1.2-2.6-0.7-5,0.4-7.5
			c0.6-0.4,1.3-0.8,1.9-1.1c1.6-0.2,3.1-0.2,4.5,0.7c0.2,0.4,0.4,0.7,0.6,1.1c-0.1,1.5-0.1,3-0.2,4.5
			C392.1,64.4,390.8,66.3,387.3,65.6z"/>
		<path class="st0" d="M260.1,140.8c1.6-2.2,2.9-2.6,4.1,0.4c1.6,3.9,0.8,8,0.7,12c0,0.7-0.5,1.3-1.1,1.2c-0.6-0.1-1.2-0.5-1-1.4
			c0.4-1.9-1.4-2.3-2.2-3.3C260.3,146.7,260.2,143.7,260.1,140.8z"/>
		<path class="st0" d="M244.4,77c3.8,1.5,7,4.5,11.2,5c0.8,0.1,0.3,1.1,0.4,1.7c-2.9,0-5.8-0.1-8.7-0.1
			C246.4,81.4,242.1,80.6,244.4,77z"/>
		<path class="st0" d="M236.5,53.1c0.9,2.2-0.7,2.4-2.1,2.6c-1,0.1-2.2-0.2-1.7-1.6c0.5-1.5,1.1-3.3,3.1-3.2
			C237.5,51.1,236.8,52.2,236.5,53.1z"/>
		<path class="st0" d="M226.3,89.7c4-3.3,10-4.8,12.4-2.8c0.9,0.7,2.2,1.5,1.9,2.7c-0.3,1.2-1.8,1.1-3,1.2
			C233.8,91.3,230.1,89.6,226.3,89.7C226.3,89.7,226.3,89.7,226.3,89.7z"/>
		<path class="st0" d="M237.7,94.8c3.1,0.8,3,3.6,3.3,5.6c0.3,1.5-0.8,3.4-2.9,3.2c-3.1-0.2-2.8-2.6-2.9-4.8
			C235.2,97,235.4,95.2,237.7,94.8z"/>
		<path class="st0" d="M365.6,147.5c-1.5-0.2-2.5-0.9-2.8-2c-0.3-1.2,0.8-1.5,1.8-1.6c1.2-0.2,2.4-0.1,2.5,1.5
			C367.1,146.5,366.2,147,365.6,147.5z"/>
	</g>
</g>
<g>
</g>
<g>
</g>
<g>
</g>
<g>
</g>
<g>
</g>
<g>
</g>
<g>
</g>
<g>
</g>
<g>
</g>
<g>
</g>
<g>
</g>
<g>
</g>
<g>
</g>
<g>
</g>
<g>
</g>
</svg>
