<?xml version="1.0" encoding="utf-8"?>
<!-- Generator: Adobe Illustrator 17.1.0, SVG Export Plug-In . SVG Version: 6.00 Build 0)  -->
<!DOCTYPE svg PUBLIC "-//W3C//DTD SVG 1.1//EN" "http://www.w3.org/Graphics/SVG/1.1/DTD/svg11.dtd">
<svg version="1.1" id="Layer_1" xmlns="http://www.w3.org/2000/svg" xmlns:xlink="http://www.w3.org/1999/xlink" x="0px" y="0px"
	 viewBox="0 0 641.1 250.3" style="enable-background:new 0 0 641.1 250.3;" xml:space="preserve">
<style type="text/css">
	.st0{fill:#010000;}
	.st1{fill:#FC0000;}
	.st2{fill:#F60202;}
</style>
<g>
	<g>
		<path class="st0" d="M0.2,193.2c0-8.7,0-17.3,0-26c3.3,0.2,6.6-0.4,9.9,0.4c7,1.7,9.2,0.9,12.2-5.8c3.4-7.5,8.8-13.8,16-16.2
			c10.1-3.3,11.8-9.4,11-18.6c-0.5-5.9,5.8-14.2,10.3-13.5c5.9,0.9,10.1-1.8,14.8-3.9c4.4-2,7.7-10,4.7-13.6
			c-3.7-4.4-4.1-11.6-11.2-13c-1.1-0.2-1.9-1.5-1.7-2.7c0.6-4.7-1.8-8.6-4.2-12c-5.1-7.4-4.9-15.5-3-23.4
			C62.6,30.2,71.5,19,84.6,11.6c10.1-5.7,20.9-6.9,32.1-4c2.4,0.6,4.7,2.5,7.1,1.4c2.7-1.2,0.6-4.3,1.6-6.3c0.4-0.7,0.5-1.6,0.7-2.4
			c7,0,14,0,21,0c0.3,3.4-0.9,6.5-2.3,9.6c-1.3,2.8-1.9,5.6,0.3,8.3c0.6,0.7,1.1,1.3,2.1,0.9c0.9-0.4,1-1.3,0.7-2.1
			c-1.2-2.9-0.7-5.7-0.5-9c2.7,2.9,1.8,6,1.6,8.9c-0.4,6.3,3,9.8,7.7,12.9c2.8,1.9,4.2,1,4.4-2.1c0.7-9.1,1.3-18.1,2-27.2
			c10.8,0,21.7,0.2,32.5-0.1c3.8-0.1,5.2,0.8,4.5,4.6c-0.1,0.8,0,1.7,0,2.5c-3.7,1.1-8,0.9-10.1,5.2c-1,2-1,3,1.7,2.9
			c2.8-0.1,5.6,0,8.4-0.1c0,76.9,0,153.8,0.1,230.8c0,3.6-0.8,4.3-4.4,4.3c-63.9-0.1-127.9-0.1-191.8,0c-3.5,0-4.1-0.8-4-4.2
			c0.2-15,0.1-30,0.1-45c3.2-0.3,1.9,3.8,4.5,4.6c1-4.7,3.2-8.9,5.2-13.2C6.5,191.2,3.5,194.3,0.2,193.2z M148.8,79.8
			c-0.2-3.8-5-4.7-4.6-9c0.5-5.6-1.3-7.3-6.9-7.6c-1.8-0.1-6.8-2.6-3.5,3.2c0.7,1.2-0.7,1.7-1.5,2.2c-1.5,0.8-2.5,1.7-3.2,3.5
			c-1.5,4.2-5.2,5.7-9.6,4.7c-3.3-0.8-5.2-3.4-7.6-5.4c-1.6-1.4-5.2-2.5-4.9,0.2c0.5,6.4-0.9,13,1.3,19.2c0.5,1.3,1.5,3.5,2.7,2.5
			c2.2-1.8,4.5-0.7,6.7-1.3c2.5-0.7,5,2.4,4,4.9c-0.7,1.7-2.9,3.8-0.2,5c2.3,1,5.1,0.8,7.3-1.6c3.7-4.2,2.8-7.9-2.9-11
			c-1-0.6-2.6-0.8-2-2.2c0.6-1.4,2-0.6,3-0.1c4.1,1.9,9.7,0.8,9.5,9.2c-0.1,5.3-0.5,5.9-5,6.3c-3.3,0.3-7.1,1-6.2,6.2
			c0.7,4.5,7.3,9.4,12.6,8.9c4-0.4,7.1,0.7,9,4.6c2.5,5,5.1,10,5.8,15.9c8.3-4.8-0.4-12.9,4.9-18.5c-3.8,1.2-6.8-1-7.1-4.7
			c-0.9-9.4,0-19.1-3.3-28.2c-0.8-2.2,0.6-3.2,2.1-3.8c3.4-1.5,5.4-4.6,7.2-7.4c2.2-3.5,2.8-7.4,0.4-11.2c-0.6-1-1.5-2-2.8-1.6
			c-1.3,0.4-2,1.5-1.4,2.8C155.2,71.2,150.5,75.1,148.8,79.8z M145.3,144.3c-2.7,1.6-2,3.6-2,5.4c-0.3,10,2.5,19.6,4.4,29.3
			c0.3,1.4,0.9,2.5-0.9,3.2c-7.1,3-14.4,5.8-22.1,4.8c-10.8-1.4-21.5-3.4-31.9-6.7c-0.9-0.3-2.2-1.5-3.1-0.1c-0.7,1-0.4,2.3,0.3,3.3
			c3.5,5,6.7,10.4,14.1,9.8c1.7-0.1,3.3,0.4,4.8,1.3c3.4,1.8,7.1,2.7,10.6,4.1c9.4,3.9,20.1,4.7,28.1,12c1.4,1.2,4.3,3,6.2,0.4
			c2.3-3,4.8-5.3,8.4-6.5c1.3-0.5,2.5-2,1.8-3.7c-0.7-1.6-2.3-2-3.8-1.5c-2.4,0.8-5.1,0.9-6.7,3.7c-1.2,2.1-3.9,1.5-5.9,0.6
			c-0.7-0.3-1.4-1.2-1.1-2c1-2.3,2.7-0.8,4.2-0.8c2.5,0.1,4-3.1,2.9-3.8c-4.7-3.1-1.8-6.5-0.5-9.1c3.6-7,3.3-13.4-0.9-20
			c-1.8-2.9-2.8-6.3-4.3-9.4C145.7,154.1,147.2,149.1,145.3,144.3z M178.8,68.2c-2.6,14.2-3.6,26.8,6.9,37.3
			c1.7,1.7,1.7,3.8,0.6,6.4c-2.3,5.2-6.1,9.4-9,14.2c-1.3,2.1-2.4,5.2,0.5,6.5c2.5,1.2,6.6,2,8.1-1.1c2.8-5.7,6.8-10.5,9.7-16.1
			c1.6-3.2,1.7-6.7-0.3-9.3c-4.6-6.1-7.3-13-9.2-20.3C184.7,80.1,183.2,74.2,178.8,68.2z M109.3,45.3c-8.4-0.5-12.2,7.3-13,14.7
			c-0.4,3.7,2.1,5.5,4.9,6.7c2.9,1.3,6.5,1.2,8.2-1.5c4.4-6.8,10.6-8.4,18-8c1.3,0.1,3.2,0.6,3.7-1.5c0.4-1.7-0.7-2.8-1.8-3.9
			c-1.6-1.7-3.2-2.3-5.7-1.8c-2.9,0.6-5.8,0.7-7.9-2.5C114.4,45.3,111.7,44.9,109.3,45.3z M133.9,219.1c2.2-0.6,4.4-1.3,6.7-1.9
			c1.9-0.5,1.6-1.4,0.6-2.4c-9-8.2-20.1-10.9-31.7-12.5c-1.1-0.2-2,0.2-2.6,1.1c-0.7,1.1,0.1,1.9,0.7,2.6
			C114.6,213.9,122.3,220.4,133.9,219.1z M77.2,190.4c-0.4,2.7,1,4.9,2.2,7c1.7,3,5.3,3.8,7.8,3.1c2.4-0.7,0.5-3.9,0.4-6
			c-0.5-7-5.1-13.4-2.5-20.8c0.4-1.1-0.7-2.8-1.3-4.1c-0.8-1.5-2.1-2.8-4-2c-1.7,0.7-1.8,2.4-1.2,3.8c1,2.3,0.3,4.4,0,6.7
			C78.1,182.3,77.7,186.4,77.2,190.4z M117.2,224.9c-0.1-1.4-0.8-2.3-1.8-2.9c-6.9-4.4-12.5-10.2-18.5-15.6
			c-1.3-1.1-3.4-3.1-4.6-1.6c-1.6,1.9,1.2,3.2,2.3,4.5c0.8,1,1.9,1.9,3,2.5c5.3,3,9.2,7.4,12.6,12.3c1,1.5,2.3,2.4,3.9,2.9
			C115.7,227.5,116.8,226.5,117.2,224.9z M94.5,95.3c3.5-0.1,5-2.7,6.7-5.1c0.7-1.1,1.5-2.3,0.5-3.6c-0.9-1.3-2.2-1.4-3.5-1.2
			c-2.1,0.2-4.2,1-6.3,0.9c-3.9-0.2-4,2-3.6,4.7C88.9,94.2,91.4,95.3,94.5,95.3z M159.9,126.9c0.9-1.8,1.1-2.2,1.3-2.7
			c2.6-10.2,0-20.4,0-30.6c0-0.8,0-2-1-1.9c-0.9,0-2.2,0.5-2.5,1.2c-0.9,2.2-3.2,5,1.1,6.4c1.2,0.4,1.4,1.3,1.4,2.3
			c-0.2,4.9,0.6,9.9-0.5,14.9C158.9,119.5,159,122.5,159.9,126.9z M98.4,224c1.3,1.9,2.5,3.9,3.9,5.7c0.7,0.9,1.5,1.9,2.9,0.8
			c1.2-1,0.7-2,0.2-3.1C104,224.8,101.3,224.5,98.4,224z M103.1,109.3c4.4,0.9,8.9,1.7,14.3-1.1
			C111.8,108.5,107.4,107.6,103.1,109.3z"/>
		<path class="st1" d="M126.2,0.2c-0.2,0.8-0.3,1.6-0.7,2.4c-1,2,1.1,5.1-1.6,6.3c-2.4,1.1-4.8-0.8-7.1-1.4
			c-11.2-2.8-22.1-1.7-32.1,4c-13.1,7.4-22,18.6-25.6,33.3c-1.9,7.9-2.1,16,3,23.4c2.4,3.4,4.8,7.3,4.2,12c-0.2,1.3,0.6,2.5,1.7,2.7
			c7.1,1.4,7.6,8.6,11.2,13c3,3.6-0.3,11.7-4.7,13.6c-4.7,2.1-8.9,4.8-14.8,3.9c-4.5-0.7-10.8,7.6-10.3,13.5
			c0.8,9.2-0.9,15.2-11,18.6c-7.2,2.4-12.7,8.7-16,16.2c-3,6.7-5.1,7.5-12.2,5.8c-3.3-0.8-6.6-0.2-9.9-0.4c0-53,0-106,0-159
			c3.2-0.8,4.7-3.3,5-8C45.6,0.2,85.9,0.2,126.2,0.2z"/>
		<path class="st2" d="M163.2,0.2c-0.7,9.1-1.3,18.1-2,27.2c-0.2,3.1-1.6,4-4.4,2.1c-4.7-3.1-8.1-6.6-7.7-12.9
			c0.2-2.8,1.1-6-1.6-8.9c-0.2,3.3-0.7,6.1,0.5,9c0.3,0.8,0.2,1.7-0.7,2.1c-0.9,0.4-1.5-0.1-2.1-0.9c-2.2-2.7-1.6-5.5-0.3-8.3
			c1.4-3,2.6-6.1,2.3-9.6C152.6,0.2,157.9,0.2,163.2,0.2z"/>
		<path class="st2" d="M0.2,193.2c3.2,1,6.2-2,9.7-0.6c-2,4.3-4.2,8.5-5.2,13.2c-2.6-0.8-1.3-4.8-4.5-4.6
			C0.2,198.6,0.2,195.9,0.2,193.2z"/>
		<path class="st2" d="M200.2,15.2c-2.8,0-5.6-0.1-8.4,0.1c-2.6,0.1-2.7-0.9-1.7-2.9c2.1-4.3,6.4-4,10.1-5.2
			C200.2,9.9,200.2,12.6,200.2,15.2z"/>
		<path class="st0" d="M5.2,0.2C5,5,3.4,7.4,0.2,8.2c0-1,0.2-2,0-3C-0.6,1,1-0.7,5.2,0.2z"/>
		<path class="st2" d="M148.8,79.8c1.7-4.8,6.5-8.6,3.6-14.4c-0.6-1.2,0.1-2.4,1.4-2.8c1.3-0.4,2.2,0.6,2.8,1.6
			c2.4,3.8,1.7,7.7-0.4,11.2c-1.8,2.9-3.7,5.9-7.2,7.4c-1.5,0.6-2.9,1.6-2.1,3.8c3.4,9.1,2.5,18.8,3.3,28.2c0.3,3.6,3.3,5.8,7.1,4.7
			c-5.3,5.6,3.4,13.7-4.9,18.5c-0.6-5.9-3.3-10.9-5.8-15.9c-1.9-3.9-5-5-9-4.6c-5.3,0.5-11.9-4.4-12.6-8.9c-0.9-5.2,2.9-5.9,6.2-6.2
			c4.5-0.4,4.9-1,5-6.3c0.2-8.4-5.4-7.3-9.5-9.2c-1-0.5-2.4-1.3-3,0.1c-0.6,1.4,1,1.6,2,2.2c5.7,3.1,6.5,6.8,2.9,11
			c-2.1,2.4-5,2.6-7.3,1.6c-2.7-1.2-0.5-3.2,0.2-5c1-2.5-1.5-5.6-4-4.9c-2.2,0.6-4.5-0.5-6.7,1.3c-1.2,1-2.2-1.2-2.7-2.5
			c-2.2-6.3-0.8-12.8-1.3-19.2c-0.2-2.7,3.3-1.6,4.9-0.2c2.4,2,4.2,4.6,7.6,5.4c4.3,1,8.1-0.5,9.6-4.7c0.6-1.8,1.7-2.7,3.2-3.5
			c0.8-0.4,2.2-0.9,1.5-2.2c-3.2-5.9,1.7-3.3,3.5-3.2c5.6,0.3,7.4,2,6.9,7.6C143.7,75.1,148.5,76.1,148.8,79.8z"/>
		<path class="st2" d="M145.3,144.3c1.9,4.8,0.4,9.8,2.6,14.3c1.5,3,2.5,6.5,4.3,9.4c4.1,6.5,4.5,13,0.9,20c-1.3,2.6-4.3,6,0.5,9.1
			c1.1,0.7-0.4,3.9-2.9,3.8c-1.5,0-3.2-1.5-4.2,0.8c-0.4,0.9,0.4,1.7,1.1,2c2.1,0.9,4.7,1.5,5.9-0.6c1.6-2.8,4.3-2.8,6.7-3.7
			c1.5-0.5,3.1-0.2,3.8,1.5c0.7,1.7-0.5,3.2-1.8,3.7c-3.6,1.2-6.2,3.5-8.4,6.5c-1.9,2.6-4.9,0.8-6.2-0.4c-8-7.3-18.7-8.1-28.1-12
			c-3.5-1.4-7.2-2.3-10.6-4.1c-1.5-0.8-3-1.4-4.8-1.3c-7.4,0.6-10.6-4.8-14.1-9.8c-0.7-1-1-2.2-0.3-3.3c1-1.4,2.2-0.2,3.1,0.1
			c10.4,3.3,21.1,5.4,31.9,6.7c7.7,1,15-1.8,22.1-4.8c1.8-0.8,1.2-1.8,0.9-3.2c-1.9-9.7-4.7-19.3-4.4-29.3
			C143.3,147.9,142.6,145.9,145.3,144.3z"/>
		<path class="st2" d="M178.8,68.2c4.4,6,5.9,11.9,7.4,17.7c1.9,7.3,4.5,14.1,9.2,20.3c2,2.6,1.9,6.1,0.3,9.3
			c-2.9,5.6-7,10.4-9.7,16.1c-1.5,3.1-5.6,2.3-8.1,1.1c-2.9-1.4-1.7-4.4-0.5-6.5c2.9-4.8,6.6-9,9-14.2c1.1-2.6,1.1-4.7-0.6-6.4
			C175.1,95.1,176.2,82.4,178.8,68.2z"/>
		<path class="st2" d="M109.3,45.3c2.4-0.3,5.2,0.1,6.6,2.3c2.1,3.2,5,3.1,7.9,2.5c2.5-0.5,4.1,0.1,5.7,1.8c1.1,1.1,2.2,2.2,1.8,3.9
			c-0.5,2.1-2.4,1.6-3.7,1.5c-7.4-0.5-13.6,1.2-18,8c-1.7,2.7-5.3,2.7-8.2,1.5c-2.8-1.2-5.3-3-4.9-6.7
			C97.1,52.6,100.8,44.7,109.3,45.3z"/>
		<path class="st2" d="M133.9,219.1c-11.6,1.2-19.3-5.2-26.4-13.1c-0.6-0.7-1.4-1.5-0.7-2.6c0.6-0.9,1.5-1.3,2.6-1.1
			c11.6,1.7,22.7,4.4,31.7,12.5c1.1,1,1.3,1.9-0.6,2.4C138.3,217.8,136.1,218.5,133.9,219.1z"/>
		<path class="st2" d="M77.2,190.4c0.6-4.1,0.9-8.2,1.3-12.2c0.2-2.3,0.9-4.4,0-6.7c-0.6-1.4-0.4-3.1,1.2-3.8c1.9-0.8,3.2,0.4,4,2
			c0.7,1.3,1.7,3,1.3,4.1c-2.6,7.4,2,13.8,2.5,20.8c0.1,2.2,2,5.3-0.4,6c-2.4,0.7-6,0-7.8-3.1C78.1,195.3,76.7,193.1,77.2,190.4z"/>
		<path class="st2" d="M117.2,224.9c-0.4,1.7-1.4,2.7-3.2,2.2c-1.6-0.4-2.8-1.4-3.9-2.9c-3.4-4.9-7.3-9.3-12.6-12.3
			c-1.1-0.7-2.2-1.5-3-2.5c-1.1-1.4-3.9-2.7-2.3-4.5c1.3-1.5,3.3,0.5,4.6,1.6c6,5.4,11.7,11.2,18.5,15.6
			C116.3,222.6,117.1,223.5,117.2,224.9z"/>
		<path class="st2" d="M94.5,95.3c-3.1,0-5.6-1.1-6.2-4.4c-0.5-2.7-0.3-4.9,3.6-4.7c2.1,0.1,4.2-0.6,6.3-0.9c1.3-0.1,2.7,0,3.5,1.2
			c1,1.4,0.2,2.6-0.5,3.6C99.6,92.6,98,95.2,94.5,95.3z"/>
		<path class="st2" d="M159.9,126.9c-1-4.4-1-7.5-0.3-10.5c1.2-4.9,0.3-9.9,0.5-14.9c0-1-0.1-1.9-1.4-2.3c-4.3-1.4-2-4.1-1.1-6.4
			c0.3-0.7,1.6-1.2,2.5-1.2c1,0,1,1.1,1,1.9c-0.1,10.2,2.6,20.4,0,30.6C161.1,124.7,160.8,125.1,159.9,126.9z"/>
		<path class="st2" d="M98.4,224c2.9,0.5,5.6,0.8,6.9,3.4c0.5,1.1,1.1,2.1-0.2,3.1c-1.4,1.1-2.2,0.1-2.9-0.8
			C100.9,227.9,99.7,225.9,98.4,224z"/>
		<path class="st2" d="M103.1,109.3c4.3-1.7,8.7-0.9,14.3-1.1C111.9,111,107.5,110.3,103.1,109.3z"/>
	</g>
	<g>
		<path class="st0" d="M220.7,193.2c0-8.7,0-17.3,0-26c3.3,0.2,6.6-0.4,9.9,0.4c7,1.7,9.2,0.9,12.2-5.8c3.4-7.5,8.8-13.8,16-16.2
			c10.1-3.3,11.8-9.4,11-18.6c-0.5-5.9,5.8-14.2,10.3-13.5c5.9,0.9,10.1-1.8,14.8-3.9c4.4-2,7.7-10,4.7-13.6
			c-3.7-4.4-4.1-11.6-11.2-13c-1.1-0.2-1.9-1.5-1.7-2.7c0.6-4.7-1.8-8.6-4.2-12c-5.1-7.4-4.9-15.5-3-23.4
			c3.5-14.7,12.4-25.8,25.6-33.3c10.1-5.7,20.9-6.9,32.1-4c2.4,0.6,4.7,2.5,7.1,1.4c2.7-1.2,0.6-4.3,1.6-6.3
			c0.4-0.7,0.5-1.6,0.7-2.4c7,0,14,0,21,0c0.3,3.4-0.9,6.5-2.3,9.6c-1.3,2.8-1.9,5.6,0.3,8.3c0.6,0.7,1.1,1.3,2.1,0.9
			c0.9-0.4,1-1.3,0.7-2.1c-1.2-2.9-0.7-5.7-0.5-9c2.7,2.9,1.8,6,1.6,8.9c-0.4,6.3,3,9.8,7.7,12.9c2.8,1.9,4.2,1,4.4-2.1
			c0.7-9.1,1.3-18.1,2-27.2c10.8,0,21.7,0.2,32.5-0.1c3.8-0.1,5.2,0.8,4.5,4.6c-0.1,0.8,0,1.7,0,2.5c-3.7,1.1-8,0.9-10.1,5.2
			c-1,2-1,3,1.7,2.9c2.8-0.1,5.6,0,8.4-0.1c0,76.9,0,153.8,0.1,230.8c0,3.6-0.8,4.3-4.4,4.3c-63.9-0.1-127.9-0.1-191.8,0
			c-3.5,0-4.1-0.8-4-4.2c0.2-15,0.1-30,0.1-45c3.2-0.3,1.9,3.8,4.5,4.6c1-4.7,3.2-8.9,5.2-13.2C226.9,191.2,223.9,194.3,220.7,193.2
			z M369.2,79.8c-0.2-3.8-5-4.7-4.6-9c0.5-5.6-1.3-7.3-6.9-7.6c-1.8-0.1-6.8-2.6-3.5,3.2c0.7,1.2-0.7,1.7-1.5,2.2
			c-1.5,0.8-2.5,1.7-3.2,3.5c-1.5,4.2-5.2,5.7-9.6,4.7c-3.3-0.8-5.2-3.4-7.6-5.4c-1.6-1.4-5.2-2.5-4.9,0.2c0.5,6.4-0.9,13,1.3,19.2
			c0.5,1.3,1.5,3.5,2.7,2.5c2.2-1.8,4.5-0.7,6.7-1.3c2.5-0.7,5,2.4,4,4.9c-0.7,1.7-2.9,3.8-0.2,5c2.3,1,5.1,0.8,7.3-1.6
			c3.7-4.2,2.8-7.9-2.9-11c-1-0.6-2.6-0.8-2-2.2c0.6-1.4,2-0.6,3-0.1c4.1,1.9,9.7,0.8,9.5,9.2c-0.1,5.3-0.5,5.9-5,6.3
			c-3.3,0.3-7.1,1-6.2,6.2c0.7,4.5,7.3,9.4,12.6,8.9c4-0.4,7.1,0.7,9,4.6c2.5,5,5.1,10,5.8,15.9c8.3-4.8-0.4-12.9,4.9-18.5
			c-3.8,1.2-6.8-1-7.1-4.7c-0.9-9.4,0-19.1-3.3-28.2c-0.8-2.2,0.6-3.2,2.1-3.8c3.4-1.5,5.4-4.6,7.2-7.4c2.2-3.5,2.8-7.4,0.4-11.2
			c-0.6-1-1.5-2-2.8-1.6c-1.3,0.4-2,1.5-1.4,2.8C375.6,71.2,370.9,75.1,369.2,79.8z M365.7,144.3c-2.7,1.6-2,3.6-2,5.4
			c-0.3,10,2.5,19.6,4.4,29.3c0.3,1.4,0.9,2.5-0.9,3.2c-7.1,3-14.4,5.8-22.1,4.8c-10.8-1.4-21.5-3.4-31.9-6.7
			c-0.9-0.3-2.2-1.5-3.1-0.1c-0.7,1-0.4,2.3,0.3,3.3c3.5,5,6.7,10.4,14.1,9.8c1.7-0.1,3.3,0.4,4.8,1.3c3.4,1.8,7.1,2.7,10.6,4.1
			c9.4,3.9,20.1,4.7,28.1,12c1.4,1.2,4.3,3,6.2,0.4c2.3-3,4.8-5.3,8.4-6.5c1.3-0.5,2.5-2,1.8-3.7c-0.7-1.6-2.3-2-3.8-1.5
			c-2.4,0.8-5.1,0.9-6.7,3.7c-1.2,2.1-3.9,1.5-5.9,0.6c-0.7-0.3-1.4-1.2-1.1-2c1-2.3,2.7-0.8,4.2-0.8c2.5,0.1,4-3.1,2.9-3.8
			c-4.7-3.1-1.8-6.5-0.5-9.1c3.6-7,3.3-13.4-0.9-20c-1.8-2.9-2.8-6.3-4.3-9.4C366.1,154.1,367.6,149.1,365.7,144.3z M399.2,68.2
			c-2.6,14.2-3.6,26.8,6.9,37.3c1.7,1.7,1.7,3.8,0.6,6.4c-2.3,5.2-6.1,9.4-9,14.2c-1.3,2.1-2.4,5.2,0.5,6.5c2.5,1.2,6.6,2,8.1-1.1
			c2.8-5.7,6.8-10.5,9.7-16.1c1.6-3.2,1.7-6.7-0.3-9.3c-4.6-6.1-7.3-13-9.2-20.3C405.1,80.1,403.6,74.2,399.2,68.2z M329.7,45.3
			c-8.4-0.5-12.2,7.3-13,14.7c-0.4,3.7,2.1,5.5,4.9,6.7c2.9,1.3,6.5,1.2,8.2-1.5c4.4-6.8,10.6-8.4,18-8c1.3,0.1,3.2,0.6,3.7-1.5
			c0.4-1.7-0.7-2.8-1.8-3.9c-1.6-1.7-3.2-2.3-5.7-1.8c-2.9,0.6-5.8,0.7-7.9-2.5C334.8,45.3,332.1,44.9,329.7,45.3z M354.3,219.1
			c2.2-0.6,4.4-1.3,6.7-1.9c1.9-0.5,1.6-1.4,0.6-2.4c-9-8.2-20.1-10.9-31.7-12.5c-1.1-0.2-2,0.2-2.6,1.1c-0.7,1.1,0.1,1.9,0.7,2.6
			C335,213.9,342.8,220.4,354.3,219.1z M297.6,190.4c-0.4,2.7,1,4.9,2.2,7c1.7,3,5.3,3.8,7.8,3.1c2.4-0.7,0.5-3.9,0.4-6
			c-0.5-7-5.1-13.4-2.5-20.8c0.4-1.1-0.7-2.8-1.3-4.1c-0.8-1.5-2.1-2.8-4-2c-1.7,0.7-1.8,2.4-1.2,3.8c1,2.3,0.3,4.4,0,6.7
			C298.6,182.3,298.2,186.4,297.6,190.4z M337.6,224.9c-0.1-1.4-0.8-2.3-1.8-2.9c-6.9-4.4-12.5-10.2-18.5-15.6
			c-1.3-1.1-3.4-3.1-4.6-1.6c-1.6,1.9,1.2,3.2,2.3,4.5c0.8,1,1.9,1.9,3,2.5c5.3,3,9.2,7.4,12.6,12.3c1,1.5,2.3,2.4,3.9,2.9
			C336.1,227.5,337.2,226.5,337.6,224.9z M315,95.3c3.5-0.1,5-2.7,6.7-5.1c0.7-1.1,1.5-2.3,0.5-3.6c-0.9-1.3-2.2-1.4-3.5-1.2
			c-2.1,0.2-4.2,1-6.3,0.9c-3.9-0.2-4,2-3.6,4.7C309.4,94.2,311.8,95.3,315,95.3z M380.4,126.9c0.9-1.8,1.1-2.2,1.3-2.7
			c2.6-10.2,0-20.4,0-30.6c0-0.8,0-2-1-1.9c-0.9,0-2.2,0.5-2.5,1.2c-0.9,2.2-3.2,5,1.1,6.4c1.2,0.4,1.4,1.3,1.4,2.3
			c-0.2,4.9,0.6,9.9-0.5,14.9C379.4,119.5,379.4,122.5,380.4,126.9z M318.9,224c1.3,1.9,2.5,3.9,3.9,5.7c0.7,0.9,1.5,1.9,2.9,0.8
			c1.2-1,0.7-2,0.2-3.1C324.4,224.8,321.7,224.5,318.9,224z M323.5,109.3c4.4,0.9,8.9,1.7,14.3-1.1
			C332.2,108.5,327.8,107.6,323.5,109.3z"/>
		<path class="st0" d="M225.7,0.2c-0.3,4.7-1.8,7.2-5,8c0-1,0.2-2,0-3C219.8,1,221.4-0.7,225.7,0.2z"/>
	</g>
	<g>
		<path class="st1" d="M567.1,0.2c-0.2,0.8-0.3,1.6-0.7,2.4c-1,2,1.1,5.1-1.6,6.3c-2.4,1.1-4.8-0.8-7.1-1.4
			c-11.2-2.8-22.1-1.7-32.1,4c-13.1,7.4-22,18.6-25.6,33.3c-1.9,7.9-2.1,16,3,23.4c2.4,3.4,4.8,7.3,4.2,12c-0.2,1.3,0.6,2.5,1.7,2.7
			c7.1,1.4,7.6,8.6,11.2,13c3,3.6-0.3,11.7-4.7,13.6c-4.7,2.1-8.9,4.8-14.8,3.9c-4.5-0.7-10.8,7.6-10.3,13.5
			c0.8,9.2-0.9,15.2-11,18.6c-7.2,2.4-12.7,8.7-16,16.2c-3,6.7-5.1,7.5-12.2,5.8c-3.3-0.8-6.6-0.2-9.9-0.4c0-53,0-106,0-159
			c3.2-0.8,4.7-3.3,5-8C486.4,0.2,526.8,0.2,567.1,0.2z"/>
		<path class="st2" d="M604.1,0.2c-0.7,9.1-1.3,18.1-2,27.2c-0.2,3.1-1.6,4-4.4,2.1c-4.7-3.1-8.1-6.6-7.7-12.9
			c0.2-2.8,1.1-6-1.6-8.9c-0.2,3.3-0.7,6.1,0.5,9c0.3,0.8,0.2,1.7-0.7,2.1c-0.9,0.4-1.5-0.1-2.1-0.9c-2.2-2.7-1.6-5.5-0.3-8.3
			c1.4-3,2.6-6.1,2.3-9.6C593.4,0.2,598.8,0.2,604.1,0.2z"/>
		<path class="st2" d="M441.1,193.2c3.2,1,6.2-2,9.7-0.6c-2,4.3-4.2,8.5-5.2,13.2c-2.6-0.8-1.3-4.8-4.5-4.6
			C441.1,198.6,441.1,195.9,441.1,193.2z"/>
		<path class="st2" d="M641.1,15.2c-2.8,0-5.6-0.1-8.4,0.1c-2.6,0.1-2.7-0.9-1.7-2.9c2.1-4.3,6.4-4,10.1-5.2
			C641.1,9.9,641.1,12.6,641.1,15.2z"/>
		<path class="st2" d="M589.6,79.8c1.7-4.8,6.5-8.6,3.6-14.4c-0.6-1.2,0.1-2.4,1.4-2.8c1.3-0.4,2.2,0.6,2.8,1.6
			c2.4,3.8,1.7,7.7-0.4,11.2c-1.8,2.9-3.7,5.9-7.2,7.4c-1.5,0.6-2.9,1.6-2.1,3.8c3.4,9.1,2.5,18.8,3.3,28.2c0.3,3.6,3.3,5.8,7.1,4.7
			c-5.3,5.6,3.4,13.7-4.9,18.5c-0.6-5.9-3.3-10.9-5.8-15.9c-1.9-3.9-5-5-9-4.6c-5.3,0.5-11.9-4.4-12.6-8.9c-0.9-5.2,2.9-5.9,6.2-6.2
			c4.5-0.4,4.9-1,5-6.3c0.2-8.4-5.4-7.3-9.5-9.2c-1-0.5-2.4-1.3-3,0.1c-0.6,1.4,1,1.6,2,2.2c5.7,3.1,6.5,6.8,2.9,11
			c-2.1,2.4-5,2.6-7.3,1.6c-2.7-1.2-0.5-3.2,0.2-5c1-2.5-1.5-5.6-4-4.9c-2.2,0.6-4.5-0.5-6.7,1.3c-1.2,1-2.2-1.2-2.7-2.5
			c-2.2-6.3-0.8-12.8-1.3-19.2c-0.2-2.7,3.3-1.6,4.9-0.2c2.4,2,4.2,4.6,7.6,5.4c4.3,1,8.1-0.5,9.6-4.7c0.6-1.8,1.7-2.7,3.2-3.5
			c0.8-0.4,2.2-0.9,1.5-2.2c-3.2-5.9,1.7-3.3,3.5-3.2c5.6,0.3,7.4,2,6.9,7.6C584.6,75.1,589.4,76.1,589.6,79.8z"/>
		<path class="st2" d="M586.1,144.3c1.9,4.8,0.4,9.8,2.6,14.3c1.5,3,2.5,6.5,4.3,9.4c4.1,6.5,4.5,13,0.9,20c-1.3,2.6-4.3,6,0.5,9.1
			c1.1,0.7-0.4,3.9-2.9,3.8c-1.5,0-3.2-1.5-4.2,0.8c-0.4,0.9,0.4,1.7,1.1,2c2.1,0.9,4.7,1.5,5.9-0.6c1.6-2.8,4.3-2.8,6.7-3.7
			c1.5-0.5,3.1-0.2,3.8,1.5c0.7,1.7-0.5,3.2-1.8,3.7c-3.6,1.2-6.2,3.5-8.4,6.5c-1.9,2.6-4.9,0.8-6.2-0.4c-8-7.3-18.7-8.1-28.1-12
			c-3.5-1.4-7.2-2.3-10.6-4.1c-1.5-0.8-3-1.4-4.8-1.3c-7.4,0.6-10.6-4.8-14.1-9.8c-0.7-1-1-2.2-0.3-3.3c1-1.4,2.2-0.2,3.1,0.1
			c10.4,3.3,21.1,5.4,31.9,6.7c7.7,1,15-1.8,22.1-4.8c1.8-0.8,1.2-1.8,0.9-3.2c-1.9-9.7-4.7-19.3-4.4-29.3
			C584.2,147.9,583.5,145.9,586.1,144.3z"/>
		<path class="st2" d="M619.6,68.2c4.4,6,5.9,11.9,7.4,17.7c1.9,7.3,4.5,14.1,9.2,20.3c2,2.6,1.9,6.1,0.3,9.3
			c-2.9,5.6-7,10.4-9.7,16.1c-1.5,3.1-5.6,2.3-8.1,1.1c-2.9-1.4-1.7-4.4-0.5-6.5c2.9-4.8,6.6-9,9-14.2c1.1-2.6,1.1-4.7-0.6-6.4
			C616,95.1,617.1,82.4,619.6,68.2z"/>
		<path class="st2" d="M550.1,45.3c2.4-0.3,5.2,0.1,6.6,2.3c2.1,3.2,5,3.1,7.9,2.5c2.5-0.5,4.1,0.1,5.7,1.8c1.1,1.1,2.2,2.2,1.8,3.9
			c-0.5,2.1-2.4,1.6-3.7,1.5c-7.4-0.5-13.6,1.2-18,8c-1.7,2.7-5.3,2.7-8.2,1.5c-2.8-1.2-5.3-3-4.9-6.7
			C537.9,52.6,541.7,44.7,550.1,45.3z"/>
		<path class="st2" d="M574.8,219.1c-11.6,1.2-19.3-5.2-26.4-13.1c-0.6-0.7-1.4-1.5-0.7-2.6c0.6-0.9,1.5-1.3,2.6-1.1
			c11.6,1.7,22.7,4.4,31.7,12.5c1.1,1,1.3,1.9-0.6,2.4C579.2,217.8,577,218.5,574.8,219.1z"/>
		<path class="st2" d="M518,190.4c0.6-4.1,0.9-8.2,1.3-12.2c0.2-2.3,0.9-4.4,0-6.7c-0.6-1.4-0.4-3.1,1.2-3.8c1.9-0.8,3.2,0.4,4,2
			c0.7,1.3,1.7,3,1.3,4.1c-2.6,7.4,2,13.8,2.5,20.8c0.1,2.2,2,5.3-0.4,6c-2.4,0.7-6,0-7.8-3.1C519,195.3,517.6,193.1,518,190.4z"/>
		<path class="st2" d="M558,224.9c-0.4,1.7-1.4,2.7-3.2,2.2c-1.6-0.4-2.8-1.4-3.9-2.9c-3.4-4.9-7.3-9.3-12.6-12.3
			c-1.1-0.7-2.2-1.5-3-2.5c-1.1-1.4-3.9-2.7-2.3-4.5c1.3-1.5,3.3,0.5,4.6,1.6c6,5.4,11.7,11.2,18.5,15.6
			C557.2,222.6,558,223.5,558,224.9z"/>
		<path class="st2" d="M535.4,95.3c-3.1,0-5.6-1.1-6.2-4.4c-0.5-2.7-0.3-4.9,3.6-4.7c2.1,0.1,4.2-0.6,6.3-0.9c1.3-0.1,2.7,0,3.5,1.2
			c1,1.4,0.2,2.6-0.5,3.6C540.4,92.6,538.9,95.2,535.4,95.3z"/>
		<path class="st2" d="M600.8,126.9c-1-4.4-1-7.5-0.3-10.5c1.2-4.9,0.3-9.9,0.5-14.9c0-1-0.1-1.9-1.4-2.3c-4.3-1.4-2-4.1-1.1-6.4
			c0.3-0.7,1.6-1.2,2.5-1.2c1,0,1,1.1,1,1.9c-0.1,10.2,2.6,20.4,0,30.6C601.9,124.7,601.7,125.1,600.8,126.9z"/>
		<path class="st2" d="M539.3,224c2.9,0.5,5.6,0.8,6.9,3.4c0.5,1.1,1.1,2.1-0.2,3.1c-1.4,1.1-2.2,0.1-2.9-0.8
			C541.8,227.9,540.6,225.9,539.3,224z"/>
		<path class="st2" d="M543.9,109.3c4.3-1.7,8.7-0.9,14.3-1.1C552.8,111,548.4,110.3,543.9,109.3z"/>
	</g>
</g>
<g>
</g>
<g>
</g>
<g>
</g>
<g>
</g>
<g>
</g>
<g>
</g>
<g>
</g>
<g>
</g>
<g>
</g>
<g>
</g>
<g>
</g>
<g>
</g>
<g>
</g>
<g>
</g>
<g>
</g>
</svg>
