<?xml version="1.0" encoding="utf-8"?>
<!-- Generator: Adobe Illustrator 17.1.0, SVG Export Plug-In . SVG Version: 6.00 Build 0)  -->
<!DOCTYPE svg PUBLIC "-//W3C//DTD SVG 1.1//EN" "http://www.w3.org/Graphics/SVG/1.1/DTD/svg11.dtd">
<svg version="1.1" id="Layer_1" xmlns="http://www.w3.org/2000/svg" xmlns:xlink="http://www.w3.org/1999/xlink" x="0px" y="0px"
	 viewBox="0 0 643 248.9" style="enable-background:new 0 0 643 248.9;" xml:space="preserve">
<style type="text/css">
	.st0{fill:#010000;}
	.st1{fill:#F90101;}
	.st2{fill:#070202;}
</style>
<g>
	<g>
		<path class="st0" d="M236.3,67.7c0-21.5,0.1-43-0.1-64.4c0-2.7,0.6-3.3,3.3-3.3c69.5,0.1,138.9,0.1,208.4,0c2.7,0,3.3,0.6,3.3,3.3
			c-0.1,80.2-0.1,160.4,0,240.6c0,2.7-0.6,3.3-3.3,3.3c-69.5-0.1-138.9-0.1-208.4,0.1c-3.7,0-3.2-1.5-3.2-3.9c0-56,0-112.1,0-168.1
			c5.5-6.1,12.3-10.4,18.9-15c7.2-5,13.7-1.6,14.3,7.2c0.1,1.8,0,3.6,0.4,5.3c2.6,9.7,8.4,18.8,4,29.5c-0.6,1.3,0.6,3.4,1,5.1
			c-0.8,1.3-2.6,1.8-2.6,3.7c6.9-1.1,7.3-0.8,9.2,6.2c0.2,2.5,1.4,4.1,3.4,5.6c7.4,5.7,14.8,11.1,19.7,19.7
			c4.4,7.8,13.4,10.2,21.5,8.5c7-1.5,12.7-2.7,17.2,4.1c0.1,0.1,0.3,0.2,0.4,0.3c2.6,5.2,10.6,8.2,6.6,16.2c-0.8,1.7,0.9,2.9,2,4.1
			c2.7,2.9,5.8,5.3,7.9,8.7c2.4,3.8,1.8,5.3-2.8,5.7c-2.4,0.2-5.6,0.3-5.7,2.8c-0.1,6-4.8,9.7-6.1,15.1c-1,4.3,0.5,5.7,4.2,5.8
			c3.2,0.1,6.5-0.3,9.6,0.1c11.4,1.4,22.2,0.1,32.4-5.5c2.2-1.2,4.3-1.1,6,0.2c3.2,2.4,4.5,0.7,6.3-1.9c3.2-4.6,2.3-9.4,1.6-14.3
			c1.5-2.3,1-3.8-1.7-4.4c-0.5-1-1-2.1-1.5-3.1c6.7-8.5,7.2-16.6,1.3-23.7c-1.2-2.4-2.3-4.8-3.5-7.2c0-1.1,0.8-2.6-1-3
			c-1.1-0.3-1.9,0.6-2.5,1.5c-0.8,1.3-1.6,2.7-0.8,4.4c0.1,2.8,0.2,5.7,0.3,8.5c-1.5,0.2-3.1-2.2-4.5,0.2c-0.3-0.1-0.6-0.1-0.9-0.1
			c-1.4,0-2.8-0.1-4.2-0.1c-0.9-1.8-1.7-3.5-2.6-5.3c4.2-1.6,2-5.2,2.5-8c2.1,0.2,1.9-1.5,2.2-2.8c1.9-1.1,1.8-2.2,0-3.2
			c0-2.9,0-5.7,0-8.6c-0.1-0.4-0.2-0.8-0.3-1.1c-1.2-0.5-1.1-3.2-2.8-2.4c-0.9,0.4-1.7,2.3-1.1,3.8c1.1,2.4,0.9,4.8,0.6,7.2
			c-1.8,0.8-3.4,2-4.2-1.3c-0.9-3.6-2.4-7-2.1-10.9c0.1-1.2,0-2.7-1.5-3c-1.8-0.4-2.4,1.1-2.9,2.5c-0.5,1.4,0,3.7-2.4,3.4
			c-2-0.3-1.6-2.5-2.1-3.9c-0.9-3.1-0.5-7-4.8-8.1c0-0.7,0-1.4,0-2.1c2-0.5,3.9,2.6,5.8,0.2c0.4-0.5,0.4-2,0-2.5
			c-1.9-2.5-3.8,0.7-5.8,0.2c0-0.7,0-1.4,0-2.1c4.5-2.1,5.4-4.9,1.8-8.7c0.2-5,2.1-9.8,0.9-14.9c2-1.5,4-3,6-4.5
			c0.6,0.7,1.2,1.4,1.9,2c-0.2,0.3-1,0.2-0.5,0.9c0.2-0.3,0.4-0.5,0.6-0.8c2.1,2.3,4.6,4.2,5,7.6c-1.9,2.5-0.6,4.5,1.1,6.5
			c1.8,2.4,1.2,5.1,1.2,7.7c0,2.6,0.2,5.7,2.5,6.6c2.4,0.9,3.6-2.1,5-3.8c0.2-0.2,0.5-0.3,0.2-0.1c5.4,1.8,7.7,8.3,14.1,7.6
			c1-0.1,2.4,0.6,2.4-0.9c0-1.4-1.1-2.1-2.6-1.4c-2.9,1.3-4.2-0.7-5.5-2.7c0-1.1,0-2.1,0-3.2c2.3-2.7,0.6-4.5-1.4-6.2
			c-2.2-2-3.9-4.2-5.3-6.9c-5-9.8-12.3-17.9-20.3-25.4c0.1-5.1-2.8-7-7.6-6.5c-0.7-0.7-1.4-1.3-2.1-2c0.2-1.4,2-2.6,1.1-3.9
			c-1.1-1.5-2.5,0.3-3.9,0.3c-0.5,0-1.1,0.1-1.6,0.2c-0.3-0.3-0.7-0.6-1-0.9c-1.6-3.3-2.9-6.9-5.2-9.8c-1.2-2-2.9-4.5-5-4.4
			c-7.2,0.2-11.1-5.5-16.5-8.5c-1.9-1-3.7-2-5.7-2.8c-5.4-2.1-10.8-4-16.8-6.2c1.3-0.7,2.1-1.3,2.9-1.5c2.5-0.5,3.9-2.5,4-4.4
			c0.2-2.3-2.5-2.7-4.3-3.3c-2-0.7-4.2-1.9-6.1-1.5c-2,0.4-6.9-1.9-5.4,3.9c0.4,1.5-1.5,1.7-2.3,2.6c-2.5,3-7.5,1.3-9.6,5.8
			c-1.2,2.6-5.2,2.6-7.6,5.4c-2.3,2.7-5.4,6.5-10.1,7c-1.2,0.1-1.6,1.8-1.2,3.2c0.6,2.1,2,0.9,3,0.5c4.9-1.9,10.4-3.2,14-7.4
			c2.9-3.3,5.5-2.9,8.6-1.1c0.5,1,1.3,1.6,2.3,1.9c0.3,0,0.6,0.1,0.9,0.2c-0.4,0.7-0.8,1.4-1.2,2.1c-0.3,0.1-0.6,0-0.9-0.2
			c-0.4,0-0.7,0-1.1,0c-0.7,0-1.4,0-2.2,0c-0.4,0-0.7,0-1.1,0c-1.1,0.5-3.4,0.6-2.1,2.4c2.8,3.9,5.9,7.6,9.2,11.1
			c1,1.1,2.7,0.8,4,0.1c1.1-0.6,2.3-2.8,3.2-1c0.6,1.2,1.3,3.3-0.4,5.3c-2.7,3.4-5.6,6.8-6.7,11.3c-0.5,2-2.2,2.2-3.8,1
			c-1.4-1.1-2.7-2.3-4.1-3.4c-4.8-3.6-9.3-8.4-14.7-10.4c-4.8-1.8-8-4.6-11.2-8.1c-1.6-1.8-4.1-2.8-5.7-1.5
			C251.7,57.9,240.2,57.5,236.3,67.7z"/>
		<path class="st1" d="M275,107.3c-0.4-1.7-1.5-3.8-1-5.1c4.4-10.7-1.4-19.9-4-29.5c-0.5-1.7-0.3-3.5-0.4-5.3
			c-0.6-8.8-7.1-12.2-14.3-7.2c-6.6,4.6-13.5,8.9-18.9,15c0-2.5,0-5,0-7.5c4-10.2,15.4-9.9,22.5-15.8c1.6-1.3,4.1-0.3,5.7,1.5
			c3.1,3.5,6.3,6.3,11.2,8.1c5.5,2,9.9,6.8,14.7,10.4c1.4,1.1,2.7,2.3,4.1,3.4c1.6,1.3,3.3,1,3.8-1c1.1-4.5,4-7.9,6.7-11.3
			c1.6-2,0.9-4.2,0.4-5.3c-0.9-1.8-2.1,0.4-3.2,1c-1.3,0.7-3.1,0.9-4-0.1c-3.2-3.6-6.4-7.2-9.2-11.1c-1.3-1.8,1-1.9,2.1-2.4
			c0.4,0,0.7,0,1.1,0c0.7,0,1.4,0,2.2,0c0.4,0,0.7,0,1.1,0c0.3,0.2,0.6,0.3,0.9,0.2c0.9,1.2,2.1,1.1,3.4,0.8
			c0.5-0.1,1.1-0.2,1.6-0.3c-0.2-0.2-0.3-0.4-0.5-0.6c-0.7-1.3-1.6-2.3-3.3-2c-0.3-0.2-0.6-0.2-0.9-0.2c-0.5-0.9-1.1-1.8-2.3-1.9
			c-3.2-1.9-5.8-2.2-8.6,1.1c-3.6,4.1-9,5.5-14,7.4c-1,0.4-2.4,1.5-3-0.5c-0.4-1.3,0-3.1,1.2-3.2c4.7-0.5,7.8-4.4,10.1-7
			c2.4-2.8,6.5-2.8,7.6-5.4c2.1-4.5,7.1-2.7,9.6-5.8c0.7-0.9,2.7-1.1,2.3-2.6c-1.5-5.8,3.4-3.5,5.4-3.9c1.9-0.4,4.1,0.9,6.1,1.5
			c1.8,0.6,4.5,1,4.3,3.3c-0.1,1.9-1.5,3.9-4,4.4c-0.8,0.2-1.6,0.8-2.9,1.5c6,2.2,11.4,4.1,16.8,6.2c2,0.8,3.8,1.8,5.7,2.8
			c5.4,3,9.3,8.6,16.5,8.5c2.2,0,3.8,2.4,5,4.4c-0.6,0.3-1.2,0.9-1.8,0.9c-3.2-0.3-7.5-3.1-9.1,0.6c-2,4.4,3.5,6,5.8,8.8
			c0.3,0.4,0.9,0.5,1.4,0.8c3,2.2,6.8,3.9,8.7,6.8c4.4,6.9,9.4,13.6,10.9,22c1.1,5-0.7,9.9-0.9,14.9c-1.2,2.7-2.4,5.5-1.8,8.7
			c0,0.7,0,1.4,0,2.1c0,0.7,0,1.4,0,2.2c0,0.7,0,1.4,0,2.1c1.4,11.1,7.2,20.6,11.5,30.7c0.3,0.7,0.8,1.3,1.6,1.1
			c0.8-0.3,1.3-0.9,1.7-1.9c0.4-1-1.5-2.1,0.4-3.1c1.9,3.1,1.1,7.2,3.7,9.8c0.9,1.8,1.7,3.5,2.6,5.3c1.1,2.8,1.2,6.1,4.9,8.5
			c-0.9-3.3-1-5.9-0.7-8.5c0.3,0,0.6,0,0.9,0.1c4.7,5.7,9.9,11.2,10.6,19.2c0.5,1,1,2.1,1.5,3.1c0.6,1.5,1.2,2.9,1.7,4.4
			c0.7,4.9,1.6,9.7-1.6,14.3c-1.8,2.6-3.1,4.3-6.3,1.9c-1.7-1.3-3.8-1.4-6-0.2c-10.1,5.5-21,6.9-32.4,5.5c-3.2-0.4-6.4,0-9.6-0.1
			c-3.7-0.2-5.2-1.6-4.2-5.8c1.3-5.4,6-9.1,6.1-15.1c0-2.5,3.3-2.6,5.7-2.8c4.6-0.4,5.1-1.9,2.8-5.7c-2.1-3.4-5.3-5.8-7.9-8.7
			c-1.1-1.2-2.8-2.4-2-4.1c4-8-4-11-6.6-16.2c-0.1-0.1-0.3-0.2-0.4-0.3c-4.5-6.8-10.1-5.6-17.2-4.1c-8.1,1.7-17.1-0.7-21.5-8.5
			c-4.9-8.6-12.3-14-19.7-19.7c-2-1.6-3.2-3.2-3.4-5.6c1.7-2.5,3.5-4.9,5.1-7.4c2.4-3.7,3.7-8.2,10.1-7.1c3.6,0.6,7.8-7.8,7.1-12.6
			c-0.6-4.3-6.9-9.1-10.9-8.3c-2.2,0.4-4.2,1.4-3.5,4.2c0.9,3.7-1,6.8-3.4,8.4C281.2,97.8,278.6,102.9,275,107.3z M324.5,135.6
			c3.4-0.7,5.5,2.6,8.5,1.9c1.5-0.4,4.2-0.7,1.9-2.7c-5-4.5-3.7-9.4-2.1-14.6c0.4-1.3,0-2.4-1.2-3.2c-1.5-1-2.2-0.1-3.1,0.9
			c-0.8,0.9-1.2,2.4-2.8,2c-5-1.1-7.3,1.2-7.1,6.8c-3.3-3.2-2.4-7.6-5.4-9.9c-1.1-0.8-3.4-2.8-3.5-0.2c-0.3,3.9-0.4,8.6,3.2,11.2
			c2.4,1.7,3.5,3.9,4.9,6.1c1.4,2.5,2.8,4.9,4.4,7.3c0.6,1,1.6,2.2,3.1,1.1c1.2-0.8,1.4-2,0.9-3.3
			C325.6,137.9,325.1,136.9,324.5,135.6z M306,107.5c2.4-1.4-0.5-6,3.6-5c3.4,0.8,4.3,3.8,3.2,7.2c-0.1,0.3-0.5,0.5-0.6,0.9
			c-0.9,2.4,1.7,2.1,2.6,3.1c0.7,0.8,2.2,1.5,2.5,0c0.8-4,1.5-8.1,1.7-12c0.2-3.1-9.4-6.5-12.3-4.5C302.6,100,303.6,103.6,306,107.5
			z M318.8,64.4c-0.8-2.6-2.7-2.3-4.3-1.9c-4.4,1.4-6.7,5-8.4,9c-0.7,1.7-2.2,3.7,0.2,5.2c2.4,1.5,3.5-0.1,4.2-2.3
			c0.1-0.5,0.2-1.1,0.9-0.9C321,76,315.3,66.8,318.8,64.4z M329,53.9c2.4-0.1,3.9,0,5.2-0.4c1-0.2,1.8-0.9,0.9-2.3
			c-2.5-3.9-15.5-5.9-19.1-2.9c-0.7,0.6-1.4,1.1-1.1,2.1c0.3,1.1,1.3,1,2.1,1.2C321.3,52.4,325.6,53.3,329,53.9z M343.2,100.7
			c1.8-1.2,4.1-1.8,4.2-4.7c0-1.5-0.6-2.3-1.6-2c-2.3,0.6-4.3,2-5,4.3C340.6,99.1,342,100.3,343.2,100.7z M341.8,132.7
			c1.1,2,3,2.9,5.1,3.6c1,0.3,2-0.2,1.9-1.2c-0.1-2.7-2.4-3.3-4.4-3.8C343.3,130.9,342.4,131.7,341.8,132.7z M291.2,119.4
			c-0.9-0.1-1.8,0-1.8,0.8c0.2,2.6,3,2.7,4.5,4c0.4,0.3,1.3-0.5,1.2-1.3C295,120.4,292.7,120.3,291.2,119.4z M321.9,146.6
			c-1.7-2.9-4.2-2.7-6.9-2.3C316.5,147.2,318.7,147.8,321.9,146.6z"/>
		<path class="st1" d="M399.5,118.2c1.3,2,2.5,4,5.5,2.7c1.5-0.7,2.7,0.1,2.6,1.4c0,1.5-1.4,0.8-2.4,0.9c-6.5,0.7-8.7-5.8-14.1-7.6
			c0.3-0.1-0.1-0.1-0.2,0.1c-1.4,1.8-2.6,4.8-5,3.8c-2.3-0.9-2.5-4-2.5-6.6c0-2.6,0.6-5.4-1.2-7.7c0.3-2.3,0.4-4.5-1.1-6.5
			c-0.4-3.3-2.9-5.3-5-7.6l-0.1-0.1c-0.6-0.7-1.2-1.4-1.9-2c0.2-2.1-1.6-3.1-2.6-4.4c-3.7-4.8-5.7-11.1-11-14.4
			c-4.2-2.6-6.6-6.5-10.4-9.8c3.8-1,4.7,3.1,7.5,3c0.3,0.3,0.7,0.6,1,0.9c1,1.6,2.3,3,4.3,3.4c0.7,0.7,1.4,1.3,2.1,2
			c1.8,3,2.5,7.3,7.6,6.5c7.9,7.5,15.3,15.5,20.3,25.4c1.4,2.8,3,5,5.3,6.9c1.9,1.7,3.7,3.5,1.4,6.2c-3.5-3.3-5-8.5-10.3-10.7
			C390.7,110.8,396,113.8,399.5,118.2z"/>
		<path class="st2" d="M275,107.3c3.6-4.4,6.2-9.5,11.1-13c2.3-1.6,4.3-4.7,3.4-8.4c-0.7-2.8,1.3-3.8,3.5-4.2
			c4-0.8,10.3,4.1,10.9,8.3c0.7,4.8-3.5,13.2-7.1,12.6c-6.4-1.1-7.7,3.4-10.1,7.1c-1.6,2.5-3.4,4.9-5.1,7.4c-1.9-7-2.3-7.2-9.2-6.2
			C272.4,109.2,274.2,108.6,275,107.3z"/>
		<path class="st2" d="M384.3,160.1c-2.6-2.6-1.9-6.7-3.7-9.8c-1.9,1,0,2.1-0.4,3.1c-0.4,0.9-0.9,1.6-1.7,1.9
			c-0.8,0.2-1.3-0.4-1.6-1.1c-4.3-10.1-10-19.6-11.5-30.7c4.2,1.2,3.9,5,4.8,8.1c0.4,1.5,0.1,3.6,2.1,3.9c2.4,0.3,1.9-2,2.4-3.4
			c0.5-1.4,1.1-2.9,2.9-2.5c1.5,0.3,1.6,1.8,1.5,3c-0.3,3.8,1.2,7.3,2.1,10.9c0.8,3.4,2.4,2.2,4.2,1.3c0.5,2.4,1,4.7,1.5,7.1
			C386.3,154.9,388.5,158.5,384.3,160.1z"/>
		<path class="st2" d="M357.5,63.6c-2.8,0-3.7-4-7.5-3c3.8,3.3,6.2,7.2,10.4,9.8c5.3,3.3,7.3,9.6,11,14.4c1,1.3,2.8,2.3,2.6,4.4
			c-2,1.5-4,3-6,4.5c-1.5-8.4-6.5-15.1-10.9-22c-1.9-2.9-5.7-4.6-8.7-6.8c-0.4-0.3-1-0.4-1.4-0.8c-2.3-2.8-7.7-4.4-5.8-8.8
			c1.7-3.7,6-0.9,9.1-0.6c0.6,0,1.2-0.6,1.8-0.9C354.7,56.7,355.9,60.3,357.5,63.6z"/>
		<path class="st2" d="M402.6,184.8c-0.7-8-5.9-13.5-10.6-19.2c1.4-2.4,3,0,4.5-0.2c2.7,2.7,1.7,8.1,6.6,9.4
			c2.1-4.5,1.4-9.1,0.9-13.6C409.7,168.3,409.3,176.3,402.6,184.8z"/>
		<path class="st1" d="M403.9,161.2c0.5,4.5,1.2,9.1-0.9,13.6c-4.9-1.3-3.8-6.7-6.6-9.4c-0.1-2.8-0.2-5.7-0.3-8.5
			c1.1-1.4,2-3.2,4.3-2.9C401.6,156.4,402.8,158.8,403.9,161.2z"/>
		<path class="st1" d="M386.8,152.1c-0.5-2.4-1-4.7-1.5-7.1c0.3-2.4,0.4-4.9-0.6-7.2c-0.7-1.5,0.2-3.3,1.1-3.8
			c1.7-0.8,1.5,1.8,2.8,2.4c0.1,0.4,0.2,0.8,0.3,1.1c0,2.9,0,5.7,0,8.6c0,1.1,0,2.2,0,3.2C388.7,150.6,389,152.3,386.8,152.1z"/>
		<path class="st2" d="M399.5,118.2c-3.6-4.3-8.8-7.4-10.3-13.9c5.4,2.2,6.8,7.5,10.3,10.7C399.5,116.1,399.5,117.1,399.5,118.2z"/>
		<path class="st2" d="M372.6,76.5c-5.1,0.8-5.7-3.6-7.6-6.5C369.8,69.5,372.6,71.3,372.6,76.5z"/>
		<path class="st2" d="M365.3,117.1c-0.5-3.1,0.6-5.9,1.8-8.7C370.8,112.3,369.8,115.1,365.3,117.1z"/>
		<path class="st2" d="M365.3,121.4c0-0.7,0-1.4,0-2.2c2,0.5,3.9-2.6,5.8-0.2c0.4,0.5,0.4,2,0,2.5
			C369.2,124.1,367.3,120.9,365.3,121.4z"/>
		<path class="st2" d="M391.1,165.5c-0.3,2.6-0.2,5.1,0.7,8.5c-3.7-2.4-3.8-5.7-4.9-8.5C388.3,165.5,389.7,165.5,391.1,165.5z"/>
		<path class="st2" d="M400.4,154c-2.3-0.4-3.2,1.5-4.3,2.9c-0.7-1.7,0-3,0.8-4.4c0.6-0.9,1.3-1.8,2.5-1.5
			C401.2,151.4,400.5,152.8,400.4,154z"/>
		<path class="st2" d="M362.9,67.9c-2-0.4-3.3-1.7-4.3-3.4c0.5-0.1,1.1-0.2,1.6-0.2c1.3,0,2.8-1.8,3.9-0.3
			C364.9,65.3,363.1,66.6,362.9,67.9z"/>
		<path class="st2" d="M381.1,98.9c1.5,2,1.4,4.2,1.1,6.5C380.5,103.4,379.2,101.4,381.1,98.9z"/>
		<path class="st2" d="M405.8,192.4c-0.6-1.5-1.2-2.9-1.7-4.4C406.8,188.6,407.3,190.1,405.8,192.4z"/>
		<path class="st2" d="M299.6,46.1c-1.3,0.2-2.5,0.3-3.4-0.8c0.4-0.7,0.8-1.4,1.2-2.1c1.7-0.3,2.6,0.6,3.3,2
			C300.4,45.5,300,45.8,299.6,46.1z"/>
		<path class="st2" d="M389,149.4c0-1.1,0-2.2,0-3.2C390.8,147.2,390.8,148.3,389,149.4z"/>
		<path class="st2" d="M376,91.2l0.1,0.1c-0.2,0.3-0.4,0.5-0.6,0.8C374.9,91.3,375.8,91.5,376,91.2z"/>
		<path class="st2" d="M294.2,41.1c1.2,0.1,1.8,0.9,2.3,1.9C295.5,42.7,294.7,42.1,294.2,41.1z"/>
		<path class="st2" d="M388.9,137.5c-0.1-0.4-0.2-0.7-0.3-1.1C388.7,136.8,388.8,137.2,388.9,137.5z"/>
		<path class="st2" d="M292.1,45c-0.4,0-0.7,0-1.1,0C291.4,45,291.7,45,292.1,45z"/>
		<path class="st2" d="M295.3,45c-0.4,0-0.7,0-1.1,0C294.6,45,295,45,295.3,45z"/>
		<path class="st2" d="M324.5,135.6c0.6,1.2,1.1,2.3,1.6,3.3c0.6,1.3,0.3,2.5-0.9,3.3c-1.5,1-2.4-0.2-3.1-1.1
			c-1.6-2.4-3-4.8-4.4-7.3c-1.3-2.3-2.5-4.4-4.9-6.1c-3.6-2.6-3.5-7.3-3.2-11.2c0.2-2.6,2.5-0.6,3.5,0.2c3,2.3,2.1,6.7,5.4,9.9
			c-0.3-5.6,2.1-7.8,7.1-6.8c1.6,0.3,2-1.2,2.8-2c0.9-0.9,1.6-1.9,3.1-0.9c1.3,0.9,1.6,2,1.2,3.2c-1.6,5.2-3,10.1,2.1,14.6
			c2.3,2-0.3,2.3-1.9,2.7C330,138.3,327.9,135,324.5,135.6z"/>
		<path class="st2" d="M306,107.5c-2.4-3.9-3.4-7.5,0.7-10.4c2.9-2,12.4,1.3,12.3,4.5c-0.2,3.9-0.8,8-1.7,12c-0.3,1.5-1.8,0.8-2.5,0
			c-0.9-1-3.5-0.6-2.6-3.1c0.1-0.3,0.5-0.5,0.6-0.9c1-3.3,0.2-6.3-3.2-7.2C305.5,101.5,308.4,106.1,306,107.5z"/>
		<path class="st2" d="M318.8,64.4c-3.5,2.3,2.2,11.6-7.4,9.2c-0.8-0.2-0.8,0.4-0.9,0.9c-0.6,2.2-1.8,3.7-4.2,2.3
			c-2.4-1.5-0.8-3.6-0.2-5.2c1.7-4,4-7.5,8.4-9C316,62.1,318,61.8,318.8,64.4z"/>
		<path class="st2" d="M329,53.9c-3.4-0.6-7.7-1.5-12-2.3c-0.8-0.2-1.8-0.1-2.1-1.2c-0.2-1,0.4-1.6,1.1-2.1c3.6-3,16.6-1,19.1,2.9
			c0.9,1.4,0.1,2.1-0.9,2.3C332.9,53.9,331.4,53.8,329,53.9z"/>
		<path class="st2" d="M343.2,100.7c-1.2-0.4-2.6-1.5-2.4-2.4c0.7-2.3,2.7-3.8,5-4.3c1-0.2,1.6,0.5,1.6,2
			C347.3,98.8,345,99.4,343.2,100.7z"/>
		<path class="st2" d="M341.8,132.7c0.6-1,1.5-1.8,2.6-1.4c2,0.6,4.3,1.2,4.4,3.8c0,1-1,1.5-1.9,1.2
			C344.9,135.6,342.9,134.7,341.8,132.7z"/>
		<path class="st2" d="M291.2,119.4c1.5,0.8,3.8,1,4,3.5c0.1,0.8-0.8,1.7-1.2,1.3c-1.5-1.3-4.3-1.4-4.5-4
			C289.3,119.5,290.3,119.4,291.2,119.4z"/>
		<path class="st2" d="M321.9,146.6c-3.2,1.2-5.4,0.7-6.9-2.3C317.7,143.8,320.2,143.7,321.9,146.6z"/>
		<path class="st0" d="M299.6,46.1c0.4-0.3,0.7-0.6,1.1-0.9c0.2,0.2,0.3,0.4,0.5,0.6C300.7,45.9,300.2,46,299.6,46.1z"/>
	</g>
	<g>
		<path class="st0" d="M0.1,69.5C0.1,48,0.1,26.5,0,5c0-2.7,0.6-3.3,3.3-3.3c69.5,0.1,138.9,0.1,208.4,0c2.7,0,3.3,0.6,3.3,3.3
			c-0.1,80.2-0.1,160.4,0,240.6c0,2.7-0.6,3.3-3.3,3.3c-69.5-0.1-138.9-0.1-208.4,0.1c-3.7,0-3.2-1.5-3.2-3.9c0-56,0-112.1,0-168.1
			c5.5-6.1,12.3-10.4,18.9-15c7.2-5,13.7-1.6,14.3,7.2c0.1,1.8,0,3.6,0.4,5.3c2.6,9.7,8.4,18.8,4,29.5c-0.6,1.3,0.6,3.4,1,5.1
			c-0.8,1.3-2.6,1.8-2.6,3.7c6.9-1.1,7.3-0.8,9.2,6.2c0.2,2.5,1.4,4.1,3.4,5.6c7.4,5.7,14.8,11.1,19.7,19.7
			c4.4,7.8,13.4,10.2,21.5,8.5c7-1.5,12.7-2.7,17.2,4.1c0.1,0.1,0.3,0.2,0.4,0.3c2.6,5.2,10.6,8.2,6.6,16.2c-0.8,1.7,0.9,2.9,2,4.1
			c2.7,2.9,5.8,5.3,7.9,8.7c2.4,3.8,1.8,5.3-2.8,5.7c-2.4,0.2-5.6,0.3-5.7,2.8c-0.1,6-4.8,9.7-6.1,15.1c-1,4.3,0.5,5.7,4.2,5.8
			c3.2,0.1,6.5-0.3,9.6,0.1c11.4,1.4,22.2,0.1,32.4-5.5c2.2-1.2,4.3-1.1,6,0.2c3.2,2.4,4.5,0.7,6.3-1.9c3.2-4.6,2.3-9.4,1.6-14.3
			c1.5-2.3,1-3.8-1.7-4.4c-0.5-1-1-2.1-1.5-3.1c6.7-8.5,7.2-16.6,1.3-23.7c-1.2-2.4-2.3-4.8-3.5-7.2c0-1.1,0.8-2.6-1-3
			c-1.1-0.3-1.9,0.6-2.5,1.5c-0.8,1.3-1.6,2.7-0.8,4.4c0.1,2.8,0.2,5.7,0.3,8.5c-1.5,0.2-3.1-2.2-4.5,0.2c-0.3-0.1-0.6-0.1-0.9-0.1
			c-1.4,0-2.8-0.1-4.2-0.1c-0.9-1.8-1.7-3.5-2.6-5.3c4.2-1.6,2-5.2,2.5-8c2.1,0.2,1.9-1.5,2.2-2.8c1.9-1.1,1.8-2.2,0-3.2
			c0-2.9,0-5.7,0-8.6c-0.1-0.4-0.2-0.8-0.3-1.1c-1.2-0.5-1.1-3.2-2.8-2.4c-0.9,0.4-1.7,2.3-1.1,3.8c1.1,2.4,0.9,4.8,0.6,7.2
			c-1.8,0.8-3.4,2-4.2-1.3c-0.9-3.6-2.4-7-2.1-10.9c0.1-1.2,0-2.7-1.5-3c-1.8-0.4-2.4,1.1-2.9,2.5c-0.5,1.4,0,3.7-2.4,3.4
			c-2-0.3-1.6-2.5-2.1-3.9c-0.9-3.1-0.5-7-4.8-8.1c0-0.7,0-1.4,0-2.1c2-0.5,3.9,2.6,5.8,0.2c0.4-0.5,0.4-2,0-2.5
			c-1.9-2.5-3.8,0.7-5.8,0.2c0-0.7,0-1.4,0-2.1c4.5-2.1,5.4-4.9,1.8-8.7c0.2-5,2.1-9.8,0.9-14.9c2-1.5,4-3,6-4.5
			c0.6,0.7,1.2,1.4,1.9,2c-0.2,0.3-1,0.2-0.5,0.9c0.2-0.3,0.4-0.5,0.6-0.8c2.1,2.3,4.6,4.2,5,7.6c-1.9,2.5-0.6,4.5,1.1,6.5
			c1.8,2.4,1.2,5.1,1.2,7.7c0,2.6,0.2,5.7,2.5,6.6c2.4,0.9,3.6-2.1,5-3.8c0.2-0.2,0.5-0.3,0.2-0.1c5.4,1.8,7.7,8.3,14.1,7.6
			c1-0.1,2.4,0.6,2.4-0.9c0-1.4-1.1-2.1-2.6-1.4c-2.9,1.3-4.2-0.7-5.5-2.7c0-1.1,0-2.1,0-3.2c2.3-2.7,0.6-4.5-1.4-6.2
			c-2.2-2-3.9-4.2-5.3-6.9c-5-9.8-12.3-17.9-20.3-25.4c0.1-5.1-2.8-7-7.6-6.5c-0.7-0.7-1.4-1.3-2.1-2c0.2-1.4,2-2.6,1.1-3.9
			c-1.1-1.5-2.5,0.3-3.9,0.3c-0.5,0-1.1,0.1-1.6,0.2c-0.3-0.3-0.7-0.6-1-0.9c-1.6-3.3-2.9-6.9-5.2-9.8c-1.2-2-2.9-4.5-5-4.4
			c-7.2,0.2-11.1-5.5-16.5-8.5c-1.9-1-3.7-2-5.7-2.8c-5.4-2.1-10.8-4-16.8-6.2c1.3-0.7,2.1-1.3,2.9-1.5c2.5-0.5,3.9-2.5,4-4.4
			c0.2-2.3-2.5-2.7-4.3-3.3c-2-0.7-4.2-1.9-6.1-1.5c-2,0.4-6.9-1.9-5.4,3.9c0.4,1.5-1.5,1.7-2.3,2.6c-2.5,3-7.5,1.3-9.6,5.8
			c-1.2,2.6-5.2,2.6-7.6,5.4c-2.3,2.7-5.4,6.5-10.1,7c-1.2,0.1-1.6,1.8-1.2,3.2c0.6,2.1,2,0.9,3,0.5c4.9-1.9,10.4-3.2,14-7.4
			c2.9-3.3,5.5-2.9,8.6-1.1c0.5,1,1.3,1.6,2.3,1.9c0.3,0,0.6,0.1,0.9,0.2c-0.4,0.7-0.8,1.4-1.2,2.1c-0.3,0.1-0.6,0-0.9-0.2
			c-0.4,0-0.7,0-1.1,0c-0.7,0-1.4,0-2.2,0c-0.4,0-0.7,0-1.1,0c-1.1,0.5-3.4,0.6-2.1,2.4c2.8,3.9,5.9,7.6,9.2,11.1
			c1,1.1,2.7,0.8,4,0.1c1.1-0.6,2.3-2.8,3.2-1c0.6,1.2,1.3,3.3-0.4,5.3c-2.7,3.4-5.6,6.8-6.7,11.3c-0.5,2-2.2,2.2-3.8,1
			c-1.4-1.1-2.7-2.3-4.1-3.4c-4.8-3.6-9.3-8.4-14.7-10.4c-4.8-1.8-8-4.6-11.2-8.1c-1.6-1.8-4.1-2.8-5.7-1.5
			C15.5,59.6,4,59.2,0.1,69.5z"/>
		<path class="st2" d="M38.8,109.1c3.6-4.4,6.2-9.5,11.1-13c2.3-1.6,4.3-4.7,3.4-8.4c-0.7-2.8,1.3-3.8,3.5-4.2
			c4-0.8,10.3,4.1,10.9,8.3c0.7,4.8-3.5,13.2-7.1,12.6c-6.4-1.1-7.7,3.4-10.1,7.1c-1.6,2.5-3.4,4.9-5.1,7.4c-1.9-7-2.3-7.2-9.2-6.2
			C36.2,110.9,38,110.3,38.8,109.1z"/>
		<path class="st2" d="M148.1,161.9c-2.6-2.6-1.9-6.7-3.7-9.8c-1.9,1,0,2.1-0.4,3.1c-0.4,0.9-0.9,1.6-1.7,1.9
			c-0.8,0.2-1.3-0.4-1.6-1.1c-4.3-10.1-10-19.6-11.5-30.7c4.2,1.2,3.9,5,4.8,8.1c0.4,1.5,0.1,3.6,2.1,3.9c2.4,0.3,1.9-2,2.4-3.4
			c0.5-1.4,1.1-2.9,2.9-2.5c1.5,0.3,1.6,1.8,1.5,3c-0.3,3.8,1.2,7.3,2.1,10.9c0.8,3.4,2.4,2.2,4.2,1.3c0.5,2.4,1,4.7,1.5,7.1
			C150.1,156.6,152.3,160.2,148.1,161.9z"/>
		<path class="st2" d="M121.4,65.3c-2.8,0-3.7-4-7.5-3c3.8,3.3,6.2,7.2,10.4,9.8c5.3,3.3,7.3,9.6,11,14.4c1,1.3,2.8,2.3,2.6,4.4
			c-2,1.5-4,3-6,4.5c-1.5-8.4-6.5-15.1-10.9-22c-1.9-2.9-5.7-4.6-8.7-6.8c-0.4-0.3-1-0.4-1.4-0.8c-2.3-2.8-7.7-4.4-5.8-8.8
			c1.7-3.7,6-0.9,9.1-0.6c0.6,0,1.2-0.6,1.8-0.9C118.5,58.4,119.7,62,121.4,65.3z"/>
		<path class="st2" d="M166.4,186.6c-0.7-8-5.9-13.5-10.6-19.2c1.4-2.4,3,0,4.5-0.2c2.7,2.7,1.7,8.1,6.6,9.4
			c2.1-4.5,1.4-9.1,0.9-13.6C173.6,170,173.1,178.1,166.4,186.6z"/>
		<path class="st2" d="M163.3,119.9c-3.6-4.3-8.8-7.4-10.3-13.9c5.4,2.2,6.8,7.5,10.3,10.7C163.3,117.8,163.3,118.9,163.3,119.9z"/>
		<path class="st2" d="M136.4,78.2c-5.1,0.8-5.7-3.6-7.6-6.5C133.6,71.2,136.5,73,136.4,78.2z"/>
		<path class="st2" d="M129.2,118.9c-0.5-3.1,0.6-5.9,1.8-8.7C134.6,114,133.7,116.8,129.2,118.9z"/>
		<path class="st2" d="M129.2,123.2c0-0.7,0-1.4,0-2.2c2,0.5,3.9-2.6,5.8-0.2c0.4,0.5,0.4,2,0,2.5
			C133,125.8,131.1,122.7,129.2,123.2z"/>
		<path class="st2" d="M154.9,167.3c-0.3,2.6-0.2,5.1,0.7,8.5c-3.7-2.4-3.8-5.7-4.9-8.5C152.1,167.2,153.5,167.2,154.9,167.3z"/>
		<path class="st2" d="M164.3,155.7c-2.3-0.4-3.2,1.5-4.3,2.9c-0.7-1.7,0-3,0.8-4.4c0.6-0.9,1.3-1.8,2.5-1.5
			C165,153.1,164.3,154.6,164.3,155.7z"/>
		<path class="st2" d="M126.7,69.7c-2-0.4-3.3-1.7-4.3-3.4c0.5-0.1,1.1-0.2,1.6-0.2c1.3,0,2.8-1.8,3.9-0.3
			C128.7,67.1,126.9,68.3,126.7,69.7z"/>
		<path class="st2" d="M144.9,100.6c1.5,2,1.4,4.2,1.1,6.5C144.3,105.1,143,103.1,144.9,100.6z"/>
		<path class="st2" d="M169.6,194.1c-0.6-1.5-1.2-2.9-1.7-4.4C170.6,190.3,171.1,191.8,169.6,194.1z"/>
		<path class="st2" d="M63.5,47.8C62.2,48,61,48.2,60.1,47c0.4-0.7,0.8-1.4,1.2-2.1c1.7-0.3,2.6,0.6,3.3,2
			C64.2,47.2,63.8,47.5,63.5,47.8z"/>
		<path class="st2" d="M152.8,151.1c0-1.1,0-2.2,0-3.2C154.6,148.9,154.6,150,152.8,151.1z"/>
		<path class="st2" d="M139.8,92.9l0.1,0.1c-0.2,0.3-0.4,0.5-0.6,0.8C138.7,93.1,139.6,93.2,139.8,92.9z"/>
		<path class="st2" d="M58.1,42.8c1.2,0.1,1.8,0.9,2.3,1.9C59.3,44.4,58.5,43.8,58.1,42.8z"/>
		<path class="st2" d="M152.7,139.3c-0.1-0.4-0.2-0.7-0.3-1.1C152.5,138.5,152.6,138.9,152.7,139.3z"/>
		<path class="st2" d="M55.9,46.7c-0.4,0-0.7,0-1.1,0C55.2,46.7,55.6,46.7,55.9,46.7z"/>
		<path class="st2" d="M59.1,46.8c-0.4,0-0.7,0-1.1,0C58.4,46.7,58.8,46.8,59.1,46.8z"/>
		<path class="st2" d="M88.3,137.4c0.6,1.2,1.1,2.3,1.6,3.3c0.6,1.3,0.3,2.5-0.9,3.3c-1.5,1-2.4-0.2-3.1-1.1c-1.6-2.4-3-4.8-4.4-7.3
			c-1.3-2.3-2.5-4.4-4.9-6.1c-3.6-2.6-3.5-7.3-3.2-11.2c0.2-2.6,2.5-0.6,3.5,0.2c3,2.3,2.1,6.7,5.4,9.9c-0.3-5.6,2.1-7.8,7.1-6.8
			c1.6,0.3,2-1.2,2.8-2c0.9-0.9,1.6-1.9,3.1-0.9c1.3,0.9,1.6,2,1.2,3.2c-1.6,5.2-3,10.1,2.1,14.6c2.3,2-0.3,2.3-1.9,2.7
			C93.8,140,91.7,136.7,88.3,137.4z"/>
		<path class="st2" d="M69.8,109.2c-2.4-3.9-3.4-7.5,0.7-10.4c2.9-2,12.4,1.3,12.3,4.5c-0.2,3.9-0.8,8-1.7,12
			c-0.3,1.5-1.8,0.8-2.5,0c-0.9-1-3.5-0.6-2.6-3.1c0.1-0.3,0.5-0.5,0.6-0.9c1-3.3,0.2-6.3-3.2-7.2C69.3,103.2,72.2,107.8,69.8,109.2
			z"/>
		<path class="st2" d="M82.6,66.1c-3.5,2.3,2.2,11.6-7.4,9.2c-0.8-0.2-0.8,0.4-0.9,0.9c-0.6,2.2-1.8,3.7-4.2,2.3
			c-2.4-1.5-0.8-3.6-0.2-5.2c1.7-4,4-7.5,8.4-9C79.8,63.8,81.8,63.5,82.6,66.1z"/>
		<path class="st2" d="M92.8,55.6c-3.4-0.6-7.7-1.5-12-2.3c-0.8-0.2-1.8-0.1-2.1-1.2c-0.2-1,0.4-1.6,1.1-2.1c3.6-3,16.6-1,19.1,2.9
			c0.9,1.4,0.1,2.1-0.9,2.3C96.7,55.6,95.2,55.5,92.8,55.6z"/>
		<path class="st2" d="M107,102.4c-1.2-0.4-2.6-1.5-2.4-2.4c0.7-2.3,2.7-3.8,5-4.3c1-0.2,1.6,0.5,1.6,2
			C111.1,100.6,108.9,101.2,107,102.4z"/>
		<path class="st2" d="M105.7,134.4c0.6-1,1.5-1.8,2.6-1.4c2,0.6,4.3,1.2,4.4,3.8c0,1-1,1.5-1.9,1.2
			C108.7,137.3,106.8,136.4,105.7,134.4z"/>
		<path class="st2" d="M55,121.2c1.5,0.8,3.8,1,4,3.5c0.1,0.8-0.8,1.7-1.2,1.3c-1.5-1.3-4.3-1.4-4.5-4
			C53.2,121.2,54.1,121.1,55,121.2z"/>
		<path class="st2" d="M85.7,148.3c-3.2,1.2-5.4,0.7-6.9-2.3C81.5,145.6,84,145.4,85.7,148.3z"/>
		<path class="st0" d="M63.5,47.8c0.4-0.3,0.7-0.6,1.1-0.9c0.2,0.2,0.3,0.4,0.5,0.6C64.5,47.6,64,47.7,63.5,47.8z"/>
	</g>
	<g>
		<path class="st1" d="M510.4,107.3c-0.4-1.7-1.5-3.8-1-5.1c4.4-10.7-1.4-19.9-4-29.5c-0.5-1.7-0.3-3.5-0.4-5.3
			c-0.6-8.8-7.1-12.2-14.3-7.2c-6.6,4.6-13.5,8.9-18.9,15c0-2.5,0-5,0-7.5c4-10.2,15.4-9.9,22.5-15.8c1.6-1.3,4.1-0.3,5.7,1.5
			c3.1,3.5,6.3,6.3,11.2,8.1c5.5,2,9.9,6.8,14.7,10.4c1.4,1.1,2.7,2.3,4.1,3.4c1.6,1.3,3.3,1,3.8-1c1.1-4.5,4-7.9,6.7-11.3
			c1.6-2,0.9-4.2,0.4-5.3c-0.9-1.8-2.1,0.4-3.2,1c-1.3,0.7-3.1,0.9-4-0.1c-3.2-3.6-6.4-7.2-9.2-11.1c-1.3-1.8,1-1.9,2.1-2.4
			c0.4,0,0.7,0,1.1,0c0.7,0,1.4,0,2.2,0c0.4,0,0.7,0,1.1,0c0.3,0.2,0.6,0.3,0.9,0.2c0.9,1.2,2.1,1.1,3.4,0.8
			c0.5-0.1,1.1-0.2,1.6-0.3c-0.2-0.2-0.3-0.4-0.5-0.6c-0.7-1.3-1.6-2.3-3.3-2c-0.3-0.2-0.6-0.2-0.9-0.2c-0.5-0.9-1.1-1.8-2.3-1.9
			c-3.2-1.9-5.8-2.2-8.6,1.1c-3.6,4.1-9,5.5-14,7.4c-1,0.4-2.4,1.5-3-0.5c-0.4-1.3,0-3.1,1.2-3.2c4.7-0.5,7.8-4.4,10.1-7
			c2.4-2.8,6.5-2.8,7.6-5.4c2.1-4.5,7.1-2.7,9.6-5.8c0.7-0.9,2.7-1.1,2.3-2.6c-1.5-5.8,3.4-3.5,5.4-3.9c1.9-0.4,4.1,0.9,6.1,1.5
			c1.8,0.6,4.5,1,4.3,3.3c-0.1,1.9-1.5,3.9-4,4.4c-0.8,0.2-1.6,0.8-2.9,1.5c6,2.2,11.4,4.1,16.8,6.2c2,0.8,3.8,1.8,5.7,2.8
			c5.4,3,9.3,8.6,16.5,8.5c2.2,0,3.8,2.4,5,4.4c-0.6,0.3-1.2,0.9-1.8,0.9c-3.2-0.3-7.5-3.1-9.1,0.6c-2,4.4,3.5,6,5.8,8.8
			c0.3,0.4,0.9,0.5,1.4,0.8c3,2.2,6.8,3.9,8.7,6.8c4.4,6.9,9.4,13.6,10.9,22c1.1,5-0.7,9.9-0.9,14.9c-1.2,2.7-2.4,5.5-1.8,8.7
			c0,0.7,0,1.4,0,2.1c0,0.7,0,1.4,0,2.2c0,0.7,0,1.4,0,2.1c1.4,11.1,7.2,20.6,11.5,30.7c0.3,0.7,0.8,1.3,1.6,1.1
			c0.8-0.3,1.3-0.9,1.7-1.9c0.4-1-1.5-2.1,0.4-3.1c1.9,3.1,1.1,7.2,3.7,9.8c0.9,1.8,1.7,3.5,2.6,5.3c1.1,2.8,1.2,6.1,4.9,8.5
			c-0.9-3.3-1-5.9-0.7-8.5c0.3,0,0.6,0,0.9,0.1c4.7,5.7,9.9,11.2,10.6,19.2c0.5,1,1,2.1,1.5,3.1c0.6,1.5,1.2,2.9,1.7,4.4
			c0.7,4.9,1.6,9.7-1.6,14.3c-1.8,2.6-3.1,4.3-6.3,1.9c-1.7-1.3-3.8-1.4-6-0.2c-10.1,5.5-21,6.9-32.4,5.5c-3.2-0.4-6.4,0-9.6-0.1
			c-3.7-0.2-5.2-1.6-4.2-5.8c1.3-5.4,6-9.1,6.1-15.1c0-2.5,3.3-2.6,5.7-2.8c4.6-0.4,5.1-1.9,2.8-5.7c-2.1-3.4-5.3-5.8-7.9-8.7
			c-1.1-1.2-2.8-2.4-2-4.1c4-8-4-11-6.6-16.2c-0.1-0.1-0.3-0.2-0.4-0.3c-4.5-6.8-10.1-5.6-17.2-4.1c-8.1,1.7-17.1-0.7-21.5-8.5
			c-4.9-8.6-12.3-14-19.7-19.7c-2-1.6-3.2-3.2-3.4-5.6c1.7-2.5,3.5-4.9,5.1-7.4c2.4-3.7,3.7-8.2,10.1-7.1c3.6,0.6,7.8-7.8,7.1-12.6
			c-0.6-4.3-6.9-9.1-10.9-8.3c-2.2,0.4-4.2,1.4-3.5,4.2c0.9,3.7-1,6.8-3.4,8.4C516.6,97.8,514,102.9,510.4,107.3z M559.9,135.6
			c3.4-0.7,5.5,2.6,8.5,1.9c1.5-0.4,4.2-0.7,1.9-2.7c-5-4.5-3.7-9.4-2.1-14.6c0.4-1.3,0-2.4-1.2-3.2c-1.5-1-2.2-0.1-3.1,0.9
			c-0.8,0.9-1.2,2.4-2.8,2c-5-1.1-7.3,1.2-7.1,6.8c-3.3-3.2-2.4-7.6-5.4-9.9c-1.1-0.8-3.4-2.8-3.5-0.2c-0.3,3.9-0.4,8.6,3.2,11.2
			c2.4,1.7,3.5,3.9,4.9,6.1c1.4,2.5,2.8,4.9,4.4,7.3c0.6,1,1.6,2.2,3.1,1.1c1.2-0.8,1.4-2,0.9-3.3
			C561,137.9,560.5,136.9,559.9,135.6z M541.4,107.5c2.4-1.4-0.5-6,3.6-5c3.4,0.8,4.3,3.8,3.2,7.2c-0.1,0.3-0.5,0.5-0.6,0.9
			c-0.9,2.4,1.7,2.1,2.6,3.1c0.7,0.8,2.2,1.5,2.5,0c0.8-4,1.5-8.1,1.7-12c0.2-3.1-9.4-6.5-12.3-4.5C538,100,539,103.6,541.4,107.5z
			 M554.2,64.4c-0.8-2.6-2.7-2.3-4.3-1.9c-4.4,1.4-6.7,5-8.4,9c-0.7,1.7-2.2,3.7,0.2,5.2c2.4,1.5,3.5-0.1,4.2-2.3
			c0.1-0.5,0.2-1.1,0.9-0.9C556.4,76,550.7,66.8,554.2,64.4z M564.4,53.9c2.4-0.1,3.9,0,5.2-0.4c1-0.2,1.8-0.9,0.9-2.3
			c-2.5-3.9-15.5-5.9-19.1-2.9c-0.7,0.6-1.4,1.1-1.1,2.1c0.3,1.1,1.3,1,2.1,1.2C556.7,52.4,561,53.3,564.4,53.9z M578.6,100.7
			c1.8-1.2,4.1-1.8,4.2-4.7c0-1.5-0.6-2.3-1.6-2c-2.3,0.6-4.3,2-5,4.3C576,99.1,577.4,100.3,578.6,100.7z M577.2,132.7
			c1.1,2,3,2.9,5.1,3.6c1,0.3,2-0.2,1.9-1.2c-0.1-2.7-2.4-3.3-4.4-3.8C578.7,130.9,577.9,131.7,577.2,132.7z M526.6,119.4
			c-0.9-0.1-1.8,0-1.8,0.8c0.2,2.6,3,2.7,4.5,4c0.4,0.3,1.3-0.5,1.2-1.3C530.4,120.4,528.1,120.3,526.6,119.4z M557.3,146.6
			c-1.7-2.9-4.2-2.7-6.9-2.3C551.9,147.2,554.1,147.8,557.3,146.6z"/>
		<path class="st1" d="M634.9,118.2c1.3,2,2.5,4,5.5,2.7c1.5-0.7,2.7,0.1,2.6,1.4c0,1.5-1.4,0.8-2.4,0.9c-6.5,0.7-8.7-5.8-14.1-7.6
			c0.3-0.1-0.1-0.1-0.2,0.1c-1.4,1.8-2.6,4.8-5,3.8c-2.3-0.9-2.5-4-2.5-6.6c0-2.6,0.6-5.4-1.2-7.7c0.3-2.3,0.4-4.5-1.1-6.5
			c-0.4-3.3-2.9-5.3-5-7.6l-0.1-0.1c-0.6-0.7-1.2-1.4-1.9-2c0.2-2.1-1.6-3.1-2.6-4.4c-3.7-4.8-5.7-11.1-11-14.4
			c-4.2-2.6-6.6-6.5-10.4-9.8c3.8-1,4.7,3.1,7.5,3c0.3,0.3,0.7,0.6,1,0.9c1,1.6,2.3,3,4.3,3.4c0.7,0.7,1.4,1.3,2.1,2
			c1.8,3,2.5,7.3,7.6,6.5c7.9,7.5,15.3,15.5,20.3,25.4c1.4,2.8,3,5,5.3,6.9c1.9,1.7,3.7,3.5,1.4,6.2c-3.5-3.3-5-8.5-10.3-10.7
			C626.1,110.8,631.4,113.8,634.9,118.2z"/>
		<path class="st1" d="M639.3,161.2c0.5,4.5,1.2,9.1-0.9,13.6c-4.9-1.3-3.8-6.7-6.6-9.4c-0.1-2.8-0.2-5.7-0.3-8.5
			c1.1-1.4,2-3.2,4.3-2.9C637,156.4,638.2,158.8,639.3,161.2z"/>
		<path class="st1" d="M622.2,152.1c-0.5-2.4-1-4.7-1.5-7.1c0.3-2.4,0.4-4.9-0.6-7.2c-0.7-1.5,0.2-3.3,1.1-3.8
			c1.7-0.8,1.5,1.8,2.8,2.4c0.1,0.4,0.2,0.8,0.3,1.1c0,2.9,0,5.7,0,8.6c0,1.1,0,2.2,0,3.2C624.1,150.6,624.4,152.3,622.2,152.1z"/>
	</g>
</g>
<g>
</g>
<g>
</g>
<g>
</g>
<g>
</g>
<g>
</g>
<g>
</g>
<g>
</g>
<g>
</g>
<g>
</g>
<g>
</g>
<g>
</g>
<g>
</g>
<g>
</g>
<g>
</g>
<g>
</g>
</svg>
