<?xml version="1.0" encoding="utf-8"?>
<!-- Generator: Adobe Illustrator 17.1.0, SVG Export Plug-In . SVG Version: 6.00 Build 0)  -->
<!DOCTYPE svg PUBLIC "-//W3C//DTD SVG 1.1//EN" "http://www.w3.org/Graphics/SVG/1.1/DTD/svg11.dtd">
<svg version="1.1" id="Layer_1" xmlns="http://www.w3.org/2000/svg" xmlns:xlink="http://www.w3.org/1999/xlink" x="0px" y="0px"
	 viewBox="0 0 640.7 200.2" style="enable-background:new 0 0 640.7 200.2;" xml:space="preserve">
<style type="text/css">
	.st0{fill:#010000;}
	.st1{fill:#FB0000;}
	.st2{fill:#FA0101;}
</style>
<g>
	<g>
		<path class="st0" d="M0.1,52.1c0-3,0-6,0-9c4.3-0.1,8.5-0.2,12.9-0.7c3.6-0.5,7.5-2.6,10.5-1.6c4.2,1.5,7.9,1.5,12,0.4
			c1.3-0.3,2.6-0.2,3.8,0.6c0.7,0.5,1.6,0.8,1.3,1.8c-0.2,0.5-1,1.3-1.4,1.2c-5.3-0.5-9.5,3.8-15.7,2.5c2.4,2.1,4,3.3,6.4,4
			c3.6,1,7.3,2.7,5.8,8.1c-0.7,2.6,1.9,1.8,3,1.7c4.5-0.6,8.3,1,11.4,3.9c2.1,2,3.6,4.6,5.7,7.4c2.9-6.1,6.8-11.1,8.4-17.6
			c3-12.2,2-24.6,3.5-36.9c0.8-6.7,1.7-12.6,6.3-17.7c18.3,0,36.7,0,55,0c1.3,1.4,3,1.8,4.9,2.1c10.2,1.6,12.4,4.7,10.3,14.7
			c-2,9.6-1.8,19.2-0.3,28.8c0.3,1.9-1.2,3.8,0.3,5.7c2.9,4,2.3,8.2-0.3,12.1c-1.1,1.7-0.9,3.1-1,4.9c-0.3,5.2,2.8,10.4,0.2,15.6
			c-3.7,2.6-3.7,6.4-3.9,11.1c1.9-3.8,3.5-6.9,5-9.9c5.4-2.8,9.4,1.2,13.9,3c2.4,1,4.8,2,2.8,5.4c-0.2,0.3,0.7,1.6,1.3,2
			c3,1.5,4.7,4.2,6.4,6.8c1,1.5,2.1,1.7,3.6,1.9c4.9,0.7,7.9-3.6,11.1-5.5c5.9-3.5,9.8-1.1,14.6,0.7c-1.1,1.8-2.3,1.9-3.9,1.2
			c-3.7-1.5-6.5,0.6-7.6,3.6c-0.9,2.7-2.7,3.2-4.7,4.4c-2.9,1.6-6.9,1.2-8.7,5.1c-1.3,2.9-0.9,6-2.3,9c-2.6,5.6,4.7,2.2,5.5,5.1
			c0,0.1,0.2,0.2,0.4,0.3c1.6,1.8,3.6,2.8,5.8,1.8c2.4-1.1,3.6-3.3,3.7-6c0.1-2.3,0-4.7,0.1-7c0.1-0.7,0.6-1.9,1.1-2
			c1.2-0.3,1.5,0.8,1.8,1.8c1.6,5.6,2,11.2-0.7,16.4c-1.6,3-1.1,5.8-1.2,8.7c0,1.5,1.3,2.9,2.3,2.9c1.5-0.1,2.7-2.3,2.3-3.4
			c-2.2-5.4,2.9-7.7,4.2-12.1c1.5,2.2,1.8,4.1,2.2,6c0.9,3.7,0.1,7.6,1.9,11.1c0,16.6-0.2,33.2,0.1,49.9c0.1,3.9-1.1,4.2-4.5,4.2
			c-40.2-0.1-80.4-0.1-120.7-0.1c-0.3-1.1-0.7-2.2-0.7-3.3c0-1,1.1-2.3-0.9-2.6c-1.5-0.2-2.9-0.1-3.7,1.6c-0.7,1.4-0.6,2.9-0.7,4.3
			c-21.7,0-43.4-0.1-65.2,0.1c-2.9,0-4.1-0.3-3.9-3.7c0.3-8.4,0.1-16.9,0.1-25.4c3.5,0.4,6.9-1.1,10.2-0.9c5.4,0.4,7.6-2.4,9.1-6.8
			c-6.8-1.5-12.9,2.2-19.3,1.7c0-35.7,0-71.3,0-107c4.4,0.1,8.8,1.1,12.9-1.4c1.7-1,2.3-2.3,2.1-4c-0.2-2.5-2.2-1.5-3.4-1.6
			C7.8,50.8,3.9,51.2,0.1,52.1z M71.6,88.5c-0.7-4.1-1.2-8.2-2-12.3c-0.2-0.9-0.1-2.7-1.8-2.6c-1.4,0.1-1.8,1.4-1.7,2.6
			c0.4,3.6-1.1,7.3,1.2,10.7c1.2,1.8,0.2,3.3-1.5,4c-2.3,0.9-4,2.7-3.1,4.8c1.1,2.7,3.8,0.6,5.3,0.1c4-1.3,5.6,0,6.2,3.8
			c0.8,5.6,2.7,10.7,6.8,14.9c4.5,4.6,5.2,10.4,3,16.4c-2.1,5.8-4.8,11.3-6.7,17.1c-0.8,2.3-2,2.7-3.8,2.6c-2.4-0.2-1.2-2.3-1.4-3.5
			c-0.9-6.6,3.1-12.3,3.3-18.7c-1-0.4-1.7,0-2.4,0.4c-2.7,1.8-3.5,4.7-4.6,7.5c-0.5,1.3-1.1,2.8-2.7,2.3c-1.7-0.5-1.8-2.2-1.4-3.8
			c0.2-0.6,0.5-1.2,0.7-1.9c1.2-3.8,0.8-6.6-3-9.2c-3.6-2.4-6.8-5.3-8.5-10c-0.7-2.1-2.3-7.6-6.7-5.3c-5.1,2.6-8.2,7.7-10.4,12.8
			c-1.4,3.2,2.4,7.7-1.8,10.7c-0.1,0.1,0.3,1.4,0.8,1.6c2.4,1.5,5.2,4.4,7.4,4.1c5.9-0.9,10.2,1.9,15.2,3.6
			c6.1,2.1,7.1,4.9,6.3,10.3c-0.3,2.4-0.7,4.8-3.1,5c-3,0.3-6.4,3-9.3-1.1c-1.7-2.4-3.4-5-7-7.1c2.8,8.6,6,16,12.6,21
			c6.4,4.9,13,9.6,20.5,12.8c5.1,2.2,12.1,0.6,14.4-4c5.2-10.4,9.2-21.2,9.8-33c0.2-3.7,2.3-5.3,5.7-4.9c7.5,0.7,15.3-3.6,18.6-10.4
			c0.4-0.8,0.8-1.5,0.2-2.3c-0.8-0.9-1.7-0.3-2.1,0.3c-5.4,6.2-12.9,7.7-20.4,9c-1.7,0.3-3.3,1.8-5-0.2c-1.8-2.2-0.5-4,0.5-6
			c1.2-2.5,3.1-3.9,5.8-3.9c2.1,0,3.9-0.8,5.3-2.3c2.5-2.7,5.6-4.7,8.7-6.6c4.8-3,7.1-7.5,8.8-12.7c1.8-5.8,1.6-12,5.1-17.5
			c1.9-2.8,1.9-7.7,0.2-10.1c-3.1-4.2-2.1-7.5-0.8-11.5c0.8-2.7,1.1-5.7-3-6.6c-0.8-0.2-1.8-1.1-2.1-1.9c-1.2-3.4-4-3.6-6.8-3.7
			c-12.6-0.5-24.9,3.1-37.5,2.2c-4.8-0.3-7,3.1-7.2,8.3c-0.1,1.3,0.2,2.9-0.4,3.9C72.3,74.8,73.3,81.6,71.6,88.5z M44,146.5
			c-1.2-1.8,1.2-4.8-2.4-5.8c-1.9-0.5-3.4-0.9-5,0.5c-0.7,0.7-1.5,1.4-1.3,2.5c0.2,1.2,1.3,1.5,2.3,1.3
			C39.8,144.8,41.6,145.9,44,146.5z"/>
		<path class="st1" d="M143,83.9c2.6-5.2-0.5-10.4-0.2-15.6c0.1-1.8,0-3.2,1-4.9c2.5-3.9,3.1-8.1,0.3-12.1c-1.4-2,0-3.8-0.3-5.7
			c-1.4-9.6-1.7-19.2,0.3-28.8c2.1-10,0-13.1-10.3-14.7c-1.9-0.3-3.5-0.7-4.9-2.1c22.5,0,45,0.1,67.5-0.1c3,0,3.6,0.6,3.6,3.6
			c-0.1,47.5-0.1,95-0.1,142.5c-1.8-3.5-1-7.4-1.9-11.1c-0.5-1.9-0.7-3.8-2.2-6c-1.3,4.4-6.4,6.7-4.2,12.1c0.4,1.1-0.7,3.3-2.3,3.4
			c-1,0.1-2.3-1.4-2.3-2.9c0-2.9-0.4-5.7,1.2-8.7c2.8-5.2,2.3-10.9,0.7-16.4c-0.3-1-0.6-2.1-1.8-1.8c-0.5,0.1-1.1,1.3-1.1,2
			c-0.2,2.3-0.1,4.7-0.1,7c-0.1,2.7-1.4,4.9-3.7,6c-2.2,1-4.2,0-5.8-1.8c-0.1-0.1-0.3-0.2-0.4-0.3c-0.8-3-8.1,0.5-5.5-5.1
			c1.4-3,1-6.1,2.3-9c1.8-3.8,5.8-3.4,8.7-5.1c2-1.1,3.7-1.6,4.7-4.4c1-2.9,3.8-5.1,7.6-3.6c1.7,0.7,2.8,0.6,3.9-1.2
			c-4.8-1.8-8.8-4.1-14.6-0.7c-3.3,1.9-6.2,6.2-11.1,5.5c-1.5-0.2-2.6-0.4-3.6-1.9c-1.6-2.6-3.4-5.3-6.4-6.8c-0.6-0.3-1.5-1.6-1.3-2
			c1.9-3.4-0.4-4.4-2.8-5.4c-4.5-1.8-8.4-5.8-13.9-3C143.8,84.7,143.4,84.3,143,83.9z"/>
		<path class="st1" d="M74.1,0.1c-4.6,5-5.5,11-6.3,17.7c-1.5,12.3-0.5,24.7-3.5,36.9c-1.6,6.5-5.5,11.6-8.4,17.6
			c-2.1-2.7-3.5-5.4-5.7-7.4c-3.1-2.9-6.9-4.4-11.4-3.9c-1.1,0.1-3.7,1-3-1.7c1.5-5.4-2.3-7-5.8-8.1c-2.4-0.7-4-1.8-6.4-4
			c6.2,1.3,10.4-3,15.7-2.5c0.4,0,1.2-0.7,1.4-1.2c0.3-1-0.6-1.3-1.3-1.8c-1.2-0.8-2.6-1-3.8-0.6c-4.1,1.1-7.8,1.1-12-0.4
			c-3-1.1-6.9,1.1-10.5,1.6c-4.3,0.6-8.6,0.6-12.9,0.7c0-13.3,0.1-26.7-0.1-40C0,0.6,0.6,0,3.1,0C26.8,0.1,50.4,0.1,74.1,0.1z"/>
		<path class="st2" d="M0.1,165.1c6.4,0.5,12.5-3.2,19.3-1.7c-1.5,4.4-3.7,7.2-9.1,6.8c-3.4-0.3-6.7,1.3-10.2,0.9
			C0.1,169.1,0.1,167.1,0.1,165.1z"/>
		<path class="st2" d="M0.1,52.1c3.8-0.9,7.7-1.3,11.6-1c1.3,0.1,3.2-0.9,3.4,1.6c0.1,1.8-0.4,3-2.1,4c-4.2,2.5-8.6,1.5-12.9,1.4
			C0.1,56.1,0.1,54.1,0.1,52.1z"/>
		<path class="st2" d="M69.1,200.1c0-1.5,0-2.9,0.7-4.3c0.9-1.7,2.2-1.8,3.7-1.6c2,0.3,0.9,1.6,0.9,2.6c0.1,1.1,0.5,2.2,0.7,3.3
			C73.1,200.1,71.1,200.1,69.1,200.1z"/>
		<path class="st2" d="M71.6,88.5c1.6-6.9,0.7-13.7,4.1-19.9c0.6-1.1,0.3-2.6,0.4-3.9c0.2-5.2,2.4-8.7,7.2-8.3
			c12.7,0.9,24.9-2.7,37.5-2.2c2.8,0.1,5.6,0.3,6.8,3.7c0.3,0.8,1.3,1.8,2.1,1.9c4.1,0.9,3.8,4,3,6.6c-1.3,4.1-2.3,7.4,0.8,11.5
			c1.8,2.4,1.7,7.2-0.2,10.1c-3.5,5.4-3.3,11.7-5.1,17.5c-1.7,5.3-4,9.8-8.8,12.7c-3.1,1.9-6.2,3.9-8.7,6.6
			c-1.4,1.5-3.2,2.3-5.3,2.3c-2.7,0-4.7,1.4-5.8,3.9c-0.9,2-2.2,3.8-0.5,6c1.6,2,3.3,0.5,5,0.2c7.5-1.4,15-2.9,20.4-9
			c0.5-0.5,1.4-1.2,2.1-0.3c0.6,0.7,0.2,1.5-0.2,2.3c-3.3,6.8-11.1,11.1-18.6,10.4c-3.5-0.3-5.5,1.2-5.7,4.9
			c-0.6,11.8-4.6,22.6-9.8,33c-2.3,4.6-9.3,6.1-14.4,4c-7.6-3.2-14.1-7.9-20.5-12.8c-6.6-5-9.8-12.4-12.6-21c3.6,2,5.3,4.7,7,7.1
			c2.9,4.1,6.3,1.4,9.3,1.1c2.4-0.3,2.7-2.7,3.1-5c0.8-5.4-0.2-8.2-6.3-10.3c-5.1-1.8-9.3-4.6-15.2-3.6c-2.2,0.3-4.9-2.5-7.4-4.1
			c-0.4-0.3-0.9-1.6-0.8-1.6c4.3-3.1,0.5-7.5,1.8-10.7c2.2-5.1,5.3-10.3,10.4-12.8c4.5-2.2,6,3.2,6.7,5.3c1.6,4.7,4.9,7.6,8.5,10
			c3.8,2.6,4.2,5.4,3,9.2c-0.2,0.6-0.6,1.2-0.7,1.9c-0.4,1.6-0.3,3.3,1.4,3.8c1.6,0.5,2.2-1.1,2.7-2.3c1.1-2.8,1.9-5.7,4.6-7.5
			c0.7-0.5,1.4-0.8,2.4-0.4c-0.2,6.4-4.2,12.1-3.3,18.7c0.2,1.3-1,3.3,1.4,3.5c1.8,0.2,3-0.3,3.8-2.6c1.9-5.8,4.6-11.4,6.7-17.1
			c2.2-6,1.4-11.8-3-16.4c-4.1-4.3-6-9.3-6.8-14.9c-0.6-3.8-2.2-5.1-6.2-3.8c-1.5,0.5-4.2,2.5-5.3-0.1c-0.9-2.1,0.8-3.9,3.1-4.8
			c1.7-0.7,2.7-2.1,1.5-4c-2.2-3.4-0.8-7.1-1.2-10.7c-0.1-1.2,0.3-2.5,1.7-2.6c1.7-0.1,1.6,1.7,1.8,2.6C70.4,80.3,71,84.4,71.6,88.5
			z M115.5,78.2c3.6-0.3,6.8,0.8,9.9,1.6c4,1.1,3.5-2.4,3.2-3.7c-1.4-5.7-11-7.7-15.4-3.4c-1.2,1.2-2.6,2.3-1.5,4.3
			C112.5,78.7,114,78.9,115.5,78.2z M85.8,72.9c4.1,0.3,8,0.9,8-4c0-3.2-3.1-2.8-5.3-2.9c-3.8-0.1-8.6,3.1-7.9,5.3
			C81.7,74.4,84.6,72.5,85.8,72.9z"/>
		<path class="st2" d="M44,146.5c-2.3-0.5-4.1-1.7-6.4-1.4c-1,0.1-2.1-0.1-2.3-1.3c-0.2-1.1,0.5-1.8,1.3-2.5c1.5-1.4,3.1-1,5-0.5
			C45.1,141.6,42.8,144.7,44,146.5z"/>
		<path class="st2" d="M143,83.9c0.4,0.4,0.8,0.8,1.1,1.2c-1.5,3-3.1,6.1-5,9.9C139.3,90.3,139.3,86.5,143,83.9z"/>
		<path class="st0" d="M115.5,78.2c-1.5,0.8-2.9,0.5-3.9-1.3c-1-2,0.3-3.1,1.5-4.3c4.4-4.3,14-2.3,15.4,3.4c0.3,1.4,0.8,4.8-3.2,3.7
			C122.2,78.9,119.1,77.8,115.5,78.2z"/>
		<path class="st0" d="M85.8,72.9c-1.2-0.5-4.2,1.5-5.2-1.5c-0.7-2.2,4.1-5.3,7.9-5.3c2.2,0,5.3-0.3,5.3,2.9
			C93.8,73.8,90,73.3,85.8,72.9z"/>
	</g>
	<g>
		<path class="st0" d="M220.4,52.1c0-3,0-6,0-9c4.3-0.1,8.5-0.2,12.9-0.7c3.6-0.5,7.5-2.6,10.5-1.6c4.2,1.5,7.9,1.5,12,0.4
			c1.3-0.3,2.6-0.2,3.8,0.6c0.7,0.5,1.6,0.8,1.3,1.8c-0.2,0.5-1,1.3-1.4,1.2c-5.3-0.5-9.5,3.8-15.7,2.5c2.4,2.1,4,3.3,6.4,4
			c3.6,1,7.3,2.7,5.8,8.1c-0.7,2.6,1.9,1.8,3,1.7c4.5-0.6,8.3,1,11.4,3.9c2.1,2,3.6,4.6,5.7,7.4c2.9-6.1,6.8-11.1,8.4-17.6
			c3-12.2,2-24.6,3.5-36.9c0.8-6.7,1.7-12.6,6.3-17.7c18.3,0,36.7,0,55,0c1.3,1.4,3,1.8,4.9,2.1c10.2,1.6,12.4,4.7,10.3,14.7
			c-2,9.6-1.8,19.2-0.3,28.8c0.3,1.9-1.2,3.8,0.3,5.7c2.9,4,2.3,8.2-0.3,12.1c-1.1,1.7-0.9,3.1-1,4.9c-0.3,5.2,2.8,10.4,0.2,15.6
			c-3.7,2.6-3.7,6.4-3.9,11.1c1.9-3.8,3.5-6.9,5-9.9c5.4-2.8,9.4,1.2,13.9,3c2.4,1,4.8,2,2.8,5.4c-0.2,0.3,0.7,1.6,1.3,2
			c3,1.5,4.7,4.2,6.4,6.8c1,1.5,2.1,1.7,3.6,1.9c4.9,0.7,7.9-3.6,11.1-5.5c5.9-3.5,9.8-1.1,14.6,0.7c-1.1,1.8-2.3,1.9-3.9,1.2
			c-3.7-1.5-6.5,0.6-7.6,3.6c-0.9,2.7-2.7,3.2-4.7,4.4c-2.9,1.6-6.9,1.2-8.7,5.1c-1.3,2.9-0.9,6-2.3,9c-2.6,5.6,4.7,2.2,5.5,5.1
			c0,0.1,0.2,0.2,0.4,0.3c1.6,1.8,3.6,2.8,5.8,1.8c2.4-1.1,3.6-3.3,3.7-6c0.1-2.3,0-4.7,0.1-7c0.1-0.7,0.6-1.9,1.1-2
			c1.2-0.3,1.5,0.8,1.8,1.8c1.6,5.6,2,11.2-0.7,16.4c-1.6,3-1.1,5.8-1.2,8.7c0,1.5,1.3,2.9,2.3,2.9c1.5-0.1,2.7-2.3,2.3-3.4
			c-2.2-5.4,2.9-7.7,4.2-12.1c1.5,2.2,1.8,4.1,2.2,6c0.9,3.7,0.1,7.6,1.9,11.1c0,16.6-0.2,33.2,0.1,49.9c0.1,3.9-1.1,4.2-4.5,4.2
			c-40.2-0.1-80.4-0.1-120.7-0.1c-0.3-1.1-0.7-2.2-0.7-3.3c0-1,1.1-2.3-0.9-2.6c-1.5-0.2-2.9-0.1-3.7,1.6c-0.7,1.4-0.6,2.9-0.7,4.3
			c-21.7,0-43.4-0.1-65.2,0.1c-2.9,0-4.1-0.3-3.9-3.7c0.3-8.4,0.1-16.9,0.1-25.4c3.5,0.4,6.9-1.1,10.2-0.9c5.4,0.4,7.6-2.4,9.1-6.8
			c-6.8-1.5-12.9,2.2-19.3,1.7c0-35.7,0-71.3,0-107c4.4,0.1,8.8,1.1,12.9-1.4c1.7-1,2.3-2.3,2.1-4c-0.2-2.5-2.2-1.5-3.4-1.6
			C228.1,50.8,224.2,51.2,220.4,52.1z M291.9,88.5c-0.7-4.1-1.2-8.2-2-12.3c-0.2-0.9-0.1-2.7-1.8-2.6c-1.4,0.1-1.8,1.4-1.7,2.6
			c0.4,3.6-1.1,7.3,1.2,10.7c1.2,1.8,0.2,3.3-1.5,4c-2.3,0.9-4,2.7-3.1,4.8c1.1,2.7,3.8,0.6,5.3,0.1c4-1.3,5.6,0,6.2,3.8
			c0.8,5.6,2.7,10.7,6.8,14.9c4.5,4.6,5.2,10.4,3,16.4c-2.1,5.8-4.8,11.3-6.7,17.1c-0.8,2.3-2,2.7-3.8,2.6c-2.4-0.2-1.2-2.3-1.4-3.5
			c-0.9-6.6,3.1-12.3,3.3-18.7c-1-0.4-1.7,0-2.4,0.4c-2.7,1.8-3.5,4.7-4.6,7.5c-0.5,1.3-1.1,2.8-2.7,2.3c-1.7-0.5-1.8-2.2-1.4-3.8
			c0.2-0.6,0.5-1.2,0.7-1.9c1.2-3.8,0.8-6.6-3-9.2c-3.6-2.4-6.8-5.3-8.5-10c-0.7-2.1-2.3-7.6-6.7-5.3c-5.1,2.6-8.2,7.7-10.4,12.8
			c-1.4,3.2,2.4,7.7-1.8,10.7c-0.1,0.1,0.3,1.4,0.8,1.6c2.4,1.5,5.2,4.4,7.4,4.1c5.9-0.9,10.2,1.9,15.2,3.6
			c6.1,2.1,7.1,4.9,6.3,10.3c-0.3,2.4-0.7,4.8-3.1,5c-3,0.3-6.4,3-9.3-1.1c-1.7-2.4-3.4-5-7-7.1c2.8,8.6,6,16,12.6,21
			c6.4,4.9,13,9.6,20.5,12.8c5.1,2.2,12.1,0.6,14.4-4c5.2-10.4,9.2-21.2,9.8-33c0.2-3.7,2.3-5.3,5.7-4.9c7.5,0.7,15.3-3.6,18.6-10.4
			c0.4-0.8,0.8-1.5,0.2-2.3c-0.8-0.9-1.7-0.3-2.1,0.3c-5.4,6.2-12.9,7.7-20.4,9c-1.7,0.3-3.3,1.8-5-0.2c-1.8-2.2-0.5-4,0.5-6
			c1.2-2.5,3.1-3.9,5.8-3.9c2.1,0,3.9-0.8,5.3-2.3c2.5-2.7,5.6-4.7,8.7-6.6c4.8-3,7.1-7.5,8.8-12.7c1.8-5.8,1.6-12,5.1-17.5
			c1.9-2.8,1.9-7.7,0.2-10.1c-3.1-4.2-2.1-7.5-0.8-11.5c0.8-2.7,1.1-5.7-3-6.6c-0.8-0.2-1.8-1.1-2.1-1.9c-1.2-3.4-4-3.6-6.8-3.7
			c-12.6-0.5-24.9,3.1-37.5,2.2c-4.8-0.3-7,3.1-7.2,8.3c-0.1,1.3,0.2,2.9-0.4,3.9C292.6,74.8,293.5,81.6,291.9,88.5z M264.2,146.5
			c-1.2-1.8,1.2-4.8-2.4-5.8c-1.9-0.5-3.4-0.9-5,0.5c-0.7,0.7-1.5,1.4-1.3,2.5c0.2,1.2,1.3,1.5,2.3,1.3
			C260.1,144.8,261.9,145.9,264.2,146.5z"/>
		<path class="st0" d="M335.7,78.2c-1.5,0.8-2.9,0.5-3.9-1.3c-1-2,0.3-3.1,1.5-4.3c4.4-4.3,14-2.3,15.4,3.4c0.3,1.4,0.8,4.8-3.2,3.7
			C342.5,78.9,339.3,77.8,335.7,78.2z"/>
		<path class="st0" d="M306.1,72.9c-1.2-0.5-4.2,1.5-5.2-1.5c-0.7-2.2,4.1-5.3,7.9-5.3c2.2,0,5.3-0.3,5.3,2.9
			C314.1,73.8,310.2,73.3,306.1,72.9z"/>
	</g>
	<g>
		<path class="st1" d="M583.5,83.9c2.6-5.2-0.5-10.4-0.2-15.6c0.1-1.8,0-3.2,1-4.9c2.5-3.9,3.1-8.1,0.3-12.1c-1.4-2,0-3.8-0.3-5.7
			c-1.4-9.6-1.7-19.2,0.3-28.8c2.1-10,0-13.1-10.3-14.7c-1.9-0.3-3.5-0.7-4.9-2.1c22.5,0,45,0.1,67.5-0.1c3,0,3.6,0.6,3.6,3.6
			c-0.1,47.5-0.1,95-0.1,142.5c-1.8-3.5-1-7.4-1.9-11.1c-0.5-1.9-0.7-3.8-2.2-6c-1.3,4.4-6.4,6.7-4.2,12.1c0.4,1.1-0.7,3.3-2.3,3.4
			c-1,0.1-2.3-1.4-2.3-2.9c0-2.9-0.4-5.7,1.2-8.7c2.8-5.2,2.3-10.9,0.7-16.4c-0.3-1-0.6-2.1-1.8-1.8c-0.5,0.1-1.1,1.3-1.1,2
			c-0.2,2.3-0.1,4.7-0.1,7c-0.1,2.7-1.4,4.9-3.7,6c-2.2,1-4.2,0-5.8-1.8c-0.1-0.1-0.3-0.2-0.4-0.3c-0.8-3-8.1,0.5-5.5-5.1
			c1.4-3,1-6.1,2.3-9c1.8-3.8,5.8-3.4,8.7-5.1c2-1.1,3.7-1.6,4.7-4.4c1-2.9,3.8-5.1,7.6-3.6c1.7,0.7,2.8,0.6,3.9-1.2
			c-4.8-1.8-8.8-4.1-14.6-0.7c-3.3,1.9-6.2,6.2-11.1,5.5c-1.5-0.2-2.6-0.4-3.6-1.9c-1.6-2.6-3.4-5.3-6.4-6.8c-0.6-0.3-1.5-1.6-1.3-2
			c1.9-3.4-0.4-4.4-2.8-5.4c-4.5-1.8-8.4-5.8-13.9-3C584.3,84.7,583.9,84.3,583.5,83.9z"/>
		<path class="st1" d="M514.6,0.1c-4.6,5-5.5,11-6.3,17.7c-1.5,12.3-0.5,24.7-3.5,36.9c-1.6,6.5-5.5,11.6-8.4,17.6
			c-2.1-2.7-3.5-5.4-5.7-7.4c-3.1-2.9-6.9-4.4-11.4-3.9c-1.1,0.1-3.7,1-3-1.7c1.5-5.4-2.3-7-5.8-8.1c-2.4-0.7-4-1.8-6.4-4
			c6.2,1.3,10.4-3,15.7-2.5c0.4,0,1.2-0.7,1.4-1.2c0.3-1-0.6-1.3-1.3-1.8c-1.2-0.8-2.6-1-3.8-0.6c-4.1,1.1-7.8,1.1-12-0.4
			c-3-1.1-6.9,1.1-10.5,1.6c-4.3,0.6-8.6,0.6-12.9,0.7c0-13.3,0.1-26.7-0.1-40c0-2.5,0.6-3.1,3.1-3.1C467.3,0.1,490.9,0.1,514.6,0.1
			z"/>
		<path class="st2" d="M440.6,165.1c6.4,0.5,12.5-3.2,19.3-1.7c-1.5,4.4-3.7,7.2-9.1,6.8c-3.4-0.3-6.7,1.3-10.2,0.9
			C440.6,169.1,440.6,167.1,440.6,165.1z"/>
		<path class="st2" d="M440.6,52.1c3.8-0.9,7.7-1.3,11.6-1c1.3,0.1,3.2-0.9,3.4,1.6c0.1,1.8-0.4,3-2.1,4c-4.2,2.5-8.6,1.5-12.9,1.4
			C440.6,56.1,440.6,54.1,440.6,52.1z"/>
		<path class="st2" d="M509.6,200.1c0-1.5,0-2.9,0.7-4.3c0.9-1.7,2.2-1.8,3.7-1.6c2,0.3,0.9,1.6,0.9,2.6c0.1,1.1,0.5,2.2,0.7,3.3
			C513.6,200.1,511.6,200.1,509.6,200.1z"/>
		<path class="st2" d="M512.1,88.5c1.6-6.9,0.7-13.7,4.1-19.9c0.6-1.1,0.3-2.6,0.4-3.9c0.2-5.2,2.4-8.7,7.2-8.3
			c12.7,0.9,24.9-2.7,37.5-2.2c2.8,0.1,5.6,0.3,6.8,3.7c0.3,0.8,1.3,1.8,2.1,1.9c4.1,0.9,3.8,4,3,6.6c-1.3,4.1-2.3,7.4,0.8,11.5
			c1.8,2.4,1.7,7.2-0.2,10.1c-3.5,5.4-3.3,11.7-5.1,17.5c-1.7,5.3-4,9.8-8.8,12.7c-3.1,1.9-6.2,3.9-8.7,6.6
			c-1.4,1.5-3.2,2.3-5.3,2.3c-2.7,0-4.7,1.4-5.8,3.9c-0.9,2-2.2,3.8-0.5,6c1.6,2,3.3,0.5,5,0.2c7.5-1.4,15-2.9,20.4-9
			c0.5-0.5,1.4-1.2,2.1-0.3c0.6,0.7,0.2,1.5-0.2,2.3c-3.3,6.8-11.1,11.1-18.6,10.4c-3.5-0.3-5.5,1.2-5.7,4.9
			c-0.6,11.8-4.6,22.6-9.8,33c-2.3,4.6-9.3,6.1-14.4,4c-7.6-3.2-14.1-7.9-20.5-12.8c-6.6-5-9.8-12.4-12.6-21c3.6,2,5.3,4.7,7,7.1
			c2.9,4.1,6.3,1.4,9.3,1.1c2.4-0.3,2.7-2.7,3.1-5c0.8-5.4-0.2-8.2-6.3-10.3c-5.1-1.8-9.3-4.6-15.2-3.6c-2.2,0.3-4.9-2.5-7.4-4.1
			c-0.4-0.3-0.9-1.6-0.8-1.6c4.3-3.1,0.5-7.5,1.8-10.7c2.2-5.1,5.3-10.3,10.4-12.8c4.5-2.2,6,3.2,6.7,5.3c1.6,4.7,4.9,7.6,8.5,10
			c3.8,2.6,4.2,5.4,3,9.2c-0.2,0.6-0.6,1.2-0.7,1.9c-0.4,1.6-0.3,3.3,1.4,3.8c1.6,0.5,2.2-1.1,2.7-2.3c1.1-2.8,1.9-5.7,4.6-7.5
			c0.7-0.5,1.4-0.8,2.4-0.4c-0.2,6.4-4.2,12.1-3.3,18.7c0.2,1.3-1,3.3,1.4,3.5c1.8,0.2,3-0.3,3.8-2.6c1.9-5.8,4.6-11.4,6.7-17.1
			c2.2-6,1.4-11.8-3-16.4c-4.1-4.3-6-9.3-6.8-14.9c-0.6-3.8-2.2-5.1-6.2-3.8c-1.5,0.5-4.2,2.5-5.3-0.1c-0.9-2.1,0.8-3.9,3.1-4.8
			c1.7-0.7,2.7-2.1,1.5-4c-2.2-3.4-0.8-7.1-1.2-10.7c-0.1-1.2,0.3-2.5,1.7-2.6c1.7-0.1,1.6,1.7,1.8,2.6
			C510.9,80.3,511.5,84.4,512.1,88.5z M555.9,78.2c3.6-0.3,6.8,0.8,9.9,1.6c4,1.1,3.5-2.4,3.2-3.7c-1.4-5.7-11-7.7-15.4-3.4
			c-1.2,1.2-2.6,2.3-1.5,4.3C553,78.7,554.5,78.9,555.9,78.2z M526.3,72.9c4.1,0.3,8,0.9,8-4c0-3.2-3.1-2.8-5.3-2.9
			c-3.8-0.1-8.6,3.1-7.9,5.3C522.1,74.4,525.1,72.5,526.3,72.9z"/>
		<path class="st2" d="M484.4,146.5c-2.3-0.5-4.1-1.7-6.4-1.4c-1,0.1-2.1-0.1-2.3-1.3c-0.2-1.1,0.5-1.8,1.3-2.5c1.5-1.4,3.1-1,5-0.5
			C485.6,141.6,483.2,144.7,484.4,146.5z"/>
		<path class="st2" d="M583.5,83.9c0.4,0.4,0.8,0.8,1.1,1.2c-1.5,3-3.1,6.1-5,9.9C579.8,90.3,579.8,86.5,583.5,83.9z"/>
	</g>
</g>
<g>
</g>
<g>
</g>
<g>
</g>
<g>
</g>
<g>
</g>
<g>
</g>
<g>
</g>
<g>
</g>
<g>
</g>
<g>
</g>
<g>
</g>
<g>
</g>
<g>
</g>
<g>
</g>
<g>
</g>
</svg>
