<?xml version="1.0" encoding="utf-8"?>
<!-- Generator: Adobe Illustrator 17.1.0, SVG Export Plug-In . SVG Version: 6.00 Build 0)  -->
<!DOCTYPE svg PUBLIC "-//W3C//DTD SVG 1.1//EN" "http://www.w3.org/Graphics/SVG/1.1/DTD/svg11.dtd">
<svg version="1.1" id="Layer_1" xmlns="http://www.w3.org/2000/svg" xmlns:xlink="http://www.w3.org/1999/xlink" x="0px" y="0px"
	 viewBox="0 0 640.5 200.2" style="enable-background:new 0 0 640.5 200.2;" xml:space="preserve">
<style type="text/css">
	.st0{fill:#FA0101;}
	.st1{fill:#080203;}
</style>
<g>
	<g>
		<path class="st0" d="M98.1,200.1c-5.8-11.3,2.6-18.1,8-26c0.7-0.4,1.5-0.7,2.2-1.1c3.2-1.9,5.5-0.7,6.8,2.4c1.7,4-2,3.1-3.8,3.8
			c-1.8,0.7-3,2.1-4.2,3.4c-1.3,1.5-2.4,3.2-4.6,3.5c-1,0.1-2.1,0.1-2.3,1.4c-0.2,1.4,0.9,2,1.9,2.6c1.3,0.8,2.7,1,4.3,1
			c4.9,0.1,9.8,0,14.7,1.6c4.2,1.4,8.8-0.6,12.9-2.3c1.7-0.7,2.6-2.5,2-4.2c-1.7-4.7-1.9-9.7-3-14.5c-0.4-1.7-1-2.3,1-3.6
			c2.2-1.4,2.5-4.2,1.9-6.7c-0.3-1.6-1.6-1.5-2.8-1.4c-2.6,0.3-4.7,1.4-5.9,3.9c-0.2,0.4-0.1,1-0.2,1.5c-0.2,3.6-2.7,2.9-4.6,2
			c-1.4-0.7-2.4-2.3-3.5-3.4c3.2-6.9,7.9-12.1,15.9-13c1.6-0.2,2.3-1.2,2.9-2.4c-5.2-2.2-5-2.3-2.3-7.4c3.2-6,6.1-12.1,8.5-18.4
			c1.7-4.5,6-5.1,9-7.7c0.8-0.7,2.6-0.3,3.5,1c1,1.4,0.2,2.8,0,4.2c-0.3,2.4-4.8,3.8-1.5,7.1c3.5,3.4,4.7-1.4,7.2-1.7
			c5.8-0.8,10-5.9,16.4-5.9c7.2-0.1,14.5-1.5,21.5,1.2c0,7.7,0,15.3,0,23c-1.8,0.1-3.3-0.2-3.9-2.2c-2.4-6.8-7.5-9.9-14.5-10.5
			c-3.3-0.3-5.2,1.6-4.4,4.4c1.3,4.4-1.8,5-4.3,6.4c-2.7,1.5-5.2,3.1-7.8-0.4c-1.4-1.9-3.5-2.2-5-0.1c-1.4,1.8-3.6,5-1.4,6
			c4.4,2.1,8,4.8,11.2,8.2c0.5,0.5,2,0.4,2.9,0.1c3-0.9,6.2-1.2,8.6-3.3c-0.8-1.3-3.3-1.1-3.2-3.3c0.1-1.1,1.3-1.5,2.2-1.8
			c3-1.1,2.7,1.8,3.3,3.1c2.7,6.2,10.9,9.1,16.3,5.5c0,14,0,28,0,42c-5.4-1.1-10.9-3.4-16.3-0.1c-0.6,0.4-1.6,0.1-2.4,0.2
			c-1,0.2-1.1,1-1.2,1.8c-1.7,0-3.3,0-5,0c0.3-3.9-0.7-6-5-3.6c-1.1,0.6-2.1,0.3-3.2-0.2c-6.8-3.1-13.2-8.7-21.3-2.7
			c-1.4,1.1-3.9,1.3-5.7,1.1c-5.2-0.7-8.9,1.2-11.7,5.4C118.1,200.1,108.1,200.1,98.1,200.1z M152.1,158.5c-3.3-1.9-6.1-3.3-9.5-1.8
			c-0.2,0.1-0.3,1.5,0,1.7C145.4,160.7,148.4,160.9,152.1,158.5z"/>
		<path class="st0" d="M92.1,41.3c-1.5,0-2.9,0-4.4,0l-0.4,0c-1-0.1-1.9-0.2-2.9-0.3c0-3.7,3.4-3.6,5.6-4.7c4-2,7.3-3.8,3.4-8.5
			c1.7-1.6,3.4,1.3,4.8-0.5c2.6-0.2,5-1.7,7.7-1c0.4,0.2,0.8,0.5,1.2,0.7c1.6,0.9,3,2.2,5,2c1.8,0.5,3.2,0,4.1-1.8
			c0.3-0.3,0.7-0.6,1-0.9c0.7-0.7,1.4-1.4,2.1-2c2.6-2.2,4.9-4.8,8.9-4.3c1,0.1,2.7-0.9,3.4-1.8c4.3-5.9,8.4-12,12.6-18
			c1.3,0,2.7,0,4,0c-2,4.5-3.8,9.1-5.9,13.6c-1.6,3.4-4.8,5.9-2.5,10.7c0.8,1.7-2.3,5.1-3.3,7.9c-2.8,7.6-7.4,14.6-4.7,23.7
			c1.3,4.3-1.5,9.2-3,13.7c-0.3,1-1.4,1.3-2.4,1.5c-3.3,0.6-6.7,1.1-7.3,5.9c-1.8-6.4-5.4-11.6-6-17.8c-0.3-2.9-3.5-4-5.6-5.6
			c-1.5-1.1-2.5-1.9-1.6-3.5c2.7-4.5,0.8-5.5-3.4-4.6c-1.2,0.2-1.3-0.8-1.9-1.1C97.6,43.3,94.8,42.3,92.1,41.3z M120.5,49.8
			c2.1-2.3,4.1-4.5,6-6.7c0.4-0.5,1.9-1.3,0.9-1.7c-3.8-1.7-0.8-3.4-0.1-4.9c0.4-0.9,1.1-1.7,0.3-2.7c-0.8-0.9-1.8-0.4-2.7-0.1
			c-3.2,1.2-5.5,3.6-7.8,5.9c-2,2.1-1.9,4.4,0,5.9C118.6,46.8,119.1,48.6,120.5,49.8z"/>
		<path class="st0" d="M12.1,0.1c-4.4,5.7-7,12.7-12,18c0-5.3,0.1-10.7-0.1-16C0,0.3,0.3-0.1,2.1,0C5.4,0.2,8.7,0.1,12.1,0.1z"/>
		<path class="st0" d="M68,3.2c2,1.3,4,2.6,6,3.9c0,0.9,0.2,1.9-1,2.3C69.3,8.1,65.2,8.3,61.8,6c-0.4-0.3-1-0.7-1.3-0.6
			c-6.7,3.1-4.2-3-5.4-5.3c3.3,0,6.7,0,10,0C64.8,2.4,66.4,2.8,68,3.2z"/>
		<path class="st0" d="M0.1,107.1c3.1,0,3.2-2.6,3.9-4.6c0.5-1.4,0.6-2.9,0.9-4.3c0.4-1.8,0-4.7,2.6-4.4c2,0.2,2.1,3.2,2.4,5
			c1.2,7-2.1,10.6-9.9,11.3C0.1,109.1,0.1,108.1,0.1,107.1z"/>
		<path class="st0" d="M54.9,102.1c1.9-5.7,4.1-11.2,8-15.9c1.2-1.5,1.5-3.2,0.7-5.1c-1.2-2.8-3.3-5.4-0.9-8.7c0.7-1-6.2-6.6-7.8-6
			c-2.2,0.7-4.1,0.5-6.3,0.2c-3.5-0.6-6.4,2.4-6.5,6c-0.1,4.4-0.1,4.4-4.9,8.7c0.9-5.8-2.4-5.4-6-4.9c-0.6,0.1-1.6,1.1-2-0.3
			c-0.2-0.8,0.2-1.5,0.8-2.2c1-1.2,4.4-1.6,2-3.8c-1.1-1-4.2-0.6-5.6,1.5c-0.9,1.3-1.8,2.4-3.2,3c-1.3,0.6-2.6,0.7-3.5-0.7
			c-0.9-1.4,0.3-2.1,1.1-2.9c0.1-0.1,0.2-0.3,0.4-0.3c7.7-2.9,13.9-9.3,22.5-10.3c1.3-0.2,2.8-0.4,3.9,0.1c3.3,1.4,4.7-0.3,5.5-3
			c0.7-2.4,2.2-4,4.3-5.2c2.7-1.5,5.2-2.9,5.8,2.2c0.5,3.6,4.4,5.5,8.1,4.5c1.1-0.3,2.1-1.1,3.2-1.4c2.4-0.8,4.6,0.6,5.7,2.1
			c1.5,2-1.1,3.2-2.4,4c-2,1.3-3.6,3-5.2,4.6c-1.2,1.1-2.1,2.5-0.9,3.9c4.6,5.1,4.2,11.6,5.2,17.7c1.1,6.5,5.8,12.3,3.9,19.6
			c-0.6,2.2,1.8,1.8,3.1,1.1c1.6-0.7,0.9-2.7,1.8-4.2c2.7,3.4,5.5,4.8,9,1c1.5-1.6,2.7-1,3.7,1c1.4,3.1,3.4,5.4,6.6,7.5
			c5.1,3.3-0.7,5.4-2.1,8c-2.8-1.7-4.5-6.3-8.3-3.7c-3.7,2.5-8.7,3.9-8.9,10c-0.1,4.4-7.8,9.3-11.6,7c-8.1-4.8-17.7-5.6-25.7-10.3
			c-0.4-0.3-0.7-0.5-1.1-0.8c-0.3-0.1-0.6-0.3-0.9-0.4c-0.7-1.2-2.2-2-1.7-3.7c2-0.4,3.5-2.1,5.6-1.9c1.1,1,2.7,1.4,3.5,0.2
			c1.1-1.7,1.1-3.8-0.3-5.5c-0.3-0.6-0.7-1.2-1-1.8c0.1-2.5-0.6-5.1,0.7-7.5c0,0,0.2-0.3,0.2-0.3c0.6-0.5,1.1-1.1,1.7-1.6
			c0,0-0.1-0.1-0.1-0.1C54.8,103.1,54.8,102.6,54.9,102.1z M86.1,120.6c2.2-0.7,3.2-1.9,3.7-3.2c0.6-2-0.5-3.7-1.5-5.4
			c-0.1-0.2-0.9-0.4-1.2-0.2c-1.5,1-0.9,2.6-1,4C86,117.3,86.1,118.8,86.1,120.6z M64,102.8c-0.1-0.7-0.4-1.7-1.7-1.6
			c-1.3,0.2-2.7,0.6-3,2.1c-0.3,1.3,0.8,1.7,1.8,1.7C62.6,105.1,63.9,105.1,64,102.8z M69.7,93.5c-0.4-0.8-1.1-1.4-1.9-1.1
			c-1.3,0.5-3,0.7-3.2,2.5c-0.1,1,1.1,1.2,1.8,1C67.6,95.4,69.1,95.1,69.7,93.5z"/>
		<path class="st0" d="M96,22.3c-3.8-1.1-6.8-4.6-11.4-4.1c-0.1,2.4,3.5,6.4-2.5,6.1c-0.3,0-0.7,0.1-1,0.1c-0.4,0.2-0.8,0.4-1.2,0.6
			c-3.9-0.3-7-1.2-5.2-6.2c0.5-1.5-1.3-2.1-1-3.5c1.1-0.1,2.3-0.2,3.4-0.4c1.4-0.4,3.1,1.7,3.9,0.2c0.9-1.6-0.9-2.5-2.2-3.2
			c-0.4-0.2-0.1-0.8,0.4-1.1c0.3,0,0.7,0,1,0c2.7,1.1,5.3,2.3,8,3.4c1.1,1.1,2.4,1.8,3.9,1.9c1.1,2.6,4.4,3.4,5,6.5
			C96.9,21.7,96.3,22.3,96,22.3z"/>
		<path class="st0" d="M16.7,157.3c0.7,0.7,2,1.6,1.8,2.1c-0.4,1.6-1.7,2.8-3.3,3.1c-1,0.2-1.2-0.9-1.1-1.8
			C14.2,159.2,15.3,158.2,16.7,157.3z"/>
		<path class="st0" d="M7.6,137.6c-1.1-4.3,0.8-6.3,3.1-8.6C11.3,132.7,9,134.4,7.6,137.6z"/>
		<g>
			<path class="st1" d="M180.5,147.5c3-1.1,2.7,1.8,3.3,3.1c2.7,6.2,10.9,9.1,16.3,5.5c0-4,0-8,0-12c-1.8,0.1-3.3-0.2-3.9-2.2
				c-2.4-6.8-7.5-9.9-14.5-10.5c-3.3-0.3-5.2,1.6-4.4,4.4c1.3,4.4-1.8,5-4.3,6.4c-2.7,1.5-5.2,3.1-7.8-0.4c-1.4-1.9-3.5-2.2-5-0.1
				c-1.4,1.8-3.6,5-1.4,6c4.4,2.1,8,4.8,11.2,8.2c0.5,0.5,2,0.4,2.9,0.1c3-0.9,6.2-1.2,8.6-3.3c-0.8-1.3-3.3-1.1-3.2-3.3
				C178.4,148.2,179.6,147.8,180.5,147.5z"/>
			<path class="st1" d="M170.1,196.5c-1.1,0.6-2.1,0.3-3.2-0.2c-6.8-3.1-13.2-8.7-21.3-2.7c-1.4,1.1-3.9,1.3-5.7,1.1
				c-5.2-0.7-8.9,1.2-11.7,5.4c15.7,0,31.3,0,47,0C175.3,196.2,174.3,194.1,170.1,196.5z"/>
			<path class="st1" d="M200.1,198.1c-5.4-1.1-10.9-3.4-16.3-0.1c-0.6,0.4-1.6,0.1-2.4,0.2c-1,0.2-1.1,1-1.2,1.8c6,0,12-0.1,18,0.1
				C199.8,200.2,200.5,199.8,200.1,198.1z"/>
			<path class="st1" d="M136,186.3c-1.7-4.7-1.9-9.7-3-14.5c-0.4-1.7-1-2.3,1-3.6c2.2-1.4,2.5-4.2,1.9-6.7c-0.3-1.6-1.6-1.5-2.8-1.4
				c-2.6,0.3-4.7,1.4-5.9,3.9c-0.2,0.4-0.1,1-0.2,1.5c-0.2,3.6-2.7,2.9-4.6,2c-1.4-0.7-2.4-2.3-3.5-3.4c3.2-6.9,7.9-12.1,15.9-13
				c1.6-0.2,2.3-1.2,2.9-2.4c-5.2-2.2-5-2.3-2.3-7.4c3.2-6,6.1-12.1,8.5-18.4c1.7-4.5,6-5.1,9-7.7c0.8-0.7,2.6-0.3,3.5,1
				c1,1.4,0.2,2.8,0,4.2c-0.3,2.4-4.8,3.8-1.5,7.1c3.5,3.4,4.7-1.4,7.2-1.7c5.8-0.8,10-5.9,16.4-5.9c7.2-0.1,14.5-1.5,21.5,1.2
				c0-39.2,0-78.3,0.1-117.5c0-3-0.6-3.6-3.6-3.6c-16.2,0.2-32.3,0.1-48.5,0.1c-2,4.5-3.8,9.1-5.9,13.6c-1.6,3.4-4.8,5.9-2.5,10.7
				c0.8,1.7-2.3,5.1-3.3,7.9c-2.8,7.6-7.4,14.6-4.7,23.7c1.3,4.3-1.5,9.2-3,13.7c-0.3,1-1.4,1.3-2.4,1.5c-3.3,0.6-6.7,1.1-7.3,5.9
				c-1.8-6.4-5.4-11.6-6-17.8c-0.3-2.9-3.5-4-5.6-5.6c-1.5-1.1-2.5-1.9-1.6-3.5c2.7-4.5,0.8-5.5-3.4-4.6c-1.2,0.2-1.3-0.8-1.9-1.1
				c-2.8-1-5.5-2.1-8.3-3.1c-1.5,0-2.9,0-4.4,0l-0.4,0c-1-0.1-1.9-0.2-2.9-0.3c0-3.7,3.4-3.6,5.6-4.7c4-2,7.3-3.8,3.4-8.5
				c1.7-1.6,3.4,1.3,4.8-0.5c2.6-0.2,5-1.7,7.7-1c0.4,0.2,0.8,0.5,1.2,0.7c1.6,0.9,3,2.2,5,2c1.8,0.5,3.2,0,4.1-1.8
				c0.3-0.3,0.7-0.6,1-0.9c0.7-0.7,1.4-1.4,2.1-2c2.6-2.2,4.9-4.8,8.9-4.3c1,0.1,2.7-0.9,3.4-1.8c4.3-5.9,8.4-12,12.6-18
				c-25.3,0-50.7,0-76,0c-1,0-2,0-3,0c-0.3,2.3,1.3,2.7,3,3.1c2,1.3,4,2.6,6,3.9c0.7,0.2,1.4,0.3,2.1,0.5c-0.7-0.2-1.4-0.4-2.1-0.5
				c0,0.9,0.2,1.9-1,2.3C69.3,8.1,65.2,8.3,61.8,6c-0.4-0.3-1-0.7-1.3-0.6c-6.7,3.1-4.2-3-5.4-5.3c-14.3,0-28.7,0-43,0
				c-4.4,5.7-7,12.7-12,18c0,29.7,0,59.3,0,89c3.1,0,3.2-2.6,3.9-4.6c0.5-1.4,0.6-2.9,0.9-4.3c0.4-1.8,0-4.7,2.6-4.4
				c2,0.2,2.1,3.2,2.4,5c1.2,7-2.1,10.6-9.9,11.3c0,28.9,0.1,57.8-0.1,86.8c0,2.8,0.6,3.3,3.3,3.3c31.6-0.1,63.2-0.1,94.7-0.1
				c-5.8-11.3,2.6-18.1,8-26l0,0c0.7-0.4,1.5-0.7,2.2-1.1c3.2-1.9,5.5-0.7,6.8,2.4c1.7,4-2,3.1-3.8,3.8c-1.8,0.7-3,2.1-4.2,3.4
				c-1.3,1.5-2.4,3.2-4.6,3.5c-1,0.1-2.1,0.1-2.3,1.4c-0.2,1.4,0.9,2,1.9,2.6c1.3,0.8,2.7,1,4.3,1c4.9,0.1,9.8,0,14.7,1.6
				c4.2,1.4,8.8-0.6,12.9-2.3C135.7,189.8,136.6,187.9,136,186.3z M7.6,137.6c-1.1-4.3,0.8-6.3,3.1-8.6
				C11.3,132.7,9,134.4,7.6,137.6z M80.1,10.8c2.7,1.1,5.3,2.3,8,3.4c1.1,1.1,2.4,1.8,3.9,1.9c1.1,2.4,4.1,3.4,4.9,6.1
				c-0.2-0.3-0.6,0.1-0.9,0.1c-3.8-1.1-6.8-4.6-11.4-4.1c-0.1,2.4,3.5,6.4-2.5,6.1c0.3,0.8,0.5,1.7,0.9,2.4
				c-0.4-0.7-0.6-1.5-0.9-2.4c-0.3,0-0.7,0.1-1,0.1c-0.4,0.2-0.8,0.4-1.2,0.6c-3.9-0.3-7-1.2-5.2-6.2c0.5-1.5-1.3-2.1-1-3.5
				c1.1-0.1,2.3-0.2,3.4-0.4c1.4-0.4,3.1,1.7,3.9,0.2c0.9-1.6-0.9-2.5-2.2-3.2c-0.4-0.2-0.1-0.8,0.4-1.1
				C79.4,10.9,79.7,10.8,80.1,10.8z M78.2,8.8c-0.2-0.2-0.4-0.4-0.6-0.5C77.8,8.4,78,8.6,78.2,8.8z M15.3,162.6
				c-1,0.2-1.2-0.9-1.1-1.8c0.1-1.6,1.2-2.6,2.6-3.5c0.7,0.7,2,1.6,1.8,2.1C18.2,161.1,16.9,162.3,15.3,162.6z M102.8,123.9
				c-2.8-1.7-4.5-6.3-8.3-3.7c-3.7,2.5-8.7,3.9-8.9,10c-0.1,4.4-7.8,9.3-11.6,7c-8.1-4.8-17.7-5.6-25.7-10.3
				c-0.4-0.3-0.7-0.5-1.1-0.8c-0.3-0.1-0.6-0.3-0.9-0.4c-0.7-1.2-2.2-2-1.7-3.7c2-0.4,3.5-2.1,5.6-1.9c1.1-1.8,2.1-3.6,3.2-5.4
				c-0.3-0.6-0.7-1.2-1-1.8c0.1-2.5-0.6-5.1,0.7-7.5l0.2-0.3c0.6-0.5,1.1-1.1,1.7-1.6l-0.1-0.1c0.1-0.5,0.2-1,0.2-1.4
				c1.9-5.7,4.1-11.2,8-15.9c1.2-1.5,1.5-3.2,0.7-5.1c-1.2-2.8-3.3-5.4-0.9-8.7c0.7-1-6.2-6.6-7.8-6c-2.2,0.7-4.1,0.5-6.3,0.2
				c-3.5-0.6-6.4,2.4-6.5,6c-0.1,4.4-0.1,4.4-4.9,8.7c0.9-5.8-2.4-5.4-6-4.9c-0.6,0.1-1.6,1.1-2-0.3c-0.2-0.8,0.2-1.5,0.8-2.2
				c1-1.2,4.4-1.6,2-3.8c-1.1-1-4.2-0.6-5.6,1.5c-0.9,1.3-1.8,2.4-3.2,3c-1.3,0.6-2.6,0.7-3.5-0.7c-0.9-1.4,0.3-2.1,1.1-2.9
				c0.1-0.1,0.2-0.3,0.4-0.3c7.7-2.9,13.9-9.3,22.5-10.3c1.3-0.2,2.8-0.4,3.9,0.1c3.3,1.4,4.7-0.3,5.5-3c0.7-2.4,2.2-4,4.3-5.2
				c2.7-1.5,5.2-2.9,5.8,2.2c0.5,3.6,4.4,5.5,8.1,4.5c1.1-0.3,2.1-1.1,3.2-1.4c2.4-0.8,4.6,0.6,5.7,2.1c1.5,2-1.1,3.2-2.4,4
				c-2,1.3-3.6,3-5.2,4.6c-1.2,1.1-2.1,2.5-0.9,3.9c4.6,5.1,4.2,11.6,5.2,17.7c1.1,6.5,5.8,12.3,3.9,19.6c-0.6,2.2,1.8,1.8,3.1,1.1
				c1.6-0.7,0.9-2.7,1.8-4.2c2.7,3.4,5.5,4.8,9,1c1.5-1.6,2.7-1,3.7,1c1.4,3.1,3.4,5.4,6.6,7.5C110,119.3,104.2,121.3,102.8,123.9z
				 M106.1,171.1L106.1,171.1L106.1,171.1c0.9-0.2,1.8-0.5,2.6-0.9C107.9,170.6,107,170.9,106.1,171.1z"/>
			<path class="st1" d="M53.5,120.4c1.1-1.7,1.1-3.8-0.3-5.5c-1.1,1.8-2.1,3.6-3.2,5.4C51.1,121.3,52.7,121.6,53.5,120.4z"/>
			<path class="st1" d="M142.6,158.4c2.8,2.3,5.9,2.5,9.5,0.1c-3.3-1.9-6.1-3.3-9.5-1.8C142.4,156.8,142.3,158.2,142.6,158.4z"/>
			<path class="st1" d="M127.6,33.7c-0.8-0.9-1.8-0.4-2.7-0.1c-3.2,1.2-5.5,3.6-7.8,5.9c-2,2.1-1.9,4.4,0,5.9
				c1.5,1.2,2.1,3.1,3.5,4.3c2.1-2.3,4.1-4.5,6-6.7c0.4-0.5,1.9-1.3,0.9-1.7c-3.8-1.7-0.8-3.4-0.1-4.9
				C127.7,35.5,128.4,34.7,127.6,33.7z"/>
			<path class="st1" d="M87.1,111.8c-1.5,1-0.9,2.6-1,4c-0.1,1.5,0,2.9,0,4.8c2.2-0.7,3.2-1.9,3.7-3.2c0.6-2-0.5-3.7-1.5-5.4
				C88.1,111.8,87.3,111.6,87.1,111.8z"/>
			<path class="st1" d="M62.4,101.3c-1.3,0.2-2.7,0.6-3,2.1c-0.3,1.3,0.8,1.7,1.8,1.7c1.4,0.1,2.7,0,2.9-2.2
				C63.9,102.2,63.7,101.1,62.4,101.3z"/>
			<path class="st1" d="M67.7,92.4c-1.3,0.5-3,0.7-3.2,2.5c-0.1,1,1.1,1.2,1.8,1c1.3-0.5,2.8-0.8,3.3-2.3
				C69.2,92.7,68.5,92.1,67.7,92.4z"/>
		</g>
	</g>
	<g>
		<g>
			<path class="st1" d="M400.7,147.5c3-1.1,2.7,1.8,3.3,3.1c2.7,6.2,10.9,9.1,16.3,5.5c0-4,0-8,0-12c-1.8,0.1-3.3-0.2-3.9-2.2
				c-2.4-6.8-7.5-9.9-14.5-10.5c-3.3-0.3-5.2,1.6-4.4,4.4c1.3,4.4-1.8,5-4.3,6.4c-2.7,1.5-5.2,3.1-7.8-0.4c-1.4-1.9-3.5-2.2-5-0.1
				c-1.4,1.8-3.6,5-1.4,6c4.4,2.1,8,4.8,11.2,8.2c0.5,0.5,2,0.4,2.9,0.1c3-0.9,6.2-1.2,8.6-3.3c-0.8-1.3-3.3-1.1-3.2-3.3
				C398.6,148.2,399.8,147.8,400.7,147.5z"/>
			<path class="st1" d="M390.3,196.5c-1.1,0.6-2.1,0.3-3.2-0.2c-6.8-3.1-13.2-8.7-21.3-2.7c-1.4,1.1-3.9,1.3-5.7,1.1
				c-5.2-0.7-8.9,1.2-11.7,5.4c15.7,0,31.3,0,47,0C395.5,196.2,394.5,194.1,390.3,196.5z"/>
			<path class="st1" d="M420.3,198.1c-5.4-1.1-10.9-3.4-16.3-0.1c-0.6,0.4-1.6,0.1-2.4,0.2c-1,0.2-1.1,1-1.2,1.8c6,0,12-0.1,18,0.1
				C420,200.2,420.7,199.8,420.3,198.1z"/>
			<path class="st1" d="M356.2,186.3c-1.7-4.7-1.9-9.7-3-14.5c-0.4-1.7-1-2.3,1-3.6c2.2-1.4,2.5-4.2,1.9-6.7
				c-0.3-1.6-1.6-1.5-2.8-1.4c-2.6,0.3-4.7,1.4-5.9,3.9c-0.2,0.4-0.1,1-0.2,1.5c-0.2,3.6-2.7,2.9-4.6,2c-1.4-0.7-2.4-2.3-3.5-3.4
				c3.2-6.9,7.9-12.1,15.9-13c1.6-0.2,2.3-1.2,2.9-2.4c-5.2-2.2-5-2.3-2.3-7.4c3.2-6,6.1-12.1,8.5-18.4c1.7-4.5,6-5.1,9-7.7
				c0.8-0.7,2.6-0.3,3.5,1c1,1.4,0.2,2.8,0,4.2c-0.3,2.4-4.8,3.8-1.5,7.1c3.5,3.4,4.7-1.4,7.2-1.7c5.8-0.8,10-5.9,16.4-5.9
				c7.2-0.1,14.5-1.5,21.5,1.2c0-39.2,0-78.3,0.1-117.5c0-3-0.6-3.6-3.6-3.6c-16.2,0.2-32.3,0.1-48.5,0.1c-2,4.5-3.8,9.1-5.9,13.6
				c-1.6,3.4-4.8,5.9-2.5,10.7c0.8,1.7-2.3,5.1-3.3,7.9c-2.8,7.6-7.4,14.6-4.7,23.7c1.3,4.3-1.5,9.2-3,13.7c-0.3,1-1.4,1.3-2.4,1.5
				c-3.3,0.6-6.7,1.1-7.3,5.9c-1.8-6.4-5.4-11.6-6-17.8c-0.3-2.9-3.5-4-5.6-5.6c-1.5-1.1-2.5-1.9-1.6-3.5c2.7-4.5,0.8-5.5-3.4-4.6
				c-1.2,0.2-1.3-0.8-1.9-1.1c-2.8-1-5.5-2.1-8.3-3.1c-1.5,0-2.9,0-4.4,0l-0.4,0c-1-0.1-1.9-0.2-2.9-0.3c0-3.7,3.4-3.6,5.6-4.7
				c4-2,7.3-3.8,3.4-8.5c1.7-1.6,3.4,1.3,4.8-0.5c2.6-0.2,5-1.7,7.7-1c0.4,0.2,0.8,0.5,1.2,0.7c1.6,0.9,3,2.2,5,2
				c1.8,0.5,3.2,0,4.1-1.8c0.3-0.3,0.7-0.6,1-0.9c0.7-0.7,1.4-1.4,2.1-2c2.6-2.2,4.9-4.8,8.9-4.3c1,0.1,2.7-0.9,3.4-1.8
				c4.3-5.9,8.4-12,12.6-18c-25.3,0-50.7,0-76,0c-1,0-2,0-3,0c-0.3,2.3,1.3,2.7,3,3.1c2,1.3,4,2.6,6,3.9c0.7,0.2,1.4,0.3,2.1,0.5
				c-0.7-0.2-1.4-0.4-2.1-0.5c0,0.9,0.2,1.9-1,2.3c-3.7-1.2-7.9-1.1-11.3-3.4c-0.4-0.3-1-0.7-1.3-0.6c-6.7,3.1-4.2-3-5.4-5.3
				c-14.3,0-28.7,0-43,0c-4.4,5.7-7,12.7-12,18c0,29.7,0,59.3,0,89c3.1,0,3.2-2.6,3.9-4.6c0.5-1.4,0.6-2.9,0.9-4.3
				c0.4-1.8,0-4.7,2.6-4.4c2,0.2,2.1,3.2,2.4,5c1.2,7-2.1,10.6-9.9,11.3c0,28.9,0.1,57.8-0.1,86.8c0,2.8,0.6,3.3,3.3,3.3
				c31.6-0.1,63.2-0.1,94.7-0.1c-5.8-11.3,2.6-18.1,8-26l0,0c0.7-0.4,1.5-0.7,2.2-1.1c3.2-1.9,5.5-0.7,6.8,2.4c1.7,4-2,3.1-3.8,3.8
				c-1.8,0.7-3,2.1-4.2,3.4c-1.3,1.5-2.4,3.2-4.6,3.5c-1,0.1-2.1,0.1-2.3,1.4c-0.2,1.4,0.9,2,1.9,2.6c1.3,0.8,2.7,1,4.3,1
				c4.9,0.1,9.8,0,14.7,1.6c4.2,1.4,8.8-0.6,12.9-2.3C355.8,189.8,356.8,187.9,356.2,186.3z M227.8,137.6c-1.1-4.3,0.8-6.3,3.1-8.6
				C231.5,132.7,229.2,134.4,227.8,137.6z M300.3,10.8c2.7,1.1,5.3,2.3,8,3.4c1.1,1.1,2.4,1.8,3.9,1.9c1.1,2.4,4.1,3.4,4.9,6.1
				c-0.2-0.3-0.6,0.1-0.9,0.1c-3.8-1.1-6.8-4.6-11.4-4.1c-0.1,2.4,3.5,6.4-2.5,6.1c0.3,0.8,0.5,1.7,0.9,2.4
				c-0.4-0.7-0.6-1.5-0.9-2.4c-0.3,0-0.7,0.1-1,0.1c-0.4,0.2-0.8,0.4-1.2,0.6c-3.9-0.3-7-1.2-5.2-6.2c0.5-1.5-1.3-2.1-1-3.5
				c1.1-0.1,2.3-0.2,3.4-0.4c1.4-0.4,3.1,1.7,3.9,0.2c0.9-1.6-0.9-2.5-2.2-3.2c-0.4-0.2-0.1-0.8,0.4-1.1
				C299.6,10.9,299.9,10.8,300.3,10.8z M298.4,8.8c-0.2-0.2-0.4-0.4-0.6-0.5C298,8.4,298.2,8.6,298.4,8.8z M235.4,162.6
				c-1,0.2-1.2-0.9-1.1-1.8c0.1-1.6,1.2-2.6,2.6-3.5c0.7,0.7,2,1.6,1.8,2.1C238.4,161.1,237.1,162.3,235.4,162.6z M322.9,123.9
				c-2.8-1.7-4.5-6.3-8.3-3.7c-3.7,2.5-8.7,3.9-8.9,10c-0.1,4.4-7.8,9.3-11.6,7c-8.1-4.8-17.7-5.6-25.7-10.3
				c-0.4-0.3-0.7-0.5-1.1-0.8c-0.3-0.1-0.6-0.3-0.9-0.4c-0.7-1.2-2.2-2-1.7-3.7c2-0.4,3.5-2.1,5.6-1.9c1.1-1.8,2.1-3.6,3.2-5.4
				c-0.3-0.6-0.7-1.2-1-1.8c0.1-2.5-0.6-5.1,0.7-7.5l0.2-0.3c0.6-0.5,1.1-1.1,1.7-1.6l-0.1-0.1c0.1-0.5,0.2-1,0.2-1.4
				c1.9-5.7,4.1-11.2,8-15.9c1.2-1.5,1.5-3.2,0.7-5.1c-1.2-2.8-3.3-5.4-0.9-8.7c0.7-1-6.2-6.6-7.8-6c-2.2,0.7-4.1,0.5-6.3,0.2
				c-3.5-0.6-6.4,2.4-6.5,6c-0.1,4.4-0.1,4.4-4.9,8.7c0.9-5.8-2.4-5.4-6-4.9c-0.6,0.1-1.6,1.1-2-0.3c-0.2-0.8,0.2-1.5,0.8-2.2
				c1-1.2,4.4-1.6,2-3.8c-1.1-1-4.2-0.6-5.6,1.5c-0.9,1.3-1.8,2.4-3.2,3c-1.3,0.6-2.6,0.7-3.5-0.7c-0.9-1.4,0.3-2.1,1.1-2.9
				c0.1-0.1,0.2-0.3,0.4-0.3c7.7-2.9,13.9-9.3,22.5-10.3c1.3-0.2,2.8-0.4,3.9,0.1c3.3,1.4,4.7-0.3,5.5-3c0.7-2.4,2.2-4,4.3-5.2
				c2.7-1.5,5.2-2.9,5.8,2.2c0.5,3.6,4.4,5.5,8.1,4.5c1.1-0.3,2.1-1.1,3.2-1.4c2.4-0.8,4.6,0.6,5.7,2.1c1.5,2-1.1,3.2-2.4,4
				c-2,1.3-3.6,3-5.2,4.6c-1.2,1.1-2.1,2.5-0.9,3.9c4.6,5.1,4.2,11.6,5.2,17.7c1.1,6.5,5.8,12.3,3.9,19.6c-0.6,2.2,1.8,1.8,3.1,1.1
				c1.6-0.7,0.9-2.7,1.8-4.2c2.7,3.4,5.5,4.8,9,1c1.5-1.6,2.7-1,3.7,1c1.4,3.1,3.4,5.4,6.6,7.5C330.2,119.3,324.4,121.3,322.9,123.9
				z M326.3,171.1L326.3,171.1L326.3,171.1c0.9-0.2,1.8-0.5,2.6-0.9C328.1,170.6,327.2,170.9,326.3,171.1z"/>
			<path class="st1" d="M273.7,120.4c1.1-1.7,1.1-3.8-0.3-5.5c-1.1,1.8-2.1,3.6-3.2,5.4C271.3,121.3,272.9,121.6,273.7,120.4z"/>
			<path class="st1" d="M362.8,158.4c2.8,2.3,5.9,2.5,9.5,0.1c-3.3-1.9-6.1-3.3-9.5-1.8C362.6,156.8,362.5,158.2,362.8,158.4z"/>
			<path class="st1" d="M347.8,33.7c-0.8-0.9-1.8-0.4-2.7-0.1c-3.2,1.2-5.5,3.6-7.8,5.9c-2,2.1-1.9,4.4,0,5.9
				c1.5,1.2,2.1,3.1,3.5,4.3c2.1-2.3,4.1-4.5,6-6.7c0.4-0.5,1.9-1.3,0.9-1.7c-3.8-1.7-0.8-3.4-0.1-4.9
				C347.9,35.5,348.6,34.7,347.8,33.7z"/>
			<path class="st1" d="M307.3,111.8c-1.5,1-0.9,2.6-1,4c-0.1,1.5,0,2.9,0,4.8c2.2-0.7,3.2-1.9,3.7-3.2c0.6-2-0.5-3.7-1.5-5.4
				C308.3,111.8,307.5,111.6,307.3,111.8z"/>
			<path class="st1" d="M282.6,101.3c-1.3,0.2-2.7,0.6-3,2.1c-0.3,1.3,0.8,1.7,1.8,1.7c1.4,0.1,2.7,0,2.9-2.2
				C284.1,102.2,283.9,101.1,282.6,101.3z"/>
			<path class="st1" d="M287.9,92.4c-1.3,0.5-3,0.7-3.2,2.5c-0.1,1,1.1,1.2,1.8,1c1.3-0.5,2.8-0.8,3.3-2.3
				C289.4,92.7,288.7,92.1,287.9,92.4z"/>
		</g>
	</g>
	<g>
		<path class="st0" d="M538.5,200.1c-5.8-11.3,2.6-18.1,8-26c0.7-0.4,1.5-0.7,2.2-1.1c3.2-1.9,5.5-0.7,6.8,2.4c1.7,4-2,3.1-3.8,3.8
			c-1.8,0.7-3,2.1-4.2,3.4c-1.3,1.5-2.4,3.2-4.6,3.5c-1,0.1-2.1,0.1-2.3,1.4c-0.2,1.4,0.9,2,1.9,2.6c1.3,0.8,2.7,1,4.3,1
			c4.9,0.1,9.8,0,14.7,1.6c4.2,1.4,8.8-0.6,12.9-2.3c1.7-0.7,2.6-2.5,2-4.2c-1.7-4.7-1.9-9.7-3-14.5c-0.4-1.7-1-2.3,1-3.6
			c2.2-1.4,2.5-4.2,1.9-6.7c-0.3-1.6-1.6-1.5-2.8-1.4c-2.6,0.3-4.7,1.4-5.9,3.9c-0.2,0.4-0.1,1-0.2,1.5c-0.2,3.6-2.7,2.9-4.6,2
			c-1.4-0.7-2.4-2.3-3.5-3.4c3.2-6.9,7.9-12.1,15.9-13c1.6-0.2,2.3-1.2,2.9-2.4c-5.2-2.2-5-2.3-2.3-7.4c3.2-6,6.1-12.1,8.5-18.4
			c1.7-4.5,6-5.1,9-7.7c0.8-0.7,2.6-0.3,3.5,1c1,1.4,0.2,2.8,0,4.2c-0.3,2.4-4.8,3.8-1.5,7.1c3.5,3.4,4.7-1.4,7.2-1.7
			c5.8-0.8,10-5.9,16.4-5.9c7.2-0.1,14.5-1.5,21.5,1.2c0,7.7,0,15.3,0,23c-1.8,0.1-3.3-0.2-3.9-2.2c-2.4-6.8-7.5-9.9-14.5-10.5
			c-3.3-0.3-5.2,1.6-4.4,4.4c1.3,4.4-1.8,5-4.3,6.4c-2.7,1.5-5.2,3.1-7.8-0.4c-1.4-1.9-3.5-2.2-5-0.1c-1.4,1.8-3.6,5-1.4,6
			c4.4,2.1,8,4.8,11.2,8.2c0.5,0.5,2,0.4,2.9,0.1c3-0.9,6.2-1.2,8.6-3.3c-0.8-1.3-3.3-1.1-3.2-3.3c0.1-1.1,1.3-1.5,2.2-1.8
			c3-1.1,2.7,1.8,3.3,3.1c2.7,6.2,10.9,9.1,16.3,5.5c0,14,0,28,0,42c-5.4-1.1-10.9-3.4-16.3-0.1c-0.6,0.4-1.6,0.1-2.4,0.2
			c-1,0.2-1.1,1-1.2,1.8c-1.7,0-3.3,0-5,0c0.3-3.9-0.7-6-5-3.6c-1.1,0.6-2.1,0.3-3.2-0.2c-6.8-3.1-13.2-8.7-21.3-2.7
			c-1.4,1.1-3.9,1.3-5.7,1.1c-5.2-0.7-8.9,1.2-11.7,5.4C558.5,200.1,548.5,200.1,538.5,200.1z M592.5,158.5
			c-3.3-1.9-6.1-3.3-9.5-1.8c-0.2,0.1-0.3,1.5,0,1.7C585.8,160.7,588.8,160.9,592.5,158.5z"/>
		<path class="st0" d="M532.5,41.3c-1.5,0-2.9,0-4.4,0l-0.4,0c-1-0.1-1.9-0.2-2.9-0.3c0-3.7,3.4-3.6,5.6-4.7c4-2,7.3-3.8,3.4-8.5
			c1.7-1.6,3.4,1.3,4.8-0.5c2.6-0.2,5-1.7,7.7-1c0.4,0.2,0.8,0.5,1.2,0.7c1.6,0.9,3,2.2,5,2c1.8,0.5,3.2,0,4.1-1.8
			c0.3-0.3,0.7-0.6,1-0.9c0.7-0.7,1.4-1.4,2.1-2c2.6-2.2,4.9-4.8,8.9-4.3c1,0.1,2.7-0.9,3.4-1.8c4.3-5.9,8.4-12,12.6-18
			c1.3,0,2.7,0,4,0c-2,4.5-3.8,9.1-5.9,13.6c-1.6,3.4-4.8,5.9-2.5,10.7c0.8,1.7-2.3,5.1-3.3,7.9c-2.8,7.6-7.4,14.6-4.7,23.7
			c1.3,4.3-1.5,9.2-3,13.7c-0.3,1-1.4,1.3-2.4,1.5c-3.3,0.6-6.7,1.1-7.3,5.9c-1.8-6.4-5.4-11.6-6-17.8c-0.3-2.9-3.5-4-5.6-5.6
			c-1.5-1.1-2.5-1.9-1.6-3.5c2.7-4.5,0.8-5.5-3.4-4.6c-1.2,0.2-1.3-0.8-1.9-1.1C538,43.3,535.2,42.3,532.5,41.3z M560.9,49.8
			c2.1-2.3,4.1-4.5,6-6.7c0.4-0.5,1.9-1.3,0.9-1.7c-3.8-1.7-0.8-3.4-0.1-4.9c0.4-0.9,1.1-1.7,0.3-2.7c-0.8-0.9-1.8-0.4-2.7-0.1
			c-3.2,1.2-5.5,3.6-7.8,5.9c-2,2.1-1.9,4.4,0,5.9C558.9,46.8,559.5,48.6,560.9,49.8z"/>
		<path class="st0" d="M452.5,0.1c-4.4,5.7-7,12.7-12,18c0-5.3,0.1-10.7-0.1-16c0-1.7,0.3-2.2,2.1-2.1
			C445.8,0.2,449.1,0.1,452.5,0.1z"/>
		<path class="st0" d="M508.4,3.2c2,1.3,4,2.6,6,3.9c0,0.9,0.2,1.9-1,2.3c-3.7-1.2-7.9-1.1-11.3-3.4c-0.4-0.3-1-0.7-1.3-0.6
			c-6.7,3.1-4.2-3-5.4-5.3c3.3,0,6.7,0,10,0C505.2,2.4,506.8,2.8,508.4,3.2z"/>
		<path class="st0" d="M440.5,107.1c3.1,0,3.2-2.6,3.9-4.6c0.5-1.4,0.6-2.9,0.9-4.3c0.4-1.8,0-4.7,2.6-4.4c2,0.2,2.1,3.2,2.4,5
			c1.2,7-2.1,10.6-9.9,11.3C440.5,109.1,440.5,108.1,440.5,107.1z"/>
		<path class="st0" d="M495.3,102.1c1.9-5.7,4.1-11.2,8-15.9c1.2-1.5,1.5-3.2,0.7-5.1c-1.2-2.8-3.3-5.4-0.9-8.7c0.7-1-6.2-6.6-7.8-6
			c-2.2,0.7-4.1,0.5-6.3,0.2c-3.5-0.6-6.4,2.4-6.5,6c-0.1,4.4-0.1,4.4-4.9,8.7c0.9-5.8-2.4-5.4-6-4.9c-0.6,0.1-1.6,1.1-2-0.3
			c-0.2-0.8,0.2-1.5,0.8-2.2c1-1.2,4.4-1.6,2-3.8c-1.1-1-4.2-0.6-5.6,1.5c-0.9,1.3-1.8,2.4-3.2,3c-1.3,0.6-2.6,0.7-3.5-0.7
			c-0.9-1.4,0.3-2.1,1.1-2.9c0.1-0.1,0.2-0.3,0.4-0.3c7.7-2.9,13.9-9.3,22.5-10.3c1.3-0.2,2.8-0.4,3.9,0.1c3.3,1.4,4.7-0.3,5.5-3
			c0.7-2.4,2.2-4,4.3-5.2c2.7-1.5,5.2-2.9,5.8,2.2c0.5,3.6,4.4,5.5,8.1,4.5c1.1-0.3,2.1-1.1,3.2-1.4c2.4-0.8,4.6,0.6,5.7,2.1
			c1.5,2-1.1,3.2-2.4,4c-2,1.3-3.6,3-5.2,4.6c-1.2,1.1-2.1,2.5-0.9,3.9c4.6,5.1,4.2,11.6,5.2,17.7c1.1,6.5,5.8,12.3,3.9,19.6
			c-0.6,2.2,1.8,1.8,3.1,1.1c1.6-0.7,0.9-2.7,1.8-4.2c2.7,3.4,5.5,4.8,9,1c1.5-1.6,2.7-1,3.7,1c1.4,3.1,3.4,5.4,6.6,7.5
			c5.1,3.3-0.7,5.4-2.1,8c-2.8-1.7-4.5-6.3-8.3-3.7c-3.7,2.5-8.7,3.9-8.9,10c-0.1,4.4-7.8,9.3-11.6,7c-8.1-4.8-17.7-5.6-25.7-10.3
			c-0.4-0.3-0.7-0.5-1.1-0.8c-0.3-0.1-0.6-0.3-0.9-0.4c-0.7-1.2-2.2-2-1.7-3.7c2-0.4,3.5-2.1,5.6-1.9c1.1,1,2.7,1.4,3.5,0.2
			c1.1-1.7,1.1-3.8-0.3-5.5c-0.3-0.6-0.7-1.2-1-1.8c0.1-2.5-0.6-5.1,0.7-7.5l0.2-0.3c0.6-0.5,1.1-1.1,1.7-1.6c0,0-0.1-0.1-0.1-0.1
			C495.1,103.1,495.2,102.6,495.3,102.1z M526.5,120.6c2.2-0.7,3.2-1.9,3.7-3.2c0.6-2-0.5-3.7-1.5-5.4c-0.1-0.2-0.9-0.4-1.2-0.2
			c-1.5,1-0.9,2.6-1,4C526.4,117.3,526.5,118.8,526.5,120.6z M504.4,102.8c-0.1-0.7-0.4-1.7-1.7-1.6c-1.3,0.2-2.7,0.6-3,2.1
			c-0.3,1.3,0.8,1.7,1.8,1.7C503,105.1,504.3,105.1,504.4,102.8z M510,93.5c-0.4-0.8-1.1-1.4-1.9-1.1c-1.3,0.5-3,0.7-3.2,2.5
			c-0.1,1,1.1,1.2,1.8,1C508,95.4,509.5,95.1,510,93.5z"/>
		<path class="st0" d="M536.4,22.3c-3.8-1.1-6.8-4.6-11.4-4.1c-0.1,2.4,3.5,6.4-2.5,6.1c-0.3,0-0.7,0.1-1,0.1
			c-0.4,0.2-0.8,0.4-1.2,0.6c-3.9-0.3-7-1.2-5.2-6.2c0.5-1.5-1.3-2.1-1-3.5c1.1-0.1,2.3-0.2,3.4-0.4c1.4-0.4,3.1,1.7,3.9,0.2
			c0.9-1.6-0.9-2.5-2.2-3.2c-0.4-0.2-0.1-0.8,0.4-1.1c0.3,0,0.7,0,1,0c2.7,1.1,5.3,2.3,8,3.4c1.1,1.1,2.4,1.8,3.9,1.9
			c1.1,2.6,4.4,3.4,5,6.5C537.3,21.7,536.7,22.3,536.4,22.3z"/>
		<path class="st0" d="M457.1,157.3c0.7,0.7,2,1.6,1.8,2.1c-0.4,1.6-1.7,2.8-3.3,3.1c-1,0.2-1.2-0.9-1.1-1.8
			C454.6,159.2,455.7,158.2,457.1,157.3z"/>
		<path class="st0" d="M448,137.6c-1.1-4.3,0.8-6.3,3.1-8.6C451.7,132.7,449.4,134.4,448,137.6z"/>
	</g>
</g>
<g>
</g>
<g>
</g>
<g>
</g>
<g>
</g>
<g>
</g>
<g>
</g>
<g>
</g>
<g>
</g>
<g>
</g>
<g>
</g>
<g>
</g>
<g>
</g>
<g>
</g>
<g>
</g>
<g>
</g>
</svg>
