<?xml version="1.0" encoding="utf-8"?>
<!-- Generator: Adobe Illustrator 17.1.0, SVG Export Plug-In . SVG Version: 6.00 Build 0)  -->
<!DOCTYPE svg PUBLIC "-//W3C//DTD SVG 1.1//EN" "http://www.w3.org/Graphics/SVG/1.1/DTD/svg11.dtd">
<svg version="1.1" id="Layer_1" xmlns="http://www.w3.org/2000/svg" xmlns:xlink="http://www.w3.org/1999/xlink" x="0px" y="0px"
	 viewBox="0 0 642.8 257.7" style="enable-background:new 0 0 642.8 257.7;" xml:space="preserve">
<style type="text/css">
	.st0{fill:#F90101;}
	.st1{fill:#110203;}
	.st2{fill:#010000;}
</style>
<g>
	<g>
		<path class="st0" d="M324.4,257.6c-2.6-7.7-1.3-12.4,6-16.6c10.9-6.3,16.5-16.4,21.1-27.4c0.6-0.3,1-1.2,0.6-1.4
			c-1.1-0.6-1.4,0.6-1.8,1.3c-4.5,4.4-9.5,0.2-14.2,0.7c-4,0.4-8.1-4-12.5,0.5c-0.8,0.8-3.5-2.5-3.1-5c0.4-2.4,2-4,4-5.4
			c3.8-2.6,3.6-4.2-0.4-6.3c-1-0.5-2.2-1.2-3.3-1.1c-4.2,0.1-5.8-3.1-8.4-6.2c4.4,0,8.1-0.3,11.7-1.6c1.5-0.6,2.9-0.1,3.7,0.6
			c3.7,3.2,8.3,3.7,12.7,4.7c5.2,1.2,8.1-0.6,7.5-6.1c-0.3-2.7,2.6-5.6-0.7-8.1c-3.8-2.9-8-4.6-12.3-6.5c-0.9-0.4-1.9,0-2.8,0.6
			c-3.4,2.1-6.9,1.3-7.4-2.8c-1.1-8.8-6.7-16.2-7.4-24.9c-0.7-8.8-0.3-17.8-0.1-26.7c0.1-2.7,1.7-4.8,4.2-6.4
			c1.5-0.9,2.7-3.9-0.3-3.6c-5,0.4-6.7-4.4-10.6-5.7c-2.9-1-5.8-3.6-8.9-5.2c-5.9-3.1-6.3-6.7-1-10.6c3.3-2.4,5.4-6.3,9.7-7.7
			c4.1-1.3,8.4-1.2,12.5-2.8c2.9-1.1,5.2,1.4,7.3,3.4c6.3,6.2,19.8,8.3,27.6,4.3c2.1-1.1,4-1.2,5.3,0.7c1.3,1.9,4.5,2.4,3,6.4
			c-1.6,4.3,1.5,8.5,2.8,12.6c0.5,1.5,2.1,3.3,0.7,4.6c-1.7,1.6-3-0.8-4.1-1.6c-10-7-20.8-6.2-31.8-3.3c-2.2,0.6-4.1,1.6-4.3,5.1
			c-0.1,2.2-1.4,4.9-2.5,7.3c-1.7,3.7-1.3,7.8,0.8,11c2.5,3.9,5.8,7.3,9.2,10.4c1.2,1.1,3.4,3.9,5.4,0c0.7-1.4,1.9,0.8,3,1.1
			c3.1,0.7,6.8,4.7,7.8-2.4c0.3-2.1,2.8-4,4.3-6c2,1.4-2.4,6,3,5.3c5-0.6,8.6-3.5,8.5-7.2c0-0.6-0.4-1.5-0.2-1.8
			c3.9-3.4,2.2-7.2,0.9-11c-0.3-0.9-0.9-2.1,0.3-2.5c1.1-0.4,1.7,0.7,2.2,1.6c1.9,3.7,2.3,7.5,1.7,11.6c-1.2,8.3-3.6,16.6-2.7,25.1
			c0.2,2-1.3,4.9,1.2,5.9c2.7,1,2.6-2.9,4.6-3.9c0.1,1.6,0.2,3,0.3,4.8c2.4-0.8,2.8-3,4-4.6c0.5-0.7,1.2-1.2,2.1-0.5
			c0.7,0.5,0.4,1.1,0.1,1.8c-2,4.3-4.6,8.4-6.2,12.9c-0.5,1.5-2.2,2-3.8,1.9c-3.9-0.3-6.1,2.3-6.9,5.3c-2.3,9.2-8.2,16.9-10.4,26.2
			c-1.3,5.7-1.5,11.3-1,17.1c0,0.6,0.9,1.5,0.7,1.8c-4.5,6.4,1.3,7,4.8,9.9c6.9,5.8,9.6,10.9,5.4,21.6c-0.7,1.7-1.3,3.4-1.9,5.1
			C351,257.6,337.7,257.6,324.4,257.6z M325.4,159.3c0.9,2.1-1,5.7,3,5.2c4-0.5,4.4-4.2,4.7-7.1c0.3-2.7-2.2-2.7-4.2-2.7
			C325.2,154.6,325.2,157,325.4,159.3z"/>
		<path class="st0" d="M401.4,257.6c-0.3-10.1,1.9-20.4-2.6-30.1c-0.6-1.3-0.7-3-2-3.9c-1.8-1.3-1.1-2.8,0.2-3.5
			c2.6-1.4,2.5-3.5,1.4-6c4.4,1.4,7.6,7.6,5.9,11.3c-2.3,4.9,0.6,9.1,3.4,11.3c3.3,2.5,7,5.7,11.7,6c0,4.3-0.1,8.7,0.1,13
			c0.1,1.7-0.3,2.1-2.1,2.1C412,257.5,406.7,257.6,401.4,257.6z"/>
		<path class="st1" d="M350.3,213.6c0.5-0.7,0.7-1.9,1.8-1.3c0.4,0.2,0,1.1-0.6,1.4C351.1,213.6,350.7,213.6,350.3,213.6z"/>
	</g>
	<g>
		<path class="st2" d="M547.7,257.6c-33.7,0-67.3-0.1-101,0.1c-3.4,0-4.1-0.7-4.1-4.1c0.1-83.7,0.1-167.3,0.1-251
			c65.3,0,130.7,0,196-0.1c3.4,0,4.1,0.7,4.1,4.1c-0.1,78.7-0.1,157.3-0.1,236c-4.7-0.4-8.4-3.6-11.7-6c-2.8-2.1-5.8-6.3-3.4-11.3
			c1.7-3.6-1.4-9.8-5.9-11.3c1.1,2.5,1.2,4.5-1.4,6c-1.3,0.7-2,2.2-0.2,3.5c1.3,1,1.4,2.6,2,3.9c4.5,9.7,2.3,20,2.6,30.1
			c-12.3,0-24.7,0-37,0c0.6-1.7,1.3-3.4,1.9-5.1c4.1-10.7,1.5-15.8-5.4-21.6c-3.4-2.9-9.3-3.6-4.8-9.9c0.2-0.3-0.6-1.2-0.7-1.8
			c-0.4-5.7-0.3-11.4,1-17.1c2.2-9.3,8.1-17,10.4-26.2c0.7-3,2.9-5.7,6.9-5.3c1.6,0.1,3.3-0.4,3.8-1.9c1.6-4.6,4.2-8.6,6.2-12.9
			c0.3-0.6,0.5-1.3-0.1-1.8c-0.9-0.7-1.5-0.2-2.1,0.5c-1.2,1.6-1.6,3.8-4,4.6c-0.1-1.8-0.2-3.3-0.3-4.8c-2.1,1-1.9,4.9-4.6,3.9
			c-2.5-0.9-1-3.9-1.2-5.9c-0.9-8.5,1.5-16.8,2.7-25.1c0.6-4.1,0.2-7.9-1.7-11.6c-0.4-0.9-1.1-2-2.2-1.6c-1.2,0.5-0.6,1.6-0.3,2.5
			c1.3,3.8,3,7.6-0.9,11c-0.3,0.2,0.2,1.2,0.2,1.8c0.1,3.6-3.4,6.5-8.5,7.2c-5.4,0.7-1-4-3-5.3c-1.5,2-4,3.9-4.3,6
			c-1,7.1-4.7,3.1-7.8,2.4c-1.1-0.3-2.2-2.5-3-1.1c-2,3.9-4.3,1.1-5.4,0c-3.4-3.2-6.7-6.6-9.2-10.4c-2.1-3.2-2.5-7.2-0.8-11
			c1.1-2.4,2.4-5.1,2.5-7.3c0.2-3.4,2.1-4.5,4.3-5.1c10.9-2.9,21.7-3.8,31.8,3.3c1.1,0.8,2.4,3.1,4.1,1.6c1.4-1.3-0.2-3.1-0.7-4.6
			c-1.3-4.2-4.5-8.3-2.8-12.6c1.5-4-1.7-4.5-3-6.4c-1.3-1.9-3.2-1.8-5.3-0.7c-7.8,4.1-21.3,1.9-27.6-4.3c-2.1-2-4.4-4.5-7.3-3.4
			c-4.1,1.6-8.4,1.6-12.5,2.8c-4.3,1.3-6.4,5.2-9.7,7.7c-5.3,3.9-5,7.5,1,10.6c3.1,1.6,5.9,4.2,8.9,5.2c3.9,1.4,5.6,6.1,10.6,5.7
			c3-0.2,1.8,2.7,0.3,3.6c-2.5,1.6-4.1,3.7-4.2,6.4c-0.2,8.9-0.6,17.8,0.1,26.7c0.7,8.7,6.3,16.1,7.4,24.9c0.5,4.1,4,4.9,7.4,2.8
			c0.9-0.6,1.9-1,2.8-0.6c4.3,1.9,8.5,3.6,12.3,6.5c3.2,2.5,0.4,5.4,0.7,8.1c0.6,5.5-2.3,7.3-7.5,6.1c-4.5-1-9-1.5-12.7-4.7
			c-0.8-0.7-2.2-1.1-3.7-0.6c-3.5,1.3-7.3,1.6-11.7,1.6c2.6,3.1,4.2,6.3,8.4,6.2c1.1,0,2.2,0.6,3.3,1.1c4,2.1,4.2,3.8,0.4,6.3
			c-2.1,1.4-3.7,3-4,5.4c-0.4,2.5,2.3,5.8,3.1,5c4.3-4.5,8.4-0.1,12.5-0.5c4.7-0.5,9.7,3.6,14.2-0.7c0.4,0,0.8,0.1,1.2,0.1
			c-4.6,11-10.2,21.1-21.1,27.4C546.5,245.3,545.1,249.9,547.7,257.6z"/>
		<path class="st1" d="M573.6,213.6c0.5-0.7,0.7-1.9,1.8-1.3c0.4,0.2,0,1.1-0.6,1.4C574.4,213.6,574,213.6,573.6,213.6z"/>
		<path class="st1" d="M548.8,159.3c-0.2-2.3-0.3-4.7,3.5-4.7c2.1,0,4.6,0,4.2,2.7c-0.4,2.9-0.7,6.6-4.7,7.1
			C547.8,165,549.7,161.4,548.8,159.3z"/>
	</g>
	<g>
		<path class="st2" d="M105.1,255.1c-33.7,0-67.3-0.1-101,0.1c-3.4,0-4.1-0.7-4.1-4.1c0.1-83.7,0.1-167.3,0.1-251
			c65.3,0,130.7,0,196-0.1c3.4,0,4.1,0.7,4.1,4.1c-0.1,78.7-0.1,157.3-0.1,236c-4.7-0.4-8.4-3.6-11.7-6c-2.8-2.1-5.8-6.3-3.4-11.3
			c1.7-3.6-1.4-9.8-5.9-11.3c1.1,2.5,1.2,4.5-1.4,6c-1.3,0.7-2,2.2-0.2,3.5c1.3,1,1.4,2.6,2,3.9c4.5,9.7,2.3,20,2.6,30.1
			c-12.3,0-24.7,0-37,0c0.6-1.7,1.3-3.4,1.9-5.1c4.1-10.7,1.5-15.8-5.4-21.6c-3.4-2.9-9.3-3.6-4.8-9.9c0.2-0.3-0.6-1.2-0.7-1.8
			c-0.4-5.7-0.3-11.4,1-17.1c2.2-9.3,8.1-17,10.4-26.2c0.7-3,2.9-5.7,6.9-5.3c1.6,0.1,3.3-0.4,3.8-1.9c1.6-4.6,4.2-8.6,6.2-12.9
			c0.3-0.6,0.5-1.3-0.1-1.8c-0.9-0.7-1.5-0.2-2.1,0.5c-1.2,1.6-1.6,3.8-4,4.6c-0.1-1.8-0.2-3.3-0.3-4.8c-2.1,1-1.9,4.9-4.6,3.9
			c-2.5-0.9-1-3.9-1.2-5.9c-0.9-8.5,1.5-16.8,2.7-25.1c0.6-4.1,0.2-7.9-1.7-11.6c-0.4-0.9-1.1-2-2.2-1.6c-1.2,0.5-0.6,1.6-0.3,2.5
			c1.3,3.8,3,7.6-0.9,11c-0.3,0.2,0.2,1.2,0.2,1.8c0.1,3.6-3.4,6.5-8.5,7.2c-5.4,0.7-1-4-3-5.3c-1.5,2-4,3.9-4.3,6
			c-1,7.1-4.7,3.1-7.8,2.4c-1.1-0.3-2.2-2.5-3-1.1c-2,3.9-4.3,1.1-5.4,0c-3.4-3.2-6.7-6.6-9.2-10.4c-2.1-3.2-2.5-7.2-0.8-11
			c1.1-2.4,2.4-5.1,2.5-7.3c0.2-3.4,2.1-4.5,4.3-5.1c10.9-2.9,21.7-3.8,31.8,3.3c1.1,0.8,2.4,3.1,4.1,1.6c1.4-1.3-0.2-3.1-0.7-4.6
			c-1.3-4.2-4.5-8.3-2.8-12.6c1.5-4-1.7-4.5-3-6.4c-1.3-1.9-3.2-1.8-5.3-0.7c-7.8,4.1-21.3,1.9-27.6-4.3c-2.1-2-4.4-4.5-7.3-3.4
			c-4.1,1.6-8.4,1.6-12.5,2.8c-4.3,1.3-6.4,5.2-9.7,7.7c-5.3,3.9-5,7.5,1,10.6c3.1,1.6,5.9,4.2,8.9,5.2c3.9,1.4,5.6,6.1,10.6,5.7
			c3-0.2,1.8,2.7,0.3,3.6c-2.5,1.6-4.1,3.7-4.2,6.4c-0.2,8.9-0.6,17.8,0.1,26.7c0.7,8.7,6.3,16.1,7.4,24.9c0.5,4.1,4,4.9,7.4,2.8
			c0.9-0.6,1.9-1,2.8-0.6c4.3,1.9,8.5,3.6,12.3,6.5c3.2,2.5,0.4,5.4,0.7,8.1c0.6,5.5-2.3,7.3-7.5,6.1c-4.5-1-9-1.5-12.7-4.7
			c-0.8-0.7-2.2-1.1-3.7-0.6c-3.5,1.3-7.3,1.6-11.7,1.6c2.6,3.1,4.2,6.3,8.4,6.2c1.1,0,2.2,0.6,3.3,1.1c4,2.1,4.2,3.8,0.4,6.3
			c-2.1,1.4-3.7,3-4,5.4c-0.4,2.5,2.3,5.8,3.1,5c4.3-4.5,8.4-0.1,12.5-0.5c4.7-0.5,9.7,3.6,14.2-0.7c0.4,0,0.8,0.1,1.2,0.1
			c-4.6,11-10.2,21.1-21.1,27.4C103.8,242.7,102.5,247.4,105.1,255.1z"/>
		<path class="st0" d="M105.1,255.1c-2.6-7.7-1.3-12.4,6-16.6c10.9-6.3,16.5-16.4,21.1-27.4c0.6-0.3,1-1.2,0.6-1.4
			c-1.1-0.6-1.4,0.6-1.8,1.3c-4.5,4.4-9.5,0.2-14.2,0.7c-4,0.4-8.1-4-12.5,0.5c-0.8,0.8-3.5-2.5-3.1-5c0.4-2.4,2-4,4-5.4
			c3.8-2.6,3.6-4.2-0.4-6.3c-1-0.5-2.2-1.2-3.3-1.1c-4.2,0.1-5.8-3.1-8.4-6.2c4.4,0,8.1-0.3,11.7-1.6c1.5-0.6,2.9-0.1,3.7,0.6
			c3.7,3.2,8.3,3.7,12.7,4.7c5.2,1.2,8.1-0.6,7.5-6.1c-0.3-2.7,2.6-5.6-0.7-8.1c-3.8-2.9-8-4.6-12.3-6.5c-0.9-0.4-1.9,0-2.8,0.6
			c-3.4,2.1-6.9,1.3-7.4-2.8c-1.1-8.8-6.7-16.2-7.4-24.9c-0.7-8.8-0.3-17.8-0.1-26.7c0.1-2.7,1.7-4.8,4.2-6.4
			c1.5-0.9,2.7-3.9-0.3-3.6c-5,0.4-6.7-4.4-10.6-5.7c-2.9-1-5.8-3.6-8.9-5.2c-5.9-3.1-6.3-6.7-1-10.6c3.3-2.4,5.4-6.3,9.7-7.7
			c4.1-1.3,8.4-1.2,12.5-2.8c2.9-1.1,5.2,1.4,7.3,3.4c6.3,6.2,19.8,8.3,27.6,4.3c2.1-1.1,4-1.2,5.3,0.7c1.3,1.9,4.5,2.4,3,6.4
			c-1.6,4.3,1.5,8.5,2.8,12.6c0.5,1.5,2.1,3.3,0.7,4.6c-1.7,1.6-3-0.8-4.1-1.6c-10-7-20.8-6.2-31.8-3.3c-2.2,0.6-4.1,1.6-4.3,5.1
			c-0.1,2.2-1.4,4.9-2.5,7.3c-1.7,3.7-1.3,7.8,0.8,11c2.5,3.9,5.8,7.3,9.2,10.4c1.2,1.1,3.4,3.9,5.4,0c0.7-1.4,1.9,0.8,3,1.1
			c3.1,0.7,6.8,4.7,7.8-2.4c0.3-2.1,2.8-4,4.3-6c2,1.4-2.4,6,3,5.3c5-0.6,8.6-3.5,8.5-7.2c0-0.6-0.4-1.5-0.2-1.8
			c3.9-3.4,2.2-7.2,0.9-11c-0.3-0.9-0.9-2.1,0.3-2.5c1.1-0.4,1.7,0.7,2.2,1.6c1.9,3.7,2.3,7.5,1.7,11.6c-1.2,8.3-3.6,16.6-2.7,25.1
			c0.2,2-1.3,4.9,1.2,5.9c2.7,1,2.6-2.9,4.6-3.9c0.1,1.6,0.2,3,0.3,4.8c2.4-0.8,2.8-3,4-4.6c0.5-0.7,1.2-1.2,2.1-0.5
			c0.7,0.5,0.4,1.1,0.1,1.8c-2,4.3-4.6,8.4-6.2,12.9c-0.5,1.5-2.2,2-3.8,1.9c-3.9-0.3-6.1,2.3-6.9,5.3c-2.3,9.2-8.2,16.9-10.4,26.2
			c-1.3,5.7-1.5,11.3-1,17.1c0,0.6,0.9,1.5,0.7,1.8c-4.5,6.4,1.3,7,4.8,9.9c6.9,5.8,9.6,10.9,5.4,21.6c-0.7,1.7-1.3,3.4-1.9,5.1
			C131.8,255.1,118.4,255.1,105.1,255.1z M106.2,156.8c0.9,2.1-1,5.7,3,5.2c4-0.5,4.4-4.2,4.7-7.1c0.3-2.7-2.2-2.7-4.2-2.7
			C105.9,152,105.9,154.5,106.2,156.8z"/>
		<path class="st0" d="M182.1,255.1c-0.3-10.1,1.9-20.4-2.6-30.1c-0.6-1.3-0.7-3-2-3.9c-1.8-1.3-1.1-2.8,0.2-3.5
			c2.6-1.4,2.5-3.5,1.4-6c4.4,1.4,7.6,7.6,5.9,11.3c-2.3,4.9,0.6,9.1,3.4,11.3c3.3,2.5,7,5.7,11.7,6c0,4.3-0.1,8.7,0.1,13
			c0.1,1.7-0.3,2.1-2.1,2.1C192.8,255,187.4,255.1,182.1,255.1z"/>
		<path class="st1" d="M131,211.1c0.5-0.7,0.7-1.9,1.8-1.3c0.4,0.2,0,1.1-0.6,1.4C131.8,211.1,131.4,211.1,131,211.1z"/>
		<path class="st1" d="M106.2,156.8c-0.2-2.3-0.3-4.7,3.5-4.7c2.1,0,4.6,0,4.2,2.7c-0.4,2.9-0.7,6.6-4.7,7.1
			C105.1,162.4,107.1,158.8,106.2,156.8z"/>
	</g>
</g>
<g>
</g>
<g>
</g>
<g>
</g>
<g>
</g>
<g>
</g>
<g>
</g>
<g>
</g>
<g>
</g>
<g>
</g>
<g>
</g>
<g>
</g>
<g>
</g>
<g>
</g>
<g>
</g>
<g>
</g>
</svg>
