<?xml version="1.0" encoding="utf-8"?>
<!-- Generator: Adobe Illustrator 17.1.0, SVG Export Plug-In . SVG Version: 6.00 Build 0)  -->
<!DOCTYPE svg PUBLIC "-//W3C//DTD SVG 1.1//EN" "http://www.w3.org/Graphics/SVG/1.1/DTD/svg11.dtd">
<svg version="1.1" id="Layer_1" xmlns="http://www.w3.org/2000/svg" xmlns:xlink="http://www.w3.org/1999/xlink" x="0px" y="0px"
	 viewBox="0 0 646.9 244.7" style="enable-background:new 0 0 646.9 244.7;" xml:space="preserve">
<style type="text/css">
	.st0{fill:#010000;}
	.st1{fill:#FA0101;}
	.st2{fill:#080202;}
</style>
<g>
	<g>
		<path class="st0" d="M425,84.1c0,51.6,0,103.2,0.1,154.8c0,3.5-0.7,4.2-4.1,4.1c-64.8-0.1-129.5-0.1-194.3,0
			c-3.5,0-4.2-0.7-4.1-4.1c0.1-78.3,0.1-156.5,0-234.8c0-3.5,0.7-4.2,4.1-4.1c48.9,0.1,97.8,0.1,146.7,0.1c1.5,2.4,4.4,3.4,6,5.9
			c8.1,12.2,8.5,25.2,3.9,38.6c-2.2,2.4-2.6,4.7,0,7.1c0.1,1.3,0.2,2.7,0.3,4c-2.6,1-4,3.6-6.3,5.1c-0.3,0-0.6,0-0.9,0
			c-2.2-1-2.8-4.6-6.1-4.1c-1.6-2.3-1.2-4.9-1.1-7.3c0.1-2.7,0-6.1-0.9-7.6c-1.7-3-4.9,0.3-7.5,0.7c-4.6,0.7-8.5-1.8-10.6-6.3
			c-1.3-2.8-2.8-5.3-7.3-3.4c-6.5,2.7-8.5,0.5-7.1-6.8c0.1-0.6,0.4-1.3,0.7-1.8c1.8-2.4,0.1-2.5-1.6-2.4
			c-4.9,0.4-16.2,10.1-17.4,14.9c-1.9,7.5-0.4,14.4,3.3,21c1.7,3.2,2.5,6.6,1.3,10.2c-0.7,1.9-0.6,3.7-0.2,5.7
			c5.4-2.1,7.7-1.8,10.2,1.5c2.1,2.8,4.6,5.5,5.5,8.9c1,3.7,2.9,3.5,5.6,2.1c2.7-1.4,5.4-2.6,8-4.1c3.1-1.7,3.9-0.4,3.8,2.5
			c-0.6,10.1-3.4,19.4-10,27.3c-2.5,2.9-4.1,5.9-4.2,9.9c-0.1,3.8-1.2,7.1-4.9,9.8c-4.1,2.9-9.2,5-11.9,10c2.6,1.8,5.6,3.9,2.8,7.5
			c-2.4,3.1-5.4,1.9-8.6,0.5c-3.1-1.4-6-3.1-8.8-4.8c-11.8-6.8-22.5-14.6-25.4-29.2c-0.5-2.4-2.1-4.7-1.8-7.3c0.6-5.2-2.1-5.8-6-4.4
			c-6.6,2.3-12.5,2.1-16.7-4.5c-0.4-0.7-1.2-1.2-1.9-1.7c-2.9-1.8-6.3-2.6-9.5-2.8c-1.9-0.1-2.6,3.2-3,5.4c-0.1,0.5-0.9,1.4-1.4,1.3
			c-4.5-0.2-7.9,3.4-12.2,3.8c-1.8,0.1-5.2-1-5.2,1.1c0,2.9,3.4,1.5,5.4,1.8c1.2,0.2,2.5,0.4,3.5-0.1c4.3-2.2,7.8,1,11.7,1.4
			c1.7,0.2,2.8,2,2,3.4c-1.9,3.3-0.5,8.4-5.8,9.8c-2.3,0.6-2.8,2.9-2.1,5c0.7,1.8,0.5,3.4,0.2,5.3c-0.9,4.8-0.1,9.2,5.7,10.7
			c3.3,2.7,3.1-0.3,3.6-2.2c0.4-1.4,0.6-3.1,2.3-3.5c2-0.5,2.5,0.9,3.1,2.4c0.4,0.8,1.4,1.4,2.1,2c1.6,1.3,2.1,2.6,0.3,4.1
			c-3.6,2.8-2.7,5.9-0.8,9.2c0.7,1.1,1,2.9,2.8,1.5c1.2-0.9,2.3-2.2,0.6-3.7c-1-1-2-2.2-0.9-3.4c1.3-1.4,2.8-0.3,4.1,0.2
			c1.2,0.5,2.4,1,3.7,1.5c0.1,0.6,0.2,1.3,0.4,1.9c-1,1.3-0.8,2.3,0.7,3.1c0.1,1.9,0.2,3.8,0.3,5.7c0.2,3.6,2.8,4.7,5.8,5.4
			c0.6,1,1.8,2.5,2.6,1.9c4.1-3.1,5,1.1,6.8,2.9c3.6,3.5,5,3.4,7.5-1c1-1.8,2.1-2.9,4.1-3l0.2,0.1l-0.1-0.2c0-1.2,0.1-2.4,0.1-3.6
			c0.7-1.4,1.5-2.7,3.1-3.2c0.8,0.3,1,1,1.1,1.8c0.3,0.4,0.7,0.8,1,1.2l-0.1-0.1c0.3,0.4,0.7,0.7,1,1.1c1.7,1.9,3.5,3.9,5.2,5.8
			c3.7,4.1,7,9.5,13.4,8.1c5.4-1.2,11.3,0.8,16.2-2.7c5.6-4,13.5-4.8,17.2-11.7c0.1-0.1,0.3-0.1,0.5-0.2c0.5,0.5,0.9,0.4,1.2-0.1
			c0.8-0.2,1.5-0.4,2.3-0.7c0.6,0.5,1.1,1,1.7,1.5l0,0c1-0.7,1.7-1.6,2-2.9c1.9,0.5,3.7,1.1,5.6,1.5c2.6,0.6,5,0.7,5.7-2.7
			c0.7,0,1.3,0,2,0c1.2,1.1,1.9,2.4,1.8,4.1c-2,0-3.6,0.6-3.9,2.9c-2.7,0.8-5.7-0.9-8.2,1.2c-1.1,0.2-2.5-0.5-3.4,0.9
			c0.8,1.5,2.2,0.9,3.4,1.1c0.2,0.2,0.3,0.5,0.2,0.8c0.3,1.1,0.7,2.2,1,3.3c0,2.7,4.1,1.4,4,4.2c0,0.4,0.1,0.7,0.1,1.1
			c0.1,0.3,0,0.5-0.1,0.8c-0.5,0.4-0.9,0.9-1.4,1.3c0.2,0.2,0.4,0.3,0.6,0.5c0.3-0.4,0.6-0.8,0.9-1.1c0.6,0,1.2,0,1.7,0
			c0.7,1.8,1.3,3.5-0.6,4.9c-1,0.8-1.8,1.6-0.5,2.8c1.8,1.7,4.2,1.3,6.1,0.8c1.9-0.5,0.8-2.6,0.2-3.8c-1.3-2.5,0-4.9,0.1-7.3
			c1.3-0.3,2.1,0.5,3,1.1c0.7,2.3,1.3,4.6,4.1,1.7c1.4,0.1,2.9,0.4,2.9-1.8c2.2-0.7,3.6,0.5,5.1,2c2.9,3,7.5,2.7,9.2-0.2
			c1.4-3,4.5-5.7,1.8-9.6c-0.2-0.3-0.8-1.1,0-1.1c3.9-0.4,3.3-3.8,4-6.1c0.9-2.7,1.8-3.6,4.6-2.2c2.6,1.3,2.9,0.1,3-2.6
			c0.1-3.7-3.7-5-3.9-8.3c0.9-0.3,1.7-0.5,2.4,0.1c0.8,0.6,1.4,1.4,2.5,1.5c2.7,0.3,2.8-0.7,0.3-4.5c1.1-0.8,4.3-0.1,3.1-2.6
			c-1.2-2.7-0.7-5.5-1.4-8.1c-1.9-7-2.1-14.3-4-21.2c-0.7-2.5,1.9-4,1.3-6.7c-1.9-7.6-6-14-9.9-20.5c0.5-1.3-0.2-1.7-1.3-1.9
			c-0.7-0.2-1.6-0.2-1.4-1.4c0-0.1,0.1-0.2,0.1-0.4c-0.1,0.1-0.1,0.2-0.2,0.3c-1.4-1.3-2.9-2.7-4.3-4c-0.3-0.3-0.7-0.5-1-0.8
			c-1.3-0.5-1.9-1.5-2.1-2.8c0-0.5,0.1-1,0.1-1.5c-0.2-0.3-0.1-0.6,0.1-0.9c1.5-3.1,4.8-3.7,7.2-5.5c0.6,0.3,1.2,0.6,1.8,0.8
			c-1.5,3.1,0.6,4.6,2.7,6.1c1.4,0.9,3.4,1.3,4.3,2.5C415.4,87.2,420.1,85.9,425,84.1z M388.6,185.3L388.6,185.3L388.6,185.3z
			 M255.2,211.2c1.6-0.3,2.6-0.5,3.5-0.6c6.7-0.7,7.5-1.6,8.4-8.1c0.3-2.1-0.8-4.3,1-6.2c1.1-1.1-0.6-1.1-1.1-1.4
			c-3.9-2-8-0.2-9.1,4C257.1,202.9,256.2,206.7,255.2,211.2z M240.5,92.2c1.7,0.2,4.2-0.3,3.9-2.3c-0.3-2.4-3.4-2.1-5.4-2.6
			c-1.7-0.4-3.1,0.8-3,2.6C236.1,92.3,238.3,92.2,240.5,92.2z"/>
		<path class="st1" d="M383.3,44.6c4.6-13.5,4.3-26.4-3.9-38.6c-1.6-2.5-4.5-3.4-6-5.9c9.1,0,18.2,0,27.3,0
			c-1.1,1.8-1.3,3.6-0.5,6.1c1.6-2,3.7-3.3,3.5-6.1c1,0,2,0,3,0c0.5,4.1,3.7,6.6,5.9,9.6c4.2,5.5,7.3,11.8,12.3,16.7
			c0,17.2,0,34.4,0,51.6c-2.4-0.5-3.3,1.5-3.9,3c-1.6,3.8-3.2,2.8-5.3,0.5c-3.2-3.4-6.5-6.8-11-8.3c-0.6-0.3-1.2-0.6-1.8-0.8
			c-8.5-3.1-15.1-8.5-19.3-16.6c-0.1-1.3-0.2-2.7-0.3-4C383.3,49.3,383.3,47,383.3,44.6z"/>
		<path class="st2" d="M425,26.4c-5-4.9-8.1-11.2-12.3-16.7c-2.2-3-5.4-5.5-5.9-9.6c5.2,0,10.5,0.1,15.7-0.1
			c2.2-0.1,2.6,0.4,2.6,2.6C424.9,10.6,425,18.5,425,26.4z"/>
		<path class="st2" d="M404.7,73.2c4.6,1.6,7.9,4.9,11,8.3c2.1,2.3,3.7,3.3,5.3-0.5c0.6-1.4,1.5-3.5,3.9-3c0,2,0,4,0,6.1
			c-4.9,1.8-9.5,3.1-13.3-2.3c-0.8-1.2-2.9-1.6-4.3-2.5C405.4,77.8,403.2,76.3,404.7,73.2z"/>
		<path class="st2" d="M403.7,0.1c0.2,2.8-1.9,4.1-3.5,6.1c-0.8-2.5-0.6-4.4,0.5-6.1C401.7,0.1,402.7,0.1,403.7,0.1z"/>
		<path class="st1" d="M296.2,168.9c-2.1,0-3.1,1.2-4.1,3c-2.5,4.4-3.9,4.4-7.5,1c-1.8-1.8-2.7-6-6.8-2.9c-0.8,0.6-2-0.9-2.6-1.9
			c-0.1-3.8-2.3-5.2-5.8-5.4c-0.1-1.9-0.2-3.8-0.3-5.7c0.1-1.1,0.5-2.3-0.7-3.1c-0.1-0.6-0.2-1.3-0.4-1.9c0.4-1.5-0.8-2.5-1.3-3.6
			c-2.6-5.4-7.4-9.4-8.7-15.7c-0.7-3.6-3.5-6.4-7.6-7c-0.7-0.1-2-1.6-2.3,0.2c-0.2,1-1.6,1.9-0.4,3.2c4.8,5.2,1.7,10.1-0.8,14.9
			c-5.8-1.5-6.5-5.9-5.7-10.7c0.3-1.9,0.5-3.5-0.2-5.3c-0.8-2.1-0.2-4.4,2.1-5c5.3-1.4,4-6.5,5.8-9.8c0.8-1.4-0.2-3.3-2-3.4
			c-3.9-0.4-7.4-3.6-11.7-1.4c-0.9,0.5-2.3,0.3-3.5,0.1c-2-0.3-5.4,1.1-5.4-1.8c0-2.2,3.3-1,5.2-1.1c4.4-0.3,7.7-4,12.2-3.8
			c0.5,0,1.3-0.8,1.4-1.3c0.4-2.2,1-5.5,3-5.4c3.2,0.1,6.6,1,9.5,2.8c0.7,0.4,1.4,1,1.9,1.7c4.2,6.6,10.1,6.8,16.7,4.5
			c4-1.4,6.6-0.8,6,4.4c-0.3,2.6,1.3,4.8,1.8,7.3c2.9,14.6,13.5,22.4,25.4,29.2c2.9,1.7,5.8,3.4,8.8,4.8c3.2,1.4,6.2,2.7,8.6-0.5
			c2.8-3.6-0.3-5.7-2.8-7.5c2.7-5,7.7-7.1,11.9-10c3.8-2.6,4.8-5.9,4.9-9.8c0.1-4,1.8-7,4.2-9.9c6.7-7.9,9.4-17.2,10-27.3
			c0.2-2.9-0.7-4.2-3.8-2.5c-2.6,1.4-5.4,2.7-8,4.1c-2.7,1.4-4.6,1.6-5.6-2.1c-0.9-3.4-3.4-6.1-5.5-8.9c-2.5-3.3-4.8-3.6-10.2-1.5
			c-0.3-2-0.4-3.8,0.2-5.7c1.2-3.6,0.4-7-1.3-10.2c-3.6-6.6-5.2-13.6-3.3-21c1.2-4.8,12.6-14.4,17.4-14.9c1.7-0.1,3.4,0,1.6,2.4
			c-0.4,0.5-0.6,1.2-0.7,1.8c-1.4,7.3,0.6,9.5,7.1,6.8c4.5-1.9,6,0.6,7.3,3.4c2.1,4.6,6,7.1,10.6,6.3c2.6-0.4,5.8-3.7,7.5-0.7
			c0.9,1.5,1,5,0.9,7.6c-0.1,2.5-0.6,5.1,1.1,7.3c0.3,1.1,0.5,2.2,0.8,3.3c0.5,1.8-0.9,4.8,1.2,5.2c2.1,0.4,2.7-2.9,4.1-4.4
			c0.3,0,0.6,0,0.9,0c0.7,0.4,1.4,0.9,2.1,1.1c3.5,1.3,4.9,2.7,1,5.4c-2.2,1.5-4,3.6-5.9,5.5c3.1,1.1,5.5,0.9,8,1.1
			c4.6,0.5,9.2,1,13.1,3.8c-0.2,0.3-0.3,0.6-0.1,0.9c-0.9,0.4-1.1,0.9-0.1,1.5c0.2,1.3,0.8,2.3,2.1,2.8c0.3,0.3,0.7,0.5,1,0.8
			c1.4,1.3,2.9,2.7,4.3,4l0.1,0.1c-0.3,1.2,0.6,1.2,1.4,1.4c0.2,0.8,0.4,1.6,1.3,1.9c3.8,6.6,8,13,9.9,20.5c0.6,2.7-2,4.2-1.3,6.7
			c1.9,7,2.1,14.2,4,21.2c0.7,2.6,0.1,5.3,1.4,8.1c1.1,2.5-2,1.7-3.1,2.6c2.5,3.8,2.4,4.8-0.3,4.5c-1.1-0.1-1.7-0.9-2.5-1.5
			c-0.8-0.6-1.5-0.4-2.4-0.1c0.1,3.3,4,4.6,3.9,8.3c-0.1,2.7-0.3,4-3,2.6c-2.8-1.4-3.7-0.5-4.6,2.2c-0.8,2.3-0.1,5.7-4,6.1
			c-0.9,0.1-0.2,0.9,0,1.1c2.7,3.8-0.4,6.5-1.8,9.6c-2.4,0.4-4.4-0.1-6.6-1.5c-4.5-2.9-9.1-5.6-13.9-7.9c-2.1-1-4.8-3-7.4-0.1
			c4.2,3.3,10.5,2.9,13.7,7.7c0.1,2.2-1.4,2-2.9,1.8c-1.1-1.3-2.8-1-4.1-1.7c-0.9-0.6-1.8-1.4-3-1.1c-2.1,0.2-4.1,0.5-5.2,2.6
			c-0.6,0-1.2,0-1.7,0c0.1-0.3,0-0.5-0.2-0.7c0.1-0.2,0.2-0.5,0.1-0.8c0.2-0.3,0.4-0.6,0.6-0.8c-0.2-0.1-0.5-0.1-0.7-0.2
			c0.2-2.8-4-1.5-4-4.2c1.7-1.7,0-2.4-1-3.3c0.1-0.3,0-0.5-0.2-0.8c0-0.7,0-1.4,0.1-2c2.5-2,5.5-0.4,8.2-1.2
			c1.5,0.1,2.9,1.9,4.4,0.1c1-1.2,0-2.1-0.5-3c0-1.6-0.6-3-1.8-4.1c0.5-2.2,3.7-2.8,3.4-6.6c-2.7,3-4.9,0.2-7.3,0.5
			c-1.7,0.2-2.9,0.8-3.1,2.6c-0.2,2.4,1.2,2.1,2.8,1.7c1.1-0.2,1.6,1,2.3,1.7c-0.7,3.5-3.1,3.3-5.7,2.7c-1.9-0.4-3.7-1-5.6-1.5
			c-1.5-0.3-2.6,0.7-3.8,1.4c-0.8,0.2-1.5,0.4-2.3,0.7c-0.4,0-0.8,0.1-1.2,0.1c-0.2,0.1-0.4,0.1-0.5,0.2
			c-3.7,6.9-11.5,7.7-17.2,11.7c-4.9,3.5-10.8,1.5-16.2,2.7c-6.3,1.4-9.7-4-13.4-8.1c-1.7-1.9-3.5-3.9-5.2-5.8
			c-0.3-0.4-0.7-0.7-1-1.1l0.1,0.1c-0.3-0.4-0.7-0.8-1-1.2c-0.1-0.8-0.3-1.5-1.1-1.8c1.9-2.9,4.5,1.7,6.6-0.8
			c-5.3-3.7-8.5-10.3-14.5-12.2c-5.3-1.7-7.1-5-9.2-8.9c-1.6-2.9-4.2-5.3-2.3-9.2c0.3-0.7-0.1-2-0.7-2.8
			c-3.6-5.6-7.1-11.4-13.2-14.9c-2.3-1.3-4.7-2.5-7.5-1c-1.3,0.7-2.3,1.7-0.8,2.4c3.1,1.5,3.8,5.2,6.3,6.8
			c7.8,5.1,10.7,13.9,16.1,20.8c4.3,5.4,6.6,12,11.5,17l0-0.1c0.2,2.9,3.4,3.7,4.4,6C296.3,166.4,296.3,167.6,296.2,168.9
			L296.2,168.9z"/>
		<path class="st2" d="M296.4,165.2c-1-2.3-4.2-3.1-4.4-6c1.2,0.2,2.2,2.1,3.4,0.7c0.7-0.8-0.2-1.9-0.9-2.4c-2-1.3-1.9,0.8-2.5,1.8
			c-4.8-5-7.2-11.6-11.5-17c-5.5-6.8-8.3-15.6-16.1-20.8c-2.4-1.6-3.2-5.3-6.3-6.8c-1.5-0.7-0.6-1.7,0.8-2.4c2.8-1.5,5.2-0.3,7.5,1
			c6.1,3.4,9.5,9.3,13.2,14.9c0.5,0.8,1,2.2,0.7,2.8c-1.9,3.8,0.7,6.3,2.3,9.2c2.1,3.9,3.9,7.3,9.2,8.9c5.9,1.9,9.2,8.5,14.5,12.2
			c-2.1,2.5-4.7-2.2-6.6,0.8C297.9,162.5,297.1,163.8,296.4,165.2z"/>
		<path class="st2" d="M395.7,77.9c-3.9-2.9-8.5-3.4-13.1-3.8c-2.4-0.3-4.9,0-8-1.1c2-1.9,3.7-4,5.9-5.5c3.9-2.8,2.5-4.2-1-5.4
			c-0.7-0.3-1.4-0.7-2.1-1.1c2.2-1.5,3.6-4.1,6.3-5.1c4.2,8.1,10.8,13.5,19.3,16.6C400.5,74.2,397.2,74.8,395.7,77.9z"/>
		<path class="st2" d="M246.9,143.9c2.5-4.9,5.6-9.7,0.8-14.9c-1.2-1.3,0.2-2.2,0.4-3.2c0.4-1.8,1.6-0.3,2.3-0.2
			c4.1,0.6,6.9,3.4,7.6,7c1.3,6.3,6.1,10.3,8.7,15.7c0.6,1.2,1.7,2.1,1.3,3.6c-1.2-0.5-2.5-1-3.7-1.5c-1.4-0.6-2.9-1.7-4.1-0.2
			c-1.2,1.3-0.1,2.5,0.9,3.4c1.6,1.6,0.6,2.8-0.6,3.7c-1.8,1.3-2.1-0.4-2.8-1.5c-1.9-3.3-2.8-6.4,0.8-9.2c1.9-1.4,1.3-2.8-0.3-4.1
			c-0.8-0.6-1.8-1.2-2.1-2c-0.7-1.5-1.2-2.9-3.1-2.4c-1.8,0.5-2,2.1-2.3,3.5C250,143.6,250.2,146.5,246.9,143.9z M252.2,128.6
			c-0.2,3.9,1.9,5.9,5,8.2C256.5,133,254.7,130.8,252.2,128.6z"/>
		<path class="st1" d="M255.2,211.2c1-4.5,1.9-8.4,2.9-12.3c1.1-4.2,5.1-6,9.1-4c0.4,0.2,2.1,0.3,1.1,1.4c-1.9,1.9-0.7,4.1-1,6.2
			c-0.9,6.5-1.8,7.4-8.4,8.1C257.8,210.7,256.8,211,255.2,211.2z"/>
		<path class="st2" d="M387.4,181.3c-3.2-4.8-9.5-4.4-13.7-7.7c2.6-2.9,5.3-1,7.4,0.1c4.8,2.3,9.5,5,13.9,7.9
			c2.2,1.4,4.2,1.9,6.6,1.5c-1.7,2.9-6.3,3.2-9.2,0.2C391,181.7,389.6,180.6,387.4,181.3z"/>
		<path class="st2" d="M372.2,183c1.1-2.1,3.1-2.5,5.2-2.6c-0.2,2.4-1.4,4.8-0.1,7.3c0.7,1.3,1.7,3.3-0.2,3.8
			c-1.8,0.5-4.3,0.9-6.1-0.8c-1.3-1.2-0.5-2,0.5-2.8C373.5,186.5,373,184.7,372.2,183z"/>
		<path class="st2" d="M373.5,162c-0.6-0.7-1.2-2-2.3-1.7c-1.7,0.3-3.1,0.7-2.8-1.7c0.2-1.8,1.5-2.4,3.1-2.6
			c2.4-0.3,4.6,2.5,7.3-0.5c0.3,3.8-2.9,4.4-3.4,6.6C374.8,162,374.2,162,373.5,162z"/>
		<path class="st1" d="M240.5,92.2c-2.2,0-4.3,0.1-4.5-2.4c-0.2-1.8,1.3-2.9,3-2.6c2,0.5,5.1,0.2,5.4,2.6
			C244.6,91.9,242.2,92.4,240.5,92.2z"/>
		<path class="st2" d="M376.5,60.9c-1.4,1.5-2,4.7-4.1,4.4c-2.1-0.4-0.7-3.4-1.2-5.2c-0.3-1.1-0.5-2.2-0.8-3.3
			C373.7,56.3,374.3,59.8,376.5,60.9z"/>
		<path class="st2" d="M269.3,162.7c3.5,0.2,5.7,1.6,5.8,5.4C272.1,167.4,269.5,166.3,269.3,162.7z"/>
		<path class="st2" d="M377.3,166c0.5,0.9,1.6,1.8,0.5,3c-1.5,1.7-3-0.1-4.4-0.1C373.7,166.6,375.3,166.1,377.3,166z"/>
		<path class="st2" d="M383.3,44.6c0,2.4,0,4.7,0,7.1C380.8,49.4,381.1,47,383.3,44.6z"/>
		<path class="st2" d="M380.5,181.5c1.3,0.7,3,0.4,4.1,1.7C381.8,186.1,381.1,183.7,380.5,181.5z"/>
		<path class="st2" d="M365.2,170.1c0,0.7,0,1.4-0.1,2c-1.2-0.2-2.6,0.3-3.4-1.1C362.7,169.6,364.1,170.3,365.2,170.1z"/>
		<path class="st2" d="M268.3,153.8c1.2,0.8,0.8,2,0.7,3.1C267.5,156.2,267.3,155.1,268.3,153.8z"/>
		<path class="st2" d="M370.3,182.2c0.2,0.2,0.3,0.4,0.2,0.7c-0.3,0.4-0.6,0.8-0.9,1.1c-0.2-0.2-0.4-0.3-0.6-0.5
			C369.4,183.1,369.9,182.7,370.3,182.2z"/>
		<path class="st2" d="M358.5,164.6c1.2-0.7,2.2-1.7,3.8-1.4c-0.3,1.2-1,2.2-2,2.9l0,0C359.6,165.6,359.1,165.1,358.5,164.6z"/>
		<path class="st2" d="M365.4,172.9c1,0.9,2.7,1.6,1,3.3C366.1,175.1,365.7,174,365.4,172.9z"/>
		<path class="st2" d="M405.7,91.2c-0.9-0.3-1.1-1.1-1.3-1.9C405.5,89.5,406.3,89.9,405.7,91.2z"/>
		<path class="st2" d="M355,165.4c0.4,0,0.8-0.1,1.2-0.1C355.8,165.8,355.4,165.9,355,165.4z"/>
		<path class="st2" d="M388.6,185.3L388.6,185.3L388.6,185.3z"/>
		<path class="st2" d="M370.3,180.4c0.2,0.1,0.5,0.1,0.7,0.2c-0.2,0.3-0.4,0.6-0.6,0.8C370.4,181.1,370.4,180.8,370.3,180.4z"/>
		<path class="st2" d="M388.6,185.3L388.6,185.3L388.6,185.3z"/>
		<polygon class="st2" points="296.3,168.8 296.4,169 296.2,168.9 		"/>
		<path class="st2" d="M360.2,166.1L360.2,166.1L360.2,166.1z"/>
		<path class="st2" d="M301.6,165c0.3,0.4,0.7,0.7,1,1.1C302.2,165.7,301.9,165.3,301.6,165z"/>
		<path class="st2" d="M300.6,163.8c0.3,0.4,0.7,0.8,1,1.2C301.3,164.6,300.9,164.2,300.6,163.8z"/>
		<path class="st2" d="M403,87.8c0.1-0.1,0.1-0.2,0.2-0.3C403.2,87.7,403.1,87.8,403,87.8C403.1,87.9,403,87.8,403,87.8z"/>
		<path class="st2" d="M398.7,83.9c-0.3-0.3-0.7-0.5-1-0.8C398,83.3,398.3,83.6,398.7,83.9z"/>
		<path class="st2" d="M395.6,80.3c-1-0.6-0.8-1,0.1-1.5C395.6,79.3,395.6,79.8,395.6,80.3z"/>
		<path class="st0" d="M292,159.3c0.6-0.9,0.5-3,2.5-1.8c0.8,0.5,1.7,1.6,0.9,2.4C294.2,161.3,293.2,159.4,292,159.3
			C292,159.2,292,159.3,292,159.3z"/>
		<path class="st1" d="M252.2,128.6c2.5,2.2,4.3,4.4,5,8.2C254,134.5,252,132.5,252.2,128.6z"/>
	</g>
	<g>
		<path class="st0" d="M202.5,85.7c0,51.6,0,103.2,0.1,154.8c0,3.5-0.7,4.2-4.1,4.1c-64.8-0.1-129.5-0.1-194.3,0
			c-3.5,0-4.2-0.7-4.1-4.1C0.1,162.3,0.1,84,0,5.8c0-3.5,0.7-4.2,4.1-4.1C53.1,1.8,102,1.7,150.9,1.7c1.5,2.4,4.4,3.4,6,5.9
			c8.1,12.2,8.5,25.2,3.9,38.6c-2.2,2.4-2.6,4.7,0,7.1c0.1,1.3,0.2,2.7,0.3,4c-2.6,1-4,3.6-6.3,5.1c-0.3,0-0.6,0-0.9,0
			c-2.2-1-2.8-4.6-6.1-4.1c-1.6-2.3-1.2-4.9-1.1-7.3c0.1-2.7,0-6.1-0.9-7.6c-1.7-3-4.9,0.3-7.5,0.7c-4.6,0.7-8.5-1.8-10.6-6.3
			c-1.3-2.8-2.8-5.3-7.3-3.4c-6.5,2.7-8.5,0.5-7.1-6.8c0.1-0.6,0.4-1.3,0.7-1.8c1.8-2.4,0.1-2.5-1.6-2.4
			c-4.9,0.4-16.2,10.1-17.4,14.9c-1.9,7.5-0.4,14.4,3.3,21c1.7,3.2,2.5,6.6,1.3,10.2c-0.7,1.9-0.6,3.7-0.2,5.7
			c5.4-2.1,7.7-1.8,10.2,1.5c2.1,2.8,4.6,5.5,5.5,8.9c1,3.7,2.9,3.5,5.6,2.1c2.7-1.4,5.4-2.6,8-4.1c3.1-1.7,3.9-0.4,3.8,2.5
			c-0.6,10.1-3.4,19.4-10,27.3c-2.5,2.9-4.1,5.9-4.2,9.9c-0.1,3.8-1.2,7.1-4.9,9.8c-4.1,2.9-9.2,5-11.9,10c2.6,1.8,5.6,3.9,2.8,7.5
			c-2.4,3.1-5.4,1.9-8.6,0.5c-3.1-1.4-6-3.1-8.8-4.8c-11.8-6.8-22.5-14.6-25.4-29.2c-0.5-2.4-2.1-4.7-1.8-7.3c0.6-5.2-2.1-5.8-6-4.4
			c-6.6,2.3-12.5,2.1-16.7-4.5c-0.4-0.7-1.2-1.2-1.9-1.7c-2.9-1.8-6.3-2.6-9.5-2.8c-1.9-0.1-2.6,3.2-3,5.4c-0.1,0.5-0.9,1.4-1.4,1.3
			c-4.5-0.2-7.9,3.4-12.2,3.8c-1.8,0.1-5.2-1-5.2,1.1c0,2.9,3.4,1.5,5.4,1.8c1.2,0.2,2.5,0.4,3.5-0.1c4.3-2.2,7.8,1,11.7,1.4
			c1.7,0.2,2.8,2,2,3.4c-1.9,3.3-0.5,8.4-5.8,9.8c-2.3,0.6-2.8,2.9-2.1,5c0.7,1.8,0.5,3.4,0.2,5.3c-0.9,4.8-0.1,9.2,5.7,10.7
			c3.3,2.7,3.1-0.3,3.6-2.2c0.4-1.4,0.6-3.1,2.3-3.5c2-0.5,2.5,0.9,3.1,2.4c0.4,0.8,1.4,1.4,2.1,2c1.6,1.3,2.1,2.6,0.3,4.1
			c-3.6,2.8-2.7,5.9-0.8,9.2c0.7,1.1,1,2.9,2.8,1.5c1.2-0.9,2.3-2.2,0.6-3.7c-1-1-2-2.2-0.9-3.4c1.3-1.4,2.8-0.3,4.1,0.2
			c1.2,0.5,2.4,1,3.7,1.5c0.1,0.6,0.2,1.3,0.4,1.9c-1,1.3-0.8,2.3,0.7,3.1c0.1,1.9,0.2,3.8,0.3,5.7c0.2,3.6,2.8,4.7,5.8,5.4
			c0.6,1,1.8,2.5,2.6,1.9c4.1-3.1,5,1.1,6.8,2.9c3.6,3.5,5,3.4,7.5-1c1-1.8,2.1-2.9,4.1-3l0.2,0.1l-0.1-0.2c0-1.2,0.1-2.4,0.1-3.6
			c0.7-1.4,1.5-2.7,3.1-3.2c0.8,0.3,1,1,1.1,1.8c0.3,0.4,0.7,0.8,1,1.2l-0.1-0.1c0.3,0.4,0.7,0.7,1,1.1c1.7,1.9,3.5,3.9,5.2,5.8
			c3.7,4.1,7,9.5,13.4,8.1c5.4-1.2,11.3,0.8,16.2-2.7c5.6-4,13.5-4.8,17.2-11.7c0.1-0.1,0.3-0.1,0.5-0.2c0.5,0.5,0.9,0.4,1.2-0.1
			c0.8-0.2,1.5-0.4,2.3-0.7c0.6,0.5,1.1,1,1.7,1.5l0,0c1-0.7,1.7-1.6,2-2.9c1.9,0.5,3.7,1.1,5.6,1.5c2.6,0.6,5,0.7,5.7-2.7
			c0.7,0,1.3,0,2,0c1.2,1.1,1.9,2.4,1.8,4.1c-2,0-3.6,0.6-3.9,2.9c-2.7,0.8-5.7-0.9-8.2,1.2c-1.1,0.2-2.5-0.5-3.4,0.9
			c0.8,1.5,2.2,0.9,3.4,1.1c0.2,0.2,0.3,0.5,0.2,0.8c0.3,1.1,0.7,2.2,1,3.3c0,2.7,4.1,1.4,4,4.2c0,0.4,0.1,0.7,0.1,1.1
			c0.1,0.3,0,0.5-0.1,0.8c-0.5,0.4-0.9,0.9-1.4,1.3c0.2,0.2,0.4,0.3,0.6,0.5c0.3-0.4,0.6-0.8,0.9-1.1c0.6,0,1.2,0,1.7,0
			c0.7,1.8,1.3,3.5-0.6,4.9c-1,0.8-1.8,1.6-0.5,2.8c1.8,1.7,4.2,1.3,6.1,0.8c1.9-0.5,0.8-2.6,0.2-3.8c-1.3-2.5,0-4.9,0.1-7.3
			c1.3-0.3,2.1,0.5,3,1.1c0.7,2.3,1.3,4.6,4.1,1.7c1.4,0.1,2.9,0.4,2.9-1.8c2.2-0.7,3.6,0.5,5.1,2c2.9,3,7.5,2.7,9.2-0.2
			c1.4-3,4.5-5.7,1.8-9.6c-0.2-0.3-0.8-1.1,0-1.1c3.9-0.4,3.3-3.8,4-6.1c0.9-2.7,1.8-3.6,4.6-2.2c2.6,1.3,2.9,0.1,3-2.6
			c0.1-3.7-3.7-5-3.9-8.3c0.9-0.3,1.7-0.5,2.4,0.1c0.8,0.6,1.4,1.4,2.5,1.5c2.7,0.3,2.8-0.7,0.3-4.5c1.1-0.8,4.3-0.1,3.1-2.6
			c-1.2-2.7-0.7-5.5-1.4-8.1c-1.9-7-2.1-14.3-4-21.2c-0.7-2.5,1.9-4,1.3-6.7c-1.9-7.6-6-14-9.9-20.5c0.5-1.3-0.2-1.7-1.3-1.9
			c-0.7-0.2-1.6-0.2-1.4-1.4c0-0.1,0.1-0.2,0.1-0.4c-0.1,0.1-0.1,0.2-0.2,0.3c-1.4-1.3-2.9-2.7-4.3-4c-0.3-0.3-0.7-0.5-1-0.8
			c-1.3-0.5-1.9-1.5-2.1-2.8c0-0.5,0.1-1,0.1-1.5c-0.2-0.3-0.1-0.6,0.1-0.9c1.5-3.1,4.8-3.7,7.2-5.5c0.6,0.3,1.2,0.6,1.8,0.8
			c-1.5,3.1,0.6,4.6,2.7,6.1c1.4,0.9,3.4,1.3,4.3,2.5C192.9,88.8,197.6,87.5,202.5,85.7z M166.1,186.9L166.1,186.9L166.1,186.9z
			 M32.7,212.9c1.6-0.3,2.6-0.5,3.5-0.6c6.7-0.7,7.5-1.6,8.4-8.1c0.3-2.1-0.8-4.3,1-6.2c1.1-1.1-0.6-1.1-1.1-1.4c-3.9-2-8-0.2-9.1,4
			C34.6,204.5,33.7,208.4,32.7,212.9z M17.9,93.8c1.7,0.2,4.2-0.3,3.9-2.3c-0.3-2.4-3.4-2.1-5.4-2.6c-1.7-0.4-3.1,0.8-3,2.6
			C13.6,94,15.8,93.8,17.9,93.8z"/>
		<path class="st2" d="M202.5,28c-5-4.9-8.1-11.2-12.3-16.7c-2.2-3-5.4-5.5-5.9-9.6c5.2,0,10.5,0.1,15.7-0.1
			c2.2-0.1,2.6,0.4,2.6,2.6C202.4,12.2,202.5,20.1,202.5,28z"/>
		<path class="st2" d="M182.2,74.8c4.6,1.6,7.9,4.9,11,8.3c2.1,2.3,3.7,3.3,5.3-0.5c0.6-1.4,1.5-3.5,3.9-3c0,2,0,4,0,6.1
			c-4.9,1.8-9.5,3.1-13.3-2.3c-0.8-1.2-2.9-1.6-4.3-2.5C182.8,79.4,180.7,77.9,182.2,74.8z"/>
		<path class="st2" d="M181.2,1.7c0.2,2.8-1.9,4.1-3.5,6.1c-0.8-2.5-0.6-4.4,0.5-6.1C179.2,1.7,180.2,1.7,181.2,1.7z"/>
		<path class="st2" d="M73.9,166.9c-1-2.3-4.2-3.1-4.4-6c1.2,0.2,2.2,2.1,3.4,0.7c0.7-0.8-0.2-1.9-0.9-2.4c-2-1.3-1.9,0.8-2.5,1.8
			c-4.8-5-7.2-11.6-11.5-17c-5.5-6.8-8.3-15.6-16.1-20.8c-2.4-1.6-3.2-5.3-6.3-6.8c-1.5-0.7-0.6-1.7,0.8-2.4c2.8-1.5,5.2-0.3,7.5,1
			c6.1,3.4,9.5,9.3,13.2,14.9c0.5,0.8,1,2.2,0.7,2.8c-1.9,3.8,0.7,6.3,2.3,9.2c2.1,3.9,3.9,7.3,9.2,8.9c5.9,1.9,9.2,8.5,14.5,12.2
			c-2.1,2.5-4.7-2.2-6.6,0.8C75.4,164.2,74.6,165.4,73.9,166.9z"/>
		<path class="st2" d="M173.2,79.5c-3.9-2.9-8.5-3.4-13.1-3.8c-2.4-0.3-4.9,0-8-1.1c2-1.9,3.7-4,5.9-5.5c3.9-2.8,2.5-4.2-1-5.4
			c-0.7-0.3-1.4-0.7-2.1-1.1c2.2-1.5,3.6-4.1,6.3-5.1c4.2,8.1,10.8,13.5,19.3,16.6C178,75.8,174.7,76.4,173.2,79.5z"/>
		<path class="st2" d="M24.4,145.5c2.5-4.9,5.6-9.7,0.8-14.9c-1.2-1.3,0.2-2.2,0.4-3.2c0.4-1.8,1.6-0.3,2.3-0.2
			c4.1,0.6,6.9,3.4,7.6,7c1.3,6.3,6.1,10.3,8.7,15.7c0.6,1.2,1.7,2.1,1.3,3.6c-1.2-0.5-2.5-1-3.7-1.5c-1.4-0.6-2.9-1.7-4.1-0.2
			c-1.2,1.3-0.1,2.5,0.9,3.4c1.6,1.6,0.6,2.8-0.6,3.7c-1.8,1.3-2.1-0.4-2.8-1.5c-1.9-3.3-2.8-6.4,0.8-9.2c1.9-1.4,1.3-2.8-0.3-4.1
			c-0.8-0.6-1.8-1.2-2.1-2c-0.7-1.5-1.2-2.9-3.1-2.4c-1.8,0.5-2,2.1-2.3,3.5C27.5,145.2,27.7,148.2,24.4,145.5z M29.6,130.2
			c-0.2,3.9,1.9,5.9,5,8.2C34,134.6,32.2,132.5,29.6,130.2z"/>
		<path class="st2" d="M164.9,182.9c-3.2-4.8-9.5-4.4-13.7-7.7c2.6-2.9,5.3-1,7.4,0.1c4.8,2.3,9.5,5,13.9,7.9
			c2.2,1.4,4.2,1.9,6.6,1.5c-1.7,2.9-6.3,3.2-9.2,0.2C168.5,183.4,167.1,182.2,164.9,182.9z"/>
		<path class="st2" d="M149.7,184.6c1.1-2.1,3.1-2.5,5.2-2.6c-0.2,2.4-1.4,4.8-0.1,7.3c0.7,1.3,1.7,3.3-0.2,3.8
			c-1.8,0.5-4.3,0.9-6.1-0.8c-1.3-1.2-0.5-2,0.5-2.8C151,188.1,150.5,186.4,149.7,184.6z"/>
		<path class="st2" d="M151,163.6c-0.6-0.7-1.2-2-2.3-1.7c-1.7,0.3-3.1,0.7-2.8-1.7c0.2-1.8,1.5-2.4,3.1-2.6
			c2.4-0.3,4.6,2.5,7.3-0.5c0.3,3.8-2.9,4.4-3.4,6.6C152.3,163.6,151.7,163.6,151,163.6z"/>
		<path class="st2" d="M154,62.5c-1.4,1.5-2,4.7-4.1,4.4c-2.1-0.4-0.7-3.4-1.2-5.2c-0.3-1.1-0.5-2.2-0.8-3.3
			C151.2,57.9,151.8,61.4,154,62.5z"/>
		<path class="st2" d="M46.8,164.3c3.5,0.2,5.7,1.6,5.8,5.4C49.6,169,47,167.9,46.8,164.3z"/>
		<path class="st2" d="M154.8,167.7c0.5,0.9,1.6,1.8,0.5,3c-1.5,1.7-3-0.1-4.4-0.1C151.2,168.2,152.8,167.7,154.8,167.7z"/>
		<path class="st2" d="M160.8,46.2c0,2.4,0,4.7,0,7.1C158.2,51,158.6,48.6,160.8,46.2z"/>
		<path class="st2" d="M157.9,183.1c1.3,0.7,3,0.4,4.1,1.7C159.3,187.7,158.6,185.4,157.9,183.1z"/>
		<path class="st2" d="M142.7,171.7c0,0.7,0,1.4-0.1,2c-1.2-0.2-2.6,0.3-3.4-1.1C140.2,171.2,141.6,171.9,142.7,171.7z"/>
		<path class="st2" d="M45.8,155.5c1.2,0.8,0.8,2,0.7,3.1C45,157.8,44.8,156.8,45.8,155.5z"/>
		<path class="st2" d="M147.8,183.9c0.2,0.2,0.3,0.4,0.2,0.7c-0.3,0.4-0.6,0.8-0.9,1.1c-0.2-0.2-0.4-0.3-0.6-0.5
			C146.9,184.8,147.4,184.3,147.8,183.9z"/>
		<path class="st2" d="M136,166.2c1.2-0.7,2.2-1.7,3.8-1.4c-0.3,1.2-1,2.2-2,2.9l0,0C137.1,167.2,136.6,166.7,136,166.2z"/>
		<path class="st2" d="M142.9,174.5c1,0.9,2.7,1.6,1,3.3C143.5,176.7,143.2,175.6,142.9,174.5z"/>
		<path class="st2" d="M183.2,92.8c-0.9-0.3-1.1-1.1-1.3-1.9C183,91.1,183.8,91.5,183.2,92.8z"/>
		<path class="st2" d="M132.5,167c0.4,0,0.8-0.1,1.2-0.1C133.3,167.4,132.9,167.5,132.5,167z"/>
		<path class="st2" d="M166.1,186.9L166.1,186.9L166.1,186.9z"/>
		<path class="st2" d="M147.8,182c0.2,0.1,0.5,0.1,0.7,0.2c-0.2,0.3-0.4,0.6-0.6,0.8C147.9,182.7,147.9,182.4,147.8,182z"/>
		<path class="st2" d="M166.1,186.9L166.1,186.9L166.1,186.9z"/>
		<polygon class="st2" points="73.8,170.4 73.9,170.6 73.7,170.5 		"/>
		<path class="st2" d="M137.7,167.7L137.7,167.7L137.7,167.7z"/>
		<path class="st2" d="M79.1,166.6c0.3,0.4,0.7,0.7,1,1.1C79.7,167.3,79.4,167,79.1,166.6z"/>
		<path class="st2" d="M78.1,165.5c0.3,0.4,0.7,0.8,1,1.2C78.8,166.3,78.4,165.9,78.1,165.5z"/>
		<path class="st2" d="M180.5,89.5c0.1-0.1,0.1-0.2,0.2-0.3C180.7,89.3,180.6,89.4,180.5,89.5C180.6,89.5,180.5,89.5,180.5,89.5z"/>
		<path class="st2" d="M176.2,85.5c-0.3-0.3-0.7-0.5-1-0.8C175.5,85,175.8,85.2,176.2,85.5z"/>
		<path class="st2" d="M173,81.9c-1-0.6-0.8-1,0.1-1.5C173.1,80.9,173.1,81.4,173,81.9z"/>
		<path class="st0" d="M69.5,160.9c0.6-0.9,0.5-3,2.5-1.8c0.8,0.5,1.7,1.6,0.9,2.4C71.7,162.9,70.7,161,69.5,160.9
			C69.5,160.8,69.5,160.9,69.5,160.9z"/>
	</g>
	<g>
		<path class="st1" d="M605.2,44.6c4.6-13.5,4.3-26.4-3.9-38.6c-1.6-2.5-4.5-3.4-6-5.9c9.1,0,18.2,0,27.3,0
			c-1.1,1.8-1.3,3.6-0.5,6.1c1.6-2,3.7-3.3,3.5-6.1c1,0,2,0,3,0c0.5,4.1,3.7,6.6,5.9,9.6c4.2,5.5,7.3,11.8,12.3,16.7
			c0,17.2,0,34.4,0,51.6c-2.4-0.5-3.3,1.5-3.9,3c-1.6,3.8-3.2,2.8-5.3,0.5c-3.2-3.4-6.5-6.8-11-8.3c-0.6-0.3-1.2-0.6-1.8-0.8
			c-8.5-3.1-15.1-8.5-19.3-16.6c-0.1-1.3-0.2-2.7-0.3-4C605.2,49.3,605.2,47,605.2,44.6z"/>
		<path class="st1" d="M518.1,168.9c-2.1,0-3.1,1.2-4.1,3c-2.5,4.4-3.9,4.4-7.5,1c-1.8-1.8-2.7-6-6.8-2.9c-0.8,0.6-2-0.9-2.6-1.9
			c-0.1-3.8-2.3-5.2-5.8-5.4c-0.1-1.9-0.2-3.8-0.3-5.7c0.1-1.1,0.5-2.3-0.7-3.1c-0.1-0.6-0.2-1.3-0.4-1.9c0.4-1.5-0.8-2.5-1.3-3.6
			c-2.6-5.4-7.4-9.4-8.7-15.7c-0.7-3.6-3.5-6.4-7.6-7c-0.7-0.1-2-1.6-2.3,0.2c-0.2,1-1.6,1.9-0.4,3.2c4.8,5.2,1.7,10.1-0.8,14.9
			c-5.8-1.5-6.5-5.9-5.7-10.7c0.3-1.9,0.5-3.5-0.2-5.3c-0.8-2.1-0.2-4.4,2.1-5c5.3-1.4,4-6.5,5.8-9.8c0.8-1.4-0.2-3.3-2-3.4
			c-3.9-0.4-7.4-3.6-11.7-1.4c-0.9,0.5-2.3,0.3-3.5,0.1c-2-0.3-5.4,1.1-5.4-1.8c0-2.2,3.3-1,5.2-1.1c4.4-0.3,7.7-4,12.2-3.8
			c0.5,0,1.3-0.8,1.4-1.3c0.4-2.2,1-5.5,3-5.4c3.2,0.1,6.6,1,9.5,2.8c0.7,0.4,1.4,1,1.9,1.7c4.2,6.6,10.1,6.8,16.7,4.5
			c4-1.4,6.6-0.8,6,4.4c-0.3,2.6,1.3,4.8,1.8,7.3c2.9,14.6,13.5,22.4,25.4,29.2c2.9,1.7,5.8,3.4,8.8,4.8c3.2,1.4,6.2,2.7,8.6-0.5
			c2.8-3.6-0.3-5.7-2.8-7.5c2.7-5,7.7-7.1,11.9-10c3.8-2.6,4.8-5.9,4.9-9.8c0.1-4,1.8-7,4.2-9.9c6.7-7.9,9.4-17.2,10-27.3
			c0.2-2.9-0.7-4.2-3.8-2.5c-2.6,1.4-5.4,2.7-8,4.1c-2.7,1.4-4.6,1.6-5.6-2.1c-0.9-3.4-3.4-6.1-5.5-8.9c-2.5-3.3-4.8-3.6-10.2-1.5
			c-0.3-2-0.4-3.8,0.2-5.7c1.2-3.6,0.4-7-1.3-10.2c-3.6-6.6-5.2-13.6-3.3-21c1.2-4.8,12.6-14.4,17.4-14.9c1.7-0.1,3.4,0,1.6,2.4
			c-0.4,0.5-0.6,1.2-0.7,1.8c-1.4,7.3,0.6,9.5,7.1,6.8c4.5-1.9,6,0.6,7.3,3.4c2.1,4.6,6,7.1,10.6,6.3c2.6-0.4,5.8-3.7,7.5-0.7
			c0.9,1.5,1,5,0.9,7.6c-0.1,2.5-0.6,5.1,1.1,7.3c0.3,1.1,0.5,2.2,0.8,3.3c0.5,1.8-0.9,4.8,1.2,5.2c2.1,0.4,2.7-2.9,4.1-4.4
			c0.3,0,0.6,0,0.9,0c0.7,0.4,1.4,0.9,2.1,1.1c3.5,1.3,4.9,2.7,1,5.4c-2.2,1.5-4,3.6-5.9,5.5c3.1,1.1,5.5,0.9,8,1.1
			c4.6,0.5,9.2,1,13.1,3.8c-0.2,0.3-0.3,0.6-0.1,0.9c-0.9,0.4-1.1,0.9-0.1,1.5c0.2,1.3,0.8,2.3,2.1,2.8c0.3,0.3,0.7,0.5,1,0.8
			c1.4,1.3,2.9,2.7,4.3,4l0.1,0.1c-0.3,1.2,0.6,1.2,1.4,1.4c0.2,0.8,0.4,1.6,1.3,1.9c3.8,6.6,8,13,9.9,20.5c0.6,2.7-2,4.2-1.3,6.7
			c1.9,7,2.1,14.2,4,21.2c0.7,2.6,0.1,5.3,1.4,8.1c1.1,2.5-2,1.7-3.1,2.6c2.5,3.8,2.4,4.8-0.3,4.5c-1.1-0.1-1.7-0.9-2.5-1.5
			c-0.8-0.6-1.5-0.4-2.4-0.1c0.1,3.3,4,4.6,3.9,8.3c-0.1,2.7-0.3,4-3,2.6c-2.8-1.4-3.7-0.5-4.6,2.2c-0.8,2.3-0.1,5.7-4,6.1
			c-0.9,0.1-0.2,0.9,0,1.1c2.7,3.8-0.4,6.5-1.8,9.6c-2.4,0.4-4.4-0.1-6.6-1.5c-4.5-2.9-9.1-5.6-13.9-7.9c-2.1-1-4.8-3-7.4-0.1
			c4.2,3.3,10.5,2.9,13.7,7.7c0.1,2.2-1.4,2-2.9,1.8c-1.1-1.3-2.8-1-4.1-1.7c-0.9-0.6-1.8-1.4-3-1.1c-2.1,0.2-4.1,0.5-5.2,2.6
			c-0.6,0-1.2,0-1.7,0c0.1-0.3,0-0.5-0.2-0.7c0.1-0.2,0.2-0.5,0.1-0.8c0.2-0.3,0.4-0.6,0.6-0.8c-0.2-0.1-0.5-0.1-0.7-0.2
			c0.2-2.8-4-1.5-4-4.2c1.7-1.7,0-2.4-1-3.3c0.1-0.3,0-0.5-0.2-0.8c0-0.7,0-1.4,0.1-2c2.5-2,5.5-0.4,8.2-1.2
			c1.5,0.1,2.9,1.9,4.4,0.1c1-1.2,0-2.1-0.5-3c0-1.6-0.6-3-1.8-4.1c0.5-2.2,3.7-2.8,3.4-6.6c-2.7,3-4.9,0.2-7.3,0.5
			c-1.7,0.2-2.9,0.8-3.1,2.6c-0.2,2.4,1.2,2.1,2.8,1.7c1.1-0.2,1.6,1,2.3,1.7c-0.7,3.5-3.1,3.3-5.7,2.7c-1.9-0.4-3.7-1-5.6-1.5
			c-1.5-0.3-2.6,0.7-3.8,1.4c-0.8,0.2-1.5,0.4-2.3,0.7c-0.4,0-0.8,0.1-1.2,0.1c-0.2,0.1-0.4,0.1-0.5,0.2
			c-3.7,6.9-11.5,7.7-17.2,11.7c-4.9,3.5-10.8,1.5-16.2,2.7c-6.3,1.4-9.7-4-13.4-8.1c-1.7-1.9-3.5-3.9-5.2-5.8
			c-0.3-0.4-0.7-0.7-1-1.1l0.1,0.1c-0.3-0.4-0.7-0.8-1-1.2c-0.1-0.8-0.3-1.5-1.1-1.8c1.9-2.9,4.5,1.7,6.6-0.8
			c-5.3-3.7-8.5-10.3-14.5-12.2c-5.3-1.7-7.1-5-9.2-8.9c-1.6-2.9-4.2-5.3-2.3-9.2c0.3-0.7-0.1-2-0.7-2.8
			c-3.6-5.6-7.1-11.4-13.2-14.9c-2.3-1.3-4.7-2.5-7.5-1c-1.3,0.7-2.3,1.7-0.8,2.4c3.1,1.5,3.8,5.2,6.3,6.8
			c7.8,5.1,10.7,13.9,16.1,20.8c4.3,5.4,6.6,12,11.5,17l0-0.1c0.2,2.9,3.4,3.7,4.4,6C518.2,166.4,518.2,167.6,518.1,168.9
			L518.1,168.9z"/>
		<path class="st1" d="M477.1,211.2c1-4.5,1.9-8.4,2.9-12.3c1.1-4.2,5.1-6,9.1-4c0.4,0.2,2.1,0.3,1.1,1.4c-1.9,1.9-0.7,4.1-1,6.2
			c-0.9,6.5-1.8,7.4-8.4,8.1C479.6,210.7,478.7,211,477.1,211.2z"/>
		<path class="st1" d="M462.3,92.2c-2.2,0-4.3,0.1-4.5-2.4c-0.2-1.8,1.3-2.9,3-2.6c2,0.5,5.1,0.2,5.4,2.6
			C466.5,91.9,464,92.4,462.3,92.2z"/>
		<path class="st1" d="M474,128.6c2.5,2.2,4.3,4.4,5,8.2C475.9,134.5,473.9,132.5,474,128.6z"/>
	</g>
</g>
<g>
</g>
<g>
</g>
<g>
</g>
<g>
</g>
<g>
</g>
<g>
</g>
<g>
</g>
<g>
</g>
<g>
</g>
<g>
</g>
<g>
</g>
<g>
</g>
<g>
</g>
<g>
</g>
<g>
</g>
</svg>
