<?xml version="1.0" encoding="utf-8"?>
<!-- Generator: Adobe Illustrator 17.1.0, SVG Export Plug-In . SVG Version: 6.00 Build 0)  -->
<!DOCTYPE svg PUBLIC "-//W3C//DTD SVG 1.1//EN" "http://www.w3.org/Graphics/SVG/1.1/DTD/svg11.dtd">
<svg version="1.1" id="Layer_1" xmlns="http://www.w3.org/2000/svg" xmlns:xlink="http://www.w3.org/1999/xlink" x="0px" y="0px"
	 viewBox="0 0 642.8 249.8" style="enable-background:new 0 0 642.8 249.8;" xml:space="preserve">
<style type="text/css">
	.st0{fill:#FC0000;}
	.st1{fill:#010000;}
	.st2{fill:#090202;}
</style>
<g>
	<g>
		<path class="st0" d="M138.4,49.4c0,13.2,0,26.4,0,39.6c-1.6,0.1-3.2-0.5-4.8-0.7c-5.5-0.9-10.7-3.5-16.5-2.3
			c-1.5,0.3-2-0.4-1.4-1.8c1-2.2,1.1-4.4,1.1-6.8c0-1.9,0.9-2.4,2.9-2.1c2.3,0.4,4.3,1.7,6.6,1.7c0.8,0,2.2,0.5,2.4-0.7
			c0.3-1.3-1.2-1.8-2-1.9c-2.8-0.1-5.3-1.5-7.9-2.1c-2.6-0.6-3.3-1.7-3.5-4.1c-0.4-4.9-4.5-8.4-9.1-7.8c-1.7,0.2-2-0.1-2-1.6
			c0-1.3-0.9-2.3-2-2.5c-1.6-0.4-2.1,1.2-2.2,2.1c-0.3,3.1-2.9,5.3-2.8,8.4c0.1,2.2-1.2,3.9,2.5,5.7c3.2,1.6,7.2,2.6,10.2,6
			c2.2,2.5,2,3.5,1,5.7c-0.6,1.2-2.4,2.3-1.3,3.6c1.7,2.1,2.7,5.2,5.9,5.4c7.7,0.7,15,3.3,22.8,3.1c0,2.3,0,4.6,0,7
			c-1.2-0.7-3.3,1.6-3.9-1c-0.4-1.8-0.8-3.3-3.2-3.2c-1.8,0-3.3-1.8-5.3-1.2c-0.6,0.2-1.4,0.6-1.6,1.1c-2,4.7-5.6,8.4-7.9,12.9
			c-3.7,7.4-5.7,15.6-10.3,22.6c-0.3,0.5-0.5,1,0,1.5c0.6,0.7,1.4,0.8,2.2,0.6c1.4-0.4,2-1.5,2.5-2.7c1.8-4.4,3.5-8.8,5.3-13.1
			c1.5-3.7,2.8-7.6,5.8-10.5c3.1-3,5.2-2.5,6.4,1.7c0.2,0.5,0.1,1.2,0.2,1.7c1.2,4.2,1.9,8.6,4.4,12.5c1.7-1.3,1-2.8,1.2-4.2
			c0.5-3.4,0.8-6.9,4.2-9c0,17.4,0,34.8,0,52.2c-2.1,0.4-4-0.9-6.1-0.7c-0.7,0.1-1.8-0.4-1.9,0.8c-0.1,0.8,0.7,1.6,1.4,1.7
			c1.9,0.2,3,1.3,4,2.8c0.5,0.8,1.4,1.5,2.6,1c0,9.7,0,19.5,0,29.2c-1,0-1.9,0.1-2.5,0.9c-1.7,2.2-3.3,2.2-4.8-0.7
			c-0.5,2.4-1.8,5.5-1.1,6.1c2.1,1.8,0.4,2.2-0.5,2.7c-1.4,0.8-2.1,2.1-3,3.3c-4.3,6.1-8.3,12.5-11.9,19c-1.8,3.3-2.7,6.9-0.5,10.7
			c1.4,2.3,3.5,4.4,3.4,7.4c-15.5,0-31.1,0-46.6,0c4.2-7,6-15.2,10.3-22.2c1.7-2.9,4.3-5.2,5.3-8.4c1.4-4.6,2.1-9.4,5-13.4
			c0.4-0.5,0.2-1.6,0.2-2.4c0-4.7-0.8-9.4-2-13.9c-0.3-1,0.1-2.6-1.1-2.5c-1.1,0.1-2.2,1.3-2.4,2.7c-0.1,1.1-0.3,2.3,0.2,3.4
			c-1.8-0.8-0.6-3.2-2.8-4.2c-0.6,3.1,0.8,5.4,2,8c1.1-1.4,0-2.8,0.7-3.9c1.8,6.6,0.9,13-1.3,19.4c-0.2-1.4-0.8-2.6-1.4-3.9
			c-0.9,1.6-1.4,3.2-1.7,4.9c-0.8,3.8-1.9,7.4-3.8,11c-4.2,8.3-11,15.5-11.5,25.5c-21.4,0-42.8,0-64.2,0.1c-2.3,0-2.6-0.7-2.6-2.7
			c0.1-41.1,0-82.1,0-123.2c1.4-0.1,3.4-0.1,3.7,1c1.2,3.8,5.1,5.3,6.6,8.8c0.2,1.3,1.1,2.1,2.1,2.8l0,0c0.2,1.3,1.1,2.1,2.2,2.8
			c0.1,0.5,0.2,1,0.7,1.2c0.2,0.3,0.5,0.5,0.7,0.8c0.6,1.6,1.9,2.8,3,4.1c0.2,0.2,0.3,0.5,0.5,0.7l0,0c2,3.9,5.4,6.7,7.7,10.4
			c0.4,0.6,1,1.1,1.7,0.5c0.6-0.5,0-1-0.2-1.5c-1.6-3.5-4-6.4-6.5-9.2c0-0.6-0.7-1.2,0.1-1.8c0.6-0.1,0.7-0.5,0.5-1
			c0.2-0.7-0.3-1.1-0.6-1.6c0.1-0.6,0-1.1-0.6-1.5c-0.7-1.7-0.9-3.6-0.6-5.4c0.6-0.5,0.6-1.1,0-1.6c0.1-0.2,0-0.4-0.1-0.6
			c0.1-0.2,0.2-0.4,0.3-0.7c2.9-1.3,3.7-4.2,5.2-6.6c0.6-1,1.3-2.3,2.2-1.5c2.7,2.2,6.9,3.8,7.1,7.6c0.2,3.7,1.5,6.7,3.4,9.3
			c1.6,2.2,3.7,5,6.1,5.5c3.5,0.8,7.5,1.4,11.2,0.2c1.2-0.4,2.2-0.1,3.3-0.1c4.3-0.1,9.1,2.2,12.8-2.2c0.9-1.1,2.5-1.1,4.2-0.8
			c2.2,0.5,4.4,1.3,6.8,0.9c0.7,0.2,1.4,0.4,2.1,0.6c0.5,0,0.9,0.1,1.4,0.1c2.9,1,1.9,3.5,2.1,5.5c0,0.8-0.2,1.9-1.1,1.8
			c-3.8-0.4-3.2,1.8-2.6,4.1c0.3,1.1-0.2,2-0.3,3c-0.4,6.8-5.7,13.4-1.2,20.7c0.5-3,2.4-5.6,1.5-8.6c-0.5-1.7-0.3-3.1,0.1-4.7
			c2.4-9.2,6.7-17.5,10.3-26.2c0.8-2,2.3-4.9,0.8-5.7c-2.3-1.3-4,1.5-5.2,3.4c-2.4,3.6-2.3,3.6-5.8,1.1c-1.3-1.3-2.6-2.6-4.6-2.7
			c-8.6-0.3-16.7-2.3-24.7-5.4c-3.4-1.3-5.8-3.2-7.6-6.4c-1.9-3.4-1.9-6.3-0.1-9.6c0.6-1,0.9-2.1,1.3-3.2c0.4-1.1,0.5-2.2-0.6-2.8
			c-3.4-1.7-3.4-6.3-6.9-7.9c-0.4-0.2-0.6-1-0.6-1.5c0.2-2.8-1.2-5.1-2.3-7.5c-1.1-2.4,1.4-7.3,3.9-7c3.8,0.5,7.4,0.4,11.1-0.8
			c0.6-0.2,1.3,0.3,2,0.3c3.9,0.4,5.3,4.4,8.7,5.7c2.3,0.9,3.1,0.7,3.6-1.5c0.6-2.5,2.8-3.6,4.4-5.1l-0.1-0.1
			c1.6,3.6-0.6,5.5-3.3,7.2c2.5,2.6,12,2.9,14.7,0.2c1.9-1.9,5.6-3.1,3.9-7.2c-0.4-1,0.5-2.5,1.6-2.2c4.4,1.2,4.5-2.5,5.1-4.8
			c1.4-5.3-1.7-9.6-4.2-13.9c-0.4-0.6-1.6-1.1-2.4-1.1c-5-0.3-9.9-1.2-14.5-3.2c-1-0.5-2.2-0.5-3.4-0.7c-2-0.2-4.6,1-4.7-2.7
			c0-1-1.3-0.8-2.1-0.7c-1.9,0.1-2.6-1.5-3.1-2.8c-0.5-1.3,0.7-2.2,1.6-2.8c1.6-1.1,2.7-2.4,3.9-3.9c1.6-2.1,5-2.6,6.4-0.9
			c3.3,4.3,7.5,4.8,12.2,3.7c1.4-0.3,2.5-0.1,2.9,1c1.1,2.4,2.8,2.6,5,2.2c1.2-0.2,2.5,0.1,3.7,0.4c1.3,0.4,3.3,2,4,0.3
			c1-2.4,4-4.3,2.5-7.4c-1-2-0.8-3.7,0.6-5.4c1.4-1.8,3.1-0.6,4.4-0.2C118.4,41.9,128.2,46.4,138.4,49.4z M30.7,159.3
			c-0.1-0.3-0.2-0.6-0.5-0.4c-0.1,0.1,0,0.5,0.1,0.8c2,3.9,4.5,7.5,7.6,10.5c2.1,5.3,5.6,9.8,8.1,14.8c0.8,1.5,1.8,3.1,4,2.7
			c2.1-0.4,3.3-1.4,3.8-3.7c0.8-3.8,2.2-7.5,3.5-11.1c0.5-1.3,0.4-2.5,0.5-3.7c0-0.7-0.2-1.5-0.8-1.8c-0.7-0.3-1.2,0.6-1.6,1
			c-2.6,2.3-3.6,5.6-5,8.6c-0.4,0.9,0.1,2.3-1.4,2.4c-1.4,0.2-2.4-0.7-2.8-1.7c-1.4-3.9-5.1-5.5-7.7-8.1
			C36,166.1,34.4,161.9,30.7,159.3z M114.8,163.2c3.3-0.7,4-3.6,5.8-5.5C117.8,158.5,115.1,159.5,114.8,163.2z"/>
		<path class="st1" d="M15.3,140.5c-0.6-0.2-0.7-0.7-0.7-1.2c0-1.5-0.5-2.6-2.2-2.8l0,0c0.1-1.5-0.3-2.7-2.1-2.8
			c-1.4-3.5-5.3-5.1-6.6-8.8c-0.4-1.1-2.4-1.1-3.7-1c0-38,0-76,0-114c2.4,0.7,4.9,1.1,7.2,2.2c2.9,1.4,6.3,1.3,10.2-0.1
			C12,8.2,6.1,6.7,0,5.6c0-5.6,0-5.6,5.6-5.6c43.3,0,86.7,0,130-0.1c2.4,0,2.9,0.5,2.9,2.8c-0.1,15.5-0.1,31.1-0.1,46.6
			c-10.3-3.1-20-7.6-30.4-10.2c-1.3-0.3-3-1.5-4.4,0.2c-1.4,1.7-1.5,3.4-0.6,5.4c1.5,3.1-1.5,5-2.5,7.4c-0.7,1.7-2.7,0.1-4-0.3
			c-1.3-0.4-2.5-0.7-3.7-0.4c-2.2,0.4-3.9,0.1-5-2.2c-0.5-1.1-1.5-1.3-2.9-1c-4.7,1.1-9,0.6-12.2-3.7c-1.3-1.7-4.8-1.2-6.4,0.9
			c-1.1,1.5-2.3,2.8-3.9,3.9c-0.9,0.6-2.2,1.5-1.6,2.8c0.5,1.3,1.2,2.8,3.1,2.8c0.8,0,2-0.2,2.1,0.7c0,3.7,2.7,2.5,4.7,2.7
			c1.1,0.1,2.3,0.2,3.4,0.7c4.6,2.1,9.5,2.9,14.5,3.2c0.9,0.1,2.1,0.5,2.4,1.1c2.5,4.3,5.5,8.6,4.2,13.9c-0.6,2.3-0.6,6-5.1,4.8
			c-1.1-0.3-2,1.2-1.6,2.2c1.7,4.1-2,5.3-3.9,7.2c-2.7,2.7-12.1,2.4-14.7-0.2c2.7-1.7,4.9-3.6,3.3-7.2c2.7-0.9,3.2-3.4,4.4-5.5
			c0.3-0.6,0.2-1-0.3-1.5c-1.3-1.2-6.2-0.2-7,1.4c-0.8,1.6-1.3,3,1.1,3.8c0.9,0.3,1.5,1,1.9,1.9c-1.6,1.6-3.8,2.7-4.4,5.1
			c-0.5,2.2-1.4,2.3-3.6,1.5c-3.4-1.3-4.8-5.3-8.7-5.7c-0.7-0.1-1.4-0.5-2-0.3c-3.7,1.2-7.3,1.2-11.1,0.8c-2.5-0.3-5,4.7-3.9,7
			c1.1,2.4,2.5,4.7,2.3,7.5c0,0.5,0.2,1.4,0.6,1.5c3.5,1.7,3.5,6.2,6.9,7.9c1.1,0.5,1,1.7,0.6,2.8c-0.4,1.1-0.7,2.2-1.3,3.2
			c-1.8,3.2-1.8,6.2,0.1,9.6c1.8,3.2,4.2,5.1,7.6,6.4c8,3.1,16.1,5.2,24.7,5.4c2,0.1,3.3,1.3,4.6,2.7c-0.4,2.1,1,3.7,1.4,5.6
			c-0.5,0-0.9-0.1-1.4-0.1c-0.6-0.7-0.7-2.6-2.1-0.6c-2.3,0.3-4.6-0.5-6.8-0.9c-1.7-0.4-3.3-0.3-4.2,0.8c-3.7,4.4-8.5,2.1-12.8,2.2
			c-1.1,0-2.1-0.3-3.3,0.1c-3.7,1.3-7.7,0.6-11.2-0.2c-2.4-0.5-4.5-3.3-6.1-5.5c-2-2.7-3.2-5.6-3.4-9.3c-0.2-3.7-4.4-5.4-7.1-7.6
			c-0.9-0.7-1.6,0.6-2.2,1.5c-1.4,2.4-2.3,5.3-5.2,6.6c-0.1,0.2-0.2,0.4-0.3,0.7c0.1,0.2,0.1,0.4,0.1,0.6c0,0.5,0,1.1,0,1.6
			c-0.3,1.9-0.1,3.7,0.6,5.4c-0.2,0.7-0.2,1.2,0.6,1.5c0.3,0.5,0.8,0.9,0.6,1.6c-0.2,0.3-0.3,0.7-0.5,1c-0.8,0.6-0.1,1.2-0.1,1.8
			c-0.9-0.4-1.8-0.5-2.7-0.2l0,0c-0.2-0.2-0.3-0.5-0.5-0.7c-1-1.3-2.3-2.5-3-4.1C15.8,141,15.6,140.8,15.3,140.5z M18.1,93.8
			c-0.9-4.6-1.8-5.1-7.7-4.7c-5.9,0.4-8.7,5.4-6,10.7c1.9,3.6,4.2,6.9,6.9,9.9c3.4,3.7,7.3,6.8,12.4,7.8c1.9,0.4,3.9,0.5,5.4-1.4
			c1.3-1.7,1.1-3.4,0.3-5.2c-0.3-0.6-0.7-1.1-0.4-1.9c1.1-3-1.4-4.9-2.7-7.1c-0.4-0.7-1.2-1.2-2-0.4c-0.9,0.8-0.7,1.7,0.1,2.4
			c0.5,0.5,1.2,0.8,1.7,1.2c0.9,0.7,1.4,1.7,0.9,2.7c-0.5,1.1-1.7,0.8-2.5,0.6c-1.6-0.6-3.6-0.9-3.7-3.4c0-0.8-0.7-1.8-1.3-2.4
			c-3.3-2.5-3.7-6-3.6-10C16.7,93.1,17.3,93.4,18.1,93.8z M63.2,79.7c1.5,0.4,2-0.4,2.1-1.5c0.1-1.1-0.3-2.3-1.6-2.1
			c-1.5,0.3-3.7,0.6-3.7,2.4C60,81.4,62.6,78.1,63.2,79.7z M55,78.8c-1.1,0.4-1.5,1.2-1.3,2.3c0.1,0.7,0.4,1.5,1.1,1.4
			c1-0.2,1.8-1,1.6-2.2C56.3,79.5,56.2,78.7,55,78.8z"/>
		<path class="st1" d="M117.6,249.7c0-3-2.1-5.1-3.4-7.4c-2.2-3.8-1.3-7.4,0.5-10.7c3.6-6.6,7.6-12.9,11.9-19c0.9-1.2,1.5-2.5,3-3.3
			c0.9-0.5,2.6-0.9,0.5-2.7c-0.7-0.6,0.6-3.7,1.1-6.1c1.5,2.8,3.1,2.9,4.8,0.7c0.6-0.8,1.6-0.9,2.5-0.9c0,15.8,0,31.5,0,47.3
			c0,1.7-0.4,2.2-2.1,2.1C130.1,249.6,123.8,249.7,117.6,249.7z"/>
		<path class="st2" d="M138.4,96.7c-7.8,0.3-15.2-2.4-22.8-3.1c-3.2-0.3-4.2-3.4-5.9-5.4c-1.1-1.3,0.8-2.4,1.3-3.6
			c1.1-2.2,1.2-3.2-1-5.7c-2.9-3.4-7-4.4-10.2-6c-3.7-1.8-2.4-3.6-2.5-5.7c-0.1-3.1,2.5-5.3,2.8-8.4c0.1-0.9,0.6-2.5,2.2-2.1
			c1.1,0.3,2,1.2,2,2.5c0,1.5,0.3,1.9,2,1.6c4.6-0.6,8.7,3,9.1,7.8c0.2,2.4,0.9,3.5,3.5,4.1c2.6,0.6,5.1,2,7.9,2.1
			c0.8,0,2.3,0.5,2,1.9c-0.3,1.2-1.6,0.7-2.4,0.7c-2.3,0-4.3-1.4-6.6-1.7c-2.1-0.3-2.9,0.1-2.9,2.1c0,2.3-0.2,4.6-1.1,6.8
			c-0.6,1.3-0.1,2.1,1.4,1.8c5.8-1.2,11,1.3,16.5,2.3c1.6,0.3,3.1,0.8,4.8,0.7C138.4,91.6,138.4,94.2,138.4,96.7z"/>
		<path class="st2" d="M138.4,113.4c-3.4,2.1-3.7,5.6-4.2,9c-0.2,1.3,0.5,2.8-1.2,4.2c-2.4-3.9-3.2-8.3-4.4-12.5
			c-0.2-0.5-0.1-1.2-0.2-1.7c-1.2-4.2-3.3-4.8-6.4-1.7c-3,2.9-4.3,6.8-5.8,10.5c-1.8,4.4-3.5,8.8-5.3,13.1c-0.5,1.2-1.1,2.3-2.5,2.7
			c-0.8,0.2-1.6,0.2-2.2-0.6c-0.5-0.6-0.3-1,0-1.5c4.6-7,6.5-15.2,10.3-22.6c2.3-4.6,5.9-8.2,7.9-12.9c0.2-0.5,1-1,1.6-1.1
			c2-0.6,3.5,1.2,5.3,1.2c2.4,0,2.8,1.4,3.2,3.2c0.6,2.7,2.7,0.3,3.9,1C138.4,106.9,138.4,110.2,138.4,113.4z"/>
		<path class="st2" d="M66.8,249.7c0.5-10,7.3-17.2,11.5-25.5c1.8-3.6,3-7.2,3.8-11c0.4-1.7,0.8-3.3,1.7-4.9
			c0.6,1.3,1.2,2.5,1.4,3.9c2.1-6.4,3.1-12.8,1.3-19.4l0.1,0.1c-0.5-1.1-0.3-2.3-0.2-3.4c0.2-1.4,1.3-2.6,2.4-2.7
			c1.2-0.1,0.8,1.6,1.1,2.5c1.2,4.6,2,9.2,2,13.9c0,0.8,0.2,1.8-0.2,2.4c-3,4-3.6,8.8-5,13.4c-1,3.2-3.6,5.6-5.3,8.4
			c-4.3,7.1-6.1,15.2-10.3,22.2C69.6,249.7,68.2,249.7,66.8,249.7z"/>
		<path class="st0" d="M0,5.6c6.1,1.1,12,2.6,17.4,6.2c-3.9,1.4-7.3,1.5-10.2,0.1C4.9,10.9,2.5,10.5,0,9.8C0,8.4,0,7,0,5.6z"/>
		<path class="st2" d="M138.4,171.1c-1.2,0.6-2.1-0.2-2.6-1c-1-1.5-2-2.6-4-2.8c-0.8-0.1-1.5-0.9-1.4-1.7c0.1-1.2,1.2-0.7,1.9-0.8
			c2.1-0.2,4,1.1,6.1,0.7C138.4,167.4,138.4,169.3,138.4,171.1z"/>
		<path class="st2" d="M87,145.3c-0.4-1.9-1.7-3.5-1.4-5.6c3.5,2.6,3.4,2.5,5.8-1.1c1.3-1.9,2.9-4.7,5.2-3.4c1.5,0.8,0,3.7-0.8,5.7
			c-3.6,8.7-7.9,17-10.3,26.2c-0.4,1.6-0.6,3-0.1,4.7c0.9,2.9-1,5.5-1.5,8.6c-4.5-7.3,0.7-13.9,1.2-20.7c0.1-1,0.6-1.9,0.3-3
			c-0.6-2.2-1.2-4.5,2.6-4.1c0.9,0.1,1.1-1,1.1-1.8C88.9,148.8,89.9,146.3,87,145.3z"/>
		<path class="st2" d="M38.4,169.7c2.7,2.6,6.3,4.2,7.7,8.1c0.4,1,1.5,1.8,2.8,1.7c1.5-0.2,1-1.6,1.4-2.4c1.4-3,2.4-6.3,5-8.6
			c0.5-0.4,0.9-1.3,1.6-1c0.7,0.2,0.9,1,0.8,1.8c0,1.3,0,2.5-0.5,3.7c-1.3,3.7-2.7,7.3-3.5,11.1c-0.5,2.4-1.7,3.4-3.8,3.7
			c-2.1,0.4-3.2-1.2-4-2.7c-2.6-5-6.1-9.5-8.1-14.8C38,170,38.2,169.9,38.4,169.7z"/>
		<path class="st2" d="M19.5,146.1c0.9-0.3,1.8-0.1,2.7,0.2c2.5,2.8,4.9,5.7,6.5,9.2c0.2,0.5,0.8,1,0.2,1.5
			c-0.7,0.6-1.3,0.1-1.7-0.5C25,152.8,21.5,150,19.5,146.1z"/>
		<path class="st2" d="M37.8,170.2c-3.2-3-5.7-6.6-7.6-10.5c0.2-0.1,0.3-0.3,0.5-0.4c3.8,2.6,5.3,6.8,7.7,10.4
			C38.2,169.9,38,170,37.8,170.2z"/>
		<path class="st2" d="M114.8,163.2c0.3-3.7,2.9-4.7,5.8-5.5C118.8,159.6,118.1,162.6,114.8,163.2z"/>
		<path class="st2" d="M86.4,192.8c-0.7,1.1,0.4,2.4-0.7,3.9c-1.2-2.6-2.7-4.9-2-8C85.9,189.7,84.7,192.2,86.4,192.8
			C86.5,192.9,86.4,192.8,86.4,192.8z"/>
		<path class="st2" d="M12.4,136.4c1.6,0.3,2.1,1.4,2.2,2.8C13.6,138.6,12.7,137.8,12.4,136.4z"/>
		<path class="st2" d="M10.4,133.6c1.8,0.1,2.2,1.3,2.1,2.8C11.5,135.8,10.6,134.9,10.4,133.6z"/>
		<path class="st2" d="M83.5,144.6c1.4-2,1.5,0,2.1,0.6C84.9,145,84.2,144.8,83.5,144.6z"/>
		<path class="st2" d="M22.2,141.9c-0.7-0.3-0.8-0.8-0.6-1.5C22.2,140.8,22.3,141.3,22.2,141.9z"/>
		<path class="st2" d="M21,135c0-0.5,0-1.1,0-1.6C21.6,133.9,21.6,134.5,21,135z"/>
		<path class="st2" d="M22.3,144.5c0.2-0.3,0.3-0.7,0.5-1C23,144,22.9,144.4,22.3,144.5z"/>
		<path class="st2" d="M19,145.4c0.2,0.2,0.3,0.5,0.5,0.7C19.3,145.9,19.2,145.7,19,145.4z"/>
		<path class="st2" d="M30.2,159.7c0-0.3-0.2-0.7-0.1-0.8c0.3-0.3,0.5,0.1,0.5,0.4C30.5,159.4,30.4,159.6,30.2,159.7z"/>
		<path class="st2" d="M15.3,140.5c0.2,0.3,0.5,0.5,0.7,0.8C15.8,141,15.6,140.8,15.3,140.5z"/>
		<path class="st2" d="M20.9,132.9c0.1-0.2,0.2-0.4,0.3-0.7C21.1,132.4,21,132.7,20.9,132.9z"/>
		<path class="st0" d="M18.1,93.8c-0.8-0.4-1.4-0.7-2.2-1.1c-0.1,4,0.3,7.5,3.6,10c0.7,0.5,1.3,1.5,1.3,2.4c0.1,2.5,2.1,2.8,3.7,3.4
			c0.8,0.3,1.9,0.5,2.5-0.6c0.5-1.1,0-2-0.9-2.7c-0.5-0.4-1.2-0.8-1.7-1.2c-0.8-0.7-1-1.5-0.1-2.4c0.8-0.8,1.6-0.3,2,0.4
			c1.3,2.2,3.7,4,2.7,7.1c-0.3,0.8,0.1,1.3,0.4,1.9c0.8,1.8,1,3.5-0.3,5.2c-1.5,1.9-3.5,1.8-5.4,1.4c-5.1-1-9-4.1-12.4-7.8
			c-2.7-3-5.1-6.3-6.9-9.9c-2.8-5.3,0.1-10.3,6-10.7C16.3,88.7,17.1,89.2,18.1,93.8z"/>
		<path class="st0" d="M73.2,84.4c-0.4-0.9-1-1.7-1.9-1.9c-2.4-0.7-1.9-2.2-1.1-3.8c0.8-1.6,5.6-2.5,7-1.4c0.5,0.5,0.6,0.9,0.3,1.5
			c-1.1,2.1-1.7,4.6-4.4,5.5C73.1,84.3,73.2,84.4,73.2,84.4z"/>
		<path class="st0" d="M63.2,79.7c-0.6-1.6-3.3,1.7-3.2-1.1c0.1-1.8,2.2-2.1,3.7-2.4c1.3-0.3,1.7,0.9,1.6,2.1
			C65.3,79.3,64.8,80.1,63.2,79.7z"/>
		<path class="st0" d="M55,78.8c1.2-0.1,1.3,0.7,1.4,1.6c0.1,1.2-0.6,2-1.6,2.2c-0.7,0.1-1-0.7-1.1-1.4C53.5,80,53.9,79.1,55,78.8z"
			/>
	</g>
	<g>
		<path class="st1" d="M267.5,140.5c-0.6-0.2-0.7-0.7-0.7-1.2c0-1.5-0.5-2.6-2.2-2.8l0,0c0.1-1.5-0.3-2.7-2.1-2.8
			c-1.4-3.5-5.3-5.1-6.6-8.8c-0.4-1.1-2.4-1.1-3.7-1c0-38,0-76,0-114c2.4,0.7,4.9,1.1,7.2,2.2c2.9,1.4,6.3,1.3,10.2-0.1
			c-5.5-3.7-11.4-5.2-17.4-6.2c0-5.6,0-5.6,5.6-5.6c43.3,0,86.7,0,130-0.1c2.4,0,2.9,0.5,2.9,2.8c-0.1,15.5-0.1,31.1-0.1,46.6
			c-10.3-3.1-20-7.6-30.4-10.2c-1.3-0.3-3-1.5-4.4,0.2c-1.4,1.7-1.5,3.4-0.6,5.4c1.5,3.1-1.5,5-2.5,7.4c-0.7,1.7-2.7,0.1-4-0.3
			c-1.3-0.4-2.5-0.7-3.7-0.4c-2.2,0.4-3.9,0.1-5-2.2c-0.5-1.1-1.5-1.3-2.9-1c-4.7,1.1-9,0.6-12.2-3.7c-1.3-1.7-4.8-1.2-6.4,0.9
			c-1.1,1.5-2.3,2.8-3.9,3.9c-0.9,0.6-2.2,1.5-1.6,2.8c0.5,1.3,1.2,2.8,3.1,2.8c0.8,0,2-0.2,2.1,0.7c0,3.7,2.7,2.5,4.7,2.7
			c1.1,0.1,2.3,0.2,3.4,0.7c4.6,2.1,9.5,2.9,14.5,3.2c0.9,0.1,2.1,0.5,2.4,1.1c2.5,4.3,5.5,8.6,4.2,13.9c-0.6,2.3-0.6,6-5.1,4.8
			c-1.1-0.3-2,1.2-1.6,2.2c1.7,4.1-2,5.3-3.9,7.2c-2.7,2.7-12.1,2.4-14.7-0.2c2.7-1.7,4.9-3.6,3.3-7.2c2.7-0.9,3.2-3.4,4.4-5.5
			c0.3-0.6,0.2-1-0.3-1.5c-1.3-1.2-6.2-0.2-7,1.4c-0.8,1.6-1.3,3,1.1,3.8c0.9,0.3,1.5,1,1.9,1.9c-1.6,1.6-3.8,2.7-4.4,5.1
			c-0.5,2.2-1.4,2.3-3.6,1.5c-3.4-1.3-4.8-5.3-8.7-5.7c-0.7-0.1-1.4-0.5-2-0.3c-3.7,1.2-7.3,1.2-11.1,0.8c-2.5-0.3-5,4.7-3.9,7
			c1.1,2.4,2.5,4.7,2.3,7.5c0,0.5,0.2,1.4,0.6,1.5c3.5,1.7,3.5,6.2,6.9,7.9c1.1,0.5,1,1.7,0.6,2.8c-0.4,1.1-0.7,2.2-1.3,3.2
			c-1.8,3.2-1.8,6.2,0.1,9.6c1.8,3.2,4.2,5.1,7.6,6.4c8,3.1,16.1,5.2,24.7,5.4c2,0.1,3.3,1.3,4.6,2.7c-0.4,2.1,1,3.7,1.4,5.6
			c-0.5,0-0.9-0.1-1.4-0.1c-0.6-0.7-0.7-2.6-2.1-0.6c-2.3,0.3-4.6-0.5-6.8-0.9c-1.7-0.4-3.3-0.3-4.2,0.8c-3.7,4.4-8.5,2.1-12.8,2.2
			c-1.1,0-2.1-0.3-3.3,0.1c-3.7,1.3-7.7,0.6-11.2-0.2c-2.4-0.5-4.5-3.3-6.1-5.5c-2-2.7-3.2-5.6-3.4-9.3c-0.2-3.7-4.4-5.4-7.1-7.6
			c-0.9-0.7-1.6,0.6-2.2,1.5c-1.4,2.4-2.3,5.3-5.2,6.6c-0.1,0.2-0.2,0.4-0.3,0.7c0.1,0.2,0.1,0.4,0.1,0.6c0,0.5,0,1.1,0,1.6
			c-0.3,1.9-0.1,3.7,0.6,5.4c-0.2,0.7-0.2,1.2,0.6,1.5c0.3,0.5,0.8,0.9,0.6,1.6c-0.2,0.3-0.3,0.7-0.5,1c-0.8,0.6-0.1,1.2-0.1,1.8
			c-0.9-0.4-1.8-0.5-2.7-0.2l0,0c-0.2-0.2-0.3-0.5-0.5-0.7c-1-1.3-2.3-2.5-3-4.1C268,141.1,267.7,140.8,267.5,140.5z M270.2,93.8
			c-0.9-4.6-1.8-5.1-7.7-4.7c-5.9,0.4-8.7,5.4-6,10.7c1.9,3.6,4.2,6.9,6.9,9.9c3.4,3.7,7.3,6.8,12.4,7.8c1.9,0.4,3.9,0.5,5.4-1.4
			c1.3-1.7,1.1-3.4,0.3-5.2c-0.3-0.6-0.7-1.1-0.4-1.9c1.1-3-1.4-4.9-2.7-7.1c-0.4-0.7-1.2-1.2-2-0.4c-0.9,0.8-0.7,1.7,0.1,2.4
			c0.5,0.5,1.2,0.8,1.7,1.2c0.9,0.7,1.4,1.7,0.9,2.7c-0.5,1.1-1.7,0.8-2.5,0.6c-1.6-0.6-3.6-0.9-3.7-3.4c0-0.8-0.7-1.8-1.3-2.4
			c-3.3-2.5-3.7-6-3.6-10C268.8,93.1,269.5,93.4,270.2,93.8z M315.4,79.7c1.5,0.4,2-0.4,2.1-1.5c0.1-1.1-0.3-2.3-1.6-2.1
			c-1.5,0.3-3.7,0.6-3.7,2.4C312.2,81.4,314.8,78.1,315.4,79.7z M307.2,78.8c-1.1,0.4-1.5,1.2-1.3,2.3c0.1,0.7,0.4,1.5,1.1,1.4
			c1-0.2,1.8-1,1.6-2.2C308.5,79.5,308.4,78.7,307.2,78.8z"/>
		<path class="st1" d="M369.7,249.7c0-3-2.1-5.1-3.4-7.4c-2.2-3.8-1.3-7.4,0.5-10.7c3.6-6.6,7.6-12.9,11.9-19c0.9-1.2,1.5-2.5,3-3.3
			c0.9-0.5,2.6-0.9,0.5-2.7c-0.7-0.6,0.6-3.7,1.1-6.1c1.5,2.8,3.1,2.9,4.8,0.7c0.6-0.8,1.6-0.9,2.5-0.9c0,15.8,0,31.5,0,47.3
			c0,1.7-0.4,2.2-2.1,2.1C382.3,249.7,376,249.7,369.7,249.7z"/>
		<path class="st2" d="M390.6,96.7c-7.8,0.3-15.2-2.4-22.8-3.1c-3.2-0.3-4.2-3.4-5.9-5.4c-1.1-1.3,0.8-2.4,1.3-3.6
			c1.1-2.2,1.2-3.2-1-5.7c-2.9-3.4-7-4.4-10.2-6c-3.7-1.8-2.4-3.6-2.5-5.7c-0.1-3.1,2.5-5.3,2.8-8.4c0.1-0.9,0.6-2.5,2.2-2.1
			c1.1,0.3,2,1.2,2,2.5c0,1.5,0.3,1.9,2,1.6c4.6-0.6,8.7,3,9.1,7.8c0.2,2.4,0.9,3.5,3.5,4.1c2.6,0.6,5.1,2,7.9,2.1
			c0.8,0,2.3,0.5,2,1.9c-0.3,1.2-1.6,0.7-2.4,0.7c-2.3,0-4.3-1.4-6.6-1.7c-2.1-0.3-2.9,0.1-2.9,2.1c0,2.3-0.2,4.6-1.1,6.8
			c-0.6,1.3-0.1,2.1,1.4,1.8c5.8-1.2,11,1.3,16.5,2.3c1.6,0.3,3.1,0.8,4.8,0.7C390.6,91.6,390.6,94.2,390.6,96.7z"/>
		<path class="st2" d="M390.6,113.4c-3.4,2.1-3.7,5.6-4.2,9c-0.2,1.3,0.5,2.8-1.2,4.2c-2.4-3.9-3.2-8.3-4.4-12.5
			c-0.2-0.5-0.1-1.2-0.2-1.7c-1.2-4.2-3.3-4.8-6.4-1.7c-3,2.9-4.3,6.8-5.8,10.5c-1.8,4.4-3.5,8.8-5.3,13.1c-0.5,1.2-1.1,2.3-2.5,2.7
			c-0.8,0.2-1.6,0.2-2.2-0.6c-0.5-0.6-0.3-1,0-1.5c4.6-7,6.5-15.2,10.3-22.6c2.3-4.6,5.9-8.2,7.9-12.9c0.2-0.5,1-1,1.6-1.1
			c2-0.6,3.5,1.2,5.3,1.2c2.4,0,2.8,1.4,3.2,3.2c0.6,2.7,2.7,0.3,3.9,1C390.6,106.9,390.6,110.2,390.6,113.4z"/>
		<path class="st2" d="M319,249.7c0.5-10,7.3-17.2,11.5-25.5c1.8-3.6,3-7.2,3.8-11c0.4-1.7,0.8-3.3,1.7-4.9c0.6,1.3,1.2,2.5,1.4,3.9
			c2.1-6.4,3.1-12.8,1.3-19.4l0.1,0.1c-0.5-1.1-0.3-2.3-0.2-3.4c0.2-1.4,1.3-2.6,2.4-2.7c1.2-0.1,0.8,1.6,1.1,2.5
			c1.2,4.6,2,9.2,2,13.9c0,0.8,0.2,1.8-0.2,2.4c-3,4-3.6,8.8-5,13.4c-1,3.2-3.6,5.6-5.3,8.4c-4.3,7.1-6.1,15.2-10.3,22.2
			C321.8,249.7,320.4,249.7,319,249.7z"/>
		<path class="st2" d="M390.6,171.1c-1.2,0.6-2.1-0.2-2.6-1c-1-1.5-2-2.6-4-2.8c-0.8-0.1-1.5-0.9-1.4-1.7c0.1-1.2,1.2-0.7,1.9-0.8
			c2.1-0.2,4,1.1,6.1,0.7C390.6,167.4,390.6,169.3,390.6,171.1z"/>
		<path class="st2" d="M339.1,145.3c-0.4-1.9-1.7-3.5-1.4-5.6c3.5,2.6,3.4,2.5,5.8-1.1c1.3-1.9,2.9-4.7,5.2-3.4
			c1.5,0.8,0,3.7-0.8,5.7c-3.6,8.7-7.9,17-10.3,26.2c-0.4,1.6-0.6,3-0.1,4.7c0.9,2.9-1,5.5-1.5,8.6c-4.5-7.3,0.7-13.9,1.2-20.7
			c0.1-1,0.6-1.9,0.3-3c-0.6-2.2-1.2-4.5,2.6-4.1c0.9,0.1,1.1-1,1.1-1.8C341.1,148.8,342.1,146.3,339.1,145.3z"/>
		<path class="st2" d="M290.5,169.7c2.7,2.6,6.3,4.2,7.7,8.1c0.4,1,1.5,1.8,2.8,1.7c1.5-0.2,1-1.6,1.4-2.4c1.4-3,2.4-6.3,5-8.6
			c0.5-0.4,0.9-1.3,1.6-1c0.7,0.2,0.9,1,0.8,1.8c0,1.3,0,2.5-0.5,3.7c-1.3,3.7-2.7,7.3-3.5,11.1c-0.5,2.4-1.7,3.4-3.8,3.7
			c-2.1,0.4-3.2-1.2-4-2.7c-2.6-5-6.1-9.5-8.1-14.8C290.2,170,290.4,169.9,290.5,169.7z"/>
		<path class="st2" d="M271.7,146.1c0.9-0.3,1.8-0.1,2.7,0.2c2.5,2.8,4.9,5.7,6.5,9.2c0.2,0.5,0.8,1,0.2,1.5
			c-0.7,0.6-1.3,0.1-1.7-0.5C277.1,152.8,273.7,150,271.7,146.1z"/>
		<path class="st2" d="M290,170.2c-3.2-3-5.7-6.6-7.6-10.5c0.2-0.1,0.3-0.3,0.5-0.4c3.8,2.6,5.3,6.8,7.7,10.4
			C290.4,169.9,290.2,170,290,170.2z"/>
		<path class="st2" d="M367,163.2c0.3-3.7,2.9-4.7,5.8-5.5C371,159.6,370.3,162.6,367,163.2z"/>
		<path class="st2" d="M338.6,192.8c-0.7,1.1,0.4,2.4-0.7,3.9c-1.2-2.6-2.7-4.9-2-8C338,189.7,336.9,192.2,338.6,192.8
			C338.7,192.9,338.6,192.8,338.6,192.8z"/>
		<path class="st2" d="M264.6,136.5c1.6,0.3,2.1,1.4,2.2,2.8C265.7,138.6,264.8,137.8,264.6,136.5z"/>
		<path class="st2" d="M262.5,133.6c1.8,0.1,2.2,1.3,2.1,2.8C263.6,135.8,262.8,135,262.5,133.6z"/>
		<path class="st2" d="M335.7,144.6c1.4-2,1.5,0,2.1,0.6C337.1,145,336.4,144.8,335.7,144.6z"/>
		<path class="st2" d="M274.4,141.9c-0.7-0.3-0.8-0.8-0.6-1.5C274.4,140.8,274.5,141.3,274.4,141.9z"/>
		<path class="st2" d="M273.2,135c0-0.5,0-1.1,0-1.6C273.8,134,273.8,134.5,273.2,135z"/>
		<path class="st2" d="M274.5,144.5c0.2-0.3,0.3-0.7,0.5-1C275.1,144,275.1,144.4,274.5,144.5z"/>
		<path class="st2" d="M271.2,145.4c0.2,0.2,0.3,0.5,0.5,0.7C271.5,145.9,271.3,145.7,271.2,145.4z"/>
		<path class="st2" d="M282.4,159.7c0-0.3-0.2-0.7-0.1-0.8c0.3-0.3,0.5,0.1,0.5,0.4C282.7,159.4,282.5,159.6,282.4,159.7z"/>
		<path class="st2" d="M267.5,140.5c0.2,0.3,0.5,0.5,0.7,0.8C268,141.1,267.7,140.8,267.5,140.5z"/>
		<path class="st2" d="M273.1,132.9c0.1-0.2,0.2-0.4,0.3-0.7C273.3,132.4,273.2,132.7,273.1,132.9z"/>
	</g>
	<g>
		<path class="st0" d="M642.8,46.6c0,13.2,0,26.4,0,39.6c-1.6,0.1-3.2-0.5-4.8-0.7c-5.5-0.9-10.7-3.5-16.5-2.3
			c-1.5,0.3-2-0.4-1.4-1.8c1-2.2,1.1-4.4,1.1-6.8c0-1.9,0.9-2.4,2.9-2.1c2.3,0.4,4.3,1.7,6.6,1.7c0.8,0,2.2,0.5,2.4-0.7
			c0.3-1.3-1.2-1.8-2-1.9c-2.8-0.1-5.3-1.5-7.9-2.1c-2.6-0.6-3.3-1.7-3.5-4.1c-0.4-4.9-4.5-8.4-9.1-7.8c-1.7,0.2-2-0.1-2-1.6
			c0-1.3-0.9-2.3-2-2.5c-1.6-0.4-2.1,1.2-2.2,2.1c-0.3,3.1-2.9,5.3-2.8,8.4c0.1,2.2-1.2,3.9,2.5,5.7c3.2,1.6,7.2,2.6,10.2,6
			c2.2,2.5,2,3.5,1,5.7c-0.6,1.2-2.4,2.3-1.3,3.6c1.7,2.1,2.7,5.2,5.9,5.4c7.7,0.7,15,3.3,22.8,3.1c0,2.3,0,4.6,0,7
			c-1.2-0.7-3.3,1.6-3.9-1c-0.4-1.8-0.8-3.3-3.2-3.2c-1.8,0-3.3-1.8-5.3-1.2c-0.6,0.2-1.4,0.6-1.6,1.1c-2,4.7-5.6,8.4-7.9,12.9
			c-3.7,7.4-5.7,15.6-10.3,22.6c-0.3,0.5-0.5,1,0,1.5c0.6,0.7,1.4,0.8,2.2,0.6c1.4-0.4,2-1.5,2.5-2.7c1.8-4.4,3.5-8.8,5.3-13.1
			c1.5-3.7,2.8-7.6,5.8-10.5c3.1-3,5.2-2.5,6.4,1.7c0.2,0.5,0.1,1.2,0.2,1.7c1.2,4.2,1.9,8.6,4.4,12.5c1.7-1.3,1-2.8,1.2-4.2
			c0.5-3.4,0.8-6.9,4.2-9c0,17.4,0,34.8,0,52.2c-2.1,0.4-4-0.9-6.1-0.7c-0.7,0.1-1.8-0.4-1.9,0.8c-0.1,0.8,0.7,1.6,1.4,1.7
			c1.9,0.2,3,1.3,4,2.8c0.5,0.8,1.4,1.5,2.6,1c0,9.7,0,19.5,0,29.2c-1,0-1.9,0.1-2.5,0.9c-1.7,2.2-3.3,2.2-4.8-0.7
			c-0.5,2.4-1.8,5.5-1.1,6.1c2.1,1.8,0.4,2.2-0.5,2.7c-1.4,0.8-2.1,2.1-3,3.3c-4.3,6.1-8.3,12.5-11.9,19c-1.8,3.3-2.7,6.9-0.5,10.7
			c1.4,2.3,3.5,4.4,3.4,7.4c-15.5,0-31.1,0-46.6,0c4.2-7,6-15.2,10.3-22.2c1.7-2.9,4.3-5.2,5.3-8.4c1.4-4.6,2.1-9.4,5-13.4
			c0.4-0.5,0.2-1.6,0.2-2.4c0-4.7-0.8-9.4-2-13.9c-0.3-1,0.1-2.6-1.1-2.5c-1.1,0.1-2.2,1.3-2.4,2.7c-0.1,1.1-0.3,2.3,0.2,3.4
			c-1.8-0.8-0.6-3.2-2.8-4.2c-0.6,3.1,0.8,5.4,2,8c1.1-1.4,0-2.8,0.7-3.9c1.8,6.6,0.9,13-1.3,19.4c-0.2-1.4-0.8-2.6-1.4-3.9
			c-0.9,1.6-1.4,3.2-1.7,4.9c-0.8,3.8-1.9,7.4-3.8,11c-4.2,8.3-11,15.5-11.5,25.5c-21.4,0-42.8,0-64.2,0.1c-2.3,0-2.6-0.7-2.6-2.7
			c0.1-41.1,0-82.1,0-123.2c1.4-0.1,3.4-0.1,3.7,1c1.2,3.8,5.1,5.3,6.6,8.8c0.2,1.3,1.1,2.1,2.1,2.8l0,0c0.2,1.3,1.1,2.1,2.2,2.8
			c0.1,0.5,0.2,1,0.7,1.2c0.2,0.3,0.5,0.5,0.7,0.8c0.6,1.6,1.9,2.8,3,4.1c0.2,0.2,0.3,0.5,0.5,0.7l0,0c2,3.9,5.4,6.7,7.7,10.4
			c0.4,0.6,1,1.1,1.7,0.5c0.6-0.5,0-1-0.2-1.5c-1.6-3.5-4-6.4-6.5-9.2c0-0.6-0.7-1.2,0.1-1.8c0.6-0.1,0.7-0.5,0.5-1
			c0.2-0.7-0.3-1.1-0.6-1.6c0.1-0.6,0-1.1-0.6-1.5c-0.7-1.7-0.9-3.6-0.6-5.4c0.6-0.5,0.6-1.1,0-1.6c0.1-0.2,0-0.4-0.1-0.6
			c0.1-0.2,0.2-0.4,0.3-0.7c2.9-1.3,3.7-4.2,5.2-6.6c0.6-1,1.3-2.3,2.2-1.5c2.7,2.2,6.9,3.8,7.1,7.6c0.2,3.7,1.5,6.7,3.4,9.3
			c1.6,2.2,3.7,5,6.1,5.5c3.5,0.8,7.5,1.4,11.2,0.2c1.2-0.4,2.2-0.1,3.3-0.1c4.3-0.1,9.1,2.2,12.8-2.2c0.9-1.1,2.5-1.1,4.2-0.8
			c2.2,0.5,4.4,1.3,6.8,0.9c0.7,0.2,1.4,0.4,2.1,0.6c0.5,0,0.9,0.1,1.4,0.1c2.9,1,1.9,3.5,2.1,5.5c0,0.8-0.2,1.9-1.1,1.8
			c-3.8-0.4-3.2,1.8-2.6,4.1c0.3,1.1-0.2,2-0.3,3c-0.4,6.8-5.7,13.4-1.2,20.7c0.5-3,2.4-5.6,1.5-8.6c-0.5-1.7-0.3-3.1,0.1-4.7
			c2.4-9.2,6.7-17.5,10.3-26.2c0.8-2,2.3-4.9,0.8-5.7c-2.3-1.3-4,1.5-5.2,3.4c-2.4,3.6-2.3,3.6-5.8,1.1c-1.3-1.3-2.6-2.6-4.6-2.7
			c-8.6-0.3-16.7-2.3-24.7-5.4c-3.4-1.3-5.8-3.2-7.6-6.4c-1.9-3.4-1.9-6.3-0.1-9.6c0.6-1,0.9-2.1,1.3-3.2c0.4-1.1,0.5-2.2-0.6-2.8
			c-3.4-1.7-3.4-6.3-6.9-7.9c-0.4-0.2-0.6-1-0.6-1.5c0.2-2.8-1.2-5.1-2.3-7.5c-1.1-2.4,1.4-7.3,3.9-7c3.8,0.5,7.4,0.4,11.1-0.8
			c0.6-0.2,1.3,0.3,2,0.3c3.9,0.4,5.3,4.4,8.7,5.7c2.3,0.9,3.1,0.7,3.6-1.5c0.6-2.5,2.8-3.6,4.4-5.1l-0.1-0.1
			c1.6,3.6-0.6,5.5-3.3,7.2c2.5,2.6,12,2.9,14.7,0.2c1.9-1.9,5.6-3.1,3.9-7.2c-0.4-1,0.5-2.5,1.6-2.2c4.4,1.2,4.5-2.5,5.1-4.8
			c1.4-5.3-1.7-9.6-4.2-13.9c-0.4-0.6-1.6-1.1-2.4-1.1c-5-0.3-9.9-1.2-14.5-3.2c-1-0.5-2.2-0.5-3.4-0.7c-2-0.2-4.6,1-4.7-2.7
			c0-1-1.3-0.8-2.1-0.7c-1.9,0.1-2.6-1.5-3.1-2.8c-0.5-1.3,0.7-2.2,1.6-2.8c1.6-1.1,2.7-2.4,3.9-3.9c1.6-2.1,5-2.6,6.4-0.9
			c3.3,4.3,7.5,4.8,12.2,3.7c1.4-0.3,2.5-0.1,2.9,1c1.1,2.4,2.8,2.6,5,2.2c1.2-0.2,2.5,0.1,3.7,0.4c1.3,0.4,3.3,2,4,0.3
			c1-2.4,4-4.3,2.5-7.4c-1-2-0.8-3.7,0.6-5.4c1.4-1.8,3.1-0.6,4.4-0.2C622.8,39,632.6,43.6,642.8,46.6z M535.1,156.5
			c-0.1-0.3-0.2-0.6-0.5-0.4c-0.1,0.1,0,0.5,0.1,0.8c2,3.9,4.5,7.5,7.6,10.5c2.1,5.3,5.6,9.8,8.1,14.8c0.8,1.5,1.8,3.1,4,2.7
			c2.1-0.4,3.3-1.4,3.8-3.7c0.8-3.8,2.2-7.5,3.5-11.1c0.5-1.3,0.4-2.5,0.5-3.7c0-0.7-0.2-1.5-0.8-1.8c-0.7-0.3-1.2,0.6-1.6,1
			c-2.6,2.3-3.6,5.6-5,8.6c-0.4,0.9,0.1,2.3-1.4,2.4c-1.4,0.2-2.4-0.7-2.8-1.7c-1.4-3.9-5.1-5.5-7.7-8.1
			C540.4,163.3,538.8,159,535.1,156.5z M619.2,160.4c3.3-0.7,4-3.6,5.8-5.5C622.1,155.7,619.5,156.7,619.2,160.4z"/>
		<path class="st0" d="M504.4,2.8c6.1,1.1,12,2.6,17.4,6.2c-3.9,1.4-7.3,1.5-10.2,0.1c-2.3-1.1-4.8-1.5-7.2-2.2
			C504.4,5.6,504.4,4.2,504.4,2.8z"/>
		<path class="st0" d="M522.5,90.9c-0.8-0.4-1.4-0.7-2.2-1.1c-0.1,4,0.3,7.5,3.6,10c0.7,0.5,1.3,1.5,1.3,2.4
			c0.1,2.5,2.1,2.8,3.7,3.4c0.8,0.3,1.9,0.5,2.5-0.6c0.5-1.1,0-2-0.9-2.7c-0.5-0.4-1.2-0.8-1.7-1.2c-0.8-0.7-1-1.5-0.1-2.4
			c0.8-0.8,1.6-0.3,2,0.4c1.3,2.2,3.7,4,2.7,7.1c-0.3,0.8,0.1,1.3,0.4,1.9c0.8,1.8,1,3.5-0.3,5.2c-1.5,1.9-3.5,1.8-5.4,1.4
			c-5.1-1-9-4.1-12.4-7.8c-2.7-3-5.1-6.3-6.9-9.9c-2.8-5.3,0.1-10.3,6-10.7C520.7,85.8,521.5,86.3,522.5,90.9z"/>
		<path class="st0" d="M577.6,81.6c-0.4-0.9-1-1.7-1.9-1.9c-2.4-0.7-1.9-2.2-1.1-3.8c0.8-1.6,5.6-2.5,7-1.4c0.5,0.5,0.6,0.9,0.3,1.5
			c-1.1,2.1-1.7,4.6-4.4,5.5C577.5,81.5,577.6,81.6,577.6,81.6z"/>
		<path class="st0" d="M567.6,76.9c-0.6-1.6-3.3,1.7-3.2-1.1c0.1-1.8,2.2-2.1,3.7-2.4c1.3-0.3,1.7,0.9,1.6,2.1
			C569.7,76.5,569.2,77.3,567.6,76.9z"/>
		<path class="st0" d="M559.4,75.9c1.2-0.1,1.3,0.7,1.4,1.6c0.1,1.2-0.6,2-1.6,2.2c-0.7,0.1-1-0.7-1.1-1.4
			C557.9,77.1,558.3,76.3,559.4,75.9z"/>
	</g>
</g>
<g>
</g>
<g>
</g>
<g>
</g>
<g>
</g>
<g>
</g>
<g>
</g>
<g>
</g>
<g>
</g>
<g>
</g>
<g>
</g>
<g>
</g>
<g>
</g>
<g>
</g>
<g>
</g>
<g>
</g>
</svg>
