<?xml version="1.0" encoding="utf-8"?>
<!-- Generator: Adobe Illustrator 17.1.0, SVG Export Plug-In . SVG Version: 6.00 Build 0)  -->
<!DOCTYPE svg PUBLIC "-//W3C//DTD SVG 1.1//EN" "http://www.w3.org/Graphics/SVG/1.1/DTD/svg11.dtd">
<svg version="1.1" id="Layer_1" xmlns="http://www.w3.org/2000/svg" xmlns:xlink="http://www.w3.org/1999/xlink" x="0px" y="0px"
	 viewBox="0 0 642.8 271.3" style="enable-background:new 0 0 642.8 271.3;" xml:space="preserve">
<style type="text/css">
	.st0{fill:#FA0101;}
	.st1{fill:#FB0001;}
</style>
<g>
	<g>
		<path d="M151.3,99.1c0,56.9,0,113.9,0,170.8c0,1.1-0.3,1.4-1.4,1.4c-49.5,0-99,0-148.5,0c-1.1,0-1.4-0.3-1.4-1.4
			C0,181.2,0,92.4,0,3.6c0-1.1,0.3-1.4,1.4-1.4c49.5,0,99,0,148.5,0c1.1,0,1.4,0.3,1.4,1.4c0,12.7,0,25.4,0,38.1
			c-1.1-0.1-1.7-0.8-2.1-1.9c-0.1-0.3-0.2-0.7-0.6-0.7c-0.3,0-0.5,0.4-0.5,0.7c-0.2,1.2-0.5,2.5,0.1,3.7c0.2,0.5,0.3,0.9,1,0.4
			c0.6-0.5,1.5,0.1,1.3,0.4c-0.7,1.2,0.5,0.8,0.8,1.1c0,3.1,0,6.2,0,9.3c-0.4-0.1-0.8-0.2-1.1-0.3c-1.3-0.6-1.3,0.1-1.1,1
			c0,0.2,0.1,0.5,0.2,0.7c0.3,0.8,0,1.1-0.8,1.4c-1.5,0.4-2.2-0.4-2.7-1.5c-0.5-1.1-1-2.3-2.2-2.9c-1.1-0.5-2-1-2.5-2.1
			c-0.2-0.5-0.7-0.8-1.2-0.6c-0.5,0.1-0.4,0.6-0.4,1c0,1.5-0.7,2.3-2.2,2.6c-0.6,0.1-1.3,0.1-1.8,0.6c-0.7,0.9-1.5,0.8-2.2,0.1
			c-0.8-0.9-0.6-2.3,0.4-2.9c0.5,0.3,0.2,1,0.8,1.2c0.7-0.4,1-1.1,1-1.8c0-0.8-0.3-1.9,1.3-1.5c0.4,0.1,0.8-0.6,0.8-1.2
			c0-0.8,0.1-1.7,1.1-1.9c1.1-0.2,1.5,0.7,1.8,1.6c0.9-0.9,0.7-1.9,0.2-2.8c-0.5-1.1-0.5-2,0-3.1c0.8-1.7-0.4-3.3-0.5-4.9
			c0-1.1-0.8-0.1-1.2-0.3c-0.1,0-0.2-0.1-0.2-0.2c-0.3-1.1-1.3-0.9-2-1c-1.1-0.2-1.6,0.6-1.3,1.4c0.3,0.9,0.5,2,1.4,2.7
			c0.1,0.1,0.1,0.1,0.2,0.2c-0.3,0.7-0.1,1.5-0.2,2.2c-0.1,1.1-0.9,1.6-1.8,1.9c-0.5,0.2-1.2,0.4-1.4-0.1c-0.5-1.7-2.4-2.3-2.7-4.1
			c-0.1-0.5-0.3-1.4-1.1-1.4c-0.7,0-0.6,0.9-0.9,1.4c-0.1,0.2-0.1,0.4-0.4,0.4c-1.6-1.3-1.6-1.3-2.7-3.6c-0.2-0.5-0.6-0.5-0.8-0.2
			c-0.4,0.8-0.8,1.7-1.9,1.8c-0.2,0-0.4,0.4-0.3,0.6c0.2,0.5,0.1,0.8-0.3,1c-0.5,0.3-0.9-0.1-1.2-0.4c-0.6-0.5-1.1-1-1.3-1.8
			c-0.1-0.7-0.5-1.3-1.1-1.7c-0.3-0.2-0.6-0.9-1.1-0.5c-0.4,0.4-0.4,1,0,1.4c1,1.2,0.6,2.1-0.4,3.1c-0.7-0.3-0.9-1-1.2-1.7
			c-0.3-0.8-0.6-2.1-1.5-1.9c-1,0.2-0.7,1.4-0.5,2.3c0,0,0,0.1,0,0.1c0,0.5,0,1.1-0.6,1.2c-0.6,0.1-0.8-0.3-1-0.7
			c-0.5-1.4-1.6-2.4-2.5-3.4c-0.3-0.3-0.7-0.8-1-0.1c-0.4,1-0.7,2.2,0.2,3c0.9,0.7,0.7,1.5,0.6,2.3c-0.1,0.4-0.3,0.9-0.8,1
			c-0.6,0.1-0.8-0.5-0.8-0.9c-0.4-2-2.4-2.6-3.5-3.9c-0.6-0.7-1.3-1.3-1.4-2.2c-0.4-2.1-0.6-4.2-0.9-6.3c-0.2-1.2-0.8-2.4-0.6-3.6
			c0.4-2.6-1.8-4.1-2.5-6.2c-0.4,2,0.1,3.8,0.5,5.6c0.9,3.5,0.9,3.5,0.3,4.9c-1.3-2.4-1.9-4.9-2.2-7.6c0-0.4-0.1-1.1-0.6-1
			c-0.3,0.1-0.9,0.3-0.7,1.2c1.2,6,2.9,12,3.9,18.1c0.6,3.3,1.3,6.7,1.9,10c0.8,4.4,2.5,8.4,5.1,12c0.5,0.7,1.2,1.1,2.1,1.3
			c3.5,0.8,7.2,0.6,10.7,1.2c1.5,0.3,3,0.1,4.3,1.3c1.1,0.9,2.6,1.4,4.1,0.4c0.3-0.2,0.7-0.2,0.9,0.1c0.5,0.6,0.9,0.4,1.5,0.1
			c0.8-0.4,1.7-0.1,2.5,0c0.8,0.1,0.4,0.6,0.3,1.1c-0.1,0.2,0.2,0.3,0.4,0.3c2.6-0.1,5.3,1.3,7.7-0.6c0.2-0.2,0.4-0.3,0.7-0.1
			c0.3,0.2,0.2,0.4,0.1,0.6c-0.6,0.9,0.1,1.1,0.7,1.3c0.8,0.3,1.6,0.4,2.4-0.2c0.5-0.4,1-0.9,1.8-0.2c0.4,0.4,0.9-0.1,1.3-0.4
			c-1.2-0.6-0.1-0.9,0.2-1.3c1.1-1.2,1.1-1.3-0.4-2.1c-0.5-0.3-1-0.2-1.5-0.1c-1,0.2-2.1,0.3-2.8-0.8c-0.2-0.4-0.3-0.8-0.1-1.1
			c0.1-0.4,0.5-0.4,0.9-0.3c0.8,0.3,0.8-0.2,0.9-0.7c0-0.6-0.1-1.3,0.1-1.8c0.5-1.3,0.7,0.7,1.4,0.2c0.2-0.2,1-0.3,1.1,0.2
			c0.1,0.7-0.7,0.4-1.1,0.7c1,0.6,2,0,3,0.2c0,8.6,0,17.1,0,25.7c-1,0-2.1-0.2-3-0.6c-3.9-1.4-8-2.2-11.9-3.3
			c-3.5-1-6.9-1.9-10.4-2.8c-3.8-0.9-7.7-1.8-11.5-2.5c-2.4-0.4-4.7-0.6-6.4-2.6c-0.2-0.2-0.5-0.3-0.8-0.4c-3.3-1.1-6.8-1.5-10-2.9
			c-1-0.4-1.5,0.5-1.2,1c1.1,2.3,0.2,5.1,2.3,7c0.2,0.1,0,0.2,0,0.4c-0.2,1.8,0.1,2.4,1.8,2.9c2.9,0.8,5.5,2.4,8.5,3
			c0.9,0.2,1.8,0.5,2.6,1c2.8,1.5,5.8,2.5,8.9,3.2c3.1,0.7,6.2,1.6,9.1,3.1c0.7,0.3,1.4,0.7,1.3,1.6c-0.1,0.9-0.5,1.5-1.3,1.8
			c-0.3,0.1-0.6,0.3-0.9,0.4c-2.3,1.3-4.2,2.9-4.3,5.8c-0.1,0.9-0.2,2-1.3,2.4c-1.4,0.5-2.4,0.2-3.3-0.9c-1.1-1.4-2.6-2.1-4.3-2.3
			c-0.5-0.1-0.9-0.3-1.3-0.3c-2.3-0.5-4.2-1.8-6.5-2.5c-0.4-0.1-0.9-0.3-1.1,0.1c-0.3,0.6-0.2,1.2,0.1,1.9c0.2,0.6,0.4,0.2,0.7,0.1
			c0.8-0.2,1.2,0.6,0.9,1c-0.5,0.7,0,1.2,0.3,1.6c1,1.3,2.2,2.5,3.3,3.8c0.1,0.1,0.3,0.4,0.4,0.2c0.6-1.2,1-0.2,1.3,0.2
			c1,1,2.2,1.7,3.2,2.6c0.5,0.4,2.2,0.4,0.8,1.7c-0.2,0.2,0.3,0.4,0.5,0.6c0.8,0.9,1.9,1.4,2.5,2.4c0.5-0.3,0.8-1,1.5-0.8
			c0.7,0.3,0.3,0.9,0.4,1.4c0.2,1,1.2,1.3,2,1.8c0.6,0.3,1.1,0.3,1.6-0.3c0.7-0.9,1.3-0.6,1.9,0.1c0.4,0.5,0.8,1.1,1.5,1
			c1.6-0.2,2.4-1.2,2.7-2.9c0.3-1.9,0.8-3.7,2.2-5.1c0.5-0.5,0.8-1,1-1.7c0.2-1.2,0.9-2.1,1.6-3c1.3-1.8,1.8-3.7,0.7-5.9
			c-0.4-0.9-1.1-1.8-1.3-2.8c-0.2-1,0-1.3,0.9-1.5c2.3-0.5,4.5,0,6.5,0.8C145.8,98.2,148.5,98.5,151.3,99.1z M34.4,107.8
			c0,0.5,0,0.8,0,1.1c-0.2,2.4,0.5,3,2.7,1.5c1.8-1.2,3.8-1.9,5.9-2.2c1-0.2,2.1-0.2,3.1-0.2c3.6-0.2,7.2-1.5,10.9-0.2
			c1.6,0.6,2.1,1.2,1.7,2.9c-0.3,1.1-1.1,2-1,3.2c0.1,2.8-0.9,5.1-3.3,6.7c-0.4,0.3-0.7,0.6-1.1,0.8c-0.8,0.5-1.5,1-2.2,1.7
			c-1.9,2.4-4.7,3-7.3,2.2c-2.6-0.8-5.2-1.6-8-2.1c-0.9-0.1-1.2,0-1.5,0.9c-1,2.6-0.4,5.3-0.5,8c-0.1,2.1,0.2,4.4,1.3,6.2
			c1.9,3.2,2.2,6.9,4.3,9.9c0.3,0.5,0.3,1.1,0.4,1.7c0.1,1.3-0.3,2.6-0.1,3.7c0.2,1.4,1.2,2.8,2,4.1c0.6,1,1.5,1.8,2.9,1.6
			c0.6-0.1,1.3,0.3,1.4,0.9c0.1,1,0.9,1.2,1.5,1.7c1.2,1,2.7,1.7,3.4,3.2c0.6,1.4,1.3,2.7,2.2,3.9c1.7,2,3.8,3.6,6.6,3.4
			c3.1-0.3,6.1-0.9,8.7-2.7c0.7-0.5,1.5-0.7,2.3-0.9c2.2-0.5,4.3-1,5.2-3.6c0.4-1.2,0.2-1.7-0.9-2.1c-1.4-0.4-2.8-0.6-4.2-0.6
			c-2.8,0-5.6-0.5-8.4-1c-1.2-0.2-2.4-2.1-2.4-3.9c0-1.1,1.2-1.3,2-1.5c2.1-0.5,4.2-1.2,6.3-1.8c0.5-0.1,0.9-0.2,0.9-0.8
			c0-0.5-0.5-0.8-0.9-0.9c-0.6-0.2-1.2-0.3-1.9-0.4c-2.4-0.2-4.8-0.4-7,1.2c-1.7,1.2-3.8,1.6-5.7,2.3c-0.4,0.1-0.6,0-1,0
			c-1.5-0.2-1.5-1.4-1.7-2.4c-0.3-1.2-0.2-2.4,0.9-3.1c1.3-0.9,2.7-1.1,4.1-0.5c0.9,0.4,1.9,0.6,2.7,0.1c1.3-0.7,2.5-1.3,3.9-1.8
			c1-0.3,1.2-1,0.5-1.8c-0.6-0.7-1.1-1.6-2-2c-2.1-1-2.9-2.8-3.7-4.8c-1-2.4,0.8-5.6,3.3-6.2c1.3-0.3,2.6-0.1,3.8-0.5
			c2-0.7,4-1.7,6.3-1.7c0.8,0,1.3-0.7,1.4-1.6c0-1.3,0.5-1.4,1.6-0.6c1.9,1.4,2.3,3.6,2.2,5.6c-0.2,2.1,0.2,3.9,0.8,5.8
			c0.2,0.8,0.8,1.4,1.4,1.9c0.3,0.3,0.7,0.6,1.2,0.3c0.4-0.3,0.7-0.6,0.6-1.1c0-0.5,0-1.1-0.3-1.6c-1.1-2-0.8-3.8,0.4-5.6
			c0.5-0.7,0.5-1.3,0.3-2.1c-0.5-2.9-1.6-5.5-3.6-7.6c-2.2-2.3-4.4-4.7-7.9-5.1c-0.8-0.1-1.3-0.5-1.6-1.5c-0.6-2.4-1-4.9-2.8-6.8
			c-2.4-2.6-1.7-5,1.1-6.5c0.8-0.4,1.4-0.8,1.5-1.9c0-2.6-0.6-5-2-7.3c-2.1-3.7-5.2-6.3-8.4-8.9c-2.6-2-8.3-2.2-10.7-0.3
			c-3,2.5-5.8,5-7.6,8.6C36.2,99,34.3,103.2,34.4,107.8z M114.5,11.3c1.8,0,2.6-1.2,2.2-2.6c-0.3-1.2-1.3-1.9-1.7-2.9
			c-0.1-0.4-0.5-0.5-0.9-0.4c-1.1,0.3-2.3,0.4-3.4,1c-1,0.5-1.6,1.3-1.5,2.3c0.1,1.1,0.4,2,1.9,2.2C112.3,11,113.6,10.7,114.5,11.3z
			 M144.6,40.5c1.1,0.3,1.5-0.2,1.6-1.3c0-1.5-0.7-2.7-1.3-3.9c-0.3-0.5-0.7-0.6-1.2,0c-1.4,1.7-0.2,3.2,0,4.9
			c0.6-0.3,0.8-1.4,1.4-0.9C145.7,39.7,144.8,40.1,144.6,40.5z M117.5,93.5c-0.4,0-0.6,0.3-0.5,0.8c0.3,1.2,0.5,2.4,0.8,3.6
			c0.2,0.7,0.6,0.7,1.3,0.5c1.1-0.4,1.2-1.4,1.2-2.3C120.4,95.3,118.4,93.6,117.5,93.5z M143.3,42.6c-0.2,0.1-0.3,0.2-0.4,0.3
			c-0.7,1,0.2,3.3,1.4,3.5c0.7,0.1,1.1-0.2,0.8-0.8c-0.4-0.9-0.9-1.8-1.5-2.7C143.7,42.8,143.5,42.8,143.3,42.6z M97,20.8
			c0.7-0.9,0.6-1.7,0.7-2.5c0-0.3-0.2-0.9-0.7-0.8c-0.5,0-0.4,0.5-0.3,0.8C96.7,19,96.8,19.8,97,20.8z M39.8,113.2
			c-0.7,0-1.2-0.1-1.2,0.6c0,0.7,0.5,0.6,0.9,0.6c0.5,0,1.2,0.1,1.3-0.4C40.8,113.4,40.2,113.1,39.8,113.2z M118,29.7
			c-0.3-0.3,0-1-0.6-1c-0.5,0-0.5,0.4-0.5,0.7c0,0.4,0.1,0.8,0.6,0.9C117.8,30.3,118,30.1,118,29.7z"/>
		<path class="st0" d="M151.3,61.5c-1-0.1-2,0.5-3-0.2c0.3-0.3,1.2-0.1,1.1-0.7c-0.1-0.6-0.9-0.4-1.1-0.2c-0.6,0.6-0.9-1.5-1.4-0.2
			c-0.2,0.5,0,1.2-0.1,1.8c0,0.5-0.1,1-0.9,0.7c-0.3-0.1-0.7-0.1-0.9,0.3c-0.1,0.4-0.1,0.8,0.1,1.1c0.7,1.1,1.8,1,2.8,0.8
			c0.6-0.1,1-0.2,1.5,0.1c1.5,0.7,1.5,0.9,0.4,2.1c-0.3,0.3-1.3,0.7-0.2,1.3c-0.4,0.3-0.9,0.8-1.3,0.4c-0.8-0.7-1.3-0.2-1.8,0.2
			c-0.8,0.7-1.5,0.5-2.4,0.2c-0.7-0.2-1.3-0.4-0.7-1.3c0.1-0.2,0.2-0.4-0.1-0.6c-0.2-0.2-0.5-0.1-0.7,0.1c-2.4,2-5.1,0.5-7.7,0.6
			c-0.2,0-0.5-0.1-0.4-0.3c0.1-0.4,0.6-1-0.3-1.1c-0.8-0.1-1.7-0.5-2.5,0c-0.6,0.3-1,0.5-1.5-0.1c-0.2-0.3-0.6-0.3-0.9-0.1
			c-1.5,1-3,0.6-4.1-0.4c-1.3-1.1-2.9-1-4.3-1.3c-3.5-0.7-7.2-0.5-10.7-1.2c-0.9-0.2-1.5-0.5-2.1-1.3c-2.6-3.6-4.3-7.6-5.1-12
			c-0.6-3.3-1.4-6.7-1.9-10c-1-6.1-2.7-12-3.9-18.1c-0.2-1,0.5-1.2,0.7-1.2c0.5-0.1,0.5,0.6,0.6,1c0.3,2.7,0.9,5.2,2.2,7.6
			c0.6-1.4,0.6-1.4-0.3-4.9c-0.5-1.8-1-3.6-0.5-5.6c0.7,2.1,2.9,3.6,2.5,6.2c-0.2,1.3,0.4,2.4,0.6,3.6c0.4,2.1,0.6,4.2,0.9,6.3
			c0.2,0.9,0.8,1.5,1.4,2.2c1.1,1.4,3.1,2,3.5,3.9c0.1,0.4,0.3,1,0.8,0.9c0.5-0.1,0.7-0.6,0.8-1c0.1-0.8,0.3-1.6-0.6-2.3
			c-1-0.8-0.6-2-0.2-3c0.3-0.7,0.7-0.2,1,0.1c1,1.1,2,2.1,2.5,3.4c0.2,0.4,0.4,0.9,1,0.7c0.6-0.1,0.6-0.7,0.6-1.2c0,0,0-0.1,0-0.1
			c-0.2-0.9-0.5-2.1,0.5-2.3c0.9-0.2,1.2,1.1,1.5,1.9c0.3,0.6,0.5,1.3,1.2,1.7c0.9-0.9,1.4-1.9,0.4-3.1c-0.3-0.4-0.4-1,0-1.4
			c0.5-0.4,0.8,0.3,1.1,0.5c0.6,0.4,1,1,1.1,1.7c0.1,0.8,0.7,1.3,1.3,1.8c0.3,0.3,0.7,0.6,1.2,0.4c0.4-0.2,0.5-0.5,0.3-1
			c-0.1-0.2,0-0.6,0.3-0.6c1.1-0.1,1.5-1,1.9-1.8c0.2-0.4,0.6-0.3,0.8,0.2c1,2.3,1,2.3,2.7,3.6c0.3,0,0.3-0.2,0.4-0.4
			c0.3-0.5,0.1-1.4,0.9-1.4c0.8,0,1,0.9,1.1,1.4c0.3,1.8,2.2,2.5,2.7,4.1c0.1,0.5,0.9,0.3,1.4,0.1c0.9-0.4,1.7-0.8,1.8-1.9
			c0-0.7-0.1-1.5,0.2-2.2c0-0.1,0.1-0.3,0-0.3c-0.1-0.1-0.2,0-0.2,0.1c-0.9-0.7-1.1-1.8-1.4-2.7c-0.3-0.8,0.2-1.6,1.3-1.4
			c0.7,0.1,1.8-0.1,2,1c0,0.1,0.1,0.2,0.2,0.2c0.4,0.2,1.1-0.8,1.2,0.3c0.1,1.7,1.2,3.3,0.5,4.9c-0.5,1.1-0.5,2,0,3.1
			c0.4,0.9,0.6,1.9-0.2,2.8c-0.3-0.9-0.7-1.7-1.8-1.6c-1,0.2-1.1,1-1.1,1.9c0,0.6-0.4,1.3-0.8,1.2c-1.6-0.4-1.2,0.7-1.3,1.5
			c0,0.8-0.4,1.4-1,1.8c-0.6-0.2-0.3-0.9-0.8-1.2c-1,0.6-1.2,2-0.4,2.9c0.6,0.7,1.4,0.8,2.2-0.1c0.4-0.5,1.2-0.5,1.8-0.6
			c1.4-0.3,2.2-1.1,2.2-2.6c0-0.4-0.1-0.9,0.4-1c0.6-0.2,1,0.1,1.2,0.6c0.5,1.1,1.5,1.7,2.5,2.1c1.3,0.5,1.7,1.7,2.2,2.9
			c0.6,1.1,1.3,1.9,2.7,1.5c0.8-0.2,1.1-0.6,0.8-1.4c-0.1-0.2-0.2-0.4-0.2-0.7c-0.1-0.9-0.1-1.6,1.1-1c0.3,0.2,0.7,0.2,1.1,0.3
			C151.3,57.1,151.3,59.3,151.3,61.5z"/>
		<path class="st1" d="M151.3,99.1c-2.7-0.6-5.5-1-8.1-2c-2.1-0.8-4.3-1.3-6.5-0.8c-0.9,0.2-1.2,0.5-0.9,1.5
			c0.3,1.1,0.9,1.9,1.3,2.8c1,2.2,0.5,4.1-0.7,5.9c-0.7,0.9-1.4,1.8-1.6,3c-0.1,0.6-0.5,1.2-1,1.7c-1.4,1.4-1.9,3.2-2.2,5.1
			c-0.3,1.7-1.1,2.6-2.7,2.9c-0.8,0.1-1.1-0.5-1.5-1c-0.6-0.8-1.2-1-1.9-0.1c-0.5,0.6-1,0.6-1.6,0.3c-0.8-0.5-1.8-0.8-2-1.8
			c-0.1-0.5,0.4-1.1-0.4-1.4c-0.6-0.2-0.9,0.4-1.5,0.8c-0.5-1.1-1.7-1.6-2.5-2.4c-0.2-0.2-0.6-0.5-0.5-0.6c1.4-1.3-0.3-1.4-0.8-1.7
			c-1.1-0.9-2.3-1.6-3.2-2.6c-0.3-0.3-0.7-1.4-1.3-0.2c-0.1,0.3-0.3-0.1-0.4-0.2c-1.1-1.2-2.3-2.5-3.3-3.8c-0.3-0.4-0.8-0.8-0.3-1.6
			c0.3-0.3-0.1-1.2-0.9-1c-0.3,0.1-0.5,0.4-0.7-0.1c-0.2-0.6-0.3-1.3-0.1-1.9c0.2-0.5,0.7-0.2,1.1-0.1c2.2,0.7,4.2,2,6.5,2.5
			c0.4,0.1,0.8,0.3,1.3,0.3c1.7,0.2,3.2,0.9,4.3,2.3c0.9,1.1,1.9,1.5,3.3,0.9c1.1-0.5,1.3-1.5,1.3-2.4c0.2-3,2-4.6,4.3-5.8
			c0.3-0.2,0.6-0.3,0.9-0.4c0.8-0.3,1.3-0.9,1.3-1.8c0.1-0.9-0.6-1.3-1.3-1.6c-2.9-1.4-6-2.3-9.1-3.1c-3.1-0.7-6.1-1.7-8.9-3.2
			c-0.8-0.4-1.7-0.8-2.6-1c-3-0.6-5.6-2.2-8.5-3c-1.7-0.5-2-1.1-1.8-2.9c0-0.1,0.2-0.2,0-0.4c-2.1-1.9-1.2-4.8-2.3-7
			c-0.2-0.5,0.3-1.4,1.2-1c3.2,1.4,6.7,1.8,10,2.9c0.3,0.1,0.6,0.2,0.8,0.4c1.7,1.9,4,2.2,6.4,2.6c3.9,0.7,7.7,1.6,11.5,2.5
			c3.5,0.8,7,1.8,10.4,2.8c4,1.1,8,1.9,11.9,3.3c1,0.3,2,0.6,3,0.6C151.3,91.2,151.3,95.2,151.3,99.1z"/>
		<path class="st0" d="M151.3,45.6c-0.2-0.4-1.4,0-0.8-1.1c0.2-0.3-0.7-0.9-1.3-0.4c-0.7,0.5-0.8,0.1-1-0.4
			c-0.6-1.2-0.3-2.5-0.1-3.7c0-0.3,0.2-0.6,0.5-0.7c0.5-0.1,0.5,0.3,0.6,0.7c0.3,1,0.9,1.7,2.1,1.9C151.3,43,151.3,44.3,151.3,45.6z
			"/>
		<path class="st1" d="M34.4,107.8c-0.1-4.6,1.8-8.8,3.9-13c1.8-3.5,4.6-6.1,7.6-8.6c2.4-2,8.1-1.8,10.7,0.3
			c3.2,2.5,6.3,5.2,8.4,8.9c1.3,2.3,2,4.7,2,7.3c0,1-0.7,1.5-1.5,1.9c-2.8,1.5-3.5,3.8-1.1,6.5c1.8,1.9,2.2,4.4,2.8,6.8
			c0.2,1,0.8,1.4,1.6,1.5c3.5,0.4,5.7,2.7,7.9,5.1c2,2.1,3.1,4.8,3.6,7.6c0.1,0.8,0.1,1.4-0.3,2.1c-1.2,1.8-1.5,3.7-0.4,5.6
			c0.3,0.5,0.2,1.1,0.3,1.6c0,0.5-0.2,0.8-0.6,1.1c-0.5,0.3-0.9,0-1.2-0.3c-0.6-0.5-1.2-1.1-1.4-1.9c-0.6-1.9-1-3.7-0.8-5.8
			c0.2-2-0.3-4.2-2.2-5.6c-1-0.8-1.5-0.6-1.6,0.6c0,1-0.5,1.7-1.4,1.6c-2.3-0.1-4.2,1-6.3,1.7c-1.3,0.4-2.5,0.2-3.8,0.5
			c-2.5,0.6-4.3,3.8-3.3,6.2c0.8,2,1.6,3.8,3.7,4.8c0.9,0.4,1.3,1.3,2,2c0.7,0.8,0.5,1.5-0.5,1.8c-1.4,0.5-2.6,1.1-3.9,1.8
			c-0.8,0.5-1.8,0.3-2.7-0.1c-1.4-0.6-2.8-0.4-4.1,0.5c-1.2,0.8-1.2,1.9-0.9,3.1c0.2,1,0.3,2.2,1.7,2.4c0.3,0,0.6,0.2,1,0
			c1.9-0.8,4.1-1.1,5.7-2.3c2.2-1.6,4.6-1.4,7-1.2c0.6,0,1.3,0.2,1.9,0.4c0.4,0.1,0.9,0.3,0.9,0.9c0,0.5-0.5,0.6-0.9,0.8
			c-2.1,0.6-4.1,1.3-6.3,1.8c-0.8,0.2-2,0.3-2,1.5c0,1.7,1.3,3.7,2.4,3.9c2.8,0.5,5.5,1,8.4,1c1.4,0,2.8,0.2,4.2,0.6
			c1.1,0.3,1.4,0.8,0.9,2.1c-0.9,2.6-3,3.1-5.2,3.6c-0.9,0.2-1.6,0.5-2.3,0.9c-2.6,1.8-5.6,2.4-8.7,2.7c-2.8,0.2-4.9-1.4-6.6-3.4
			c-1-1.1-1.6-2.5-2.2-3.9c-0.7-1.5-2.1-2.2-3.4-3.2c-0.6-0.5-1.4-0.7-1.5-1.7c0-0.7-0.8-1-1.4-0.9c-1.4,0.2-2.3-0.6-2.9-1.6
			c-0.8-1.3-1.9-2.7-2-4.1c-0.1-1.1,0.3-2.4,0.1-3.7c-0.1-0.6-0.1-1.3-0.4-1.7c-2.1-3-2.4-6.8-4.3-9.9c-1.1-1.8-1.3-4-1.3-6.2
			c0.1-2.7-0.5-5.4,0.5-8c0.3-0.8,0.7-1,1.5-0.9c2.7,0.4,5.3,1.3,8,2.1c2.6,0.8,5.4,0.2,7.3-2.2c0.6-0.8,1.3-1.3,2.2-1.7
			c0.4-0.2,0.7-0.5,1.1-0.8c2.3-1.6,3.4-3.9,3.3-6.7c0-1.2,0.7-2.1,1-3.2c0.4-1.7-0.1-2.3-1.7-2.9c-3.7-1.3-7.3,0-10.9,0.2
			c-1,0.1-2.1,0.1-3.1,0.2c-2.1,0.3-4.1,1-5.9,2.2c-2.2,1.5-2.8,0.9-2.7-1.5C34.4,108.7,34.4,108.4,34.4,107.8z"/>
		<path class="st0" d="M114.5,11.3c-0.9-0.6-2.2-0.3-3.4-0.4c-1.4-0.2-1.8-1.1-1.9-2.2c-0.1-1,0.4-1.8,1.5-2.3
			c1.1-0.5,2.3-0.6,3.4-1c0.3-0.1,0.7,0,0.9,0.4c0.4,1.1,1.4,1.8,1.7,2.9C117.1,10.1,116.3,11.3,114.5,11.3z"/>
		<path class="st0" d="M144.6,40.5c0.1-0.4,1-0.8,0.4-1.2c-0.6-0.4-0.8,0.6-1.4,0.9c-0.2-1.7-1.4-3.3,0-4.9c0.5-0.6,0.9-0.5,1.2,0
			c0.7,1.2,1.4,2.4,1.3,3.9C146.2,40.3,145.7,40.8,144.6,40.5z"/>
		<path class="st0" d="M117.5,93.5c0.8,0,2.8,1.8,2.8,2.5c0,0.9-0.2,1.9-1.2,2.3c-0.6,0.3-1.1,0.2-1.3-0.5c-0.3-1.2-0.5-2.4-0.8-3.6
			C116.9,93.8,117.1,93.6,117.5,93.5z"/>
		<path class="st0" d="M143.3,42.6c0.2,0.1,0.4,0.2,0.4,0.3c0.5,0.9,1.1,1.8,1.5,2.7c0.2,0.6-0.2,0.9-0.8,0.8
			c-1.2-0.3-2.1-2.5-1.4-3.5C143,42.9,143.2,42.8,143.3,42.6z"/>
		<path class="st0" d="M97,20.8c-0.2-1-0.3-1.8-0.4-2.5c0-0.3-0.2-0.8,0.3-0.8c0.5,0,0.7,0.5,0.7,0.8C97.5,19,97.6,19.9,97,20.8z"/>
		<path class="st0" d="M39.8,113.2c0.4,0,1,0.3,1,0.8c0,0.5-0.8,0.4-1.3,0.4c-0.4,0-1,0.1-0.9-0.6C38.6,113.1,39.1,113.2,39.8,113.2
			z"/>
		<path class="st0" d="M118,29.7c0,0.4-0.2,0.6-0.5,0.6c-0.5,0-0.6-0.5-0.6-0.9c0-0.3-0.1-0.8,0.5-0.7C118,28.7,117.7,29.4,118,29.7
			z"/>
		<path d="M136.9,39.9c0-0.1,0.1-0.3,0.2-0.1c0,0,0,0.2,0,0.3C137,40.1,137,40,136.9,39.9z"/>
	</g>
	<g>
		<path d="M413.9,99.1c0,56.9,0,113.9,0,170.8c0,1.1-0.3,1.4-1.4,1.4c-49.5,0-99,0-148.5,0c-1.1,0-1.4-0.3-1.4-1.4
			c0-88.8,0-177.5,0-266.3c0-1.1,0.3-1.4,1.4-1.4c49.5,0,99,0,148.5,0c1.1,0,1.4,0.3,1.4,1.4c0,12.7,0,25.4,0,38.1
			c-1.1-0.1-1.7-0.8-2.1-1.9c-0.1-0.3-0.2-0.7-0.6-0.7c-0.3,0-0.5,0.4-0.5,0.7c-0.2,1.2-0.5,2.5,0.1,3.7c0.2,0.5,0.3,0.9,1,0.4
			c0.6-0.5,1.5,0.1,1.3,0.4c-0.7,1.2,0.5,0.8,0.8,1.1c0,3.1,0,6.2,0,9.3c-0.4-0.1-0.8-0.2-1.1-0.3c-1.3-0.6-1.3,0.1-1.1,1
			c0,0.2,0.1,0.5,0.2,0.7c0.3,0.8,0,1.1-0.8,1.4c-1.5,0.4-2.2-0.4-2.7-1.5c-0.5-1.1-1-2.3-2.2-2.9c-1.1-0.5-2-1-2.5-2.1
			c-0.2-0.5-0.7-0.8-1.2-0.6c-0.5,0.1-0.4,0.6-0.4,1c0,1.5-0.7,2.3-2.2,2.6c-0.6,0.1-1.3,0.1-1.8,0.6c-0.7,0.9-1.5,0.8-2.2,0.1
			c-0.8-0.9-0.6-2.3,0.4-2.9c0.5,0.3,0.2,1,0.8,1.2c0.7-0.4,1-1.1,1-1.8c0-0.8-0.3-1.9,1.3-1.5c0.4,0.1,0.8-0.6,0.8-1.2
			c0-0.8,0.1-1.7,1.1-1.9c1.1-0.2,1.5,0.7,1.8,1.6c0.9-0.9,0.7-1.9,0.2-2.8c-0.5-1.1-0.5-2,0-3.1c0.8-1.7-0.4-3.3-0.5-4.9
			c0-1.1-0.8-0.1-1.2-0.3c-0.1,0-0.2-0.1-0.2-0.2c-0.3-1.1-1.3-0.9-2-1c-1.1-0.2-1.6,0.6-1.3,1.4c0.3,0.9,0.5,2,1.4,2.7
			c0.1,0.1,0.1,0.1,0.2,0.2c-0.3,0.7-0.1,1.5-0.2,2.2c-0.1,1.1-0.9,1.6-1.8,1.9c-0.5,0.2-1.2,0.4-1.4-0.1c-0.5-1.7-2.4-2.3-2.7-4.1
			c-0.1-0.5-0.3-1.4-1.1-1.4c-0.7,0-0.6,0.9-0.9,1.4c-0.1,0.2-0.1,0.4-0.4,0.4c-1.6-1.3-1.6-1.3-2.7-3.6c-0.2-0.5-0.6-0.5-0.8-0.2
			c-0.4,0.8-0.8,1.7-1.9,1.8c-0.2,0-0.4,0.4-0.2,0.6c0.2,0.5,0.1,0.8-0.3,1c-0.5,0.3-0.9-0.1-1.2-0.4c-0.6-0.5-1.1-1-1.3-1.8
			c-0.1-0.7-0.5-1.3-1.1-1.7c-0.3-0.2-0.6-0.9-1.1-0.5c-0.4,0.4-0.4,1,0,1.4c1,1.2,0.6,2.1-0.4,3.1c-0.7-0.3-0.9-1-1.2-1.7
			c-0.3-0.8-0.6-2.1-1.5-1.9c-1,0.2-0.7,1.4-0.5,2.3c0,0,0,0.1,0,0.1c0,0.5,0,1.1-0.6,1.2c-0.6,0.1-0.8-0.3-1-0.7
			c-0.5-1.4-1.6-2.4-2.5-3.4c-0.3-0.3-0.7-0.8-1-0.1c-0.4,1-0.7,2.2,0.2,3c0.9,0.7,0.7,1.5,0.6,2.3c-0.1,0.4-0.3,0.9-0.8,1
			c-0.6,0.1-0.8-0.5-0.8-0.9c-0.4-2-2.4-2.6-3.5-3.9c-0.6-0.7-1.3-1.3-1.4-2.2c-0.4-2.1-0.6-4.2-0.9-6.3c-0.2-1.2-0.8-2.4-0.6-3.6
			c0.4-2.6-1.8-4.1-2.5-6.2c-0.4,2,0.1,3.8,0.5,5.6c0.9,3.5,0.9,3.5,0.3,4.9c-1.3-2.4-1.9-4.9-2.2-7.6c0-0.4-0.1-1.1-0.6-1
			c-0.3,0.1-0.9,0.3-0.7,1.2c1.2,6,2.9,12,3.9,18.1c0.6,3.3,1.3,6.7,1.9,10c0.8,4.4,2.5,8.4,5.1,12c0.5,0.7,1.2,1.1,2.1,1.3
			c3.5,0.8,7.2,0.6,10.7,1.2c1.5,0.3,3,0.1,4.3,1.3c1.1,0.9,2.6,1.4,4.1,0.4c0.3-0.2,0.7-0.2,0.9,0.1c0.5,0.6,0.9,0.4,1.5,0.1
			c0.8-0.4,1.7-0.1,2.5,0c0.8,0.1,0.4,0.6,0.3,1.1c-0.1,0.2,0.2,0.3,0.4,0.3c2.6-0.1,5.3,1.3,7.7-0.6c0.2-0.2,0.4-0.3,0.7-0.1
			c0.3,0.2,0.2,0.4,0.1,0.6c-0.6,0.9,0.1,1.1,0.7,1.3c0.8,0.3,1.6,0.4,2.4-0.2c0.5-0.4,1-0.9,1.8-0.2c0.4,0.4,0.9-0.1,1.3-0.4
			c-1.2-0.6-0.1-0.9,0.2-1.3c1.1-1.2,1.1-1.3-0.4-2.1c-0.5-0.3-1-0.2-1.5-0.1c-1,0.2-2.1,0.3-2.8-0.8c-0.2-0.4-0.3-0.8-0.1-1.1
			c0.1-0.4,0.5-0.4,0.9-0.3c0.8,0.3,0.8-0.2,0.9-0.7c0-0.6-0.1-1.3,0.1-1.8c0.5-1.3,0.7,0.7,1.4,0.2c0.2-0.2,1-0.3,1.1,0.2
			c0.1,0.7-0.7,0.4-1.1,0.7c1,0.6,2,0,3,0.2c0,8.6,0,17.1,0,25.7c-1,0-2.1-0.2-3-0.6c-3.9-1.4-8-2.2-11.9-3.3
			c-3.5-1-6.9-1.9-10.4-2.8c-3.8-0.9-7.7-1.8-11.5-2.5c-2.4-0.4-4.7-0.6-6.4-2.6c-0.2-0.2-0.5-0.3-0.8-0.4c-3.3-1.1-6.8-1.5-10-2.9
			c-1-0.4-1.5,0.5-1.2,1c1.1,2.3,0.2,5.1,2.3,7c0.2,0.1,0,0.2,0,0.4c-0.2,1.8,0.1,2.4,1.8,2.9c2.9,0.8,5.5,2.4,8.5,3
			c0.9,0.2,1.8,0.5,2.6,1c2.8,1.5,5.8,2.5,8.9,3.2c3.1,0.7,6.2,1.6,9.1,3.1c0.7,0.3,1.4,0.7,1.3,1.6c-0.1,0.9-0.5,1.5-1.3,1.8
			c-0.3,0.1-0.6,0.3-0.9,0.4c-2.3,1.3-4.2,2.9-4.3,5.8c-0.1,0.9-0.2,2-1.3,2.4c-1.4,0.5-2.4,0.2-3.3-0.9c-1.1-1.4-2.6-2.1-4.3-2.3
			c-0.5-0.1-0.9-0.3-1.3-0.3c-2.3-0.5-4.2-1.8-6.5-2.5c-0.4-0.1-0.9-0.3-1.1,0.1c-0.3,0.6-0.2,1.2,0.1,1.9c0.2,0.6,0.4,0.2,0.7,0.1
			c0.8-0.2,1.2,0.6,0.9,1c-0.5,0.7,0,1.2,0.3,1.6c1,1.3,2.2,2.5,3.3,3.8c0.1,0.1,0.3,0.4,0.4,0.2c0.6-1.2,1-0.2,1.3,0.2
			c1,1,2.2,1.7,3.2,2.6c0.5,0.4,2.2,0.4,0.8,1.7c-0.2,0.2,0.3,0.4,0.5,0.6c0.8,0.9,1.9,1.4,2.5,2.4c0.5-0.3,0.8-1,1.5-0.8
			c0.7,0.3,0.3,0.9,0.4,1.4c0.2,1,1.2,1.3,2,1.8c0.6,0.3,1.1,0.3,1.6-0.3c0.7-0.9,1.3-0.6,1.9,0.1c0.4,0.5,0.8,1.1,1.5,1
			c1.6-0.2,2.4-1.2,2.7-2.9c0.3-1.9,0.8-3.7,2.2-5.1c0.5-0.5,0.8-1,1-1.7c0.2-1.2,0.9-2.1,1.6-3c1.3-1.8,1.8-3.7,0.7-5.9
			c-0.4-0.9-1.1-1.8-1.3-2.8c-0.2-1,0-1.3,0.9-1.5c2.3-0.5,4.5,0,6.5,0.8C408.4,98.2,411.2,98.5,413.9,99.1z M297,107.8
			c0,0.5,0,0.8,0,1.1c-0.2,2.4,0.5,3,2.7,1.5c1.8-1.2,3.8-1.9,5.9-2.2c1-0.2,2.1-0.2,3.1-0.2c3.6-0.2,7.2-1.5,10.9-0.2
			c1.6,0.6,2.1,1.2,1.7,2.9c-0.3,1.1-1.1,2-1,3.2c0.1,2.8-0.9,5.1-3.3,6.7c-0.4,0.3-0.7,0.6-1.1,0.8c-0.8,0.5-1.5,1-2.2,1.7
			c-1.9,2.4-4.7,3-7.3,2.2c-2.6-0.8-5.2-1.6-8-2.1c-0.9-0.1-1.2,0-1.5,0.9c-1,2.6-0.4,5.3-0.5,8c-0.1,2.1,0.2,4.4,1.3,6.2
			c1.9,3.2,2.2,6.9,4.3,9.9c0.3,0.5,0.3,1.1,0.4,1.7c0.1,1.3-0.3,2.6-0.1,3.7c0.2,1.4,1.2,2.8,2,4.1c0.6,1,1.5,1.8,2.9,1.6
			c0.6-0.1,1.3,0.3,1.4,0.9c0.1,1,0.9,1.2,1.5,1.7c1.2,1,2.7,1.7,3.4,3.2c0.6,1.4,1.3,2.7,2.2,3.9c1.7,2,3.8,3.6,6.6,3.4
			c3.1-0.3,6.1-0.9,8.7-2.7c0.7-0.5,1.5-0.7,2.3-0.9c2.2-0.5,4.3-1,5.2-3.6c0.4-1.2,0.2-1.7-0.9-2.1c-1.4-0.4-2.8-0.6-4.2-0.6
			c-2.8,0-5.6-0.5-8.4-1c-1.2-0.2-2.4-2.1-2.4-3.9c0-1.1,1.2-1.3,2-1.5c2.1-0.5,4.2-1.2,6.3-1.8c0.5-0.1,0.9-0.2,0.9-0.8
			c0-0.5-0.5-0.8-0.9-0.9c-0.6-0.2-1.2-0.3-1.9-0.4c-2.4-0.2-4.8-0.4-7,1.2c-1.7,1.2-3.8,1.6-5.7,2.3c-0.4,0.1-0.6,0-1,0
			c-1.5-0.2-1.5-1.4-1.7-2.4c-0.3-1.2-0.2-2.4,0.9-3.1c1.3-0.9,2.7-1.1,4.1-0.5c0.9,0.4,1.9,0.6,2.7,0.1c1.3-0.7,2.5-1.3,3.9-1.8
			c1-0.3,1.2-1,0.5-1.8c-0.6-0.7-1.1-1.6-2-2c-2.1-1-2.9-2.8-3.7-4.8c-1-2.4,0.8-5.6,3.3-6.2c1.3-0.3,2.6-0.1,3.8-0.5
			c2-0.7,4-1.7,6.3-1.7c0.8,0,1.3-0.7,1.4-1.6c0-1.3,0.5-1.4,1.6-0.6c1.9,1.4,2.3,3.6,2.2,5.6c-0.2,2.1,0.2,3.9,0.8,5.8
			c0.2,0.8,0.8,1.4,1.4,1.9c0.3,0.3,0.7,0.6,1.2,0.3c0.4-0.3,0.7-0.6,0.6-1.1c0-0.5,0-1.1-0.3-1.6c-1.1-2-0.8-3.8,0.4-5.6
			c0.5-0.7,0.5-1.3,0.3-2.1c-0.5-2.9-1.6-5.5-3.6-7.6c-2.2-2.3-4.4-4.7-7.9-5.1c-0.8-0.1-1.3-0.5-1.6-1.5c-0.6-2.4-1-4.9-2.8-6.8
			c-2.4-2.6-1.7-5,1.1-6.5c0.8-0.4,1.4-0.8,1.5-1.9c0-2.6-0.6-5-2-7.3c-2.1-3.7-5.2-6.3-8.4-8.9c-2.6-2-8.3-2.2-10.7-0.3
			c-3,2.5-5.8,5-7.6,8.6C298.9,99,296.9,103.2,297,107.8z M377.1,11.3c1.8,0,2.6-1.2,2.2-2.6c-0.3-1.2-1.3-1.9-1.7-2.9
			c-0.1-0.4-0.5-0.5-0.9-0.4c-1.1,0.3-2.3,0.4-3.4,1c-1,0.5-1.6,1.3-1.5,2.3c0.1,1.1,0.4,2,1.9,2.2C374.9,11,376.2,10.7,377.1,11.3z
			 M407.3,40.5c1.1,0.3,1.5-0.2,1.6-1.3c0-1.5-0.7-2.7-1.3-3.9c-0.3-0.5-0.7-0.6-1.2,0c-1.4,1.7-0.2,3.2,0,4.9
			c0.6-0.3,0.8-1.4,1.4-0.9C408.3,39.7,407.4,40.1,407.3,40.5z M380.2,93.5c-0.4,0-0.6,0.3-0.5,0.8c0.3,1.2,0.5,2.4,0.8,3.6
			c0.2,0.7,0.6,0.7,1.3,0.5c1.1-0.4,1.2-1.4,1.2-2.3C383,95.3,381,93.6,380.2,93.5z M406,42.6c-0.2,0.1-0.3,0.2-0.4,0.3
			c-0.7,1,0.2,3.3,1.4,3.5c0.7,0.1,1.1-0.2,0.8-0.8c-0.4-0.9-0.9-1.8-1.5-2.7C406.3,42.8,406.1,42.8,406,42.6z M359.6,20.8
			c0.7-0.9,0.6-1.7,0.7-2.5c0-0.3-0.2-0.9-0.7-0.8c-0.5,0-0.4,0.5-0.3,0.8C359.3,19,359.4,19.8,359.6,20.8z M302.5,113.2
			c-0.7,0-1.2-0.1-1.2,0.6c0,0.7,0.5,0.6,0.9,0.6c0.5,0,1.2,0.1,1.3-0.4C303.5,113.4,302.8,113.1,302.5,113.2z M380.7,29.7
			c-0.3-0.3,0-1-0.6-1c-0.5,0-0.5,0.4-0.5,0.7c0,0.4,0.1,0.8,0.6,0.9C380.4,30.3,380.7,30.1,380.7,29.7z"/>
		<path d="M399.5,39.9c0-0.1,0.1-0.3,0.2-0.1c0,0,0,0.2,0,0.3C399.7,40.1,399.6,40,399.5,39.9z"/>
	</g>
	<g>
		<path class="st0" d="M642.8,56.2c-1-0.1-2,0.5-3-0.2c0.3-0.3,1.2-0.1,1.1-0.7c-0.1-0.6-0.9-0.4-1.1-0.2c-0.6,0.6-0.9-1.5-1.4-0.2
			c-0.2,0.5,0,1.2-0.1,1.8c0,0.5-0.1,1-0.9,0.7c-0.3-0.1-0.7-0.1-0.9,0.3c-0.1,0.4-0.1,0.8,0.1,1.1c0.7,1.1,1.8,1,2.8,0.8
			c0.6-0.1,1-0.2,1.5,0.1c1.5,0.7,1.5,0.9,0.4,2.1c-0.3,0.3-1.3,0.7-0.2,1.3c-0.4,0.3-0.9,0.8-1.3,0.4c-0.8-0.7-1.3-0.2-1.8,0.2
			c-0.8,0.7-1.5,0.5-2.4,0.2c-0.7-0.2-1.3-0.4-0.7-1.3c0.1-0.2,0.2-0.4-0.1-0.6c-0.2-0.2-0.5-0.1-0.7,0.1c-2.4,2-5.1,0.5-7.7,0.6
			c-0.2,0-0.5-0.1-0.4-0.3c0.1-0.4,0.6-1-0.3-1.1c-0.8-0.1-1.7-0.5-2.5,0c-0.6,0.3-1,0.5-1.5-0.1c-0.2-0.3-0.6-0.3-0.9-0.1
			c-1.5,1-3,0.6-4.1-0.4c-1.3-1.1-2.9-1-4.3-1.3c-3.5-0.7-7.2-0.5-10.7-1.2c-0.9-0.2-1.5-0.5-2.1-1.3c-2.6-3.6-4.3-7.6-5.1-12
			c-0.6-3.3-1.4-6.7-1.9-10c-1-6.1-2.7-12-3.9-18.1c-0.2-1,0.5-1.2,0.7-1.2c0.5-0.1,0.5,0.6,0.6,1c0.3,2.7,0.9,5.2,2.2,7.6
			c0.6-1.4,0.6-1.4-0.3-4.9c-0.5-1.8-1-3.6-0.5-5.6c0.7,2.1,2.9,3.6,2.5,6.2c-0.2,1.3,0.4,2.4,0.6,3.6c0.4,2.1,0.6,4.2,0.9,6.3
			c0.2,0.9,0.8,1.5,1.4,2.2c1.1,1.4,3.1,2,3.5,3.9c0.1,0.4,0.3,1,0.8,0.9c0.5-0.1,0.7-0.6,0.8-1c0.1-0.8,0.3-1.6-0.6-2.3
			c-1-0.8-0.6-2-0.2-3c0.3-0.7,0.7-0.2,1,0.1c1,1.1,2,2.1,2.5,3.4c0.2,0.4,0.4,0.9,1,0.7c0.6-0.1,0.6-0.7,0.6-1.2c0,0,0-0.1,0-0.1
			c-0.2-0.9-0.5-2.1,0.5-2.3c0.9-0.2,1.2,1.1,1.5,1.9c0.3,0.6,0.5,1.3,1.2,1.7c0.9-0.9,1.4-1.9,0.4-3.1c-0.3-0.4-0.4-1,0-1.4
			c0.5-0.4,0.8,0.3,1.1,0.5c0.6,0.4,1,1,1.1,1.7c0.1,0.8,0.7,1.3,1.3,1.8c0.3,0.3,0.7,0.6,1.2,0.4c0.4-0.2,0.5-0.5,0.3-1
			c-0.1-0.2,0-0.6,0.2-0.6c1.1-0.1,1.5-1,1.9-1.8c0.2-0.4,0.6-0.3,0.8,0.2c1,2.3,1,2.3,2.7,3.6c0.3,0,0.3-0.2,0.4-0.4
			c0.3-0.5,0.1-1.4,0.9-1.4c0.8,0,1,0.9,1.1,1.4c0.3,1.8,2.2,2.5,2.7,4.1c0.1,0.5,0.9,0.3,1.4,0.1c0.9-0.4,1.7-0.8,1.8-1.9
			c0-0.7-0.1-1.5,0.2-2.2c0-0.1,0.1-0.3,0-0.3c-0.1-0.1-0.2,0-0.2,0.1c-0.9-0.7-1.1-1.8-1.4-2.7c-0.3-0.8,0.2-1.6,1.3-1.4
			c0.7,0.1,1.8-0.1,2,1c0,0.1,0.1,0.2,0.2,0.2c0.4,0.2,1.1-0.8,1.2,0.3c0.1,1.7,1.2,3.3,0.5,4.9c-0.5,1.1-0.5,2,0,3.1
			c0.4,0.9,0.6,1.9-0.2,2.8c-0.3-0.9-0.7-1.7-1.8-1.6c-1,0.2-1.1,1-1.1,1.9c0,0.6-0.4,1.3-0.8,1.2c-1.6-0.4-1.2,0.7-1.3,1.5
			c0,0.8-0.4,1.4-1,1.8c-0.6-0.2-0.3-0.9-0.8-1.2c-1,0.6-1.2,2-0.4,2.9c0.6,0.7,1.4,0.8,2.2-0.1c0.4-0.5,1.2-0.5,1.8-0.6
			c1.4-0.3,2.2-1.1,2.2-2.6c0-0.4-0.1-0.9,0.4-1c0.6-0.2,1,0.1,1.2,0.6c0.5,1.1,1.5,1.7,2.5,2.1c1.3,0.5,1.7,1.7,2.2,2.9
			c0.6,1.1,1.3,1.9,2.7,1.5c0.8-0.2,1.1-0.6,0.8-1.4c-0.1-0.2-0.2-0.4-0.2-0.7c-0.1-0.9-0.1-1.6,1.1-1c0.3,0.2,0.7,0.2,1.1,0.3
			C642.8,51.8,642.8,54,642.8,56.2z"/>
		<path class="st1" d="M642.8,93.8c-2.7-0.6-5.5-1-8.1-2c-2.1-0.8-4.3-1.3-6.5-0.8c-0.9,0.2-1.2,0.5-0.9,1.5
			c0.3,1.1,0.9,1.9,1.3,2.8c1,2.2,0.5,4.1-0.7,5.9c-0.7,0.9-1.4,1.8-1.6,3c-0.1,0.6-0.5,1.2-1,1.7c-1.4,1.4-1.9,3.2-2.2,5.1
			c-0.3,1.7-1.1,2.6-2.7,2.9c-0.8,0.1-1.1-0.5-1.5-1c-0.6-0.8-1.2-1-1.9-0.1c-0.5,0.6-1,0.6-1.6,0.3c-0.8-0.5-1.8-0.8-2-1.8
			c-0.1-0.5,0.4-1.1-0.4-1.4c-0.6-0.2-0.9,0.4-1.5,0.8c-0.5-1.1-1.7-1.6-2.5-2.4c-0.2-0.2-0.6-0.5-0.5-0.6c1.4-1.3-0.3-1.4-0.8-1.7
			c-1.1-0.9-2.3-1.6-3.2-2.6c-0.3-0.3-0.7-1.4-1.3-0.2c-0.1,0.3-0.3-0.1-0.4-0.2c-1.1-1.2-2.3-2.5-3.3-3.8c-0.3-0.4-0.8-0.8-0.3-1.6
			c0.3-0.3-0.1-1.2-0.9-1c-0.3,0.1-0.5,0.4-0.7-0.1c-0.2-0.6-0.3-1.3-0.1-1.9c0.2-0.5,0.7-0.2,1.1-0.1c2.2,0.7,4.2,2,6.5,2.5
			c0.4,0.1,0.8,0.3,1.3,0.3c1.7,0.2,3.2,0.9,4.3,2.3c0.9,1.1,1.9,1.5,3.3,0.9c1.1-0.5,1.3-1.5,1.3-2.4c0.2-3,2-4.6,4.3-5.8
			c0.3-0.2,0.6-0.3,0.9-0.4c0.8-0.3,1.3-0.9,1.3-1.8c0.1-0.9-0.6-1.3-1.3-1.6c-2.9-1.4-6-2.3-9.1-3.1c-3.1-0.7-6.1-1.7-8.9-3.2
			c-0.8-0.4-1.7-0.8-2.6-1c-3-0.6-5.6-2.2-8.5-3c-1.7-0.5-2-1.1-1.8-2.9c0-0.1,0.2-0.2,0-0.4c-2.1-1.9-1.2-4.8-2.3-7
			c-0.2-0.5,0.3-1.4,1.2-1c3.2,1.4,6.7,1.8,10,2.9c0.3,0.1,0.6,0.2,0.8,0.4c1.7,1.9,4,2.2,6.4,2.6c3.9,0.7,7.7,1.6,11.5,2.5
			c3.5,0.8,7,1.8,10.4,2.8c4,1.1,8,1.9,11.9,3.3c1,0.3,2,0.6,3,0.6C642.8,85.9,642.8,89.9,642.8,93.8z"/>
		<path class="st0" d="M642.8,40.4c-0.2-0.4-1.4,0-0.8-1.1c0.2-0.3-0.7-0.9-1.3-0.4c-0.7,0.5-0.8,0.1-1-0.4
			c-0.6-1.2-0.3-2.5-0.1-3.7c0-0.3,0.2-0.6,0.5-0.7c0.5-0.1,0.5,0.3,0.6,0.7c0.3,1,0.9,1.7,2.1,1.9
			C642.8,37.8,642.8,39.1,642.8,40.4z"/>
		<path class="st1" d="M526,102.6c-0.1-4.6,1.8-8.8,3.9-13c1.8-3.5,4.6-6.1,7.6-8.6c2.4-2,8.1-1.8,10.7,0.3c3.2,2.5,6.3,5.2,8.4,8.9
			c1.3,2.3,2,4.7,2,7.3c0,1-0.7,1.5-1.5,1.9c-2.8,1.5-3.5,3.8-1.1,6.5c1.8,1.9,2.2,4.4,2.8,6.8c0.2,1,0.8,1.4,1.6,1.5
			c3.5,0.4,5.7,2.7,7.9,5.1c2,2.1,3.1,4.8,3.6,7.6c0.1,0.8,0.1,1.4-0.3,2.1c-1.2,1.8-1.5,3.7-0.4,5.6c0.3,0.5,0.2,1.1,0.3,1.6
			c0,0.5-0.2,0.8-0.6,1.1c-0.5,0.3-0.9,0-1.2-0.3c-0.6-0.5-1.2-1.1-1.4-1.9c-0.6-1.9-1-3.7-0.8-5.8c0.2-2-0.3-4.2-2.2-5.6
			c-1-0.8-1.5-0.6-1.6,0.6c0,1-0.5,1.7-1.4,1.6c-2.3-0.1-4.2,1-6.3,1.7c-1.3,0.4-2.5,0.2-3.8,0.5c-2.5,0.6-4.3,3.8-3.3,6.2
			c0.8,2,1.6,3.8,3.7,4.8c0.9,0.4,1.3,1.3,2,2c0.7,0.8,0.5,1.5-0.5,1.8c-1.4,0.5-2.6,1.1-3.9,1.8c-0.8,0.5-1.8,0.3-2.7-0.1
			c-1.4-0.6-2.8-0.4-4.1,0.5c-1.2,0.8-1.2,1.9-0.9,3.1c0.2,1,0.3,2.2,1.7,2.4c0.3,0,0.6,0.2,1,0c1.9-0.8,4.1-1.1,5.7-2.3
			c2.2-1.6,4.6-1.4,7-1.2c0.6,0,1.3,0.2,1.9,0.4c0.4,0.1,0.9,0.3,0.9,0.9c0,0.5-0.5,0.6-0.9,0.8c-2.1,0.6-4.1,1.3-6.3,1.8
			c-0.8,0.2-2,0.3-2,1.5c0,1.7,1.3,3.7,2.4,3.9c2.8,0.5,5.5,1,8.4,1c1.4,0,2.8,0.2,4.2,0.6c1.1,0.3,1.4,0.8,0.9,2.1
			c-0.9,2.6-3,3.1-5.2,3.6c-0.9,0.2-1.6,0.5-2.3,0.9c-2.6,1.8-5.6,2.4-8.7,2.7c-2.8,0.2-4.9-1.4-6.6-3.4c-1-1.1-1.6-2.5-2.2-3.9
			c-0.7-1.5-2.1-2.2-3.4-3.2c-0.6-0.5-1.4-0.7-1.5-1.7c0-0.7-0.8-1-1.4-0.9c-1.4,0.2-2.3-0.6-2.9-1.6c-0.8-1.3-1.9-2.7-2-4.1
			c-0.1-1.1,0.3-2.4,0.1-3.7c-0.1-0.6-0.1-1.3-0.4-1.7c-2.1-3-2.4-6.8-4.3-9.9c-1.1-1.8-1.3-4-1.3-6.2c0.1-2.7-0.5-5.4,0.5-8
			c0.3-0.8,0.7-1,1.5-0.9c2.7,0.4,5.3,1.3,8,2.1c2.6,0.8,5.4,0.2,7.3-2.2c0.6-0.8,1.3-1.3,2.2-1.7c0.4-0.2,0.7-0.5,1.1-0.8
			c2.3-1.6,3.4-3.9,3.3-6.7c0-1.2,0.7-2.1,1-3.2c0.4-1.7-0.1-2.3-1.7-2.9c-3.7-1.3-7.3,0-10.9,0.2c-1,0.1-2.1,0.1-3.1,0.2
			c-2.1,0.3-4.1,1-5.9,2.2c-2.2,1.5-2.8,0.9-2.7-1.5C526,103.4,526,103.1,526,102.6z"/>
		<path class="st0" d="M606.1,6c-0.9-0.6-2.2-0.3-3.4-0.4c-1.4-0.2-1.8-1.1-1.9-2.2c-0.1-1,0.4-1.8,1.5-2.3c1.1-0.5,2.3-0.6,3.4-1
			c0.3-0.1,0.7,0,0.9,0.4c0.4,1.1,1.4,1.8,1.7,2.9C608.6,4.8,607.8,6,606.1,6z"/>
		<path class="st0" d="M636.2,35.2c0.1-0.4,1-0.8,0.4-1.2c-0.6-0.4-0.8,0.6-1.4,0.9c-0.2-1.7-1.4-3.3,0-4.9c0.5-0.6,0.9-0.5,1.2,0
			c0.7,1.2,1.4,2.4,1.3,3.9C637.7,35,637.3,35.5,636.2,35.2z"/>
		<path class="st0" d="M609.1,88.3c0.8,0,2.8,1.8,2.8,2.5c0,0.9-0.2,1.9-1.2,2.3c-0.6,0.3-1.1,0.2-1.3-0.5c-0.3-1.2-0.5-2.4-0.8-3.6
			C608.5,88.5,608.7,88.3,609.1,88.3z"/>
		<path class="st0" d="M634.9,37.3c0.2,0.1,0.4,0.2,0.4,0.3c0.5,0.9,1.1,1.8,1.5,2.7c0.2,0.6-0.2,0.9-0.8,0.8
			c-1.2-0.3-2.1-2.5-1.4-3.5C634.6,37.6,634.7,37.5,634.9,37.3z"/>
		<path class="st0" d="M588.5,15.5c-0.2-1-0.3-1.8-0.4-2.5c0-0.3-0.2-0.8,0.3-0.8c0.5,0,0.7,0.5,0.7,0.8
			C589.1,13.8,589.2,14.6,588.5,15.5z"/>
		<path class="st0" d="M531.4,107.9c0.4,0,1,0.3,1,0.8c0,0.5-0.8,0.4-1.3,0.4c-0.4,0-1,0.1-0.9-0.6
			C530.2,107.8,530.7,107.9,531.4,107.9z"/>
		<path class="st0" d="M609.6,24.4c0,0.4-0.2,0.6-0.5,0.6c-0.5,0-0.6-0.5-0.6-0.9c0-0.3-0.1-0.8,0.5-0.7
			C609.5,23.4,609.3,24.1,609.6,24.4z"/>
	</g>
</g>
<g>
</g>
<g>
</g>
<g>
</g>
<g>
</g>
<g>
</g>
<g>
</g>
<g>
</g>
<g>
</g>
<g>
</g>
<g>
</g>
<g>
</g>
<g>
</g>
<g>
</g>
<g>
</g>
<g>
</g>
</svg>
