<?xml version="1.0" encoding="utf-8"?>
<!-- Generator: Adobe Illustrator 17.1.0, SVG Export Plug-In . SVG Version: 6.00 Build 0)  -->
<!DOCTYPE svg PUBLIC "-//W3C//DTD SVG 1.1//EN" "http://www.w3.org/Graphics/SVG/1.1/DTD/svg11.dtd">
<svg version="1.1" id="Layer_1" xmlns="http://www.w3.org/2000/svg" xmlns:xlink="http://www.w3.org/1999/xlink" x="0px" y="0px"
	 viewBox="0 0 640.7 220.4" style="enable-background:new 0 0 640.7 220.4;" xml:space="preserve">
<style type="text/css">
	.st0{fill:#020001;}
	.st1{fill:#FB0001;}
	.st2{fill:#080202;}
</style>
<g>
	<g>
		<path class="st0" d="M200.1,177.3c0,13.3-0.1,26.7,0.1,40c0,2.5-0.6,3.1-3.1,3.1c-15.3-0.1-30.7-0.1-46-0.1
			c-0.4-1.2-0.6-2.7-1.4-3.7c-1.5-1.8,0.8-5.9-2.1-5.8c-2.9,0.1-3.2,4.1-4.4,6.5c-0.4,0.8-0.1,2-0.2,2.9c-46.5,0-93,0-139.5,0.1
			c-3,0-3.6-0.6-3.6-3.6c0.2-12.5,0.1-25,0.1-37.5c10.1-4.2,11.3-6.3,9.2-16.9c-0.2-0.8-0.2-1.6-0.2-2.5c0-18.2,0.1-36.5-0.9-54.7
			C7.3,89.2,8.1,73.1,7.5,57C6.8,38.1,5.6,19.2,6.1,0.3c3,0,6,0,9,0c2.6,8.9,0,18,0.8,27.1c1,11.7,0.3,23.5,0.3,36.1
			c2.8-2.5,2-5,1.9-7.1c-0.3-8.7,2.4-16.1,9.2-21.6c8.5-7,18.2-12,29.3-13.4c1.7-0.2,3.5-0.5,4.6-1.7c3-3.3,6-4.1,9.9-1.6
			c1.6,1,3-0.6,4.5-1.4c3.7-2,7.4-1.6,11-0.1c-6.4,1.3-6.8,2.6-3.4,8.1c1.5,2.5,4.1,4.6,6.1,3.9c3-1,1.4-4.2,0.6-6.5
			c-0.8-2.5-0.1-3.1,2.3-2.3c1.6,0.6,3.6,0.6,4.6,1.7c3.9,3.7,10.6,5.5,8.8,13.3c-0.3,1.5-0.3,5.6,3.5,5.4c4.3-0.2,5.2,2.2,4.9,5.6
			c-0.2,2.4,1.3,5.6-0.9,7c-2.8,1.7-4-2.2-6.2-2.9c-3.1-0.9-6.5-6.1-9.6,0.4c-1,2.1-2.6,0.6-3.1-1c-0.9-2.8-1.3-5.8-2.3-8.6
			c-1.2-3.2-2-7.1-4.4-9.1c-3.3-2.7-12.5,0.2-14.9,3.7c-2.8,4-1.9,12.5,2,15.8c2.4,2,6.1,3.6,6.6,6.4c0.7,3.5-3.6,4.9-5.8,7.2
			c-1.6,1.7-2.1,4-1.1,6.1c1.1,2.4,3.4,1.3,5.3,1c3.9-0.8,7.7-2,11.7-1.6c2.3,0.2,5.6,0.3,6,2.5c0.6,2.4,1,5.6-1.2,8
			c-1.4,1.5-2.4,3.2-1.9,5.4c-2.5,3.1,0.9,2.4,2,3.1c-0.1,0.3-0.1,0.6-0.1,0.9c-0.2,1-0.4,2-0.6,2.9c-0.1,0.7-0.2,1.4-0.2,2.1
			c-0.6,0.2-1.1,0.5-1.7,0.7c0.1,0.1,0.2,0.4,0.2,0.3c0.5-0.3,1.1-0.6,1.6-1c0.2,0.3,0.4,0.5,0.6,0.8c0,0.5,0.1,0.9,0.1,1.4
			c-0.6,1.3-1.5,2.6-1.6,4c-0.2,1.4-0.8,4.1,2.5,2.7c2.3-0.8,4.7-2.2,4.5,2.2c-0.1,1.6,0.9,3.1,2.7,3.7c0.8,1.6,2.3,3.1,1.1,5.1
			c-5.2,0.3-5.6,4.2-6.1,8c-0.7,1-1.4,1.9-2.2,2.9c0,0.3,0,0.7,0,1c0.3,0.6,0.8,1.1,1,1.7c0.7,2.1,2.7,3.9,1,6.3
			c-1.6,2.3-3.7,1.2-5.8,1c-4.4-0.4-8.6,0.2-13.3,2.6c2.8,1.1,4.5,2.2,7.1,2c5.1-0.4,9.7,0.9,12.7,5.5c1.6,2.5,6,2.5,6.2,5.9
			c0.2,4,2.6,5.9,5.3,7.8c1,0.7,1.6,1.5,2,2.7c1.7,5,2.4,5.2,6.7,1.8c1.8-1.4,3.7-1.6,5.6-0.5c1.8,1.1,1.9,2.9,1.3,4.8
			c-1,3.1-3,5.4-4.8,8c-4.7,6.6-11.3,11.5-14.8,19c-2.7,5.8-0.4,9.9,6.1,10.1c2.1,0.1,4.3-0.6,5.8,1.8c2.5,4,4.1,1.2,5-1.1
			c1.4-3.9,2.7-8,5.1-11.3c7.5-10.3,8.3-21.6,6.2-33.7c-0.8-4.7-1.1-9.6-1.1-14.3c0.1-4.9,4.6-8.3,8-5.9c5.1,3.6,9.8,8,10.9,14.7
			c1.5,9.7,3.4,19.6,9.9,27.1c3.7,4.2,4.5,8.4,4.2,13.3c0,0.2,0.4,0.4,0.6,0.7c1.3-0.6,2.5-1.6,4.1-1.4c1.8,0.3,3.9,1,4-1.8
			c0.1-3.3,0.1-6.8-4.6-7.1c-0.3-0.2-0.4-0.5-0.3-0.8c2.1-2.8,0-3-2-3.2c-1.5-3.7-0.5-8-3.6-11.3c-0.9-1-0.5-3.5,0.5-5.2
			c0.6-1,1.1-2.1,1.2-3.2c0.6-5.7,4.5-8.1,9.3-5c3.7,2.4,7.6,3.8,11.7,4.9c0.7,2.1-0.5,5.3,3.1,5.9c1.5,2.4,0.6,4.7-0.2,6.9
			c-1.5,0.3-2.6,0.8-1,2.4c1.2,1.2,2.7,1.5,4.4,1.5C197.3,181.3,197.3,176.5,200.1,177.3z M180.2,174.4c-1.6-0.8-2.7-0.1-2.7,1.5
			c0,2.1,1.5,1.6,2.8,1.3c1,0.6,1.8,0.9,1.9-0.7c0.2-2.7,0.4-5.4,0.7-8.1c0.9-1.6,0.3-2.5-1.4-2.6c-1.2-0.1-2.3,0.5-2.7,1.6
			c-0.7,2,0.6,2.6,2.2,2.9C181.1,171.8,181.6,173.3,180.2,174.4z M18.5,170.4c5-3.4,11.2-4.2,16.3-7.9c3.8-2.8,4.1-5.1,1.5-8.5
			c-2.6-3.3-4.4-7-5.4-11.1c-1.3-4.9-3.4-9.1-7.2-12.8c-4.2-4-3.5-8.3,1.4-11.6c2.3-1.6,4-3.1,2.6-6c-0.4-0.8-0.7-2-2-1.9
			c-1.4,0.2-2.3,1.6-2,2.4c0.8,2.1,0.6,3.6-1.6,4.3c-0.8,0.2-2.3,0-2.1-0.6c0.4-1.9-1.5-3.8,0.2-5.6c1.9-2.1,1.4-4.8,0.8-7.1
			c-0.5-2-1-4-0.4-5.9c1-3.1-0.7-3.6-3.1-4.1C16.7,119.7,17.3,145,18.5,170.4z M66.7,133.3c1.7-4.3,3.8-6.7,8-6.1
			c1.6,0.2,2.5-0.6,2.4-2.3c-0.2-2.7,1.3-4.6,2.4-6.8c2.2-4.4,0-7.6-4.6-6.6c-2.7,0.6-3.7-0.6-4.9-2c-1.3-1.5-2.4-3.2-3.7-5
			C58.1,114.8,65.3,123.4,66.7,133.3z M93,158.3c-1.5-0.1-2.9,0.2-4.4,0.7c-2.4,0.8-5.1,1.8-5.7,4.2c-0.6,2.7,2.9,3,4.4,4.5
			c0.8,0.8,2,1.2,3,1.7c1.8,0.9,4,1.8,5.3-0.3c1.3-2.2,4.4-3.9,2.7-7.3C97.2,159.4,95.7,157.9,93,158.3z M187,172.5l0.3-0.2
			l-0.3-0.2L187,172.5z"/>
		<path class="st1" d="M97,126.3c0.7-1,1.4-1.9,2.2-2.9c2.8-2.1,5.3-4.5,6.1-8c1.2-2-0.3-3.5-1.1-5.1c-0.2-2.3-0.5-4.6-0.6-6.9
			c-0.1-3.3-1.5-3.9-4-1.9c-1,0.8-1.7,1.9-2.6,2.9c-3.3,1.3-2.6-1.3-2.5-2.7c0.2-1.4,1.1-2.7,1.6-4c0.9-0.5,0.8-1-0.1-1.4
			c-0.2-0.3-0.4-0.5-0.6-0.8l-0.1-0.1c0.1-0.7,0.2-1.4,0.2-2.1c0.8-0.9,2.2-1.6,0.6-2.9c0-0.3,0-0.6,0.1-0.9c0.6-1.8-1-2.3-2-3.1
			c-0.5-2.2,0.6-3.9,1.9-5.4c2.2-2.4,1.8-5.6,1.2-8c-0.5-2.2-3.7-2.3-6-2.5c-4-0.4-7.9,0.9-11.7,1.6c-1.8,0.4-4.2,1.4-5.3-1
			c-0.9-2-0.5-4.3,1.1-6.1c2.2-2.3,6.5-3.7,5.8-7.2c-0.6-2.8-4.2-4.4-6.6-6.4c-4-3.4-4.8-11.8-2-15.8c2.5-3.5,11.7-6.4,14.9-3.7
			c2.4,2,3.2,5.9,4.4,9.1c1,2.8,1.5,5.8,2.3,8.6c0.5,1.6,2,3.1,3.1,1c3.1-6.5,6.5-1.3,9.6-0.4c2.2,0.6,3.4,4.6,6.2,2.9
			c2.3-1.4,0.8-4.6,0.9-7c0.2-3.4-0.7-5.8-4.9-5.6c-3.8,0.2-3.9-4-3.5-5.4c1.9-7.8-4.9-9.6-8.8-13.3c-1.1-1-3.1-1.1-4.6-1.7
			c-2.4-0.9-3.1-0.3-2.3,2.3c0.8,2.3,2.4,5.5-0.6,6.5c-2,0.7-4.6-1.4-6.1-3.9c-3.4-5.5-3-6.8,3.4-8.1c-3.6-1.5-7.4-1.9-11,0.1
			c-1.5,0.8-2.9,2.4-4.5,1.4c-3.9-2.5-7-1.8-9.9,1.6c-1,1.2-2.8,1.5-4.6,1.7c-11.2,1.3-20.8,6.4-29.3,13.4
			c-6.7,5.5-9.5,12.9-9.2,21.6c0.1,2.1,0.8,4.6-1.9,7.1c0-12.6,0.8-24.5-0.3-36.1c-0.8-9.1,1.9-18.1-0.8-27.1c6.7,0,13.3,0,20,0
			c0.2,3.3,2.5,4.8,5.3,4.9c2.7,0,3.8-2.2,3.7-4.9c50.7,0,101.3,0,152-0.1c3.4,0,4.1,0.7,4.1,4.1c-0.1,53.7-0.1,107.3-0.1,161
			c-4-0.6-8-1.2-12-1.8c-4.1-1.1-8.1-2.5-11.7-4.9c-4.8-3.1-8.8-0.7-9.3,5c-0.1,1.1-0.6,2.2-1.2,3.2c-1,1.7-1.4,4.2-0.5,5.2
			c3.1,3.3,2.1,7.7,3.6,11.3c0.1,1.4,0.8,2.5,2,3.2c0,0.3,0.1,0.6,0.3,0.8c1,2.9,3.1,5.8,0.6,8.9c-1.6-0.3-2.8,0.8-4.1,1.4
			c-0.2-0.3-0.6-0.5-0.6-0.7c0.2-5-0.6-9.1-4.2-13.3c-6.5-7.6-8.4-17.4-9.9-27.1c-1-6.8-5.8-11.1-10.9-14.7c-3.4-2.4-7.9,1-8,5.9
			c-0.1,4.8,0.2,9.6,1.1,14.3c2.1,12.1,1.3,23.4-6.2,33.7c-2.4,3.3-3.7,7.4-5.1,11.3c-0.9,2.4-2.4,5.2-5,1.1
			c-1.5-2.4-3.8-1.7-5.8-1.8c-6.4-0.2-8.8-4.3-6.1-10.1c3.5-7.5,10.1-12.5,14.8-19c1.8-2.6,3.8-4.9,4.8-8c0.6-2,0.6-3.7-1.3-4.8
			c-1.9-1.1-3.8-0.9-5.6,0.5c-4.3,3.4-5,3.2-6.7-1.8c-0.4-1.2-0.9-2-2-2.7c-2.7-1.9-5.1-3.8-5.3-7.8c-0.2-3.4-4.5-3.5-6.2-5.9
			c-3.1-4.7-7.7-5.9-12.7-5.5c-2.5,0.2-4.3-0.9-7.1-2c4.6-2.4,8.9-3,13.3-2.6c2.1,0.2,4.2,1.3,5.8-1c1.7-2.4-0.3-4.3-1-6.3
			c-0.2-0.6-0.6-1.2-1-1.7C97,127,97,126.6,97,126.3z M126.2,108.6c-1.2,5.5,1.3,10.8,1,16.3c-0.3,4,3.7,4.5,5.9,5.8
			c1.5,0.8,3.1-2.1,4.2-4.1c1.9-3.5,2.3-6.8,0.5-10.4c-1.4-2.8-0.2-5.5,1.6-7.3c5.6-5.4,6.3-6.5,2.9-13.2c-2.1-4.1-3.1-9.1-7.4-12
			c-0.9-0.6-0.8-1.8-0.5-2.8c2.5-7.3-3.5-12.6-4.5-19.1c-0.1-0.9-1.9-2.3-2.4-0.4c-0.9,3.8-1.2,7.7-1.6,11.6c-0.1,0.9,2,1.9,0.3,2.8
			c-1.3,0.7-2.5,0-3.6-0.9c-1.3-1.1-2.5-3.7-4.4-2.3c-1.9,1.3-1,4-0.6,6c0.4,1.9,1.1,3.8,3.4,4.5c1.2,0.3,2.3,1.2,2.1,2.5
			C121.9,93.6,127.8,100.6,126.2,108.6z M108.6,89.6c0.7-2.7-0.9-3.5-2.6-3.2c-1.9,0.4-4.8,0.6-4.2,3.6c0.2,1.3-0.2,4.3,2.6,3.7
			C106.5,93.3,109.6,93.1,108.6,89.6z M145.6,89.5c-0.3-3.2-2.9-4.8-1.8-7.7c0.8-1.9-0.4-3.6-1.8-4.8c-1.3-1.1-3-0.7-2.7,1.1
			C140.1,82.3,140.7,86.8,145.6,89.5z"/>
		<path class="st1" d="M6.1,0.3C5.6,19.2,6.8,38.1,7.5,57c0.6,16.1-0.1,32.2,0.7,48.2c1,18.2,0.9,36.5,0.9,54.7
			c0,0.8,0.1,1.7,0.2,2.5c2.1,10.6,0.9,12.7-9.2,16.9c0-57.7,0.1-115.4-0.1-173C0,1.1,1.1-0.8,6.1,0.3z"/>
		<path class="st1" d="M191,176.3c0.8-2.3,1.7-4.6,0.2-6.9c3-2.1,5.9-0.5,8.9-0.1c0,2.7,0,5.3,0,8c-2.8-0.8-2.9,4-5.8,2.9
			C193.2,178.9,192.1,177.6,191,176.3z"/>
		<path class="st1" d="M143.1,220.3c0-1-0.2-2.1,0.2-2.9c1.2-2.4,1.5-6.5,4.4-6.5c2.9-0.1,0.6,4,2.1,5.8c0.8,1,1,2.4,1.4,3.7
			C148.5,220.3,145.8,220.3,143.1,220.3z"/>
		<path class="st2" d="M200.1,169.3c-3-0.5-5.9-2.1-8.9,0.1c-3.6-0.6-2.4-3.8-3.1-5.9c4,0.6,8,1.2,12,1.8
			C200.1,166.6,200.1,168,200.1,169.3z"/>
		<path class="st2" d="M44.1,0.3c0.1,2.6-1,4.9-3.7,4.9c-2.8,0-5.1-1.5-5.3-4.9C38.1,0.3,41.1,0.3,44.1,0.3z"/>
		<path class="st1" d="M18.5,170.4c-1.2-25.3-1.8-50.7-1.2-76.5c2.4,0.5,4.2,0.9,3.1,4.1c-0.6,1.9-0.2,3.9,0.4,5.9
			c0.6,2.4,1.1,5-0.8,7.1c-1.7,1.9,0.2,3.7-0.2,5.6c-0.1,0.6,1.4,0.9,2.1,0.6c2.3-0.7,2.5-2.1,1.6-4.3c-0.3-0.8,0.7-2.2,2-2.4
			c1.3-0.2,1.6,1,2,1.9c1.4,3-0.3,4.5-2.6,6c-4.8,3.4-5.6,7.6-1.4,11.6c3.8,3.6,5.9,7.9,7.2,12.8c1.1,4.1,2.9,7.8,5.4,11.1
			c2.6,3.4,2.3,5.7-1.5,8.5C29.8,166.2,23.5,166.9,18.5,170.4z"/>
		<path class="st1" d="M66.7,133.3c-1.3-9.9-8.6-18.6-0.3-28.8c1.3,1.8,2.3,3.5,3.7,5c1.2,1.4,2.3,2.6,4.9,2
			c4.7-1.1,6.9,2.2,4.6,6.6c-1.1,2.2-2.6,4.2-2.4,6.8c0.1,1.7-0.8,2.5-2.4,2.3C70.5,126.6,68.3,129,66.7,133.3z"/>
		<path class="st1" d="M93,158.3c2.7-0.5,4.2,1.1,5.3,3.4c1.6,3.4-1.4,5.1-2.7,7.3c-1.3,2.2-3.5,1.3-5.3,0.3c-1-0.5-2.2-0.9-3-1.7
			c-1.5-1.5-5-1.7-4.4-4.5c0.6-2.4,3.3-3.4,5.7-4.2C90,158.5,91.4,158.3,93,158.3z"/>
		<path class="st2" d="M171.9,196.2c2.6-3.1,0.4-6-0.6-8.9c4.7,0.3,4.7,3.8,4.6,7.1C175.9,197.2,173.7,196.5,171.9,196.2z"/>
		<path class="st2" d="M97.1,104.3c0.9-1,1.6-2.1,2.6-2.9c2.5-1.9,3.9-1.4,4,1.9c0.1,2.3,0.4,4.6,0.6,6.9c-1.7-0.6-2.8-2.1-2.7-3.7
			C101.7,102.1,99.3,103.4,97.1,104.3z"/>
		<path class="st2" d="M105.3,115.4c-0.9,3.6-3.4,5.9-6.1,8C99.7,119.6,100.1,115.6,105.3,115.4z"/>
		<path class="st2" d="M181,170.3c-1.6-0.3-2.9-0.9-2.2-2.9c0.4-1.2,1.5-1.7,2.7-1.6c1.7,0.1,2.3,1,1.4,2.6
			C180.1,166.8,181.7,169.7,181,170.3z"/>
		<path class="st1" d="M181,170.3c0.7-0.6-0.9-3.5,1.9-1.9c-0.2,2.7-0.5,5.4-0.7,8.1c-0.1,1.7-0.9,1.3-1.9,0.7
			c0-0.9-0.1-1.8-0.1-2.8C181.6,173.3,181.1,171.8,181,170.3z"/>
		<path class="st2" d="M180.2,174.4c0,0.9,0.1,1.8,0.1,2.8c-1.3,0.4-2.8,0.8-2.8-1.3C177.5,174.3,178.6,173.6,180.2,174.4z"/>
		<path class="st2" d="M191,176.3c1.1,1.3,2.2,2.6,3.3,3.9c-1.6,0-3.2-0.4-4.4-1.5C188.4,177.1,189.5,176.6,191,176.3z"/>
		<path class="st2" d="M94.3,86.2c0.9,0.9,2.6,1.3,2,3.1C95.2,88.6,91.8,89.3,94.3,86.2z"/>
		<path class="st2" d="M171.1,186.5c-1.2-0.7-1.9-1.8-2-3.2C171,183.5,173.1,183.7,171.1,186.5z"/>
		<path class="st2" d="M95.4,95.3l0.1,0.1c-0.5,0.3-1,0.7-1.6,1c0,0-0.2-0.2-0.2-0.3C94.3,95.8,94.8,95.5,95.4,95.3z"/>
		<path class="st2" d="M96.2,90.3c1.6,1.3,0.2,2.1-0.6,2.9C95.8,92.2,96,91.2,96.2,90.3z"/>
		<polygon class="st2" points="187,172.5 187,172.1 187.3,172.3 		"/>
		<path class="st2" d="M97,126.3c0,0.3,0,0.7,0,1C97,127,97,126.6,97,126.3z"/>
		<path class="st2" d="M96.1,96.2c0.9,0.4,1,0.8,0.1,1.4C96.2,97.1,96.2,96.6,96.1,96.2z"/>
		<path class="st2" d="M126.2,108.6c1.6-8-4.3-15-3.2-22.9c0.2-1.3-1-2.1-2.1-2.5c-2.3-0.7-3-2.6-3.4-4.5c-0.5-2-1.4-4.7,0.6-6
			c1.9-1.3,3.1,1.3,4.4,2.3c1.1,0.9,2.4,1.6,3.6,0.9c1.7-1-0.4-1.9-0.3-2.8c0.4-3.9,0.7-7.8,1.6-11.6c0.5-1.9,2.3-0.6,2.4,0.4
			c1,6.5,7,11.8,4.5,19.1c-0.3,1-0.4,2.2,0.5,2.8c4.3,2.9,5.3,7.8,7.4,12c3.4,6.8,2.7,7.8-2.9,13.2c-1.8,1.8-3,4.4-1.6,7.3
			c1.8,3.6,1.4,6.9-0.5,10.4c-1.1,2-2.7,4.9-4.2,4.1c-2.2-1.3-6.2-1.8-5.9-5.8C127.5,119.5,125,114.2,126.2,108.6z"/>
		<path class="st2" d="M108.6,89.6c1.1,3.5-2.1,3.7-4.2,4.1c-2.8,0.6-2.4-2.5-2.6-3.7c-0.6-3,2.3-3.2,4.2-3.6
			C107.6,86.1,109.2,86.9,108.6,89.6z"/>
		<path class="st2" d="M145.6,89.5c-4.9-2.7-5.5-7.2-6.3-11.4c-0.3-1.8,1.4-2.2,2.7-1.1c1.4,1.2,2.6,2.9,1.8,4.8
			C142.7,84.7,145.3,86.3,145.6,89.5z"/>
	</g>
	<g>
		<path class="st0" d="M420.4,177.2c0,13.3-0.1,26.7,0.1,40c0,2.5-0.6,3.1-3.1,3.1c-15.3-0.1-30.7-0.1-46-0.1
			c-0.4-1.2-0.6-2.7-1.4-3.7c-1.5-1.8,0.8-5.9-2.1-5.8c-2.9,0.1-3.2,4.1-4.4,6.5c-0.4,0.8-0.1,2-0.2,2.9c-46.5,0-93,0-139.5,0.1
			c-3,0-3.6-0.6-3.6-3.6c0.2-12.5,0.1-25,0.1-37.5c10.1-4.2,11.3-6.3,9.2-16.9c-0.2-0.8-0.2-1.6-0.2-2.5c0-18.2,0.1-36.5-0.9-54.7
			c-0.9-16.1-0.2-32.1-0.7-48.2c-0.7-18.9-1.9-37.8-1.3-56.7c3,0,6,0,9,0c2.6,8.9,0,18,0.8,27.1c1,11.7,0.3,23.5,0.3,36.1
			c2.8-2.5,2-5,1.9-7.1c-0.3-8.7,2.4-16.1,9.2-21.6c8.5-7,18.2-12,29.3-13.4c1.7-0.2,3.5-0.5,4.6-1.7c3-3.3,6-4.1,9.9-1.6
			c1.6,1,3-0.6,4.5-1.4c3.7-2,7.4-1.6,11-0.1c-6.4,1.3-6.8,2.6-3.4,8.1c1.5,2.5,4.1,4.6,6.1,3.9c3-1,1.4-4.2,0.6-6.5
			c-0.8-2.5-0.1-3.1,2.3-2.3c1.6,0.6,3.6,0.6,4.6,1.7c3.9,3.7,10.6,5.5,8.8,13.3c-0.3,1.5-0.3,5.6,3.5,5.4c4.3-0.2,5.2,2.2,4.9,5.6
			c-0.2,2.4,1.3,5.6-0.9,7c-2.8,1.7-4-2.2-6.2-2.9c-3.1-0.9-6.5-6.1-9.6,0.4c-1,2.1-2.6,0.6-3.1-1c-0.9-2.8-1.3-5.8-2.3-8.6
			c-1.2-3.2-2-7.1-4.4-9.1c-3.3-2.7-12.5,0.2-14.9,3.7c-2.8,4-1.9,12.5,2,15.8c2.4,2,6.1,3.6,6.6,6.4c0.7,3.5-3.6,4.9-5.8,7.2
			c-1.6,1.7-2.1,4-1.1,6.1c1.1,2.4,3.4,1.3,5.3,1c3.9-0.8,7.7-2,11.7-1.6c2.3,0.2,5.6,0.3,6,2.5c0.6,2.4,1,5.6-1.2,8
			c-1.4,1.5-2.4,3.2-1.9,5.4c-2.5,3.1,0.9,2.4,2,3.1c-0.1,0.3-0.1,0.6-0.1,0.9c-0.2,1-0.4,2-0.6,2.9c-0.1,0.7-0.2,1.4-0.2,2.1
			c-0.6,0.2-1.1,0.5-1.7,0.7c0.1,0.1,0.2,0.4,0.2,0.3c0.5-0.3,1.1-0.6,1.6-1c0.2,0.3,0.4,0.5,0.6,0.8c0,0.5,0.1,0.9,0.1,1.4
			c-0.6,1.3-1.5,2.6-1.6,4c-0.2,1.4-0.8,4.1,2.5,2.7c2.3-0.8,4.7-2.2,4.5,2.2c-0.1,1.6,0.9,3.1,2.7,3.7c0.8,1.6,2.3,3.1,1.1,5.1
			c-5.2,0.3-5.6,4.2-6.1,8c-0.7,1-1.4,1.9-2.2,2.9c0,0.3,0,0.7,0,1c0.3,0.6,0.8,1.1,1,1.7c0.7,2.1,2.7,3.9,1,6.3
			c-1.6,2.3-3.7,1.2-5.8,1c-4.4-0.4-8.6,0.2-13.3,2.6c2.8,1.1,4.5,2.2,7.1,2c5.1-0.4,9.7,0.9,12.7,5.5c1.6,2.5,6,2.5,6.2,5.9
			c0.2,4,2.6,5.9,5.3,7.8c1,0.7,1.6,1.5,2,2.7c1.7,5,2.4,5.2,6.7,1.8c1.8-1.4,3.7-1.6,5.6-0.5c1.9,1.1,1.9,2.9,1.3,4.8
			c-1,3.1-3,5.4-4.8,8c-4.7,6.6-11.3,11.5-14.8,19c-2.7,5.8-0.4,9.9,6.1,10.1c2.1,0.1,4.3-0.6,5.8,1.8c2.5,4,4.1,1.2,5-1.1
			c1.4-3.9,2.7-8,5.1-11.3c7.5-10.3,8.3-21.6,6.2-33.7c-0.8-4.7-1.1-9.6-1.1-14.3c0.1-4.9,4.6-8.3,8-5.9c5.1,3.6,9.8,8,10.9,14.7
			c1.5,9.7,3.4,19.6,9.9,27.1c3.7,4.2,4.5,8.4,4.2,13.3c0,0.2,0.4,0.4,0.6,0.7c1.3-0.6,2.5-1.6,4.1-1.4c1.8,0.3,3.9,1,4-1.8
			c0.1-3.3,0.1-6.8-4.6-7.1c-0.3-0.2-0.4-0.5-0.3-0.8c2.1-2.8,0-3-2-3.2c-1.5-3.7-0.5-8-3.6-11.3c-0.9-1-0.5-3.5,0.5-5.2
			c0.6-1,1.1-2.1,1.2-3.2c0.6-5.7,4.5-8.1,9.3-5c3.7,2.4,7.6,3.8,11.7,4.9c0.7,2.1-0.5,5.3,3.1,5.9c1.5,2.4,0.6,4.7-0.2,6.9
			c-1.5,0.3-2.6,0.8-1,2.4c1.2,1.2,2.7,1.5,4.4,1.5C417.5,181.1,417.6,176.3,420.4,177.2z M400.5,174.3c-1.6-0.8-2.7-0.1-2.7,1.5
			c0,2.1,1.5,1.6,2.8,1.3c1,0.6,1.8,0.9,1.9-0.7c0.2-2.7,0.4-5.4,0.7-8.1c0.9-1.6,0.3-2.5-1.4-2.6c-1.2-0.1-2.3,0.5-2.7,1.6
			c-0.7,2,0.6,2.6,2.2,2.9C401.4,171.6,401.9,173.1,400.5,174.3z M238.8,170.2c5-3.4,11.2-4.2,16.3-7.9c3.8-2.8,4.1-5.1,1.5-8.5
			c-2.6-3.3-4.4-7-5.4-11.1c-1.3-4.9-3.4-9.1-7.2-12.8c-4.2-4-3.5-8.3,1.4-11.6c2.3-1.6,4-3.1,2.6-6c-0.4-0.8-0.7-2-2-1.9
			c-1.4,0.2-2.3,1.6-2,2.4c0.8,2.1,0.6,3.6-1.6,4.3c-0.8,0.2-2.3,0-2.1-0.6c0.4-1.9-1.5-3.8,0.2-5.6c1.9-2.1,1.4-4.8,0.8-7.1
			c-0.5-2-1-4-0.4-5.9c1-3.1-0.7-3.6-3.1-4.1C237,119.5,237.6,144.9,238.8,170.2z M286.9,133.2c1.7-4.3,3.8-6.7,8-6.1
			c1.6,0.2,2.5-0.6,2.4-2.3c-0.2-2.7,1.3-4.6,2.4-6.8c2.2-4.4,0-7.6-4.6-6.6c-2.7,0.6-3.7-0.6-4.9-2c-1.3-1.5-2.4-3.2-3.7-5
			C278.4,114.6,285.6,123.3,286.9,133.2z M313.2,158.2c-1.5-0.1-2.9,0.2-4.4,0.7c-2.4,0.8-5.1,1.8-5.7,4.2c-0.6,2.7,2.9,3,4.4,4.5
			c0.8,0.8,2,1.2,3,1.7c1.8,0.9,4,1.8,5.3-0.3c1.3-2.2,4.4-3.9,2.7-7.3C317.4,159.3,315.9,157.7,313.2,158.2z M407.3,172.4l0.3-0.2
			l-0.3-0.2L407.3,172.4z"/>
		<path class="st2" d="M420.4,169.2c-3-0.5-5.9-2.1-8.9,0.1c-3.6-0.6-2.4-3.8-3.1-5.9c4,0.6,8,1.2,12,1.8
			C420.4,166.5,420.4,167.8,420.4,169.2z"/>
		<path class="st2" d="M264.4,0.2c0.1,2.6-1,4.9-3.7,4.9c-2.8,0-5.1-1.5-5.3-4.9C258.4,0.2,261.4,0.2,264.4,0.2z"/>
		<path class="st2" d="M392.2,196.1c2.6-3.1,0.4-6-0.6-8.9c4.7,0.3,4.7,3.8,4.6,7.1C396.1,197.1,394,196.4,392.2,196.1z"/>
		<path class="st2" d="M317.3,104.1c0.9-1,1.6-2.1,2.6-2.9c2.5-1.9,3.9-1.4,4,1.9c0.1,2.3,0.4,4.6,0.6,6.9c-1.7-0.6-2.8-2.1-2.7-3.7
			C322,101.9,319.6,103.3,317.3,104.1z"/>
		<path class="st2" d="M325.6,115.2c-0.9,3.6-3.4,5.9-6.1,8C320,119.4,320.4,115.5,325.6,115.2z"/>
		<path class="st2" d="M401.2,170.2c-1.6-0.3-2.9-0.9-2.2-2.9c0.4-1.2,1.5-1.7,2.7-1.6c1.7,0.1,2.3,1,1.4,2.6
			C400.3,166.7,401.9,169.6,401.2,170.2z"/>
		<path class="st2" d="M400.5,174.3c0,0.9,0.1,1.8,0.1,2.8c-1.3,0.4-2.8,0.8-2.8-1.3C397.8,174.2,398.8,173.5,400.5,174.3z"/>
		<path class="st2" d="M411.2,176.1c1.1,1.3,2.2,2.6,3.3,3.9c-1.6,0-3.2-0.4-4.4-1.5C408.6,177,409.7,176.4,411.2,176.1z"/>
		<path class="st2" d="M314.6,86.1c0.9,0.9,2.6,1.3,2,3.1C315.4,88.4,312,89.1,314.6,86.1z"/>
		<path class="st2" d="M391.3,186.4c-1.2-0.7-1.9-1.8-2-3.2C391.3,183.4,393.4,183.5,391.3,186.4z"/>
		<path class="st2" d="M315.6,95.1l0.1,0.1c-0.5,0.3-1,0.7-1.6,1c0,0-0.2-0.2-0.2-0.3C314.5,95.6,315.1,95.4,315.6,95.1z"/>
		<path class="st2" d="M316.5,90.1c1.6,1.3,0.2,2.1-0.6,2.9C316.1,92.1,316.3,91.1,316.5,90.1z"/>
		<polygon class="st2" points="407.3,172.4 407.3,172 407.6,172.1 		"/>
		<path class="st2" d="M317.3,126.2c0,0.3,0,0.7,0,1C317.3,126.8,317.3,126.5,317.3,126.2z"/>
		<path class="st2" d="M316.4,96c0.9,0.4,1,0.8,0.1,1.4C316.5,96.9,316.4,96.5,316.4,96z"/>
		<path class="st2" d="M346.4,108.5c1.6-8-4.3-15-3.2-22.9c0.2-1.3-1-2.1-2.1-2.5c-2.3-0.7-3-2.6-3.4-4.5c-0.5-2-1.4-4.7,0.6-6
			c1.9-1.3,3.1,1.3,4.4,2.3c1.1,0.9,2.4,1.6,3.6,0.9c1.7-1-0.4-1.9-0.3-2.8c0.4-3.9,0.7-7.8,1.6-11.6c0.5-1.9,2.3-0.6,2.4,0.4
			c1,6.5,7,11.8,4.5,19.1c-0.3,1-0.4,2.2,0.5,2.8c4.3,2.9,5.3,7.8,7.4,12c3.4,6.8,2.7,7.8-2.9,13.2c-1.8,1.8-3,4.4-1.6,7.3
			c1.8,3.6,1.4,6.9-0.5,10.4c-1.1,2-2.7,4.9-4.2,4.1c-2.2-1.3-6.2-1.8-5.9-5.8C347.8,119.3,345.3,114,346.4,108.5z"/>
		<path class="st2" d="M328.8,89.4c1.1,3.5-2.1,3.7-4.2,4.1c-2.8,0.6-2.4-2.5-2.6-3.7c-0.6-3,2.3-3.2,4.2-3.6
			C327.9,85.9,329.5,86.7,328.8,89.4z"/>
		<path class="st2" d="M365.9,89.3c-4.9-2.7-5.5-7.2-6.3-11.4c-0.3-1.8,1.4-2.2,2.7-1.1c1.4,1.2,2.6,2.9,1.8,4.8
			C363,84.5,365.6,86.2,365.9,89.3z"/>
	</g>
	<g>
		<path class="st1" d="M537.5,126.4c0.7-1,1.4-1.9,2.2-2.9c2.8-2.1,5.3-4.5,6.1-8c1.2-2-0.3-3.5-1.1-5.1c-0.2-2.3-0.5-4.6-0.6-6.9
			c-0.1-3.3-1.5-3.9-4-1.9c-1,0.8-1.7,1.9-2.6,2.9c-3.3,1.3-2.6-1.3-2.5-2.7c0.2-1.4,1.1-2.7,1.6-4c0.9-0.5,0.8-1-0.1-1.4
			c-0.2-0.3-0.4-0.5-0.6-0.8l-0.1-0.1c0.1-0.7,0.2-1.4,0.2-2.1c0.8-0.9,2.2-1.6,0.6-2.9c0-0.3,0-0.6,0.1-0.9c0.6-1.8-1-2.3-2-3.1
			c-0.5-2.2,0.6-3.9,1.9-5.4c2.2-2.4,1.8-5.6,1.2-8c-0.5-2.2-3.7-2.3-6-2.5c-4-0.4-7.9,0.9-11.7,1.6c-1.8,0.4-4.2,1.4-5.3-1
			c-0.9-2-0.5-4.3,1.1-6.1c2.2-2.3,6.5-3.7,5.8-7.2c-0.6-2.8-4.2-4.4-6.6-6.4c-4-3.4-4.8-11.8-2-15.8c2.5-3.5,11.7-6.4,14.9-3.7
			c2.4,2,3.2,5.9,4.4,9.1c1,2.8,1.5,5.8,2.3,8.6c0.5,1.6,2,3.1,3.1,1c3.1-6.5,6.5-1.3,9.6-0.4c2.2,0.6,3.4,4.6,6.2,2.9
			c2.3-1.4,0.8-4.6,0.9-7c0.2-3.4-0.7-5.8-4.9-5.6c-3.8,0.2-3.9-4-3.5-5.4c1.9-7.8-4.9-9.6-8.8-13.3c-1.1-1-3.1-1.1-4.6-1.7
			c-2.4-0.9-3.1-0.3-2.3,2.3c0.8,2.3,2.4,5.5-0.6,6.5c-2,0.7-4.6-1.4-6.1-3.9c-3.4-5.5-3-6.8,3.4-8.1c-3.6-1.5-7.4-1.9-11,0.1
			c-1.5,0.8-2.9,2.4-4.5,1.4c-3.9-2.5-7-1.8-9.9,1.6c-1,1.2-2.8,1.5-4.6,1.7c-11.2,1.3-20.8,6.4-29.3,13.4
			c-6.7,5.5-9.5,12.9-9.2,21.6c0.1,2.1,0.8,4.6-1.9,7.1c0-12.6,0.8-24.5-0.3-36.1c-0.8-9.1,1.9-18.1-0.8-27.1c6.7,0,13.3,0,20,0
			c0.2,3.3,2.5,4.8,5.3,4.9c2.7,0,3.8-2.2,3.7-4.9c50.7,0,101.3,0,152-0.1c3.4,0,4.1,0.7,4.1,4.1c-0.1,53.7-0.1,107.3-0.1,161
			c-4-0.6-8-1.2-12-1.8c-4.1-1.1-8.1-2.5-11.7-4.9c-4.8-3.1-8.8-0.7-9.3,5c-0.1,1.1-0.6,2.2-1.2,3.2c-1,1.7-1.4,4.2-0.5,5.2
			c3.1,3.3,2.1,7.7,3.6,11.3c0.1,1.4,0.8,2.5,2,3.2c0,0.3,0.1,0.6,0.3,0.8c1,2.9,3.1,5.8,0.6,8.9c-1.6-0.3-2.8,0.8-4.1,1.4
			c-0.2-0.3-0.6-0.5-0.6-0.7c0.2-5-0.6-9.1-4.2-13.3c-6.5-7.6-8.4-17.4-9.9-27.1c-1-6.8-5.8-11.1-10.9-14.7c-3.4-2.4-7.9,1-8,5.9
			c-0.1,4.8,0.2,9.6,1.1,14.3c2.1,12.1,1.3,23.4-6.2,33.7c-2.4,3.3-3.7,7.4-5.1,11.3c-0.9,2.4-2.4,5.2-5,1.1
			c-1.5-2.4-3.8-1.7-5.8-1.8c-6.4-0.2-8.8-4.3-6.1-10.1c3.5-7.5,10.1-12.5,14.8-19c1.8-2.6,3.8-4.9,4.8-8c0.6-2,0.6-3.7-1.3-4.8
			c-1.9-1.1-3.8-0.9-5.6,0.5c-4.3,3.4-5,3.2-6.7-1.8c-0.4-1.2-0.9-2-2-2.7c-2.7-1.9-5.1-3.8-5.3-7.8c-0.2-3.4-4.5-3.5-6.2-5.9
			c-3.1-4.7-7.7-5.9-12.7-5.5c-2.5,0.2-4.3-0.9-7.1-2c4.6-2.4,8.9-3,13.3-2.6c2.1,0.2,4.2,1.3,5.8-1c1.7-2.4-0.3-4.3-1-6.3
			c-0.2-0.6-0.6-1.2-1-1.7C537.5,127,537.5,126.7,537.5,126.4z M566.7,108.7c-1.2,5.5,1.3,10.8,1,16.3c-0.3,4,3.7,4.5,5.9,5.8
			c1.5,0.8,3.1-2.1,4.2-4.1c1.9-3.5,2.3-6.8,0.5-10.4c-1.4-2.8-0.2-5.5,1.6-7.3c5.6-5.4,6.3-6.5,2.9-13.2c-2.1-4.1-3.1-9.1-7.4-12
			c-0.9-0.6-0.8-1.8-0.5-2.8c2.5-7.3-3.5-12.6-4.5-19.1c-0.1-0.9-1.9-2.3-2.4-0.4c-0.9,3.8-1.2,7.7-1.6,11.6c-0.1,0.9,2,1.9,0.3,2.8
			c-1.3,0.7-2.5,0-3.6-0.9c-1.3-1.1-2.5-3.7-4.4-2.3c-1.9,1.3-1,4-0.6,6c0.4,1.9,1.1,3.8,3.4,4.5c1.2,0.3,2.3,1.2,2.1,2.5
			C562.4,93.7,568.3,100.7,566.7,108.7z M549,89.6c0.7-2.7-0.9-3.5-2.6-3.2c-1.9,0.4-4.8,0.6-4.2,3.6c0.2,1.3-0.2,4.3,2.6,3.7
			C546.9,93.3,550.1,93.1,549,89.6z M586.1,89.5c-0.3-3.2-2.9-4.8-1.8-7.7c0.8-1.9-0.4-3.6-1.8-4.8c-1.3-1.1-3-0.7-2.7,1.1
			C580.6,82.3,581.2,86.8,586.1,89.5z"/>
		<path class="st1" d="M446.6,0.3c-0.6,18.9,0.6,37.8,1.3,56.7c0.6,16.1-0.1,32.2,0.7,48.2c1,18.2,0.9,36.5,0.9,54.7
			c0,0.8,0.1,1.7,0.2,2.5c2.1,10.6,0.9,12.7-9.2,16.9c0-57.7,0.1-115.4-0.1-173C440.5,1.2,441.6-0.8,446.6,0.3z"/>
		<path class="st1" d="M631.5,176.3c0.8-2.3,1.7-4.6,0.2-6.9c3-2.1,5.9-0.5,8.9-0.1c0,2.7,0,5.3,0,8c-2.8-0.8-2.9,4-5.8,2.9
			C633.7,179,632.6,177.6,631.5,176.3z"/>
		<path class="st1" d="M583.6,220.3c0-1-0.2-2.1,0.2-2.9c1.2-2.4,1.5-6.5,4.4-6.5c2.9-0.1,0.6,4,2.1,5.8c0.8,1,1,2.4,1.4,3.7
			C589,220.3,586.3,220.3,583.6,220.3z"/>
		<path class="st1" d="M459,170.4c-1.2-25.3-1.8-50.7-1.2-76.5c2.4,0.5,4.2,0.9,3.1,4.1c-0.6,1.9-0.2,3.9,0.4,5.9
			c0.6,2.4,1.1,5-0.8,7.1c-1.7,1.9,0.2,3.7-0.2,5.6c-0.1,0.6,1.4,0.9,2.1,0.6c2.3-0.7,2.5-2.1,1.6-4.3c-0.3-0.8,0.7-2.2,2-2.4
			c1.3-0.2,1.6,1,2,1.9c1.4,3-0.3,4.5-2.6,6c-4.8,3.4-5.6,7.6-1.4,11.6c3.8,3.6,5.9,7.9,7.2,12.8c1.1,4.1,2.9,7.8,5.4,11.1
			c2.6,3.4,2.3,5.7-1.5,8.5C470.2,166.2,464,167,459,170.4z"/>
		<path class="st1" d="M507.2,133.4c-1.3-9.9-8.6-18.6-0.3-28.8c1.3,1.8,2.3,3.5,3.7,5c1.2,1.4,2.3,2.6,4.9,2
			c4.7-1.1,6.9,2.2,4.6,6.6c-1.1,2.2-2.6,4.2-2.4,6.8c0.1,1.7-0.8,2.5-2.4,2.3C511,126.7,508.8,129.1,507.2,133.4z"/>
		<path class="st1" d="M533.5,158.4c2.7-0.5,4.2,1.1,5.3,3.4c1.6,3.4-1.4,5.1-2.7,7.3c-1.3,2.2-3.5,1.3-5.3,0.3
			c-1-0.5-2.2-0.9-3-1.7c-1.5-1.5-5-1.7-4.4-4.5c0.6-2.4,3.3-3.4,5.7-4.2C530.5,158.6,531.9,158.3,533.5,158.4z"/>
		<path class="st1" d="M621.5,170.4c0.7-0.6-0.9-3.5,1.9-1.9c-0.2,2.7-0.5,5.4-0.7,8.1c-0.1,1.7-0.9,1.3-1.9,0.7
			c0-0.9-0.1-1.8-0.1-2.8C622.1,173.3,621.6,171.8,621.5,170.4z"/>
	</g>
</g>
<g>
</g>
<g>
</g>
<g>
</g>
<g>
</g>
<g>
</g>
<g>
</g>
<g>
</g>
<g>
</g>
<g>
</g>
<g>
</g>
<g>
</g>
<g>
</g>
<g>
</g>
<g>
</g>
<g>
</g>
</svg>
