<?xml version="1.0" encoding="utf-8"?>
<!-- Generator: Adobe Illustrator 17.1.0, SVG Export Plug-In . SVG Version: 6.00 Build 0)  -->
<!DOCTYPE svg PUBLIC "-//W3C//DTD SVG 1.1//EN" "http://www.w3.org/Graphics/SVG/1.1/DTD/svg11.dtd">
<svg version="1.1" id="Layer_1" xmlns="http://www.w3.org/2000/svg" xmlns:xlink="http://www.w3.org/1999/xlink" x="0px" y="0px"
	 viewBox="0 0 640.7 230.2" style="enable-background:new 0 0 640.7 230.2;" xml:space="preserve">
<style type="text/css">
	.st0{fill:#FC0000;}
	.st1{fill:#030101;}
	.st2{fill:#F60203;}
</style>
<g>
	<g>
		<path class="st0" d="M0.1,186.1c0-60.6,0-121.2-0.1-181.8C0,0.6,0.9,0,4.4,0c63.9,0.1,127.9,0.1,191.8,0c3.5,0,4.1,0.8,4,4.2
			c-0.2,13.6-0.1,27.3-0.1,41c-9.6,1.2-19.4,1.8-27.5,8.3c-1.3,1-2.8,1.8-4,3c-4.9,4.8-9.8,6.6-16.3,2.2c-3.6-2.4-8.4-2.5-14.1,0.7
			c4.9,1.1,9.3,1.5,7.4,6.9c-0.3,0.9,0.4,0.8,0.7,0.8c1,0.2,2.3,0.2,2.5-1c0.9-4.2,3.4-3.7,5.8-1.7c2.8,2.2,1.1,3.9-1.2,5.3
			c-1.4,0.8-1.6,2.1-0.6,3.4c0.7,0.9,1.1,1.8,3.1,1.1c2.6-0.9,3.7-1.4,2.5-4.3c-0.6-1.5,0.1-3,1.9-3.5c0.9-0.2,2.6-0.3,2.4,0.8
			c-0.6,3.5,2.3,6.6,0.5,10.5c-2.2,4.9-4.3,9.7-8.1,13.6c-1.6,1.2-1.9,3-1.9,4.8c-1.3,0.1-2.6,0.2-3.9,0.4c0-0.7-0.1-1.5-0.1-2.2
			l0,0.1c0.3-0.4,0.7-0.8,1-1.2c-0.4-1.7-1.4-1.8-3-1.3c-3.6,1.1-7.3,2-11,3c-2.2,0.6-4.7-2-6.7,1.5c-0.3-2.9-1.1-4.9-1.6-6.9
			c-0.9-3.6-5-6.5-2.8-10.9c0.2-0.3-0.3-1.4-0.8-1.6c-1-0.5-1.6,0.5-1.8,1.2c-0.6,2.8-0.9,5.6,0.6,8.2c1.7,2.9,1.4,6.2,1.1,9.2
			c-0.2,1.9-3.5,0.5-5.4,1.2c-6,2.3-7.6,6.8-4.1,12.1c1.4,2.1,1.2,4.4,1.6,6.7c-0.4,0-0.9,0-1.3,0c-1.7-1.5-2-8.8-5.8-1.3
			c-0.4,0.8-2.1,1.3-3.1,1.2c-4.4-0.6-4.3,2.7-4.7,5.3c-0.2,1.3,0.8,2.8-1.1,4c-0.1-1.4-0.1-2.7-0.3-3.9c-0.1-1.1-0.8-1.9-1.9-1.7
			c-1.1,0.2-1.2,1.4-0.9,2c3.1,4.6-0.5,8.4-1.3,12.5c-0.3,0-0.6,0-0.9,0.1c-1-3.8-1.9-7.6-2.9-11.3c-0.7-2.6-2.4-4.9-5.1-4.5
			c-7.4,1-14.7,2-22.2,1.9c-1.8,0-2.5,1.3-2.8,2.9c-0.7,0-1.3,0.1-2,0.1c-3.4-2.1-7.1-2.2-11-2.1c-5,0.1-7.9,2.5-8.6,7.6
			c-0.5,3.8,2,9.3,5.4,11c-4.4,5.6-3.5,7.9,3.4,10c2,0.6,3.6,0.3,5.2-0.5c5.7-2.8,11.9-2,17.8-2.9c0,1,0,2,0.1,2.9
			c-0.1,8.8-0.1,8.8,8.8,8.9c6.6,0.1,13.1-1.2,19.8-1.2c4.9,0,9.8-1.1,14.6-2.1c4.2-0.9,6.3,1,5.2,5.2c-0.3,1.3-0.8,2.5-1.2,3.9
			c2.3,0,4.5,0,6.6,0c0,1.1,0.1,2.2,0.1,3.4c-2.6,2.8-5.1,5.8-1.6,9.4c3.4,3.4,3.8,4.2,2.6,9.1c-0.3,1.2-0.3,3.2-0.6,3.7
			c-3.3,3.9-0.2,4,2.5,4.9c1.6,0.5,4.2,0.3,4.1,3.4c-0.1,2.7-2.2,2.8-4,3.6c-1.6,0.6-3.2,1-4.8,0.8c-4.6-0.5-7.5,2.3-9.9,5.6
			c-1,1.4-2.2,3.3-0.2,4.9c2.9,2.2,3.1,5.3,3.1,8.5c0.6,0.7,1.1,1.5,1.7,2.2c0.3,1.1,0.6,2.3,0.9,3.4c-1.2,1.2-1.7,2.8-1.7,4.4
			c-28.7,0-57.3,0-86,0c0-1,0-2.1,0-3.1c2.2-2.2,6.1-2.2,7.6-5.5c-2.5-1.1-4.3,1-6.4,0.7c-1.8-0.6-3.9-0.7-4.3-3.2l0,0
			c3.2,1,5.6,0,7-3.1c0.1-1.5,5.8-0.1,2-3.7c-0.2-1.1-0.2-2.4-1.7-2.5c-1.4-0.1-1.8,1.1-2.3,2.2c-2,0.5-4.2-0.2-5.9,1.4
			c-2-0.8-1.8,0.8-2,1.9l0,0c-0.4,0-0.9,0-1.3,0c-0.7-0.1-1.4-0.2-2.1-0.3c-0.2-0.6-0.4-1.1-0.6-1.7c-0.2,0.1-0.4,0.2-0.6,0.3
			c0.4,0.5,0.7,0.9,1.1,1.4c-2.1,0.7-4.2,1.5-6.3,2.2c-0.4,0-0.9,0-1.3,0c-0.3,0-0.6,0-0.8-0.2c0.2-2.6-2.2-5-0.7-7.7
			c0.6-0.1,1.3-0.2,1.9-0.3c0.2,0.9-0.4,2,0.7,2.7c0.7-1.1-0.3-1.8-0.6-2.7c0.3-0.6,0.7-1.2,1-1.8c0.3-0.2,0.5-0.4,0.6-0.7
			c1.4-2.3-0.6-2.6-1.9-3.3c-0.7,0.4-1.3,0.8-2,1.1c-0.4,0.2-0.7,0.4-1.1,0.6c-1.7-1-3.4-2.6-5,0.1c-0.9,0.4-1.7,0.7-2.6,1.1
			c-1.1-1.4-2.7-1.9-4.4-2c0-0.7,0-1.3,0-2c2.5,0.5,3.1-1,3-3c0.4-0.9,1.2-1,2-0.8c1.9,4.2,3.5,3,4.9-0.3l-0.1,0
			c0.7-0.4,1.4-0.8,2.1-1.2l-0.2,0.1c6.2-0.2,1.2-4.5,2.4-6.5c4,1.9,7.8-1.1,11.8-0.4c0.6,0.2,0.9-0.2,1.1-0.7
			c0.2-0.3,0.5-0.4,0.8-0.5c0.5,0.6,1.2,1.5,1.9,0.6c1-1.3,1.7-3.1,0.2-4.4c-1.8-1.5-3.6-1-4.9,0.9c-2.9,1-4.8-2.2-8-1.5
			C11.6,185.8,5.9,186.5,0.1,186.1z M58.1,212.1c0.2-0.2,0.3-0.3,0.5-0.5c-0.2,0-0.4,0-0.6,0c0.1,0.2,0.1,0.4,0.2,0.6
			c-0.2,0-0.4-0.1-0.7-0.1c0,0.2,0.1,0.4,0.1,0.6C57.8,212.5,58,212.3,58.1,212.1z M105.1,168.4c-0.2-1.1-0.9-1.2-1.7-0.6
			c-0.2,0.1-0.1,0.5-0.2,0.7C103.8,168.5,104.4,168.5,105.1,168.4c-0.3-0.4-0.1-1.4-1.1-0.7C104.3,167.9,104.7,168.2,105.1,168.4z
			 M27.2,179.2c-0.3,0.3-0.3,0.6,0,0.9c0.7-0.1,1.4-0.1,2.2-0.2c0-0.2,0-0.4,0-0.5C28.7,179.3,27.9,179.2,27.2,179.2z M41.1,193.1
			c0.7-0.5,1.4-0.9,2.1-1.4c5.3,0.1,4.7-5.1,6.9-7.8c0.6-0.3,1.2-0.6,1.8-0.9c2.6-1,3.1-3,3-5.4c0-0.3-0.7-0.9-1-0.8
			c-2.5,0.5-2.1,2.9-2.8,4.5c-0.6-0.1-1.3-0.3-1.9-0.4c-2.3-2.3-0.2-3.7,1.2-5.2c1.4-1.5,1.1-2.9-0.2-4.3c-1.3-1.3-2.3-0.9-3,0.6
			c-1.2,1.9-5.7-0.2-5,4.1c0.4,2,4,2,3,4.9c-0.4,0.7-0.7,1.4-1.1,2.1c-0.8,1.3-0.6,2.4,0.4,3.5c1,1.1,0.8,2-0.6,2.6
			c-2-0.3-3.7-0.2-4.7,1.9C38.1,193.4,38.8,194.1,41.1,193.1z M87,176.1c1.4,0.1,2.5-0.1,3.6-0.7c1.9-1.1,5.6-1.9,4.8-4.1
			c-1.1-2.9-3.9,0.3-6,0.3c-1,0-1.9,0.4-2.9,0.7c-1.4,0.4-2.6,1.1-2.2,2.7C84.7,176.4,86.2,176,87,176.1z M40.2,201.4
			c-1.8,0.2-3.5,0.9-3.4,2.9c0.1,1.9,1.8,2.9,3.5,2.8c1.5-0.1,3.1-1,3.2-2.7C43.6,202.4,42,201.7,40.2,201.4z M48.4,219.3
			c1.1-1.9,3.5-2,3-4.3c-0.2-0.7-1.3-1.2-2-0.8C47.4,215.2,48.3,216.9,48.4,219.3z M19.7,173.2c-0.5-0.3-1-0.8-1.5-0.8
			c-0.5,0-1.4,0.6-1.4,1c-0.1,0.9,0.9,0.6,1.4,0.6C18.6,174,19.4,174.4,19.7,173.2z M5.9,164.6c-1.4-0.6-2-1.7-3.1-0.9
			c-0.2,0.1-0.3,0.8-0.2,0.9C3.5,165.2,4.4,165.3,5.9,164.6z M25.1,209.3c-0.1,0-0.4,0.1-0.4,0.1c0,0.3,0.1,0.5,0.1,0.8
			c0.1,0,0.4-0.1,0.4-0.1C25.3,209.8,25.2,209.6,25.1,209.3z M77.4,182.4c-0.4,0.2-0.6,0.3-0.9,0.4c0.2,0.2,0.4,0.6,0.6,0.7
			c0.2,0.1,0.5,0.1,0.7,0.1C77.7,183.2,77.5,182.8,77.4,182.4z M76.7,172.6c-0.3-0.1-0.6-0.4-0.8-0.4c-0.3,0-1-0.1-0.7,0.6
			c0.1,0.2,0.6,0.2,0.9,0.2C76.2,173,76.4,172.7,76.7,172.6z"/>
		<path class="st1" d="M72.1,145.3c-6,0.9-12.2,0-17.8,2.9c-1.6,0.8-3.3,1.1-5.2,0.5c-6.9-2.1-7.7-4.3-3.4-10
			c-3.4-1.7-5.9-7.2-5.4-11c0.7-5.1,3.6-7.4,8.6-7.6c3.8-0.1,7.6-0.1,11,2.1c0.6,1.9,1.1,3.8,2,6.8c0-3,0-4.9,0-6.9
			c0.3-1.6,1-2.9,2.8-2.9c7.5,0.1,14.8-0.9,22.2-1.9c2.7-0.4,4.4,1.9,5.1,4.5c1,3.8,2,7.6,2.9,11.3c0.1,0.8,0.2,1.5,0.4,2.3
			c0.2,0,0.4,0,0.5,0c0-0.8,0-1.5,0-2.3c0.8-4.1,4.4-7.9,1.3-12.5c-0.4-0.5-0.2-1.8,0.9-2c1.2-0.2,1.8,0.7,1.9,1.7
			c0.2,1.2,0.2,2.5,0.3,3.9c2-1.2,1-2.7,1.1-4c0.4-2.6,0.3-5.9,4.7-5.3c1,0.1,2.7-0.4,3.1-1.2c3.8-7.5,4.2-0.2,5.8,1.3
			c0.3,0.5,0.5,1.2,1.3,0.7c0.1-0.1,0-0.5,0-0.7c-0.4-2.3-0.3-4.6-1.6-6.7c-3.5-5.4-1.9-9.8,4.1-12.1c1.8-0.7,5.2,0.8,5.4-1.2
			c0.3-2.9,0.5-6.3-1.1-9.2c-1.5-2.6-1.2-5.4-0.6-8.2c0.1-0.7,0.8-1.6,1.8-1.2c0.4,0.2,0.9,1.3,0.8,1.6c-2.3,4.4,1.8,7.3,2.8,10.9
			c0.5,2,1.3,4,1.6,6.9c2-3.5,4.5-0.9,6.7-1.5c3.6-1,7.3-1.9,11-3c1.6-0.5,2.6-0.5,3,1.3c-0.3,0.4-0.7,0.8-1,1.2l0-0.1
			c-4.4,3.4-9.3,5.4-15.4,5.2c1.3,1.2,3.1,1.8,1.3,3.5c-4.4,4.2-3,8.5-0.5,12.9c3.9-1.3,5.8-5,9.2-6.7c3.4-1.7,4.4-4.7,3.1-7.8
			c-1.3-3,0.4-3.7,2.3-4.7c1.3-0.1,2.6-0.2,3.9-0.4c3.5-0.5,1.5-3.1,1.9-4.8c3.8-3.9,5.8-8.7,8.1-13.6c1.8-3.9-1-6.9-0.5-10.5
			c0.2-1.1-1.5-1-2.4-0.8c-1.8,0.5-2.5,2-1.9,3.5c1.3,2.9,0.1,3.4-2.5,4.3c-1.9,0.7-2.3-0.2-3.1-1.1c-1-1.3-0.7-2.6,0.6-3.4
			c2.3-1.4,4-3.1,1.2-5.3c-2.4-1.9-4.9-2.4-5.8,1.7c-0.3,1.2-1.5,1.1-2.5,1c-0.3-0.1-1,0-0.7-0.8c1.9-5.4-2.4-5.9-7.4-6.9
			c5.7-3.3,10.5-3.1,14.1-0.7c6.6,4.4,11.4,2.6,16.3-2.2c1.2-1.1,2.7-1.9,4-3c8.1-6.4,17.9-7.1,27.5-8.3c0,8.7,0,17.3,0,26
			c-2.1,1.3-3.3,2.7,0,4c0,5,0,10,0,15c-2.3,0.3-4.1-1.3-3.7-3c0.8-3.1-1.8-4.2-2.7-6.2c-1.8-4-4.8-2.3-7-1.4
			c-2.2,0.9-4.1,2.8-3.4,5.9c1.4,5.7,3.1,11.4-1.2,16.7c-0.6,0.7-0.9,1.9-0.7,2.8c0.9,6.6,2,13.1,4,19c5-2.7,9.9-5.3,14.8-7.9
			c0,9,0,18,0,27c-2.5,0.1-3.6,2.2-5.1,3.6c-1.4,1.3-2.9,1.8-4.6,1.1c-2.1-0.8-0.2-2.2-0.4-3.4c-0.4-3.3-0.6-6.6-1.2-9.8
			c-0.4-1.9-1.6-3-4-2.1c-3.2,1.3-8.9,8-9.2,11.6c-0.7,6.6,4.1,12.6,10,11.6c2.7-0.5,6.8,1.5,8.5-2.9c0.5-1.2,1.8,0,2.5,0.4
			c1.3,0.8,2.4,1.8,3.5,2.7c0,23.7,0,47.3,0.1,71c0,2.5-0.6,3.2-3.1,3.1c-6-0.2-12-0.1-18-0.1c-2.6-2.5-3.4-5.5-3-9
			c0.2-1.9-0.1-3.7-1.2-5.3c-2.8-4-5.4-8-6.9-12.6c-0.9-2.5-3.2-2.6-5-1.8c-1.6,0.7-5.4,0.1-4.6,2.4c1,2.7-1.7,8.5,5.1,7.7
			c1.4-0.2,2.3,1.7,2.5,3.3c0.1,1-0.1,2-1.1,2.6c-1.4,0.9-2.1-0.3-3-1c-1.2-1-2.4-2-3.9-0.6c-1.4,1.3-1.4,3.2-0.7,4.6
			c1.6,3.1,2,6.2,1.7,9.6c-11.7,0-23.3,0-35,0c2.2-7.9,1.5-16.4,5.5-23.9c0.7-1.4,0.6-2.5-0.7-3.5c-1.1-0.8-3.1-0.8-3.2-0.3
			c-0.4,3-3.5,3.4-4.9,5.5c-2.4,3.6,1.4,7-0.8,10.2l0.2-0.1c-1,0.7-1.9,1.3-2.9,2c0-3.2-0.2-6.2-3.1-8.5c-2-1.5-0.8-3.5,0.2-4.9
			c2.4-3.3,5.2-6.1,9.9-5.6c1.7,0.2,3.3-0.2,4.8-0.8c1.8-0.7,3.9-0.8,4-3.6c0.2-3.1-2.4-2.8-4.1-3.4c-2.7-0.9-5.7-1-2.5-4.9
			c0.4-0.4,0.3-2.5,0.6-3.7c1.2-4.8,0.7-5.7-2.6-9.1c-3.5-3.5-1-6.6,1.6-9.4c2.8-0.3,0.6-2.6,1.5-3.8c0.1-0.2,0.2-0.3,0.2-0.5
			c-0.4-1.9,2.2-3.6,0.5-5.5c-0.6-0.7-1.7-0.5-2.2,0.2c-1.6,2,1.4,3.4,0.9,5.2c-0.3,0.3-0.6,0.6-1,0.9c-2.1,0-4.3,0-6.6,0
			c0.4-1.4,0.9-2.7,1.2-3.9c1-4.2-1-6-5.2-5.2c-4.8,1-9.7,2.1-14.6,2.1c-6.6,0-13.2,1.3-19.8,1.2c-8.9-0.1-9-0.1-8.8-8.9
			c1.1-1.2,2.2-2.4,4.2-2.2c5.6,0.8,10.7-2.1,16.1-2.8C85.5,141.6,78.8,143.6,72.1,145.3z M162.3,160.3c-1.1,0.6-1.5,0.7-1.9,1
			c-8.5,6.8-7.4,16.4-7.3,25.6c0,1.8,1.2,2.2,2.7,2.1c1.7,0,2.9-0.7,3.2-2.5c0.3-2,0.5-4,0.6-5.9C160.1,174,161.2,167.5,162.3,160.3
			z M149.5,149.3c-1.6,3.6-2.3,7-2.4,10.7c-0.1,4.4-0.5,8.8-3,12.8c-2.5,4-1.3,6,3.9,6.9c-0.1-6.4,1.1-12.5,3.6-18.2
			C153.5,156.9,153.3,153.2,149.5,149.3z M148.9,202.1c3.2-0.3,8.3,1.1,4.4-5.2c-0.2-0.3-0.1-0.6-0.1-1c-0.2-1.5,2-3.3-0.4-4.3
			c-2.3-1-2.9,1.6-4.3,2.5c-0.7,0.5-1.2,1.2-1.8,1.8c-1.3,1.3-4.1,1.7-3.3,4.3C144.3,203.2,147,201.7,148.9,202.1z M166.2,71.6
			c1.2,0.9,2.1,1.5,2.7,2.2c1.2,1.4,2.5,1.6,4,0.8c2.2-1.3,2.8-3.7,3.1-6c0.2-1.6-0.7-3.3-2.3-4.1c-1.3-0.7-2.1-0.1-2.6,1.4
			C170.3,68.3,168.9,70.3,166.2,71.6z M139.7,155.8c-0.5,0.1-1,0.1-1.5,0.2c0.4,3.9-1.8,8.2,3.1,12.5
			C140.7,163.5,140.2,159.6,139.7,155.8z M119.6,125c1.1-9,1.1-9-3.1-8.5C117.3,119.2,117.3,122,119.6,125z M180.2,69
			c1.1-2,2.4-4.1,3.6-6.3c0.3-0.6-0.4-1.5-1-1.2c-2.6,1.2-3.2,3.9-4.2,6.3C178.2,68.3,179,68.8,180.2,69z M193,164.8
			c1.5-0.7,2-2,2.1-3.6c0-0.9-0.3-1.9-1.3-1.7c-1.6,0.4-2.1,2.1-2.4,3.5C191.2,164,192.1,164.5,193,164.8z M171,178.1
			c-3.4,1.1-2.8,3.7-3.5,5.5C168.8,182.2,170.4,180.9,171,178.1z M126,106.7c0.8-0.8,1.9-1.5,2.5-2.5c0.2-0.3-1-1.2-1.9-1.1
			c-1.2,0.1-2.2,0.7-2.1,2.1C124.5,105.9,124.9,106.8,126,106.7z M140.9,132.3c-2.4,1.2-3,3.1-3.4,5.2
			C139.1,136.3,141.3,135.6,140.9,132.3z M148.9,212.6c1.1,0,1.3-0.9,1.6-1.5c0.4-0.8,0.3-1.6-0.8-1.8c-1-0.2-1.5,0.5-1.6,1.3
			C148.1,211.4,148,212.2,148.9,212.6z M152.9,223.9c0.4-1.8-0.1-2.7-1.1-3.4c-0.1-0.1-0.9,0.5-1,0.8
			C150.1,223.1,151.7,223.2,152.9,223.9z M193.9,156.5c-0.1-0.1-0.2-0.2-0.3-0.3c-0.1,0.1-0.3,0.2-0.3,0.3c0,0.1,0.2,0.2,0.3,0.3
			C193.7,156.7,193.8,156.6,193.9,156.5z"/>
		<path class="st2" d="M200.1,116.1c-4.9,2.6-9.8,5.2-14.8,7.9c-2-5.9-3.1-12.5-4-19c-0.1-0.9,0.2-2.1,0.7-2.8
			c4.3-5.3,2.6-11,1.2-16.7c-0.8-3.1,1.2-5,3.4-5.9c2.3-0.9,5.2-2.6,7,1.4c0.9,2,3.4,3,2.7,6.2c-0.4,1.7,1.4,3.3,3.7,3
			C200.1,98.8,200.1,107.4,200.1,116.1z"/>
		<path class="st2" d="M159.1,230.1c0.3-3.4-0.1-6.5-1.7-9.6c-0.7-1.4-0.7-3.3,0.7-4.6c1.5-1.4,2.7-0.4,3.9,0.6c0.8,0.7,1.5,1.9,3,1
			c1-0.6,1.2-1.6,1.1-2.6c-0.2-1.6-1.1-3.4-2.5-3.3c-6.8,0.8-4.1-5.1-5.1-7.7c-0.9-2.4,2.9-1.7,4.6-2.4c1.7-0.8,4.1-0.7,5,1.8
			c1.6,4.6,4.2,8.7,6.9,12.6c1.1,1.6,1.4,3.4,1.2,5.3c-0.4,3.5,0.4,6.6,3,9c-2,0-4,0-6,0c0.3-1.3,2-3,0-3.6c-2.5-0.7-3.6,1.3-4,3.6
			C165.8,230.1,162.5,230.1,159.1,230.1z"/>
		<path class="st2" d="M200.1,156.1c-1.2-0.9-2.3-2-3.5-2.7c-0.7-0.4-2.1-1.6-2.5-0.4c-1.7,4.4-5.8,2.4-8.5,2.9
			c-5.9,1-10.6-5-10-11.6c0.4-3.5,6-10.3,9.2-11.6c2.4-1,3.7,0.1,4,2.1c0.6,3.2,0.8,6.5,1.2,9.8c0.1,1.1-1.7,2.6,0.4,3.4
			c1.7,0.6,3.2,0.1,4.6-1.1c1.5-1.4,2.6-3.5,5.1-3.6c0,1.7,0,3.3,0,5c-1.3,0.3-3.5-0.7-3.7,1.3c-0.2,2.5,2.3,1.4,3.7,1.7
			C200.1,152.8,200.1,154.4,200.1,156.1z"/>
		<path class="st2" d="M32.1,227c0,1,0,2.1,0,3.1c-9.8,0-19.7,0-29.5,0c-1.3,0-3.1,0.5-2.5-2c2.3,0,3.4-1.8,3.5-3.4
			c0.1-1.5-1.7-2.5-3.5-2.6c0-4.7,0-9.3,0-14c2.7-0.2,5,0.2,5.1,3.6c0,1,0.8,1.3,1.7,1.3c0.9,0,1.8-0.2,1.7-1.2
			c0-3.9,2.8-2.4,4.7-2.5c-1.5,2.7,0.9,5.1,0.7,7.7c-0.7,0-1.3,0.1-2,0.1c-1.6,0-3.9-1.8-4.4,1.1c-0.5,2.9,2.4,2.3,3.9,3.2
			c1.5,0.8,2.4-0.2,3.6-0.8c2-1,3.8-0.8,4.9,1.5c-1.7-0.1-2.6,1.3-4,1.8c-1.3,0.4-2.9,0.6-2.7,2.3c0.3,2,2.1,1.9,3.5,1.8
			C22.1,227.7,27.1,227.3,32.1,227z"/>
		<path class="st1" d="M0.1,186.1c5.8,0.4,11.5-0.4,17-1.6c3.1-0.7,5.1,2.5,8,1.5c1.8,0.1,3.3,0.5,2.9,2.9c-0.3,0.1-0.6,0.2-0.8,0.5
			c-0.4,0.2-0.7,0.5-1.1,0.7c-4-0.6-7.8,2.3-11.8,0.4c-1.5-0.1-2.9-2.1-4.4-0.3c-1.4,1.8,0.6,2.6,1.3,3.6c0.8,1,0.9,2,0.7,3.2
			c0,0,0.2-0.1,0.2-0.1c-0.8,0.2-1.7,0.3-2.1,1.2l0.1,0c-1.6,0.1-3.3,0.2-4.9,0.3c-0.8-0.2-1.6-0.1-2,0.8c-1-0.3-2-0.6-3-1
			c0-0.7,0-1.3,0-2c0.6-0.1,1.4-0.1,1.8-0.5c1.2-0.9,3.9-0.1,3.4-2.4c-0.3-1.6-2.4-1.1-3.8-1.2c-0.5,0-1,0-1.5,0
			C0.1,190.1,0.1,188.1,0.1,186.1z"/>
		<path class="st2" d="M120,218.1c2.1-3.2-1.6-6.6,0.8-10.2c1.4-2.1,4.6-2.5,4.9-5.5c0.1-0.5,2.1-0.5,3.2,0.3c1.3,1,1.4,2.1,0.7,3.5
			c-4,7.5-3.3,16-5.5,23.9c-2,0-4,0-6,0c0.1-1.7,0.5-3.2,1.7-4.4C121.7,223.2,124.3,220.8,120,218.1z"/>
		<path class="st1" d="M13.4,209.3c-1.9,0.1-4.7-1.4-4.7,2.5c0,1-0.9,1.2-1.7,1.2c-0.9,0-1.7-0.3-1.7-1.3c-0.2-3.4-2.4-3.8-5.1-3.6
			c0-0.3,0-0.7,0-1c1.3-1.1,3.3,1,4.4-1c0.9-0.4,1.7-0.7,2.6-1.1c1.7,0,3.3-0.1,5-0.1c0.4-0.2,0.7-0.4,1.1-0.6
			c0.8-0.1,1.6-0.3,2-1.1c1.3,0.7,3.3,1,1.9,3.3c-0.2,0.2-0.4,0.5-0.6,0.7c-0.3,0.6-0.7,1.2-1,1.9c0,0-0.1,0-0.1,0
			C14.7,209,14.1,209.2,13.4,209.3z"/>
		<path class="st2" d="M0.1,192.1c0.5,0,1,0,1.5,0c1.4,0.1,3.5-0.5,3.8,1.2c0.4,2.3-2.3,1.5-3.4,2.4c-0.5,0.3-1.2,0.3-1.8,0.5
			C0.1,194.8,0.1,193.4,0.1,192.1z"/>
		<path class="st1" d="M0.1,222.1c1.8,0.1,3.6,1.1,3.5,2.6c-0.1,1.5-1.2,3.4-3.5,3.4C0.1,226.1,0.1,224.1,0.1,222.1z"/>
		<path class="st1" d="M169.1,230.1c0.4-2.3,1.5-4.3,4-3.6c2.1,0.6,0.4,2.4,0,3.6C171.8,230.1,170.5,230.1,169.1,230.1z"/>
		<path class="st1" d="M200.1,151.1c-1.4-0.3-3.8,0.8-3.7-1.7c0.1-2,2.3-1,3.7-1.3C200.1,149.1,200.1,150.1,200.1,151.1z"/>
		<path class="st2" d="M4.5,206.1c-1.1,2-3.1-0.1-4.4,1c0-1,0-2,0-3C1.9,204.2,3.4,204.7,4.5,206.1z"/>
		<path class="st2" d="M0.1,198.1c1,0.3,2,0.6,3,1c0.1,2.1-0.4,3.6-3,3C0.1,200.8,0.1,199.4,0.1,198.1z"/>
		<path class="st2" d="M200.1,75.1c-3.3-1.3-2.1-2.7,0-4C200.1,72.4,200.1,73.8,200.1,75.1z"/>
		<path class="st2" d="M149.2,96.3c-1.9,1-3.6,1.7-2.3,4.7c1.3,3.1,0.3,6.1-3.1,7.8c-3.4,1.7-5.4,5.5-9.2,6.7
			c-2.5-4.3-3.9-8.7,0.5-12.9c1.8-1.7,0-2.3-1.3-3.5c6.1,0.3,11-1.8,15.4-5.2C149.1,94.8,149.1,95.5,149.2,96.3z"/>
		<path class="st1" d="M20.2,222.2c-1.1-2.3-2.9-2.5-4.9-1.5c-1.2,0.6-2,1.6-3.6,0.8c-1.6-0.8-4.4-0.3-3.9-3.2
			c0.5-3,2.8-1.1,4.4-1.1c0.7,0,1.3-0.1,2-0.1c0.2,0.2,0.5,0.2,0.8,0.2c0.5,0.9,0.9,0.9,1.3,0c2.1-0.7,4.2-1.5,6.3-2.2l0.2,0
			c0.7,0.1,1.4,0.2,2.1,0.3c0.4,0.8,0.9,1,1.3,0l0,0c1.2-0.1,1.9-0.7,2-1.9c1.7-1.6,3.9-0.9,5.9-1.4c1.3,0.1,2.6,0.2,4,0.4
			c3.8,3.6-1.9,2.2-2,3.7c-2.3,1.2-6.6-2.2-7,3.1l0,0c-2.3,3.2-6.1,1.6-9,3L20.2,222.2z"/>
		<path class="st1" d="M32.1,227c-5,0.4-10,0.8-15,1.1c-1.5,0.1-3.3,0.2-3.5-1.8c-0.2-1.7,1.4-1.9,2.7-2.3c1.4-0.5,2.3-1.9,4-1.8
			L20,222c4.4,5,8.9,0.5,13.3,0.2c2.1,0.3,4-1.8,6.4-0.7C38.2,224.7,34.3,224.8,32.1,227z"/>
		<path class="st2" d="M72.1,145.3c6.7-1.7,13.3-3.7,20.4-2.1c-5.4,0.7-10.5,3.6-16.1,2.8c-2-0.3-3,1-4.2,2.2
			C72.2,147.3,72.1,146.3,72.1,145.3z"/>
		<path class="st1" d="M87,176.1c-0.8-0.1-2.3,0.4-2.6-1.2c-0.4-1.6,0.8-2.4,2.2-2.7c1-0.2,1.9-0.7,2.9-0.7c2.1,0,4.9-3.2,6-0.3
			c0.8,2.2-2.9,3-4.8,4.1C89.5,175.9,88.5,176.1,87,176.1z"/>
		<path class="st2" d="M45.1,181c1-2.8-2.6-2.9-3-4.9c1.5-0.1,3.1,0.2,4.4-0.4c1.4-0.7,3.7-2,0.6-3.7c0.7-1.5,1.8-1.9,3-0.6
			c1.3,1.3,1.6,2.8,0.2,4.3c-1.4,1.5-3.5,2.8-1.2,5.2C47.8,181,46.5,181,45.1,181z"/>
		<path class="st2" d="M40.2,201.4c1.8,0.3,3.4,1.1,3.3,3.1c-0.1,1.7-1.7,2.6-3.2,2.7c-1.7,0.1-3.5-0.9-3.5-2.8
			C36.7,202.3,38.4,201.6,40.2,201.4z"/>
		<path class="st2" d="M43.8,189.2c1.4-0.6,1.6-1.5,0.6-2.6c-1-1.1-1.2-2.3-0.4-3.5c1.8,1.8,3.9,1.8,6.1,0.9
			c-2.2,2.7-1.5,7.9-6.9,7.8C43.4,190.9,43.6,190.1,43.8,189.2z"/>
		<path class="st2" d="M33.3,222.2c-4.4,0.3-8.9,4.8-13.3-0.2c2.9-1.4,6.8,0.2,9-3C29.4,221.5,31.6,221.6,33.3,222.2z"/>
		<path class="st2" d="M11.9,196.9c0.3-1.2,0.1-2.2-0.7-3.2c-0.8-1-2.8-1.8-1.3-3.6c1.5-1.9,2.9,0.2,4.4,0.3
			C13.1,192.4,18.1,196.7,11.9,196.9z"/>
		<path class="st1" d="M120,218.1c4.3,2.6,1.7,5.1-0.2,7.5c-0.3-1.1-0.6-2.3-0.9-3.4c0.4-1.4,0.8-2.8,1.2-4.2L120,218.1z"/>
		<path class="st1" d="M50.1,184c-2.2,0.9-4.3,0.9-6.1-0.9c0.4-0.7,0.7-1.4,1.1-2.1c1.3,0,2.7-0.1,4-0.1c0.6,0.1,1.3,0.3,1.9,0.4
			c0.3,0.6,0.6,1.1,0.9,1.7C51.4,183.4,50.7,183.7,50.1,184z"/>
		<path class="st2" d="M28,188.8c0.4-2.3-1.1-2.7-2.9-2.9c1.4-1.9,3.2-2.4,4.9-0.9c1.5,1.3,0.8,3-0.2,4.4
			C29.1,190.3,28.5,189.4,28,188.8z"/>
		<path class="st1" d="M47.1,172.1c3.1,1.7,0.9,3-0.6,3.7c-1.3,0.6-2.9,0.3-4.4,0.4C41.4,171.9,45.9,173.9,47.1,172.1z"/>
		<path class="st2" d="M52,183c-0.3-0.6-0.6-1.1-0.9-1.7c0.7-1.7,0.3-4.1,2.8-4.5c0.3-0.1,1,0.5,1,0.8C55.1,180,54.5,182.1,52,183z"
			/>
		<path class="st2" d="M29,219c0.5-5.3,4.8-1.9,7-3.1C34.6,219,32.2,220,29,219z"/>
		<path class="st1" d="M43.8,189.2c-0.2,0.8-0.4,1.7-0.6,2.5c-0.7,0.5-1.4,0.9-2.1,1.4c-0.7-0.7-1.4-1.3-2-2
			C40.1,189.1,41.9,188.9,43.8,189.2z"/>
		<path class="st2" d="M5.1,198.3c1.6-0.1,3.3-0.2,4.9-0.3C8.6,201.3,7,202.5,5.1,198.3z"/>
		<path class="st1" d="M48.4,219.3c-0.2-2.4-1.1-4.1,0.9-5.1c0.8-0.4,1.9,0.1,2,0.8C51.9,217.4,49.6,217.4,48.4,219.3z"/>
		<path class="st2" d="M38.1,212.2c-1.3-0.1-2.6-0.2-4-0.4c0.4-1.1,0.8-2.2,2.3-2.2C37.9,209.8,37.9,211.1,38.1,212.2z"/>
		<path class="st2" d="M155,91.1c-0.3,1.7,1.6,4.3-1.9,4.8C153.1,94.1,153.4,92.3,155,91.1z"/>
		<path class="st2" d="M61.9,122.1c0,1.9,0,3.8,0,6.9c-0.9-2.9-1.4-4.9-2-6.8C60.6,122.1,61.3,122.1,61.9,122.1z"/>
		<path class="st2" d="M12.1,204.9c-1.7,0-3.3,0.1-5,0.1C8.7,202.3,10.4,203.9,12.1,204.9z"/>
		<path class="st2" d="M120.2,218c-0.4,1.4-0.8,2.8-1.2,4.2c-0.6-0.7-1.1-1.5-1.7-2.2C118.2,219.4,119.2,218.7,120.2,218z"/>
		<path class="st2" d="M39.1,191.1c0.7,0.7,1.4,1.3,2,2C38.8,194.1,38.1,193.4,39.1,191.1z"/>
		<path class="st2" d="M127.7,162.6c-0.9,1.1,1.3,3.4-1.5,3.8c0-1.1-0.1-2.2-0.1-3.4c0.3-0.3,0.6-0.6,1-0.9
			C127.3,162.2,127.5,162.4,127.7,162.6z"/>
		<path class="st1" d="M19.7,173.2c-0.3,1.1-1,0.8-1.5,0.8c-0.5,0-1.5,0.3-1.4-0.6c0-0.4,0.9-1,1.4-1
			C18.6,172.4,19.2,173,19.7,173.2z"/>
		<path class="st1" d="M5.9,164.6c-1.5,0.6-2.4,0.6-3.3-0.1c-0.1-0.1,0-0.7,0.2-0.9C3.9,163,4.6,164.1,5.9,164.6z"/>
		<path class="st2" d="M28.2,213.3c-0.1,1.3-0.8,1.8-2,1.9C26.4,214.1,26.2,212.5,28.2,213.3z"/>
		<path class="st2" d="M22.8,214.9l-0.2,0c-0.4-0.5-0.7-0.9-1.1-1.4c0.2-0.1,0.4-0.2,0.6-0.3C22.4,213.8,22.6,214.3,22.8,214.9z"/>
		<path class="st2" d="M25.1,209.3c0.1,0.3,0.1,0.5,0.1,0.8c0,0-0.3,0.1-0.4,0.1c-0.1-0.3-0.1-0.5-0.1-0.8
			C24.7,209.4,25,209.3,25.1,209.3z"/>
		<path class="st2" d="M15.3,208.9C15.3,208.9,15.4,208.9,15.3,208.9c0.3,0.9,1.3,1.6,0.7,2.7C14.9,210.9,15.6,209.8,15.3,208.9z"/>
		<path class="st1" d="M27.2,179.2c0.7,0,1.4,0.1,2.2,0.1c0,0.2,0,0.4,0,0.5c-0.7,0.1-1.4,0.1-2.2,0.2
			C27.2,179.8,27.2,179.5,27.2,179.2z"/>
		<path class="st1" d="M77.4,182.4c0.1,0.4,0.3,0.8,0.4,1.2c-0.2,0-0.5,0-0.7-0.1c-0.3-0.2-0.4-0.5-0.6-0.7
			C76.7,182.6,77,182.5,77.4,182.4z"/>
		<path class="st2" d="M95.9,133.1c0,0.8,0,1.5,0,2.3c-0.2,0-0.4,0-0.5,0c-0.1-0.8-0.2-1.5-0.4-2.3
			C95.3,133.1,95.6,133.1,95.9,133.1z"/>
		<path class="st1" d="M76.7,172.6c-0.2,0.2-0.5,0.4-0.7,0.4c-0.3,0-0.8,0-0.9-0.2c-0.3-0.7,0.4-0.6,0.7-0.6
			C76.1,172.2,76.4,172.4,76.7,172.6z"/>
		<path class="st1" d="M105,168.4c-0.6,0-1.2,0.1-1.8,0.1c0.1-0.2,0-0.6,0.2-0.7C104.2,167.2,104.8,167.3,105,168.4L105,168.4z"/>
		<path class="st2" d="M15.2,203.1c-0.4,0.8-1.2,1.1-2,1.1C13.9,203.9,14.5,203.5,15.2,203.1z"/>
		<path class="st2" d="M26.1,190c0.4-0.2,0.7-0.5,1.1-0.7C27,189.8,26.7,190.2,26.1,190z"/>
		<path class="st2" d="M10,198c0.4-0.9,1.3-1,2.1-1.2C11.4,197.2,10.7,197.6,10,198z"/>
		<path class="st1" d="M105.1,168.4c-0.4-0.2-0.7-0.5-1.1-0.7C105,167,104.7,168.1,105.1,168.4C105,168.4,105.1,168.4,105.1,168.4z"
			/>
		<path class="st1" d="M58.2,212.2c-0.1-0.2-0.1-0.4-0.2-0.6c0.2,0,0.4,0,0.6,0c-0.2,0.2-0.3,0.3-0.5,0.5L58.2,212.2z"/>
		<path class="st1" d="M58.1,212.1c-0.2,0.2-0.3,0.4-0.5,0.6c0-0.2-0.1-0.4-0.1-0.6c0.2,0,0.4,0.1,0.7,0.1L58.1,212.1z"/>
		<path class="st2" d="M16.4,207.1c0.2-0.2,0.4-0.5,0.6-0.7C16.9,206.7,16.7,206.9,16.4,207.1z"/>
		<path class="st2" d="M26.3,215.2c-0.4,1-0.9,0.8-1.3,0C25.4,215.2,25.8,215.2,26.3,215.2z"/>
		<path class="st2" d="M16.3,217.2c-0.4,0.9-0.9,0.9-1.3,0C15.4,217.2,15.8,217.2,16.3,217.2z"/>
		<path class="st2" d="M27.2,179.2c-0.1,0.3,0,0.6,0,0.9C27,179.8,26.9,179.5,27.2,179.2z"/>
		<path class="st2" d="M116.4,115.1c0,0.2,0.1,0.7,0,0.7c-0.8,0.5-1-0.2-1.3-0.7C115.5,115.1,116,115.1,116.4,115.1z"/>
		<path class="st2" d="M149,94.1c0.3-0.4,0.7-0.8,1-1.2C149.7,93.3,149.4,93.7,149,94.1z"/>
		<path class="st2" d="M162.3,160.3c-1.1,7.1-2.3,13.7-2.7,20.4c-0.1,1.9-0.3,3.9-0.6,5.9c-0.3,1.8-1.5,2.5-3.2,2.5
			c-1.5,0-2.7-0.4-2.7-2.1c-0.1-9.3-1.3-18.8,7.3-25.6C160.8,161.1,161.2,160.9,162.3,160.3z"/>
		<path class="st2" d="M149.5,149.3c3.8,4,4,7.6,2.1,12.1c-2.5,5.7-3.7,11.9-3.6,18.2c-5.2-0.9-6.4-2.9-3.9-6.9
			c2.5-4,2.8-8.4,3-12.8C147.2,156.3,147.9,152.8,149.5,149.3z"/>
		<path class="st2" d="M148.9,202.1c-1.9-0.4-4.6,1-5.5-1.9c-0.8-2.6,2.1-3,3.3-4.3c0.6-0.6,1.1-1.3,1.8-1.8c1.4-0.9,2-3.5,4.3-2.5
			c2.4,1,0.2,2.9,0.4,4.3c0,0.3,0,0.7,0.1,1C157.2,203.2,152.1,201.8,148.9,202.1z"/>
		<path class="st2" d="M166.2,71.6c2.7-1.3,4.1-3.3,4.9-5.8c0.4-1.4,1.2-2.1,2.6-1.4c1.6,0.8,2.5,2.5,2.3,4.1
			c-0.3,2.3-0.8,4.7-3.1,6c-1.5,0.9-2.8,0.7-4-0.8C168.3,73.1,167.4,72.6,166.2,71.6z"/>
		<path class="st2" d="M139.7,155.8c0.5,3.8,1,7.7,1.6,12.7c-4.9-4.3-2.6-8.6-3.1-12.5C138.8,155.9,139.2,155.9,139.7,155.8z"/>
		<path class="st2" d="M119.6,125c-2.3-3-2.4-5.8-3.1-8.5C120.8,116,120.8,116,119.6,125z"/>
		<path class="st2" d="M180.2,69c-1.2-0.2-2-0.7-1.7-1.3c1-2.3,1.6-5,4.2-6.3c0.6-0.3,1.3,0.7,1,1.2C182.6,64.9,181.3,67,180.2,69z"
			/>
		<path class="st2" d="M193,164.8c-0.9-0.3-1.8-0.8-1.6-1.7c0.3-1.5,0.8-3.1,2.4-3.5c1-0.3,1.3,0.8,1.3,1.7
			C195,162.8,194.5,164.1,193,164.8z"/>
		<path class="st2" d="M127,162c0.5-1.9-2.5-3.2-0.9-5.2c0.6-0.7,1.6-0.9,2.2-0.2c1.7,1.9-0.9,3.6-0.5,5.5c0,0.1-0.1,0.3-0.2,0.5
			C127.5,162.4,127.3,162.2,127,162z"/>
		<path class="st2" d="M171,178.1c-0.6,2.8-2.1,4.1-3.5,5.5C168.2,181.8,167.6,179.2,171,178.1z"/>
		<path class="st2" d="M126,106.7c-1.2,0.1-1.5-0.8-1.6-1.4c-0.1-1.4,0.9-2,2.1-2.1c0.9-0.1,2.1,0.7,1.9,1.1
			C127.9,105.2,126.9,105.9,126,106.7z"/>
		<path class="st2" d="M140.9,132.3c0.4,3.2-1.9,3.9-3.4,5.2C137.9,135.4,138.6,133.5,140.9,132.3z"/>
		<path class="st2" d="M148.9,212.6c-1-0.4-0.8-1.2-0.7-2c0.1-0.9,0.6-1.5,1.6-1.3c1.1,0.2,1.2,1,0.8,1.8
			C150.2,211.7,150,212.6,148.9,212.6z"/>
		<path class="st2" d="M152.9,223.9c-1.1-0.7-2.8-0.7-2.1-2.6c0.1-0.4,0.9-0.9,1-0.8C152.7,221.1,153.3,222.1,152.9,223.9z"/>
		<path class="st2" d="M193.9,156.5c-0.1,0.1-0.2,0.2-0.3,0.3c-0.1-0.1-0.3-0.2-0.3-0.3c0-0.1,0.2-0.2,0.3-0.3
			C193.7,156.3,193.8,156.4,193.9,156.5z"/>
	</g>
	<g>
		<path class="st1" d="M292.3,122.7c-6,0.9-12.2,0-17.8,2.9c-1.6,0.8-3.3,1.1-5.2,0.5c-6.9-2.1-7.7-4.3-3.4-10
			c-3.4-1.7-5.9-7.2-5.4-11c0.7-5.1,3.6-7.4,8.6-7.6c3.8-0.1,7.6-0.1,11,2.1c0.6,1.9,1.1,3.8,2,6.8c0-3,0-4.9,0-6.9
			c0.3-1.6,1-2.9,2.8-2.9c7.5,0.1,14.8-0.9,22.2-1.9c2.7-0.4,4.4,1.9,5.1,4.5c1,3.8,2,7.6,2.9,11.3c0.1,0.8,0.2,1.5,0.4,2.3
			c0.2,0,0.4,0,0.5,0c0-0.8,0-1.5,0-2.3c0.8-4.1,4.4-7.9,1.3-12.5c-0.4-0.5-0.2-1.8,0.9-2c1.2-0.2,1.8,0.7,1.9,1.7
			c0.2,1.2,0.2,2.5,0.3,3.9c2-1.2,1-2.7,1.1-4c0.4-2.6,0.3-5.9,4.7-5.3c1,0.1,2.7-0.4,3.1-1.2c3.8-7.5,4.2-0.2,5.8,1.3
			c0.3,0.5,0.5,1.2,1.3,0.7c0.1-0.1,0-0.5,0-0.7c-0.4-2.3-0.3-4.6-1.6-6.7c-3.5-5.4-1.9-9.8,4.1-12.1c1.8-0.7,5.2,0.8,5.4-1.2
			c0.3-2.9,0.5-6.3-1.1-9.2c-1.5-2.6-1.2-5.4-0.6-8.2c0.1-0.7,0.8-1.6,1.8-1.2c0.4,0.2,0.9,1.3,0.8,1.6c-2.3,4.4,1.8,7.3,2.8,10.9
			c0.5,2,1.3,4,1.6,6.9c2-3.5,4.5-0.9,6.7-1.5c3.6-1,7.3-1.9,11-3c1.6-0.5,2.6-0.5,3,1.3c-0.3,0.4-0.7,0.8-1,1.2l0-0.1
			c-4.4,3.4-9.3,5.4-15.4,5.2c1.3,1.2,3.1,1.8,1.3,3.5c-4.4,4.2-3,8.5-0.5,12.9c3.9-1.3,5.8-5,9.2-6.7c3.4-1.7,4.4-4.7,3.1-7.8
			c-1.3-3,0.4-3.7,2.3-4.7c1.3-0.1,2.6-0.2,3.9-0.4c3.5-0.5,1.5-3.1,1.9-4.8c3.8-3.9,5.8-8.7,8.1-13.6c1.8-3.9-1-6.9-0.5-10.5
			c0.2-1.1-1.5-1-2.4-0.8c-1.8,0.5-2.5,2-1.9,3.5c1.3,2.9,0.1,3.4-2.5,4.3c-1.9,0.7-2.3-0.2-3.1-1.1c-1-1.3-0.7-2.6,0.6-3.4
			c2.3-1.4,4-3.1,1.2-5.3c-2.4-1.9-4.9-2.4-5.8,1.7c-0.3,1.2-1.5,1.1-2.5,1c-0.3-0.1-1,0-0.7-0.8c1.9-5.4-2.4-5.9-7.4-6.9
			c5.7-3.3,10.5-3.1,14.1-0.7c6.6,4.4,11.4,2.6,16.3-2.2c1.2-1.1,2.7-1.9,4-3c8.1-6.4,17.9-7.1,27.5-8.3c0,8.7,0,17.3,0,26
			c-2.1,1.3-3.3,2.7,0,4c0,5,0,10,0,15c-2.3,0.3-4.1-1.3-3.7-3c0.8-3.1-1.8-4.2-2.7-6.2c-1.8-4-4.8-2.3-7-1.4
			c-2.2,0.9-4.1,2.8-3.4,5.9c1.4,5.7,3.1,11.4-1.2,16.7c-0.6,0.7-0.9,1.9-0.7,2.8c0.9,6.6,2,13.1,4,19c5-2.7,9.9-5.3,14.8-7.9
			c0,9,0,18,0,27c-2.5,0.1-3.6,2.2-5.1,3.6c-1.4,1.3-2.9,1.8-4.6,1.1c-2.1-0.8-0.2-2.2-0.4-3.4c-0.4-3.3-0.6-6.6-1.2-9.8
			c-0.4-1.9-1.6-3-4-2.1c-3.2,1.3-8.9,8-9.2,11.6c-0.7,6.6,4.1,12.6,10,11.6c2.7-0.5,6.8,1.5,8.5-2.9c0.5-1.2,1.8,0,2.5,0.4
			c1.3,0.8,2.4,1.8,3.5,2.7c0,23.7,0,47.3,0.1,71c0,2.5-0.6,3.2-3.1,3.1c-6-0.2-12-0.1-18-0.1c-2.6-2.5-3.4-5.5-3-9
			c0.2-1.9-0.1-3.7-1.2-5.3c-2.8-4-5.4-8-6.9-12.6c-0.9-2.5-3.2-2.6-5-1.8c-1.6,0.7-5.4,0.1-4.6,2.4c1,2.7-1.7,8.5,5.1,7.7
			c1.4-0.2,2.3,1.7,2.5,3.3c0.1,1-0.1,2-1.1,2.6c-1.4,0.9-2.1-0.3-3-1c-1.2-1-2.4-2-3.9-0.6c-1.4,1.3-1.4,3.2-0.7,4.6
			c1.6,3.1,2,6.2,1.7,9.6c-11.7,0-23.3,0-35,0c2.2-7.9,1.5-16.4,5.5-23.9c0.7-1.4,0.6-2.5-0.7-3.5c-1.1-0.8-3.1-0.8-3.2-0.3
			c-0.4,3-3.5,3.4-4.9,5.5c-2.4,3.6,1.4,7-0.8,10.2l0.2-0.1c-1,0.7-1.9,1.3-2.9,2c0-3.2-0.2-6.2-3.1-8.5c-2-1.5-0.8-3.5,0.2-4.9
			c2.4-3.3,5.2-6.1,9.9-5.6c1.7,0.2,3.3-0.2,4.8-0.8c1.8-0.7,3.9-0.8,4-3.6c0.2-3.1-2.4-2.8-4.1-3.4c-2.7-0.9-5.7-1-2.5-4.9
			c0.4-0.4,0.3-2.5,0.6-3.7c1.2-4.8,0.7-5.7-2.6-9.1c-3.5-3.5-1-6.6,1.6-9.4c2.8-0.3,0.6-2.6,1.5-3.8c0.1-0.2,0.2-0.3,0.2-0.5
			c-0.4-1.9,2.2-3.6,0.5-5.5c-0.6-0.7-1.7-0.5-2.2,0.2c-1.6,2,1.4,3.4,0.9,5.2c-0.3,0.3-0.6,0.6-1,0.9c-2.1,0-4.3,0-6.6,0
			c0.4-1.4,0.9-2.7,1.2-3.9c1-4.2-1-6-5.2-5.2c-4.8,1-9.7,2.1-14.6,2.1c-6.6,0-13.2,1.3-19.8,1.2c-8.9-0.1-9-0.1-8.8-8.9
			c1.1-1.2,2.2-2.4,4.2-2.2c5.6,0.8,10.7-2.1,16.1-2.8C305.7,119,299,121,292.3,122.7z M382.5,137.8c-1.1,0.6-1.5,0.7-1.9,1
			c-8.5,6.8-7.4,16.4-7.3,25.6c0,1.8,1.2,2.2,2.7,2.1c1.7,0,2.9-0.7,3.2-2.5c0.3-2,0.5-4,0.6-5.9
			C380.3,151.5,381.4,144.9,382.5,137.8z M369.7,126.7c-1.6,3.6-2.3,7-2.4,10.7c-0.1,4.4-0.5,8.8-3,12.8c-2.5,4-1.3,6,3.9,6.9
			c-0.1-6.4,1.1-12.5,3.6-18.2C373.8,134.3,373.5,130.7,369.7,126.7z M369.1,179.6c3.2-0.3,8.3,1.1,4.4-5.2c-0.2-0.3-0.1-0.6-0.1-1
			c-0.2-1.5,2-3.3-0.4-4.3c-2.3-1-2.9,1.6-4.3,2.5c-0.7,0.5-1.2,1.2-1.8,1.8c-1.3,1.3-4.1,1.7-3.3,4.3
			C364.5,180.6,367.2,179.1,369.1,179.6z M386.4,49.1c1.2,0.9,2.1,1.5,2.7,2.2c1.2,1.4,2.5,1.6,4,0.8c2.2-1.3,2.8-3.7,3.1-6
			c0.2-1.6-0.7-3.3-2.3-4.1c-1.3-0.7-2.1-0.1-2.6,1.4C390.6,45.8,389.2,47.8,386.4,49.1z M360,133.3c-0.5,0.1-1,0.1-1.5,0.2
			c0.4,3.9-1.8,8.2,3.1,12.5C360.9,140.9,360.4,137.1,360,133.3z M339.9,102.5c1.1-9,1.1-9-3.1-8.5
			C337.5,96.6,337.6,99.5,339.9,102.5z M400.4,46.5c1.1-2,2.4-4.1,3.6-6.3c0.3-0.6-0.4-1.5-1-1.2c-2.6,1.2-3.2,3.9-4.2,6.3
			C398.5,45.8,399.2,46.3,400.4,46.5z M413.2,142.2c1.5-0.7,2-2,2.1-3.6c0-0.9-0.3-1.9-1.3-1.7c-1.6,0.4-2.1,2.1-2.4,3.5
			C411.5,141.4,412.3,141.9,413.2,142.2z M391.2,155.5c-3.4,1.1-2.8,3.7-3.5,5.5C389.1,159.6,390.6,158.4,391.2,155.5z M346.3,84.1
			c0.8-0.8,1.9-1.5,2.5-2.5c0.2-0.3-1-1.2-1.9-1.1c-1.2,0.1-2.2,0.7-2.1,2.1C344.7,83.4,345.1,84.3,346.3,84.1z M361.2,109.8
			c-2.4,1.2-3,3.1-3.4,5.2C359.3,113.7,361.5,113,361.2,109.8z M369.2,190.1c1.1,0,1.3-0.9,1.6-1.5c0.4-0.8,0.3-1.6-0.8-1.8
			c-1-0.2-1.5,0.5-1.6,1.3C368.4,188.8,368.2,189.7,369.2,190.1z M373.1,201.3c0.4-1.8-0.1-2.7-1.1-3.4c-0.1-0.1-0.9,0.5-1,0.8
			C370.3,200.6,372,200.6,373.1,201.3z M414.1,134c-0.1-0.1-0.2-0.2-0.3-0.3c-0.1,0.1-0.3,0.2-0.3,0.3c0,0.1,0.2,0.2,0.3,0.3
			C413.9,134.2,414,134.1,414.1,134z"/>
		<path class="st1" d="M220.4,163.6c5.8,0.4,11.5-0.4,17-1.6c3.1-0.7,5.1,2.5,8,1.5c1.8,0.1,3.3,0.5,2.9,2.9
			c-0.3,0.1-0.6,0.2-0.8,0.5c-0.4,0.2-0.7,0.5-1.1,0.7c-4-0.6-7.8,2.3-11.8,0.4c-1.5-0.1-2.9-2.1-4.4-0.3c-1.4,1.8,0.6,2.6,1.3,3.6
			c0.8,1,0.9,2,0.7,3.2c0,0,0.2-0.1,0.2-0.1c-0.8,0.2-1.7,0.3-2.1,1.2l0.1,0c-1.6,0.1-3.3,0.2-4.9,0.3c-0.8-0.2-1.6-0.1-2,0.8
			c-1-0.3-2-0.6-3-1c0-0.7,0-1.3,0-2c0.6-0.1,1.4-0.1,1.8-0.5c1.2-0.9,3.9-0.1,3.4-2.4c-0.3-1.6-2.4-1.1-3.8-1.2c-0.5,0-1,0-1.5,0
			C220.4,167.6,220.4,165.6,220.4,163.6z"/>
		<path class="st1" d="M233.6,186.7c-1.9,0.1-4.7-1.4-4.7,2.5c0,1-0.9,1.2-1.7,1.2c-0.9,0-1.7-0.3-1.7-1.3c-0.2-3.4-2.4-3.8-5.1-3.6
			c0-0.3,0-0.7,0-1c1.3-1.1,3.3,1,4.4-1c0.9-0.4,1.7-0.7,2.6-1.1c1.7,0,3.3-0.1,5-0.1c0.4-0.2,0.7-0.4,1.1-0.6
			c0.8-0.1,1.6-0.3,2-1.1c1.3,0.7,3.3,1,1.9,3.3c-0.2,0.2-0.4,0.5-0.6,0.7c-0.3,0.6-0.7,1.2-1,1.9c0,0-0.1,0-0.1,0
			C234.9,186.5,234.3,186.6,233.6,186.7z"/>
		<path class="st1" d="M220.4,199.6c1.8,0.1,3.6,1.1,3.5,2.6c-0.1,1.5-1.2,3.4-3.5,3.4C220.4,203.6,220.4,201.6,220.4,199.6z"/>
		<path class="st1" d="M389.4,207.6c0.4-2.3,1.5-4.3,4-3.6c2.1,0.6,0.4,2.4,0,3.6C392,207.6,390.7,207.6,389.4,207.6z"/>
		<path class="st1" d="M420.4,128.6c-1.4-0.3-3.8,0.8-3.7-1.7c0.1-2,2.3-1,3.7-1.3C420.4,126.6,420.4,127.6,420.4,128.6z"/>
		<path class="st1" d="M240.4,199.6c-1.1-2.3-2.9-2.5-4.9-1.5c-1.2,0.6-2,1.6-3.6,0.8c-1.6-0.8-4.4-0.3-3.9-3.2
			c0.5-3,2.8-1.1,4.4-1.1c0.7,0,1.3-0.1,2-0.1c0.2,0.2,0.5,0.2,0.8,0.2c0.5,0.9,0.9,0.9,1.3,0c2.1-0.7,4.2-1.5,6.3-2.2l0.2,0
			c0.7,0.1,1.4,0.2,2.1,0.3c0.4,0.8,0.9,1,1.3,0l0,0c1.2-0.1,1.9-0.7,2-1.9c1.7-1.6,3.9-0.9,5.9-1.4c1.3,0.1,2.6,0.2,4,0.4
			c3.8,3.6-1.9,2.2-2,3.7c-2.3,1.2-6.6-2.2-7,3.1l0,0c-2.3,3.2-6.1,1.6-9,3L240.4,199.6z"/>
		<path class="st1" d="M252.3,204.4c-5,0.4-10,0.8-15,1.1c-1.5,0.1-3.3,0.2-3.5-1.8c-0.2-1.7,1.4-1.9,2.7-2.3c1.4-0.5,2.3-1.9,4-1.8
			l-0.2-0.1c4.4,5,8.9,0.5,13.3,0.2c2.1,0.3,4-1.8,6.4-0.7C258.4,202.2,254.6,202.2,252.3,204.4z"/>
		<path class="st1" d="M307.3,153.5c-0.8-0.1-2.3,0.4-2.6-1.2c-0.4-1.6,0.8-2.4,2.2-2.7c1-0.2,1.9-0.7,2.9-0.7c2.1,0,4.9-3.2,6-0.3
			c0.8,2.2-2.9,3-4.8,4.1C309.8,153.4,308.7,153.6,307.3,153.5z"/>
		<path class="st1" d="M340.3,195.6c4.3,2.6,1.7,5.1-0.2,7.5c-0.3-1.1-0.6-2.3-0.9-3.4c0.4-1.4,0.8-2.8,1.2-4.2L340.3,195.6z"/>
		<path class="st1" d="M270.3,161.4c-2.2,0.9-4.3,0.9-6.1-0.9c0.4-0.7,0.7-1.4,1.1-2.1c1.3,0,2.7-0.1,4-0.1c0.6,0.1,1.3,0.3,1.9,0.4
			c0.3,0.6,0.6,1.1,0.9,1.7C271.6,160.8,271,161.1,270.3,161.4z"/>
		<path class="st1" d="M267.4,149.5c3.1,1.7,0.9,3-0.6,3.7c-1.3,0.6-2.9,0.3-4.4,0.4C261.6,149.3,266.1,151.4,267.4,149.5z"/>
		<path class="st1" d="M264.1,166.7c-0.2,0.8-0.4,1.7-0.6,2.5c-0.7,0.5-1.4,0.9-2.1,1.4c-0.7-0.7-1.4-1.3-2-2
			C260.3,166.5,262.1,166.4,264.1,166.7z"/>
		<path class="st1" d="M268.7,196.8c-0.2-2.4-1.1-4.1,0.9-5.1c0.8-0.4,1.9,0.1,2,0.8C272.2,194.8,269.8,194.9,268.7,196.8z"/>
		<path class="st1" d="M239.9,150.7c-0.3,1.1-1,0.8-1.5,0.8c-0.5,0-1.5,0.3-1.4-0.6c0-0.4,0.9-1,1.4-1
			C238.9,149.9,239.4,150.4,239.9,150.7z"/>
		<path class="st1" d="M226.1,142.1c-1.5,0.6-2.4,0.6-3.3-0.1c-0.1-0.1,0-0.7,0.2-0.9C224.1,140.4,224.8,141.5,226.1,142.1z"/>
		<path class="st1" d="M247.4,156.6c0.7,0,1.4,0.1,2.2,0.1c0,0.2,0,0.4,0,0.5c-0.7,0.1-1.4,0.1-2.2,0.2
			C247.4,157.2,247.4,156.9,247.4,156.6z"/>
		<path class="st1" d="M297.6,159.8c0.1,0.4,0.3,0.8,0.4,1.2c-0.2,0-0.5,0-0.7-0.1c-0.3-0.2-0.4-0.5-0.6-0.7
			C297,160.1,297.2,160,297.6,159.8z"/>
		<path class="st1" d="M296.9,150c-0.2,0.2-0.5,0.4-0.7,0.4c-0.3,0-0.8,0-0.9-0.2c-0.3-0.7,0.4-0.6,0.7-0.6
			C296.3,149.7,296.6,149.9,296.9,150z"/>
		<path class="st1" d="M325.2,145.9c-0.6,0-1.2,0.1-1.8,0.1c0.1-0.2,0-0.6,0.2-0.7C324.4,144.7,325.1,144.8,325.2,145.9L325.2,145.9
			z"/>
		<path class="st1" d="M325.3,145.9c-0.4-0.2-0.7-0.5-1.1-0.7C325.2,144.5,325,145.5,325.3,145.9
			C325.2,145.9,325.3,145.9,325.3,145.9z"/>
		<path class="st1" d="M278.4,189.7c-0.1-0.2-0.1-0.4-0.2-0.6c0.2,0,0.4,0,0.6,0c-0.2,0.2-0.3,0.3-0.5,0.5L278.4,189.7z"/>
		<path class="st1" d="M278.3,189.6c-0.2,0.2-0.3,0.4-0.5,0.6c0-0.2-0.1-0.4-0.1-0.6c0.2,0,0.4,0.1,0.7,0.1L278.3,189.6z"/>
	</g>
	<g>
		<path class="st0" d="M440.6,186.1c0-60.6,0-121.2-0.1-181.8c0-3.7,0.9-4.3,4.4-4.3c63.9,0.1,127.9,0.1,191.8,0
			c3.5,0,4.1,0.8,4,4.2c-0.2,13.6-0.1,27.3-0.1,41c-9.6,1.2-19.4,1.8-27.5,8.3c-1.3,1-2.8,1.8-4,3c-4.9,4.8-9.8,6.6-16.3,2.2
			c-3.6-2.4-8.4-2.5-14.1,0.7c4.9,1.1,9.3,1.5,7.4,6.9c-0.3,0.9,0.4,0.8,0.7,0.8c1,0.2,2.3,0.2,2.5-1c0.9-4.2,3.4-3.7,5.8-1.7
			c2.8,2.2,1.1,3.9-1.2,5.3c-1.4,0.8-1.6,2.1-0.6,3.4c0.7,0.9,1.1,1.8,3.1,1.1c2.6-0.9,3.7-1.4,2.5-4.3c-0.6-1.5,0.1-3,1.9-3.5
			c0.9-0.2,2.6-0.3,2.4,0.8c-0.6,3.5,2.3,6.6,0.5,10.5c-2.2,4.9-4.3,9.7-8.1,13.6c-1.6,1.2-1.9,3-1.9,4.8c-1.3,0.1-2.6,0.2-3.9,0.4
			c0-0.7-0.1-1.5-0.1-2.2l0,0.1c0.3-0.4,0.7-0.8,1-1.2c-0.4-1.7-1.4-1.8-3-1.3c-3.6,1.1-7.3,2-11,3c-2.2,0.6-4.7-2-6.7,1.5
			c-0.3-2.9-1.1-4.9-1.6-6.9c-0.9-3.6-5-6.5-2.8-10.9c0.2-0.3-0.3-1.4-0.8-1.6c-1-0.5-1.6,0.5-1.8,1.2c-0.6,2.8-0.9,5.6,0.6,8.2
			c1.7,2.9,1.4,6.2,1.1,9.2c-0.2,1.9-3.5,0.5-5.4,1.2c-6,2.3-7.6,6.8-4.1,12.1c1.4,2.1,1.2,4.4,1.6,6.7c-0.4,0-0.9,0-1.3,0
			c-1.7-1.5-2-8.8-5.8-1.3c-0.4,0.8-2.1,1.3-3.1,1.2c-4.4-0.6-4.3,2.7-4.7,5.3c-0.2,1.3,0.8,2.8-1.1,4c-0.1-1.4-0.1-2.7-0.3-3.9
			c-0.1-1.1-0.8-1.9-1.9-1.7c-1.1,0.2-1.2,1.4-0.9,2c3.1,4.6-0.5,8.4-1.3,12.5c-0.3,0-0.6,0-0.9,0.1c-1-3.8-1.9-7.6-2.9-11.3
			c-0.7-2.6-2.4-4.9-5.1-4.5c-7.4,1-14.7,2-22.2,1.9c-1.8,0-2.5,1.3-2.8,2.9c-0.7,0-1.3,0.1-2,0.1c-3.4-2.1-7.1-2.2-11-2.1
			c-5,0.1-7.9,2.5-8.6,7.6c-0.5,3.8,2,9.3,5.4,11c-4.4,5.6-3.5,7.9,3.4,10c2,0.6,3.6,0.3,5.2-0.5c5.7-2.8,11.9-2,17.8-2.9
			c0,1,0,2,0.1,2.9c-0.1,8.8-0.1,8.8,8.8,8.9c6.6,0.1,13.1-1.2,19.8-1.2c4.9,0,9.8-1.1,14.6-2.1c4.2-0.9,6.3,1,5.2,5.2
			c-0.3,1.3-0.8,2.5-1.2,3.9c2.3,0,4.5,0,6.6,0c0,1.1,0.1,2.2,0.1,3.4c-2.6,2.8-5.1,5.8-1.6,9.4c3.4,3.4,3.8,4.2,2.6,9.1
			c-0.3,1.2-0.3,3.2-0.6,3.7c-3.3,3.9-0.2,4,2.5,4.9c1.6,0.5,4.2,0.3,4.1,3.4c-0.1,2.7-2.2,2.8-4,3.6c-1.6,0.6-3.2,1-4.8,0.8
			c-4.6-0.5-7.5,2.3-9.9,5.6c-1,1.4-2.2,3.3-0.2,4.9c2.9,2.2,3.1,5.3,3.1,8.5c0.6,0.7,1.1,1.5,1.7,2.2c0.3,1.1,0.6,2.3,0.9,3.4
			c-1.2,1.2-1.7,2.8-1.7,4.4c-28.7,0-57.3,0-86,0c0-1,0-2.1,0-3.1c2.2-2.2,6.1-2.2,7.6-5.5c-2.5-1.1-4.3,1-6.4,0.7
			c-1.8-0.6-3.9-0.7-4.3-3.2l0,0c3.2,1,5.6,0,7-3.1c0.1-1.5,5.8-0.1,2-3.7c-0.2-1.1-0.2-2.4-1.7-2.5c-1.4-0.1-1.8,1.1-2.3,2.2
			c-2,0.5-4.2-0.2-5.9,1.4c-2-0.8-1.8,0.8-2,1.9l0,0c-0.4,0-0.9,0-1.3,0c-0.7-0.1-1.4-0.2-2.1-0.3c-0.2-0.6-0.4-1.1-0.6-1.7
			c-0.2,0.1-0.4,0.2-0.6,0.3c0.4,0.5,0.7,0.9,1.1,1.4c-2.1,0.7-4.2,1.5-6.3,2.2c-0.4,0-0.9,0-1.3,0c-0.3,0-0.6,0-0.8-0.2
			c0.2-2.6-2.2-5-0.7-7.7c0.6-0.1,1.3-0.2,1.9-0.3c0.2,0.9-0.4,2,0.7,2.7c0.7-1.1-0.3-1.8-0.6-2.7c0.3-0.6,0.7-1.2,1-1.8
			c0.3-0.2,0.5-0.4,0.6-0.7c1.4-2.3-0.6-2.6-1.9-3.3c-0.7,0.4-1.3,0.8-2,1.1c-0.4,0.2-0.7,0.4-1.1,0.6c-1.7-1-3.4-2.6-5,0.1
			c-0.9,0.4-1.7,0.7-2.6,1.1c-1.1-1.4-2.7-1.9-4.4-2c0-0.7,0-1.3,0-2c2.5,0.5,3.1-1,3-3c0.4-0.9,1.2-1,2-0.8c1.9,4.2,3.5,3,4.9-0.3
			l-0.1,0c0.7-0.4,1.4-0.8,2.1-1.2l-0.2,0.1c6.2-0.2,1.2-4.5,2.4-6.5c4,1.9,7.8-1.1,11.8-0.4c0.6,0.2,0.9-0.2,1.1-0.7
			c0.2-0.3,0.5-0.4,0.8-0.5c0.5,0.6,1.2,1.5,1.9,0.6c1-1.3,1.7-3.1,0.2-4.4c-1.8-1.5-3.6-1-4.9,0.9c-2.9,1-4.8-2.2-8-1.5
			C452.1,185.8,446.4,186.5,440.6,186.1z M498.6,212.1c0.2-0.2,0.3-0.3,0.5-0.5c-0.2,0-0.4,0-0.6,0c0.1,0.2,0.1,0.4,0.2,0.6
			c-0.2,0-0.4-0.1-0.7-0.1c0,0.2,0.1,0.4,0.1,0.6C498.3,212.5,498.4,212.3,498.6,212.1z M545.5,168.4c-0.2-1.1-0.9-1.2-1.7-0.6
			c-0.2,0.1-0.1,0.5-0.2,0.7C544.3,168.5,544.9,168.5,545.5,168.4c-0.3-0.4-0.1-1.4-1.1-0.7C544.8,168,545.2,168.2,545.5,168.4z
			 M467.7,179.2c-0.3,0.3-0.3,0.6,0,0.9c0.7-0.1,1.4-0.1,2.2-0.2c0-0.2,0-0.4,0-0.5C469.1,179.3,468.4,179.2,467.7,179.2z
			 M481.6,193.1c0.7-0.5,1.4-0.9,2.1-1.4c5.3,0.1,4.7-5.1,6.9-7.8c0.6-0.3,1.2-0.6,1.8-0.9c2.6-1,3.1-3,3-5.4c0-0.3-0.7-0.9-1-0.8
			c-2.5,0.5-2.1,2.9-2.8,4.5c-0.6-0.1-1.3-0.3-1.9-0.4c-2.3-2.3-0.2-3.7,1.2-5.2c1.4-1.5,1.1-2.9-0.2-4.3c-1.3-1.3-2.3-0.9-3,0.6
			c-1.2,1.9-5.7-0.2-5,4.1c0.4,2,4,2,3,4.9c-0.4,0.7-0.7,1.4-1.1,2.1c-0.8,1.3-0.6,2.4,0.4,3.5c1,1.1,0.8,2-0.6,2.6
			c-2-0.3-3.7-0.2-4.7,1.9C478.6,193.4,479.3,194.1,481.6,193.1z M527.5,176.1c1.4,0.1,2.5-0.1,3.6-0.7c1.9-1.1,5.6-1.9,4.8-4.1
			c-1.1-2.9-3.9,0.3-6,0.3c-1,0-1.9,0.4-2.9,0.7c-1.4,0.4-2.6,1.1-2.2,2.7C525.2,176.4,526.6,176,527.5,176.1z M480.6,201.4
			c-1.8,0.2-3.5,0.9-3.4,2.9c0.1,1.9,1.8,2.9,3.5,2.8c1.5-0.1,3.1-1,3.2-2.7C484.1,202.5,482.5,201.7,480.6,201.4z M488.9,219.4
			c1.1-1.9,3.5-2,3-4.3c-0.2-0.7-1.3-1.2-2-0.8C487.8,215.2,488.7,217,488.9,219.4z M460.1,173.2c-0.5-0.3-1-0.8-1.5-0.8
			c-0.5,0-1.4,0.6-1.4,1c-0.1,0.9,0.9,0.6,1.4,0.6C459.1,174.1,459.9,174.4,460.1,173.2z M446.4,164.6c-1.4-0.6-2-1.7-3.1-0.9
			c-0.2,0.1-0.3,0.8-0.2,0.9C443.9,165.2,444.9,165.3,446.4,164.6z M465.6,209.3c-0.1,0-0.4,0.1-0.4,0.1c0,0.3,0.1,0.5,0.1,0.8
			c0.1,0,0.4-0.1,0.4-0.1C465.7,209.9,465.7,209.6,465.6,209.3z M517.8,182.4c-0.4,0.2-0.6,0.3-0.9,0.4c0.2,0.2,0.4,0.6,0.6,0.7
			c0.2,0.1,0.5,0.1,0.7,0.1C518.1,183.2,518,182.8,517.8,182.4z M517.1,172.6c-0.3-0.1-0.6-0.4-0.8-0.4c-0.3,0-1-0.1-0.7,0.6
			c0.1,0.2,0.6,0.2,0.9,0.2C516.7,173,516.9,172.7,517.1,172.6z"/>
		<path class="st2" d="M640.6,116.1c-4.9,2.6-9.8,5.2-14.8,7.9c-2-5.9-3.1-12.5-4-19c-0.1-0.9,0.2-2.1,0.7-2.8
			c4.3-5.3,2.6-11,1.2-16.7c-0.8-3.1,1.2-5,3.4-5.9c2.3-0.9,5.2-2.6,7,1.4c0.9,2,3.4,3,2.7,6.2c-0.4,1.7,1.4,3.3,3.7,3
			C640.6,98.8,640.6,107.5,640.6,116.1z"/>
		<path class="st2" d="M599.6,230.1c0.3-3.4-0.1-6.5-1.7-9.6c-0.7-1.4-0.7-3.3,0.7-4.6c1.5-1.4,2.7-0.4,3.9,0.6c0.8,0.7,1.5,1.9,3,1
			c1-0.6,1.2-1.6,1.1-2.6c-0.2-1.6-1.1-3.4-2.5-3.3c-6.8,0.8-4.1-5.1-5.1-7.7c-0.9-2.4,2.9-1.7,4.6-2.4c1.7-0.8,4.1-0.7,5,1.8
			c1.6,4.6,4.2,8.7,6.9,12.6c1.1,1.6,1.4,3.4,1.2,5.3c-0.4,3.5,0.4,6.6,3,9c-2,0-4,0-6,0c0.3-1.3,2-3,0-3.6c-2.5-0.7-3.6,1.3-4,3.6
			C606.3,230.1,602.9,230.1,599.6,230.1z"/>
		<path class="st2" d="M640.6,156.1c-1.2-0.9-2.3-2-3.5-2.7c-0.7-0.4-2.1-1.6-2.5-0.4c-1.7,4.4-5.8,2.4-8.5,2.9
			c-5.9,1-10.6-5-10-11.6c0.4-3.5,6-10.3,9.2-11.6c2.4-1,3.7,0.1,4,2.1c0.6,3.2,0.8,6.5,1.2,9.8c0.1,1.1-1.7,2.6,0.4,3.4
			c1.7,0.6,3.2,0.1,4.6-1.1c1.5-1.4,2.6-3.5,5.1-3.6c0,1.7,0,3.3,0,5c-1.3,0.3-3.5-0.7-3.7,1.3c-0.2,2.5,2.3,1.4,3.7,1.7
			C640.6,152.8,640.6,154.5,640.6,156.1z"/>
		<path class="st2" d="M472.6,227c0,1,0,2.1,0,3.1c-9.8,0-19.7,0-29.5,0c-1.3,0-3.1,0.5-2.5-2c2.3,0,3.4-1.8,3.5-3.4
			c0.1-1.5-1.7-2.5-3.5-2.6c0-4.7,0-9.3,0-14c2.7-0.2,5,0.2,5.1,3.6c0,1,0.8,1.3,1.7,1.3c0.9,0,1.8-0.2,1.7-1.2
			c0-3.9,2.8-2.4,4.7-2.5c-1.5,2.7,0.9,5.1,0.7,7.7c-0.7,0-1.3,0.1-2,0.1c-1.6,0-3.9-1.8-4.4,1.1c-0.5,2.9,2.4,2.3,3.9,3.2
			c1.5,0.8,2.4-0.2,3.6-0.8c2-1,3.8-0.8,4.9,1.5c-1.7-0.1-2.6,1.3-4,1.8c-1.3,0.4-2.9,0.6-2.7,2.3c0.3,2,2.1,1.9,3.5,1.8
			C462.6,227.8,467.6,227.4,472.6,227z"/>
		<path class="st2" d="M560.5,218.2c2.1-3.2-1.6-6.6,0.8-10.2c1.4-2.1,4.6-2.5,4.9-5.5c0.1-0.5,2.1-0.5,3.2,0.3
			c1.3,1,1.4,2.1,0.7,3.5c-4,7.5-3.3,16-5.5,23.9c-2,0-4,0-6,0c0.1-1.7,0.5-3.2,1.7-4.4C562.2,223.2,564.7,220.8,560.5,218.2z"/>
		<path class="st2" d="M440.6,192.1c0.5,0,1,0,1.5,0c1.4,0.1,3.5-0.5,3.8,1.2c0.4,2.3-2.3,1.5-3.4,2.4c-0.5,0.3-1.2,0.3-1.8,0.5
			C440.6,194.8,440.6,193.5,440.6,192.1z"/>
		<path class="st2" d="M445,206.1c-1.1,2-3.1-0.1-4.4,1c0-1,0-2,0-3C442.3,204.2,443.9,204.7,445,206.1z"/>
		<path class="st2" d="M440.6,198.1c1,0.3,2,0.6,3,1c0.1,2.1-0.4,3.6-3,3C440.6,200.8,440.6,199.5,440.6,198.1z"/>
		<path class="st2" d="M640.6,75.1c-3.3-1.3-2.1-2.7,0-4C640.6,72.5,640.6,73.8,640.6,75.1z"/>
		<path class="st2" d="M589.6,96.3c-1.9,1-3.6,1.7-2.3,4.7c1.3,3.1,0.3,6.1-3.1,7.8c-3.4,1.7-5.4,5.5-9.2,6.7
			c-2.5-4.3-3.9-8.7,0.5-12.9c1.8-1.7,0-2.3-1.3-3.5c6.1,0.3,11-1.8,15.4-5.2C589.6,94.8,589.6,95.5,589.6,96.3z"/>
		<path class="st2" d="M512.6,145.3c6.7-1.7,13.3-3.7,20.4-2.1c-5.4,0.7-10.5,3.6-16.1,2.8c-2-0.3-3,1-4.2,2.2
			C512.6,147.3,512.6,146.3,512.6,145.3z"/>
		<path class="st2" d="M485.6,181c1-2.8-2.6-2.9-3-4.9c1.5-0.1,3.1,0.2,4.4-0.4c1.4-0.7,3.7-2,0.6-3.7c0.7-1.5,1.8-1.9,3-0.6
			c1.3,1.3,1.6,2.8,0.2,4.3c-1.4,1.5-3.5,2.8-1.2,5.2C488.3,181,486.9,181,485.6,181z"/>
		<path class="st2" d="M480.6,201.4c1.8,0.3,3.4,1.1,3.3,3.1c-0.1,1.7-1.7,2.6-3.2,2.7c-1.7,0.1-3.5-0.9-3.5-2.8
			C477.2,202.3,478.8,201.6,480.6,201.4z"/>
		<path class="st2" d="M484.3,189.3c1.4-0.6,1.6-1.5,0.6-2.6c-1-1.1-1.2-2.3-0.4-3.5c1.8,1.8,3.9,1.8,6.1,0.9
			c-2.2,2.7-1.5,7.9-6.9,7.8C483.9,190.9,484.1,190.1,484.3,189.3z"/>
		<path class="st2" d="M473.8,222.2c-4.4,0.3-8.9,4.8-13.3-0.2c2.9-1.4,6.8,0.2,9-3C469.9,221.5,472,221.6,473.8,222.2z"/>
		<path class="st2" d="M452.4,197c0.3-1.2,0.1-2.2-0.7-3.2c-0.8-1-2.8-1.8-1.3-3.6c1.5-1.9,2.9,0.2,4.4,0.3
			C453.5,192.5,458.5,196.7,452.4,197z"/>
		<path class="st2" d="M468.4,188.8c0.4-2.3-1.1-2.7-2.9-2.9c1.4-1.9,3.2-2.4,4.9-0.9c1.5,1.3,0.8,3-0.2,4.4
			C469.6,190.3,468.9,189.5,468.4,188.8z"/>
		<path class="st2" d="M492.4,183.1c-0.3-0.6-0.6-1.1-0.9-1.7c0.7-1.7,0.3-4.1,2.8-4.5c0.3-0.1,1,0.5,1,0.8
			C495.5,180,495,182.1,492.4,183.1z"/>
		<path class="st2" d="M469.5,219.1c0.5-5.3,4.8-1.9,7-3.1C475.1,219,472.7,220,469.5,219.1z"/>
		<path class="st2" d="M445.6,198.3c1.6-0.1,3.3-0.2,4.9-0.3C449.1,201.3,447.5,202.5,445.6,198.3z"/>
		<path class="st2" d="M478.5,212.3c-1.3-0.1-2.6-0.2-4-0.4c0.4-1.1,0.8-2.2,2.3-2.2C478.4,209.8,478.3,211.2,478.5,212.3z"/>
		<path class="st2" d="M595.5,91.1c-0.3,1.7,1.6,4.3-1.9,4.8C593.6,94.1,593.8,92.3,595.5,91.1z"/>
		<path class="st2" d="M502.4,122.1c0,1.9,0,3.8,0,6.9c-0.9-2.9-1.4-4.9-2-6.8C501.1,122.2,501.7,122.1,502.4,122.1z"/>
		<path class="st2" d="M452.6,204.9c-1.7,0-3.3,0.1-5,0.1C449.2,202.3,450.9,203.9,452.6,204.9z"/>
		<path class="st2" d="M560.6,218c-0.4,1.4-0.8,2.8-1.2,4.2c-0.6-0.7-1.1-1.5-1.7-2.2C558.7,219.4,559.7,218.7,560.6,218z"/>
		<path class="st2" d="M479.6,191.1c0.7,0.7,1.4,1.3,2,2C479.3,194.1,478.6,193.4,479.6,191.1z"/>
		<path class="st2" d="M568.2,162.6c-0.9,1.1,1.3,3.4-1.5,3.8c0-1.1-0.1-2.2-0.1-3.4c0.3-0.3,0.6-0.6,1-0.9
			C567.7,162.2,567.9,162.4,568.2,162.6z"/>
		<path class="st2" d="M468.7,213.3c-0.1,1.3-0.8,1.8-2,1.9C466.9,214.1,466.6,212.5,468.7,213.3z"/>
		<path class="st2" d="M463.2,214.9l-0.2,0c-0.4-0.5-0.7-0.9-1.1-1.4c0.2-0.1,0.4-0.2,0.6-0.3C462.8,213.8,463,214.4,463.2,214.9z"
			/>
		<path class="st2" d="M465.6,209.3c0.1,0.3,0.1,0.5,0.1,0.8c0,0-0.3,0.1-0.4,0.1c-0.1-0.3-0.1-0.5-0.1-0.8
			C465.2,209.4,465.5,209.4,465.6,209.3z"/>
		<path class="st2" d="M455.8,209C455.8,209,455.9,209,455.8,209c0.3,0.9,1.3,1.6,0.7,2.7C455.4,210.9,456,209.8,455.8,209z"/>
		<path class="st2" d="M536.4,133.1c0,0.8,0,1.5,0,2.3c-0.2,0-0.4,0-0.5,0c-0.1-0.8-0.2-1.5-0.4-2.3
			C535.8,133.1,536.1,133.1,536.4,133.1z"/>
		<path class="st2" d="M455.6,203.1c-0.4,0.8-1.2,1.1-2,1.1C454.3,203.9,455,203.5,455.6,203.1z"/>
		<path class="st2" d="M466.5,190c0.4-0.2,0.7-0.5,1.1-0.7C467.4,189.8,467.2,190.2,466.5,190z"/>
		<path class="st2" d="M450.5,198c0.4-0.9,1.3-1,2.1-1.2C451.9,197.2,451.2,197.6,450.5,198z"/>
		<path class="st2" d="M456.9,207.1c0.2-0.2,0.4-0.5,0.6-0.7C457.4,206.7,457.2,206.9,456.9,207.1z"/>
		<path class="st2" d="M466.7,215.2c-0.4,1-0.9,0.8-1.3,0C465.8,215.2,466.3,215.2,466.7,215.2z"/>
		<path class="st2" d="M456.7,217.2c-0.4,0.9-0.9,0.9-1.3,0C455.8,217.2,456.3,217.2,456.7,217.2z"/>
		<path class="st2" d="M467.7,179.2c-0.1,0.3,0,0.6,0,0.9C467.4,179.8,467.4,179.5,467.7,179.2z"/>
		<path class="st2" d="M556.9,115.1c0,0.2,0.1,0.7,0,0.7c-0.8,0.5-1-0.2-1.3-0.7C556,115.1,556.4,115.1,556.9,115.1z"/>
		<path class="st2" d="M589.5,94.1c0.3-0.4,0.7-0.8,1-1.2C590.2,93.3,589.8,93.7,589.5,94.1z"/>
		<path class="st2" d="M602.8,160.4c-1.1,7.1-2.3,13.7-2.7,20.4c-0.1,1.9-0.3,3.9-0.6,5.9c-0.3,1.8-1.5,2.5-3.2,2.5
			c-1.5,0-2.7-0.4-2.7-2.1c-0.1-9.3-1.3-18.8,7.3-25.6C601.2,161.1,601.7,160.9,602.8,160.4z"/>
		<path class="st2" d="M590,149.3c3.8,4,4,7.6,2.1,12.1c-2.5,5.7-3.7,11.9-3.6,18.2c-5.2-0.9-6.4-2.9-3.9-6.9c2.5-4,2.8-8.4,3-12.8
			C587.6,156.3,588.4,152.8,590,149.3z"/>
		<path class="st2" d="M589.4,202.2c-1.9-0.4-4.6,1-5.5-1.9c-0.8-2.6,2.1-3,3.3-4.3c0.6-0.6,1.1-1.3,1.8-1.8c1.4-0.9,2-3.5,4.3-2.5
			c2.4,1,0.2,2.9,0.4,4.3c0,0.3,0,0.7,0.1,1C597.7,203.3,592.6,201.9,589.4,202.2z"/>
		<path class="st2" d="M606.7,71.7c2.7-1.3,4.1-3.3,4.9-5.8c0.4-1.4,1.2-2.1,2.6-1.4c1.6,0.8,2.5,2.5,2.3,4.1
			c-0.3,2.3-0.8,4.7-3.1,6c-1.5,0.9-2.8,0.7-4-0.8C608.7,73.1,607.8,72.6,606.7,71.7z"/>
		<path class="st2" d="M580.2,155.8c0.5,3.8,1,7.7,1.6,12.7c-4.9-4.3-2.6-8.6-3.1-12.5C579.2,156,579.7,155.9,580.2,155.8z"/>
		<path class="st2" d="M560.1,125c-2.3-3-2.4-5.8-3.1-8.5C561.2,116.1,561.2,116.1,560.1,125z"/>
		<path class="st2" d="M620.6,69c-1.2-0.2-2-0.7-1.7-1.3c1-2.3,1.6-5,4.2-6.3c0.6-0.3,1.3,0.7,1,1.2C623.1,64.9,621.8,67.1,620.6,69
			z"/>
		<path class="st2" d="M633.5,164.8c-0.9-0.3-1.8-0.8-1.6-1.7c0.3-1.5,0.8-3.1,2.4-3.5c1-0.3,1.3,0.8,1.3,1.7
			C635.5,162.8,634.9,164.1,633.5,164.8z"/>
		<path class="st2" d="M567.5,162c0.5-1.9-2.5-3.2-0.9-5.2c0.6-0.7,1.6-0.9,2.2-0.2c1.7,1.9-0.9,3.6-0.5,5.5c0,0.1-0.1,0.3-0.2,0.5
			C567.9,162.4,567.7,162.2,567.5,162z"/>
		<path class="st2" d="M611.4,178.1c-0.6,2.8-2.1,4.1-3.5,5.5C608.7,181.8,608.1,179.2,611.4,178.1z"/>
		<path class="st2" d="M566.5,106.7c-1.2,0.1-1.5-0.8-1.6-1.4c-0.1-1.4,0.9-2,2.1-2.1c0.9-0.1,2.1,0.7,1.9,1.1
			C568.4,105.2,567.3,106,566.5,106.7z"/>
		<path class="st2" d="M581.4,132.4c0.4,3.2-1.9,3.9-3.4,5.2C578.3,135.4,579,133.5,581.4,132.4z"/>
		<path class="st2" d="M589.4,212.6c-1-0.4-0.8-1.2-0.7-2c0.1-0.9,0.6-1.5,1.6-1.3c1.1,0.2,1.2,1,0.8,1.8
			C590.7,211.8,590.5,212.7,589.4,212.6z"/>
		<path class="st2" d="M593.3,223.9c-1.1-0.7-2.8-0.7-2.1-2.6c0.1-0.4,0.9-0.9,1-0.8C593.2,221.1,593.7,222.1,593.3,223.9z"/>
		<path class="st2" d="M634.4,156.5c-0.1,0.1-0.2,0.2-0.3,0.3c-0.1-0.1-0.3-0.2-0.3-0.3c0-0.1,0.2-0.2,0.3-0.3
			C634.2,156.3,634.3,156.4,634.4,156.5z"/>
	</g>
</g>
<g>
</g>
<g>
</g>
<g>
</g>
<g>
</g>
<g>
</g>
<g>
</g>
<g>
</g>
<g>
</g>
<g>
</g>
<g>
</g>
<g>
</g>
<g>
</g>
<g>
</g>
<g>
</g>
<g>
</g>
</svg>
