<?xml version="1.0" encoding="utf-8"?>
<!-- Generator: Adobe Illustrator 17.1.0, SVG Export Plug-In . SVG Version: 6.00 Build 0)  -->
<!DOCTYPE svg PUBLIC "-//W3C//DTD SVG 1.1//EN" "http://www.w3.org/Graphics/SVG/1.1/DTD/svg11.dtd">
<svg version="1.1" id="Layer_1" xmlns="http://www.w3.org/2000/svg" xmlns:xlink="http://www.w3.org/1999/xlink" x="0px" y="0px"
	 viewBox="0 0 618.3 221.1" style="enable-background:new 0 0 618.3 221.1;" xml:space="preserve">
<style type="text/css">
	.st0{fill:#050101;}
	.st1{fill:#090202;}
	.st2{fill:#FB0001;}
</style>
<g>
	<g>
		<path class="st0" d="M523.6,221c-0.6-6.9-8.3-7.5-11.2-12.6c-0.6-1-0.7,1.1-0.8,1.7c-0.2,1.3,0,3-1.5,3.3c-0.7,0.2-2.2-1.1-2.6-2
			c-4.8-10.9-11.6-20.9-14-32.8c-0.3-1.6-1-2.7-1.8-3.9c-5.9-9.8-15-18.3-13.3-31.3c0.2-1.6-0.9-2.9-2.3-2.3
			c-4.1,1.8-7.3-0.2-10.8-1.6c-4.8-1.9-8.4,0.1-10.4,4.8c-1.5,3.5-2.8,7.1-4.3,10.6c-0.6,1.2-0.8,3.6-2.5,3.1
			c-1.2-0.4-0.4-2.5-0.1-4c1.7-9.7,5.1-18.8,9-27.8c7.1-16.6,8.9-34.4,11.6-52c0.9-5.7,1.9-11.3,2.9-17c-0.7-1.5-1.3-3-2-4.5
			C477,34.1,484.2,15.2,499.6,1c5.7,0,11.3,0,17,0c-0.2,3.8-0.5,7.7,5.3,7.1c0.7-0.1,1.5,1,2.2,1.5c-0.6,0.7-1.1,1.7-1.9,2
			c-2.8,1.1-5.6,2-8.4,2.8c-9.7,2.7-13.5,13-22,17.3c-2.3,1.2-0.3,4.4-1.2,6.8c-4.4,12.6-7.7,25.3-8.4,39
			c-0.8,18.1,0.7,35.9,3.2,53.7c1.4,10,8,16.8,13.4,24.4c2.9,4.2,5.8,7.4,5.2,13.5c-0.6,6.1,0.2,15.2,4.1,18.2
			c9.5,7.4,10.2,20.5,20.1,27c2.4,1.5,2.4,4.2,1.3,6.7C527.6,221,525.6,221,523.6,221z"/>
		<path class="st0" d="M589.6,1c2.7,2.8,5.4,5.6,8.2,8.3c7.9,7.6,6.7,18.1,8.5,27.5c0.7,3.6,3.9,4.8,4.3,7.9
			c0.7,5.5,1.6,10.9,1.9,16.4c0.2,4.6-0.4,9.2-0.6,13.8c-0.4,6.9,0.6,13.8,1.5,20.7c1.1,7.8,2.7,15.6,4,23.3c-0.6,0-1.3,0-1.9,0
			c-2.2-3.8-4.5-7.5-6.6-11.3c-0.9-1.6-2.1-2.1-3.7-1.3c-1.4,0.6-1.8,1.8-1.3,3.3c0.4,1.1,0.6,2.2,0.6,3.4c0,1.9-0.1,4.8-2,4.9
			c-1.8,0.1-0.9-2.7-1.1-4.2c-1.9-14.3-5.7-28.3-5.9-42.9c0-2.6-0.7-5.3,4-4.1c3.7,1,5.7-1.2,4.4-5.2C597.7,42,588,24,576.8,6.8
			c-1.2-1.9-2.4-3.5-2.1-5.8C579.6,1,584.6,1,589.6,1z"/>
		<path class="st0" d="M546.1,130.1c-1.6,0-2.5,0.1-3.3,0c-2.2-0.3-5.3,1.1-6.4-1.3c-1.2-2.6,2.1-3.7,3.5-5.4
			c2.9-3.5,3.5-7,3.2-11.8c-1.2-15.8-4.8-31.9,7.3-46c6.3-7.3,20.2-11.9,28.7-7.3c1.6,0.9,1.4,2,1.3,3.7c-0.2,2.1-1.4,3.1-3,2.9
			c-6.2-0.9-11.5,2.8-17.4,3.4c-1.4,0.1-3.6,0.2-3.9,2.3c-0.2,1.7,1.3,2.5,2.5,3.4c0.3,0.2,0.8,0.3,0.8,0.5
			c-0.2,6.9,0,13.9-0.8,20.8c-0.2,2.1-3.5-0.6-5.4,0.5c-1.5,0.9-4.8-0.6-4.7,2.1c0.1,2.1,1.4,4.7,4.4,5.4c2,0.5,4,1.3,5.6,2.9
			c4.8,4.8,7.7,11.4,4.7,16.6C559.8,128.5,552.7,131.3,546.1,130.1z"/>
		<path class="st1" d="M532.5,152.3c-8.6-0.1-16.6-1-19.8-10.7c-0.6-1.9-1.7-3.6,0.4-5.4c1.8-1.5,3.6-1,5.6-0.7
			c16.2,2.5,32.6,5.1,47.6-4.6c1.4-0.9,2.8-1.3,4.2-0.3c1.2,0.8,1.2,2,0.8,3.5c-1,4.1-13.6,16.4-17.7,16.8c-1,0.1-2.5-0.5-3-1.3
			c-1.2-1.7,0.6-2.1,1.6-2.8c1.2-0.9,3.1-2,2.3-3.4c-1.1-2.1-2.3,0.4-3.6,0.6c-5.9,0.8-11.8,0.9-17.7,0.2c-1.4-0.2-3.8-1.1-4.2,1.3
			c-0.3,1.9,1.8,2.4,3.1,2.5c2.5,0.1,1.5,3.3,3.5,3.5C534.6,151.7,533.5,152,532.5,152.3z"/>
		<path class="st1" d="M513.2,69.8c5.2,1.4,9.8,3.3,13.7,6.3c1.1,0.8,1.4,2,0.5,3.8c-1.5,3.1-2.1,6.7-3.3,10
			c-0.4,1.1-1.5,2.1-2.5,2.9c-2.5,2.3-4.2-4.9-8.1-0.3c-1.5,1.8-5.9-3.6-7.5-6.9c-1.1-2.3-1.5-3.2-3.3-0.5c-2.1,3.1-5.5,4-8.4,1.9
			c-3.3-2.4-1.7-5.6,0.3-8.3C499.3,72.3,507.4,73.3,513.2,69.8z M521.6,85.1c0-0.9-0.3-1.9-1.3-1.6c-1.3,0.3-1.7,1.5-1.6,2.8
			c0,0.5-0.4,1.6,0.8,1.3C520.7,87.2,521.6,86.5,521.6,85.1z"/>
		<path class="st1" d="M517.3,114.1c1.7,0.3,2.4,1.4,2.1,3.5c-0.6,4.6-2.6,8.8-5.8,11.7c-5.1,4.6-4,10.2-3.8,15.7
			c0.1,1.6,1.9,3.7-0.7,4.5c-2.2,0.6-4.1-0.1-5.6-2.5c-6-9.9-5.2-14.4,5.2-25.5C511.3,118.9,512.6,114.7,517.3,114.1z"/>
		<path class="st1" d="M516.2,57.8c2.4,0.3,4.6,0.5,6.7,0.8c2.6,0.5,4,1.8,3.9,4.8c-0.2,2.9-1.8,3.3-4.2,3.9
			c-2.8,0.7-5.5,1.2-8.3,0.1c-6.4-2.7-12.6-1.2-18.8,0.8c-1.2,0.4-2.5,1.6-3.5-0.1c-0.9-1.5,0.6-2.4,1.5-3.4
			C499.6,57.5,508.5,59.2,516.2,57.8z"/>
		<path class="st1" d="M561.6,81.9c0.1-3.6,1.8-6.3,5.3-6.7c5.3-0.6,10.7-3,15.8,0.8c1.3,1,3.5,2.2,2.7,3.7
			c-1.6,2.8,0.2,7.1-3.8,8.7c-2.5,1-2.7-0.9-2.9-2.6c-0.3-1.8-0.9-3.9-2.7-4.4c-1.8-0.4-2.5,1.6-3.4,3c-2.4,3.7-6,1.6-9.1,1.5
			C560.9,85.8,561.9,83.4,561.6,81.9z M576.1,80c0.3-0.1,0.6-0.2,0.9-0.4c-0.3-0.1-0.5-0.4-0.8-0.4c-0.3,0-0.6,0.2-0.9,0.3
			C575.5,79.7,575.8,79.8,576.1,80z"/>
		<path class="st1" d="M568.7,175.4c-1.6,4.9-2,10.4-4.8,14.1c-4.1,5.5-10.9,3.1-16.6,2.7c-1.8-0.1-3.7-1-5.7-1.3
			c-1.5-0.2-4.3,2.2-4.4-0.7c0-2.2,3.4-3.7,5.4-3c11.6,4.5,17-2.9,22.3-10.8c0.8-1.2,1.5-2.7,3.3-2.6
			C568.5,173.9,568.6,175,568.7,175.4z"/>
		<path class="st1" d="M578.8,152.6c0-1.1-0.3-2,0-2.5c4.9-6.7,5.3-14.4,5.1-22.3c0-0.9,0.7-1.8,1.2-2.7c0.8-1.4,1.4-3.8,3.1-3.2
			c1.1,0.4,0.4,3-0.3,4.6c-1.8,3.8-1.3,7.8-1.3,11.8c0,5.7-3.7,9.4-6.9,13.4C579.6,151.9,579.3,152.1,578.8,152.6z"/>
		<path class="st1" d="M618.1,191.7c-1.2,4.5-2.4,9.2-3.7,14c-0.1,0.5-0.9,0.9-1.3,1.3c-0.1-0.6-0.4-1.3-0.3-1.9
			c0.9-4.8,1.9-9.7,2.9-14.5c0.2-0.9,0.9-1.6,1.4-2.4C617.3,189.2,617.6,190.2,618.1,191.7z"/>
		<path class="st1" d="M518.6,182.8c-1.3-0.4-2-1.2-1.8-2.6c0.2-1.3,1.1-2.1,2.4-2c1.2,0.1,1.5,1.1,1.4,2.2
			C520.5,181.6,519.9,182.6,518.6,182.8z"/>
		<path class="st1" d="M615.6,119.1c0.6,0,1.3,0,1.9,0c0.2,0.5,0.4,1,0.7,1.5c-0.2,0.2-0.4,0.4-0.6,0.6
			C616.9,120.4,616.3,119.7,615.6,119.1z"/>
		<path class="st1" d="M618.2,120.5c0,0.4,0.1,0.8,0.1,1.1c-0.2-0.2-0.5-0.4-0.7-0.5C617.8,120.9,618,120.7,618.2,120.5z"/>
		<path class="st1" d="M469.6,52.8c0.7,1.5,1.3,3,2,4.5c-0.8-0.4-1.4-1.2-2.7-0.7c-1.5,0.6-1.6,4.4-3.6,2.3c-1-1.1,1.3-3.4,2.8-4.7
			C468.5,53.7,469.1,53.3,469.6,52.8z"/>
	</g>
	<g>
		<path class="st2" d="M368.4,0.1c16.7,0,33.3,0.1,50-0.1c2.5,0,3.1,0.6,3.1,3.1c-0.1,71.3-0.1,142.7,0,214c0,3.4-1.4,3-3.6,3
			c-36.5,0-73,0-109.5,0c1-2.5,1-5.1-1.3-6.7c-9.9-6.5-10.6-19.6-20.1-27c-3.9-3-4.7-12.1-4.1-18.2c0.6-6.2-2.3-9.4-5.2-13.5
			c-5.3-7.6-12-14.3-13.4-24.4c-2.6-17.8-4.1-35.6-3.2-53.7c0.6-13.7,3.9-26.4,8.4-39c0.9-2.4-1.1-5.6,1.2-6.8
			c8.5-4.4,12.3-14.6,22-17.3c2.9-0.8,5.7-1.7,8.4-2.8c0.8-0.3,1.3-1.3,1.9-2c-0.7-0.5-1.5-1.6-2.2-1.5c-5.8,0.5-5.5-3.3-5.3-7.1
			c19.3,0,38.7,0,58,0c-0.3,2.3,0.9,3.9,2.1,5.8c11.2,17.2,20.9,35.2,27.2,54.8c1.3,4.1-0.7,6.2-4.4,5.2c-4.7-1.2-4,1.5-4,4.1
			c0.2,14.5,4,28.6,5.9,42.9c0.2,1.5-0.8,4.3,1.1,4.2c1.9-0.1,2-3,2-4.9c0-1.1-0.3-2.3-0.6-3.4c-0.5-1.5-0.1-2.7,1.3-3.3
			c1.6-0.8,2.8-0.3,3.7,1.3c2.2,3.8,4.4,7.5,6.6,11.3c0.7,0.7,1.3,1.4,2,2c0.2,0.2,0.5,0.4,0.7,0.5c0-0.4-0.1-0.8-0.1-1.1
			c-0.2-0.5-0.4-1-0.7-1.5c-1.4-7.8-3-15.5-4-23.3c-0.9-6.9-1.9-13.8-1.5-20.7c0.2-4.6,0.9-9.2,0.6-13.8c-0.3-5.5-1.2-11-1.9-16.4
			c-0.4-3.1-3.6-4.3-4.3-7.9c-1.8-9.4-0.6-19.9-8.5-27.5C373.8,5.7,371.1,2.8,368.4,0.1z M324.9,129.1c6.6,1.2,13.7-1.6,16.9-7.3
			c3-5.3,0.1-11.9-4.7-16.6c-1.7-1.6-3.6-2.4-5.6-2.9c-3-0.7-4.3-3.3-4.4-5.4c-0.1-2.6,3.2-1.1,4.7-2.1c1.9-1.2,5.2,1.5,5.4-0.5
			c0.8-6.9,0.6-13.8,0.8-20.8c0-0.2-0.6-0.3-0.8-0.5c-1.2-0.9-2.8-1.7-2.5-3.4c0.3-2.1,2.6-2.1,3.9-2.3c5.9-0.6,11.2-4.3,17.4-3.4
			c1.6,0.2,2.7-0.7,3-2.9c0.2-1.7,0.4-2.8-1.3-3.7c-8.5-4.6-22.4,0-28.7,7.3c-12.1,14.1-8.5,30.3-7.3,46c0.4,4.8-0.3,8.2-3.2,11.8
			c-1.4,1.7-4.7,2.8-3.5,5.4c1.1,2.4,4.2,1,6.4,1.3C322.4,129.2,323.2,129.1,324.9,129.1z M311.2,151.3c1-0.3,2.1-0.6,3.1-0.9
			c-2-0.3-1-3.4-3.5-3.5c-1.3-0.1-3.4-0.6-3.1-2.5c0.4-2.4,2.8-1.5,4.2-1.3c5.9,0.7,11.8,0.7,17.7-0.2c1.2-0.2,2.5-2.6,3.6-0.6
			c0.7,1.5-1.1,2.5-2.3,3.4c-1,0.7-2.9,1.2-1.6,2.8c0.6,0.8,2,1.4,3,1.3c4.1-0.4,16.7-12.6,17.7-16.8c0.4-1.5,0.5-2.7-0.8-3.5
			c-1.4-0.9-2.7-0.6-4.2,0.3c-15.1,9.7-31.4,7.1-47.6,4.6c-2-0.3-3.8-0.8-5.6,0.7c-2.1,1.8-1,3.5-0.4,5.4
			C294.7,150.4,302.6,151.3,311.2,151.3z M292,68.9c-5.8,3.4-13.9,2.4-18.6,8.8c-2,2.7-3.6,5.9-0.3,8.3c2.9,2.1,6.3,1.3,8.4-1.9
			c1.8-2.7,2.2-1.7,3.3,0.5c1.7,3.3,6,8.7,7.5,6.9c3.9-4.6,5.6,2.6,8.1,0.3c0.9-0.9,2.1-1.8,2.5-2.9c1.2-3.3,1.8-6.9,3.3-10
			c0.9-1.8,0.6-3-0.5-3.8C301.8,72.2,297.2,70.3,292,68.9z M296.1,113.2c-4.7,0.5-6,4.7-8.5,7.4c-10.5,11-11.2,15.5-5.2,25.5
			c1.4,2.4,3.4,3.2,5.6,2.5c2.6-0.8,0.8-2.9,0.7-4.5c-0.2-5.5-1.3-11.1,3.8-15.7c3.2-2.9,5.2-7.1,5.8-11.7
			C298.5,114.6,297.8,113.5,296.1,113.2z M294.9,56.8c-7.7,1.5-16.5-0.3-22.7,7c-0.8,1-2.3,1.8-1.5,3.4c0.9,1.7,2.3,0.5,3.5,0.1
			c6.2-2,12.4-3.5,18.8-0.8c2.7,1.1,5.4,0.6,8.3-0.1c2.3-0.6,4-1,4.2-3.9c0.2-3-1.3-4.3-3.9-4.8C299.5,57.3,297.4,57.1,294.9,56.8z
			 M340.4,80.9c0.3,1.5-0.7,3.9,1.8,4c3.1,0.1,6.6,2.3,9.1-1.5c0.9-1.4,1.6-3.4,3.4-3c1.8,0.4,2.4,2.5,2.7,4.4
			c0.3,1.7,0.4,3.6,2.9,2.6c4-1.6,2.2-5.9,3.8-8.7c0.9-1.5-1.3-2.7-2.7-3.7c-5.1-3.8-10.6-1.4-15.8-0.8
			C342.1,74.7,340.4,77.4,340.4,80.9z M347.5,174.4c-0.1-0.4-0.3-1.5-0.5-1.5c-1.8,0-2.5,1.4-3.3,2.6c-5.4,7.9-10.8,15.3-22.3,10.8
			c-1.9-0.8-5.4,0.8-5.4,3c0,2.8,2.9,0.4,4.4,0.7c2,0.3,3.9,1.1,5.7,1.3c5.7,0.4,12.6,2.7,16.6-2.7
			C345.5,184.8,345.9,179.3,347.5,174.4z M357.5,151.6c0.6-0.5,0.8-0.7,1-1c3.2-4,6.9-7.8,6.9-13.4c0-4-0.5-8,1.3-11.8
			c0.7-1.6,1.4-4.1,0.3-4.6c-1.8-0.7-2.3,1.8-3.1,3.2c-0.5,0.9-1.2,1.8-1.2,2.7c0.2,7.9-0.2,15.6-5.1,22.3
			C357.2,149.6,357.5,150.6,357.5,151.6z M396.8,190.7c-0.4-1.5-0.7-2.5-1-3.5c-0.5,0.8-1.2,1.6-1.4,2.4c-1.1,4.8-2,9.6-2.9,14.5
			c-0.1,0.6,0.2,1.2,0.3,1.9c0.5-0.4,1.2-0.8,1.3-1.3C394.4,200,395.6,195.2,396.8,190.7z M297.4,181.8c1.3-0.2,1.9-1.1,2-2.4
			c0.1-1.1-0.3-2.1-1.4-2.2c-1.3-0.1-2.2,0.7-2.4,2C295.3,180.6,296.1,181.4,297.4,181.8z M333.1,7.1c1.2-1.4,2-2,1.9-2.2
			c-0.4-0.6-0.9-1.4-1.6-1.6c-0.9-0.3-1.7,0.2-1.5,1.2C332,5.3,332.6,6,333.1,7.1z"/>
		<g>
			<path class="st2" d="M291.2,207.5c-0.6-1-0.7,1.1-0.8,1.7c-0.2,1.3,0,3-1.5,3.3c-0.7,0.2-2.2-1.1-2.6-2
				c-4.8-10.9-11.6-20.9-14-32.8c-0.3-1.6-1-2.7-1.8-3.9c-5.9-9.8-15-18.3-13.3-31.3c0.2-1.6-0.9-2.9-2.3-2.3
				c-4.1,1.8-7.3-0.2-10.8-1.6c-4.8-1.9-8.4,0.1-10.4,4.8c-1.5,3.5-2.8,7.1-4.3,10.6c-0.6,1.2-0.8,3.6-2.5,3.1
				c-1.2-0.4-0.4-2.5-0.1-4c1.7-9.7,5.1-18.8,9-27.8c7.1-16.6,8.9-34.4,11.6-52c0.9-5.7,1.9-11.3,2.9-17c-0.8-0.4-1.4-1.2-2.7-0.7
				c-1.5,0.6-1.6,4.4-3.6,2.3c-1-1.1,1.3-3.4,2.8-4.7c0.5-0.4,1-0.8,1.5-1.3c7.5-18.8,14.7-37.7,30.1-51.8
				c-17.8,0-35.6,0.1-53.4-0.1c-2.8,0-3.7,0.3-3.7,3.5c0.1,71.1,0.1,142.1,0,213.2c0,3.3,1.1,3.4,3.7,3.4
				c25.8-0.1,51.6-0.1,77.4-0.1C301.8,213.2,294.1,212.5,291.2,207.5z"/>
			<path class="st2" d="M333.4,3.2c-0.9-0.3-1.7,0.2-1.5,1.2c0.1,0.8,0.7,1.5,1.2,2.6c1.2-1.4,2-2,1.9-2.2
				C334.6,4.2,334,3.5,333.4,3.2z"/>
		</g>
		<path class="st2" d="M300.3,84.1c0,1.4-0.9,2.1-2.1,2.4c-1.2,0.3-0.7-0.8-0.8-1.3c-0.1-1.2,0.3-2.5,1.6-2.8
			C300.1,82.2,300.3,83.2,300.3,84.1z"/>
		<path class="st2" d="M354.8,79c-0.3-0.1-0.5-0.3-0.8-0.4c0.3-0.1,0.6-0.3,0.9-0.3c0.3,0,0.5,0.3,0.8,0.4
			C355.4,78.7,355.1,78.9,354.8,79z"/>
	</g>
	<g>
		<path class="st2" d="M147.1,1.1c16.7,0,33.3,0.1,50-0.1c2.5,0,3.1,0.6,3.1,3.1c-0.1,71.3-0.1,142.7,0,214c0,3.4-1.4,3-3.6,3
			c-36.5,0-73,0-109.5,0c1-2.5,1-5.1-1.3-6.7c-9.9-6.5-10.6-19.6-20.1-27c-3.9-3-4.7-12.1-4.1-18.2c0.6-6.2-2.3-9.4-5.2-13.5
			c-5.3-7.6-12-14.3-13.4-24.4c-2.6-17.8-4.1-35.6-3.2-53.7c0.6-13.7,3.9-26.4,8.4-39c0.9-2.4-1.1-5.6,1.2-6.8
			c8.5-4.4,12.3-14.6,22-17.3c2.9-0.8,5.7-1.7,8.4-2.8c0.8-0.3,1.3-1.3,1.9-2c-0.7-0.5-1.5-1.6-2.2-1.5c-5.8,0.5-5.5-3.3-5.3-7.1
			c19.3,0,38.7,0,58,0c-0.3,2.3,0.9,3.9,2.1,5.8c11.2,17.2,20.9,35.2,27.2,54.8c1.3,4.1-0.7,6.2-4.4,5.2c-4.7-1.2-4,1.5-4,4.1
			c0.2,14.5,4,28.6,5.9,42.9c0.2,1.5-0.8,4.3,1.1,4.2c1.9-0.1,2-3,2-4.9c0-1.1-0.3-2.3-0.6-3.4c-0.5-1.5-0.1-2.7,1.3-3.3
			c1.6-0.8,2.8-0.3,3.7,1.3c2.2,3.8,4.4,7.5,6.6,11.3c0.7,0.7,1.3,1.4,2,2c0.2,0.2,0.5,0.4,0.7,0.5c0-0.4-0.1-0.8-0.1-1.1
			c-0.2-0.5-0.4-1-0.7-1.5c-1.4-7.8-3-15.5-4-23.3c-0.9-6.9-1.9-13.8-1.5-20.7c0.2-4.6,0.9-9.2,0.6-13.8c-0.3-5.5-1.2-11-1.9-16.4
			c-0.4-3.1-3.6-4.3-4.3-7.9c-1.8-9.4-0.6-19.9-8.5-27.5C152.5,6.7,149.8,3.8,147.1,1.1z M103.6,130.1c6.6,1.2,13.7-1.6,16.9-7.3
			c3-5.3,0.1-11.9-4.7-16.6c-1.7-1.6-3.6-2.4-5.6-2.9c-3-0.7-4.3-3.3-4.4-5.4c-0.1-2.6,3.2-1.1,4.7-2.1c1.9-1.2,5.2,1.5,5.4-0.5
			c0.8-6.9,0.6-13.8,0.8-20.8c0-0.2-0.6-0.3-0.8-0.5c-1.2-0.9-2.8-1.7-2.5-3.4c0.3-2.1,2.6-2.1,3.9-2.3c5.9-0.6,11.2-4.3,17.4-3.4
			c1.6,0.2,2.7-0.7,3-2.9c0.2-1.7,0.4-2.8-1.3-3.7c-8.5-4.6-22.4,0-28.7,7.3c-12.1,14.1-8.5,30.3-7.3,46c0.4,4.8-0.3,8.2-3.2,11.8
			c-1.4,1.7-4.7,2.8-3.5,5.4c1.1,2.4,4.2,1,6.4,1.3C101.1,130.2,101.9,130.1,103.6,130.1z M89.9,152.3c1-0.3,2.1-0.6,3.1-0.9
			c-2-0.3-1-3.4-3.5-3.5c-1.3-0.1-3.4-0.6-3.1-2.5c0.4-2.4,2.8-1.5,4.2-1.3c5.9,0.7,11.8,0.7,17.7-0.2c1.2-0.2,2.5-2.6,3.6-0.6
			c0.7,1.5-1.1,2.5-2.3,3.4c-1,0.7-2.9,1.2-1.6,2.8c0.6,0.8,2,1.4,3,1.3c4.1-0.4,16.7-12.6,17.7-16.8c0.4-1.5,0.5-2.7-0.8-3.5
			c-1.4-0.9-2.7-0.6-4.2,0.3c-15.1,9.7-31.4,7.1-47.6,4.6c-2-0.3-3.8-0.8-5.6,0.7c-2.1,1.8-1,3.5-0.4,5.4
			C73.4,151.4,81.3,152.3,89.9,152.3z M70.7,69.9c-5.8,3.4-13.9,2.4-18.6,8.8c-2,2.7-3.6,5.9-0.3,8.3c2.9,2.1,6.3,1.3,8.4-1.9
			c1.8-2.7,2.2-1.7,3.3,0.5c1.7,3.3,6,8.7,7.5,6.9c3.9-4.6,5.6,2.6,8.1,0.3c0.9-0.9,2.1-1.8,2.5-2.9c1.2-3.3,1.8-6.9,3.3-10
			c0.9-1.8,0.6-3-0.5-3.8C80.5,73.2,75.9,71.2,70.7,69.9z M74.8,114.2c-4.7,0.5-6,4.7-8.5,7.4C55.8,132.6,55,137.1,61,147
			c1.4,2.4,3.4,3.2,5.6,2.5c2.6-0.8,0.8-2.9,0.7-4.5c-0.2-5.5-1.3-11.1,3.8-15.7c3.2-2.9,5.2-7.1,5.8-11.7
			C77.1,115.6,76.5,114.5,74.8,114.2z M73.6,57.8c-7.7,1.5-16.5-0.3-22.7,7c-0.8,1-2.3,1.8-1.5,3.4c0.9,1.7,2.3,0.5,3.5,0.1
			c6.2-2,12.4-3.5,18.8-0.8c2.7,1.1,5.4,0.6,8.3-0.1c2.3-0.6,4-1,4.2-3.9c0.2-3-1.3-4.3-3.9-4.8C78.2,58.3,76.1,58.1,73.6,57.8z
			 M119.1,81.9c0.3,1.5-0.7,3.9,1.8,4c3.1,0.1,6.6,2.3,9.1-1.5c0.9-1.4,1.6-3.4,3.4-3c1.8,0.4,2.4,2.5,2.7,4.4
			c0.3,1.7,0.4,3.6,2.9,2.6c4-1.6,2.2-5.9,3.8-8.7c0.9-1.5-1.3-2.7-2.7-3.7c-5.1-3.8-10.6-1.4-15.8-0.8
			C120.8,75.6,119.1,78.4,119.1,81.9z M126.2,175.4c-0.1-0.4-0.3-1.5-0.5-1.5c-1.8,0-2.5,1.4-3.3,2.6c-5.4,7.9-10.8,15.3-22.3,10.8
			c-1.9-0.8-5.4,0.8-5.4,3c0,2.8,2.9,0.4,4.4,0.7c2,0.3,3.9,1.1,5.7,1.3c5.7,0.4,12.6,2.7,16.6-2.7
			C124.2,185.8,124.6,180.3,126.2,175.4z M136.2,152.6c0.6-0.5,0.8-0.7,1-1c3.2-4,6.9-7.8,6.9-13.4c0-4-0.5-8,1.3-11.8
			c0.7-1.6,1.4-4.1,0.3-4.6c-1.8-0.7-2.3,1.8-3.1,3.2c-0.5,0.9-1.2,1.8-1.2,2.7c0.2,7.9-0.2,15.6-5.1,22.3
			C135.9,150.6,136.2,151.6,136.2,152.6z M175.5,191.7c-0.4-1.5-0.7-2.5-1-3.5c-0.5,0.8-1.2,1.6-1.4,2.4c-1.1,4.8-2,9.6-2.9,14.5
			c-0.1,0.6,0.2,1.2,0.3,1.9c0.5-0.4,1.2-0.8,1.3-1.3C173.1,201,174.3,196.2,175.5,191.7z M76.1,182.8c1.3-0.2,1.9-1.1,2-2.4
			c0.1-1.1-0.3-2.1-1.4-2.2c-1.3-0.1-2.2,0.7-2.4,2C74,181.6,74.8,182.4,76.1,182.8z"/>
		<path class="st2" d="M81.1,221.1c-25.8,0-51.6,0-77.4,0.1c-2.7,0-3.7-0.1-3.7-3.4C0.1,146.6,0.1,75.5,0,4.5C0,1.3,0.9,1,3.7,1
			c17.8,0.1,35.6,0.1,53.4,0.1C41.7,15.2,34.5,34.1,27,52.9c-0.5,0.4-1,0.8-1.5,1.3c-1.5,1.3-3.8,3.7-2.8,4.7c2,2.1,2.1-1.7,3.6-2.3
			c1.2-0.5,1.8,0.4,2.7,0.7c-1,5.7-2,11.3-2.9,17c-2.7,17.6-4.5,35.4-11.6,52c-3.8,9-7.3,18.1-9,27.8c-0.3,1.4-1.1,3.6,0.1,4
			c1.7,0.5,1.9-1.9,2.5-3.1c1.6-3.5,2.9-7.1,4.3-10.6c2-4.7,5.6-6.7,10.4-4.8c3.6,1.4,6.8,3.4,10.8,1.6c1.5-0.6,2.6,0.6,2.3,2.3
			c-1.7,13,7.5,21.5,13.3,31.3c0.8,1.3,1.5,2.4,1.8,3.9c2.3,11.9,9.2,21.9,14,32.8c0.4,0.9,1.9,2.2,2.6,2c1.5-0.3,1.3-2,1.5-3.3
			c0.1-0.6,0.2-2.7,0.8-1.7C72.8,213.5,80.5,214.2,81.1,221.1z"/>
		<path class="st0" d="M81.1,221.1c-0.6-6.9-8.3-7.5-11.2-12.6c-0.6-1-0.7,1.1-0.8,1.7c-0.2,1.3,0,3-1.5,3.3c-0.7,0.2-2.2-1.1-2.6-2
			c-4.8-10.9-11.6-20.9-14-32.8c-0.3-1.6-1-2.7-1.8-3.9c-5.9-9.8-15-18.3-13.3-31.3c0.2-1.6-0.9-2.9-2.3-2.3
			c-4.1,1.8-7.3-0.2-10.8-1.6c-4.8-1.9-8.4,0.1-10.4,4.8c-1.5,3.5-2.8,7.1-4.3,10.6c-0.6,1.2-0.8,3.6-2.5,3.1
			c-1.2-0.4-0.4-2.5-0.1-4c1.7-9.7,5.1-18.8,9-27.8c7.1-16.6,8.9-34.4,11.6-52C27,68.7,28,63,29,57.3c-0.7-1.5-1.3-3-2-4.5
			c7.5-18.8,14.7-37.7,30.1-51.8c5.7,0,11.3,0,17,0c-0.2,3.8-0.5,7.7,5.3,7.1c0.7-0.1,1.5,1,2.2,1.5c-0.6,0.7-1.1,1.7-1.9,2
			c-2.8,1.1-5.6,2-8.4,2.8c-9.7,2.7-13.5,13-22,17.3C47,33,49,36.2,48.1,38.6c-4.4,12.6-7.7,25.3-8.4,39
			c-0.8,18.1,0.7,35.9,3.2,53.7c1.4,10,8,16.8,13.4,24.4c2.9,4.2,5.8,7.4,5.2,13.5c-0.6,6.1,0.2,15.2,4.1,18.2
			c9.5,7.4,10.2,20.5,20.1,27c2.4,1.5,2.4,4.2,1.3,6.7C85.1,221.1,83.1,221.1,81.1,221.1z"/>
		<path class="st0" d="M147.1,1.1c2.7,2.8,5.4,5.6,8.2,8.3c7.9,7.6,6.7,18.1,8.5,27.5c0.7,3.6,3.9,4.8,4.3,7.9
			c0.7,5.5,1.6,10.9,1.9,16.4c0.2,4.6-0.4,9.2-0.6,13.8c-0.4,6.9,0.6,13.8,1.5,20.7c1.1,7.8,2.7,15.6,4,23.3c-0.6,0-1.3,0-1.9,0
			c-2.2-3.8-4.5-7.5-6.6-11.3c-0.9-1.6-2.1-2.1-3.7-1.3c-1.4,0.6-1.8,1.8-1.3,3.3c0.4,1.1,0.6,2.2,0.6,3.4c0,1.9-0.1,4.8-2,4.9
			c-1.8,0.1-0.9-2.7-1.1-4.2c-1.9-14.3-5.7-28.3-5.9-42.9c0-2.6-0.7-5.3,4-4.1c3.7,1,5.7-1.2,4.4-5.2c-6.3-19.6-16-37.6-27.2-54.8
			c-1.2-1.9-2.4-3.5-2.1-5.8C137.1,1.1,142.1,1.1,147.1,1.1z"/>
		<path class="st0" d="M103.6,130.1c-1.6,0-2.5,0.1-3.3,0c-2.2-0.3-5.3,1.1-6.4-1.3c-1.2-2.6,2.1-3.7,3.5-5.4
			c2.9-3.5,3.5-7,3.2-11.8c-1.2-15.8-4.8-31.9,7.3-46c6.3-7.3,20.2-11.9,28.7-7.3c1.6,0.9,1.4,2,1.3,3.7c-0.2,2.1-1.4,3.1-3,2.9
			c-6.2-0.9-11.5,2.8-17.4,3.4c-1.4,0.1-3.6,0.2-3.9,2.3c-0.2,1.7,1.3,2.5,2.5,3.4c0.3,0.2,0.8,0.3,0.8,0.5
			c-0.2,6.9,0,13.9-0.8,20.8c-0.2,2.1-3.5-0.6-5.4,0.5c-1.5,0.9-4.8-0.6-4.7,2.1c0.1,2.1,1.4,4.7,4.4,5.4c2,0.5,4,1.3,5.6,2.9
			c4.8,4.8,7.7,11.4,4.7,16.6C117.2,128.5,110.2,131.3,103.6,130.1z"/>
		<path class="st1" d="M89.9,152.3c-8.6-0.1-16.6-1-19.8-10.7c-0.6-1.9-1.7-3.6,0.4-5.4c1.8-1.5,3.6-1,5.6-0.7
			c16.2,2.5,32.6,5.1,47.6-4.6c1.4-0.9,2.8-1.3,4.2-0.3c1.2,0.8,1.2,2,0.8,3.5c-1,4.1-13.6,16.4-17.7,16.8c-1,0.1-2.5-0.5-3-1.3
			c-1.2-1.7,0.6-2.1,1.6-2.8c1.2-0.9,3.1-2,2.3-3.4c-1.1-2.1-2.3,0.4-3.6,0.6c-5.9,0.8-11.8,0.9-17.7,0.2c-1.4-0.2-3.8-1.1-4.2,1.3
			c-0.3,1.9,1.8,2.4,3.1,2.5c2.5,0.1,1.5,3.3,3.5,3.5C92,151.8,91,152,89.9,152.3z"/>
		<path class="st1" d="M70.7,69.9c5.2,1.4,9.8,3.3,13.7,6.3c1.1,0.8,1.4,2,0.5,3.8c-1.5,3.1-2.1,6.7-3.3,10
			c-0.4,1.1-1.5,2.1-2.5,2.9c-2.5,2.3-4.2-4.9-8.1-0.3c-1.5,1.8-5.9-3.6-7.5-6.9c-1.1-2.3-1.5-3.2-3.3-0.5c-2.1,3.1-5.5,4-8.4,1.9
			c-3.3-2.4-1.7-5.6,0.3-8.3C56.8,72.3,64.9,73.3,70.7,69.9z M79,85.1c0-0.9-0.3-1.9-1.3-1.6c-1.3,0.3-1.7,1.5-1.6,2.8
			c0,0.5-0.4,1.6,0.8,1.3C78.1,87.2,79.1,86.5,79,85.1z"/>
		<path class="st1" d="M74.8,114.2c1.7,0.3,2.4,1.4,2.1,3.5c-0.6,4.6-2.6,8.8-5.8,11.7c-5.1,4.6-4,10.2-3.8,15.7
			c0.1,1.6,1.9,3.7-0.7,4.5c-2.2,0.6-4.1-0.1-5.6-2.5c-6-9.9-5.2-14.4,5.2-25.5C68.8,118.9,70,114.7,74.8,114.2z"/>
		<path class="st1" d="M73.6,57.8c2.4,0.3,4.6,0.5,6.7,0.8c2.6,0.5,4,1.8,3.9,4.8c-0.2,2.9-1.8,3.3-4.2,3.9
			c-2.8,0.7-5.5,1.2-8.3,0.1c-6.4-2.7-12.6-1.2-18.8,0.8c-1.2,0.4-2.5,1.6-3.5-0.1c-0.9-1.5,0.6-2.4,1.5-3.4
			C57.1,57.5,65.9,59.3,73.6,57.8z"/>
		<path class="st1" d="M119.1,81.9c0.1-3.6,1.8-6.3,5.3-6.7c5.3-0.6,10.7-3,15.8,0.8c1.3,1,3.5,2.2,2.7,3.7
			c-1.6,2.8,0.2,7.1-3.8,8.7c-2.5,1-2.7-0.9-2.9-2.6c-0.3-1.8-0.9-3.9-2.7-4.4c-1.8-0.4-2.5,1.6-3.4,3c-2.4,3.7-6,1.6-9.1,1.5
			C118.4,85.8,119.4,83.5,119.1,81.9z M133.5,80c0.3-0.1,0.6-0.2,0.9-0.4c-0.3-0.1-0.5-0.4-0.8-0.4c-0.3,0-0.6,0.2-0.9,0.3
			C133,79.7,133.3,79.8,133.5,80z"/>
		<path class="st1" d="M126.2,175.4c-1.6,4.9-2,10.4-4.8,14.1c-4.1,5.5-10.9,3.1-16.6,2.7c-1.8-0.1-3.7-1-5.7-1.3
			c-1.5-0.2-4.3,2.2-4.4-0.7c0-2.2,3.4-3.7,5.4-3c11.6,4.5,17-2.9,22.3-10.8c0.8-1.2,1.5-2.7,3.3-2.6
			C125.9,173.9,126.1,175,126.2,175.4z"/>
		<path class="st1" d="M136.2,152.6c0-1.1-0.3-2,0-2.5c4.9-6.7,5.3-14.4,5.1-22.3c0-0.9,0.7-1.8,1.2-2.7c0.8-1.4,1.4-3.8,3.1-3.2
			c1.1,0.4,0.4,3-0.3,4.6c-1.8,3.8-1.3,7.8-1.3,11.8c0,5.7-3.7,9.4-6.9,13.4C137,151.9,136.8,152.1,136.2,152.6z"/>
		<path class="st1" d="M175.5,191.7c-1.2,4.5-2.4,9.2-3.7,14c-0.1,0.5-0.9,0.9-1.3,1.3c-0.1-0.6-0.4-1.3-0.3-1.9
			c0.9-4.8,1.9-9.7,2.9-14.5c0.2-0.9,0.9-1.6,1.4-2.4C174.8,189.2,175.1,190.2,175.5,191.7z"/>
		<path class="st1" d="M76.1,182.8c-1.3-0.4-2-1.2-1.8-2.6c0.2-1.3,1.1-2.1,2.4-2c1.2,0.1,1.5,1.1,1.4,2.2
			C77.9,181.6,77.4,182.6,76.1,182.8z"/>
		<path class="st1" d="M173.1,119.1c0.6,0,1.3,0,1.9,0c0.2,0.5,0.4,1,0.7,1.5c-0.2,0.2-0.4,0.4-0.6,0.6
			C174.4,120.4,173.7,119.7,173.1,119.1z"/>
		<path class="st1" d="M175.7,120.5c0,0.4,0.1,0.8,0.1,1.1c-0.2-0.2-0.5-0.4-0.7-0.5C175.3,120.9,175.5,120.7,175.7,120.5z"/>
		<path class="st1" d="M27,52.9c0.7,1.5,1.3,3,2,4.5c-0.8-0.4-1.4-1.2-2.7-0.7c-1.5,0.6-1.6,4.4-3.6,2.3c-1-1.1,1.3-3.4,2.8-4.7
			C26,53.7,26.5,53.3,27,52.9z"/>
		<path class="st2" d="M79,85.1c0,1.4-0.9,2.1-2.1,2.4c-1.2,0.3-0.7-0.8-0.8-1.3c-0.1-1.2,0.3-2.5,1.6-2.8
			C78.8,83.2,79,84.2,79,85.1z"/>
		<path class="st2" d="M133.5,80c-0.3-0.1-0.5-0.3-0.8-0.4c0.3-0.1,0.6-0.3,0.9-0.3c0.3,0,0.5,0.3,0.8,0.4
			C134.1,79.7,133.8,79.9,133.5,80z"/>
	</g>
</g>
<g>
</g>
<g>
</g>
<g>
</g>
<g>
</g>
<g>
</g>
<g>
</g>
<g>
</g>
<g>
</g>
<g>
</g>
<g>
</g>
<g>
</g>
<g>
</g>
<g>
</g>
<g>
</g>
<g>
</g>
</svg>
