<?xml version="1.0" encoding="utf-8"?>
<!-- Generator: Adobe Illustrator 17.1.0, SVG Export Plug-In . SVG Version: 6.00 Build 0)  -->
<!DOCTYPE svg PUBLIC "-//W3C//DTD SVG 1.1//EN" "http://www.w3.org/Graphics/SVG/1.1/DTD/svg11.dtd">
<svg version="1.1" id="Layer_1" xmlns="http://www.w3.org/2000/svg" xmlns:xlink="http://www.w3.org/1999/xlink" x="0px" y="0px"
	 viewBox="0 0 642.3 220.2" style="enable-background:new 0 0 642.3 220.2;" xml:space="preserve">
<style type="text/css">
	.st0{fill:#050102;}
	.st1{fill:#080202;}
	.st2{fill:#FC0000;}
</style>
<g>
	<g>
		<path class="st0" d="M200.1,114.1c-5.9,1.8-9,5.7-9.1,12c0,1.4-0.9,2.8-1.5,4.2c-4.5,10.9-7.5,22.4-10.5,33.7
			c-0.7,2.6-2.2,5.1-3.3,7.6c-2.6-3-3.3-5.3-1.6-9.8c3.5-8.9,8-17.5,10.4-26.8c0.5-1.9,0.4-3.5,0-5.3c-1-3.7-2.1-7.4-1.6-11.5
			c0.6-4.6-3.7-9.3-8.3-10.2c-4-0.8-8.1-2.8-10.2-5.7c-4.9-7-12.2-7.6-19.4-9.3c-8.9-2.1-18.1-1.3-26.8-2.8
			c-6.2-1-11.5,0.1-17.3,0.7c-3.4,0.4-5.7,2.6-8.4,4c-3.8,1.8-7,1.1-9.4-1.6c-2.7-3,0.2-5.4,1.9-7.7c1.7-2.4,3.5-4.8,4.9-7.4
			c1.3-2.3,3.6-4.3,5.7-4.6c4.9-0.5,7.6-4.4,11.6-6.2c4.1-1.8,8.1-3.5,12.3-0.5c-0.6,1.9-2.3,0.7-3.1,1.5c-0.9,0.9-2.4,1.5-1.9,3.2
			c0.4,1.5,1.5,3.2,3,3c3.4-0.6,7-0.3,10-2.3c4-2.7,11.8-5.2,16.7-5.2c2.5,0,5,0,7.1,1.8c1.7,1.5,3.7,1.4,5.7,1
			c6.9-1.2,12.7,2.5,14.6,9.3c0.6,2.3,2.4,2,3.9,1.8c3.9-0.4,7.1,1.2,10.4,2.9c1.8,1,3.2,2.6,3.1,4.2c-0.5,8.7,4.6,13.8,11.2,17.9
			C200.1,108.8,200.1,111.5,200.1,114.1z M182.8,92.8c-2.1-2.6-4.9-2.9-7.4-3.5c-2.3-0.6-3.6,1.2-3.7,3c-0.2,2,1.8,1.9,3.2,1.8
			C177.5,93.8,180.3,95,182.8,92.8z"/>
		<path class="st0" d="M64.3,182.1c0.8-5.7,5.2-8,9.7-10.1c0.8,1.1,1.4,3.4,3.1,2.1c1.7-1.3,0.7-2.9-0.9-3.9c-0.4-1-0.8-1.9-1.1-2.9
			c-0.4-0.4-0.7-0.8-1.1-1.1c0,0,0.1,0.1,0.1,0.1c-0.4-0.3-0.9-0.7-1.3-1c-0.3,0.1-0.5,0-0.7-0.2c-0.6-0.5-1.3-0.5-2-0.1
			c-5.8-0.1-7.3-1.3-7.9-6.8c1.5-0.3,2.8-1,3.9-2.1c0.6,0,1.1,0,1.7,0.1c0.7,0,1.5,0.1,2.7,0.5c0.3,0.2,0.1-0.1-0.1-0.2
			c-0.4-0.3-0.6-0.2-0.2,0.2c0.2,0.2,0.4,0.4,0.6,0.6c0.1-0.1,0.2-0.2-0.2-0.6c-0.5-1.1-0.5-1.8-0.6-2.5c0.1-1.1,0.7-1.8,1.9-1.9
			c1.1,0,2.3,0,3.4,0c5-0.2,6.1,4.1,8.2,7.2c0,2.7-0.3,5.8,4,3.1c1.1,1.9,3.3,3.1,3.7,5.5c0,1.5,0.6,2.6,2,3.2c1.2,1,0.8,2.5,1,3.8
			c0.5,2.6-0.3,4.2-3.2,4.3l0,0c-0.4-1.7-0.5-3.5-3.1-3c-2.2,1.6-3.6-1-5.5-1.1c-0.6,0.1-1.2,0.2-1.3,1c0.2,1,0.5,2,0.7,3
			c-1.7,0.6-2.5,1.7-2.2,3.5l-0.1,0.1c-1.5-0.4-2.8-0.2-3.6,1.4c-0.8,0.1-1.6,0-2.2,0.4c-0.4,0.2,0,0.9,0.5,1c1,0.1,1.4-0.6,1.7-1.4
			c1,0,1.9,0,2.9,0c0,2.5,1.1,4.1,3.7,4.5c0,0,0,0,0,0c-3,4.4-1.7,6.6,3.1,8.7c4.2,1.8,1,5.8,0.6,8.8c-0.2,1.2-2,2.2-0.7,3.5
			c1.3,1.2,2.8,0.5,4-0.6c3.6-3.2,9-2.6,12.4-6.4c1.1-1.3,2.5,1.2,3.8,1.5c1.5,0.3,2.5,3.2,4.2,1.3c1.5-1.8,3.6-3.6,2.6-6.6
			c-0.4-1.2-2.7-2.2-0.4-3.7c1.4-0.9,2.6-0.8,4.2-0.2c5,2,7.6-0.2,6.9-5.7c-0.3-1.8-0.3-2.9,1.8-3.1c1.5-0.1,2.6-1,2.7-2.5
			c0.2-3.5,2.6-3.1,4.9-2.9c0.8,2.4,2.7,3.2,5,3.4c5.2,9,2.4,16.8-7.8,21.5c-1.6,0.8-3.2,2-4.9,2.2c-7.3,1-8.2,6.6-9.1,12.2
			c-14.7,0-29.3,0-44,0c-0.3-0.4-0.5-1-0.9-1.1c-10.4-3.2-9.4-11.5-9.2-19.7c0.1-2.5-1.7-5.1,1.1-7.2c2.7-0.2,3.8-1.5,3-4.2
			c0.3-1.1,0.6-2.3,1-3.4C66.6,183,65.7,182.3,64.3,182.1z M69.9,177.3c-0.3,0.6-0.6,1-0.6,1.4c0,0.4,0.3,1.1,0.6,1.1
			c0.9,0.1,1-0.6,0.8-1.3C70.6,178.2,70.3,177.9,69.9,177.3z"/>
		<path class="st1" d="M137.9,184.1c-2.3-0.2-4.2-1-5-3.4c0.2-2.9,0.9-5.7-2.6-7.7c-2-1.1-1.2-3.9-1.2-6.1c0-2.1,0-4.2,0-6.2
			c-1-0.1-1.5-0.2-1.5-0.1c-2.3,6-7.5,1.4-11,3c-0.1,0.1-1-0.9-1.1-1.4c-0.2-0.9,0.6-1.8,1.3-1.8c3.3-0.1,5.9-0.6,5.7-4.8
			c0-0.3,0.6-1,1-1c2.1,0,4.9,0.5,5.2-2.1c0.4-3.7,1.9-7.3,1.1-11.2c-0.7-3.9,0.5-8.1-1.3-12c-0.5-1.1,1-2,1.8-2.8
			c0.8-0.9,1.8-1.6,1.8-2.9c0-1.4-1.7-2.9,0.3-4c1.1-0.6,2.1,0.5,2.9,1.3c1.7,1.6,0.6,2.9-0.8,4c5.8,4.5,13,3.1,19.2,5.6
			c0.5,0.2,3.4-1.7,5.5-0.4c0.9,0.5,1.9,1.1,1.5,2.2c-0.3,1-1.4,0.8-2.1,0.7c-4.1-0.4-7.6,2-11.6,2.4c-2.6,0.3-5,2.3-5.7,5
			c-1.1,4-3,7.6-5,11.3c-1.7,3.2-0.8,6.5,0,9.7C138.1,168.9,136,176.7,137.9,184.1z"/>
		<path class="st1" d="M96.1,122.8c2.7,6.4-2.1,10.1-6.9,13.7c-3.2,2.4-6.4,1.3-8-2.4c-1.1-2.5-1.4-5.1-1-7.8
			c0.1-0.8,0.8-1.9,0.6-2.3c-4-6,1.3-9.1,4.1-12.8c2.3-3.1,5.6-4,9.3-1.9c1.5,0.9,3.1,1.1,4.8,1c3.5-0.4,5.7,1,6.5,4.6
			c0.3,1.4,2,2.8,0.7,4c-1.3,1.2-3.1,0.3-4.7-0.3C96.5,116.3,96.1,116.6,96.1,122.8z"/>
		<path class="st1" d="M64.1,128.1c0.2-2.8,0.8-5.7,2.6-7.8c2-2.4,4.6-6,8.1-3.2c4.4,3.6,5.4,8.4,1.3,11.6c-1.4,1.1-2.9,2.2-4.3,3.3
			c-1.2,0.9-2.4,3-4.2,1.6C65.8,132.3,63.7,130.9,64.1,128.1z"/>
		<path class="st1" d="M174.4,173.3c0.6,1.7,0.8,3.2,1.2,3.3c3.1,0.5,4.8,2.5,4.4,5.3c-0.5,3.9-2.2,7.7-5.2,10.3
			c-2.1,1.8-5.8-0.1-6.8-3c-1.9-5.8-0.9-8.6,4.4-11.1C173.7,177.4,173.7,177.4,174.4,173.3z"/>
		<path class="st1" d="M173.4,159.8c-3.7,0.9-7.6,5.2-11.6-0.1c-0.7-0.9-2.7,2.8-3.2,0c-0.4-2.1,1.8-4.7,3.5-4.8
			c2.3-0.1,6-6.1,7.3,1.1C169.7,157.7,172.9,157.1,173.4,159.8z"/>
		<path class="st1" d="M69.7,148.4c0.4-2.9,1.2-4.5,3.8-4.2c2.1,0.2,2.6,1.6,2.5,3.5c-0.1,1.5-0.5,2.8-2.3,1.8
			C72.5,148.7,70.2,150.2,69.7,148.4z"/>
		<path class="st1" d="M110.5,169.1c-0.6,0.2-1.4,0.5-2.2,0.7c-1,0.2-1.7-0.4-1.8-1.3c-0.1-1.1,0.9-1.5,1.6-1.2
			c1.6,0.8,2.7,0.3,4-0.6c0.7-0.5,1.7-2,2.8-0.4c0.4,0.5,0.7,1.3,0.6,1.8c-0.5,1.5-1.9,0.9-2.9,1
			C112.1,169.2,111.4,169.1,110.5,169.1z"/>
		<path class="st1" d="M90.7,184.7c-1.2,4.4-4,5.4-8.1,3.9c0,0,0,0,0,0c2.4-1.6,4.1-4.3,7.3-4.7C90.2,184.2,90.4,184.4,90.7,184.7z"
			/>
		<path class="st2" d="M200.1,114.1c-5.9,1.8-9,5.7-9.1,12c0,1.4-0.9,2.8-1.5,4.2c-4.5,10.9-7.5,22.4-10.5,33.7
			c-0.7,2.6-2.2,5.1-3.3,7.6c-2.6-3-3.3-5.3-1.6-9.8c3.5-8.9,8-17.5,10.4-26.8c0.5-1.9,0.4-3.5,0-5.3c-1-3.7-2.1-7.4-1.6-11.5
			c0.6-4.6-3.7-9.3-8.3-10.2c-4-0.8-8.1-2.8-10.2-5.7c-4.9-7-12.2-7.6-19.4-9.3c-8.9-2.1-18.1-1.3-26.8-2.8
			c-6.2-1-11.5,0.1-17.3,0.7c-3.4,0.4-5.7,2.6-8.4,4c-3.8,1.8-7,1.1-9.4-1.6c-2.7-3,0.2-5.4,1.9-7.7c1.7-2.4,3.5-4.8,4.9-7.4
			c1.3-2.3,3.6-4.3,5.7-4.6c4.9-0.5,7.6-4.4,11.6-6.2c4.1-1.8,8.1-3.5,12.3-0.5c-0.6,1.9-2.3,0.7-3.1,1.5c-0.9,0.9-2.4,1.5-1.9,3.2
			c0.4,1.5,1.5,3.2,3,3c3.4-0.6,7-0.3,10-2.3c4-2.7,11.8-5.2,16.7-5.2c2.5,0,5,0,7.1,1.8c1.7,1.5,3.7,1.4,5.7,1
			c6.9-1.2,12.7,2.5,14.6,9.3c0.6,2.3,2.4,2,3.9,1.8c3.9-0.4,7.1,1.2,10.4,2.9c1.8,1,3.2,2.6,3.1,4.2c-0.5,8.7,4.6,13.8,11.2,17.9
			c0-34.2,0-68.3,0-102.5c0-2.2,0.4-3.6-3-3.6C132.4,0.2,67.7,0.1,3.1,0.1C0.6,0.1,0,0.6,0,3.1c0.1,71.3,0.1,142.7,0,214
			c0,2.5,0.6,3.1,3.1,3.1c23-0.1,46-0.1,69-0.1c-0.3-0.4-0.5-1-0.9-1.1c-10.4-3.2-9.4-11.5-9.2-19.7c0.1-2.5-1.7-5.1,1.1-7.2
			c0.8-1.6,1.4-3.2,3-4.2c0.3-1.1,0.6-2.3,1-3.4c-1.2-0.4-2.3-0.9-2.6-2.4c0.8-5.7,5.2-8,9.7-10.1c0.7-0.6,1.4-1.2,2.2-1.9
			c-0.4-1-0.8-1.9-1.1-2.9c-0.4-0.4-0.7-0.8-1.1-1.1l0.1,0.1c-0.4-0.3-0.9-0.7-1.3-1c-0.3,0.1-0.5,0-0.7-0.2c-0.7,0-1.3,0-2-0.1
			c-5.8-0.1-7.3-1.3-7.9-6.8c0.3-2.5,1.2-4,3.9-2.1c0.6,0,1.1,0,1.7,0.1c0.7-0.7,1.4-1.4,2.2-2.1c0.1-1.1,0.7-1.8,1.9-1.9
			c1.1-1.2,2.3-1.3,3.4,0c5-0.2,6.1,4.1,8.2,7.2c1.5,0.8,3.2,1.4,4,3.1c1.1,1.9,3.3,3.1,3.7,5.5c1.2,0.7,1.9,1.8,2,3.2
			c1.2,1,0.8,2.5,1,3.8c1.7,1.8,4.3,3.1,0.3,5.8c-2.8,1.9-2.7-0.1-3.5-1.5l0,0c-1-1-2-2-3.1-3c-2.2,1.6-3.6-1-5.5-1.1
			c-0.4,0.3-0.9,0.7-1.3,1c0.2,1,0.5,2,0.7,3c0.3,1.8-0.9,2.7-2.2,3.5l-0.1,0.1c-0.2,0.5-0.5,0.9-0.7,1.4c0,2.5,1.1,4.1,3.6,4.5
			c-2.9,4.3-1.7,6.6,3.1,8.6c4.2,1.8,1,5.8,0.6,8.8c-0.2,1.2-2,2.2-0.7,3.5c1.3,1.2,2.8,0.5,4-0.6c3.6-3.2,9-2.6,12.4-6.4
			c1.1-1.3,2.5,1.2,3.8,1.5c1.5,0.3,2.5,3.2,4.2,1.3c1.5-1.8,3.6-3.6,2.6-6.6c-0.4-1.2-2.7-2.2-0.4-3.7c1.4-0.9,2.6-0.8,4.2-0.2
			c5,2,7.6-0.2,6.9-5.7c-0.3-1.8-0.3-2.9,1.8-3.1c1.5-0.1,2.6-1,2.7-2.5c0.2-3.5,2.6-3.1,4.9-2.9c0.2-2.9,0.9-5.7-2.6-7.7
			c-2-1.1-1.2-3.9-1.2-6.1c0-2.1,0-4.2,0-6.2c-1-0.1-1.5-0.2-1.5-0.1c-2.3,6-7.5,1.4-11,3c-0.1,0.1-1-0.9-1.1-1.4
			c-0.2-0.9,0.6-1.8,1.3-1.8c3.3-0.1,5.9-0.6,5.7-4.8c0-0.3,0.6-1,1-1c2.1,0,4.9,0.5,5.2-2.1c0.4-3.7,1.9-7.3,1.1-11.2
			c-0.7-3.9,0.5-8.1-1.3-12c-0.5-1.1,1-2,1.8-2.8c0.8-0.9,1.8-1.6,1.8-2.9c0-1.4-1.7-2.9,0.3-4c1.1-0.6,2.1,0.5,2.9,1.3
			c1.7,1.6,0.6,2.9-0.8,4c5.8,4.5,13,3.1,19.2,5.6c0.5,0.2,3.4-1.7,5.5-0.4c0.9,0.5,1.9,1.1,1.5,2.2c-0.3,1-1.4,0.8-2.1,0.7
			c-4.1-0.4-7.6,2-11.6,2.4c-2.6,0.3-5,2.3-5.7,5c-1.1,4-3,7.6-5,11.3c-1.7,3.2-0.8,6.5,0,9.7c2,7.5,0,15.2,1.8,22.7
			c5.2,9,2.4,16.8-7.8,21.5c-1.6,0.8-3.2,2-4.9,2.2c-7.3,1-8.2,6.6-9.1,12.2c26.8,0,53.7-0.1,80.5,0.1c3,0,3.6-0.6,3.6-3.6
			C200,182.5,200.1,148.3,200.1,114.1z M90.7,184.7c-1.2,4.4-4,5.4-8,4c2.4-1.6,4.1-4.3,7.3-4.6c0.2-0.4,0.4-0.9,0.9-0.5
			C91,183.7,90.7,184.3,90.7,184.7z M76,147.7c-0.1,1.5-0.5,2.8-2.3,1.8c-1.3-0.7-3.5,0.8-4-1c0.4-2.9,1.2-4.5,3.8-4.2
			C75.6,144.4,76.1,145.8,76,147.7z M76,128.7c-1.4,1.1-2.9,2.2-4.3,3.3c-1.2,0.9-2.4,3-4.2,1.6c-1.7-1.3-3.9-2.7-3.5-5.6
			c0.2-2.8,0.8-5.7,2.6-7.8c2-2.4,4.6-6,8.1-3.2C79.1,120.7,80.2,125.5,76,128.7z M101.4,118.3c-5-2-5.3-1.7-5.3,4.4
			c2.7,6.4-2.1,10.1-6.9,13.7c-3.2,2.4-6.4,1.3-8-2.4c-1.1-2.5-1.4-5.1-1-7.8c0.1-0.8,0.8-1.9,0.6-2.3c-4-6,1.3-9.1,4.1-12.8
			c2.3-3.1,5.6-4,9.3-1.9c1.5,0.9,3.1,1.1,4.8,1c3.5-0.4,5.7,1,6.5,4.6c0.3,1.4,2,2.8,0.7,4C104.8,119.8,103,119,101.4,118.3z
			 M115.6,168.1c-0.5,1.5-1.9,0.9-2.9,1c-0.7,0.1-1.3,0-2.2,0c-0.6,0.2-1.4,0.5-2.2,0.7c-1,0.2-1.7-0.4-1.8-1.3
			c-0.1-1.1,0.9-1.5,1.6-1.2c1.6,0.8,2.7,0.3,4-0.6c0.7-0.5,1.7-2,2.8-0.4C115.4,166.8,115.8,167.6,115.6,168.1z M161.8,159.7
			c-0.7-0.9-2.7,2.8-3.2,0c-0.4-2.1,1.8-4.7,3.5-4.8c2.3-0.1,6-6.1,7.3,1.1c0.3,1.7,3.5,1,4,3.8C169.7,160.7,165.8,165,161.8,159.7z
			 M180,181.8c-0.5,3.9-2.2,7.7-5.2,10.3c-2.1,1.8-5.8-0.1-6.8-3c-1.9-5.8-0.9-8.6,4.4-11.1c1.4-0.7,1.4-0.7,2.1-4.8
			c0.6,1.7,0.8,3.2,1.2,3.3C178.7,177,180.3,179,180,181.8z"/>
		<path class="st1" d="M76.2,170.1c1.6,1,2.6,2.7,0.9,3.9c-1.7,1.3-2.3-1-3.1-2.1C74.7,171.4,75.4,170.7,76.2,170.1z"/>
		<path class="st1" d="M91,179.2c2.9-0.1,3.7-1.7,3.2-4.3c1.7,1.8,4.3,3.1,0.3,5.8C91.7,182.5,91.7,180.5,91,179.2z"/>
		<path class="st1" d="M87.4,162.4c-4.2,2.6-3.9-0.5-4-3.1C85,160.1,86.6,160.7,87.4,162.4z"/>
		<path class="st1" d="M66,187.9c0.8,2.7-0.3,4-3,4.2C63.8,190.5,64.4,188.9,66,187.9z"/>
		<path class="st1" d="M66.1,156c-1.1,1.2-2.4,1.8-3.9,2.1C62.5,155.6,63.4,154.1,66.1,156z"/>
		<path class="st1" d="M79.7,182.7c-0.4-1.8,0.4-3,2.2-3.5C82.2,180.9,81,181.8,79.7,182.7z"/>
		<path class="st1" d="M87.9,176.2c2.5-0.5,2.7,1.4,3.1,3C90,178.2,89,177.2,87.9,176.2z"/>
		<path class="st1" d="M78.9,184.1c-1,0-1.9,0-2.9,0l0,0c0.8-1.5,2.1-1.8,3.6-1.4C79.4,183.2,79.2,183.7,78.9,184.1z"/>
		<path class="st1" d="M64.3,182.1c1.4,0.2,2.3,0.9,2.6,2.4C65.7,184.1,64.6,183.6,64.3,182.1z"/>
		<path class="st1" d="M93.2,171.1c-1.5-0.5-2-1.7-2-3.2C92.3,168.6,93.1,169.7,93.2,171.1z"/>
		<path class="st1" d="M70,153.9c0,0.7,0,1.4,0.1,2.2c-0.7,0-1.5-0.1-2.2-0.1C68.6,155.3,69.3,154.6,70,153.9z"/>
		<path class="st1" d="M75.2,152c-1.1,0-2.2,0-3.4,0C73,150.9,74.1,150.7,75.2,152z"/>
		<path class="st1" d="M70.1,164.9c0.7-0.4,1.3-0.4,2,0.1C71.4,165,70.7,165,70.1,164.9z"/>
		<path class="st1" d="M81.2,176.2c0.1-0.8,0.7-1,1.3-1C82,175.5,81.6,175.8,81.2,176.2z"/>
		<path class="st1" d="M72.8,165.2c0.4,0.3,0.9,0.7,1.3,1C73.6,165.9,73.2,165.6,72.8,165.2z"/>
		<path class="st1" d="M89.9,184c0.2-0.4,0.4-0.9,0.9-0.5c0.2,0.1-0.1,0.7-0.1,1.1C90.4,184.4,90.2,184.2,89.9,184z"/>
		<path class="st1" d="M73.9,166.1c0.4,0.4,0.7,0.8,1.1,1.1C74.7,166.9,74.3,166.5,73.9,166.1z"/>
		<path class="st2" d="M182.8,92.8c-2.5,2.3-5.3,1.1-7.8,1.3c-1.4,0.1-3.4,0.2-3.2-1.8c0.1-1.8,1.4-3.6,3.7-3
			C177.9,89.9,180.7,90.2,182.8,92.8z"/>
		<path class="st1" d="M69.9,177.3c0.4,0.6,0.8,0.9,0.9,1.3c0.1,0.6,0.1,1.4-0.8,1.3c-0.3,0-0.6-0.7-0.6-1.1
			C69.3,178.3,69.6,177.9,69.9,177.3z"/>
		<path class="st1" d="M76.1,184.1c-0.4,0.7-0.7,1.5-1.7,1.4c-0.5-0.1-0.9-0.8-0.5-1C74.4,184.1,75.3,184.2,76.1,184.1L76.1,184.1z"
			/>
		<path class="st1" d="M71.1,156.9c-0.1,0.1-0.2,0.2-0.2,0.2c-0.2-0.2-0.4-0.4-0.6-0.6c-0.3-0.4-0.2-0.6,0.2-0.2
			C70.7,156.4,70.9,156.7,71.1,156.9z"/>
	</g>
	<g>
		<path class="st0" d="M421.1,81.5c-5.9,1.8-9,5.7-9.1,12c0,1.4-0.9,2.8-1.5,4.2c-4.5,10.9-7.5,22.4-10.5,33.7
			c-0.7,2.6-2.2,5.1-3.3,7.6c-2.6-3-3.3-5.3-1.6-9.8c3.5-8.9,8-17.5,10.4-26.8c0.5-1.9,0.4-3.5,0-5.3c-1-3.7-2.1-7.4-1.6-11.5
			c0.6-4.6-3.7-9.3-8.3-10.2c-4-0.8-8.1-2.8-10.2-5.7c-4.9-7-12.2-7.6-19.4-9.3c-8.9-2.1-18.1-1.3-26.8-2.8
			c-6.2-1-11.5,0.1-17.3,0.7c-3.4,0.4-5.7,2.6-8.4,4c-3.8,1.8-7,1.1-9.4-1.6c-2.7-3,0.2-5.4,1.9-7.7c1.7-2.4,3.5-4.8,4.9-7.4
			c1.3-2.3,3.6-4.3,5.7-4.6c4.9-0.5,7.6-4.4,11.6-6.2c4.1-1.8,8.1-3.5,12.3-0.5c-0.6,1.9-2.3,0.7-3.1,1.5c-0.9,0.9-2.4,1.5-1.9,3.2
			c0.4,1.5,1.5,3.2,3,3c3.4-0.6,7-0.3,10-2.3c4-2.7,11.8-5.2,16.7-5.2c2.5,0,5,0,7.1,1.8c1.7,1.5,3.7,1.4,5.7,1
			c6.9-1.2,12.7,2.5,14.6,9.3c0.6,2.3,2.4,2,3.9,1.8c3.9-0.4,7.1,1.2,10.4,2.9c1.8,1,3.2,2.6,3.1,4.2c-0.5,8.7,4.6,13.8,11.2,17.9
			C421.1,76.2,421.1,78.8,421.1,81.5z M403.9,60.1c-2.1-2.6-4.9-2.9-7.4-3.5c-2.3-0.6-3.6,1.2-3.7,3c-0.2,2,1.8,1.9,3.2,1.8
			C398.6,61.2,401.4,62.4,403.9,60.1z"/>
		<path class="st0" d="M285.4,149.5c0.8-5.7,5.2-8,9.7-10.1c0.8,1.1,1.4,3.4,3.1,2.1c1.7-1.3,0.7-2.9-0.9-3.9
			c-0.4-1-0.8-1.9-1.1-2.9c-0.4-0.4-0.7-0.8-1.1-1.1c0,0,0.1,0.1,0.1,0.1c-0.4-0.3-0.9-0.7-1.3-1c-0.3,0.1-0.5,0-0.7-0.2
			c-0.6-0.5-1.3-0.5-2-0.1c-5.8-0.1-7.3-1.3-7.9-6.8c1.5-0.3,2.8-1,3.9-2.1c0.6,0,1.1,0,1.7,0.1c0.7,0,1.5,0.1,2.7,0.5
			c0.3,0.2,0.1-0.1-0.1-0.2c-0.4-0.3-0.6-0.2-0.2,0.2c0.2,0.2,0.4,0.4,0.6,0.6c0.1-0.1,0.2-0.2-0.2-0.6c-0.5-1.1-0.5-1.8-0.6-2.5
			c0.1-1.1,0.7-1.8,1.9-1.9c1.1,0,2.3,0,3.4,0c5-0.2,6.1,4.1,8.2,7.2c0,2.7-0.3,5.8,4,3.1c1.1,1.9,3.3,3.1,3.7,5.5
			c0,1.5,0.6,2.6,2,3.2c1.2,1,0.8,2.5,1,3.8c0.5,2.6-0.3,4.2-3.2,4.3l0,0c-0.4-1.7-0.5-3.5-3.1-3c-2.2,1.6-3.6-1-5.5-1.1
			c-0.6,0.1-1.2,0.2-1.3,1c0.2,1,0.5,2,0.7,3c-1.7,0.6-2.5,1.7-2.2,3.5l-0.1,0.1c-1.5-0.4-2.8-0.2-3.6,1.4c-0.8,0.1-1.6,0-2.2,0.4
			c-0.4,0.2,0,0.9,0.5,1c1,0.1,1.4-0.6,1.7-1.4c1,0,1.9,0,2.9,0c0,2.5,1.1,4.1,3.7,4.5c0,0,0,0,0,0c-3,4.4-1.7,6.6,3.1,8.7
			c4.2,1.8,1,5.8,0.6,8.8c-0.2,1.2-2,2.2-0.7,3.5c1.3,1.2,2.8,0.5,4-0.6c3.6-3.2,9-2.6,12.4-6.4c1.1-1.3,2.5,1.2,3.8,1.5
			c1.5,0.3,2.5,3.2,4.2,1.3c1.5-1.8,3.6-3.6,2.6-6.6c-0.4-1.2-2.7-2.2-0.4-3.7c1.4-0.9,2.6-0.8,4.2-0.2c5,2,7.6-0.2,6.9-5.7
			c-0.3-1.8-0.3-2.9,1.8-3.1c1.5-0.1,2.6-1,2.7-2.5c0.2-3.5,2.6-3.1,4.9-2.9c0.8,2.4,2.7,3.2,5,3.4c5.2,9,2.4,16.8-7.8,21.5
			c-1.6,0.8-3.2,2-4.9,2.2c-7.3,1-8.2,6.6-9.1,12.2c-14.7,0-29.3,0-44,0c-0.3-0.4-0.5-1-0.9-1.1c-10.4-3.2-9.4-11.5-9.2-19.7
			c0.1-2.5-1.7-5.1,1.1-7.2c2.7-0.2,3.8-1.5,3-4.2c0.3-1.1,0.6-2.3,1-3.4C287.7,150.4,286.8,149.7,285.4,149.5z M290.9,144.7
			c-0.3,0.6-0.6,1-0.6,1.4c0,0.4,0.3,1.1,0.6,1.1c0.9,0.1,1-0.6,0.8-1.3C291.7,145.6,291.3,145.2,290.9,144.7z"/>
		<path class="st1" d="M358.9,151.5c-2.3-0.2-4.2-1-5-3.4c0.2-2.9,0.9-5.7-2.6-7.7c-2-1.1-1.2-3.9-1.2-6.1c0-2.1,0-4.2,0-6.2
			c-1-0.1-1.5-0.2-1.5-0.1c-2.3,6-7.5,1.4-11,3c-0.1,0.1-1-0.9-1.1-1.4c-0.2-0.9,0.6-1.8,1.3-1.8c3.3-0.1,5.9-0.6,5.7-4.8
			c0-0.3,0.6-1,1-1c2.1,0,4.9,0.5,5.2-2.1c0.4-3.7,1.9-7.3,1.1-11.2c-0.7-3.9,0.5-8.1-1.3-12c-0.5-1.1,1-2,1.8-2.8
			c0.8-0.9,1.8-1.6,1.8-2.9c0-1.4-1.7-2.9,0.3-4c1.1-0.6,2.1,0.5,2.9,1.3c1.7,1.6,0.6,2.9-0.8,4c5.8,4.5,13,3.1,19.2,5.6
			c0.5,0.2,3.4-1.7,5.5-0.4c0.9,0.5,1.9,1.1,1.5,2.2c-0.3,1-1.4,0.8-2.1,0.7c-4.1-0.4-7.6,2-11.6,2.4c-2.6,0.3-5,2.3-5.7,5
			c-1.1,4-3,7.6-5,11.3c-1.7,3.2-0.8,6.5,0,9.7C359.2,136.3,357.1,144,358.9,151.5z"/>
		<path class="st1" d="M317.2,90.1c2.7,6.4-2.1,10.1-6.9,13.7c-3.2,2.4-6.4,1.3-8-2.4c-1.1-2.5-1.4-5.1-1-7.8
			c0.1-0.8,0.8-1.9,0.6-2.3c-4-6,1.3-9.1,4.1-12.8c2.3-3.1,5.6-4,9.3-1.9c1.5,0.9,3.1,1.1,4.8,1c3.5-0.4,5.7,1,6.5,4.6
			c0.3,1.4,2,2.8,0.7,4c-1.3,1.2-3.1,0.3-4.7-0.3C317.6,83.7,317.2,84,317.2,90.1z"/>
		<path class="st1" d="M285.1,95.5c0.2-2.8,0.8-5.7,2.6-7.8c2-2.4,4.6-6,8.1-3.2c4.4,3.6,5.4,8.4,1.3,11.6c-1.4,1.1-2.9,2.2-4.3,3.3
			c-1.2,0.9-2.4,3-4.2,1.6C286.9,99.7,284.8,98.3,285.1,95.5z"/>
		<path class="st1" d="M395.5,140.7c0.6,1.7,0.8,3.2,1.2,3.3c3.1,0.5,4.8,2.5,4.4,5.3c-0.5,3.9-2.2,7.7-5.2,10.3
			c-2.1,1.8-5.8-0.1-6.8-3c-1.9-5.8-0.9-8.6,4.4-11.1C394.8,144.8,394.8,144.8,395.5,140.7z"/>
		<path class="st1" d="M394.5,127.2c-3.7,0.9-7.6,5.2-11.6-0.1c-0.7-0.9-2.7,2.8-3.2,0c-0.4-2.1,1.8-4.7,3.5-4.8
			c2.3-0.1,6-6.1,7.3,1.1C390.8,125.1,394,124.5,394.5,127.2z"/>
		<path class="st1" d="M290.8,115.8c0.4-2.9,1.2-4.5,3.8-4.2c2.1,0.2,2.6,1.6,2.5,3.5c-0.1,1.5-0.5,2.8-2.3,1.8
			C293.5,116.1,291.3,117.6,290.8,115.8z"/>
		<path class="st1" d="M331.6,136.5c-0.6,0.2-1.4,0.5-2.2,0.7c-1,0.2-1.7-0.4-1.8-1.3c-0.1-1.1,0.9-1.5,1.6-1.2
			c1.6,0.8,2.7,0.3,4-0.6c0.7-0.5,1.7-2,2.8-0.4c0.4,0.5,0.7,1.3,0.6,1.8c-0.5,1.5-1.9,0.9-2.9,1
			C333.1,136.6,332.5,136.5,331.6,136.5z"/>
		<path class="st1" d="M311.8,152c-1.2,4.4-4,5.4-8.1,3.9c0,0,0,0,0,0c2.4-1.6,4.1-4.3,7.3-4.7C311.3,151.6,311.5,151.8,311.8,152z"
			/>
		<path class="st1" d="M297.2,137.5c1.6,1,2.6,2.7,0.9,3.9c-1.7,1.3-2.3-1-3.1-2.1C295.8,138.7,296.5,138.1,297.2,137.5z"/>
		<path class="st1" d="M312,146.6c2.9-0.1,3.7-1.7,3.2-4.3c1.7,1.8,4.3,3.1,0.3,5.8C312.7,149.9,312.8,147.9,312,146.6z"/>
		<path class="st1" d="M308.5,129.8c-4.2,2.6-3.9-0.5-4-3.1C306.1,127.5,307.7,128,308.5,129.8z"/>
		<path class="st1" d="M287,155.3c0.8,2.7-0.3,4-3,4.2C284.8,157.9,285.5,156.3,287,155.3z"/>
		<path class="st1" d="M287.2,123.3c-1.1,1.2-2.4,1.8-3.9,2.1C283.6,123,284.5,121.5,287.2,123.3z"/>
		<path class="st1" d="M300.8,150c-0.4-1.8,0.4-3,2.2-3.5C303.3,148.3,302.1,149.2,300.8,150z"/>
		<path class="st1" d="M309,143.5c2.5-0.5,2.7,1.4,3.1,3C311.1,145.6,310,144.6,309,143.5z"/>
		<path class="st1" d="M300,151.5c-1,0-1.9,0-2.9,0l0,0c0.8-1.5,2.1-1.8,3.6-1.4C300.5,150.6,300.3,151,300,151.5z"/>
		<path class="st1" d="M285.4,149.5c1.4,0.2,2.3,0.9,2.6,2.4C286.8,151.4,285.7,150.9,285.4,149.5z"/>
		<path class="st1" d="M314.3,138.4c-1.5-0.5-2-1.7-2-3.2C313.4,136,314.2,137,314.3,138.4z"/>
		<path class="st1" d="M291.1,121.3c0,0.7,0,1.4,0.1,2.2c-0.7,0-1.5-0.1-2.2-0.1C289.6,122.7,290.4,122,291.1,121.3z"/>
		<path class="st1" d="M296.3,119.4c-1.1,0-2.2,0-3.4,0C294.1,118.3,295.2,118.1,296.3,119.4z"/>
		<path class="st1" d="M291.2,132.3c0.7-0.4,1.3-0.4,2,0.1C292.5,132.4,291.8,132.3,291.2,132.3z"/>
		<path class="st1" d="M302.3,143.5c0.1-0.8,0.7-1,1.3-1C303.1,142.8,302.7,143.2,302.3,143.5z"/>
		<path class="st1" d="M293.9,132.6c0.4,0.3,0.9,0.7,1.3,1C294.7,133.3,294.3,132.9,293.9,132.6z"/>
		<path class="st1" d="M311,151.4c0.2-0.4,0.4-0.9,0.9-0.5c0.2,0.1-0.1,0.7-0.1,1.1C311.5,151.8,311.3,151.6,311,151.4z"/>
		<path class="st1" d="M295,133.5c0.4,0.4,0.7,0.8,1.1,1.1C295.7,134.3,295.4,133.9,295,133.5z"/>
		<path class="st1" d="M290.9,144.7c0.4,0.6,0.8,0.9,0.9,1.3c0.1,0.6,0.1,1.4-0.8,1.3c-0.3,0-0.6-0.7-0.6-1.1
			C290.3,145.7,290.7,145.3,290.9,144.7z"/>
		<path class="st1" d="M297.1,151.5c-0.4,0.7-0.7,1.5-1.7,1.4c-0.5-0.1-0.9-0.8-0.5-1C295.5,151.5,296.4,151.6,297.1,151.5
			L297.1,151.5z"/>
		<path class="st1" d="M292.1,124.2c-0.1,0.1-0.2,0.2-0.2,0.2c-0.2-0.2-0.4-0.4-0.6-0.6c-0.3-0.4-0.2-0.6,0.2-0.2
			C291.8,123.8,291.9,124,292.1,124.2z"/>
	</g>
	<g>
		<path class="st2" d="M514.2,220.1c-23,0-46,0-69,0.1c-2.5,0-3.1-0.6-3.1-3.1c0.1-71.3,0.1-142.7,0-214c0-2.5,0.6-3.1,3.1-3.1
			c64.7,0.1,129.3,0.1,194-0.1c3.4,0,3,1.4,3,3.6c0,34.2,0,68.3,0,102.5c-6.7-4.1-11.7-9.2-11.2-17.9c0.1-1.7-1.3-3.3-3.1-4.2
			c-3.3-1.7-6.5-3.3-10.4-2.9c-1.5,0.2-3.3,0.4-3.9-1.8c-1.9-6.8-7.7-10.5-14.6-9.3c-2,0.3-3.9,0.4-5.7-1c-2-1.8-4.5-1.8-7.1-1.8
			c-4.9,0.1-12.7,2.6-16.7,5.2c-3,2-6.6,1.7-10,2.3c-1.4,0.2-2.5-1.5-3-3c-0.5-1.6,1-2.3,1.9-3.2c0.8-0.8,2.6,0.3,3.1-1.5
			c-4.2-3-8.3-1.4-12.3,0.5c-4,1.8-6.7,5.6-11.6,6.2c-2.1,0.2-4.3,2.2-5.7,4.6c-1.5,2.6-3.2,5-4.9,7.4c-1.7,2.4-4.6,4.7-1.9,7.7
			c2.4,2.7,5.7,3.5,9.4,1.6c2.8-1.4,5.1-3.6,8.4-4c5.8-0.7,11.1-1.7,17.3-0.7c8.8,1.4,17.9,0.7,26.8,2.8c7.1,1.7,14.4,2.3,19.4,9.3
			c2.1,2.9,6.2,4.9,10.2,5.7c4.6,1,8.9,5.6,8.3,10.2c-0.5,4.1,0.6,7.7,1.6,11.5c0.5,1.8,0.5,3.4,0,5.3c-2.4,9.3-6.9,17.9-10.4,26.8
			c-1.7,4.4-1,6.8,1.6,9.8c1.1-2.6,2.6-5,3.3-7.6c3.1-11.4,6-22.8,10.5-33.7c0.6-1.4,1.5-2.8,1.5-4.2c0.1-6.3,3.1-10.2,9.1-12
			c0,34.2,0,68.3,0.1,102.5c0,3-0.6,3.6-3.6,3.6c-26.8-0.1-53.7-0.1-80.5-0.1c1-5.6,1.9-11.2,9.1-12.2c1.7-0.2,3.3-1.5,4.9-2.2
			c10.1-4.7,13-12.5,7.8-21.5c-1.8-7.5,0.2-15.2-1.8-22.7c-0.9-3.2-1.7-6.4,0-9.7c1.9-3.6,3.9-7.2,5-11.3c0.7-2.7,3.1-4.7,5.7-5
			c4-0.4,7.5-2.8,11.6-2.4c0.8,0.1,1.8,0.2,2.1-0.7c0.4-1.2-0.6-1.7-1.5-2.2c-2.1-1.3-4.9,0.6-5.5,0.4c-6.1-2.5-13.4-1.1-19.2-5.6
			c1.4-1,2.4-2.4,0.8-4c-0.8-0.7-1.7-1.9-2.9-1.3c-2,1-0.3,2.6-0.3,4c0,1.3-1,2-1.8,2.9c-0.8,0.8-2.3,1.7-1.8,2.8
			c1.8,3.9,0.6,8.1,1.3,12c0.7,4-0.7,7.5-1.1,11.2c-0.3,2.6-3.1,2.2-5.2,2.1c-0.3,0-1,0.7-1,1c0.2,4.2-2.4,4.7-5.7,4.8
			c-0.8,0-1.5,0.9-1.3,1.8c0.1,0.5,1,1.5,1.1,1.4c3.5-1.6,8.7,3.1,11-3c0-0.1,0.6,0,1.5,0.1c0,2,0,4.1,0,6.2c0,2.1-0.7,5,1.2,6.1
			c3.5,2,2.8,4.8,2.6,7.7c-2.3-0.2-4.7-0.6-4.9,2.9c-0.1,1.5-1.2,2.3-2.7,2.5c-2.2,0.2-2.1,1.2-1.8,3.1c0.8,5.5-1.9,7.6-6.9,5.7
			c-1.6-0.6-2.8-0.7-4.2,0.2c-2.3,1.5,0,2.5,0.4,3.7c1,2.9-1.1,4.8-2.6,6.6c-1.7,1.9-2.7-0.9-4.2-1.3c-1.4-0.3-2.7-2.8-3.8-1.5
			c-3.4,3.8-8.9,3.2-12.4,6.4c-1.2,1.1-2.7,1.8-4,0.6c-1.3-1.2,0.5-2.3,0.7-3.5c0.4-3,3.5-7-0.6-8.8c-4.9-2.1-6.1-4.3-3.1-8.7
			c4.1,1.5,6.9,0.5,8.1-3.9c0.1-0.4,0.3-1,0.1-1.1c-0.4-0.4-0.7,0-0.9,0.5c-3.2,0.4-4.9,3.1-7.3,4.7c-2.5-0.4-3.6-2-3.7-4.5
			c0.2-0.5,0.5-0.9,0.7-1.4l0.1-0.1c1.3-0.9,2.5-1.7,2.2-3.5c-0.2-1-0.5-2-0.7-3c0.4-0.3,0.9-0.7,1.3-1c1.9,0,3.3,2.7,5.5,1.1
			c1,1,2,2,3.1,3l0,0c0.8,1.4,0.7,3.3,3.5,1.5c4-2.6,1.4-4-0.3-5.8c-0.2-1.3,0.3-2.8-1-3.8c-0.1-1.4-0.9-2.4-2-3.2
			c-0.5-2.4-2.7-3.5-3.7-5.5c-0.8-1.7-2.4-2.3-4-3.1c-2.1-3.1-3.2-7.4-8.2-7.2c-1.1-1.3-2.2-1.2-3.4,0c-1.2,0.1-1.8,0.8-1.9,1.9
			c-0.7,0.7-1.4,1.4-2.2,2.1c-0.6,0-1.1,0-1.7-0.1c-2.7-1.8-3.6-0.4-3.9,2.1c0.6,5.5,2,6.8,7.9,6.8c0.7,0,1.3,0,2,0.1
			c0.2,0.2,0.5,0.3,0.7,0.2c0.4,0.3,0.9,0.7,1.3,1l-0.1-0.1c0.4,0.4,0.7,0.8,1.1,1.1c0.4,1,0.8,1.9,1.1,2.9
			c-0.7,0.6-1.4,1.2-2.2,1.9c-4.5,2.2-8.8,4.5-9.7,10.1c0.3,1.5,1.4,2,2.6,2.4c-0.3,1.1-0.6,2.3-1,3.4c-1.5,1-2.2,2.7-3,4.2
			c-2.8,2.1-1,4.7-1.1,7.2c-0.2,8.2-1.2,16.5,9.2,19.7C513.7,219.1,513.9,219.7,514.2,220.1z M538.3,122.8c0-6.1,0.4-6.4,5.3-4.4
			c1.6,0.6,3.4,1.5,4.7,0.3c1.3-1.2-0.4-2.6-0.7-4c-0.8-3.6-3-4.9-6.5-4.6c-1.7,0.2-3.3-0.1-4.8-1c-3.6-2.1-7-1.1-9.3,1.9
			c-2.8,3.7-8,6.8-4.1,12.8c0.3,0.5-0.4,1.5-0.6,2.3c-0.4,2.7-0.1,5.3,1,7.8c1.6,3.7,4.8,4.8,8,2.4
			C536.2,132.9,541,129.1,538.3,122.8z M506.2,128.1c-0.4,2.8,1.8,4.2,3.5,5.6c1.8,1.4,2.9-0.7,4.2-1.6c1.4-1.1,2.9-2.2,4.3-3.3
			c4.2-3.2,3.1-8-1.3-11.6c-3.5-2.9-6.1,0.8-8.1,3.2C507,122.4,506.5,125.3,506.2,128.1z M616.6,173.3c-0.7,4.1-0.7,4.1-2.1,4.8
			c-5.2,2.5-6.3,5.3-4.4,11.1c1,3,4.7,4.8,6.8,3c3-2.7,4.7-6.4,5.2-10.3c0.4-2.8-1.3-4.8-4.4-5.3C617.3,176.5,617.1,175,616.6,173.3
			z M615.6,159.8c-0.5-2.7-3.7-2.1-4-3.8c-1.4-7.2-5.1-1.2-7.3-1.1c-1.7,0.1-3.9,2.7-3.5,4.8c0.6,2.8,2.6-0.9,3.2,0
			C608,165,611.9,160.7,615.6,159.8z M511.9,148.4c0.5,1.8,2.8,0.3,4,1c1.8,1,2.2-0.3,2.3-1.8c0.1-1.9-0.5-3.2-2.5-3.5
			C513.1,143.9,512.3,145.6,511.9,148.4z M552.7,169.1c0.9,0,1.5,0.1,2.2,0c1.1-0.1,2.5,0.5,2.9-1c0.2-0.5-0.2-1.3-0.6-1.8
			c-1.1-1.6-2.1-0.1-2.8,0.4c-1.3,0.9-2.4,1.4-4,0.6c-0.7-0.4-1.7,0.1-1.6,1.2c0.1,0.9,0.8,1.5,1.8,1.3
			C551.3,169.6,552.1,169.3,552.7,169.1z"/>
		<path class="st2" d="M625,92.8c-2.5,2.3-5.3,1.1-7.8,1.3c-1.4,0.1-3.4,0.2-3.2-1.8c0.1-1.8,1.4-3.6,3.7-3
			C620.1,89.9,622.8,90.2,625,92.8z"/>
	</g>
</g>
<g>
</g>
<g>
</g>
<g>
</g>
<g>
</g>
<g>
</g>
<g>
</g>
<g>
</g>
<g>
</g>
<g>
</g>
<g>
</g>
<g>
</g>
<g>
</g>
<g>
</g>
<g>
</g>
<g>
</g>
</svg>
