<?xml version="1.0" encoding="utf-8"?>
<!-- Generator: Adobe Illustrator 17.1.0, SVG Export Plug-In . SVG Version: 6.00 Build 0)  -->
<!DOCTYPE svg PUBLIC "-//W3C//DTD SVG 1.1//EN" "http://www.w3.org/Graphics/SVG/1.1/DTD/svg11.dtd">
<svg version="1.1" id="Layer_1" xmlns="http://www.w3.org/2000/svg" xmlns:xlink="http://www.w3.org/1999/xlink" x="0px" y="0px"
	 viewBox="0 0 610.3 256" style="enable-background:new 0 0 610.3 256;" xml:space="preserve">
<style type="text/css">
	.st0{fill:#010000;}
	.st1{fill:#FB0001;}
	.st2{fill:#F40203;}
</style>
<g>
	<g>
		<path class="st0" d="M87.1,0.1c36.5,0,73,0,109.5-0.1c3,0,3.6,0.6,3.6,3.6c-0.1,82.7-0.1,165.3,0,248c0,3-0.6,3.6-3.6,3.6
			c-57.2-0.1-114.3-0.1-171.5-0.1c-1.3-5.4-0.2-10.7,0.3-16.1c0.2-2.1-0.2-2.8-2-2.8c-2-0.1-4-0.2-5.9,0.3
			c-5.9,1.7-11.6,3.7-17.4,5.6c0-79.2,0-158.4-0.1-237.6C0,0.6,1.1-0.1,4.7,0C18.8,0.2,33,0.1,47.1,0.1c-0.1,27.7,0,55.4-0.9,83.1
			c-0.7,24.5,0.3,49.1-1.1,73.6c-0.1,2.2-0.2,4.3-1.6,6.1c-2.3,3.2-0.7,4,2.4,4.2c3.9,0.2,7.4-1.8,11.2-2.1c1.8,2.2,6.2,1.7,6.2,1.5
			c0.3-5.5,3.8,0.5,4.8-1.5c0.4-0.8,1.2-1.7,0.5-2.7c-0.9-1.3-0.9-3.2-2.6-4c-1-1.4-3.9-0.7-3.8-3.3c0.1-2.6,2.6-3,4.2-3.7
			c4.7-2,9.4-4.2,13.4-7.3c2.8-2.2,8.7-3.1,5.7-9.1c-0.9-1.8-1-3.8-1.6-5.6c-1.3-3.7-2.5-8-5.2-10.4c-2.6-2.3-4.3-4.5-4.9-7.5
			c-1-5.5-3.6-10.3-5.6-15.3c-4-10.1-5.1-20.1,1.9-29.7c1.3-1.8,2.2-4.7,0-6.4c-2.3-1.8-1.2-3.6-0.7-5.2c2.9-8.7,6.7-16.9,12.3-24.2
			c3.7-4.8,6.1-10.1,5.4-16.6C86.7,9.5,87.1,4.8,87.1,0.1z M108.8,93.6l-0.1-0.1c0.5,0.2,0.9,0.4,1.4,0.5c4.9,2.9,5.2,5.1,1.4,9.3
			c-0.8,0.8-2.9,1.8-1.6,2.9c3.3,2.8-0.1,3-1.2,4.1c-0.8,0.8-2.7,1.3-1.9,2.9c0.7,1.3,1.9,2.4,3.7,1.3c1.1-0.6,2.6-0.5,2.9,0.8
			c0.3,0.9-0.1,2.3-0.7,3.2c-0.6,0.9-1.8,1.4-2.6,2.3c-1.6,1.7-1.2,3.6-0.5,5.5c0.9,2.6,1.9,0.3,2.8,0.2c4.1-0.2,6.3,3,4.4,6.6
			c-0.7,1.3-1.9,2.3-2.8,3.5c-3.3,4.3-8.6,6.2-12.2,10.1c-7.6,8.4-17.4,10.4-28.1,8.6c-3.7-0.6-4.3,1.4-4,4c0.3,2,0.7,4.1,2.5,5.8
			c2.9,2.8,4.4,6.3,4.3,10.5c-0.1,2.2,0.9,4.4,2.5,6.3c4.9,5.6,10.2,10.9,14.5,16.9c4.8,6.8,12,8.4,19.1,8.8
			c3.7,0.2,7.9-1.9,11.9-2.7c8.4-1.8,16.6-5.7,21.6-12.1c10.2-12.8,18.2-27.2,23.3-43.1c1-3.1,0.9-5.5-1.4-7.7
			c-0.6-3.4-2.7-2.7-4.9-1.8c-0.7-0.1-1.3-0.2-2-0.4c-0.7-1.1-2-0.7-3-1c-0.7-0.9-1.4-1.9-2.2-2.8c0.2-0.2,0.2-0.5,0.2-0.8
			c1-0.5,1.9-0.9,2.9-1.4c0.2-0.1,0.5-0.1,0.7-0.2c-0.2-0.3-0.4-0.6-0.6-0.8c-0.4-1.9-0.8-3.8-1.3-5.8c0-0.7-0.1-1.4-0.1-2.2
			c0.1-0.4-0.1-0.6-0.5-0.7c-0.3-0.5-0.7-1-1-1.6l0.3-0.2c0.3-4.4,3.1-8.1,2.6-12.9c-0.5-4.9-3.5-9.6-1.5-14.9c0.3-0.8-0.6-3-2-3.1
			c-1.7-0.1-1.5,1.7-1.7,2.9c-1.2,7.2-4.2,13.3-10.2,17.9c-2.2,1.6-2.9,4.9-1.2,6.7c3.3,3.6,3.3,7.7,3.5,11.9c-1.1,1.3-2,0.5-3-0.1
			c-0.3-0.4-0.6-0.8-0.9-1.1c0-0.3-0.1-0.6-0.3-0.8c-0.2-0.4-0.4-0.8-0.7-1.2c-0.1-0.9-0.2-1.8-0.2-2.7c0-0.7-0.1-1.3-0.1-2
			c-2.1-6.7-1.3-13.2,0-20.1c1.4-7.9,5-15.8,2.4-24.2c-2.7-8.6-3.5-18.1-13-22.8c-0.7-1.3-1.7-2.3-3.1-3l0,0c-0.3-0.4-0.7-0.8-1-1.2
			c-0.1-1.2-0.2-2.5-0.2-3.7c0-2.4,1-4.9-0.7-7.1l0,0.1c-0.1-0.7-0.1-1.3-0.2-2c0.2-0.2,0.3-0.4,0.2-0.7c7.2-4.4,13.4-1.6,19.3,2.8
			c1,0.8,1.3,3.4,3,2c1.4-1.1,0-3-1-3.8c-6.7-5.7-12.8-12.5-21.8-14.9l-0.3,0c-0.5-0.1-0.9-0.1-1.4-0.2c-1.6-0.8-3.2-1.5-4.8-2.3
			c-0.4-2.3-2.3-3.8-4.1-3.4c-2.3,0.4-0.8,3-1.2,4.5c-0.1,0.3,0.1,0.6,0.1,1c-0.4,0.4-0.7,0.8-1.1,1.2c-2.8,0.4-5.5,1.1-4.9,4.9
			c0,1,0,2,0,3c-0.1,0.6-0.2,1.3-0.3,1.9c-0.4,0.7-0.7,1.3-1.1,2c-0.5,0.3-0.5,0.8,0,0.9c0.9,0.3,1.8,0.1,2.4-0.8l0.4,0l0.4-0.2
			l0.5,0.1l0.5-0.1c0.7,0,1.4,0,2,0c0.3,0,0.7,0,1,0c0.3,0.2,0.6,0.3,0.9,0.3c0.3,0.3,0.7,0.6,1,0.9c0.7,1,1.5,2,2.2,2.9
			c0.3,0.4,0.5,0.7,0.8,1.1l0,0c0.3,0.4,0.7,0.8,1,1.2c-1.2,5.2-5.3,6.7-9.3,2.5c-3.7-4-6.8-3.1-11.3-2.3c-4.3,0.8-5.6,2.9-6.5,6.6
			c-0.6,2.6-0.3,5,0.4,7.2c1.4,4.4,2.5,8.5,0.8,13.1c-0.6,1.6,0.4,2.9,1.7,3.9c1.4,1.1,2-0.5,2.9-1c3.3-2,6.8-1.2,10.2-1
			c1.6,0.1,3.4,1.8,2.9,3.4c-0.9,2.6,0.8,4.9,0.1,7.3c-0.4,0.6-0.8,1.3-1.2,1.9c-0.5,0-1,0-1.4,0.1c-0.7-0.5-1.4-0.9-2.1-1.4
			c-0.1-3-2-2.7-4.1-2.3c-1,0.2-1.7,0.7-2.1,1.7c-0.3,0.4-0.6,0.7-0.9,1.1c-0.3,0.3-0.5,0.6-0.8,1c-0.4,0.4-0.8,0.7-1.2,1.1
			c-0.3-0.1-0.7,0-1,0.1c-0.8,0-1.6,0-2.4,0c-3.5,2.4-3.6,4.6-0.4,8.6c2.3-0.2,4.5,1.4,6.8,0.3c2.4-1,2.9-3.8,4.9-5.2
			c0.3-0.1,0.5-0.2,0.8-0.3c-0.1-0.1-0.2-0.2-0.3-0.3l0.2,0c0.8,0.9,1.7,1.8,2.5,2.8C108.4,92.6,108.6,93.1,108.8,93.6z M154.1,67.2
			c-0.1-1.5-0.6-2.9-2.2-2.7c-1.8,0.2-2,1.9-1.9,3.4c0.1,1.3,0.3,3,2,2.7C153.7,70.3,153.8,68.5,154.1,67.2z"/>
		<path class="st1" d="M57.1,165c-3.8,0.4-7.3,2.3-11.2,2.1c-3.1-0.2-4.7-1-2.4-4.2c1.3-1.8,1.5-3.9,1.6-6.1
			c1.4-24.5,0.4-49.1,1.1-73.6c0.8-27.7,0.7-55.4,0.9-83.1c13.3,0,26.7,0,40,0c0,4.7-0.4,9.4,0.1,14c0.6,6.5-1.7,11.8-5.4,16.6
			c-5.6,7.3-9.5,15.5-12.3,24.2c-0.5,1.6-1.6,3.4,0.7,5.2c2.1,1.7,1.3,4.6,0,6.4C63,75.9,64.1,86,68.2,96c2,5.1,4.6,9.8,5.6,15.3
			c0.5,3,2.3,5.3,4.9,7.5c2.7,2.4,3.9,6.7,5.2,10.4c0.6,1.8,0.7,3.8,1.6,5.6c3.1,6-2.8,6.9-5.7,9.1c-4,3.1-8.7,5.3-13.4,7.3
			c-1.6,0.7-4.1,1-4.2,3.7c-0.1,2.6,2.8,1.8,3.8,3.3C64.6,162.6,59.1,161.4,57.1,165z"/>
		<path class="st1" d="M0.1,242.1c5.8-1.9,11.6-3.9,17.4-5.6c1.8-0.5,3.9-0.4,5.9-0.3c1.7,0.1,2.2,0.7,2,2.8
			c-0.5,5.3-1.6,10.7-0.3,16.1c-7.5,0-15-0.1-22.5,0.1c-2.2,0-2.7-0.4-2.6-2.6C0.3,249.1,0.1,245.6,0.1,242.1z"/>
		<path class="st1" d="M105.9,37c0.4-0.7,0.7-1.3,1.1-2c0.6-0.6,0.7-1.2,0.3-1.9c0-1,0-2,0-3c2.6-0.6,5-1.5,4.9-4.9
			c0.4-0.4,0.7-0.8,1.1-1.2c1.4-1.5,3.2-2,5.2-2.1c1.6,0.8,3.2,1.5,4.8,2.3c0.5,0.1,0.9,0.1,1.4,0.2l0.3,0c-1,2.2-2.2,4.3-0.5,6.6
			c0,0.9,0.1,1.9,0.1,2.8c-4.9,2.5-0.2,3.1,0.8,4.5c0.1,0.3,0,0.5-0.2,0.7c-1.4,0.8-0.6,1.4,0.2,2l0-0.1c0.4,2.4-2.2,5,0.7,7.1
			c0.1,1.2,0.2,2.5,0.2,3.7c0.3,0.4,0.7,0.8,1,1.2l0,0c0.1,1.9,1.2,2.9,3.1,3c9.5,4.7,10.3,14.2,13,22.8c2.6,8.5-0.9,16.3-2.4,24.2
			c-1.2,6.9-2,13.4,0,20.1c-0.6,0.7-1.2,1.3-1.7,2l0,0c0.6,0,1.2,0,1.8,0c0.1,0.9,0.2,1.8,0.2,2.7c0.2,0.4,0.4,0.8,0.7,1.2
			c0.3,0.2,0.4,0.5,0.3,0.8c0,0.6,0.2,1.1,0.9,1.1c1,0.6,2,1.4,3,0.1c1.4-0.2,2.4-0.9,2.8-2.3c0.3-0.6,0.7-1.1,1-1.7
			c0.1-0.8,0.3-1.5,0.4-2.3l-0.1-0.3c2.4,0.4,4.3-1,6.3-1.9c0,0-0.3,0.2-0.3,0.2c0.3,0.5,0.7,1,1,1.6c0.4,0.1,0.5,0.3,0.5,0.7
			c-5.1,0.5-4.5,4.7-5.2,8c-0.7,3.1,0.6,3.9,3.4,3.1c0.7,0.9,1.4,1.9,2.2,2.8c0.2,1.1-0.5,2.6,1.1,2.9c1.1,0.2,1.4-1.1,1.9-1.9
			c0.7,0.1,1.3,0.2,2,0.4c1.3,1.6,3,1.8,4.9,1.8c2.2,2.3,2.3,4.7,1.4,7.7c-5.1,15.8-13.1,30.2-23.3,43.1c-5,6.3-13.2,10.3-21.6,12.1
			c-4,0.9-8.2,3-11.9,2.7c-7.1-0.5-14.2-2.1-19.1-8.8c-4.3-6-9.6-11.4-14.5-16.9c-1.6-1.8-2.6-4-2.5-6.3c0.1-4.2-1.3-7.7-4.3-10.5
			c-1.8-1.7-2.2-3.7-2.5-5.8c-0.3-2.7,0.3-4.6,4-4c10.8,1.8,20.5-0.2,28.1-8.6c3.6-4,8.9-5.9,12.2-10.1c0.9-1.2,2.1-2.2,2.8-3.5
			c1.9-3.6-0.3-6.9-4.4-6.6c-1,0.1-2,2.4-2.8-0.2c-0.7-2-1.1-3.9,0.5-5.5c0.8-0.8,2-1.3,2.6-2.3c0.6-0.9,0.9-2.2,0.7-3.2
			c-0.4-1.3-1.8-1.5-2.9-0.8c-1.8,1-3-0.1-3.7-1.3c-0.8-1.6,1.1-2,1.9-2.9c1.1-1.2,4.5-1.4,1.2-4.1c-1.3-1.1,0.8-2.1,1.6-2.9
			c3.8-4.1,3.5-6.3-1.4-9.3c-0.5-0.2-0.9-0.4-1.4-0.5c0,0,0.1,0.1,0.1,0.1c-0.2-0.5-0.4-1-0.6-1.4c-0.8-0.9-1.7-1.8-2.5-2.8
			c0-0.3,0-0.6,0-0.9c-0.1,0.3-0.1,0.6-0.2,0.9c0.1,0.1,0.2,0.2,0.3,0.3c-0.3,0.1-0.5,0.2-0.8,0.3c-2.5-0.1-4.5-4.7-7.4-1.4
			c-2.8,3.2,2.3,4.1,2.5,6.6c-2.3,1-4.5-0.5-6.8-0.3c1.9-2.8-0.1-5.7,0.4-8.6c0.8,0,1.6,0,2.4,0c0.3,0,0.6-0.1,1-0.1
			c0.4-0.4,0.8-0.7,1.2-1.1c0.3-0.3,0.5-0.6,0.8-1c0.3-0.4,0.6-0.7,0.9-1.1c1-0.2,1.7-0.8,2.1-1.7c2-0.4,4-0.7,4.1,2.3
			c0.7,0.5,1.4,0.9,2.1,1.4c0.5,0,1,0,1.4-0.1c1.1-0.2,1.8-0.6,1.2-1.9c0.7-2.4-1-4.7-0.1-7.3c0.6-1.6-1.2-3.3-2.9-3.4
			c-3.4-0.2-6.9-1-10.2,1c-0.8,0.5-1.4,2.1-2.9,1c-1.2-1-2.2-2.3-1.7-3.9c1.7-4.5,0.6-8.7-0.8-13.1c-0.7-2.2-1-4.6-0.4-7.2
			c0.9-3.7,2.1-5.8,6.5-6.6c4.4-0.8,7.5-1.7,11.3,2.3c4,4.2,8.1,2.7,9.3-2.5c-0.3-0.4-0.7-0.8-1-1.2l0,0c-0.3-0.4-0.5-0.7-0.8-1.1
			c-0.7-1-1.5-2-2.2-2.9c-0.1-0.6-0.3-1-1-0.9c-0.3,0-0.6-0.1-0.9-0.3c-0.3,0-0.7,0-1,0c-0.7,0-1.4,0-2,0c-0.3,0-0.6,0-1,0.1
			l-0.4,0.2l-0.4,0C107.5,37.1,106.7,37.1,105.9,37z M126,70.3c-2.1,0.1-6.8,3.2-7.5,5.2c-0.9,2.5,1.6,4.8,2.6,4.2
			c2.3-1.3,4.9,0.2,6.8-1.2c1.8-1.3,4.8-2.5,4.6-4.7c-0.3-2.8-3.9-2.4-6-3.5C126.3,70.3,126.1,70.3,126,70.3z M99.6,183.4
			c0.9-1.8,0.2-3.4,1.4-4.6c0.5-0.5,2.3-0.4,1.4-1.8c-0.6-0.9-1.7-1.1-2.6-0.6c-0.9,0.4-1.5,1.2-1.2,2.3
			C98.9,180.1,99.1,181.5,99.6,183.4z M139.3,130.6c0,0.2-0.1,0.5-0.1,0.7c0.1,0,0.4,0,0.4,0c0.1-0.2,0.1-0.5,0.1-0.7
			C139.6,130.6,139.4,130.6,139.3,130.6z M117.8,37.1l0.3-0.2l-0.3-0.1L117.8,37.1z"/>
		<path class="st2" d="M156.6,122.5c-2,0.9-3.9,2.3-6.3,1.9c0.2-1.5,1-2.7,2.1-3.7c0.9-0.8,0.6-1.8-0.2-2.6
			c-0.6-0.6-1.3-0.8-2.2-0.4c-3.5,1.6-4.2,8.1-1.2,11c-0.3,1.5-1.3,2.2-2.8,2.3c-0.2-4.2-0.2-8.3-3.5-11.9c-1.7-1.8-0.9-5.1,1.2-6.7
			c6-4.6,9.1-10.6,10.2-17.9c0.2-1.2-0.1-3.1,1.7-2.9c1.4,0.1,2.3,2.2,2,3.1c-2.1,5.3,1,10,1.5,14.9
			C159.7,114.4,156.9,118.1,156.6,122.5z"/>
		<path class="st2" d="M124.3,31.2c-1.7-2.4-0.5-4.5,0.5-6.6c9,2.4,15.1,9.2,21.8,14.9c1,0.8,2.4,2.7,1,3.8c-1.8,1.4-2-1.2-3-2
			c-5.9-4.5-12.1-7.3-19.3-2.8c-1.1-1.3-5.7-2-0.8-4.5c2.1,1.2,3.9,0.9,5.6-0.9c0.6-0.7,1-1.4,0.2-2c-1.8-1.4-3.6-1.1-5.4,0
			C124.6,31.1,124.5,31.1,124.3,31.2z"/>
		<path class="st2" d="M57.1,165c2-3.6,7.5-2.4,9-6.7c1.7,0.8,1.7,2.6,2.6,4c0.7,1.1-0.1,1.9-0.5,2.7c-1,1.9-4.5-4-4.8,1.5
			C63.3,166.7,58.9,167.2,57.1,165z"/>
		<path class="st2" d="M100.1,95.2c-0.2-2.5-5.3-3.4-2.5-6.6c2.9-3.3,4.8,1.3,7.4,1.4C103,91.3,102.5,94.2,100.1,95.2z"/>
		<path class="st2" d="M156,136.1c-2.8,0.7-4.1,0-3.4-3.1c0.7-3.4,0.1-7.5,5.2-8c0,0.7,0.1,1.4,0.1,2.2c-4.4,1.9-2.2,5.3-1.8,8.2
			C156.3,135.6,156.2,135.9,156,136.1z"/>
		<path class="st2" d="M154.1,67.2c-0.3,1.3-0.4,3.1-2,3.4c-1.7,0.3-1.9-1.4-2-2.7c-0.1-1.5,0.1-3.2,1.9-3.4
			C153.5,64.3,154,65.7,154.1,67.2z"/>
		<path class="st1" d="M156.2,135.3c-0.4-3-2.7-6.3,1.8-8.2c0.4,1.9,0.8,3.8,1.3,5.8c0,0.3-0.1,0.7-0.1,1
			C158.1,134.4,157.2,134.8,156.2,135.3z"/>
		<path class="st2" d="M93.7,86.3c-0.5,2.8,1.5,5.8-0.4,8.6C90.1,90.8,90.2,88.7,93.7,86.3z"/>
		<path class="st2" d="M112.1,25.2c0.1,3.4-2.2,4.3-4.9,4.9C106.7,26.3,109.3,25.7,112.1,25.2z"/>
		<path class="st2" d="M118.4,22c-2,0-3.8,0.6-5.2,2.1c0-0.3-0.2-0.7-0.1-1c0.3-1.6-1.1-4.1,1.2-4.5C116.1,18.2,117.9,19.7,118.4,22
			z"/>
		<path class="st2" d="M125.9,48.1c-2.9-2.1-0.3-4.8-0.7-7.1C126.9,43.2,125.9,45.7,125.9,48.1z"/>
		<path class="st2" d="M161.2,139.9c-0.5,0.8-0.8,2.2-1.9,1.9c-1.5-0.3-0.9-1.9-1.1-2.9C159.2,139.2,160.5,138.8,161.2,139.9z"/>
		<path class="st2" d="M168,142.1c-1.8,0-3.6-0.2-4.9-1.8C165.3,139.4,167.4,138.7,168,142.1z"/>
		<path class="st2" d="M130.2,56.1c-1.9-0.1-2.9-1.1-3.1-3C128.5,53.7,129.5,54.8,130.2,56.1z"/>
		<path class="st2" d="M110.9,83c0.6,1.3-0.1,1.7-1.2,1.9C110.1,84.3,110.5,83.7,110.9,83z"/>
		<path class="st2" d="M125.2,41c-0.9-0.6-1.6-1.1-0.2-2C125.1,39.7,125.2,40.4,125.2,41z"/>
		<path class="st2" d="M105.9,37c0.8,0,1.6,0.1,2.4,0.1c-0.6,0.8-1.5,1.1-2.4,0.8C105.3,37.8,105.4,37.3,105.9,37z"/>
		<path class="st2" d="M102.1,81.3c-0.4,0.9-1.2,1.4-2.1,1.7C100.4,82.1,101.1,81.5,102.1,81.3z"/>
		<path class="st2" d="M140.9,125.1c-0.6,0-1.2,0-1.8,0l0,0c0.6-0.7,1.2-1.3,1.7-2C140.9,123.8,140.9,124.4,140.9,125.1z"/>
		<path class="st2" d="M143.2,131c-0.7,0-0.9-0.5-0.9-1.1C142.5,130.2,142.8,130.6,143.2,131z"/>
		<path class="st2" d="M105.5,89.3c0.1-0.3,0.1-0.6,0.2-0.9c0,0.3,0,0.6,0,0.9C105.7,89.3,105.5,89.3,105.5,89.3z"/>
		<path class="st2" d="M107.3,33.1c0.4,0.7,0.3,1.4-0.3,1.9C107.1,34.4,107.2,33.8,107.3,33.1z"/>
		<path class="st2" d="M108.3,85c-0.7-0.5-1.4-0.9-2.1-1.4C106.9,84.1,107.6,84.6,108.3,85z"/>
		<path class="st2" d="M114,37.3c0.7-0.1,0.9,0.3,1,0.9C114.7,37.9,114.4,37.6,114,37.3z"/>
		<path class="st2" d="M124.5,24.5c-0.5-0.1-0.9-0.1-1.4-0.2C123.6,24.4,124.1,24.4,124.5,24.5z"/>
		<path class="st2" d="M109.1,37c0.3,0,0.6,0,1-0.1l-0.5,0.1L109.1,37z"/>
		<path class="st2" d="M112.1,36.9c0.3,0,0.7,0,1,0C112.8,37,112.4,37,112.1,36.9z"/>
		<path class="st2" d="M159.1,133.9c0-0.3,0.1-0.7,0.1-1c0.2,0.3,0.4,0.6,0.6,0.8C159.6,133.8,159.3,133.8,159.1,133.9z"/>
		<path class="st2" d="M117.3,41.1c0.3,0.4,0.5,0.7,0.8,1.1C117.8,41.8,117.6,41.5,117.3,41.1z"/>
		<path class="st2" d="M141.9,129.1c-0.2-0.4-0.4-0.8-0.7-1.2C141.4,128.2,141.6,128.7,141.9,129.1z"/>
		<path class="st2" d="M118,42.1c0.3,0.4,0.7,0.8,1,1.2C118.7,42.9,118.4,42.5,118,42.1z"/>
		<path class="st2" d="M127.2,53.1c-0.3-0.4-0.7-0.8-1-1.2C126.5,52.3,126.9,52.7,127.2,53.1z"/>
		<path class="st2" d="M99.1,84.1c-0.3,0.3-0.5,0.6-0.8,1C98.6,84.7,98.8,84.4,99.1,84.1z"/>
		<path class="st2" d="M157.3,124.2c-0.3-0.5-0.7-1.1-1-1.6C156.7,123.2,157,123.7,157.3,124.2z"/>
		<path class="st2" d="M97.1,86.2c-0.3,0-0.6,0.1-1,0.1C96.4,86.2,96.8,86.1,97.1,86.2z"/>
		<path class="st2" d="M108.7,93.4c0.5,0.2,0.9,0.4,1.4,0.5C109.6,93.8,109.1,93.6,108.7,93.4z"/>
		<path class="st2" d="M108.2,92.1c0.2,0.5,0.4,1,0.6,1.4C108.6,93.1,108.4,92.6,108.2,92.1z"/>
		<path class="st0" d="M126,70.3c0.2,0,0.4-0.1,0.5,0c2.1,1.1,5.7,0.8,6,3.5c0.2,2.2-2.7,3.4-4.6,4.7c-1.9,1.4-4.5-0.1-6.8,1.2
			c-1.1,0.6-3.5-1.6-2.6-4.2C119.2,73.6,123.8,70.4,126,70.3z"/>
		<path class="st0" d="M149,128.8c-3-2.9-2.3-9.4,1.2-11c0.9-0.4,1.6-0.3,2.2,0.4c0.8,0.8,1.1,1.8,0.2,2.6c-1.1,1-2,2.2-2.1,3.7
			c0,0,0.1,0.3,0.1,0.3c-0.1,0.8-0.3,1.5-0.4,2.3C149.6,127.6,149.3,128.2,149,128.8z"/>
		<path class="st0" d="M124.3,31.2c0.1-0.1,0.3-0.1,0.4-0.2c1.8-1.1,3.6-1.4,5.4,0c0.8,0.7,0.5,1.3-0.2,2c-1.6,1.8-3.5,2.1-5.6,0.9
			C124.4,33,124.4,32.1,124.3,31.2z"/>
		<path class="st0" d="M99.6,183.4c-0.4-1.9-0.7-3.3-1-4.7c-0.3-1.2,0.3-1.9,1.2-2.3c0.9-0.4,2-0.3,2.6,0.6c0.9,1.4-0.9,1.3-1.4,1.8
			C99.7,180,100.4,181.6,99.6,183.4z"/>
		<path class="st2" d="M139.3,130.6c0.1,0,0.3,0,0.4,0c0,0.2-0.1,0.5-0.1,0.7c0,0-0.3,0-0.4,0C139.2,131.1,139.2,130.9,139.3,130.6z
			"/>
		<polygon class="st2" points="117.8,37.1 117.8,36.8 118.1,36.9 		"/>
		<path class="st2" d="M150,127c0.1-0.8,0.3-1.5,0.4-2.3C150.3,125.5,150.1,126.3,150,127z"/>
		<path class="st2" d="M139.1,125.1L139.1,125.1L139.1,125.1z"/>
	</g>
	<g>
		<path class="st0" d="M307.3,1c36.5,0,73,0,109.5-0.1c3,0,3.6,0.6,3.6,3.6c-0.1,82.7-0.1,165.3,0,248c0,3-0.6,3.6-3.6,3.6
			c-57.2-0.1-114.3-0.1-171.5-0.1c-1.3-5.4-0.2-10.7,0.3-16.1c0.2-2.1-0.2-2.8-2-2.8c-2-0.1-4-0.2-5.9,0.3
			c-5.9,1.7-11.6,3.7-17.4,5.6c0-79.2,0-158.4-0.1-237.6c0-3.9,1.1-4.6,4.7-4.5C239,1.1,253.2,1,267.3,1c-0.1,27.7,0,55.4-0.9,83.1
			c-0.7,24.5,0.3,49.1-1.1,73.6c-0.1,2.2-0.2,4.3-1.6,6.1c-2.3,3.2-0.7,4,2.4,4.2c3.9,0.2,7.4-1.8,11.2-2.1c1.8,2.2,6.2,1.7,6.2,1.5
			c0.3-5.5,3.8,0.5,4.8-1.5c0.4-0.8,1.2-1.7,0.5-2.7c-0.9-1.3-0.9-3.2-2.6-4c-1-1.4-3.9-0.7-3.8-3.3c0.1-2.6,2.6-3,4.2-3.7
			c4.7-2,9.4-4.2,13.4-7.3c2.8-2.2,8.7-3.1,5.7-9.1c-0.9-1.8-1-3.8-1.6-5.6c-1.3-3.7-2.5-8-5.2-10.4c-2.6-2.3-4.3-4.5-4.9-7.5
			c-1-5.5-3.6-10.3-5.6-15.3c-4-10.1-5.1-20.1,1.9-29.7c1.3-1.8,2.2-4.7,0-6.4c-2.3-1.8-1.2-3.6-0.7-5.2c2.9-8.7,6.7-16.9,12.3-24.2
			c3.7-4.8,6.1-10.1,5.4-16.6C306.9,10.3,307.3,5.6,307.3,1z M329,94.4l-0.1-0.1c0.5,0.2,0.9,0.4,1.4,0.5c4.9,2.9,5.2,5.1,1.4,9.3
			c-0.8,0.8-2.9,1.8-1.6,2.9c3.3,2.8-0.1,3-1.2,4.1c-0.8,0.8-2.7,1.3-1.9,2.9c0.7,1.3,1.9,2.4,3.7,1.3c1.1-0.6,2.6-0.5,2.9,0.8
			c0.3,0.9-0.1,2.3-0.7,3.2c-0.6,0.9-1.8,1.4-2.6,2.3c-1.6,1.7-1.2,3.6-0.5,5.5c0.9,2.6,1.9,0.3,2.8,0.2c4.1-0.2,6.3,3,4.4,6.6
			c-0.7,1.3-1.9,2.3-2.8,3.5c-3.3,4.3-8.6,6.2-12.2,10.1c-7.6,8.4-17.4,10.4-28.1,8.6c-3.7-0.6-4.3,1.4-4,4c0.3,2,0.7,4.1,2.5,5.8
			c2.9,2.8,4.4,6.3,4.3,10.5c-0.1,2.2,0.9,4.4,2.5,6.3c4.9,5.6,10.2,10.9,14.5,16.9c4.8,6.8,12,8.4,19.1,8.8
			c3.7,0.2,7.9-1.9,11.9-2.7c8.4-1.8,16.6-5.7,21.6-12.1c10.2-12.8,18.2-27.2,23.3-43.1c1-3.1,0.9-5.5-1.4-7.7
			c-0.6-3.4-2.7-2.7-4.9-1.8c-0.7-0.1-1.3-0.2-2-0.4c-0.7-1.1-2-0.7-3-1c-0.7-0.9-1.4-1.9-2.2-2.8c0.2-0.2,0.2-0.5,0.2-0.8
			c1-0.5,1.9-0.9,2.9-1.4c0.2-0.1,0.5-0.1,0.7-0.2c-0.2-0.3-0.4-0.6-0.6-0.8c-0.4-1.9-0.8-3.8-1.3-5.8c0-0.7-0.1-1.4-0.1-2.2
			c0.1-0.4-0.1-0.6-0.5-0.7c-0.3-0.5-0.7-1-1-1.6l0.3-0.2c0.3-4.4,3.1-8.1,2.6-12.9c-0.5-4.9-3.5-9.6-1.5-14.9c0.3-0.8-0.6-3-2-3.1
			c-1.7-0.1-1.5,1.7-1.7,2.9c-1.2,7.2-4.2,13.3-10.2,17.9c-2.2,1.6-2.9,4.9-1.2,6.7c3.3,3.6,3.3,7.7,3.5,11.9c-1.1,1.3-2,0.5-3-0.1
			c-0.3-0.4-0.6-0.8-0.9-1.1c0-0.3-0.1-0.6-0.3-0.8c-0.2-0.4-0.4-0.8-0.7-1.2c-0.1-0.9-0.2-1.8-0.2-2.7c0-0.7-0.1-1.3-0.1-2
			c-2.1-6.7-1.3-13.2,0-20.1c1.4-7.9,5-15.8,2.4-24.2c-2.7-8.6-3.5-18.1-13-22.8c-0.7-1.3-1.7-2.3-3.1-3l0,0c-0.3-0.4-0.7-0.8-1-1.2
			c-0.1-1.2-0.2-2.5-0.2-3.7c0-2.4,1-4.9-0.7-7.1l0,0.1c-0.1-0.7-0.1-1.3-0.2-2c0.2-0.2,0.3-0.4,0.2-0.7c7.2-4.4,13.4-1.6,19.3,2.8
			c1,0.8,1.3,3.4,3,2c1.4-1.1,0-3-1-3.8c-6.7-5.7-12.8-12.5-21.8-14.9l-0.3,0c-0.5-0.1-0.9-0.1-1.4-0.2c-1.6-0.8-3.2-1.5-4.8-2.3
			c-0.4-2.3-2.3-3.8-4.1-3.4c-2.3,0.4-0.8,3-1.2,4.5c-0.1,0.3,0.1,0.6,0.1,1c-0.4,0.4-0.7,0.8-1.1,1.2c-2.8,0.4-5.5,1.1-4.9,4.9
			c0,1,0,2,0,3c-0.1,0.6-0.2,1.3-0.3,1.9c-0.4,0.7-0.7,1.3-1.1,2c-0.5,0.3-0.5,0.8,0,0.9c0.9,0.3,1.8,0.1,2.4-0.8l0.4,0l0.4-0.2
			l0.5,0.1l0.5-0.1c0.7,0,1.4,0,2,0c0.3,0,0.7,0,1,0c0.3,0.2,0.6,0.3,0.9,0.3c0.3,0.3,0.7,0.6,1,0.9c0.7,1,1.5,2,2.2,2.9
			c0.3,0.4,0.5,0.7,0.8,1.1l0,0c0.3,0.4,0.7,0.8,1,1.2c-1.2,5.2-5.3,6.7-9.3,2.5c-3.7-4-6.8-3.1-11.3-2.3c-4.3,0.8-5.6,2.9-6.5,6.6
			c-0.6,2.6-0.3,5,0.4,7.2c1.4,4.4,2.5,8.5,0.8,13.1c-0.6,1.6,0.4,2.9,1.7,3.9c1.4,1.1,2-0.5,2.9-1c3.3-2,6.8-1.2,10.2-1
			c1.6,0.1,3.4,1.8,2.9,3.4c-0.9,2.6,0.8,4.9,0.1,7.3c-0.4,0.6-0.8,1.3-1.2,1.9c-0.5,0-1,0-1.4,0.1c-0.7-0.5-1.4-0.9-2.1-1.4
			c-0.1-3-2-2.7-4.1-2.3c-1,0.2-1.7,0.7-2.1,1.7c-0.3,0.4-0.6,0.7-0.9,1.1c-0.3,0.3-0.5,0.6-0.8,1c-0.4,0.4-0.8,0.7-1.2,1.1
			c-0.3-0.1-0.7,0-1,0.1c-0.8,0-1.6,0-2.4,0c-3.5,2.4-3.6,4.6-0.4,8.6c2.3-0.2,4.5,1.4,6.8,0.3c2.4-1,2.9-3.8,4.9-5.2
			c0.3-0.1,0.5-0.2,0.8-0.3c-0.1-0.1-0.2-0.2-0.3-0.3l0.2,0c0.8,0.9,1.7,1.8,2.5,2.8C328.6,93.4,328.8,93.9,329,94.4z M374.3,68.1
			c-0.1-1.5-0.6-2.9-2.2-2.7c-1.8,0.2-2,1.9-1.9,3.4c0.1,1.3,0.3,3,2,2.7C373.9,71.2,374,69.4,374.3,68.1z"/>
		<path class="st0" d="M346.2,71.2c0.2,0,0.4-0.1,0.5,0c2.1,1.1,5.7,0.8,6,3.5c0.2,2.2-2.7,3.4-4.6,4.7c-1.9,1.4-4.5-0.1-6.8,1.2
			c-1.1,0.6-3.5-1.6-2.6-4.2C339.4,74.4,344,71.3,346.2,71.2z"/>
		<path class="st0" d="M369.1,129.6c-3-2.9-2.3-9.4,1.2-11c0.9-0.4,1.6-0.3,2.2,0.4c0.8,0.8,1.1,1.8,0.2,2.6c-1.1,1-2,2.2-2.1,3.7
			c0,0,0.1,0.3,0.1,0.3c-0.1,0.8-0.3,1.5-0.4,2.3C369.8,128.5,369.5,129,369.1,129.6z"/>
		<path class="st0" d="M344.5,32c0.1-0.1,0.3-0.1,0.4-0.2c1.8-1.1,3.6-1.4,5.4,0c0.8,0.7,0.5,1.3-0.2,2c-1.6,1.8-3.5,2.1-5.6,0.9
			C344.6,33.9,344.5,33,344.5,32z"/>
		<path class="st0" d="M319.7,184.3c-0.4-1.9-0.7-3.3-1-4.7c-0.3-1.2,0.3-1.9,1.2-2.3c0.9-0.4,2-0.3,2.6,0.6
			c0.9,1.4-0.9,1.3-1.4,1.8C319.9,180.9,320.6,182.5,319.7,184.3z"/>
	</g>
	<g>
		<path class="st1" d="M497.5,165c-3.8,0.4-7.3,2.3-11.2,2.1c-3.1-0.2-4.7-1-2.4-4.2c1.3-1.8,1.5-3.9,1.6-6.1
			c1.4-24.5,0.4-49.1,1.1-73.6c0.8-27.7,0.7-55.4,0.9-83.1c13.3,0,26.7,0,40,0c0,4.7-0.4,9.4,0.1,14c0.6,6.5-1.7,11.8-5.4,16.6
			c-5.6,7.3-9.5,15.5-12.3,24.2c-0.5,1.6-1.6,3.4,0.7,5.2c2.1,1.7,1.3,4.6,0,6.4c-7,9.5-5.9,19.6-1.9,29.7c2,5.1,4.6,9.8,5.6,15.3
			c0.5,3,2.3,5.3,4.9,7.5c2.7,2.4,3.9,6.7,5.2,10.4c0.6,1.8,0.7,3.8,1.6,5.6c3.1,6-2.8,6.9-5.7,9.1c-4,3.1-8.7,5.3-13.4,7.3
			c-1.6,0.7-4.1,1-4.2,3.7c-0.1,2.6,2.8,1.8,3.8,3.3C505,162.6,499.5,161.4,497.5,165z"/>
		<path class="st1" d="M440.5,242.1c5.8-1.9,11.6-3.9,17.4-5.6c1.8-0.5,3.9-0.4,5.9-0.3c1.7,0.1,2.2,0.7,2,2.8
			c-0.5,5.3-1.6,10.7-0.3,16.1c-7.5,0-15-0.1-22.5,0.1c-2.2,0-2.7-0.4-2.6-2.6C440.7,249.1,440.5,245.6,440.5,242.1z"/>
		<path class="st1" d="M546.3,37c0.4-0.7,0.7-1.3,1.1-2c0.6-0.6,0.7-1.2,0.3-1.9c0-1,0-2,0-3c2.6-0.6,5-1.5,4.9-4.9
			c0.4-0.4,0.7-0.8,1.1-1.2c1.4-1.5,3.2-2,5.2-2.1c1.6,0.8,3.2,1.5,4.8,2.3c0.5,0.1,0.9,0.1,1.4,0.2l0.3,0c-1,2.2-2.2,4.3-0.5,6.6
			c0,0.9,0.1,1.9,0.1,2.8c-4.9,2.5-0.2,3.1,0.8,4.5c0.1,0.3,0,0.5-0.2,0.7c-1.4,0.8-0.6,1.4,0.2,2l0-0.1c0.4,2.4-2.2,5,0.7,7.1
			c0.1,1.2,0.2,2.5,0.2,3.7c0.3,0.4,0.7,0.8,1,1.2l0,0c0.1,1.9,1.2,2.9,3.1,3c9.5,4.7,10.3,14.2,13,22.8c2.6,8.5-0.9,16.3-2.4,24.2
			c-1.2,6.9-2,13.4,0,20.1c-0.6,0.7-1.2,1.3-1.7,2l0,0c0.6,0,1.2,0,1.8,0c0.1,0.9,0.2,1.8,0.2,2.7c0.2,0.4,0.4,0.8,0.7,1.2
			c0.3,0.2,0.4,0.5,0.3,0.8c0,0.6,0.2,1.1,0.9,1.1c1,0.6,2,1.4,3,0.1c1.4-0.2,2.4-0.9,2.8-2.3c0.3-0.6,0.7-1.1,1-1.7
			c0.1-0.8,0.3-1.5,0.4-2.3l-0.1-0.3c2.4,0.4,4.3-1,6.3-1.9c0,0-0.3,0.2-0.3,0.2c0.3,0.5,0.7,1,1,1.6c0.4,0.1,0.5,0.3,0.5,0.7
			c-5.1,0.5-4.5,4.7-5.2,8c-0.7,3.1,0.6,3.9,3.4,3.1c0.7,0.9,1.4,1.9,2.2,2.8c0.2,1.1-0.5,2.6,1.1,2.9c1.1,0.2,1.4-1.1,1.9-1.9
			c0.7,0.1,1.3,0.2,2,0.4c1.3,1.6,3,1.8,4.9,1.8c2.2,2.3,2.3,4.7,1.4,7.7c-5.1,15.8-13.1,30.2-23.3,43.1c-5,6.3-13.2,10.3-21.6,12.1
			c-4,0.9-8.2,3-11.9,2.7c-7.1-0.5-14.2-2.1-19.1-8.8c-4.3-6-9.6-11.4-14.5-16.9c-1.6-1.8-2.6-4-2.5-6.3c0.1-4.2-1.3-7.7-4.3-10.5
			c-1.8-1.7-2.2-3.7-2.5-5.8c-0.3-2.7,0.3-4.6,4-4c10.8,1.8,20.5-0.2,28.1-8.6c3.6-4,8.9-5.9,12.2-10.1c0.9-1.2,2.1-2.2,2.8-3.5
			c1.9-3.6-0.3-6.9-4.4-6.6c-1,0.1-2,2.4-2.8-0.2c-0.7-2-1.1-3.9,0.5-5.5c0.8-0.8,2-1.3,2.6-2.3c0.6-0.9,0.9-2.2,0.7-3.2
			c-0.4-1.3-1.8-1.5-2.9-0.8c-1.8,1-3-0.1-3.7-1.3c-0.8-1.6,1.1-2,1.9-2.9c1.1-1.2,4.5-1.4,1.2-4.1c-1.3-1.1,0.8-2.1,1.6-2.9
			c3.8-4.1,3.5-6.3-1.4-9.3c-0.5-0.2-0.9-0.4-1.4-0.5c0,0,0.1,0.1,0.1,0.1c-0.2-0.5-0.4-1-0.6-1.4c-0.8-0.9-1.7-1.8-2.5-2.8
			c0-0.3,0-0.6,0-0.9c-0.1,0.3-0.1,0.6-0.2,0.9c0.1,0.1,0.2,0.2,0.3,0.3c-0.3,0.1-0.5,0.2-0.8,0.3c-2.5-0.1-4.5-4.7-7.4-1.4
			c-2.8,3.2,2.3,4.1,2.5,6.6c-2.3,1-4.5-0.5-6.8-0.3c1.9-2.8-0.1-5.7,0.4-8.6c0.8,0,1.6,0,2.4,0c0.3,0,0.6-0.1,1-0.1
			c0.4-0.4,0.8-0.7,1.2-1.1c0.3-0.3,0.5-0.6,0.8-1c0.3-0.4,0.6-0.7,0.9-1.1c1-0.2,1.7-0.8,2.1-1.7c2-0.4,4-0.7,4.1,2.3
			c0.7,0.5,1.4,0.9,2.1,1.4c0.5,0,1,0,1.4-0.1c1.1-0.2,1.8-0.6,1.2-1.9c0.7-2.4-1-4.7-0.1-7.3c0.6-1.6-1.2-3.3-2.9-3.4
			c-3.4-0.2-6.9-1-10.2,1c-0.8,0.5-1.4,2.1-2.9,1c-1.2-1-2.2-2.3-1.7-3.9c1.7-4.5,0.6-8.7-0.8-13.1c-0.7-2.2-1-4.6-0.4-7.2
			c0.9-3.7,2.1-5.8,6.5-6.6c4.4-0.8,7.5-1.7,11.3,2.3c4,4.2,8.1,2.7,9.3-2.5c-0.3-0.4-0.7-0.8-1-1.2l0,0c-0.3-0.4-0.5-0.7-0.8-1.1
			c-0.7-1-1.5-2-2.2-2.9c-0.1-0.6-0.3-1-1-0.9c-0.3,0-0.6-0.1-0.9-0.3c-0.3,0-0.7,0-1,0c-0.7,0-1.4,0-2,0c-0.3,0-0.6,0-1,0.1
			l-0.4,0.2l-0.4,0C547.9,37.1,547.1,37.1,546.3,37z M566.4,70.3c-2.1,0.1-6.8,3.2-7.5,5.2c-0.9,2.5,1.6,4.8,2.6,4.2
			c2.3-1.3,4.9,0.2,6.8-1.2c1.8-1.3,4.8-2.5,4.6-4.7c-0.3-2.8-3.9-2.4-6-3.5C566.7,70.3,566.5,70.3,566.4,70.3z M539.9,183.4
			c0.9-1.8,0.2-3.4,1.4-4.6c0.5-0.5,2.3-0.4,1.4-1.8c-0.6-0.9-1.7-1.1-2.6-0.6c-0.9,0.4-1.5,1.2-1.2,2.3
			C539.2,180.1,539.5,181.5,539.9,183.4z M579.7,130.6c0,0.2-0.1,0.5-0.1,0.7c0.1,0,0.4,0,0.4,0c0.1-0.2,0.1-0.5,0.1-0.7
			C580,130.6,579.8,130.6,579.7,130.6z M558.2,37.1l0.3-0.2l-0.3-0.1L558.2,37.1z"/>
		<path class="st2" d="M597,122.5c-2,0.9-3.9,2.3-6.3,1.9c0.2-1.5,1-2.7,2.1-3.7c0.9-0.8,0.6-1.8-0.2-2.6c-0.6-0.6-1.3-0.8-2.2-0.4
			c-3.5,1.6-4.2,8.1-1.2,11c-0.3,1.5-1.3,2.2-2.8,2.3c-0.2-4.2-0.2-8.3-3.5-11.9c-1.7-1.8-0.9-5.1,1.2-6.7c6-4.6,9.1-10.6,10.2-17.9
			c0.2-1.2-0.1-3.1,1.7-2.9c1.4,0.1,2.3,2.2,2,3.1c-2.1,5.3,1,10,1.5,14.9C600.1,114.4,597.3,118.1,597,122.5z"/>
		<path class="st2" d="M564.7,31.2c-1.7-2.4-0.5-4.5,0.5-6.6c9,2.4,15.1,9.2,21.8,14.9c1,0.8,2.4,2.7,1,3.8c-1.8,1.4-2-1.2-3-2
			c-5.9-4.5-12.1-7.3-19.3-2.8c-1.1-1.3-5.7-2-0.8-4.5c2.1,1.2,3.9,0.9,5.6-0.9c0.6-0.7,1-1.4,0.2-2c-1.8-1.4-3.6-1.1-5.4,0
			C565,31.1,564.9,31.1,564.7,31.2z"/>
		<path class="st2" d="M497.5,165c2-3.6,7.5-2.4,9-6.7c1.7,0.8,1.7,2.6,2.6,4c0.7,1.1-0.1,1.9-0.5,2.7c-1,1.9-4.5-4-4.8,1.5
			C503.7,166.7,499.3,167.2,497.5,165z"/>
		<path class="st2" d="M540.5,95.2c-0.2-2.5-5.3-3.4-2.5-6.6c2.9-3.3,4.8,1.3,7.4,1.4C543.4,91.3,542.9,94.2,540.5,95.2z"/>
		<path class="st2" d="M596.4,136.1c-2.8,0.7-4.1,0-3.4-3.1c0.7-3.4,0.1-7.5,5.2-8c0,0.7,0.1,1.4,0.1,2.2c-4.4,1.9-2.2,5.3-1.8,8.2
			C596.7,135.6,596.6,135.9,596.4,136.1z"/>
		<path class="st2" d="M594.5,67.2c-0.3,1.3-0.4,3.1-2,3.4c-1.7,0.3-1.9-1.4-2-2.7c-0.1-1.5,0.1-3.2,1.9-3.4
			C593.9,64.3,594.4,65.7,594.5,67.2z"/>
		<path class="st1" d="M596.6,135.3c-0.4-3-2.7-6.3,1.8-8.2c0.4,1.9,0.8,3.8,1.3,5.8c0,0.3-0.1,0.7-0.1,1
			C598.5,134.4,597.5,134.8,596.6,135.3z"/>
		<path class="st2" d="M534.1,86.3c-0.5,2.8,1.5,5.8-0.4,8.6C530.4,90.8,530.5,88.7,534.1,86.3z"/>
		<path class="st2" d="M552.5,25.2c0.1,3.4-2.2,4.3-4.9,4.9C547,26.3,549.7,25.7,552.5,25.2z"/>
		<path class="st2" d="M558.8,22c-2,0-3.8,0.6-5.2,2.1c0-0.3-0.2-0.7-0.1-1c0.3-1.6-1.1-4.1,1.2-4.5C556.5,18.2,558.3,19.7,558.8,22
			z"/>
		<path class="st2" d="M566.3,48.1c-2.9-2.1-0.3-4.8-0.7-7.1C567.3,43.2,566.3,45.7,566.3,48.1z"/>
		<path class="st2" d="M601.6,139.9c-0.5,0.8-0.8,2.2-1.9,1.9c-1.5-0.3-0.9-1.9-1.1-2.9C599.6,139.2,600.8,138.8,601.6,139.9z"/>
		<path class="st2" d="M608.4,142.1c-1.8,0-3.6-0.2-4.9-1.8C605.7,139.4,607.8,138.7,608.4,142.1z"/>
		<path class="st2" d="M570.6,56.1c-1.9-0.1-2.9-1.1-3.1-3C568.9,53.7,569.8,54.8,570.6,56.1z"/>
		<path class="st2" d="M551.3,83c0.6,1.3-0.1,1.7-1.2,1.9C550.5,84.3,550.9,83.7,551.3,83z"/>
		<path class="st2" d="M565.6,41c-0.9-0.6-1.6-1.1-0.2-2C565.5,39.7,565.6,40.4,565.6,41z"/>
		<path class="st2" d="M546.3,37c0.8,0,1.6,0.1,2.4,0.1c-0.6,0.8-1.5,1.1-2.4,0.8C545.7,37.8,545.8,37.3,546.3,37z"/>
		<path class="st2" d="M542.5,81.3c-0.4,0.9-1.2,1.4-2.1,1.7C540.8,82.1,541.5,81.5,542.5,81.3z"/>
		<path class="st2" d="M581.3,125.1c-0.6,0-1.2,0-1.8,0l0,0c0.6-0.7,1.2-1.3,1.7-2C581.3,123.8,581.3,124.4,581.3,125.1z"/>
		<path class="st2" d="M583.5,131c-0.7,0-0.9-0.5-0.9-1.1C582.9,130.2,583.2,130.6,583.5,131z"/>
		<path class="st2" d="M545.9,89.3c0.1-0.3,0.1-0.6,0.2-0.9c0,0.3,0,0.6,0,0.9C546.1,89.3,545.9,89.3,545.9,89.3z"/>
		<path class="st2" d="M547.6,33.1c0.4,0.7,0.3,1.4-0.3,1.9C547.5,34.4,547.6,33.8,547.6,33.1z"/>
		<path class="st2" d="M548.7,85c-0.7-0.5-1.4-0.9-2.1-1.4C547.3,84.1,548,84.6,548.7,85z"/>
		<path class="st2" d="M554.4,37.3c0.7-0.1,0.9,0.3,1,0.9C555.1,37.9,554.8,37.6,554.4,37.3z"/>
		<path class="st2" d="M564.9,24.5c-0.5-0.1-0.9-0.1-1.4-0.2C564,24.4,564.5,24.4,564.9,24.5z"/>
		<path class="st2" d="M549.5,37c0.3,0,0.6,0,1-0.1L550,37L549.5,37z"/>
		<path class="st2" d="M552.5,36.9c0.3,0,0.7,0,1,0C553.1,37,552.8,37,552.5,36.9z"/>
		<path class="st2" d="M599.5,133.9c0-0.3,0.1-0.7,0.1-1c0.2,0.3,0.4,0.6,0.6,0.8C599.9,133.8,599.7,133.8,599.5,133.9z"/>
		<path class="st2" d="M557.7,41.1c0.3,0.4,0.5,0.7,0.8,1.1C558.2,41.8,557.9,41.5,557.7,41.1z"/>
		<path class="st2" d="M582.2,129.1c-0.2-0.4-0.4-0.8-0.7-1.2C581.8,128.2,582,128.7,582.2,129.1z"/>
		<path class="st2" d="M558.4,42.1c0.3,0.4,0.7,0.8,1,1.2C559.1,42.9,558.7,42.5,558.4,42.1z"/>
		<path class="st2" d="M567.6,53.1c-0.3-0.4-0.7-0.8-1-1.2C566.9,52.3,567.2,52.7,567.6,53.1z"/>
		<path class="st2" d="M539.5,84.1c-0.3,0.3-0.5,0.6-0.8,1C538.9,84.7,539.2,84.4,539.5,84.1z"/>
		<path class="st2" d="M597.7,124.2c-0.3-0.5-0.7-1.1-1-1.6C597.1,123.2,597.4,123.7,597.7,124.2z"/>
		<path class="st2" d="M537.5,86.2c-0.3,0-0.6,0.1-1,0.1C536.8,86.2,537.1,86.1,537.5,86.2z"/>
		<path class="st2" d="M549,93.4c0.5,0.2,0.9,0.4,1.4,0.5C550,93.8,549.5,93.6,549,93.4z"/>
		<path class="st2" d="M548.6,92.1c0.2,0.5,0.4,1,0.6,1.4C549,93.1,548.8,92.6,548.6,92.1z"/>
		<path class="st2" d="M579.7,130.6c0.1,0,0.3,0,0.4,0c0,0.2-0.1,0.5-0.1,0.7c0,0-0.3,0-0.4,0C579.6,131.1,579.6,130.9,579.7,130.6z
			"/>
		<polygon class="st2" points="558.2,37.1 558.2,36.8 558.5,36.9 		"/>
		<path class="st2" d="M590.3,127c0.1-0.8,0.3-1.5,0.4-2.3C590.6,125.5,590.5,126.3,590.3,127z"/>
		<path class="st2" d="M579.5,125.1L579.5,125.1L579.5,125.1z"/>
	</g>
</g>
<g>
</g>
<g>
</g>
<g>
</g>
<g>
</g>
<g>
</g>
<g>
</g>
<g>
</g>
<g>
</g>
<g>
</g>
<g>
</g>
<g>
</g>
<g>
</g>
<g>
</g>
<g>
</g>
<g>
</g>
</svg>
