<?xml version="1.0" encoding="utf-8"?>
<!-- Generator: Adobe Illustrator 17.1.0, SVG Export Plug-In . SVG Version: 6.00 Build 0)  -->
<!DOCTYPE svg PUBLIC "-//W3C//DTD SVG 1.1//EN" "http://www.w3.org/Graphics/SVG/1.1/DTD/svg11.dtd">
<svg version="1.1" id="Layer_1" xmlns="http://www.w3.org/2000/svg" xmlns:xlink="http://www.w3.org/1999/xlink" x="0px" y="0px"
	 viewBox="0 0 642.8 270.2" style="enable-background:new 0 0 642.8 270.2;" xml:space="preserve">
<style type="text/css">
	.st0{fill:#FC0000;}
	.st1{fill:#030303;}
</style>
<g>
	<g>
		<path class="st0" d="M425.5,246.1c0,7.2-0.1,14.3,0.1,21.5c0.1,2.2-0.4,2.6-2.6,2.6c-65-0.1-130-0.1-195,0c-3.5,0-2.5-2-2.5-3.6
			c0-58,0-116,0-174c0-29.7,0.1-59.3-0.1-89c0-3,0.6-3.6,3.6-3.6c64.3,0.1,128.7,0.1,193,0c3,0,3.6,0.6,3.6,3.6
			c-0.2,24.2-0.1,48.3-0.1,72.5c-4.3-0.5-8.6,0.6-12.8-0.6c-4.9-1.2-9,1.1-13.3,3.1c1.2,0.3,2.2,1.1,3.4,0.7
			c3.7,1.3,7.6,0.4,11.4,0.7c4.4,0.2,7.4,1.9,8.6,6.6c0.6,2.5,0.5,4.9,0.8,7.3c0.1,1.3-0.7,3.4,2,3.1c0,18,0,36,0,54
			c-7.9-1.6-15.6-4.2-23.8-4.2c-1.1-6.5-1.8-6.9-9.7-6.3c-2.9,0.2-5.9,0.2-8.8,0.2c-0.6-0.2-1.2-0.3-1.7-0.5
			c-0.6-0.8-1.4-0.8-2.2-0.5c-2.4-0.9-5-0.4-7.4-0.8c-8.7-1.3-11.9-4.8-10.4-12.9c1-5.4,2-10.8,2.5-16.2c0.8-8.4,1.4-16.9,1.8-25.4
			c0.2-3.6-2.1-4.6-5.3-3c-1.6,0.8-2.6,2-2.8,3.8c-2,16.6-4.6,33.2-0.4,49.9c0.4,1.4,0.1,2.7-1,3.7c-3.1,2.7-3.1,5.7-1.1,8.9
			c2.3,3.8,0.7,6.3-2.3,8.9c-6.6,5.6-13.9,6.9-22.1,5.1c-6-1.3-13,2.8-15,8.5c-1.2,3.3-3.3,5.2-6.7,6c-9.7,2.3-19.1,6.4-29.4,3.7
			c-1.6-0.4-3.3-0.7-3.5,1.4c-0.5,4.6-2.1,9.4,0.5,13.6c2.3,3.8,1.2,6.5-1.1,9.5c-0.9,1.2-2.9,2.4-1.8,3.7c3.7,4.8,2.6,9.9,1.9,15.1
			c-0.4,2.6,1.2,4.6,3.8,5c2.5,0.4,3.3-1.6,4-3.6c1-3.2,2.8-4.5,5.9-2.2c1.8,1.3,4,1.1,5.7,0.1c4.5-2.4,9.2-4.6,12.9-8.1
			c1.2-1.2,3.5-2.3,2.3-4.4c-1.1-2-2.5-4.1-5.2-4.2c-1.8,0-3.6-0.1-5.4,0.7c-2.8,1.3-5.8,2.3-8.7,3.4c-6.3,2.5-7.7,1.7-8.5-4.8
			c-0.1-1.1-0.4-2.3-0.9-3.3c-2.7-6.6-0.2-10.4,6.7-12c7.1-1.6,13.9,0.1,20.8,0.2c9.2,0.1,11.5,3.6,8.8,12.3
			c-0.3,1.1-0.9,2.1-1.5,3.1c-2.7,4.5-2,6.3,3.4,6.4c5.1,0.1,10.3-0.4,15.4-1c2.9-0.4,5.6-3.1,4.9-5.4c-2-6.9,5.8-13.6-0.1-20.3
			c-0.4-0.5-0.2-1.6,0-2.4c0.6-3.2,6.3-7.6,10.1-7.7c4.7-0.1,7,2.9,8.6,6.8c1.8,4.3-0.1,6.9-3.5,9c-3,1.8-2.4,3.6,0.1,5.2
			c5,3.3,9.8,4.5,14.9-0.1c2-1.8,5.8-1.7,7-4.3c1.5-3.2-2.4-4.7-3.4-7.1c-0.2-0.6-0.5-1.2-0.7-1.9c-1-3.1,0.7-4.9,3.4-4.5
			c5.2,0.9,10.3,2.5,13.3,7.6c2.9,5,8,7.3,13.9,6c3.9-0.9,7.1-2.2,4.9-7.4c-0.6-1.5-0.8-3.5-0.4-5.4c1-4.7-0.1-8.8-4-12
			c-3.3-2.7-2.1-4.6,1.3-6.1c4.5-1.9,9.5-2.8,13.7-5.6c1.8-1.2,4-1.5,6.2-1.2c0,29,0,58,0,87c-2.6,0.2-6.7-1.2-7,2.2
			c-0.2,2.6,4.1,2.1,6.5,2.7C425.2,246.1,425.3,246.1,425.5,246.1z M247.5,240.1c-5.7-1.4-9.2,2.1-14.1,5.2
			c5.5,1.6,8.9-2.5,13.1-1.4c3.7,1.8,7.5,3.4,11.7,3.1c2.3-0.1,5.5,0,5.7-2.5c0.2-2.5-2.1-4.7-4.8-5.6c-1-0.3-2.3-0.3-3.4-0.2
			C253,239.2,250.3,239.7,247.5,240.1z M337.3,93c0.7-2,1.4-4.1,2.3-6c1-2.2,0.6-3.6-1.6-4.8c-3.9-2.2-4-8.5,0.3-10.1
			c4.2-1.7,4.9-4.1,4.4-8c-0.2-1.2,0.1-2.8,0.8-3.8c3.5-5.2,2.7-9.6-1.7-14c-1.9-1.9-3.1-4-6.2-4.3c-2.2-0.2-4.4-1.2-5.6-3.6
			c-1.4-2.8-3.6-2.8-5.8-1.1c-2.1,1.6-4.5,1.6-6.9,2.2c-9,2.2-18.2,2.1-27.1,7.2c-8.8,5.1-13.7,11.9-16.9,20.1
			c-2.4,6.3-2.7,13.8,3.1,19.8c5.1,5.3,4.5,8.6-1.8,12.7c-3.5,2.3-7,4.4-10.3,7c-2.6,2-4.1,4.2-0.6,7.2c3,2.6,3,6.2,0.4,9.4
			c-2,2.4-1.7,4.4,0,6.7c1.5,2,3.3,3.7,5.3,5.2c3.6,2.7,7,5.6,8.5,10.1c1.2,3.7,3.5,3.9,6.5,2.1c6.7-4.1,13.9-7.5,19.7-13.1
			c4.9-4.6,5.5-5.7,1.8-11c-6-8.7-4.9-12.7,4.8-17c4-1.7,4.3-3.7,0.5-6.3c-2.7-1.9-5.8-3.2-8.6-4.9c-4.4-2.7-5.7-8.8-2-10.5
			c3.3-1.5,4.4-3.6,4.7-6.8c0.3-2.7,1.2-5.2,3.3-7c2.1-1.8,2.2-3.6,0.6-6c-1.7-2.6-1.4-5.6,0.7-7.8c3.9-4,21.1,0.8,22.6,6.2
			c1.9,6.8-2.3,11.3-9.2,9.7c-1.3-0.3-2.8-1.2-3.6,0.1c-0.6,0.9-0.3,2.6,0,3.8c0.6,2.6,2.4,1.4,4,1c6.7-1.6,10.4,1.5,10,8.2
			c-0.2,2.6-0.6,5.4,1.8,7.4c0.3,1.8,0.5,3.6,0.8,5.4c0.3,1.2,0.5,3,2.4,2.3c1.6-0.6,1.1-2.2,0.6-3.4C338.5,96,337.3,94.7,337.3,93z
			 M387.1,101.7c-2.2-0.4-2.7,0.8-3.4,2c-3.8,5.7,0.8,9.1,3.3,13.1c1.9,3,4.5,2.2,5.5,0.1c2.2-4.9,5-9.3,8.7-13.1
			c0.3-0.4,0.4-1.3,0.2-1.8c-0.2-0.7-1-1.1-1.6-0.6C395.5,104.6,391.1,103.3,387.1,101.7z M277.4,162.5c0-2.3,0.2-4.7-0.1-7
			c-0.3-2.8-2.6-2.6-4.6-2.4c-1.7,0.2-3.3,1.2-2.2,2.9c3.1,4.8,2.1,9.3-0.1,14.1c-1.1,2.4,1.1,3.6,3,4.3c2.4,0.9,2.5-1.2,3.2-2.7
			C278,168.8,277.4,165.7,277.4,162.5z M259,151.7c1.1-0.3,3.2,0.2,2.6-1.4c-1.2-3.2-4.1-5.1-7.4-5.9c-1.9-0.5-2.9,0.9-2.7,2.6
			C252.1,151.6,256.3,150.7,259,151.7z"/>
		<path class="st0" d="M330.4,191.2c-3.6,0.1-4.9-1.7-4.8-4.6c0.1-3.1,0.9-6.4,4.5-6.5c3.1-0.1,6.3,1.5,6.7,5.3
			C337.1,188.3,333.5,191.2,330.4,191.2z"/>
		<path class="st0" d="M322.3,171.7c-0.1-2.7,0.5-4.4,2.8-4.4c2.9,0,4.6,1.7,4.8,4.5c0.2,2.1-0.4,4.3-3.1,4
			C324.3,175.5,322.3,174.1,322.3,171.7z"/>
		<path class="st0" d="M293,62.3c-2,0.1-4.2-1.1-3.9-3.5c0.5-3.7,3.5-4.8,7-4.8c1.9,0,3.4,0.6,3,2.8C298.5,59.9,297.4,62.6,293,62.3
			z"/>
	</g>
	<g>
		<path class="st1" d="M642.8,147.6c-2.2-0.3-4.4,0-6.2,1.2c-4.2,2.8-9.1,3.7-13.7,5.6c-3.4,1.5-4.6,3.4-1.3,6.1c3.9,3.2,5,7.3,4,12
			c-0.4,1.9-0.3,3.9,0.4,5.4c2.2,5.2-1,6.5-4.9,7.4c-5.9,1.4-11-1-13.9-6c-2.9-5.1-8.1-6.7-13.3-7.6c-2.6-0.4-4.4,1.3-3.4,4.5
			c0.2,0.6,0.4,1.3,0.7,1.9c1,2.5,5,3.9,3.4,7.1c-1.2,2.6-5,2.5-7,4.3c-5.1,4.6-9.9,3.4-14.9,0.1c-2.5-1.7-3.1-3.4-0.1-5.2
			c3.5-2.1,5.4-4.7,3.5-9c-1.7-3.9-3.9-7-8.6-6.8c-3.8,0.1-9.4,4.5-10.1,7.7c-0.2,0.8-0.4,1.9,0,2.4c5.8,6.7-2,13.5,0.1,20.3
			c0.7,2.3-2,5-4.9,5.4c-5.1,0.6-10.3,1.1-15.4,1c-5.3-0.1-6.1-1.9-3.4-6.4c0.6-1,1.2-2,1.5-3.1c2.7-8.7,0.3-12.2-8.8-12.3
			c-6.9,0-13.8-1.8-20.8-0.2c-6.9,1.6-9.4,5.4-6.7,12c0.4,1,0.7,2.2,0.9,3.3c0.8,6.5,2.2,7.3,8.5,4.8c2.9-1.1,5.8-2.2,8.7-3.4
			c1.8-0.8,3.6-0.8,5.4-0.7c2.7,0.1,4.1,2.2,5.2,4.2c1.2,2.1-1.1,3.3-2.3,4.4c-3.8,3.5-8.5,5.7-12.9,8.1c-1.8,1-3.9,1.2-5.7-0.1
			c-3.2-2.2-4.9-1-5.9,2.2c-0.6,2-1.5,4-4,3.6c-2.6-0.4-4.2-2.4-3.8-5c0.7-5.2,1.8-10.4-1.9-15.1c-1-1.4,1-2.6,1.8-3.7
			c2.2-3,3.3-5.7,1.1-9.5c-2.6-4.2-1-9-0.5-13.6c0.3-2.1,1.9-1.8,3.5-1.4c10.3,2.7,19.7-1.4,29.4-3.7c3.4-0.8,5.5-2.7,6.7-6
			c2-5.7,9-9.8,15-8.5c8.3,1.8,15.6,0.6,22.1-5.1c3-2.6,4.6-5.1,2.3-8.9c-2-3.2-2-6.2,1.1-8.9c1-0.9,1.3-2.2,1-3.7
			c-4.1-16.7-1.6-33.3,0.4-49.9c0.2-1.8,1.2-3,2.8-3.8c3.2-1.6,5.5-0.6,5.3,3c-0.4,8.5-1,16.9-1.8,25.4c-0.5,5.4-1.5,10.8-2.5,16.2
			c-1.4,8.1,1.7,11.6,10.4,12.9c2.5,0.4,5-0.1,7.4,0.8c0.6,0.7,1.3,1.4,2.2,0.5c0.6,0.2,1.2,0.3,1.7,0.5c2.1,2.5,4.9,1.1,7.5,1.3
			c2.1,0.1,4.4-0.7,6.9,1.1c-5.7,2.8-11.3-2.2-17,1.3c7.2,3.7,14.4,0.8,21.1,2.4c8.2,0,15.9,2.6,23.8,4.2
			C642.8,145.6,642.8,146.6,642.8,147.6z M547.7,184.7c3.1,0,6.7-2.9,6.4-5.8c-0.4-3.9-3.6-5.4-6.7-5.3c-3.6,0.1-4.4,3.4-4.5,6.5
			C542.7,183,544.1,184.8,547.7,184.7z M539.7,165.2c-0.1,2.4,2,3.8,4.6,4.1c2.6,0.3,3.2-1.9,3.1-4c-0.2-2.8-1.9-4.5-4.8-4.5
			C540.2,160.8,539.5,162.4,539.7,165.2z"/>
		<path class="st1" d="M630,69c4.2,1.2,8.5,0,12.8,0.6c0,7,0,14,0,21c-2.7,0.3-1.8-1.9-2-3.1c-0.3-2.4-0.1-4.8-0.8-7.3
			c-1.2-4.7-4.2-6.4-8.6-6.6c-3.8-0.2-7.6,0.6-11.4-0.7c1.7-2.3,4.3-1.8,6.6-2.1C628,70.6,629.8,71.4,630,69z"/>
		<path class="st1" d="M642.8,239.6c-0.2,0-0.3,0-0.5-0.1c-2.4-0.6-6.7-0.1-6.5-2.7c0.3-3.4,4.4-2,7-2.2
			C642.8,236.3,642.8,237.9,642.8,239.6z"/>
		<path class="st1" d="M552.7,86.7c-2.4-2-2-4.8-1.8-7.4c0.4-6.8-3.3-9.9-10-8.2c-1.6,0.4-3.3,1.5-4-1c-0.3-1.2-0.6-2.9,0-3.8
			c0.8-1.3,2.3-0.4,3.6-0.1c6.9,1.5,11.1-3,9.2-9.7c-1.5-5.4-18.7-10.2-22.6-6.2c-2.2,2.2-2.5,5.2-0.7,7.8c1.6,2.4,1.5,4.2-0.6,6
			c-2.1,1.8-3.1,4.3-3.3,7c-0.3,3.2-1.4,5.3-4.7,6.8c-3.7,1.7-2.4,7.8,2,10.5c2.8,1.7,5.9,3,8.6,4.9c3.8,2.6,3.5,4.5-0.5,6.3
			c-9.7,4.2-10.9,8.3-4.8,17c3.7,5.3,3.1,6.4-1.8,11c-5.9,5.6-13,9-19.7,13.1c-3,1.8-5.2,1.6-6.5-2.1c-1.5-4.5-4.9-7.4-8.5-10.1
			c-2-1.5-3.8-3.2-5.3-5.2c-1.7-2.3-2-4.3,0-6.7c2.7-3.1,2.6-6.8-0.4-9.4c-3.5-3.1-1.9-5.3,0.6-7.2c3.3-2.5,6.8-4.7,10.3-7
			c6.3-4.1,6.9-7.4,1.8-12.7c-5.8-6-5.5-13.5-3.1-19.8c3.2-8.1,8.1-15,16.9-20.1c8.9-5.2,18.1-5.1,27.1-7.2c2.4-0.6,4.8-0.6,6.9-2.2
			c2.2-1.7,4.4-1.6,5.8,1.1c1.2,2.4,3.4,3.4,5.6,3.6c3.1,0.2,4.3,2.4,6.2,4.3c4.4,4.4,5.2,8.8,1.7,14c-0.7,1-1,2.6-0.8,3.8
			c0.6,3.9-0.1,6.3-4.4,8c-4.2,1.7-4.2,7.9-0.3,10.1c2.2,1.3,2.6,2.6,1.6,4.8c-0.9,1.9-1.5,4-2.3,6C554,86.6,553.3,86.6,552.7,86.7z
			 M510.3,55.8c4.4,0.3,5.5-2.5,6.1-5.5c0.4-2.2-1.1-2.8-3-2.8c-3.4,0-6.5,1.1-7,4.8C506.1,54.7,508.2,55.9,510.3,55.8z"/>
		<path class="st1" d="M604.5,95.2c3.9,1.6,8.3,3,12.7-0.4c0.6-0.4,1.4,0,1.6,0.6c0.2,0.6,0.2,1.5-0.2,1.8
			c-3.7,3.8-6.5,8.2-8.7,13.1c-0.9,2.1-3.6,3-5.5-0.1c-2.5-4-7.1-7.4-3.3-13.1C601.8,96,602.3,94.8,604.5,95.2z"/>
		<path class="st1" d="M494.7,156c0.1,3.1,0.6,6.3-0.7,9.4c-0.6,1.5-0.8,3.6-3.2,2.7c-1.9-0.7-4.1-2-3-4.3c2.2-4.8,3.2-9.3,0.1-14.1
			c-1.1-1.7,0.5-2.7,2.2-2.9c2-0.3,4.3-0.4,4.6,2.4C494.9,151.4,494.7,153.7,494.7,156z"/>
		<path class="st1" d="M464.8,233.7c2.8-0.5,5.5-1,8.3-1.4c1.1-0.1,2.3-0.1,3.4,0.2c2.7,0.9,5,3.1,4.8,5.6c-0.2,2.5-3.4,2.4-5.7,2.5
			c-4.2,0.2-8-1.4-11.7-3.1C463.3,236,464,234.8,464.8,233.7z"/>
		<path class="st1" d="M619,140.4c-6.7-1.6-14,1.3-21.1-2.4c5.7-3.5,11.3,1.5,17-1.3c-2.4-1.8-4.7-0.9-6.9-1.1
			c-2.5-0.2-5.3,1.2-7.5-1.3c2.9-0.1,5.9,0,8.8-0.2C617.3,133.5,617.9,133.9,619,140.4z"/>
		<path class="st1" d="M476.3,145.3c-2.7-1.1-6.9-0.2-7.4-4.8c-0.2-1.7,0.8-3.1,2.7-2.6c3.3,0.9,6.2,2.7,7.4,5.9
			C479.5,145.4,477.4,145,476.3,145.3z"/>
		<path class="st1" d="M464.8,233.7c-0.8,1.1-1.6,2.3-0.9,3.8c-4.2-1.1-7.7,3.1-13.1,1.4C455.6,235.8,459.2,232.2,464.8,233.7z"/>
		<path class="st1" d="M630,69c-0.2,2.4-2,1.6-3.3,1.7c-2.3,0.3-4.9-0.2-6.6,2.1c-1.2,0.4-2.2-0.4-3.4-0.7
			C621,70.2,625.1,67.8,630,69z"/>
		<path class="st1" d="M552.7,86.7c0.6-0.1,1.3-0.1,1.9-0.2c-0.1,1.8,1.2,3,1.9,4.5c0.6,1.2,1.1,2.8-0.6,3.4
			c-1.9,0.7-2.1-1.1-2.4-2.3C553.2,90.3,553,88.5,552.7,86.7z"/>
		<path class="st1" d="M598.8,133.9c-1,0.9-1.6,0.2-2.2-0.5C597.4,133.1,598.2,133.1,598.8,133.9z"/>
	</g>
	<g>
		<path class="st0" d="M200.1,246.1c0,7.2-0.1,14.3,0.1,21.5c0.1,2.2-0.4,2.6-2.6,2.6c-65-0.1-130-0.1-195,0c-3.5,0-2.5-2-2.5-3.6
			c0-58,0-116,0-174c0-29.7,0.1-59.3-0.1-89C0,0.6,0.6,0,3.6,0c64.3,0.1,128.7,0.1,193,0c3,0,3.6,0.6,3.6,3.6
			c-0.2,24.2-0.1,48.3-0.1,72.5c-4.3-0.5-8.6,0.6-12.8-0.6c-4.9-1.2-9,1.1-13.3,3.1c1.2,0.3,2.2,1.1,3.4,0.7
			c3.7,1.3,7.6,0.4,11.4,0.7c4.4,0.2,7.4,1.9,8.6,6.6c0.6,2.5,0.5,4.9,0.8,7.3c0.1,1.3-0.7,3.4,2,3.1c0,18,0,36,0,54
			c-7.9-1.6-15.6-4.2-23.8-4.2c-1.1-6.5-1.8-6.9-9.7-6.3c-2.9,0.2-5.9,0.2-8.8,0.2c-0.6-0.2-1.2-0.3-1.7-0.5
			c-0.6-0.8-1.4-0.8-2.2-0.5c-2.4-0.9-5-0.4-7.4-0.8c-8.7-1.3-11.9-4.8-10.4-12.9c1-5.4,2-10.8,2.5-16.2c0.8-8.4,1.4-16.9,1.8-25.4
			c0.2-3.6-2.1-4.6-5.3-3c-1.6,0.8-2.6,2-2.8,3.8c-2,16.6-4.6,33.2-0.4,49.9c0.4,1.4,0.1,2.7-1,3.7c-3.1,2.7-3.1,5.7-1.1,8.9
			c2.3,3.8,0.7,6.3-2.3,8.9c-6.6,5.6-13.9,6.9-22.1,5.1c-6-1.3-13,2.8-15,8.5c-1.2,3.3-3.3,5.2-6.7,6c-9.7,2.3-19.1,6.4-29.4,3.7
			c-1.6-0.4-3.3-0.7-3.5,1.4c-0.5,4.6-2.1,9.4,0.5,13.6c2.3,3.8,1.2,6.5-1.1,9.5c-0.9,1.2-2.9,2.4-1.8,3.7c3.7,4.8,2.6,9.9,1.9,15.1
			c-0.4,2.6,1.2,4.6,3.8,5c2.5,0.4,3.3-1.6,4-3.6c1-3.2,2.8-4.5,5.9-2.2c1.8,1.3,4,1.1,5.7,0.1c4.5-2.4,9.2-4.6,12.9-8.1
			c1.2-1.2,3.5-2.3,2.3-4.4c-1.1-2-2.5-4.1-5.2-4.2c-1.8,0-3.6-0.1-5.4,0.7c-2.8,1.3-5.8,2.3-8.7,3.4c-6.3,2.5-7.7,1.7-8.5-4.8
			c-0.1-1.1-0.4-2.3-0.9-3.3c-2.7-6.6-0.2-10.4,6.7-12c7.1-1.6,13.9,0.1,20.8,0.2c9.2,0.1,11.5,3.6,8.8,12.3
			c-0.3,1.1-0.9,2.1-1.5,3.1c-2.7,4.5-2,6.3,3.4,6.4c5.1,0.1,10.3-0.4,15.4-1c2.9-0.4,5.6-3.1,4.9-5.4c-2-6.9,5.8-13.6-0.1-20.3
			c-0.4-0.5-0.2-1.6,0-2.4c0.6-3.2,6.3-7.6,10.1-7.7c4.7-0.1,7,2.9,8.6,6.8c1.8,4.3-0.1,6.9-3.5,9c-3,1.8-2.4,3.6,0.1,5.2
			c5,3.3,9.8,4.5,14.9-0.1c2-1.8,5.8-1.7,7-4.3c1.5-3.2-2.4-4.7-3.4-7.1c-0.2-0.6-0.5-1.2-0.7-1.9c-1-3.1,0.7-4.9,3.4-4.5
			c5.2,0.9,10.3,2.5,13.3,7.6c2.9,5,8,7.3,13.9,6c3.9-0.9,7.1-2.2,4.9-7.4c-0.6-1.5-0.8-3.5-0.4-5.4c1-4.7-0.1-8.8-4-12
			c-3.3-2.7-2.1-4.6,1.3-6.1c4.5-1.9,9.5-2.8,13.7-5.6c1.8-1.2,4-1.5,6.2-1.2c0,29,0,58,0,87c-2.6,0.2-6.7-1.2-7,2.2
			c-0.2,2.6,4.1,2.1,6.5,2.7C199.8,246.1,200,246.1,200.1,246.1z M22.1,240.1c-5.7-1.4-9.2,2.1-14.1,5.2c5.5,1.6,8.9-2.5,13.1-1.4
			c3.7,1.8,7.5,3.4,11.7,3.1c2.3-0.1,5.5,0,5.7-2.5c0.2-2.5-2.1-4.7-4.8-5.6c-1-0.3-2.3-0.3-3.4-0.2
			C27.6,239.2,24.9,239.7,22.1,240.1z M111.9,93c0.7-2,1.4-4.1,2.3-6c1-2.2,0.6-3.6-1.6-4.8c-3.9-2.2-4-8.5,0.3-10.1
			c4.2-1.7,4.9-4.1,4.4-8c-0.2-1.2,0.1-2.8,0.8-3.8c3.5-5.2,2.7-9.6-1.7-14c-1.9-1.9-3.1-4-6.2-4.3c-2.2-0.2-4.4-1.2-5.6-3.6
			c-1.4-2.8-3.6-2.8-5.8-1.1c-2.1,1.6-4.5,1.6-6.9,2.2c-9,2.2-18.2,2.1-27.1,7.2C55.9,51.7,51,58.6,47.8,66.7
			c-2.4,6.3-2.7,13.8,3.1,19.8c5.1,5.3,4.5,8.6-1.8,12.7c-3.5,2.3-7,4.4-10.3,7c-2.6,2-4.1,4.2-0.6,7.2c3,2.6,3,6.2,0.4,9.4
			c-2,2.4-1.7,4.4,0,6.7c1.5,2,3.3,3.7,5.3,5.2c3.6,2.7,7,5.6,8.5,10.1c1.2,3.7,3.5,3.9,6.5,2.1c6.7-4.1,13.9-7.5,19.7-13.1
			c4.9-4.6,5.5-5.7,1.8-11c-6-8.7-4.9-12.7,4.8-17c4-1.7,4.3-3.7,0.5-6.3c-2.7-1.9-5.8-3.2-8.6-4.9c-4.4-2.7-5.7-8.8-2-10.5
			c3.3-1.5,4.4-3.6,4.7-6.8c0.3-2.7,1.2-5.2,3.3-7c2.1-1.8,2.2-3.6,0.6-6c-1.7-2.6-1.4-5.6,0.7-7.8c3.9-4,21.1,0.8,22.6,6.2
			c1.9,6.8-2.3,11.3-9.2,9.7c-1.3-0.3-2.8-1.2-3.6,0.1c-0.6,0.9-0.3,2.6,0,3.8c0.6,2.6,2.4,1.4,4,1c6.7-1.6,10.4,1.5,10,8.2
			c-0.2,2.6-0.6,5.4,1.8,7.4c0.3,1.8,0.5,3.6,0.8,5.4c0.3,1.2,0.5,3,2.4,2.3c1.6-0.6,1.1-2.2,0.6-3.4C113.1,96,111.9,94.7,111.9,93z
			 M161.8,101.7c-2.2-0.4-2.7,0.8-3.4,2c-3.8,5.7,0.8,9.1,3.3,13.1c1.9,3,4.5,2.2,5.5,0.1c2.2-4.9,5-9.3,8.7-13.1
			c0.3-0.4,0.4-1.3,0.2-1.8c-0.2-0.7-1-1.1-1.6-0.6C170.1,104.6,165.7,103.3,161.8,101.7z M52,162.5c0-2.3,0.2-4.7-0.1-7
			c-0.3-2.8-2.6-2.6-4.6-2.4c-1.7,0.2-3.3,1.2-2.2,2.9c3.1,4.8,2.1,9.3-0.1,14.1c-1.1,2.4,1.1,3.6,3,4.3c2.4,0.9,2.5-1.2,3.2-2.7
			C52.6,168.8,52,165.7,52,162.5z M33.6,151.7c1.1-0.3,3.2,0.2,2.6-1.4c-1.2-3.2-4.1-5.1-7.4-5.9c-1.9-0.5-2.9,0.9-2.7,2.6
			C26.7,151.6,30.9,150.7,33.6,151.7z"/>
		<path class="st1" d="M200.1,154.1c-2.2-0.3-4.4,0-6.2,1.2c-4.2,2.8-9.1,3.7-13.7,5.6c-3.4,1.5-4.6,3.4-1.3,6.1c3.9,3.2,5,7.3,4,12
			c-0.4,1.9-0.3,3.9,0.4,5.4c2.2,5.2-1,6.5-4.9,7.4c-5.9,1.4-11-1-13.9-6c-2.9-5.1-8.1-6.7-13.3-7.6c-2.6-0.4-4.4,1.3-3.4,4.5
			c0.2,0.6,0.4,1.3,0.7,1.9c1,2.5,5,3.9,3.4,7.1c-1.2,2.6-5,2.5-7,4.3c-5.1,4.6-9.9,3.4-14.9,0.1c-2.5-1.7-3.1-3.4-0.1-5.2
			c3.5-2.1,5.4-4.7,3.5-9c-1.7-3.9-3.9-7-8.6-6.8c-3.8,0.1-9.4,4.5-10.1,7.7c-0.2,0.8-0.4,1.9,0,2.4c5.8,6.7-2,13.5,0.1,20.3
			c0.7,2.3-2,5-4.9,5.4c-5.1,0.6-10.3,1.1-15.4,1c-5.3-0.1-6.1-1.9-3.4-6.4c0.6-1,1.2-2,1.5-3.1c2.7-8.7,0.3-12.2-8.8-12.3
			c-6.9,0-13.8-1.8-20.8-0.2c-6.9,1.6-9.4,5.4-6.7,12c0.4,1,0.7,2.2,0.9,3.3c0.8,6.5,2.2,7.3,8.5,4.8c2.9-1.1,5.8-2.2,8.7-3.4
			c1.8-0.8,3.6-0.8,5.4-0.7c2.7,0.1,4.1,2.2,5.2,4.2c1.2,2.1-1.1,3.3-2.3,4.4c-3.8,3.5-8.5,5.7-12.9,8.1c-1.8,1-3.9,1.2-5.7-0.1
			c-3.2-2.2-4.9-1-5.9,2.2c-0.6,2-1.5,4-4,3.6c-2.6-0.4-4.2-2.4-3.8-5c0.7-5.2,1.8-10.4-1.9-15.1c-1-1.4,1-2.6,1.8-3.7
			c2.2-3,3.3-5.7,1.1-9.5c-2.6-4.2-1-9-0.5-13.6c0.3-2.1,1.9-1.8,3.5-1.4c10.3,2.7,19.7-1.4,29.4-3.7c3.4-0.8,5.5-2.7,6.7-6
			c2-5.7,9-9.8,15-8.5c8.3,1.8,15.6,0.6,22.1-5.1c3-2.6,4.6-5.1,2.3-8.9c-2-3.2-2-6.2,1.1-8.9c1-0.9,1.3-2.2,1-3.7
			c-4.1-16.7-1.6-33.3,0.4-49.9c0.2-1.8,1.2-3,2.8-3.8c3.2-1.6,5.5-0.6,5.3,3c-0.4,8.5-1,16.9-1.8,25.4c-0.5,5.4-1.5,10.8-2.5,16.2
			c-1.4,8.1,1.7,11.6,10.4,12.9c2.5,0.4,5-0.1,7.4,0.8c0.6,0.7,1.3,1.4,2.2,0.5c0.6,0.2,1.2,0.3,1.7,0.5c2.1,2.5,4.9,1.1,7.5,1.3
			c2.1,0.1,4.4-0.7,6.9,1.1c-5.7,2.8-11.3-2.2-17,1.3c7.2,3.7,14.4,0.8,21.1,2.4c8.2,0,15.9,2.6,23.8,4.2
			C200.1,152.1,200.1,153.1,200.1,154.1z M105,191.2c3.1,0,6.7-2.9,6.4-5.8c-0.4-3.9-3.6-5.4-6.7-5.3c-3.6,0.1-4.4,3.4-4.5,6.5
			C100,189.5,101.4,191.3,105,191.2z M97,171.7c-0.1,2.4,2,3.8,4.6,4.1c2.6,0.3,3.2-1.9,3.1-4c-0.2-2.8-1.9-4.5-4.8-4.5
			C97.5,167.3,96.8,168.9,97,171.7z"/>
		<path class="st1" d="M187.3,75.5c4.2,1.2,8.5,0,12.8,0.6c0,7,0,14,0,21c-2.7,0.3-1.8-1.9-2-3.1c-0.3-2.4-0.1-4.8-0.8-7.3
			c-1.2-4.7-4.2-6.4-8.6-6.6c-3.8-0.2-7.6,0.6-11.4-0.7c1.7-2.3,4.3-1.8,6.6-2.1C185.3,77.1,187.1,77.9,187.3,75.5z"/>
		<path class="st1" d="M200.1,246.1c-0.2,0-0.3,0-0.5-0.1c-2.4-0.6-6.7-0.1-6.5-2.7c0.3-3.4,4.4-2,7-2.2
			C200.1,242.7,200.1,244.4,200.1,246.1z"/>
		<path class="st1" d="M110,93.2c-2.4-2-2-4.8-1.8-7.4c0.4-6.8-3.3-9.9-10-8.2c-1.6,0.4-3.3,1.5-4-1c-0.3-1.2-0.6-2.9,0-3.8
			c0.8-1.3,2.3-0.4,3.6-0.1c6.9,1.5,11.1-3,9.2-9.7c-1.5-5.4-18.7-10.2-22.6-6.2c-2.2,2.2-2.5,5.2-0.7,7.8c1.6,2.4,1.5,4.2-0.6,6
			c-2.1,1.8-3.1,4.3-3.3,7c-0.3,3.2-1.4,5.3-4.7,6.8c-3.7,1.7-2.4,7.8,2,10.5c2.8,1.7,5.9,3,8.6,4.9c3.8,2.6,3.5,4.5-0.5,6.3
			c-9.7,4.2-10.9,8.3-4.8,17c3.7,5.3,3.1,6.4-1.8,11c-5.9,5.6-13,9-19.7,13.1c-3,1.8-5.2,1.6-6.5-2.1c-1.5-4.5-4.9-7.4-8.5-10.1
			c-2-1.5-3.8-3.2-5.3-5.2c-1.7-2.3-2-4.3,0-6.7c2.7-3.1,2.6-6.8-0.4-9.4c-3.5-3.1-1.9-5.3,0.6-7.2c3.3-2.5,6.8-4.7,10.3-7
			c6.3-4.1,6.9-7.4,1.8-12.7c-5.8-6-5.5-13.5-3.1-19.8c3.2-8.1,8.1-15,16.9-20.1c8.9-5.2,18.1-5.1,27.1-7.2c2.4-0.6,4.8-0.6,6.9-2.2
			c2.2-1.7,4.4-1.6,5.8,1.1c1.2,2.4,3.4,3.4,5.6,3.6c3.1,0.2,4.3,2.4,6.2,4.3c4.4,4.4,5.2,8.8,1.7,14c-0.7,1-1,2.6-0.8,3.8
			c0.6,3.9-0.1,6.3-4.4,8c-4.2,1.7-4.2,7.9-0.3,10.1c2.2,1.3,2.6,2.6,1.6,4.8c-0.9,1.9-1.5,4-2.3,6C111.3,93,110.6,93.1,110,93.2z
			 M67.6,62.3c4.4,0.3,5.5-2.5,6.1-5.5c0.4-2.2-1.1-2.8-3-2.8c-3.4,0-6.5,1.1-7,4.8C63.4,61.2,65.5,62.4,67.6,62.3z"/>
		<path class="st1" d="M161.8,101.7c3.9,1.6,8.3,3,12.7-0.4c0.6-0.4,1.4,0,1.6,0.6c0.2,0.6,0.2,1.5-0.2,1.8
			c-3.7,3.8-6.5,8.2-8.7,13.1c-0.9,2.1-3.6,3-5.5-0.1c-2.5-4-7.1-7.4-3.3-13.1C159.1,102.5,159.6,101.3,161.8,101.7z"/>
		<path class="st1" d="M52,162.5c0.1,3.1,0.6,6.3-0.7,9.4c-0.6,1.5-0.8,3.6-3.2,2.7c-1.9-0.7-4.1-2-3-4.3c2.2-4.8,3.2-9.3,0.1-14.1
			c-1.1-1.7,0.5-2.7,2.2-2.9c2-0.3,4.3-0.4,4.6,2.4C52.2,157.8,52,160.2,52,162.5z"/>
		<path class="st1" d="M22.1,240.1c2.8-0.5,5.5-1,8.3-1.4c1.1-0.1,2.3-0.1,3.4,0.2c2.7,0.9,5,3.1,4.8,5.6c-0.2,2.5-3.4,2.4-5.7,2.5
			c-4.2,0.2-8-1.4-11.7-3.1C20.6,242.4,21.3,241.3,22.1,240.1z"/>
		<path class="st1" d="M176.3,146.9c-6.7-1.6-14,1.3-21.1-2.4c5.7-3.5,11.3,1.5,17-1.3c-2.4-1.8-4.7-0.9-6.9-1.1
			c-2.5-0.2-5.3,1.2-7.5-1.3c2.9-0.1,5.9,0,8.8-0.2C174.6,140,175.2,140.4,176.3,146.9z"/>
		<path class="st1" d="M33.6,151.7c-2.7-1.1-6.9-0.2-7.4-4.8c-0.2-1.7,0.8-3.1,2.7-2.6c3.3,0.9,6.2,2.7,7.4,5.9
			C36.8,151.9,34.7,151.5,33.6,151.7z"/>
		<path class="st1" d="M22.1,240.1c-0.8,1.1-1.6,2.3-0.9,3.8c-4.2-1.1-7.7,3.1-13.1,1.4C12.9,242.3,16.5,238.7,22.1,240.1z"/>
		<path class="st1" d="M187.3,75.5c-0.2,2.4-2,1.6-3.3,1.7c-2.3,0.3-4.9-0.2-6.6,2.1c-1.2,0.4-2.2-0.4-3.4-0.7
			C178.3,76.7,182.4,74.3,187.3,75.5z"/>
		<path class="st1" d="M110,93.2c0.6-0.1,1.3-0.1,1.9-0.2c-0.1,1.8,1.2,3,1.9,4.5c0.6,1.2,1.1,2.8-0.6,3.4c-1.9,0.7-2.1-1.1-2.4-2.3
			C110.5,96.8,110.3,95,110,93.2z"/>
		<path class="st1" d="M156.1,140.4c-1,0.9-1.6,0.2-2.2-0.5C154.7,139.5,155.5,139.6,156.1,140.4z"/>
		<path class="st0" d="M105,191.2c-3.6,0.1-4.9-1.7-4.8-4.6c0.1-3.1,0.9-6.4,4.5-6.5c3.1-0.1,6.3,1.5,6.7,5.3
			C111.7,188.3,108.1,191.2,105,191.2z"/>
		<path class="st0" d="M97,171.7c-0.1-2.7,0.5-4.4,2.8-4.4c2.9,0,4.6,1.7,4.8,4.5c0.2,2.1-0.4,4.3-3.1,4
			C99,175.5,96.9,174.1,97,171.7z"/>
		<path class="st0" d="M67.6,62.3c-2,0.1-4.2-1.1-3.9-3.5c0.5-3.7,3.5-4.8,7-4.8c1.9,0,3.4,0.6,3,2.8C73.1,59.9,72,62.6,67.6,62.3z"
			/>
	</g>
</g>
<g>
</g>
<g>
</g>
<g>
</g>
<g>
</g>
<g>
</g>
<g>
</g>
<g>
</g>
<g>
</g>
<g>
</g>
<g>
</g>
<g>
</g>
<g>
</g>
<g>
</g>
<g>
</g>
<g>
</g>
</svg>
