<?xml version="1.0" encoding="utf-8"?>
<!-- Generator: Adobe Illustrator 17.1.0, SVG Export Plug-In . SVG Version: 6.00 Build 0)  -->
<!DOCTYPE svg PUBLIC "-//W3C//DTD SVG 1.1//EN" "http://www.w3.org/Graphics/SVG/1.1/DTD/svg11.dtd">
<svg version="1.1" id="Layer_1" xmlns="http://www.w3.org/2000/svg" xmlns:xlink="http://www.w3.org/1999/xlink" x="0px" y="0px"
	 viewBox="0 0 642.8 220.8" style="enable-background:new 0 0 642.8 220.8;" xml:space="preserve">
<style type="text/css">
	.st0{fill:#070203;}
	.st1{fill:#FB0001;}
	.st2{fill:#060102;}
</style>
<g>
	<g>
		<path class="st0" d="M642.6,1.4c-1.1-0.1-2.3-0.2-3.4-0.2c-7.8,0-15.5,0-23.3-0.1C603.7,1,591.5,1,579.3,0.9
			c-12.4-0.1-24.9-0.2-37.3-0.2c-15.1-0.1-30.2-0.2-45.3-0.2c-0.3,0-0.6,0-1,0c0-0.1,0-0.1,0-0.2c-9.2,0-18.4,0-27.6,0
			c-7.7,0-15.4,0-23,0c-0.2,0-0.5,0-0.7,0c0,0,0.1,0.1,0.1,0.1c0,0.1,0,0.1-0.1,0.2c-0.8,0.1-1.3,0.6-1.4,1.5c-0.1,0-0.2,0-0.2,0
			c0,0.2,0,0.5,0,0.7c0,9.6,0,19.2,0,28.8c0,58.2,0,116.5,0,174.7c0,4.1,0,8.2,0,12.2c0,0.2,0,0.5,0,0.7c0.1,0,0.2,0,0.2,0
			c0.3,1.4,1.5,1.3,2.5,1.3c6.5-0.2,12.9,0,19.4-0.1c0.4,0,1,0.2,1-0.6c0.2-5.4,2.5-10.1,4.7-14.8c3.4-7.4,6.6-15,9.5-22.6
			c0.7-1.7,1-3.5,0.7-5.4c-0.1-0.9-0.5-1.1-1.3-0.6c-0.6,0.4-1,1-1.4,1.6c-0.4,0.5-0.8,1-1.5,0.7c-0.7-0.3-0.8-0.9-0.6-1.5
			c1.5-6.2,1.9-12.6,3.6-18.7c0.7-2.5,1.6-4.8,2.8-7.1c1-1.8,1.4-3.8,0.5-5.8c-2.1-4.8-2-9.7-0.9-14.7c0.9-4.3,2.1-8.6,2.7-13
			c0.5-3.6,2.2-6.9,4.1-10c1.5-2.4,3-4.8,4.6-7.2c0.6-0.9,1.5-1.6,2.4-2.1c0.8-0.5,1.6-0.9,2.4-1.3c2-0.9,2.6-2.9,3.5-4.7
			c0.1-0.2,0.1-0.4,0-0.6c-1.3-1.6-0.9-3.6-1.2-5.4c-0.5-2.6-1.1-5.1-2.2-7.5c-0.6-1.3-0.8-2.7-1.2-4.1c-0.1-0.6-0.1-1.2,0.4-1.7
			c0.9-0.4,1.8-0.9,2.7-1.3c3.1-1.4,6-1,8.6,1.3c0.4,0.4,0.9,0.8,1.4,1.2c2.4,1.8,3.9,1.5,5.6-0.9c0.6-0.8,1.3-1.2,2.4-0.9
			c2.3,0.7,3,0.2,3-2.2c0-0.3,0-0.6,0-0.8c0.1-3.4,1.5-5.2,4.8-6.1c0.5-0.1,1.1-0.2,1.6-0.4c3.8-0.8,7.7-1.4,11.1-3.5
			c1.3-0.8,2-0.4,2.2,1.1c0.2,1.5,0.5,2.9,1,4.3c0.8,2.2,2,2.7,4.1,1.7c1.3-0.6,2.5-1.5,3.7-2.4c1.5-1.1,3.1-1.3,4.8-0.8
			c1.2,0.3,1.4,0.7,1,1.9c-0.2,0.6-0.7,1.1-0.2,1.8c-0.2,2.7,0.3,5.2,1,7.8c0.5,1.8,1.1,2.1,3,1.9c1.1-0.2,2.3-0.2,3.4-0.4
			c1.8-0.4,2.5-1.4,2.6-3.2c0-0.5,0-0.9,0.4-1.3c0.6-0.7,0.4-1.5,0.3-2.4c-0.4-3.1,0.2-4.7,3.4-6c0.8-0.3,1.6-0.2,2.5-0.1
			c-1.5,2.4-0.4,5.1-0.9,7.6c-0.5,2.8-1,5.7-1.8,8.4c-0.3,1.3-1.5,2.1-2.7,2.6c-1.3,0.6-2.4,1.4-3.3,2.5c-0.3,0.5-0.7,0.6-1.2,0.6
			c-2.5,0.1-4.1,1.9-4.1,4.4c0.1,2.4,0.3,4.8,0,7.2c-0.4,3.6-1.3,6.9-3.7,9.7c-1.2,1.4-2.1,2.9-2.4,4.8c-3.3,2.9-6.6,5.7-9.5,9
			c-2.2,2.5-4.8,4.2-7.9,5.1c-2.4,0.7-4.9,1.5-6.9,3.2c-0.3,0.2-0.5,0.3-0.9,0.1c-3.8-1.6-6.8-4.1-6.6-8.3c0.1-2.3-0.9-4-2.7-5.3
			c-0.9-0.6-1.2-0.5-1.8,0.4c-2.3,4-2.9,8.3-3,12.8c-0.1,4.1,0.3,8.2,0,12.3c-0.4,4.8-0.8,9.5-3.1,13.9c-1.2,2.3-2.2,4.7-3.2,7.1
			c-2.3,5.3-5,10.4-6.6,16c-2.4,8.4-2.9,17-3.1,25.6c-0.1,5.4-0.1,10.8-0.5,16.2c-0.1,0.9,0.3,0.9,1,0.9c7.6,0,15.2,0,22.8,0
			c1.6,0,1.7,0,1.2-1.6c-0.4-1.3-0.1-1.6,1.1-1.3c3.4,0.8,6.8,1,10.2,0.8c2.1-0.1,4.2,0,6.4,0.1c0.9,0,1.8,0.3,2.1,1.3
			c0.2,1,1,0.5,1.5,0.6c0.7,0.2,0.7-0.4,0.9-0.8c0.5-1.6,1.4-2.4,3.1-2.5c0.7-0.1,1.4,0,2.2,0c2.1,0,2.1,0,1.4,1.9
			c-0.4,1-0.2,1.4,0.9,1.4c3.5,0,7,0,10.4,0c0.3,0,0.6,0.2,0.7-0.2c0.1-0.3-0.1-0.6-0.3-0.8c-0.6-0.5-1.3-0.7-2-1
			c-1.1-0.5-1.3-1-0.5-2c0.8-1,1.8-1.3,3.1-0.9c1,0.3,1.8,0.9,2.6,1.4c0.5,0.3,1,0.6,1.6,0.7c2,0.5,2.2,0.7,1.7,2.8
			c0.4,0,0.9,0,1.3,0c8.8,0,17.5,0,26.3,0c2.5,0,5,0,7.4,0c0.4,0,0.9,0.2,1-0.4c0.5-2.5,2.5-2.9,4.5-3.4c0.8-0.2,0.8,0.2,0.6,0.8
			c-0.3,0.6-0.7,1.1-1.1,1.7c-0.5,1-0.3,1.3,0.8,1.3c8.7,0,17.4,0,26,0c0.8,0,1.1,0,0.7-1c-1.8-4.9-3.7-9.7-6.1-14.3
			c-4.5-8.6-10.5-15.7-19.2-20.3c-0.6-0.3-1.1-0.9-1.6-1.4c-3.7-3.6-7.4-7.2-10.1-11.7c-0.9,2.1-0.9,4.6,0,6.7
			c1.8,4.4,3.8,8.8,5.6,13.2c1.8,4.3,1,5.9-3.4,7.3c-3.4,1.1-5.2,0.3-6.9-2.8c-0.4-0.8-0.8-1.7-1.5-2.3c-0.8-0.7-2.1-0.7-2.9,0
			c-0.8,0.7-0.4,1.5-0.1,2.2c0.4,0.8,0.8,1.6,0.6,2.7c-2.5-3.2-5-6.2-7.5-9.4c-1.7,1.9-2.4,4.1-2.5,6.5c-0.1,4-1.2,7.8-2.7,11.5
			c-1.2,2.9-3.1,4-6.2,3.9c-1.7-0.1-2.4-0.6-2.9-2.3c-0.9-3.1-3-5.3-5.8-6.9c-1.1-0.6-2.3-0.6-3.4,0c-2,1.1-3.2,2.8-3.8,4.9
			c-0.4,1.5,0,3.1-0.6,4.6c-0.1,0-0.2,0-0.2-0.1c-3.8-6.3-3.7-13.2,2.5-18c1.2-0.9,2.1-2,2.7-3.4c0.5-1.2,0.7-2.5-0.2-3.6
			c-0.7-0.9-1.5-1.7-2.5-2.4c-1.8-1.4-3.7-1.5-5.7-0.4c-1.8,1-3.7,1.5-5.7,1.8c-1.1,0.1-1.9-0.2-2.3-1.3c-0.5-1.2-0.3-2.2,0.6-2.9
			c0.5-0.4,1.1-0.6,1.7-0.8c0.9-0.3,1.7-0.7,2.4-1.3c0.4-0.4,0.4-0.7-0.2-0.9c-3.2-1.1-6.2-0.8-8.8,1.6c-1.3,1.2-2.4,2.7-3.4,4.1
			c-0.7,1-1.3,2-2.3,2.9c-1.3-1.5-2.8-2.6-4.7-2.9c-3.1-0.5-6,0.1-8.9,1.2c-1.3,0.5-2,1.5-2,3c0,1.4,0.5,2.6,0.9,3.8
			c0.4,1.2,0.9,2.5,1.1,3.8c0.1,1.5-0.7,2.4-2.3,2.4c-1.5,0-2.3-1.4-1.9-3.3c0.2-1.2,0.2-2.3-0.5-3.2c-0.9-1.2-1.8-2.3-2.8-3.4
			c-0.8-0.8-1.8-0.5-2,0.6c-0.3,1.4-0.6,2.8-1,4.2c-0.9,3.2-1.3,6.4-0.5,9.7c0.3,1.1,0.1,2.2,0,3.3c-0.6,3.6-2.5,6.7-3.9,10
			c-0.4-3.4-1.1-6.7-0.6-10.1c0.3-2.5,1.3-4.8,2-7.1c1.1-3.6,2.2-7.2,2-11c-0.1-2.2,0-2.3,2-3.1c2.2-0.8,2.8-2,1.7-4.2
			c-0.4-0.9-0.9-1.7-1.4-2.5c-0.6-1.2-0.7-2.3-0.1-3.5c0.7-1.3,1.1-2.6,1.4-4c0.7-3.1,1.8-6.1,3.6-8.8c2.7-4,4-8.6,4.3-13.5
			c0.3-4.5-0.4-8.9-1.3-13.3c-0.4-1.7-0.3-3.4,0.5-5c1-2.1,2.6-2.4,4.2-0.8c1.2,1.2,2.3,2.4,3.3,3.8c1.2,1.8,3,3.1,4.9,4.1
			c1,0.5,2,0.4,3-0.1c4.3-2.3,8.7-4.4,12.7-7.1c2.9-1.9,5.6-4,7.8-6.7c1.5-1.3,2.7-2.9,4.2-4c0.3-0.2,0.6-0.6,0.7-0.9
			c1.1-3.4,3.4-6.4,4-10c0.2-1.5,1.5-2.7,1.5-4.3c0-0.6,0.7-1,1.4-1.2c2.5-0.5,5.1-1.1,7.6-1.7c0.8-0.2,1.4,0.2,2,0.6
			c1.1,0.6,2.7,0.7,2.9,2.4c0,0.2,0.4,0.5,0.6,0.5c2.9,0.3,5.2,2.1,7.8,3.1c5.9,2.3,12,4.1,18.3,5.1c2.4,0.4,4.6,1.4,6.7,2.6
			c1.9,1.1,3.7,2.1,5.6,3.1c1.3,0.7,2.6,1.1,4.1,1.4c3.7,0.6,6.5,2.8,8.8,5.6c0.9,1.1,1.7,2.3,2.5,3.5c2.3,4,5.7,6.9,9.2,9.6
			c0.1,0.1,0.2,0.1,0.3,0.1c0-0.2,0-0.3,0-0.5c0-45.4,0-90.9,0-136.3C642.7,1.4,642.7,1.4,642.6,1.4z M541.6,55.2
			c-7.8-0.3-15.1,1.6-21.3,6.4c-2.8,2.1-5.7,3-9.1,2.7c-1.5-0.1-3-0.1-4.5-0.1c-3.5,0.1-6.6,1-9.2,3.7c-0.3-0.8-0.4-1.4-0.5-2.1
			c-0.2-1.2-0.1-2.5-1.2-3.4c0-2.2-0.1-4.5-0.1-6.7c0-1-0.1-1.9-0.1-2.9c1.3-3.4,2.9-6.7,4.3-10c0.2-0.4,0.6-0.6,0.9-0.9
			c0.5-0.5,0.9-1.1,0.9-1.8c0.4-3,1.9-5.1,4.6-6.3c2-0.9,3.9-2.1,5.8-3.4c3.4-2.4,7.4-3.3,11.2-4.6c1.6-0.5,2.7,0.2,3.1,1.9
			c0.1,0.5,0.2,1,0.1,1.4c-0.2,1.6,0.6,2.5,1.8,3.2c1.6,1,3.1,1.7,5.1,1.3c1.4-0.3,2.8,0.2,4.1,0.8c1,0.5,2,1.1,3.1,1.6
			c0.9,0.4,1.1,0.9,1,1.8c-0.1,0.8-0.4,1.6-0.7,2.4c-0.5,1.9-0.2,3.6,1.2,4.9c0.8,0.8,1.8,1,2.8,0.4c1.7-0.9,2.2-0.8,3.5,0.6
			c0.8,0.9,1.5,2,2.8,2.4c0.1,0,0.1,0.1,0.2,0.1c0.4,0.6,0.2,3.7-0.3,4.2c-0.6,0.5-1,1.3-1.7,1.6C546.9,54.7,544.3,55.2,541.6,55.2z
			"/>
		<path class="st0" d="M501.8,127.1c3.8-0.6,5.5-3.2,4.5-6.9c-0.1-0.3-0.2-0.6-0.2-0.9c-0.2-1.1,0-1.8,1.2-2.2
			c1.9-0.6,3-2.1,3.2-4.1c0.1-1.2,0.2-2.4,0.3-3.6c0.4-4.2-1.5-7.2-5-9.4c-2-1.2-3.6-1.2-5.4,0.3c-1.9,1.5-3.4,3.4-4.6,5.5
			c-1.3,2.2-0.9,3.9,1.2,5.4c0.7,0.5,1.4,0.9,2,1.5c0.9,1,1,1.9,0.1,3c-0.9,1.1-1.9,1.9-3.3,2.3c-0.9,0.2-1.7,0.5-2.2,1.3
			c-0.2,0.4-0.4,0.7,0.2,0.8c2.2,0.3,2.9,1.7,3.2,3.7C497.4,126.6,499,127.6,501.8,127.1z"/>
		<path class="st0" d="M516.1,97.4c-2.9,1.2-3.6,2.4-2.9,4.7C514.6,100.8,516.5,99.9,516.1,97.4z"/>
		<path class="st0" d="M550,177.2c1.3-0.1,3.2-1,4-1.9c0.1-0.2,0.3-0.4,0.3-0.6c-0.1-0.3-0.5-0.2-0.7-0.3
			C551.8,174.3,550.8,175.1,550,177.2z"/>
	</g>
	<g>
		<path class="st1" d="M118.9,113.1c0.2-0.2,0.3-0.5,0.3-0.8c0.2-0.4,0.5-0.8,0.7-1.1c0.4-1.6,0.9-3.2,1.3-4.9c1-0.8,0.9-2,1.1-3
			c0,0-0.2,0.1-0.2,0.1c0.4-0.4,0.7-0.8,1.1-1.2l0,0.1c3-0.6,5.9-1.3,8.9-1.9c1.3,0.6,2.6,1.3,3.9,1.9c0.1,1.3,0.7,2.1,2.1,1.7
			c7.9,3.9,16.4,6.8,24.9,8.1c6.5,1.1,10.5,6.1,16.7,7.2c4.9,0.8,8.5,4.9,11.2,9.3c2.3,3.9,5.8,6.8,9.3,9.6c0,25.7-0.1,51.3,0.1,77
			c0,4.2-0.9,5.9-5.1,5c-0.6-0.1-1.3,0-2,0c-5.2-14.2-11.3-27.8-25.7-35.4c-1-0.5-1.7-1.5-2.6-2.3c-3.3-3.2-6.6-6.4-9.3-10.8
			c-0.7,2.6-0.8,4.5-0.1,6.4c1.8,4.5,3.7,8.8,5.6,13.3c1.2,2.8,2.1,5.6-1.6,7.1c-3.1,1.2-6.4,2.2-8.4-2c-0.8-1.6-1.9-3.7-4-2.8
			c-2.4,1.1,0.8,2.9,0.1,5.3c-2.8-3.4-5.1-6.4-7.5-9.5c-1.8,2.2-2.4,4.4-2.5,7c-0.1,4-1.3,7.8-2.9,11.5c-1.1,2.6-3.4,3.5-6.1,3.4
			c-1.5-0.1-2.4-0.6-2.8-2.2c-0.7-3.5-5.7-8.3-8.2-7.4c-3.5,1.3-5.2,4.4-5.1,8.3c0,0.6-0.2,1.2-0.3,2c-4.4-7.2-3.6-14,2.2-18.5
			c2.6-2,4.1-5.2,2.4-7.1c-1.5-1.7-4.2-4.9-7.9-2.8c-1.3,0.7-2.7,1.2-4.2,1.6c-1.4,0.3-3.2,0.9-3.9-0.9c-0.7-1.8,0.1-3.3,2.1-3.8
			c1.4-0.3,2.4-1,3-2c-8.4-3.3-11.1,3.7-15.1,8.5c-3.4-4.3-8.3-3.3-12.1-2.4c-5.9,1.4-2.6,6.2-1.7,9.6c0.5,2,0.5,3.6-1.5,3.9
			c-2.2,0.4-2.9-1.7-2.5-3.3c0.7-3.1-1.8-4.4-3-6.3c-0.6-0.9-2-1.2-2.2,0.2c-0.8,4.2-2.6,8.7-1.8,12.6c1.4,6.2-2.1,10.3-3.8,15.3
			c-0.3-4.4-1.3-8.7-0.1-12.9c1.6-5.4,3.9-10.5,3.6-16.3c0-0.8,0.2-2.2,0.5-2.3c6-1.2,3.4-4.3,1.7-7.3c-0.4-0.8-0.5-2.2-0.1-2.9
			c2.1-3.7,1.9-8.3,4.2-11.5c6.4-8.9,6.4-18.4,4-28.4c-0.5-2.3-0.1-5.6,1.9-6.7c1.8-1,3.6,1.7,5.1,3.2c0.8,0.8,1.2,2.1,2.1,2.7
			c2,1.5,4.1,4.1,6.9,2.6c7.4-4,15.1-7.5,20.7-14.2c0.6-0.6,1.3-1.3,1.9-1.9c0.3-0.4,0.7-0.7,1-1.1c1.2-0.7,1.9-1.6,2.1-3
			C117.8,115.1,118.3,114.1,118.9,113.1z"/>
		<path class="st1" d="M111.8,174.4c-2.3-0.5-3.7,0.3-4.4,2.8C109.2,176.5,110.8,176.1,111.8,174.4z"/>
		<path class="st1" d="M71.6,179c0.3-0.1,0.6-0.2,0.8-0.4c-0.2-0.2-0.5-0.5-0.7-0.4c-0.4,0-0.7,0.3-1,0.5
			C71,178.8,71.3,178.9,71.6,179z"/>
		<path class="st1" d="M58.2,91c-0.1-0.6-0.2-1.3-0.4-1.9c0-0.3,0-0.7,0-1c-0.4-2-0.7-4-1.1-6c-0.6-1.3-1.2-2.7-1.8-4
			c0.1-1.7-1.4-3.1-0.6-4.9c4-2.4,7.8-3.7,12,0.2c1.4,1.4,4.4,3.6,6.4-0.3c0.3-0.5,1.6-1,2.1-0.8c3.2,1.3,3.2-0.8,3.2-2.9
			c0-3.7,1.9-5.5,5.5-6.3c4.2-0.9,8.6-1.5,12.4-3.9l-0.2,0.1c1.3-0.7,1.9,0.1,2,1.1c1.2,7.7,2.5,8.3,8.6,3.8
			c1.7-1.2,3.5-1.3,5.1-0.8c2.3,0.7-0.2,2.6,0.5,3.8c0,1.4,0.1,2.8,0.1,4.2c1.1,2,0.5,6.1,3.6,5.3c2-0.5,6.8,0.5,6.2-4.5
			c1-0.8,1-1.9,0.7-3c0-0.7,0-1.3,0-2c0-0.3,0-0.7,0.1-1c1.4-2.3,3.3-3.4,6-2.9l-0.1-0.1c-0.5,1.3-1.2,2.5-0.7,4
			c0,4.3-1.2,8.4-2,12.6c-0.5,0.5-1,1-1.5,1.6c-0.4,0-0.6,0.2-0.6,0.6c-1.9,0.4-3.1,1.6-4.2,3.1l0.1-0.1c-1.5,0.5-3.7-0.5-4,2.1
			c-1.4,1.3-0.9,3.1-0.8,4.6c0.1,4.3-0.1,8.4-2.1,12.3c-0.2,0.4-0.5,0.8-0.7,1.1c-1.5,1.8-2.9,3.6-3.4,6c-3.6,3.4-7.4,6.6-10.7,10.3
			c-3.7,4.3-9.9,3.6-13.8,7.3c-0.2,0.2-1.2-0.2-1.7-0.5c-3.1-1.6-5.7-3.8-5.6-7.6c0.1-3-1.3-4.8-3.8-6.2c-5.6,8.2-2.9,17.3-3.7,25.8
			c-0.4,4.3-0.5,8.4-2.2,12.3c-2.8,6.2-5.7,12.3-8.4,18.5c-6.9,15.8-4.8,32.7-5.9,49.1c-10,0-20,0-30,0c0.1-8.3,5-15,7.8-22.3
			c2.1-5.6,4.8-10.9,6.7-16.6c0.6-1.8,0.6-3.5,0.3-5.4c-2.1-0.3-2.2,2.4-3.8,2.7c-1.1-0.3-1.1-1.3-0.9-2c2.1-8.6,2-17.7,6.5-25.7
			c1-1.8,1.1-4.2,0.3-5.8c-3.9-9.1,0.7-17.4,1.7-26.1c0.8-7.2,5.3-12.6,8.9-18.5c1.9-3.1,7-2.8,7.7-7.2C59.1,92.4,59.2,91.7,58.2,91
			z"/>
		<path class="st1" d="M50.5,119.8c1.7,0.3,3.3,0.9,3.5,2.9c0.4,3.2,2.1,4.9,5.4,4.1c3.5-0.9,5.3-3.2,4.1-6.9
			c-0.3-1-0.5-2.5,0.3-2.7c4.7-1.4,3.8-4.9,4.1-8.5c0.3-4.6-2.5-7.4-5.5-9.1c-3.2-1.8-5.9,1.5-7.7,3.8c-1.9,2.4-4.2,5.4,0.3,8.1
			c3.4,2.1,2,4.2-0.8,5.9C53.1,118.1,51.4,117.8,50.5,119.8z"/>
		<path class="st1" d="M70.5,102c1.3-1.5,3.4-2.1,3-4.9C71.1,98.2,69.7,99.2,70.5,102z"/>
		<path class="st1" d="M78.1,220.1c1-0.8-1.8-3.7,1.3-2.9c5.3,1.4,10.6,0.6,15.9,0.9c1.4,0.1,2.7,0.2,2.8,2
			C91.4,220.1,84.8,220.1,78.1,220.1z"/>
		<path class="st1" d="M119.1,220.1c0-2.2-4.7-1.4-3.1-3.8c1.8-2.8,4.5-0.6,6.5,0.6c1.1,0.7,4.2,0.2,2.7,3.2
			C123.1,220.1,121.1,220.1,119.1,220.1z"/>
		<path class="st1" d="M100.1,220.1c0.5-4.4,4.4-3.2,6.6-3.3c2.5-0.1-0.9,2.2,0.4,3.3C104.8,220.1,102.4,220.1,100.1,220.1z"/>
		<path class="st1" d="M161.1,220.1c0.4-3.2,2.9-3.4,5.4-4c0.1,1.8-1.9,2.5-1.4,4C163.8,220.1,162.4,220.1,161.1,220.1z"/>
		<path class="st1" d="M0.1,136.1c1.6,1.7,1.3,3.3,0,5C0.1,139.4,0.1,137.7,0.1,136.1z"/>
		<path class="st1" d="M62.3,34.2c5.1-2,9-6.2,14.4-7.3c2.6-0.5,7.6-4.4,7.2,3.3c0,1.1,4.1,3.7,5.8,3.3c3.9-0.9,6.2,1.5,9.1,2.7
			c0.7,1.9-0.7,3.4-0.7,5.2c0,3,2.4,5,4.1,4c3.1-2,3.4,1,4.9,1.7c0.3,0.9,1,1.1,1.8,1.3c0.1,1.2,0.2,2.5,0.3,3.7
			c-0.7,0.7-1.4,1.4-2.1,2.1c-2.3,0.3-4.6,0.9-6.8,0.8c-8.7-0.4-16.7,1.7-23.6,7c-2.1,1.6-4.4,2.1-7,2.1c-5.3-0.1-10.7-0.9-15,3.7
			c-0.9-2.3-0.3-4.3-1.7-5.7c0-2,0-4,0-6c0-1.3,0-2.7,0-4c1.4-3.2,2.9-6.5,4.3-9.7c1.1-0.8,2-1.7,1.8-3.3c0.4-0.9,0.8-1.9,1.2-2.8
			C60.9,35.5,61.6,34.9,62.3,34.2z"/>
		<path class="st1" d="M5.3,155.3c-0.9,3.2-1.8,4.3-4.3,4.7C2.4,158.4,3.4,157.4,5.3,155.3z"/>
		<g>
			<path class="st2" d="M198.1,0c-5,0.2-10,0.1-15,0.1C123.3,0.1,63.6,0.1,3.9,0C0.8,0,0,0.6,0,3.8C0.1,47.9,0.1,92,0.1,136.1
				c1.6,1.7,1.3,3.3,0,5c0,25.3,0,50.7-0.1,76c0,2.5,0.6,3.1,3.1,3.1c6.7-0.2,13.3-0.1,20-0.1c0.1-8.3,5-15,7.8-22.3
				c2.1-5.6,4.8-10.9,6.7-16.6c0.6-1.8,0.6-3.5,0.3-5.4c-2.1-0.3-2.2,2.4-3.8,2.7c-1.1-0.3-1.1-1.3-0.9-2c2.1-8.6,2-17.7,6.5-25.7
				c1-1.8,1.1-4.2,0.3-5.8c-3.9-9.1,0.7-17.4,1.7-26.1c0.8-7.2,5.3-12.6,8.9-18.5c1.9-3.1,7-2.8,7.7-7.2c0.9-0.7,0.9-1.4,0-2.1
				c-0.1-0.6-0.2-1.3-0.4-1.9c0-0.3,0-0.7,0-1c-0.4-2-0.7-4-1.1-6c-0.6-1.3-1.2-2.7-1.8-4c0.1-1.7-1.4-3.1-0.6-4.9
				c-0.5-0.4-0.9-0.8-1.3-1.2c0.4,0.4,0.8,0.8,1.3,1.2c4-2.4,7.8-3.7,12,0.2c1.4,1.4,4.4,3.6,6.4-0.3c0.3-0.5,1.6-1,2.1-0.8
				c3.2,1.3,3.2-0.8,3.2-2.9c0-3.7,1.9-5.5,5.5-6.3c4.2-0.9,8.6-1.5,12.4-3.9c0,0,0,0,0,0c1.2-0.6,1.7,0.2,1.9,1.2
				c1.2,7.7,2.5,8.3,8.6,3.8c1.7-1.2,3.5-1.3,5.1-0.8c2.3,0.7-0.2,2.6,0.5,3.8c0,1.4,0.1,2.8,0.1,4.2c1.1,2,0.5,6.1,3.6,5.3
				c2-0.5,6.8,0.5,6.2-4.5c1-0.8,1-1.9,0.7-3c0-0.7,0-1.3,0-2c0-0.3,0-0.7,0.1-1c1.4-2.3,3.3-3.4,6-2.9c-0.5,1.3-1.2,2.5-0.7,3.9
				c0,4.3-1.2,8.4-2,12.6c-0.5,0.5-1,1-1.5,1.6c-0.4,0-0.6,0.2-0.6,0.6c-0.1,0.6-0.3,1.1-0.5,1.5c0.2-0.4,0.4-0.9,0.5-1.5
				c-1.8,0.4-3.1,1.6-4.1,3.1c-1.5,0.4-3.7-0.5-4,2.1c-1.4,1.3-0.9,3.1-0.8,4.6c0.1,4.3-0.1,8.4-2.1,12.3c-0.2,0.4-0.5,0.8-0.7,1.1
				c-1.5,1.8-2.9,3.6-3.4,6c-3.6,3.4-7.4,6.6-10.7,10.3c-3.7,4.3-9.9,3.6-13.8,7.3c-0.2,0.2-1.2-0.2-1.7-0.5
				c-3.1-1.6-5.7-3.8-5.6-7.6c0.1-3-1.3-4.8-3.8-6.2c-5.6,8.2-2.9,17.3-3.7,25.8c-0.4,4.3-0.5,8.4-2.2,12.3
				c-2.8,6.2-5.7,12.3-8.4,18.5c-6.9,15.8-4.8,32.7-5.9,49.1c8.3,0,16.7,0,25,0c1-0.8-1.8-3.7,1.3-2.9c5.3,1.4,10.6,0.6,15.9,0.9
				c1.4,0.1,2.7,0.2,2.8,2c0.7,0,1.3,0,2,0c0.5-4.4,4.4-3.2,6.6-3.3c2.5-0.1-0.9,2.2,0.4,3.3c4,0,8,0,12,0c0-2.2-4.7-1.4-3.1-3.8
				c1.8-2.8,4.5-0.6,6.5,0.6c1.1,0.7,4.2,0.2,2.7,3.2c12,0,24,0,36,0c0.4-3.2,2.9-3.4,5.4-4c0.1,1.8-1.9,2.5-1.4,4
				c9.3,0,18.7,0,28,0c-5.2-14.2-11.3-27.8-25.7-35.4c-1-0.5-1.7-1.5-2.6-2.3c-3.3-3.2-6.6-6.4-9.3-10.8c-0.7,2.6-0.8,4.5-0.1,6.4
				c1.8,4.5,3.7,8.8,5.6,13.3c1.2,2.8,2.1,5.6-1.6,7.1c-3.1,1.2-6.4,2.2-8.4-2c-0.8-1.6-1.9-3.7-4-2.8c-2.4,1.1,0.8,2.9,0.1,5.3
				c-2.8-3.4-5.1-6.4-7.5-9.5c-1.8,2.2-2.4,4.4-2.5,7c-0.1,4-1.3,7.8-2.9,11.5c-1.1,2.6-3.4,3.5-6.1,3.4c-1.5-0.1-2.4-0.6-2.8-2.2
				c-0.7-3.5-5.7-8.3-8.2-7.4c-3.5,1.3-5.2,4.4-5.1,8.3c0,0.6-0.2,1.2-0.3,2c-4.4-7.2-3.6-14,2.2-18.5c2.6-2,4.1-5.2,2.4-7.1
				c-1.5-1.7-4.2-4.9-7.9-2.8c-1.3,0.7-2.7,1.2-4.2,1.6c-1.4,0.3-3.2,0.9-3.9-0.9c-0.7-1.8,0.1-3.3,2.1-3.8c1.4-0.3,2.4-1,3-2
				c-8.4-3.3-11.1,3.7-15.1,8.5c-3.4-4.3-8.3-3.3-12.1-2.4c-5.9,1.4-2.6,6.2-1.7,9.6c0.5,2,0.5,3.6-1.5,3.9
				c-2.2,0.4-2.9-1.7-2.5-3.3c0.7-3.1-1.8-4.4-3-6.3c-0.6-0.9-2-1.2-2.2,0.2c-0.8,4.2-2.6,8.7-1.8,12.6c1.4,6.2-2.1,10.3-3.8,15.3
				c-0.3-4.4-1.3-8.7-0.1-12.9c1.6-5.4,3.9-10.5,3.6-16.3c0-0.8,0.2-2.2,0.5-2.3c6-1.2,3.4-4.3,1.7-7.3c-0.4-0.8-0.5-2.2-0.1-2.9
				c2.1-3.7,1.9-8.3,4.2-11.5c6.4-8.9,6.4-18.4,4-28.4c-0.5-2.3-0.1-5.6,1.9-6.7c1.8-1,3.6,1.7,5.1,3.2c0.8,0.8,1.2,2.1,2.1,2.7
				c2,1.5,4.1,4.1,6.9,2.6c7.4-4,15.1-7.5,20.7-14.2c0.6-0.6,1.3-1.3,1.9-1.9c0.3-0.4,0.7-0.7,1-1.1c1.2-0.7,1.9-1.6,2.1-3
				c0.5-1,1.1-2,1.6-3c0.2-0.2,0.3-0.5,0.3-0.8c0.2-0.4,0.5-0.8,0.7-1.1c0.4-1.6,0.9-3.2,1.3-4.9c-0.1-0.3-0.2-0.5-0.2-0.7
				c0.1,0.2,0.1,0.5,0.2,0.7c1-0.8,0.9-2,1.1-3c0,0-0.1,0-0.1,0c0.3-0.4,0.6-0.7,1-1.1c0,0,0,0,0,0c3-0.6,5.9-1.3,8.9-1.9
				c1.3,0.6,2.6,1.3,3.9,1.9c0.1,1.3,0.7,2.1,2.1,1.7c7.9,3.9,16.4,6.8,24.9,8.1c6.5,1.1,10.5,6.1,16.7,7.2
				c4.9,0.8,8.5,4.9,11.2,9.3c2.3,3.9,5.8,6.8,9.3,9.6c0-41.3,0-82.7,0-124c0-4-0.1-8,0.1-12C200.2,0.3,199.8,0,198.1,0z M96,59
				c-0.1-0.2-0.2-0.3-0.4-0.5c0.2,0,0.4,0.1,0.6,0.1C96.1,58.7,96.1,58.9,96,59z M111.1,51.1c-0.6,0.3-1.3,0.7-1.9,1
				c-0.7,0.7-1.4,1.4-2.1,2.1c-2.3,0.3-4.6,0.9-6.8,0.8c-8.7-0.4-16.7,1.7-23.6,7c-2.1,1.6-4.4,2.1-7,2.1c-5.3-0.1-10.7-0.9-15,3.7
				c-0.9-2.3-0.3-4.3-1.7-5.7c0-2,0-4,0-6c0-1.3,0-2.7,0-4c1.4-3.2,2.9-6.5,4.3-9.7c1.1-0.8,2-1.7,1.8-3.3c0.4-0.9,0.8-1.9,1.2-2.8
				c0.7-0.7,1.4-1.4,2.1-2.1c5.1-2,9-6.2,14.4-7.3c2.6-0.5,7.6-4.4,7.2,3.3c0,1.1,4.1,3.7,5.8,3.3c3.9-0.9,6.2,1.5,9.1,2.7
				c0.3-0.3,0.7-0.5,1-0.7c-0.3,0.1-0.7,0.4-1,0.7c0.7,1.9-0.7,3.4-0.7,5.2c0,3,2.4,5,4.1,4c3.1-2,3.4,1,4.9,1.7
				c0.3,0.8,1,1.1,1.8,1.3c0.1,1.2,0.2,2.5,0.3,3.7C109.8,51.7,110.5,51.4,111.1,51.1L111.1,51.1L111.1,51.1z M129,63.2L129,63.2
				c0.3,0.4,0.5,0.7,0.6,1.1C129.5,63.9,129.3,63.5,129,63.2z M192.4,20.4c-0.2,0.1-0.4,0.2-0.6,0.3c-0.4,0.1-0.7,0.3-1,0.4
				c0.3-0.1,0.7-0.2,1-0.4C192,20.6,192.2,20.5,192.4,20.4c0.6-0.3,1.1-0.7,1.6-1.2C193.5,19.7,193,20.1,192.4,20.4z M196.3,16.8
				c-0.3,0.3-0.6,0.7-0.9,1C195.7,17.4,196,17.1,196.3,16.8c0.4-0.5,0.9-1,1.4-1.4C197.2,15.8,196.7,16.3,196.3,16.8z"/>
			<path class="st2" d="M107.4,177.2c1.8-0.7,3.5-1.1,4.4-2.8C109.5,174,108.1,174.7,107.4,177.2z"/>
			<path class="st2" d="M71.6,179c0.3-0.1,0.6-0.2,0.9-0.4c-0.2-0.2-0.5-0.5-0.7-0.4c-0.4,0-0.7,0.3-1,0.5
				C71,178.8,71.3,178.9,71.6,179z"/>
			<path class="st2" d="M54.2,117.5c-1.1,0.7-2.7,0.3-3.6,2.4c1.7,0.3,3.3,0.9,3.5,2.9c0.4,3.2,2.1,4.9,5.4,4.1
				c3.5-0.9,5.3-3.2,4.1-6.9c-0.3-1-0.5-2.5,0.3-2.7c4.7-1.4,3.8-4.9,4.1-8.5c0.3-4.6-2.5-7.4-5.5-9.1c-3.2-1.8-5.9,1.5-7.7,3.8
				c-1.9,2.4-4.2,5.4,0.3,8.1C58.3,113.7,57,115.7,54.2,117.5z"/>
			<path class="st2" d="M73.4,97.2c-2.3,1-3.7,2.1-3,4.9C71.7,100.5,73.8,99.9,73.4,97.2z"/>
		</g>
		<path class="st1" d="M150.3,200c2.6,2.9,5.7,3.5,9.3,3.1c1.3-0.1,3.3-0.5,3.4,1.8c0.1,2.1-1.6,2.7-3.3,3c-4.9,1.1-6.8-0.1-8.4-5.3
			C151.1,201.8,150.6,200.9,150.3,200z"/>
		<path class="st1" d="M93.2,199.6c-1.1,0.2-1.6,0.4-2.2,0.3c-0.6,0-1.5,0-1.3-1c0.1-0.7,0.8-1,1.5-0.7
			C91.8,198.5,92.2,198.9,93.2,199.6z"/>
		<path class="st1" d="M96.6,201.1c-0.4-0.6-0.8-0.9-1-1.3c-0.3-0.7,0.4-0.7,0.7-0.6c0.4,0.1,0.9,0.4,1,0.7
			C97.4,200.1,97,200.5,96.6,201.1z"/>
		<path class="st1" d="M77,216.4c-0.2,0.2-0.3,0.4-0.4,0.7c-0.4-0.3-0.8-0.5-1.1-0.8c-0.1-0.1,0.2-0.5,0.3-0.7
			C76.2,215.8,76.6,216.1,77,216.4z"/>
		<path class="st1" d="M96.1,59.1c-0.1-0.2-0.3-0.4-0.4-0.6c0.2,0,0.4,0.1,0.6,0.1c-0.1,0.2-0.2,0.4-0.3,0.5
			C95.9,59.1,96.1,59.1,96.1,59.1z"/>
	</g>
	<g>
		<path class="st1" d="M328.6,113.6c0.2-0.2,0.3-0.5,0.3-0.8c0.2-0.4,0.5-0.8,0.7-1.1c0.4-1.6,0.9-3.2,1.3-4.9c1-0.8,0.9-2,1.1-3
			c0,0-0.2,0.1-0.2,0.1c0.4-0.4,0.7-0.8,1.1-1.2l0,0.1c3-0.6,5.9-1.3,8.9-1.9c1.3,0.6,2.6,1.3,3.9,1.9c0.1,1.3,0.7,2.1,2.1,1.7
			c7.9,3.9,16.4,6.8,24.9,8.1c6.5,1.1,10.5,6.1,16.7,7.2c4.9,0.8,8.5,4.9,11.2,9.3c2.3,3.9,5.8,6.8,9.3,9.6c0,25.7-0.1,51.3,0.1,77
			c0,4.2-0.9,5.9-5.1,5c-0.6-0.1-1.3,0-2,0c-5.2-14.2-11.3-27.8-25.7-35.4c-1-0.5-1.7-1.5-2.6-2.3c-3.3-3.2-6.6-6.4-9.3-10.8
			c-0.7,2.6-0.8,4.5-0.1,6.4c1.8,4.5,3.7,8.8,5.6,13.3c1.2,2.8,2.1,5.6-1.6,7.1c-3.1,1.2-6.4,2.2-8.4-2c-0.8-1.6-1.9-3.7-4-2.8
			c-2.4,1.1,0.8,2.9,0.1,5.3c-2.8-3.4-5.1-6.4-7.5-9.5c-1.8,2.2-2.4,4.4-2.5,7c-0.1,4-1.3,7.8-2.9,11.5c-1.1,2.6-3.4,3.5-6.1,3.4
			c-1.5-0.1-2.4-0.6-2.8-2.2c-0.7-3.5-5.7-8.3-8.2-7.4c-3.5,1.3-5.2,4.4-5.1,8.3c0,0.6-0.2,1.2-0.3,2c-4.4-7.2-3.6-14,2.2-18.5
			c2.6-2,4.1-5.2,2.4-7.1c-1.5-1.7-4.2-4.9-7.9-2.8c-1.3,0.7-2.7,1.2-4.2,1.6c-1.4,0.3-3.2,0.9-3.9-0.9c-0.7-1.8,0.1-3.3,2.1-3.8
			c1.4-0.3,2.4-1,3-2c-8.4-3.3-11.1,3.7-15.1,8.5c-3.4-4.3-8.3-3.3-12.1-2.4c-5.9,1.4-2.6,6.2-1.7,9.6c0.5,2,0.5,3.6-1.5,3.9
			c-2.2,0.4-2.9-1.7-2.5-3.3c0.7-3.1-1.8-4.4-3-6.3c-0.6-0.9-2-1.2-2.2,0.2c-0.8,4.2-2.6,8.7-1.8,12.6c1.4,6.2-2.1,10.3-3.8,15.3
			c-0.3-4.4-1.3-8.7-0.1-12.9c1.6-5.4,3.9-10.5,3.6-16.3c0-0.8,0.2-2.2,0.5-2.3c6-1.2,3.4-4.3,1.7-7.3c-0.4-0.8-0.5-2.2-0.1-2.9
			c2.1-3.7,1.9-8.3,4.2-11.5c6.4-8.9,6.4-18.4,4-28.4c-0.5-2.3-0.1-5.6,1.9-6.7c1.8-1,3.6,1.7,5.1,3.2c0.8,0.8,1.2,2.1,2.1,2.7
			c2,1.5,4.1,4.1,6.9,2.6c7.4-4,15.1-7.5,20.7-14.2c0.6-0.6,1.3-1.3,1.9-1.9c0.3-0.4,0.7-0.7,1-1.1c1.2-0.7,1.9-1.6,2.1-3
			C327.6,115.6,328.1,114.6,328.6,113.6z M321.6,174.9c-2.3-0.5-3.7,0.3-4.4,2.8C319,177,320.6,176.6,321.6,174.9z M281.4,179.5
			c0.3-0.1,0.6-0.2,0.8-0.4c-0.2-0.2-0.5-0.5-0.7-0.4c-0.4,0-0.7,0.3-1,0.5C280.8,179.3,281.1,179.4,281.4,179.5z"/>
		<path class="st1" d="M268,91.5c-0.1-0.6-0.2-1.3-0.4-1.9c0-0.3,0-0.7,0-1c-0.4-2-0.7-4-1.1-6c-0.6-1.3-1.2-2.7-1.8-4
			c0.1-1.7-1.4-3.1-0.6-4.9c4-2.4,7.8-3.7,12,0.2c1.4,1.4,4.4,3.6,6.4-0.3c0.3-0.5,1.6-1,2.1-0.8c3.2,1.3,3.2-0.8,3.2-2.9
			c0-3.7,1.9-5.5,5.5-6.3c4.2-0.9,8.6-1.5,12.4-3.9l-0.2,0.1c1.3-0.7,1.9,0.1,2,1.1c1.2,7.7,2.5,8.3,8.6,3.8
			c1.7-1.2,3.5-1.3,5.1-0.8c2.3,0.7-0.2,2.6,0.5,3.8c0,1.4,0.1,2.8,0.1,4.2c1.1,2,0.5,6.1,3.6,5.3c2-0.5,6.8,0.5,6.2-4.5
			c1-0.8,1-1.9,0.7-3c0-0.7,0-1.3,0-2c0-0.3,0-0.7,0.1-1c1.4-2.3,3.3-3.4,6-2.9c0,0-0.1-0.1-0.1-0.1c-0.5,1.3-1.2,2.5-0.7,4
			c0,4.3-1.2,8.4-2,12.6c-0.5,0.5-1,1-1.5,1.6c-0.4,0-0.6,0.2-0.6,0.6c-1.9,0.4-3.1,1.6-4.2,3.1l0.1-0.1c-1.5,0.5-3.7-0.5-4,2.1
			c-1.4,1.3-0.9,3.1-0.8,4.6c0.1,4.3-0.1,8.4-2.1,12.3c-0.2,0.4-0.5,0.8-0.7,1.1c-1.5,1.8-2.9,3.6-3.4,6c-3.6,3.4-7.4,6.6-10.7,10.3
			c-3.7,4.3-9.9,3.6-13.8,7.3c-0.2,0.2-1.2-0.2-1.7-0.5c-3.1-1.6-5.7-3.8-5.6-7.6c0.1-3-1.3-4.8-3.8-6.2c-5.6,8.2-2.9,17.3-3.7,25.8
			c-0.4,4.3-0.5,8.4-2.2,12.3c-2.8,6.2-5.7,12.3-8.4,18.5c-6.9,15.8-4.8,32.7-5.9,49.1c-10,0-20,0-30,0c0.1-8.3,5-15,7.8-22.3
			c2.1-5.6,4.8-10.9,6.7-16.6c0.6-1.8,0.6-3.5,0.3-5.4c-2.1-0.3-2.2,2.4-3.8,2.7c-1.1-0.3-1.1-1.3-0.9-2c2.1-8.6,2-17.7,6.5-25.7
			c1-1.8,1.1-4.2,0.3-5.8c-3.9-9.1,0.7-17.4,1.7-26.1c0.8-7.2,5.3-12.6,8.9-18.5c1.9-3.1,7-2.8,7.7-7.2
			C268.9,93,268.9,92.3,268,91.5z M260.3,120.3c1.7,0.3,3.3,0.9,3.5,2.9c0.4,3.2,2.1,4.9,5.4,4.1c3.5-0.9,5.3-3.2,4.1-6.9
			c-0.3-1-0.5-2.5,0.3-2.7c4.7-1.4,3.8-4.9,4.1-8.5c0.3-4.6-2.5-7.4-5.5-9.1c-3.2-1.8-5.9,1.5-7.7,3.8c-1.9,2.4-4.2,5.4,0.3,8.1
			c3.4,2.1,2,4.2-0.8,5.9C262.8,118.7,261.2,118.3,260.3,120.3z M280.3,102.6c1.3-1.5,3.4-2.1,3-4.9
			C280.9,98.7,279.5,99.8,280.3,102.6z"/>
		<path class="st1" d="M287.9,220.6c1-0.8-1.8-3.7,1.3-2.9c5.3,1.4,10.6,0.6,15.9,0.9c1.4,0.1,2.7,0.2,2.8,2
			C301.2,220.6,294.5,220.6,287.9,220.6z"/>
		<path class="st1" d="M328.9,220.6c0-2.2-4.7-1.4-3.1-3.8c1.8-2.8,4.5-0.6,6.5,0.6c1.1,0.7,4.2,0.2,2.7,3.2
			C332.9,220.6,330.9,220.6,328.9,220.6z"/>
		<path class="st1" d="M309.9,220.6c0.5-4.4,4.4-3.2,6.6-3.3c2.5-0.1-0.9,2.2,0.4,3.3C314.5,220.6,312.2,220.6,309.9,220.6z"/>
		<path class="st1" d="M370.9,220.6c0.4-3.2,2.9-3.4,5.4-4c0.1,1.8-1.9,2.5-1.4,4C373.5,220.6,372.2,220.6,370.9,220.6z"/>
		<path class="st1" d="M272.1,34.7c5.1-2,9-6.2,14.4-7.3c2.6-0.5,7.6-4.4,7.2,3.3c0,1.1,4.1,3.7,5.8,3.3c3.9-0.9,6.2,1.5,9.1,2.7
			c0.7,1.9-0.7,3.4-0.7,5.2c0,3,2.4,5,4.1,4c3.1-2,3.4,1,4.9,1.7c0.3,0.9,1,1.1,1.8,1.3c0.1,1.2,0.2,2.5,0.3,3.7
			c-0.7,0.7-1.4,1.4-2.1,2.1c-2.3,0.3-4.6,0.9-6.8,0.8c-8.7-0.4-16.7,1.7-23.6,7c-2.1,1.6-4.4,2.1-7,2.1c-5.3-0.1-10.7-0.9-15,3.7
			c-0.9-2.3-0.3-4.3-1.7-5.7c0-2,0-4,0-6c0-1.3,0-2.7,0-4c1.4-3.2,2.9-6.5,4.3-9.7c1.1-0.8,2-1.7,1.8-3.3c0.4-0.9,0.8-1.9,1.2-2.8
			C270.6,36.1,271.4,35.4,272.1,34.7z"/>
		<path class="st1" d="M360.1,200.5c2.6,2.9,5.7,3.5,9.3,3.1c1.3-0.1,3.3-0.5,3.4,1.8c0.1,2.1-1.6,2.7-3.3,3
			c-4.9,1.1-6.8-0.1-8.4-5.3C360.9,202.3,360.4,201.4,360.1,200.5z"/>
		<path class="st1" d="M303,200.1c-1.1,0.2-1.6,0.4-2.2,0.3c-0.6,0-1.5,0-1.3-1c0.1-0.7,0.8-1,1.5-0.7
			C301.6,199,302,199.5,303,200.1z"/>
		<path class="st1" d="M306.4,201.6c-0.4-0.6-0.8-0.9-1-1.3c-0.3-0.7,0.4-0.7,0.7-0.6c0.4,0.1,0.9,0.4,1,0.7
			C307.2,200.6,306.8,201,306.4,201.6z"/>
		<path class="st1" d="M286.8,216.9c-0.2,0.2-0.3,0.4-0.4,0.7c-0.4-0.3-0.8-0.5-1.1-0.8c-0.1-0.1,0.2-0.5,0.3-0.7
			C286,216.3,286.4,216.6,286.8,216.9z"/>
		<path class="st1" d="M305.8,59.6c-0.1-0.2-0.3-0.4-0.4-0.6c0.2,0,0.4,0.1,0.6,0.1c-0.1,0.2-0.2,0.4-0.3,0.5
			C305.7,59.7,305.8,59.6,305.8,59.6z"/>
	</g>
</g>
<g>
</g>
<g>
</g>
<g>
</g>
<g>
</g>
<g>
</g>
<g>
</g>
<g>
</g>
<g>
</g>
<g>
</g>
<g>
</g>
<g>
</g>
<g>
</g>
<g>
</g>
<g>
</g>
<g>
</g>
</svg>
