<?xml version="1.0" encoding="utf-8"?>
<!-- Generator: Adobe Illustrator 17.1.0, SVG Export Plug-In . SVG Version: 6.00 Build 0)  -->
<!DOCTYPE svg PUBLIC "-//W3C//DTD SVG 1.1//EN" "http://www.w3.org/Graphics/SVG/1.1/DTD/svg11.dtd">
<svg version="1.1" id="Layer_1" xmlns="http://www.w3.org/2000/svg" xmlns:xlink="http://www.w3.org/1999/xlink" x="0px" y="0px"
	 viewBox="0 0 640.5 215.2" style="enable-background:new 0 0 640.5 215.2;" xml:space="preserve">
<style type="text/css">
	.st0{fill:#FB0001;}
	.st1{fill:#020000;}
	.st2{fill:#0A0203;}
</style>
<g>
	<g>
		<path class="st0" d="M200.1,107.1c0,34.8,0,69.7,0.1,104.5c0,3-0.6,3.6-3.6,3.6c-22.2-0.2-44.3-0.1-66.5-0.1
			c0.1-3.9-2-5.9-5.6-7.1c-10.4-3.4-20.9-6-31.8-7.2c-1.9-0.2-4.3-1.7-5.2,0.5c-0.8,1.9,0.5,4.3,2.2,5.7c1.1,1,2.5,1.7,3.9,2
			c4.2,0.9,7.4,3.3,10.5,6.1c-33.5,0-67,0-100.5,0.1c-3,0-3.6-0.6-3.6-3.6c0.1-32.5,0.1-65,0.1-97.5c0.4-0.1,1.3-0.1,1.3-0.2
			c0-4.7,5.2-8.8,1.2-13.9C2,99.2,2.3,97.7,2,96.6c-0.2-1-0.2-2.5-2-1.6c0-4,0-8,0-12c0.7,0.4,1.4,0.2,1.6-0.5
			c1.8-5.4,6.3-8.7,9.6-13c2.1-2.2,3.8-5.3,7.6-3.4c1.3-3.2,1.7-6.8,4.2-9.4c2.7-2.8,6.1-4.5,9.6-6c2.6-1.1,3,2.5,5,3.1
			c0.8,0.2,2,1,2.2,0.8c2.9-3.4,6.3-0.2,9.3-1c2.4-0.6,2.8,0.6,2.7,2.1c-0.1,4.2,2.5,4.4,5.6,4.3c2.2-0.1,4.3,0,6.5,0.1
			c1,1.4,2.6,0.8,4,1.1c0.6,0.3,1.2,0.6,1.8,0.9c0.4,0.2,0.8,0.5,1.2,0.7c1.9,1.5,4.1,2.9,1.5,5.6l0,0c-2.7,2.4-6.4,2.1-9.4,3.9
			c-3,0.6-5.6,2.6-6.5,5c-2.4,6.6-8.9,7.9-13.6,11.5c-5.9,4.6-12.7,8-18.3,13.1c-0.6,0.6-2,1.2-0.9,2.3c1.8,2-0.5,3.7-0.2,5.5
			c4.9,0.4,7.1-0.6,10.3-5.8c1.3-2,2.1-2.2,3.8-0.8c1,0.9,2,1.7,3,2.7c1.4-6.4,3.9-8.3,7.1-5.9c1.6,1.2,5.9,3.1,7.5,3.1
			c2.1,0,4.4,0.5,6.2-1.7c-2.7-0.4-5.2-0.5-7.6-1.8c-3.6-1.9-5-4.9-4.5-8.5c0.4-2.7,1.6-5.8,5.5-3.3c0.1,0.1,0.8-0.9,1.2-1.4
			c0.9,0.1,1.8,0.3,2.7,0.4c0.9,0.4,1.7,0.3,2.2-0.6c2.2-0.2,3.3-2.2,4.9-3.3c1.9-0.7,3.1-2,3.8-3.8c1-1,1.2-2.9,3.1-2.8
			c0.7,0.3,1.3,0.7,2,1c0.1,0.5,0.4,0.9,1,0.8l0,0l0,0.3c2.3,3.4,0.9,6.3-1.2,9.2c-2.2,3-5.6,4.9-7.6,8.9
			c8.3-3.2,14.7-6.9,14.3-16.5c5.5-1.5,5.2,3.3,6.8,6.1c-0.2,0.8-0.3,1.6,0.7,2.1c0,0.3,0.1,0.7,0.3,0.9c0.4,1.7,1.2,3.1,2.6,4.1
			c0.5,1,1,1.9,1.4,2.9c0.3,0.4,0.5,0.8,0.8,1.2c0.2,1.8,1.3,2.7,3,2.9c0.7,0.4,1.3,0.7,2,1.1c0.3,0.3,0.6,0.6,0.9,0.9
			c0.4,1,0.9,2,1.3,2.9c0.8,2.7,0.6,5.8,2.7,8.1c0.2,1,0.3,2,0.5,3.1c0.9,1.7,1.7,3.4,2.6,5.1c0.1,1.3,0.8,2.2,1.9,2.9
			c0.4,1,0.9,1.9,1.3,2.9c-0.1,1.5,0.5,3.5,1.8,3.3c1.6-0.3,2-2.5,1.9-4.3c0-2,0-4,0-6c0.3-1.2,0.4-2.3-0.7-3.1l0,0.1
			c0.1-0.3,0-0.7-0.2-0.9c-1.1-5.6-4.2-10.8-2.8-16.8c0.4-0.5,0.8-1,1.2-1.5c0.3,0.1,0.5-0.1,0.6-0.4c2.1-1.4,0-1.7-0.6-2.5
			c-1-2.3,1.5-4.7-0.3-6.9c1.8-3.7,2.1-6.9-2.8-8.3c0.1-0.3,0-0.5-0.2-0.7c0-0.3-0.1-0.7-0.1-1c0-0.7,0-1.3,0-2
			c0.1-0.6,0.2-1.3,0.4-1.9c1.7-2.9,2-6.3,2.4-9.5c1.2-10.5,0.9-20.6-8-28.7C89,23.5,73.4,16.3,54.9,16.1c-6-0.1-11.8-0.2-17.3-3.2
			C26.8,7.1,16.2,6.7,6.1,14.7c-1.9,1.5-4,2.9-6,4.4c0-5.7,0.1-11.3-0.1-17C0,0.3,0.3,0,2.1,0c5,0.2,10,0.1,15,0.1
			c-1.3,2-1.2,4.2-0.6,6.8c2.8-2,5.4-3.6,8.3-4.7c0.8-0.3,2.3-0.5,1.3-2.1c31.3,0,62.7,0,94,0c0.9,3.5-1.8,6.7-0.6,10.2
			c1.3,3.9-0.1,6.2-3.9,6.8c-2.9,0.5-2.9,1.8-1.6,3.7c4.1,5.9,7.6,12.1,11.3,18.3c2,3.3,4.8,6.9,8.2,8.4c5.2,2.4,7.8,6.5,10.2,11
			c0.6,1.2,1,2.3,2.2,3.2c4.6,3.3,8,7.9,12.8,11c2.3,1.4,4.3,3.6,2.4,7.1c-1.2,2.1,0.5,2.4,2,1.9c3.1-1.1,5.5,1,8.3,1.1
			c-0.1,1.4-0.8,1.4-1.5,1.4c-2.4,0.1-5.1,0.9-4.4,3.4c0.7,2.7,3.5,1.4,5.6,0.8c1.4-0.4,3.3-2.2,4.3,0c-0.1,2.4-3.1,1.1-2.9,3.2
			c0.1,0.6,1.1,1.4,1.8,1.5c4.8,0.7,7.4,4.6,11,7.1C189.7,103.1,193.7,107.8,200.1,107.1z M186.7,198.1c1.3,0,2.6,0.5,3.1-0.5
			c0.9-1.8-0.3-3.7-1.2-5.1c-6.5-10.4-10.4-22.2-16.6-32.8c-1.7-3-3.8-5.7-5.2-9c-5.4-12.7-11.2-25-22.4-34c-4.5-3.7-4.4-8-0.9-12.6
			c0.5-0.7,1.8-1.1,0.7-2.3c-1-1.1-1.8-1.5-3.3-0.7c-2.2,1.1-4.4,2-5.4-1.7c-0.4-1.5-2.5-1.5-4-1.1c-2,0.5-0.9,1.7-0.4,2.6
			c1.2,2.1-0.2,2.2-1.6,2.2c-1.3,0-2.2,0.4-2.4,1.9c-0.3,2,4.9,13.2,6.8,14c7,2.5,11.1,7.8,14.2,14.2c1.6,3.3,3.4,6.4,5.5,9.5
			c4.5,6.5,9.8,12.4,12,20.4c2.9,10.4,8.5,19.8,13.6,29.3C180.8,195.2,183.4,197.5,186.7,198.1z M127.6,186.4
			c-0.3-2.2-4.3-2.3-2.5-4.8c2-2.8,4.7-5.5,8.1-6.3c2.9-0.7,4.3,2.3,5.8,4.5c1.5,2.2,3.9,1,6,1c2.9,0,0.8-2.2,1.1-3.2
			c1-3.4-2.5-4.7-4.5-6.1c-1.9-1.3-3.1-2.4-3.7-4.7c-1.4-5.5-3.8-6.3-7.1-1.9c-6.1,8.1-13.2,13.5-23.9,12.2
			c-0.6-0.1-1.3,0.2-1.8,0.6c-1.3,1-3.1,2-2.6,3.9c0.4,1.7,2.3,1.5,3.8,1.5c5.7,0.1,11.1,1.2,16.4,3.3
			C124.4,187.1,125.8,187.4,127.6,186.4z M7.6,106.2c-2,4.5-1.2,9.1-4.2,12.7c-0.8,0.9-0.3,5,1.2,4.8c6.3-0.8,8.9,4.6,13.1,7
			c1.1,0.7,1.6,2.9,3.4,2c1.8-0.9,1.5-3.7,0.7-4.4c-3.9-3.6-3.3-8.8-5.4-12.9c-1.9-3.7-1.5-6.1,1.4-8.7c0.9-0.7,2.7-1.8,1.4-3.1
			c-1.5-1.5-2.8,0.3-3.6,1.4C13.4,107.9,10.9,108.8,7.6,106.2z M91,148.3c-3.5-0.3-5.1,4.2-7.8,2.8c-6.4-3.2-11.3,1.1-16.8,2.4
			c-1.1,0.3-2.1,1.8-1.8,3.2c0.2,0.8,1.4,1.9,2,1.8c7.6-1,15.5,4.4,23-1.4C86,154.2,91.1,151.7,91,148.3z M59.5,110.7
			c-1.5,0.1-3,0.2-4.4,0.4c-3.3,0.6-5,3.4-4.8,6c0.4,4.1,3.3,0.4,5,0.8c0.5,0.1,1.1-0.2,1.8,0c2.7,0.7,7.6-2.5,8-5.1
			c0.1-0.9-0.3-2.1-1.1-1.5C62,112.7,61,110.2,59.5,110.7z M72.5,190.7c-3.3-4-6.5-8-11.1-10.4c-0.8-0.4-2.2-1.4-3-0.5
			c-0.8,0.8-0.5,2.3,0.3,3.2C62.5,187.1,67.2,189.5,72.5,190.7z M79.9,113.3c-1.4,0.6-2.7,1.2-4.1,1.7c-2.1,0.7-4.2,1.4-5.2,3.5
			c-0.2,0.4,0.9,1.6,1.7,2.1c2.6,1.6,4.4-0.5,6.2-1.7c1.2-0.8,1.9-2.2,2.8-3.4C82.5,113.7,81,113.6,79.9,113.3z M30,120.7
			c0.3,0.4,0.6,0.8,1,1.3c4.1,0.2,6.6-2.1,8.4-5.5c0.5-0.9,1.1-1.9,0.2-2.7c-1.1-0.9-1.8,0.3-2.4,0.8
			C34.7,116.6,32.3,118.7,30,120.7z M48,201.7c-0.6-3.1,1.9-6.5-1.7-8.5c-1.2-0.7-2.7,0.4-3,1.8C42.4,198.7,44.3,200.6,48,201.7z
			 M44.8,73.3c-2.7,1.2-4.9,2.5-5.2,5.5c0,0.3,1,0.9,1,0.9C42.4,78,45.3,77,44.8,73.3z M23.1,89c-2.6,1.3-4.5,2-4.9,4.3
			c-0.1,0.6,0.2,1.6,1,1.3c2.1-0.6,3.4-2.3,4.5-4.1C23.9,90.1,23.3,89.3,23.1,89z M144.3,87.8c0.6,1.7,2.1,1.2,3.4,1.2
			c1,0,2.3,0,1.9-1.4c-0.4-1.5-1.9-1.6-3.3-1.5C145.1,86.1,144.3,86.5,144.3,87.8z M68.2,95.6c-3.6,0.8-6,2.3-9.3,4.1
			C63.3,100.5,65.9,99.4,68.2,95.6z"/>
		<path class="st1" d="M72.5,68.4c2.6-2.7,0.4-4.1-1.5-5.6c-0.4-0.2-0.8-0.5-1.2-0.7c-0.6-0.3-1.2-0.6-1.8-0.9
			c-0.1-1.2,0.3-2.8-1.3-3.2c-1.5-0.4-2.2,1-2.7,2.1c-2.2,0-4.3-0.1-6.5-0.1c-3.1,0.1-5.7-0.1-5.6-4.3c0-1.4-0.3-2.7-2.7-2.1
			c-2.9,0.8-6.4-2.5-9.3,1c-0.2,0.2-1.4-0.6-2.2-0.8c-2-0.6-2.4-4.2-5-3.1c-3.4,1.5-6.9,3.2-9.6,6c-2.5,2.6-2.9,6.2-4.2,9.4
			c-3.9-1.8-5.6,1.2-7.6,3.4c-0.8-0.5-1.6-1.1-2.5-1.6c0.1-0.6,0.2-1.3,0.4-1.9c1.6-1.1,0.8-1.5-0.5-1.9c-2.9-1.2-5.8,2.4-8.7-0.1
			c0-15,0-30,0-45c2-1.5,4.1-2.8,6-4.4c10.1-8,20.7-7.6,31.4-1.8c5.5,3,11.3,3.1,17.3,3.2c18.6,0.2,34.1,7.4,47.8,19.8
			c8.9,8.1,9.2,18.2,8,28.7c-0.4,3.2-0.7,6.5-2.4,9.5c-1.3,0.4-1.9,1-0.4,1.9c0,0.7,0,1.3,0,2c0,0.3,0.1,0.7,0.1,1
			c0.2,0.2,0.2,0.4,0.2,0.7c0.5,2.9-1.8,6.8,2.8,8.3c1.8,2.2-0.7,4.6,0.3,6.9c-0.5,1-0.2,1.8,0.6,2.5c0,0.3-0.2,0.5-0.6,0.4
			c-0.4,0.5-0.8,1-1.2,1.4c-1.4,6,1.7,11.2,2.8,16.8c0.1,0.3,0.2,0.6,0.2,0.9l0-0.1c0.2,1,0.5,2.1,0.7,3.1c0,2,0,4,0,6
			c-1.2,0.3-2.5,0.7-3.7,1c-0.4-1-0.9-1.9-1.3-2.9c0.6-1,1.4-2,0.3-3.1c-0.7-0.7-1.5-0.3-2.2,0.2c-0.9-1.7-1.7-3.4-2.6-5.1
			c1.8-0.3,4-0.7,3.2-3.1c-0.7-2-2.4,0.1-3.7,0c-2.1-2.3-1.9-5.3-2.7-8.1c0.9-0.4,1.8-1,1.5-2.1c-0.4-1.5-1.7-0.9-2.8-0.8
			c-0.3-0.3-0.6-0.6-0.9-0.9c-0.3-1.1-0.8-1.7-2-1.1c-1.7-0.2-2.8-1.1-3-2.9c-0.3-0.4-0.5-0.8-0.8-1.2c-0.5-1-1-1.9-1.4-2.9
			c3.2-3.9,0-3.8-2.6-4.1c-0.2-0.3-0.3-0.6-0.3-0.9c0.7-1,0.4-1.6-0.7-2.1c-1.6-2.8-1.3-7.6-6.8-6.1c-1.4-1.8-3.2-2.6-5.5-1.6
			c0,0,0-0.3,0-0.3s0.1-0.3,0.1-0.3L76,78c-0.7,0.2-0.9-0.2-1-0.8c-0.3-1.1-0.8-1.7-2-1c-1.9,0-2.1,1.8-3.1,2.8
			c-2.4,0.2-3.7,1.4-3.8,3.8c-1.6,1.1-2.7,3.1-4.9,3.3c-1.3-1.9-1.7-0.3-2.2,0.6c-0.9-0.1-1.8-0.3-2.7-0.4c0.8-4.4,1.4-9,6.9-10.3
			l0,0c0-1.3,0-2.5,0-3.8C66,70.6,69.8,70.9,72.5,68.4c0,0,0.2,0.3,0.2,0.3L72.5,68.4z M83.8,74.6l-0.3-0.2l0,0.3L83.8,74.6z"/>
		<path class="st1" d="M200.1,107.1c-6.4,0.7-10.4-3.9-14.8-7.1c-3.6-2.5-6.2-6.4-11-7.1c-0.7-0.1-1.7-0.9-1.8-1.5
			c-0.2-2.1,2.8-0.8,2.9-3.2c-1-2.2-2.8-0.4-4.3,0c-2.1,0.6-4.8,1.9-5.6-0.8c-0.7-2.5,2-3.3,4.4-3.4c0.6,0,1.3-0.1,1.5-1.4
			c-2.8-0.1-5.2-2.2-8.3-1.1c-1.6,0.5-3.2,0.2-2-1.9c2-3.5-0.1-5.6-2.4-7.1c-4.8-3.1-8.2-7.7-12.8-11c-1.2-0.8-1.6-2-2.2-3.2
			c-2.4-4.5-5.1-8.6-10.2-11c-3.3-1.6-6.2-5.1-8.2-8.4c-3.7-6.1-7.3-12.4-11.3-18.3c-1.3-1.9-1.3-3.3,1.6-3.7
			c3.8-0.6,5.2-2.9,3.9-6.8c-1.2-3.4,1.5-6.7,0.6-10.2c25.7,0,51.3,0,77-0.1c2.5,0,3.1,0.6,3.1,3.1c-0.2,11-0.1,22-0.1,33
			c-4,0.7-5-2.7-6.2-5.1c-1.6-3.1,1.9-2.3,3.3-3.3c1.2-0.9,0.3-1.8-0.5-2.3c-1.4-0.7-2.9-0.3-4.4-0.1c-1.3-4.8-2-4.9-6.5-1.4
			c-0.5-0.3-1-0.6-1.6-0.9c0-0.3-0.1-0.6-0.1-0.9c0.5-1.5-0.4-1.5-1.4-1.3l-0.1-0.1c-0.5-0.5-1-1-1.5-1.5l0,0.1
			c-0.4-1.2-0.6-2.5-2.2-2.5c-0.2,0-0.4,1-0.7,1.5c0.3,0.8,0.5,1.6,0.8,2.5c-0.6,0.5-1.7,1.1-1,1.9c0.6,0.7,1.5-0.3,2.2-0.6
			c1.1,0.6,2.2,1.2,3.3,1.8c1.9,2.4,3.7,4.8,5.6,7.2c-2,6,2.9,5.2,6.1,6.1c1.8,0.8,2.6,3.2,4.9,3c0,13.3,0,26.7,0,40
			c-5,1.4-3.2,6-3.8,9.1c-0.5,2.5-0.2,6.1,3.8,6.9C200.1,99.7,200.1,103.4,200.1,107.1z M183.1,14.1L183.1,14.1
			c-0.8-2.1-2.3-2.7-4.4-2.4c-2,0.2-4-0.2-5.7-1.3c-1.1-0.7-2-2-3.5-0.9c-1.2,0.9-0.7,2.1-0.4,3.2c0.5,1.9,1.9,2,3.6,1.7
			C176.1,13.8,179.6,13.3,183.1,14.1z M186.9,18.1l0.4,0.1l-0.1-0.3L186.9,18.1z"/>
		<path class="st2" d="M104.1,215.1c-3.1-2.8-6.3-5.2-10.5-6.1c-1.4-0.3-2.9-1-3.9-2c-1.6-1.5-2.9-3.8-2.2-5.7
			c0.9-2.3,3.3-0.8,5.2-0.5c10.9,1.2,21.4,3.8,31.8,7.2c3.6,1.2,5.7,3.2,5.6,7.1C121.4,215.1,112.8,215.1,104.1,215.1z"/>
		<path class="st0" d="M184.1,23c0.5,0.3,1,0.6,1.6,0.9c1.3,1,2.5,2.1,3.9,3.1c2.2,1.6,2.5,0,2.6-1.7c1.5-0.3,3-0.6,4.4,0.1
			c0.8,0.4,1.8,1.4,0.5,2.3c-1.3,0.9-4.9,0.1-3.3,3.3c1.2,2.3,2.3,5.8,6.2,5.1c0,1.3,0,2.7,0,4c-2.3,0.1-3.1-2.2-4.9-3
			c-1.7-2.4-3.8-4.3-6.1-6.1c-1.9-2.4-3.7-4.8-5.6-7.2C183.7,23.5,183.9,23.3,184.1,23z"/>
		<path class="st0" d="M9.2,66.1C9.1,66.7,9,67.4,8.9,68c-3.8,1.8-4.3,7.1-8.8,8.1c0-4,0-8,0-12c2.9,2.5,5.8-1,8.7,0.1
			C8.9,64.8,9.1,65.4,9.2,66.1z"/>
		<path class="st2" d="M0.1,76.1c4.5-1,5-6.3,8.8-8.1c0.8,0.5,1.6,1.1,2.5,1.6c-3.3,4.3-7.8,7.6-9.6,13c-0.2,0.7-0.9,0.8-1.6,0.5
			C0.1,80.7,0.1,78.4,0.1,76.1z"/>
		<path class="st0" d="M200.1,96.1c-4-0.8-4.2-4.5-3.8-6.9c0.6-3.1-1.3-7.7,3.8-9.1C200.1,85.4,200.1,90.7,200.1,96.1z"/>
		<path class="st2" d="M0.1,95.1c1.8-0.9,1.7,0.6,2,1.6c0.3,1.1,0,2.6,0.6,3.4c4,5.1-1.2,9.3-1.2,13.9c0,0.1-0.8,0.1-1.3,0.2
			C0.1,107.7,0.1,101.4,0.1,95.1z"/>
		<path class="st2" d="M26.1,0.1c1,1.6-0.5,1.8-1.3,2.1c-2.9,1.1-5.5,2.7-8.3,4.7c-0.6-2.6-0.7-4.7,0.6-6.8
			C20.1,0.1,23.1,0.1,26.1,0.1z"/>
		<path class="st2" d="M186.7,198.1c-3.3-0.5-5.9-2.9-7.4-5.8c-5.1-9.5-10.7-18.8-13.6-29.3c-2.2-8-7.6-13.9-12-20.4
			c-2.1-3-3.9-6.2-5.5-9.5c-3.1-6.4-7.2-11.7-14.2-14.2c-2-0.7-7.2-12-6.8-14c0.3-1.5,1.1-1.9,2.4-1.9c1.5,0,2.9-0.2,1.6-2.2
			c-0.6-1-1.7-2.1,0.4-2.6c1.5-0.4,3.6-0.4,4,1.1c1,3.8,3.2,2.9,5.4,1.7c1.5-0.8,2.4-0.4,3.3,0.7c1.1,1.3-0.2,1.7-0.7,2.3
			c-3.6,4.6-3.7,8.9,0.9,12.6c11.1,9,17,21.4,22.4,34c1.4,3.3,3.5,6,5.2,9c6.2,10.6,10.1,22.4,16.6,32.8c0.8,1.4,2.1,3.2,1.2,5.1
			C189.4,198.5,188,198.1,186.7,198.1z"/>
		<path class="st2" d="M127.6,186.4c-1.8,1-3.3,0.6-4.9,0c-5.2-2.1-10.7-3.3-16.4-3.3c-1.5,0-3.4,0.2-3.8-1.5
			c-0.5-1.9,1.3-2.9,2.6-3.9c0.5-0.4,1.2-0.7,1.8-0.6c10.7,1.3,17.8-4.1,23.9-12.2c3.3-4.3,5.7-3.5,7.1,1.9c0.6,2.3,1.8,3.4,3.7,4.7
			c2,1.4,5.5,2.7,4.5,6.1c-0.3,1,1.8,3.2-1.1,3.2c-2.1,0-4.5,1.2-6-1c-1.5-2.3-2.9-5.2-5.8-4.5c-3.4,0.8-6.1,3.5-8.1,6.3
			C123.4,184.1,127.3,184.2,127.6,186.4z"/>
		<path class="st2" d="M63.1,72.3c0,1.3,0,2.5,0,3.8l0,0c-5.5,1.3-6.1,5.8-6.9,10.3c-0.4,0.5-1.2,1.5-1.2,1.4
			c-4-2.5-5.2,0.6-5.5,3.3c-0.5,3.6,0.9,6.6,4.5,8.5c2.4,1.3,5,1.3,7.6,1.8c-1.8,2.3-4.1,1.7-6.2,1.7c-1.5,0-5.9-1.9-7.5-3.1
			c-3.3-2.4-5.7-0.5-7.1,5.9c-1.1-0.9-2.1-1.8-3-2.7c-1.6-1.4-2.5-1.3-3.8,0.8c-3.2,5.2-5.5,6.2-10.3,5.8c-0.3-1.8,2.1-3.5,0.2-5.5
			c-1.1-1.2,0.3-1.8,0.9-2.3c5.6-5.1,12.4-8.5,18.3-13.1c4.6-3.6,11.2-4.9,13.6-11.5C57.5,74.9,60.1,72.9,63.1,72.3z"/>
		<path class="st2" d="M7.6,106.2c3.3,2.6,5.8,1.7,8.1-1.2c0.8-1.1,2.1-2.9,3.6-1.4c1.3,1.3-0.6,2.4-1.4,3.1c-2.9,2.6-3.3,5-1.4,8.7
			c2.1,4.1,1.5,9.3,5.4,12.9c0.7,0.7,1.1,3.5-0.7,4.4c-1.8,0.9-2.3-1.4-3.4-2c-4.3-2.4-6.8-7.9-13.1-7c-1.5,0.2-1.9-3.9-1.2-4.8
			C6.4,115.3,5.6,110.6,7.6,106.2z"/>
		<path class="st2" d="M91,148.3c0.1,3.4-5,5.9-1.3,8.8c-7.5,5.9-15.4,0.5-23,1.4c-0.6,0.1-1.8-1.1-2-1.8c-0.3-1.4,0.6-2.9,1.8-3.2
			c5.5-1.3,10.5-5.6,16.8-2.4C85.9,152.5,87.5,148,91,148.3z"/>
		<path class="st2" d="M59.5,110.7c1.5-0.5,2.5,2,4.5,0.6c0.8-0.6,1.3,0.6,1.1,1.5c-0.4,2.6-5.3,5.8-8,5.1c-0.7-0.2-1.2,0.2-1.8,0
			c-1.7-0.4-4.6,3.3-5-0.8c-0.3-2.6,1.4-5.4,4.8-6C56.5,110.8,58,110.8,59.5,110.7z"/>
		<path class="st2" d="M76.1,78.3c2.3-1,4-0.2,5.5,1.6c0.4,9.6-6,13.3-14.3,16.5c2-4.1,5.5-6,7.6-8.9C76.9,84.6,78.4,81.8,76.1,78.3
			z"/>
		<path class="st2" d="M72.5,190.7c-5.4-1.2-10-3.6-13.8-7.7c-0.9-0.9-1.1-2.4-0.3-3.2c0.8-0.9,2.2,0.1,3,0.5
			C66,182.8,69.2,186.7,72.5,190.7z"/>
		<path class="st2" d="M79.9,113.3c1.1,0.3,2.6,0.4,1.3,2.1c-0.9,1.2-1.6,2.6-2.8,3.4c-1.8,1.2-3.6,3.4-6.2,1.7
			c-0.7-0.5-1.8-1.8-1.7-2.1c1-2.1,3.1-2.8,5.2-3.5C77.2,114.5,78.5,113.9,79.9,113.3z"/>
		<path class="st2" d="M30,120.7c2.4-2,4.7-4.1,7.1-6.1c0.7-0.6,1.4-1.7,2.4-0.8c1,0.8,0.3,1.8-0.2,2.7c-1.8,3.4-4.3,5.8-8.4,5.5
			C30.6,121.6,30.3,121.1,30,120.7z"/>
		<path class="st2" d="M48,201.7c-3.7-1.1-5.6-3-4.8-6.7c0.3-1.5,1.8-2.5,3-1.8C49.9,195.3,47.4,198.6,48,201.7z"/>
		<path class="st2" d="M111,88.1c-4.7-1.5-2.4-5.4-2.8-8.3C113.1,81.2,112.9,84.4,111,88.1z"/>
		<path class="st2" d="M44.8,73.3c0.5,3.7-2.4,4.7-4.2,6.4c0,0-1-0.6-1-0.9C39.9,75.8,42,74.5,44.8,73.3z"/>
		<path class="st2" d="M23.1,89c0.1,0.3,0.7,1.1,0.5,1.4c-1,1.8-2.4,3.5-4.5,4.1c-0.8,0.2-1.1-0.7-1-1.3
			C18.7,91.1,20.6,90.3,23.1,89z"/>
		<path class="st2" d="M144.3,87.8c0-1.4,0.9-1.7,2-1.7c1.4-0.1,2.9,0,3.3,1.5c0.4,1.4-1,1.5-1.9,1.4
			C146.4,89,144.9,89.5,144.3,87.8z"/>
		<path class="st2" d="M68.2,95.6c-2.3,3.8-5,4.8-9.3,4.1C62.2,98,64.6,96.5,68.2,95.6z"/>
		<path class="st2" d="M103.9,113.1c1.3,0.1,3-1.9,3.7,0c0.8,2.3-1.5,2.7-3.2,3.1C104.2,115.2,104.1,114.2,103.9,113.1z"/>
		<path class="st2" d="M64.1,60.2c0.5-1.2,1.1-2.5,2.7-2.1c1.6,0.4,1.2,2,1.3,3.2C66.7,60.9,65.1,61.6,64.1,60.2z"/>
		<path class="st2" d="M110.2,127.1c1.2-0.3,2.5-0.7,3.7-1c0.1,1.8-0.3,3.9-1.9,4.3C110.7,130.6,110.1,128.6,110.2,127.1z"/>
		<path class="st2" d="M89.3,89.1c2.6,0.3,5.8,0.2,2.6,4.1C90.4,92.1,89.7,90.7,89.3,89.1z"/>
		<path class="st2" d="M107,121.3c0.7-0.5,1.5-0.9,2.2-0.2c1.1,1.1,0.3,2.1-0.3,3.1C107.8,123.5,107.1,122.6,107,121.3z"/>
		<path class="st2" d="M66.1,82.8c0.2-2.4,1.5-3.6,3.8-3.8C69.2,80.9,67.9,82.2,66.1,82.8z"/>
		<path class="st2" d="M99.9,102.1c1,0,2.3-0.7,2.8,0.8c0.3,1.1-0.6,1.6-1.5,2.1C100.8,104.1,100.3,103.1,99.9,102.1z"/>
		<path class="st2" d="M58.9,86.8c0.6-0.8,1-2.4,2.2-0.6C60.6,87.1,59.8,87.2,58.9,86.8z"/>
		<path class="st2" d="M111.9,97.4c-0.8-0.7-1.1-1.5-0.6-2.5C111.9,95.7,114,96,111.9,97.4z"/>
		<path class="st2" d="M97,100.2c1.2-0.7,1.7,0,2,1.1C98.3,100.9,97.7,100.6,97,100.2z"/>
		<path class="st2" d="M88.3,86.1c1,0.4,1.4,1.1,0.7,2.1C88,87.7,88.1,86.9,88.3,86.1z"/>
		<path class="st2" d="M73,76.2c1.2-0.7,1.7,0,2,1C74.3,76.9,73.7,76.6,73,76.2z"/>
		<path class="st2" d="M107.9,76.1c-1.5-1-0.9-1.5,0.4-1.9C108.2,74.8,108,75.4,107.9,76.1z"/>
		<path class="st2" d="M113.9,120.1c-0.2-1-0.5-2.1-0.7-3.1C114.3,117.8,114.2,118.9,113.9,120.1z"/>
		<path class="st2" d="M69.8,62.1c0.4,0.2,0.8,0.5,1.2,0.7C70.6,62.6,70.2,62.4,69.8,62.1z"/>
		<path class="st2" d="M113.2,117c-0.1-0.3-0.2-0.6-0.2-0.9C113.2,116.4,113.3,116.7,113.2,117z"/>
		<polygon class="st2" points="76,78 76.2,77.7 76.1,78 		"/>
		<path class="st2" d="M108,79.1c0-0.3-0.1-0.7-0.1-1C108,78.4,108,78.7,108,79.1z"/>
		<path class="st2" d="M110.2,99.3c0.4-0.5,0.8-1,1.2-1.4C110.9,98.3,110.6,98.8,110.2,99.3z"/>
		<path class="st2" d="M93.3,96.1c0.3,0.4,0.5,0.8,0.8,1.2C93.8,96.9,93.5,96.5,93.3,96.1z"/>
		<path class="st2" d="M9.2,66.1c-0.2-0.6-0.3-1.2-0.5-1.9C10,64.5,10.9,65,9.2,66.1z"/>
		<polygon class="st2" points="83.8,74.6 83.4,74.7 83.5,74.4 		"/>
		<polygon class="st2" points="72.5,68.4 72.7,68.7 72.5,68.5 		"/>
		<path class="st2" d="M63.1,76.1L63.1,76.1L63.1,76.1z"/>
		<path class="st2" d="M183.1,14.1c-3.5-0.8-6.9-0.2-10.4,0.3c-1.6,0.3-3,0.1-3.6-1.7c-0.3-1.1-0.8-2.3,0.4-3.2
			c1.5-1.1,2.4,0.2,3.5,0.9c1.7,1.1,3.7,1.5,5.7,1.3C180.8,11.4,182.3,12,183.1,14.1L183.1,14.1z"/>
		<path class="st2" d="M192.2,25.4c-0.2,1.7-0.5,3.2-2.6,1.7c-1.3-1-2.6-2.1-3.9-3.1C190.3,20.4,190.9,20.6,192.2,25.4z"/>
		<path class="st2" d="M189.1,31c2.3,1.7,4.4,3.7,6.1,6.1C192,36.2,187.1,37,189.1,31z"/>
		<path class="st0" d="M184,22.1c0.1,0.3,0.1,0.6,0.1,0.9c-0.2,0.3-0.4,0.5-0.6,0.7c-1.1-0.6-2.2-1.2-3.3-1.8
			c-0.4-0.4-0.8-0.9-1.2-1.3c-0.3-0.8-0.5-1.6-0.8-2.5c0.9,0.3,1.9,0.7,2.8,1l0-0.1c0.5,0.5,1,1,1.5,1.5l0.1,0.1
			C183,21.2,183.5,21.7,184,22.1z"/>
		<path class="st2" d="M181,19.2c-0.9-0.3-1.9-0.7-2.8-1c0.2-0.5,0.4-1.5,0.7-1.5C180.4,16.7,180.6,18.1,181,19.2z"/>
		<path class="st2" d="M178.9,20.7c0.4,0.4,0.8,0.9,1.2,1.3c-0.7,0.3-1.6,1.3-2.2,0.6C177.3,21.8,178.4,21.2,178.9,20.7z"/>
		<path class="st2" d="M184,22.1c-0.5-0.4-1-0.9-1.4-1.3C183.6,20.6,184.5,20.6,184,22.1z"/>
		<polygon class="st2" points="186.9,18.1 187.1,17.8 187.2,18.2 		"/>
		<path class="st2" d="M182.5,20.7c-0.5-0.5-1-1-1.5-1.5C181.4,19.7,182,20.2,182.5,20.7z"/>
		<path class="st2" d="M183.1,14.1L183.1,14.1L183.1,14.1z"/>
	</g>
	<g>
		<path class="st1" d="M292.7,68.4c2.6-2.7,0.4-4.1-1.5-5.6c-0.4-0.2-0.8-0.5-1.2-0.7c-0.6-0.3-1.2-0.6-1.8-0.9
			c-0.1-1.2,0.3-2.8-1.3-3.2c-1.5-0.4-2.2,1-2.7,2.1c-2.2,0-4.3-0.1-6.5-0.1c-3.1,0.1-5.7-0.1-5.6-4.3c0-1.4-0.3-2.7-2.7-2.1
			c-2.9,0.8-6.4-2.5-9.3,1c-0.2,0.2-1.4-0.6-2.2-0.8c-2-0.6-2.4-4.2-5-3.1c-3.4,1.5-6.9,3.2-9.6,6c-2.5,2.6-2.9,6.2-4.2,9.4
			c-3.9-1.8-5.6,1.2-7.6,3.4c-0.8-0.5-1.6-1.1-2.5-1.6c0.1-0.6,0.2-1.3,0.4-1.9c1.6-1.1,0.8-1.5-0.5-1.9c-2.9-1.2-5.8,2.4-8.7-0.1
			c0-15,0-30,0-45c2-1.5,4.1-2.8,6-4.4c10.1-8,20.7-7.6,31.4-1.8c5.5,3,11.3,3.1,17.3,3.2c18.6,0.2,34.1,7.4,47.8,19.8
			c8.9,8.1,9.2,18.2,8,28.7c-0.4,3.2-0.7,6.5-2.4,9.5c-1.3,0.4-1.9,1-0.4,1.9c0,0.7,0,1.3,0,2c0,0.3,0.1,0.7,0.1,1
			c0.2,0.2,0.2,0.4,0.2,0.7c0.5,2.9-1.8,6.8,2.8,8.3c1.8,2.2-0.7,4.6,0.3,6.9c-0.5,1-0.2,1.8,0.6,2.5c0,0.3-0.2,0.5-0.6,0.4
			c-0.4,0.5-0.8,1-1.2,1.4c-1.4,6,1.7,11.2,2.8,16.8c0.1,0.3,0.2,0.6,0.2,0.9l0-0.1c0.2,1,0.5,2.1,0.7,3.1c0,2,0,4,0,6
			c-1.2,0.3-2.5,0.7-3.7,1c-0.4-1-0.9-1.9-1.3-2.9c0.6-1,1.4-2,0.3-3.1c-0.7-0.7-1.5-0.3-2.2,0.2c-0.9-1.7-1.7-3.4-2.6-5.1
			c1.8-0.3,4-0.7,3.2-3.1c-0.7-2-2.4,0.1-3.7,0c-2.1-2.3-1.9-5.3-2.7-8.1c0.9-0.4,1.8-1,1.5-2.1c-0.4-1.5-1.7-0.9-2.8-0.8
			c-0.3-0.3-0.6-0.6-0.9-0.9c-0.3-1.1-0.8-1.7-2-1.1c-1.7-0.2-2.8-1.1-3-2.9c-0.3-0.4-0.5-0.8-0.8-1.2c-0.5-1-1-1.9-1.4-2.9
			c3.2-3.9,0-3.8-2.6-4.1c-0.2-0.3-0.3-0.6-0.3-0.9c0.7-1,0.4-1.6-0.7-2.1c-1.6-2.8-1.3-7.6-6.8-6.1c-1.4-1.8-3.2-2.6-5.5-1.6
			c0,0,0-0.3,0-0.3s0.1-0.3,0.1-0.3l-0.2,0.3c-0.7,0.2-0.9-0.2-1-0.8c-0.3-1.1-0.8-1.7-2-1c-1.9,0-2.1,1.8-3.1,2.8
			c-2.4,0.2-3.7,1.4-3.8,3.8c-1.6,1.1-2.7,3.1-4.9,3.3c-1.3-1.9-1.7-0.3-2.2,0.6c-0.9-0.1-1.8-0.3-2.7-0.4c0.8-4.4,1.4-9,6.9-10.3
			l0,0c0-1.3,0-2.5,0-3.8C286.2,70.6,290,70.9,292.7,68.4l0.2,0.3L292.7,68.4z M303.9,74.6l-0.3-0.2l0,0.3L303.9,74.6z"/>
		<path class="st1" d="M420.3,107.1c-6.4,0.7-10.4-3.9-14.8-7.1c-3.6-2.5-6.2-6.4-11-7.1c-0.7-0.1-1.7-0.9-1.8-1.5
			c-0.2-2.1,2.8-0.8,2.9-3.2c-1-2.2-2.8-0.4-4.3,0c-2.1,0.6-4.8,1.9-5.6-0.8c-0.7-2.5,2-3.3,4.4-3.4c0.6,0,1.3-0.1,1.5-1.4
			c-2.8-0.1-5.2-2.2-8.3-1.1c-1.6,0.5-3.2,0.2-2-1.9c2-3.5-0.1-5.6-2.4-7.1c-4.8-3.1-8.2-7.7-12.8-11c-1.2-0.8-1.6-2-2.2-3.2
			c-2.4-4.5-5.1-8.6-10.2-11c-3.3-1.6-6.2-5.1-8.2-8.4c-3.7-6.1-7.3-12.4-11.3-18.3c-1.3-1.9-1.3-3.3,1.6-3.7
			c3.8-0.6,5.2-2.9,3.9-6.8c-1.2-3.4,1.5-6.7,0.6-10.2c25.7,0,51.3,0,77-0.1c2.5,0,3.1,0.6,3.1,3.1c-0.2,11-0.1,22-0.1,33
			c-4,0.7-5-2.7-6.2-5.1c-1.6-3.1,1.9-2.3,3.3-3.3c1.2-0.9,0.3-1.8-0.5-2.3c-1.4-0.7-2.9-0.3-4.4-0.1c-1.3-4.8-2-4.9-6.5-1.4
			c-0.5-0.3-1-0.6-1.6-0.9c0-0.3-0.1-0.6-0.1-0.9c0.5-1.5-0.4-1.5-1.4-1.3l-0.1-0.1c-0.5-0.5-1-1-1.5-1.5l0,0.1
			c-0.4-1.2-0.6-2.5-2.2-2.5c-0.2,0-0.4,1-0.7,1.5c0.3,0.8,0.5,1.6,0.8,2.5c-0.6,0.5-1.7,1.1-1,1.9c0.6,0.7,1.5-0.3,2.2-0.6
			c1.1,0.6,2.2,1.2,3.3,1.8c1.9,2.4,3.7,4.8,5.6,7.2c-2,6,2.9,5.2,6.1,6.1c1.8,0.8,2.6,3.2,4.9,3c0,13.3,0,26.7,0,40
			c-5,1.4-3.2,6-3.8,9.1c-0.5,2.5-0.2,6.1,3.8,6.9C420.3,99.7,420.3,103.4,420.3,107.1z M403.3,14.1L403.3,14.1
			c-0.8-2.1-2.3-2.7-4.4-2.4c-2,0.2-4-0.2-5.7-1.3c-1.1-0.7-2-2-3.5-0.9c-1.2,0.9-0.7,2.1-0.4,3.2c0.5,1.9,1.9,2,3.6,1.7
			C396.3,13.8,399.8,13.3,403.3,14.1z M407,18.1l0.4,0.1l-0.1-0.3L407,18.1z"/>
		<path class="st2" d="M324.3,215.1c-3.1-2.8-6.3-5.2-10.5-6.1c-1.4-0.3-2.9-1-3.9-2c-1.6-1.5-2.9-3.8-2.2-5.7
			c0.9-2.3,3.3-0.8,5.2-0.5c10.9,1.2,21.4,3.8,31.8,7.2c3.6,1.2,5.7,3.2,5.6,7.1C341.6,215.1,332.9,215.1,324.3,215.1z"/>
		<path class="st2" d="M220.3,76.1c4.5-1,5-6.3,8.8-8.1c0.8,0.5,1.6,1.1,2.5,1.6c-3.3,4.3-7.8,7.6-9.6,13c-0.2,0.7-0.9,0.8-1.6,0.5
			C220.3,80.7,220.3,78.4,220.3,76.1z"/>
		<path class="st2" d="M220.3,95.1c1.8-0.9,1.7,0.6,2,1.6c0.3,1.1,0,2.6,0.6,3.4c4,5.1-1.2,9.3-1.2,13.9c0,0.1-0.8,0.1-1.3,0.2
			C220.3,107.7,220.3,101.4,220.3,95.1z"/>
		<path class="st2" d="M246.3,0.1c1,1.6-0.5,1.8-1.3,2.1c-2.9,1.1-5.5,2.7-8.3,4.7c-0.6-2.6-0.7-4.7,0.6-6.8
			C240.3,0.1,243.3,0.1,246.3,0.1z"/>
		<path class="st2" d="M406.9,198.1c-3.3-0.5-5.9-2.9-7.4-5.8c-5.1-9.5-10.7-18.8-13.6-29.3c-2.2-8-7.6-13.9-12-20.4
			c-2.1-3-3.9-6.2-5.5-9.5c-3.1-6.4-7.2-11.7-14.2-14.2c-2-0.7-7.2-12-6.8-14c0.3-1.5,1.1-1.9,2.4-1.9c1.5,0,2.9-0.2,1.6-2.2
			c-0.6-1-1.7-2.1,0.4-2.6c1.5-0.4,3.6-0.4,4,1.1c1,3.8,3.2,2.9,5.4,1.7c1.5-0.8,2.4-0.4,3.3,0.7c1.1,1.3-0.2,1.7-0.7,2.3
			c-3.6,4.6-3.7,8.9,0.9,12.6c11.1,9,17,21.4,22.4,34c1.4,3.3,3.5,6,5.2,9c6.2,10.6,10.1,22.4,16.6,32.8c0.8,1.4,2.1,3.2,1.2,5.1
			C409.5,198.5,408.2,198.1,406.9,198.1z"/>
		<path class="st2" d="M347.8,186.4c-1.8,1-3.3,0.6-4.9,0c-5.2-2.1-10.7-3.3-16.4-3.3c-1.5,0-3.4,0.2-3.8-1.5
			c-0.5-1.9,1.3-2.9,2.6-3.9c0.5-0.4,1.2-0.7,1.8-0.6c10.7,1.3,17.8-4.1,23.9-12.2c3.3-4.3,5.7-3.5,7.1,1.9c0.6,2.3,1.8,3.4,3.7,4.7
			c2,1.4,5.5,2.7,4.5,6.1c-0.3,1,1.8,3.2-1.1,3.2c-2.1,0-4.5,1.2-6-1c-1.5-2.3-2.9-5.2-5.8-4.5c-3.4,0.8-6.1,3.5-8.1,6.3
			C343.5,184.1,347.5,184.2,347.8,186.4z"/>
		<path class="st2" d="M283.3,72.3c0,1.3,0,2.5,0,3.8l0,0c-5.5,1.3-6.1,5.8-6.9,10.3c-0.4,0.5-1.2,1.5-1.2,1.4
			c-4-2.5-5.2,0.6-5.5,3.3c-0.5,3.6,0.9,6.6,4.5,8.5c2.4,1.3,5,1.3,7.6,1.8c-1.8,2.3-4.1,1.7-6.2,1.7c-1.5,0-5.9-1.9-7.5-3.1
			c-3.3-2.4-5.7-0.5-7.1,5.9c-1.1-0.9-2.1-1.8-3-2.7c-1.6-1.4-2.5-1.3-3.8,0.8c-3.2,5.2-5.5,6.2-10.3,5.8c-0.3-1.8,2.1-3.5,0.2-5.5
			c-1.1-1.2,0.3-1.8,0.9-2.3c5.6-5.1,12.4-8.5,18.3-13.1c4.6-3.6,11.2-4.9,13.6-11.5C277.7,74.9,280.3,72.9,283.3,72.3z"/>
		<path class="st2" d="M227.8,106.2c3.3,2.6,5.8,1.7,8.1-1.2c0.8-1.1,2.1-2.9,3.6-1.4c1.3,1.3-0.6,2.4-1.4,3.1
			c-2.9,2.6-3.3,5-1.4,8.7c2.1,4.1,1.5,9.3,5.4,12.9c0.7,0.7,1.1,3.5-0.7,4.4c-1.8,0.9-2.3-1.4-3.4-2c-4.3-2.4-6.8-7.9-13.1-7
			c-1.5,0.2-1.9-3.9-1.2-4.8C226.6,115.3,225.8,110.6,227.8,106.2z"/>
		<path class="st2" d="M311.2,148.3c0.1,3.4-5,5.9-1.3,8.8c-7.5,5.9-15.4,0.5-23,1.4c-0.6,0.1-1.8-1.1-2-1.8
			c-0.3-1.4,0.6-2.9,1.8-3.2c5.5-1.3,10.5-5.6,16.8-2.4C306.1,152.5,307.7,148,311.2,148.3z"/>
		<path class="st2" d="M279.7,110.7c1.5-0.5,2.5,2,4.5,0.6c0.8-0.6,1.3,0.6,1.1,1.5c-0.4,2.6-5.3,5.8-8,5.1c-0.7-0.2-1.2,0.2-1.8,0
			c-1.7-0.4-4.6,3.3-5-0.8c-0.3-2.6,1.4-5.4,4.8-6C276.7,110.8,278.2,110.8,279.7,110.7z"/>
		<path class="st2" d="M296.2,78.3c2.3-1,4-0.2,5.5,1.6c0.4,9.6-6,13.3-14.3,16.5c2-4.1,5.5-6,7.6-8.9
			C297.1,84.6,298.6,81.8,296.2,78.3z"/>
		<path class="st2" d="M292.7,190.7c-5.4-1.2-10-3.6-13.8-7.7c-0.9-0.9-1.1-2.4-0.3-3.2c0.8-0.9,2.2,0.1,3,0.5
			C286.2,182.8,289.4,186.7,292.7,190.7z"/>
		<path class="st2" d="M300.1,113.3c1.1,0.3,2.6,0.4,1.3,2.1c-0.9,1.2-1.6,2.6-2.8,3.4c-1.8,1.2-3.6,3.4-6.2,1.7
			c-0.7-0.5-1.8-1.8-1.7-2.1c1-2.1,3.1-2.8,5.2-3.5C297.3,114.5,298.7,113.9,300.1,113.3z"/>
		<path class="st2" d="M250.1,120.7c2.4-2,4.7-4.1,7.1-6.1c0.7-0.6,1.4-1.7,2.4-0.8c1,0.8,0.3,1.8-0.2,2.7c-1.8,3.4-4.3,5.8-8.4,5.5
			C250.8,121.6,250.5,121.1,250.1,120.7z"/>
		<path class="st2" d="M268.2,201.7c-3.7-1.1-5.6-3-4.8-6.7c0.3-1.5,1.8-2.5,3-1.8C270.1,195.3,267.6,198.6,268.2,201.7z"/>
		<path class="st2" d="M331.2,88.1c-4.7-1.5-2.4-5.4-2.8-8.3C333.3,81.2,333,84.4,331.2,88.1z"/>
		<path class="st2" d="M264.9,73.3c0.5,3.7-2.4,4.7-4.2,6.4c0,0-1-0.6-1-0.9C260,75.8,262.2,74.5,264.9,73.3z"/>
		<path class="st2" d="M243.3,89c0.1,0.3,0.7,1.1,0.5,1.4c-1,1.8-2.4,3.5-4.5,4.1c-0.8,0.2-1.1-0.7-1-1.3
			C238.8,91.1,240.7,90.3,243.3,89z"/>
		<path class="st2" d="M364.4,87.8c0-1.4,0.9-1.7,2-1.7c1.4-0.1,2.9,0,3.3,1.5c0.4,1.4-1,1.5-1.9,1.4C366.6,89,365,89.5,364.4,87.8z
			"/>
		<path class="st2" d="M288.4,95.6c-2.3,3.8-5,4.8-9.3,4.1C282.4,98,284.8,96.5,288.4,95.6z"/>
		<path class="st2" d="M324.1,113.1c1.3,0.1,3-1.9,3.7,0c0.8,2.3-1.5,2.7-3.2,3.1C324.4,115.2,324.2,114.2,324.1,113.1z"/>
		<path class="st2" d="M284.2,60.2c0.5-1.2,1.1-2.5,2.7-2.1c1.6,0.4,1.2,2,1.3,3.2C286.9,60.9,285.3,61.6,284.2,60.2z"/>
		<path class="st2" d="M330.4,127.1c1.2-0.3,2.5-0.7,3.7-1c0.1,1.8-0.3,3.9-1.9,4.3C330.9,130.6,330.3,128.6,330.4,127.1z"/>
		<path class="st2" d="M309.4,89.1c2.6,0.3,5.8,0.2,2.6,4.1C310.6,92.1,309.9,90.7,309.4,89.1z"/>
		<path class="st2" d="M327.2,121.3c0.7-0.5,1.5-0.9,2.2-0.2c1.1,1.1,0.3,2.1-0.3,3.1C328,123.5,327.3,122.6,327.2,121.3z"/>
		<path class="st2" d="M286.2,82.8c0.2-2.4,1.5-3.6,3.8-3.8C289.3,80.9,288.1,82.2,286.2,82.8z"/>
		<path class="st2" d="M320.1,102.1c1,0,2.3-0.7,2.8,0.8c0.3,1.1-0.6,1.6-1.5,2.1C320.9,104.1,320.5,103.1,320.1,102.1z"/>
		<path class="st2" d="M279.1,86.8c0.6-0.8,1-2.4,2.2-0.6C280.7,87.1,280,87.2,279.1,86.8z"/>
		<path class="st2" d="M332.1,97.4c-0.8-0.7-1.1-1.5-0.6-2.5C332.1,95.7,334.2,96,332.1,97.4z"/>
		<path class="st2" d="M317.2,100.2c1.2-0.7,1.7,0,2,1.1C318.5,100.9,317.9,100.6,317.2,100.2z"/>
		<path class="st2" d="M308.5,86.1c1,0.4,1.4,1.1,0.7,2.1C308.2,87.7,308.3,86.9,308.5,86.1z"/>
		<path class="st2" d="M293.2,76.2c1.2-0.7,1.7,0,2,1C294.5,76.9,293.9,76.6,293.2,76.2z"/>
		<path class="st2" d="M328.1,76.1c-1.5-1-0.9-1.5,0.4-1.9C328.3,74.8,328.2,75.4,328.1,76.1z"/>
		<path class="st2" d="M334.1,120.1c-0.2-1-0.5-2.1-0.7-3.1C334.5,117.8,334.4,118.9,334.1,120.1z"/>
		<path class="st2" d="M290,62.1c0.4,0.2,0.8,0.5,1.2,0.7C290.8,62.6,290.4,62.4,290,62.1z"/>
		<path class="st2" d="M333.4,117c-0.1-0.3-0.2-0.6-0.2-0.9C333.4,116.4,333.4,116.7,333.4,117z"/>
		<polygon class="st2" points="296.2,78 296.4,77.7 296.3,78 		"/>
		<path class="st2" d="M328.2,79.1c0-0.3-0.1-0.7-0.1-1C328.1,78.4,328.2,78.7,328.2,79.1z"/>
		<path class="st2" d="M330.3,99.3c0.4-0.5,0.8-1,1.2-1.4C331.1,98.3,330.7,98.8,330.3,99.3z"/>
		<path class="st2" d="M313.4,96.1c0.3,0.4,0.5,0.8,0.8,1.2C313.9,96.9,313.7,96.5,313.4,96.1z"/>
		<path class="st2" d="M229.4,66.1c-0.2-0.6-0.3-1.2-0.5-1.9C230.2,64.5,231,65,229.4,66.1z"/>
		<polygon class="st2" points="303.9,74.6 303.6,74.7 303.7,74.4 		"/>
		<polygon class="st2" points="292.7,68.4 292.9,68.7 292.7,68.5 		"/>
		<path class="st2" d="M283.3,76.1L283.3,76.1L283.3,76.1z"/>
		<path class="st2" d="M403.3,14.1c-3.5-0.8-6.9-0.2-10.4,0.3c-1.6,0.3-3,0.1-3.6-1.7c-0.3-1.1-0.8-2.3,0.4-3.2
			c1.5-1.1,2.4,0.2,3.5,0.9c1.7,1.1,3.7,1.5,5.7,1.3C401,11.4,402.5,12,403.3,14.1L403.3,14.1z"/>
		<path class="st2" d="M412.4,25.4c-0.2,1.7-0.5,3.2-2.6,1.7c-1.3-1-2.6-2.1-3.9-3.1C410.4,20.4,411.1,20.6,412.4,25.4z"/>
		<path class="st2" d="M409.3,31c2.3,1.7,4.4,3.7,6.1,6.1C412.2,36.2,407.3,37,409.3,31z"/>
		<path class="st2" d="M401.2,19.2c-0.9-0.3-1.9-0.7-2.8-1c0.2-0.5,0.4-1.5,0.7-1.5C400.5,16.7,400.8,18.1,401.2,19.2z"/>
		<path class="st2" d="M399.1,20.7c0.4,0.4,0.8,0.9,1.2,1.3c-0.7,0.3-1.6,1.3-2.2,0.6C397.4,21.8,398.5,21.2,399.1,20.7z"/>
		<path class="st2" d="M404.2,22.1c-0.5-0.4-1-0.9-1.4-1.3C403.8,20.6,404.6,20.6,404.2,22.1z"/>
		<polygon class="st2" points="407,18.1 407.3,17.8 407.4,18.2 		"/>
		<path class="st2" d="M402.6,20.7c-0.5-0.5-1-1-1.5-1.5C401.6,19.7,402.1,20.2,402.6,20.7z"/>
		<path class="st2" d="M403.3,14.1L403.3,14.1L403.3,14.1z"/>
	</g>
	<g>
		<path class="st0" d="M640.4,107.1c0,34.8,0,69.7,0.1,104.5c0,3-0.6,3.6-3.6,3.6c-22.2-0.2-44.3-0.1-66.5-0.1
			c0.1-3.9-2-5.9-5.6-7.1c-10.4-3.4-20.9-6-31.8-7.2c-1.9-0.2-4.3-1.7-5.2,0.5c-0.8,1.9,0.5,4.3,2.2,5.7c1.1,1,2.5,1.7,3.9,2
			c4.2,0.9,7.4,3.3,10.5,6.1c-33.5,0-67,0-100.5,0.1c-3,0-3.6-0.6-3.6-3.6c0.1-32.5,0.1-65,0.1-97.5c0.4-0.1,1.3-0.1,1.3-0.2
			c0-4.7,5.2-8.8,1.2-13.9c-0.6-0.8-0.3-2.2-0.6-3.4c-0.2-1-0.2-2.5-2-1.6c0-4,0-8,0-12c0.7,0.4,1.4,0.2,1.6-0.5
			c1.8-5.4,6.3-8.7,9.6-13c2.1-2.2,3.8-5.3,7.6-3.4c1.3-3.2,1.7-6.8,4.2-9.4c2.7-2.8,6.1-4.5,9.6-6c2.6-1.1,3,2.5,5,3.1
			c0.8,0.2,2,1,2.2,0.8c2.9-3.4,6.3-0.2,9.3-1c2.4-0.6,2.8,0.6,2.7,2.1c-0.1,4.2,2.5,4.4,5.6,4.3c2.2-0.1,4.3,0,6.5,0.1
			c1,1.4,2.6,0.8,4,1.1c0.6,0.3,1.2,0.6,1.8,0.9c0.4,0.2,0.8,0.5,1.2,0.7c1.9,1.5,4.1,2.9,1.5,5.6l0,0c-2.7,2.4-6.4,2.1-9.4,3.9
			c-3,0.6-5.6,2.6-6.5,5c-2.4,6.6-8.9,7.9-13.6,11.5c-5.9,4.6-12.7,8-18.3,13.1c-0.6,0.6-2,1.2-0.9,2.3c1.8,2-0.5,3.7-0.2,5.5
			c4.9,0.4,7.1-0.6,10.3-5.8c1.3-2,2.1-2.2,3.8-0.8c1,0.9,2,1.7,3,2.7c1.4-6.4,3.9-8.3,7.1-5.9c1.6,1.2,5.9,3.1,7.5,3.1
			c2.1,0,4.4,0.5,6.2-1.7c-2.7-0.4-5.2-0.5-7.6-1.8c-3.6-1.9-5-4.9-4.5-8.5c0.4-2.7,1.6-5.8,5.5-3.3c0.1,0.1,0.8-0.9,1.2-1.4
			c0.9,0.1,1.8,0.3,2.7,0.4c0.9,0.4,1.7,0.3,2.2-0.6c2.2-0.2,3.3-2.2,4.9-3.3c1.9-0.7,3.1-2,3.8-3.8c1-1,1.2-2.9,3.1-2.8
			c0.7,0.3,1.3,0.7,2,1c0.1,0.5,0.4,0.9,1,0.8l0,0l0,0.3c2.3,3.4,0.9,6.3-1.2,9.2c-2.2,3-5.6,4.9-7.6,8.9
			c8.3-3.2,14.7-6.9,14.3-16.5c5.5-1.5,5.2,3.3,6.8,6.1c-0.2,0.8-0.3,1.6,0.7,2.1c0,0.3,0.1,0.7,0.3,0.9c0.4,1.7,1.2,3.1,2.6,4.1
			c0.5,1,1,1.9,1.4,2.9c0.3,0.4,0.5,0.8,0.8,1.2c0.2,1.8,1.3,2.7,3,2.9c0.7,0.4,1.3,0.7,2,1.1c0.3,0.3,0.6,0.6,0.9,0.9
			c0.4,1,0.9,2,1.3,2.9c0.8,2.7,0.6,5.8,2.7,8.1c0.2,1,0.3,2,0.5,3.1c0.9,1.7,1.7,3.4,2.6,5.1c0.1,1.3,0.8,2.2,1.9,2.9
			c0.4,1,0.9,1.9,1.3,2.9c-0.1,1.5,0.5,3.5,1.8,3.3c1.6-0.3,2-2.5,1.9-4.3c0-2,0-4,0-6c0.3-1.2,0.4-2.3-0.7-3.1l0,0.1
			c0.1-0.3,0-0.7-0.2-0.9c-1.1-5.6-4.2-10.8-2.8-16.8c0.4-0.5,0.8-1,1.2-1.5c0.3,0.1,0.5-0.1,0.6-0.4c2.1-1.4,0-1.7-0.6-2.5
			c-1-2.3,1.5-4.7-0.3-6.9c1.8-3.7,2.1-6.9-2.8-8.3c0.1-0.3,0-0.5-0.2-0.7c0-0.3-0.1-0.7-0.1-1c0-0.7,0-1.3,0-2
			c0.1-0.6,0.2-1.3,0.4-1.9c1.7-2.9,2-6.3,2.4-9.5c1.2-10.5,0.9-20.6-8-28.7c-13.6-12.5-29.2-19.6-47.8-19.8
			c-6-0.1-11.8-0.2-17.3-3.2c-10.7-5.8-21.4-6.2-31.4,1.8c-1.9,1.5-4,2.9-6,4.4c0-5.7,0.1-11.3-0.1-17c0-1.7,0.3-2.1,2.1-2.1
			c5,0.2,10,0.1,15,0.1c-1.3,2-1.2,4.2-0.6,6.8c2.8-2,5.4-3.6,8.3-4.7c0.8-0.3,2.3-0.5,1.3-2.1c31.3,0,62.7,0,94,0
			c0.9,3.5-1.8,6.7-0.6,10.2c1.3,3.9-0.1,6.2-3.9,6.8c-2.9,0.5-2.9,1.8-1.6,3.7c4.1,5.9,7.6,12.1,11.3,18.3c2,3.3,4.8,6.9,8.2,8.4
			c5.2,2.4,7.8,6.5,10.2,11c0.6,1.2,1,2.3,2.2,3.2c4.6,3.3,8,7.9,12.8,11c2.3,1.4,4.3,3.6,2.4,7.1c-1.2,2.1,0.5,2.4,2,1.9
			c3.1-1.1,5.5,1,8.3,1.1c-0.1,1.4-0.8,1.4-1.5,1.4c-2.4,0.1-5.1,0.9-4.4,3.4c0.7,2.7,3.5,1.4,5.6,0.8c1.4-0.4,3.3-2.2,4.3,0
			c-0.1,2.4-3.1,1.1-2.9,3.2c0.1,0.6,1.1,1.4,1.8,1.5c4.8,0.7,7.4,4.6,11,7.1C630.1,103.1,634,107.8,640.4,107.1z M627.1,198.1
			c1.3,0,2.6,0.5,3.1-0.5c0.9-1.8-0.3-3.7-1.2-5.1c-6.5-10.4-10.4-22.2-16.6-32.8c-1.7-3-3.8-5.7-5.2-9c-5.4-12.7-11.2-25-22.4-34
			c-4.5-3.7-4.4-8-0.9-12.6c0.5-0.7,1.8-1.1,0.7-2.3c-1-1.1-1.8-1.5-3.3-0.7c-2.2,1.1-4.4,2-5.4-1.7c-0.4-1.5-2.5-1.5-4-1.1
			c-2,0.5-0.9,1.7-0.4,2.6c1.2,2.1-0.2,2.2-1.6,2.2c-1.3,0-2.2,0.4-2.4,1.9c-0.3,2,4.9,13.2,6.8,14c7,2.5,11.1,7.8,14.2,14.2
			c1.6,3.3,3.4,6.4,5.5,9.5c4.5,6.5,9.8,12.4,12,20.4c2.9,10.4,8.5,19.8,13.6,29.3C621.2,195.2,623.8,197.5,627.1,198.1z M568,186.4
			c-0.3-2.2-4.3-2.3-2.5-4.8c2-2.8,4.7-5.5,8.1-6.3c2.9-0.7,4.3,2.3,5.8,4.5c1.5,2.2,3.9,1,6,1c2.9,0,0.8-2.2,1.1-3.2
			c1-3.4-2.5-4.7-4.5-6.1c-1.9-1.3-3.1-2.4-3.7-4.7c-1.4-5.5-3.8-6.3-7.1-1.9c-6.1,8.1-13.2,13.5-23.9,12.2
			c-0.6-0.1-1.3,0.2-1.8,0.6c-1.3,1-3.1,2-2.6,3.9c0.4,1.7,2.3,1.5,3.8,1.5c5.7,0.1,11.1,1.2,16.4,3.3
			C564.7,187.1,566.2,187.4,568,186.4z M447.9,106.2c-2,4.5-1.2,9.1-4.2,12.7c-0.8,0.9-0.3,5,1.2,4.8c6.3-0.8,8.9,4.6,13.1,7
			c1.1,0.7,1.6,2.9,3.4,2c1.8-0.9,1.5-3.7,0.7-4.4c-3.9-3.6-3.3-8.8-5.4-12.9c-1.9-3.7-1.5-6.1,1.4-8.7c0.9-0.7,2.7-1.8,1.4-3.1
			c-1.5-1.5-2.8,0.3-3.6,1.4C453.8,107.9,451.2,108.8,447.9,106.2z M531.3,148.3c-3.5-0.3-5.1,4.2-7.8,2.8
			c-6.4-3.2-11.3,1.1-16.8,2.4c-1.1,0.3-2.1,1.8-1.8,3.2c0.2,0.8,1.4,1.9,2,1.8c7.6-1,15.5,4.4,23-1.4
			C526.3,154.2,531.4,151.7,531.3,148.3z M499.8,110.7c-1.5,0.1-3,0.2-4.4,0.4c-3.3,0.6-5,3.4-4.8,6c0.4,4.1,3.3,0.4,5,0.8
			c0.5,0.1,1.1-0.2,1.8,0c2.7,0.7,7.6-2.5,8-5.1c0.1-0.9-0.3-2.1-1.1-1.5C502.3,112.7,501.4,110.2,499.8,110.7z M512.9,190.7
			c-3.3-4-6.5-8-11.1-10.4c-0.8-0.4-2.2-1.4-3-0.5c-0.8,0.8-0.5,2.3,0.3,3.2C502.8,187.1,507.5,189.5,512.9,190.7z M520.2,113.3
			c-1.4,0.6-2.7,1.2-4.1,1.7c-2.1,0.7-4.2,1.4-5.2,3.5c-0.2,0.4,0.9,1.6,1.7,2.1c2.6,1.6,4.4-0.5,6.2-1.7c1.2-0.8,1.9-2.2,2.8-3.4
			C522.8,113.7,521.3,113.6,520.2,113.3z M470.3,120.7c0.3,0.4,0.6,0.8,1,1.3c4.1,0.2,6.6-2.1,8.4-5.5c0.5-0.9,1.1-1.9,0.2-2.7
			c-1.1-0.9-1.8,0.3-2.4,0.8C475,116.6,472.7,118.7,470.3,120.7z M488.4,201.7c-0.6-3.1,1.9-6.5-1.7-8.5c-1.2-0.7-2.7,0.4-3,1.8
			C482.8,198.7,484.6,200.6,488.4,201.7z M485.1,73.3c-2.7,1.2-4.9,2.5-5.2,5.5c0,0.3,1,0.9,1,0.9C482.7,78,485.6,77,485.1,73.3z
			 M463.5,89c-2.6,1.3-4.5,2-4.9,4.3c-0.1,0.6,0.2,1.6,1,1.3c2.1-0.6,3.4-2.3,4.5-4.1C464.2,90.1,463.6,89.3,463.5,89z M584.6,87.8
			c0.6,1.7,2.1,1.2,3.4,1.2c1,0,2.3,0,1.9-1.4c-0.4-1.5-1.9-1.6-3.3-1.5C585.5,86.1,584.6,86.5,584.6,87.8z M508.6,95.6
			c-3.6,0.8-6,2.3-9.3,4.1C503.6,100.5,506.2,99.4,508.6,95.6z"/>
		<path class="st0" d="M624.5,23c0.5,0.3,1,0.6,1.6,0.9c1.3,1,2.5,2.1,3.9,3.1c2.2,1.6,2.5,0,2.6-1.7c1.5-0.3,3-0.6,4.4,0.1
			c0.8,0.4,1.8,1.4,0.5,2.3c-1.3,0.9-4.9,0.1-3.3,3.3c1.2,2.3,2.3,5.8,6.2,5.1c0,1.3,0,2.7,0,4c-2.3,0.1-3.1-2.2-4.9-3
			c-1.7-2.4-3.8-4.3-6.1-6.1c-1.9-2.4-3.7-4.8-5.6-7.2C624.1,23.5,624.3,23.3,624.5,23z"/>
		<path class="st0" d="M449.6,66.1c-0.1,0.6-0.2,1.3-0.4,1.9c-3.8,1.8-4.3,7.1-8.8,8.1c0-4,0-8,0-12c2.9,2.5,5.8-1,8.7,0.1
			C449.3,64.8,449.4,65.4,449.6,66.1z"/>
		<path class="st0" d="M640.4,96.1c-4-0.8-4.2-4.5-3.8-6.9c0.6-3.1-1.3-7.7,3.8-9.1C640.4,85.4,640.4,90.7,640.4,96.1z"/>
		<path class="st0" d="M624.3,22.1c0.1,0.3,0.1,0.6,0.1,0.9c-0.2,0.3-0.4,0.5-0.6,0.7c-1.1-0.6-2.2-1.2-3.3-1.8
			c-0.4-0.4-0.8-0.9-1.2-1.3c-0.3-0.8-0.5-1.6-0.8-2.5c0.9,0.3,1.9,0.7,2.8,1l0-0.1c0.5,0.5,1,1,1.5,1.5l0.1,0.1
			C623.4,21.2,623.9,21.7,624.3,22.1z"/>
	</g>
</g>
<g>
</g>
<g>
</g>
<g>
</g>
<g>
</g>
<g>
</g>
<g>
</g>
<g>
</g>
<g>
</g>
<g>
</g>
<g>
</g>
<g>
</g>
<g>
</g>
<g>
</g>
<g>
</g>
<g>
</g>
</svg>
