<?xml version="1.0" encoding="utf-8"?>
<!-- Generator: Adobe Illustrator 17.1.0, SVG Export Plug-In . SVG Version: 6.00 Build 0)  -->
<!DOCTYPE svg PUBLIC "-//W3C//DTD SVG 1.1//EN" "http://www.w3.org/Graphics/SVG/1.1/DTD/svg11.dtd">
<svg version="1.1" id="Layer_1" xmlns="http://www.w3.org/2000/svg" xmlns:xlink="http://www.w3.org/1999/xlink" x="0px" y="0px"
	 viewBox="0 0 644.3 242" style="enable-background:new 0 0 644.3 242;" xml:space="preserve">
<style type="text/css">
	.st0{fill:#F90101;}
	.st1{fill:#050101;}
	.st2{fill:#FBF5F5;}
</style>
<g>
	<g>
		<path class="st0" d="M1.5,0.1c66.4,0,132.8,0,199.2,0c-0.2,2,0.6,4,0.2,6.1c-0.4,2-0.3,4.1-0.3,6.1c0,26.6,0,53.2,0,79.9
			c0,0.5,0,1-0.1,1.4c-2.1-1.8-3.8-3.9-5.8-5.8c-0.3,0.3-0.3,0.6-0.3,0.8c-0.1,0.7-0.5,1.3-1.3,1.3c-0.9,0.1-1.3-0.5-1.5-1.2
			c-0.1-0.5-0.3-0.9-0.3-1.4c-0.5-3.9-2.3-7.2-5-10.1c-3.8-4.2-7.5-8.6-10.4-13.4c0-0.1-0.2-0.1-0.4-0.2c0,1.7,0,3.4,0,5
			c-0.7-0.9-1.3-1.9-1.7-3c-1.8-4.3-4-8.3-7.5-11.5c-0.3-0.2-0.4-0.6-0.8-0.6c-1.4,0.1-2.9,0-4.3,0.6c0.3,0.4,0.7,0.9,0.2,1.4
			c-0.7,0.7-1.5,1.3-2.1,2.1c0,0.1-0.3,0.2-0.3,0.1c-1.7-1.1-3.8-0.5-5.7-0.9c-0.8-0.2-1.6-0.3-2.4,0c-3.2,1.1-6.3,2.2-9.6,3.4
			c1.5,0.3,2,0.9,2.1,2.2c0.1,1.2-0.6,1.9-1.7,2.1c-2.3,0.4-4.5,0.8-6.8,1.1c-1,0.1-1.8-0.3-2.1-1.3c-0.2-0.8-0.7-0.5-1.2-0.4
			c-0.7,0.2-0.4,0.5-0.3,0.9c0.5,0.9,0.3,1.6-0.6,2.3c-1.5,1.1-1.8,2.2-1.1,4c0.7,2,1.2,4.2,3.5,5.1c0.8,0.3,1.1,1.2,0.5,1.9
			c-0.7,0.9-0.9,1.8-1,2.8c-0.3,1.6-1.1,3-2,4.3c-0.4,0.6-0.9,1.2-1.3,1.9c-0.5,0.9-0.6,1.8-0.1,2.7c1.6,3.2,2.8,6.6,3.5,10
			c0.9,4.5,2.9,8.4,5.5,12.1c0.7,1,1.4,2,2,3.1c0.6,1.1,1.5,1.2,2.4,0.7c1.9-1,3.9-1.7,5.2-3.7c1.1-1.8,3-1.4,4,0.5
			c0.5,1,0.4,2,0.3,3c-0.2,1.5-1,3-0.2,4.6c0.7,1.4,1.2,2.9,2.2,4.1c0.2,0.3,0.4,0.7,0.4,1c-0.2,2.3,0.3,4.5,0.1,6.8
			c-0.1,1.3-0.5,2.5-1.3,3.6c-0.7,1-1.7,1.7-1.9,3.1c-0.1,0.5-0.6,0.9-1.2,0.8c-0.6,0-0.8-0.5-0.9-0.9c-0.5-1.6-0.8-3.2-0.6-4.8
			c0.2-1.5,0.6-3,0.9-4.5c0.3-1.7,0.4-3.3-0.6-4.8c-0.2-0.3-0.2-0.7-0.3-1.2c-0.1-2.2-0.1-2.2-2.2-1.7c-0.1,0-0.2,0.1-0.3,0.1
			c-1.3,0-2.1,0.7-2.6,1.9c-0.2,0.5-0.5,1.1-1,1.3c-1.3,0.5-1.7,1.5-2.1,2.7c-1.4,5-4.5,8.6-9.4,10.7c-3.8,1.6-6.9,4.2-9.4,7.6
			c-0.7,0.9-0.7,1.4,0.4,2c1.4,0.8,2.7,1.8,4,2.8c-1.2,0.8-2.2,0.6-3.3,0.3c-1.1-0.4-2.2-0.8-3.5-0.5c-0.6,0.1-0.9-0.2-1-0.8
			c-0.1-0.8,0-1.6,0.6-2.1c0.7-0.5,0.4-0.8-0.1-1.1c-1.1-0.9-2.2-1.6-3.5-2c-3.8-1-6.2-3.6-8.1-6.8c-3-4.7-4.9-10-7.1-15
			c-0.3-0.7-0.1-1.4,0-2.1c0.7-2.5,0.7-2.4-1.7-3.2c-1.8-0.5-3.1-0.1-4.2,1.3c-0.7,0.9-1.4,1.8-2.2,2.5c-1.5,1.4-2,3.2-1.6,5.1
			c0.5,2.7,0.2,5.4-0.5,8c-0.8,3.7-1.4,7.4-0.3,11.1c0.6,2.1,0.5,4.2,0.1,6.4c-0.8,3.8-2.5,7.3-4.1,10.8c-1.4,3-2.5,6.1-2.9,9.6
			c-1.2-1.4-1.6-2.5-1.7-3.9c0-0.8-0.1-1.5-0.2-2.3c-0.7-2.9-4-4-6.2-2c-4.1,3.8-7.8,7.9-9.4,13.6c-1.3,4.7-4.6,8.3-7.7,11.9
			c-6.3,7.3-12.6,14.7-18.6,22.3c-1.2,1.5-2.1,3.2-2.3,5.2c-0.2,2.6,1.5,4.1,4,3.5c1.9-0.4,3.5-1.4,4.9-2.7c2-1.9,4.3-3.5,6.7-4.9
			c1.1-0.7,2.3-1.1,3.6-1c2.6,0.2,4.4,1.7,5.5,3.9c1,1.9,0.4,3.7-0.8,5.4c-1.2,1.6-1.4,3.5-1.7,5.4c-0.2,1.6,0.7,2.5,2.3,2.4
			c1.2-0.1,2.1-0.8,2.5-2.1c0.3-0.9,0.2-1.9,0.3-3.1c1.6,1.3,3.2,2.3,4.8,3.2c0.8,0.5,0.7,1.2,0.2,1.9c-0.4,0.7-0.9,1.3-1.3,2
			c-0.6,1.2-0.2,1.8,1.2,1.9c0.6,0,1.2,0.1,1.8,0c3.2-0.5,6.2,0.2,9.1,1.4c1.9,0.7,3.8,1,5.9,0.9c1.8-0.1,3.5-0.5,5.2-0.7
			c3.1-0.3,4.3,0.7,4.2,3.8c0,1-0.2,1.9-0.3,2.9c-0.4,0-0.7,0-1.1,0c-27,0-53.9,0-80.9,0c-0.4,0-0.7,0-1.1,0
			c0.2-7.1,0.8-14.1,0.7-21.2c0-3.3,1.4-6.1,3-8.9c1.5-2.7,3.1-5.3,4.1-8.2c0.2-0.5,0.5-1.1,0.3-1.8c-1.6,0.7-3.2,1.4-4.9,2
			c-2.1,0.8-4.4,1-6.6,0.5c-1.7-0.4-2.2-1.4-1.6-3c1.4-3.3,3.2-6.3,5.9-8.8c2.8-2.6,6.3-3.6,10-4.3c4.5-1,9.1-1.7,13.5-3.3
			c3.3-1.2,5.9-3.1,7.8-6.2c1.8-3,3.9-5.9,5.9-8.8c5.6-8,11.5-15.9,16.4-24.3c2.8-4.9,5.3-9.9,8.5-14.6c6-8.9,13.5-15.6,24.2-18.2
			c1.2-0.3,1.9-1.1,2.4-2.2c0.3-0.8,0.5-1.7,0.5-2.6c0.3-2.9,0.4-5.8,0.9-8.7c1.2-6.6,4.4-9.9,11-11.2c0.3-0.1,0.8-0.1,1-0.3
			c2-1.7,4.3-2.9,5.9-5.1c0.7-1,1.6-2,2.8-2.4c1.6-0.5,1-1.7,0.9-2.6c-0.1-1-1-0.7-1.5-0.7c-2-0.2-3.9,0.3-5.8,0.6
			c-2.4,0.4-4.8,0.3-7.1,1.5c-1.1,0.6-2.6,0.6-3.6-0.7c-1.1-1.4-2.4-2.5-3.9-3.4c-3-1.9-5.7-4.2-8.6-6.2c-2.1-1.4-3.9-3-6.5-3.5
			c-0.2,0-0.5-0.2-0.6-0.4c-0.4-0.6-0.8-0.4-1.3,0c-1.4,1.3-2.7,2.6-4.1,3.9c-0.4,0.4-0.5,0.7-0.4,1.2c0.9,3.2,1.7,6.3,2.5,9.5
			c0.9,3.6,2.2,7,5.4,9.3c0.8,0.6,1.3,1.6,1.8,2.5c0.3,0.7,0,1.8,0.8,2.1c0.8,0.4,1.5-0.5,2.3-0.9c1.2-0.5,1.7-0.2,1.9,1.1
			c0.2,1.6,0.1,3.1-0.5,4.6c-0.5,1.2-0.7,2.5-0.1,3.7c0.3,0.6-0.1,0.9-0.4,1.2c-0.3,0.4-0.6,0.4-1.1,0.2c-1.3-0.5-2.3-1.2-3-2.6
			c-1.9-3.9-4.6-7-8.6-9.1c-1.9-1-3.8-1.8-5.5-3.2c-0.7-0.5-1.4-0.8-2.2-0.2c-0.8,0.6-0.7,1.4-0.3,2.2c1.2,2.6,0.4,4.8-1.2,6.9
			c-1.5,1.9-2.7,1.8-4.1-0.1c-1-1.5-2.5-2.6-3.6-4c-0.2-0.2-0.3-0.4-0.6-0.3c-1.1,0.3-2.3,0.1-3.3,1c-2.1,1.9-4.5,2.4-7.2,1
			c-1.2-0.6-2.4-1.2-3.6-1.7c-2.6-1.2-4.8-3-7.6-3.8c-2.7-0.8-5.3-0.5-7.3,1.3c-1.7,1.6-3.5,3.3-3.2,6.2c0.2,2-0.5,3.9-2,5.5
			c-1,1-1.8,1.1-2.8,0.2c-0.7-0.6-1.5-0.8-2.4-0.8c-1,0-2.1,0-3.1,0c-0.4,0-0.8,0-1.1,0.3c-1.4,1.1-2.9,2-4.5,2.7
			c-0.6,0.3-0.6,0.6-0.4,1.1c0.4,1,1.2,1.7,1.8,2.5c1.4,1.7,1.1,2.5-0.9,3.3c-0.3,0.1-0.5,0.2-0.8,0.3c-1.9,0.6-3.7,1.3-5.4,2.3
			c-2.2,1.2-4.2,2.6-5.9,4.4c-1.1,1.3-1,2.2,0.4,3.2c0.7,0.4,1.4,0.7,2.1,1.1c0.4,0.2,0.7,0.3,0.2,0.7c-2.3,2-4.6,4.1-6.9,6.1
			c0-0.2,0-0.3,0-0.5c0-13.2,0-26.3,0-39.5c0-0.2,0-0.4,0-0.6c0-0.2,0-0.4,0.2-0.3c1.3,0.6,0.7-0.6,0.7-0.9c0-9.2,0-18.3,0-27.5
			c0-0.4,0-0.7,0-1.2c-0.4,0.1-0.7,0.2-1,0.3c0-6.8,0-13.6,0-20.3c0-11.4-0.1-22.8-0.1-34.2c0-0.9-0.1-1.8,0.5-2.5
			C1.6,1.4,1.6,0.8,1.5,0.1z"/>
		<path class="st1" d="M0.6,129c2.3-2,4.6-4.1,6.9-6.1c0.5-0.4,0.2-0.5-0.2-0.7c-0.7-0.3-1.5-0.6-2.1-1.1c-1.4-0.9-1.5-1.9-0.4-3.2
			c1.7-1.9,3.8-3.2,5.9-4.4c1.7-1,3.5-1.7,5.4-2.3c0.3-0.1,0.5-0.2,0.8-0.3c2-0.8,2.2-1.6,0.9-3.3c-0.7-0.8-1.4-1.5-1.8-2.5
			c-0.2-0.5-0.2-0.8,0.4-1.1c1.6-0.7,3.1-1.6,4.5-2.7c0.4-0.3,0.7-0.3,1.1-0.3c1,0,2.1,0,3.1,0c0.9,0,1.7,0.2,2.4,0.8
			c1.1,0.9,1.8,0.8,2.8-0.2c1.5-1.5,2.2-3.4,2-5.5c-0.3-2.9,1.5-4.6,3.2-6.2c2-1.9,4.7-2.1,7.3-1.3c2.8,0.8,5,2.6,7.6,3.8
			c1.2,0.6,2.4,1.1,3.6,1.7c2.7,1.4,5.1,0.8,7.2-1c1-0.9,2.2-0.7,3.3-1c0.3-0.1,0.5,0.1,0.6,0.3c1.2,1.4,2.6,2.5,3.6,4
			c1.3,2,2.6,2,4.1,0.1c1.6-2.1,2.4-4.3,1.2-6.9c-0.4-0.8-0.4-1.6,0.3-2.2c0.8-0.6,1.5-0.4,2.2,0.2c1.7,1.3,3.6,2.2,5.5,3.2
			c3.9,2,6.7,5.2,8.6,9.1c0.6,1.4,1.6,2.1,3,2.6c0.4,0.2,0.8,0.1,1.1-0.2c0.3-0.4,0.7-0.7,0.4-1.2c-0.6-1.2-0.4-2.5,0.1-3.7
			c0.6-1.5,0.7-3,0.5-4.6c-0.2-1.3-0.7-1.6-1.9-1.1c-0.7,0.3-1.4,1.2-2.3,0.9c-0.8-0.3-0.4-1.4-0.8-2.1c-0.4-1-1-1.9-1.8-2.5
			c-3.2-2.3-4.5-5.7-5.4-9.3c-0.8-3.2-1.6-6.3-2.5-9.5c-0.2-0.6,0-0.9,0.4-1.2c1.4-1.3,2.7-2.6,4.1-3.9c0.4-0.4,0.8-0.6,1.3,0
			c0.1,0.2,0.4,0.3,0.6,0.4c2.5,0.5,4.4,2.1,6.5,3.5c3,2,5.6,4.3,8.6,6.2c1.5,0.9,2.8,2,3.9,3.4c1,1.3,2.5,1.3,3.6,0.7
			c2.2-1.2,4.7-1.1,7.1-1.5c1.9-0.3,3.9-0.8,5.8-0.6c0.5,0,1.4-0.2,1.5,0.7c0.1,1,0.7,2.1-0.9,2.6c-1.2,0.4-2.1,1.4-2.8,2.4
			c-1.6,2.2-3.9,3.4-5.9,5.1c-0.2,0.2-0.7,0.3-1,0.3c-6.6,1.3-9.8,4.6-11,11.2c-0.5,2.9-0.7,5.8-0.9,8.7c-0.1,0.9-0.2,1.7-0.5,2.6
			c-0.4,1.1-1.2,1.9-2.4,2.2c-10.7,2.6-18.2,9.4-24.2,18.2c-3.2,4.7-5.6,9.8-8.5,14.6c-5,8.5-10.8,16.3-16.4,24.3
			c-2,2.9-4,5.8-5.9,8.8c-1.9,3.1-4.5,5-7.8,6.2c-4.4,1.6-9,2.3-13.5,3.3c-3.6,0.8-7.2,1.7-10,4.3c-2.6,2.5-4.5,5.5-5.9,8.8
			c-0.6,1.6-0.1,2.6,1.6,3c2.2,0.6,4.4,0.4,6.6-0.5c1.6-0.6,3.2-1.3,4.9-2c0.2,0.7-0.1,1.2-0.3,1.8c-1,2.9-2.6,5.6-4.1,8.2
			c-1.5,2.8-3,5.6-3,8.9c0.1,7.1-0.5,14.1-0.7,21.2c-2.5,0.2-5,0.6-7.5,0.6c-2,0-3.6-0.5-4.1-2.8c0-1.7,0-3.4,0-5
			c0.6-1.1,0.5-2.4,0.5-3.6c0-26.2,0-52.5,0-78.7c0-0.5,0-1,0-1.4c1.9,0.2,2.8,1.6,3.8,3c0.8,1.2,1.7,2.5,3.1,2.8
			c1.4,0.3,2.4,1.1,3.3,2c0.4,0.4,0.9,0.7,1.3,1c0.6,0.4,1.2,0.5,1.8,0.1c0.6-0.4,0.7-1.1,0.5-1.7c-0.1-0.6-0.5-1.2-0.8-1.7
			c-0.5-0.8-1.2-1.6-1.5-2.6c-0.8-2.2-2.1-3.2-4.5-3.1c-1.8,0.1-2.7-0.9-2.9-2.8c-0.1-1.3-0.6-2.3-1.5-3.1c-0.8-0.7-1.6-1.4-2.6-2
			C0.6,137.7,0.6,133.4,0.6,129z M15.3,162.5c-1.9,0-3.3,0.9-3.3,2.1c0,2,1.7,4,3.4,4c1.1,0,2.2-1.6,2.2-3.1
			C17.6,164.1,16.3,162.5,15.3,162.5z"/>
		<path class="st2" d="M0,238.9c0.5,2.2,2.1,2.8,4.1,2.8c2.5,0,5-0.4,7.5-0.6c0.4,0,0.7,0,1.1,0c27,0,53.9,0,80.9,0
			c0.4,0,0.7,0,1.1,0c5,0,10,0,15,0c0.4,0,0.9,0,1.3,0c8,0,16,0,24.1,0c2.9,0,5.7,0,8.6,0c0.4,0,0.7,0,1.1,0c12.9,0,25.9,0,38.8,0
			c0.4,0,0.7,0,1.1-0.1c4.5,0,9,0.1,13.5,0.1c2.2,0,2.6-0.3,2.5-2.6c0-4.8-0.1-9.7-0.1-14.5c0-2,0.2-4,0-6c0-5.6,0-11.3,0-16.9
			c0-4.4,0-8.7,0-13.1c0-0.3,0.1-0.6,0.1-0.8c0-16.8,0-33.5,0-50.3c0-0.3,0-0.6-0.1-0.8c0-0.7,0-1.4,0-2.1c0-0.4,0-0.8,0-1.2
			c0-12.7,0-25.4,0-38.1c0-0.4,0-0.8-0.1-1.2c0-0.5,0.1-1,0.1-1.4c0-26.6,0-53.2,0-79.9c0-2-0.1-4.1,0.3-6.1c0.4-2-0.5-4-0.2-6.1
			c0.4,0,0.9-0.1,0.7,0.6c0,0.1,0,0.3,0,0.5c0,79.9,0,159.8,0,239.8c0,0.9-0.2,1.1-1.1,1.1c-66.4,0-132.8,0-199.2,0
			c-0.9,0-1.2-0.2-1.1-1.1C0.1,240.2,0,239.6,0,238.9z"/>
		<path class="st2" d="M0.6,150.1c0,0.5,0,1,0,1.4c0,26.2,0,52.5,0,78.7c0,1.2,0.1,2.4-0.5,3.6C0,156.4,0,79,0,1.5
			c0-1.2,0.2-1.7,1.5-1.4C1.6,0.8,1.6,1.4,1,1.9C0.4,2.6,0.5,3.6,0.5,4.5c0,11.4,0.1,22.8,0.1,34.2c0,6.8,0,13.5,0,20.3
			c0.3-0.1,0.6-0.2,1-0.3c0,0.5,0,0.8,0,1.2c0,9.2,0,18.3,0,27.5c0,0.3,0.6,1.5-0.7,0.9c-0.2-0.1-0.2,0.1-0.2,0.3c0,0.2,0,0.4,0,0.6
			c0,13.2,0,26.3,0,39.5c0,0.2,0,0.3,0,0.5c0,4.4,0,8.7,0,13.1C0.6,144.8,0.6,147.4,0.6,150.1z"/>
		<path class="st1" d="M200.6,136.1c0,0.3,0.1,0.6,0.1,0.8c0,16.8,0,33.5,0,50.3c0,0.3,0,0.6-0.1,0.8c-0.8,0.4-1.4,0.9-2,1.6
			c-0.6,0.7-0.9,1.5-0.5,2.3c1.4,3.2,0.3,5.8-1.4,8.4c-0.8,1.3-1.7,2.5-2.4,3.9c-0.6,1.1-0.7,2.3,0,3.5c0.7,1.1,1.1,1.2,1.9,0.1
			c0.6-0.7,0.8-1.5,1.1-2.4c0.2-0.7,0.4-1.5,0.7-2.2c0.5-1.2,1.3-2,2.6-2.2c0,5.6,0,11.3,0,16.9c-2.2,1.6-4.3,3.2-6.5,4.8
			c-1.2,0.9-1.1,0.8-1.4-0.5c-0.2-0.8-0.2-1.6-0.6-2.4c-0.4,0.6-0.7,1.2-1.1,1.7c-0.8,1-1.5,1-2.2-0.2c-0.9-1.6-1.3-3.3-1-5.2
			c0.4-2.7,0-3.4-2.6-4.2c-0.4-0.1-0.8-0.3-1.1-0.4c-1.2-0.4-1.9,0-2.3,1.1c-0.2,0.5-0.2,1,0,1.5c0.7,2.3,0.7,4.6,0.4,6.9
			c-0.3,2-0.6,3.9-0.5,6c0.1,2.4,1.3,3.5,3.6,3.5c0.4,0,0.7,0,1.1,0c1.5,0.1,2,1.2,1.1,2.3c-1.2,1.5-1.7,3.2-1.9,4.9
			c-0.1,1.1-0.4,2.1-0.8,3.1c-0.4,0-0.7,0.1-1.1,0.1c-12.9,0-25.9,0-38.8,0c-0.4,0-0.7,0-1.1,0c0.3-1.7,1.1-3.1,2.1-4.5
			c3.1-4.4,5.3-9.3,5.7-14.7c0.3-3.9,1.7-7.2,3.7-10.4c1.3-2,2.4-4.1,3.7-6.2c11.2-18.5,14.4-38.3,10.5-59.5
			c-0.2-1.1-0.1-2.2,0.6-3.2c0.7-1.1,0.9-2.3,0.7-3.6c-0.3-1.6-0.7-3.1-1.1-4.7c-0.3-1.1-1.1-1.4-2.1-1.3c-1.3,0.1-2.9-0.5-3.6,1.4
			c-0.2,0.4-0.2,0.9-0.2,1.4c0,0.7,0,1.4,0,2c0,0.9-0.3,1.8-0.7,2.6c-6,10.4-13.5,19.3-23.6,25.9c-6.7,4.5-13.7,8.4-20.7,12.4
			c-3.4,1.9-5.4,4.8-6.2,8.7c-0.5,2.3-0.3,4.6,0,6.9c0.6,4.2,3,6.8,6.8,8.5c1.7,0.7,3.5,1.1,5.3,1.2c5,0.3,6.9,3.4,5.1,8
			c-1.5,3.8-2.8,7.7-4.6,11.4c-2.2,4.4-4.7,8.6-9.1,11.1c-2.8,1.6-4.6,3.8-6.1,6.4c-5,0-10,0-15,0c0.1-1,0.2-1.9,0.3-2.9
			c0.1-3-1.1-4.1-4.2-3.8c-1.7,0.2-3.5,0.6-5.2,0.7c-2,0.1-4-0.2-5.9-0.9c-2.9-1.1-5.9-1.9-9.1-1.4c-0.6,0.1-1.2,0.1-1.8,0
			c-1.3-0.1-1.7-0.8-1.2-1.9c0.3-0.7,0.8-1.4,1.3-2c0.5-0.7,0.6-1.4-0.2-1.9c-1.6-0.9-3.2-1.9-4.8-3.2c-0.2,1.2-0.1,2.2-0.3,3.1
			c-0.4,1.3-1.2,2-2.5,2.1c-1.6,0.1-2.5-0.7-2.3-2.4c0.2-1.9,0.5-3.8,1.7-5.4c1.2-1.7,1.8-3.5,0.8-5.4c-1.2-2.2-2.9-3.7-5.5-3.9
			c-1.3-0.1-2.5,0.3-3.6,1c-2.4,1.4-4.6,3-6.7,4.9c-1.4,1.3-3,2.3-4.9,2.7c-2.6,0.6-4.3-0.9-4-3.5c0.2-2,1.1-3.7,2.3-5.2
			c6-7.6,12.2-15,18.6-22.3c3.1-3.6,6.4-7.2,7.7-11.9c1.6-5.7,5.3-9.8,9.4-13.6c2.2-2,5.5-1,6.2,2c0.2,0.7,0.2,1.5,0.2,2.3
			c0.1,1.4,0.5,2.5,1.7,3.9c0.4-3.5,1.5-6.6,2.9-9.6c1.6-3.5,3.3-7,4.1-10.8c0.4-2.1,0.6-4.3-0.1-6.4c-1.1-3.7-0.5-7.5,0.3-11.1
			c0.6-2.7,1-5.3,0.5-8c-0.4-1.9,0.1-3.7,1.6-5.1c0.8-0.8,1.5-1.7,2.2-2.5c1.1-1.4,2.5-1.8,4.2-1.3c2.4,0.8,2.4,0.7,1.7,3.2
			c-0.2,0.7-0.4,1.4,0,2.1c2.2,5.1,4.2,10.3,7.1,15c2,3.2,4.4,5.8,8.1,6.8c1.3,0.4,2.5,1.1,3.5,2c0.5,0.4,0.8,0.6,0.1,1.1
			c-0.7,0.5-0.8,1.3-0.6,2.1c0.1,0.5,0.4,0.9,1,0.8c1.2-0.3,2.4,0.1,3.5,0.5c1,0.4,2.1,0.6,3.3-0.3c-1.4-1-2.7-2-4-2.8
			c-1-0.6-1-1.1-0.4-2c2.5-3.4,5.6-6,9.4-7.6c4.8-2.1,7.9-5.7,9.4-10.7c0.3-1.2,0.8-2.2,2.1-2.7c0.5-0.2,0.8-0.8,1-1.3
			c0.5-1.2,1.3-1.9,2.6-1.9c0.1,0,0.2-0.1,0.3-0.1c2.2-0.5,2.2-0.5,2.2,1.7c0,0.4,0,0.8,0.3,1.2c1,1.5,0.9,3.2,0.6,4.8
			c-0.3,1.5-0.7,2.9-0.9,4.5c-0.2,1.7,0.1,3.3,0.6,4.8c0.2,0.5,0.4,0.9,0.9,0.9c0.6,0,1.1-0.3,1.2-0.8c0.2-1.3,1.2-2.1,1.9-3.1
			c0.8-1,1.1-2.3,1.3-3.6c0.3-2.3-0.2-4.5-0.1-6.8c0-0.3-0.2-0.7-0.4-1c-1-1.2-1.5-2.7-2.2-4.1c-0.8-1.5,0-3.1,0.2-4.6
			c0.2-1.1,0.2-2-0.3-3c-0.9-1.9-2.9-2.3-4-0.5c-1.3,2-3.3,2.7-5.2,3.7c-0.9,0.5-1.8,0.4-2.4-0.7c-0.6-1.1-1.3-2.1-2-3.1
			c-2.6-3.7-4.6-7.6-5.5-12.1c-0.7-3.5-1.9-6.8-3.5-10c-0.5-0.9-0.4-1.9,0.1-2.7c0.4-0.7,0.8-1.3,1.3-1.9c0.9-1.3,1.8-2.7,2-4.3
			c0.2-1,0.3-2,1-2.8c0.6-0.7,0.3-1.6-0.5-1.9c-2.4-0.9-2.8-3.1-3.5-5.1c-0.6-1.8-0.3-2.9,1.1-4c0.9-0.7,1-1.3,0.6-2.3
			c-0.2-0.4-0.4-0.7,0.3-0.9c0.5-0.1,0.9-0.5,1.2,0.4c0.3,1,1.1,1.5,2.1,1.3c2.3-0.3,4.6-0.7,6.8-1.1c1.1-0.2,1.8-0.9,1.7-2.1
			c-0.1-1.3-0.6-1.9-2.1-2.2c3.3-1.1,6.5-2.2,9.6-3.4c0.8-0.3,1.6-0.2,2.4,0c1.9,0.5,3.9-0.2,5.7,0.9c0.1,0,0.3,0,0.3-0.1
			c0.5-0.9,1.3-1.5,2.1-2.1c0.5-0.4,0.1-0.9-0.2-1.4c1.5-0.6,2.9-0.5,4.3-0.6c0.4,0,0.6,0.3,0.8,0.6c3.5,3.2,5.7,7.2,7.5,11.5
			c0.4,1,1,2,1.7,3c0-1.6,0-3.3,0-5c0.2,0.1,0.3,0.1,0.4,0.2c3,4.9,6.6,9.3,10.4,13.4c2.7,2.9,4.5,6.2,5,10.1
			c0.1,0.5,0.2,0.9,0.3,1.4c0.2,0.7,0.6,1.3,1.5,1.2c0.8-0.1,1.2-0.6,1.3-1.3c0.1-0.3,0-0.6,0.3-0.8c1.9,1.9,3.7,4.1,5.8,5.8
			c0,0.4,0.1,0.8,0.1,1.2c0,12.7,0,25.4,0,38.1c0,0.4,0,0.8,0,1.2c-0.9-0.5-1.4-1.3-1.9-2.1c-1.1-1.4-2.6-1.7-4.2-1.9
			c-0.6-0.1-1.2,0.3-1.4,1c-0.2,0.6,0.1,1.1,0.6,1.4c0.4,0.2,0.7,0.5,0.9,0.9c0.8,1.4,2,2.1,3.6,2.3
			C198.9,135.8,199.8,136,200.6,136.1z M71.4,227.1c2.4,0,4.7,0,7.1,0c4.5,0,7.6-2.3,9.6-6.2c0.6-1.2,0.7-2.5,0.2-3.7
			c-0.2-0.6-0.5-1.4-1.2-1.4c-0.7,0-0.5,0.9-0.6,1.5c0,0.2,0,0.5-0.3,0.6c-0.3,0.1-0.4-0.2-0.6-0.3c-0.6-0.5-1.1-1.1-1.7-1.5
			c-2-1.6-3.4-1.4-4.9,0.6c-1.3,1.7-2.2,3.7-3.2,5.6C75,224.4,73.6,226.1,71.4,227.1z M108.3,161.5c0.8,0.5,1.5,0.7,2.1,0.8
			c7.3,1.4,14.4,0.6,21.3-2c1-0.4,2-1,2.8-1.8c0.5-0.5,0.9-0.9,0.5-1.7c-0.4-0.7-1.1-0.8-1.8-0.6c-0.4,0.1-0.8,0.2-1.3,0.4
			C124.3,159,116.6,161,108.3,161.5z M127.6,150.4c0.8,0.1,1.2,0.2,1.7,0.3c4.7,0.3,8.1,0,9.7-5.1c0.3-1,0.1-1.5-1-1.6
			c-0.5,0-0.9,0.1-1.3,0.5c-1.7,1.7-3.8,2.9-5.9,4.1C129.9,149.2,128.9,149.7,127.6,150.4z M179.7,119.4c-0.5-0.5-0.9-1-1.4-1.4
			c-1.5-1.3-2.7-2.8-4.5-3.8c-1.1-0.6-2-0.4-2.6,0.4c-0.7,1-0.2,1.8,0.5,2.4c1.3,1.2,2.8,1.9,4.4,2.3
			C177.3,119.7,178.4,119.9,179.7,119.4z M180.8,96c0,0.2,0.1,0.5,0.2,0.8c0.7,1.4,3.7,3,5.3,2.8c0.5-0.1,0.7-0.4,0.8-0.8
			c0.2-0.4,0.1-0.6-0.2-1c-0.6-0.6-1.1-1.2-1.7-1.9c-0.7-0.8-1.4-1.4-2.4-1.6C181.7,94.2,180.8,94.9,180.8,96z M145.1,149.3
			c1.1-1.1,2.1-2.2,2.7-3.5c0.4-0.8,0.4-1.5,0.2-2.3c-0.1-0.5-0.4-0.7-0.9-0.9c-0.4-0.1-0.5,0.1-0.7,0.3
			C145.1,144.8,144.5,146.9,145.1,149.3z"/>
		<path class="st0" d="M0.6,150.1c0-2.7,0-5.3,0-8c0.9,0.5,1.8,1.2,2.6,2c0.9,0.9,1.4,1.9,1.5,3.1c0.2,1.9,1.1,2.9,2.9,2.8
			c2.4-0.1,3.7,0.9,4.5,3.1c0.3,0.9,1,1.7,1.5,2.6c0.3,0.5,0.7,1.1,0.8,1.7c0.1,0.7,0.1,1.3-0.5,1.7c-0.6,0.4-1.2,0.3-1.8-0.1
			c-0.5-0.3-0.9-0.7-1.3-1c-1-0.9-1.9-1.7-3.3-2c-1.5-0.4-2.3-1.6-3.1-2.8C3.4,151.8,2.5,150.3,0.6,150.1z"/>
		<path class="st0" d="M15.3,162.5c1,0,2.2,1.6,2.2,2.9c0,1.5-1,3.1-2.2,3.1c-1.7,0-3.4-2-3.4-4C12.1,163.4,13.5,162.5,15.3,162.5z"
			/>
		<path class="st0" d="M109.6,241c1.5-2.6,3.3-4.8,6.1-6.4c4.4-2.5,6.9-6.7,9.1-11.1c1.8-3.7,3.2-7.6,4.6-11.4
			c1.8-4.6-0.2-7.6-5.1-8c-1.9-0.1-3.6-0.5-5.3-1.2c-3.7-1.6-6.2-4.3-6.8-8.5c-0.3-2.3-0.5-4.6,0-6.9c0.8-3.8,2.8-6.7,6.2-8.7
			c7-4,14-7.9,20.7-12.4c10-6.7,17.6-15.6,23.6-25.9c0.5-0.8,0.7-1.7,0.7-2.6c0-0.7,0-1.4,0-2c0-0.5,0.1-1,0.2-1.4
			c0.6-1.9,2.3-1.3,3.6-1.4c1-0.1,1.9,0.3,2.1,1.3c0.4,1.5,0.7,3.1,1.1,4.7c0.3,1.3,0,2.5-0.7,3.6c-0.7,1-0.8,2.1-0.6,3.2
			c3.9,21.1,0.7,41-10.5,59.5c-1.2,2.1-2.4,4.2-3.7,6.2c-2,3.2-3.4,6.5-3.7,10.4c-0.4,5.4-2.6,10.3-5.7,14.7c-1,1.4-1.8,2.8-2.1,4.5
			c-2.9,0-5.7,0-8.6,0c-8,0-16,0-24.1,0C110.5,241.1,110.1,241,109.6,241z"/>
		<path class="st0" d="M184.6,241c0.4-1,0.6-2.1,0.8-3.1c0.2-1.8,0.7-3.5,1.9-4.9c0.9-1.1,0.4-2.2-1.1-2.3c-0.4,0-0.7,0-1.1,0
			c-2.3,0-3.5-1.1-3.6-3.5c-0.1-2,0.3-4,0.5-6c0.3-2.3,0.3-4.6-0.4-6.9c-0.2-0.5-0.1-1,0-1.5c0.4-1.2,1.1-1.5,2.3-1.1
			c0.4,0.1,0.7,0.3,1.1,0.4c2.6,0.8,3,1.5,2.6,4.2c-0.3,1.8,0.1,3.6,1,5.2c0.7,1.2,1.4,1.3,2.2,0.2c0.4-0.5,0.7-1.1,1.1-1.7
			c0.4,0.8,0.4,1.6,0.6,2.4c0.3,1.3,0.3,1.3,1.4,0.5c2.1-1.6,4.3-3.2,6.5-4.8c0.1,2,0,4,0,6c0,4.8,0.1,9.7,0.1,14.5
			c0,2.2-0.3,2.6-2.5,2.6C193.6,241.1,189.1,241.1,184.6,241z"/>
		<path class="st0" d="M200.6,201.2c-1.3,0.2-2.1,1-2.6,2.2c-0.3,0.7-0.5,1.4-0.7,2.2c-0.3,0.8-0.5,1.7-1.1,2.4
			c-0.8,1-1.3,1-1.9-0.1c-0.7-1.2-0.6-2.4,0-3.5c0.7-1.3,1.6-2.6,2.4-3.9c1.7-2.6,2.9-5.2,1.4-8.4c-0.4-0.8-0.1-1.7,0.5-2.3
			c0.6-0.6,1.2-1.2,2-1.6C200.6,192.4,200.6,196.8,200.6,201.2z"/>
		<path class="st0" d="M200.6,136.1c-0.8-0.1-1.6-0.3-2.5-0.4c-1.5-0.3-2.8-0.9-3.6-2.3c-0.2-0.4-0.6-0.7-0.9-0.9
			c-0.5-0.3-0.8-0.8-0.6-1.4c0.2-0.6,0.8-1,1.4-1c1.6,0.2,3.2,0.4,4.2,1.9c0.6,0.8,1.1,1.6,1.9,2.1
			C200.6,134.7,200.6,135.4,200.6,136.1z"/>
		<path class="st0" d="M71.4,227.1c2.2-1,3.5-2.7,4.5-4.7c0.9-2,1.8-3.9,3.2-5.6c1.6-2.1,3-2.3,4.9-0.6c0.6,0.5,1.1,1,1.7,1.5
			c0.2,0.2,0.3,0.4,0.6,0.3c0.3-0.1,0.2-0.4,0.3-0.6c0.1-0.6-0.1-1.4,0.6-1.5c0.7,0,0.9,0.8,1.2,1.4c0.5,1.2,0.5,2.5-0.2,3.7
			c-2.1,3.9-5.1,6.2-9.6,6.2C76.1,227.1,73.8,227.1,71.4,227.1z"/>
		<path class="st0" d="M108.3,161.5c8.4-0.4,16.1-2.5,23.7-4.8c0.4-0.1,0.8-0.2,1.3-0.4c0.7-0.2,1.4-0.2,1.8,0.6
			c0.4,0.7,0,1.2-0.5,1.7c-0.8,0.8-1.8,1.4-2.8,1.8c-6.9,2.6-14,3.4-21.3,2C109.8,162.2,109.1,162,108.3,161.5z"/>
		<path class="st0" d="M127.6,150.4c1.2-0.7,2.2-1.3,3.2-1.8c2.1-1.2,4.2-2.4,5.9-4.1c0.4-0.4,0.8-0.5,1.3-0.5c1.1,0,1.3,0.5,1,1.6
			c-1.7,5.1-5.1,5.4-9.7,5.1C128.8,150.7,128.4,150.6,127.6,150.4z"/>
		<path class="st0" d="M179.7,119.4c-1.3,0.5-2.4,0.3-3.5,0c-1.6-0.4-3.1-1.2-4.4-2.3c-0.7-0.7-1.2-1.4-0.5-2.4
			c0.5-0.8,1.5-1,2.6-0.4c1.7,1,3,2.5,4.5,3.8C178.7,118.5,179.2,118.9,179.7,119.4z"/>
		<path class="st0" d="M180.8,96c0-1.1,1-1.8,2-1.6c1,0.2,1.8,0.8,2.4,1.6c0.5,0.6,1.1,1.3,1.7,1.9c0.3,0.3,0.4,0.6,0.2,1
			c-0.2,0.4-0.4,0.7-0.8,0.8c-1.6,0.2-4.6-1.4-5.3-2.8C180.9,96.6,180.7,96.3,180.8,96z"/>
		<path class="st0" d="M145.1,149.3c-0.6-2.5,0.1-4.5,1.4-6.4c0.2-0.2,0.3-0.5,0.7-0.3c0.5,0.1,0.8,0.4,0.9,0.9
			c0.1,0.8,0.1,1.6-0.2,2.3C147.2,147.1,146.2,148.2,145.1,149.3z"/>
	</g>
	<g>
		<path class="st1" d="M222,129c2.3-2,4.6-4.1,6.9-6.1c0.5-0.4,0.2-0.5-0.2-0.7c-0.7-0.3-1.5-0.6-2.1-1.1c-1.4-0.9-1.5-1.9-0.4-3.2
			c1.7-1.9,3.8-3.2,5.9-4.4c1.7-1,3.5-1.7,5.4-2.3c0.3-0.1,0.5-0.2,0.8-0.3c2-0.8,2.2-1.6,0.9-3.3c-0.7-0.8-1.4-1.5-1.8-2.5
			c-0.2-0.5-0.2-0.8,0.4-1.1c1.6-0.7,3.1-1.6,4.5-2.7c0.4-0.3,0.7-0.3,1.1-0.3c1,0,2.1,0,3.1,0c0.9,0,1.7,0.2,2.4,0.8
			c1.1,0.9,1.8,0.8,2.8-0.2c1.5-1.5,2.2-3.4,2-5.5c-0.3-2.9,1.5-4.6,3.2-6.2c2-1.9,4.7-2.1,7.3-1.3c2.8,0.8,5,2.6,7.6,3.8
			c1.2,0.6,2.4,1.1,3.6,1.7c2.7,1.4,5.1,0.8,7.2-1c1-0.9,2.2-0.7,3.3-1c0.3-0.1,0.5,0.1,0.6,0.3c1.2,1.4,2.6,2.5,3.6,4
			c1.3,2,2.6,2,4.1,0.1c1.6-2.1,2.4-4.3,1.2-6.9c-0.4-0.8-0.4-1.6,0.3-2.2c0.8-0.6,1.5-0.4,2.2,0.2c1.7,1.3,3.6,2.2,5.5,3.2
			c3.9,2,6.7,5.2,8.6,9.1c0.6,1.4,1.6,2.1,3,2.6c0.4,0.2,0.8,0.1,1.1-0.2c0.3-0.4,0.7-0.7,0.4-1.2c-0.6-1.2-0.4-2.5,0.1-3.7
			c0.6-1.5,0.7-3,0.5-4.6c-0.2-1.3-0.7-1.6-1.9-1.1c-0.7,0.3-1.4,1.2-2.3,0.9c-0.8-0.3-0.4-1.4-0.8-2.1c-0.4-1-1-1.9-1.8-2.5
			c-3.2-2.3-4.5-5.7-5.4-9.3c-0.8-3.2-1.6-6.3-2.5-9.5c-0.2-0.6,0-0.9,0.4-1.2c1.4-1.3,2.7-2.6,4.1-3.9c0.4-0.4,0.8-0.6,1.3,0
			c0.1,0.2,0.4,0.3,0.6,0.4c2.5,0.5,4.4,2.1,6.5,3.5c3,2,5.6,4.3,8.6,6.2c1.5,0.9,2.8,2,3.9,3.4c1,1.3,2.5,1.3,3.6,0.7
			c2.2-1.2,4.7-1.1,7.1-1.5c1.9-0.3,3.9-0.8,5.8-0.6c0.5,0,1.4-0.2,1.5,0.7c0.1,1,0.7,2.1-0.9,2.6c-1.2,0.4-2.1,1.4-2.8,2.4
			c-1.6,2.2-3.9,3.4-5.9,5.1c-0.2,0.2-0.7,0.3-1,0.3c-6.6,1.3-9.8,4.6-11,11.2c-0.5,2.9-0.7,5.8-0.9,8.7c-0.1,0.9-0.2,1.7-0.5,2.6
			c-0.4,1.1-1.2,1.9-2.4,2.2c-10.7,2.6-18.2,9.4-24.2,18.2c-3.2,4.7-5.6,9.8-8.5,14.6c-5,8.5-10.8,16.3-16.4,24.3
			c-2,2.9-4,5.8-5.9,8.8c-1.9,3.1-4.5,5-7.8,6.2c-4.4,1.6-9,2.3-13.5,3.3c-3.6,0.8-7.2,1.7-10,4.3c-2.6,2.5-4.5,5.5-5.9,8.8
			c-0.6,1.6-0.1,2.6,1.6,3c2.2,0.6,4.4,0.4,6.6-0.5c1.6-0.6,3.2-1.3,4.9-2c0.2,0.7-0.1,1.2-0.3,1.8c-1,2.9-2.6,5.6-4.1,8.2
			c-1.5,2.8-3,5.6-3,8.9c0.1,7.1-0.5,14.1-0.7,21.2c-2.5,0.2-5,0.6-7.5,0.6c-2,0-3.6-0.5-4.1-2.8c0-1.7,0-3.4,0-5
			c0.6-1.1,0.5-2.4,0.5-3.6c0-26.2,0-52.5,0-78.7c0-0.5,0-1,0-1.4c1.9,0.2,2.8,1.6,3.8,3c0.8,1.2,1.7,2.5,3.1,2.8
			c1.4,0.3,2.4,1.1,3.3,2c0.4,0.4,0.9,0.7,1.3,1c0.6,0.4,1.2,0.5,1.8,0.1c0.6-0.4,0.7-1.1,0.5-1.7c-0.1-0.6-0.5-1.2-0.8-1.7
			c-0.5-0.8-1.2-1.6-1.5-2.6c-0.8-2.2-2.1-3.2-4.5-3.1c-1.8,0.1-2.7-0.9-2.9-2.8c-0.1-1.3-0.6-2.3-1.5-3.1c-0.8-0.7-1.6-1.4-2.6-2
			C222,137.7,222,133.4,222,129z M236.8,162.5c-1.9,0-3.3,0.9-3.3,2.1c0,2,1.7,4,3.4,4c1.1,0,2.2-1.6,2.2-3.1
			C239,164.1,237.8,162.5,236.8,162.5z"/>
		<path class="st2" d="M221.5,238.9c0.5,2.2,2.1,2.8,4.1,2.8c2.5,0,5-0.4,7.5-0.6c0.4,0,0.7,0,1.1,0c27,0,53.9,0,80.9,0
			c0.4,0,0.7,0,1.1,0c5,0,10,0,15,0c0.4,0,0.9,0,1.3,0c8,0,16,0,24.1,0c2.9,0,5.7,0,8.6,0c0.4,0,0.7,0,1.1,0c12.9,0,25.9,0,38.8,0
			c0.4,0,0.7,0,1.1-0.1c4.5,0,9,0.1,13.5,0.1c2.2,0,2.6-0.3,2.5-2.6c0-4.8-0.1-9.7-0.1-14.5c0-2,0.2-4,0-6c0-5.6,0-11.3,0-16.9
			c0-4.4,0-8.7,0-13.1c0-0.3,0.1-0.6,0.1-0.8c0-16.8,0-33.5,0-50.3c0-0.3,0-0.6-0.1-0.8c0-0.7,0-1.4,0-2.1c0-0.4,0-0.8,0-1.2
			c0-12.7,0-25.4,0-38.1c0-0.4,0-0.8-0.1-1.2c0-0.5,0.1-1,0.1-1.4c0-26.6,0-53.2,0-79.9c0-2-0.1-4.1,0.3-6.1c0.4-2-0.5-4-0.2-6.1
			c0.4,0,0.9-0.1,0.7,0.6c0,0.1,0,0.3,0,0.5c0,79.9,0,159.8,0,239.8c0,0.9-0.2,1.1-1.1,1.1c-66.4,0-132.8,0-199.2,0
			c-0.9,0-1.2-0.2-1.1-1.1C221.6,240.2,221.5,239.6,221.5,238.9z"/>
		<path class="st2" d="M222,150.1c0,0.5,0,1,0,1.4c0,26.2,0,52.5,0,78.7c0,1.2,0.1,2.4-0.5,3.6c0-77.4,0-154.9,0-232.3
			c0-1.2,0.2-1.7,1.5-1.4c0.1,0.7,0.1,1.3-0.5,1.9c-0.6,0.7-0.5,1.6-0.5,2.5c0,11.4,0.1,22.8,0.1,34.2c0,6.8,0,13.5,0,20.3
			c0.3-0.1,0.6-0.2,1-0.3c0,0.5,0,0.8,0,1.2c0,9.2,0,18.3,0,27.5c0,0.3,0.6,1.5-0.7,0.9c-0.2-0.1-0.2,0.1-0.2,0.3c0,0.2,0,0.4,0,0.6
			c0,13.2,0,26.3,0,39.5c0,0.2,0,0.3,0,0.5c0,4.4,0,8.7,0,13.1C222,144.8,222,147.4,222,150.1z"/>
		<path class="st1" d="M422,136.1c0,0.3,0.1,0.6,0.1,0.8c0,16.8,0,33.5,0,50.3c0,0.3,0,0.6-0.1,0.8c-0.8,0.4-1.4,0.9-2,1.6
			c-0.6,0.7-0.9,1.5-0.5,2.3c1.4,3.2,0.3,5.8-1.4,8.4c-0.8,1.3-1.7,2.5-2.4,3.9c-0.6,1.1-0.7,2.3,0,3.5c0.7,1.1,1.1,1.2,1.9,0.1
			c0.6-0.7,0.8-1.5,1.1-2.4c0.2-0.7,0.4-1.5,0.7-2.2c0.5-1.2,1.3-2,2.6-2.2c0,5.6,0,11.3,0,16.9c-2.2,1.6-4.3,3.2-6.5,4.8
			c-1.2,0.9-1.1,0.8-1.4-0.5c-0.2-0.8-0.2-1.6-0.6-2.4c-0.4,0.6-0.7,1.2-1.1,1.7c-0.8,1-1.5,1-2.2-0.2c-0.9-1.6-1.3-3.3-1-5.2
			c0.4-2.7,0-3.4-2.6-4.2c-0.4-0.1-0.8-0.3-1.1-0.4c-1.2-0.4-1.9,0-2.3,1.1c-0.2,0.5-0.2,1,0,1.5c0.7,2.3,0.7,4.6,0.4,6.9
			c-0.3,2-0.6,3.9-0.5,6c0.1,2.4,1.3,3.5,3.6,3.5c0.4,0,0.7,0,1.1,0c1.5,0.1,2,1.2,1.1,2.3c-1.2,1.5-1.7,3.2-1.9,4.9
			c-0.1,1.1-0.4,2.1-0.8,3.1c-0.4,0-0.7,0.1-1.1,0.1c-12.9,0-25.9,0-38.8,0c-0.4,0-0.7,0-1.1,0c0.3-1.7,1.1-3.1,2.1-4.5
			c3.1-4.4,5.3-9.3,5.7-14.7c0.3-3.9,1.7-7.2,3.7-10.4c1.3-2,2.4-4.1,3.7-6.2c11.2-18.5,14.4-38.3,10.5-59.5
			c-0.2-1.1-0.1-2.2,0.6-3.2c0.7-1.1,0.9-2.3,0.7-3.6c-0.3-1.6-0.7-3.1-1.1-4.7c-0.3-1.1-1.1-1.4-2.1-1.3c-1.3,0.1-2.9-0.5-3.6,1.4
			c-0.2,0.4-0.2,0.9-0.2,1.4c0,0.7,0,1.4,0,2c0,0.9-0.3,1.8-0.7,2.6c-6,10.4-13.5,19.3-23.6,25.9c-6.7,4.5-13.7,8.4-20.7,12.4
			c-3.4,1.9-5.4,4.8-6.2,8.7c-0.5,2.3-0.3,4.6,0,6.9c0.6,4.2,3,6.8,6.8,8.5c1.7,0.7,3.5,1.1,5.3,1.2c5,0.3,6.9,3.4,5.1,8
			c-1.5,3.8-2.8,7.7-4.6,11.4c-2.2,4.4-4.7,8.6-9.1,11.1c-2.8,1.6-4.6,3.8-6.1,6.4c-5,0-10,0-15,0c0.1-1,0.2-1.9,0.3-2.9
			c0.1-3-1.1-4.1-4.2-3.8c-1.7,0.2-3.5,0.6-5.2,0.7c-2,0.1-4-0.2-5.9-0.9c-2.9-1.1-5.9-1.9-9.1-1.4c-0.6,0.1-1.2,0.1-1.8,0
			c-1.3-0.1-1.7-0.8-1.2-1.9c0.3-0.7,0.8-1.4,1.3-2c0.5-0.7,0.6-1.4-0.2-1.9c-1.6-0.9-3.2-1.9-4.8-3.2c-0.2,1.2-0.1,2.2-0.3,3.1
			c-0.4,1.3-1.2,2-2.5,2.1c-1.6,0.1-2.5-0.7-2.3-2.4c0.2-1.9,0.5-3.8,1.7-5.4c1.2-1.7,1.8-3.5,0.8-5.4c-1.2-2.2-2.9-3.7-5.5-3.9
			c-1.3-0.1-2.5,0.3-3.6,1c-2.4,1.4-4.6,3-6.7,4.9c-1.4,1.3-3,2.3-4.9,2.7c-2.6,0.6-4.3-0.9-4-3.5c0.2-2,1.1-3.7,2.3-5.2
			c6-7.6,12.2-15,18.6-22.3c3.1-3.6,6.4-7.2,7.7-11.9c1.6-5.7,5.3-9.8,9.4-13.6c2.2-2,5.5-1,6.2,2c0.2,0.7,0.2,1.5,0.2,2.3
			c0.1,1.4,0.5,2.5,1.7,3.9c0.4-3.5,1.5-6.6,2.9-9.6c1.6-3.5,3.3-7,4.1-10.8c0.4-2.1,0.6-4.3-0.1-6.4c-1.1-3.7-0.5-7.5,0.3-11.1
			c0.6-2.7,1-5.3,0.5-8c-0.4-1.9,0.1-3.7,1.6-5.1c0.8-0.8,1.5-1.7,2.2-2.5c1.1-1.4,2.5-1.8,4.2-1.3c2.4,0.8,2.4,0.7,1.7,3.2
			c-0.2,0.7-0.4,1.4,0,2.1c2.2,5.1,4.2,10.3,7.1,15c2,3.2,4.4,5.8,8.1,6.8c1.3,0.4,2.5,1.1,3.5,2c0.5,0.4,0.8,0.6,0.1,1.1
			c-0.7,0.5-0.8,1.3-0.6,2.1c0.1,0.5,0.4,0.9,1,0.8c1.2-0.3,2.4,0.1,3.5,0.5c1,0.4,2.1,0.6,3.3-0.3c-1.4-1-2.7-2-4-2.8
			c-1-0.6-1-1.1-0.4-2c2.5-3.4,5.6-6,9.4-7.6c4.8-2.1,7.9-5.7,9.4-10.7c0.3-1.2,0.8-2.2,2.1-2.7c0.5-0.2,0.8-0.8,1-1.3
			c0.5-1.2,1.3-1.9,2.6-1.9c0.1,0,0.2-0.1,0.3-0.1c2.2-0.5,2.2-0.5,2.2,1.7c0,0.4,0,0.8,0.3,1.2c1,1.5,0.9,3.2,0.6,4.8
			c-0.3,1.5-0.7,2.9-0.9,4.5c-0.2,1.7,0.1,3.3,0.6,4.8c0.2,0.5,0.4,0.9,0.9,0.9c0.6,0,1.1-0.3,1.2-0.8c0.2-1.3,1.2-2.1,1.9-3.1
			c0.8-1,1.1-2.3,1.3-3.6c0.3-2.3-0.2-4.5-0.1-6.8c0-0.3-0.2-0.7-0.4-1c-1-1.2-1.5-2.7-2.2-4.1c-0.8-1.5,0-3.1,0.2-4.6
			c0.2-1.1,0.2-2-0.3-3c-0.9-1.9-2.9-2.3-4-0.5c-1.3,2-3.3,2.7-5.2,3.7c-0.9,0.5-1.8,0.4-2.4-0.7c-0.6-1.1-1.3-2.1-2-3.1
			c-2.6-3.7-4.6-7.6-5.5-12.1c-0.7-3.5-1.9-6.8-3.5-10c-0.5-0.9-0.4-1.9,0.1-2.7c0.4-0.7,0.8-1.3,1.3-1.9c0.9-1.3,1.8-2.7,2-4.3
			c0.2-1,0.3-2,1-2.8c0.6-0.7,0.3-1.6-0.5-1.9c-2.4-0.9-2.8-3.1-3.5-5.1c-0.6-1.8-0.3-2.9,1.1-4c0.9-0.7,1-1.3,0.6-2.3
			c-0.2-0.4-0.4-0.7,0.3-0.9c0.5-0.1,0.9-0.5,1.2,0.4c0.3,1,1.1,1.5,2.1,1.3c2.3-0.3,4.6-0.7,6.8-1.1c1.1-0.2,1.8-0.9,1.7-2.1
			c-0.1-1.3-0.6-1.9-2.1-2.2c3.3-1.1,6.5-2.2,9.6-3.4c0.8-0.3,1.6-0.2,2.4,0c1.9,0.5,3.9-0.2,5.7,0.9c0.1,0,0.3,0,0.3-0.1
			c0.5-0.9,1.3-1.5,2.1-2.1c0.5-0.4,0.1-0.9-0.2-1.4c1.5-0.6,2.9-0.5,4.3-0.6c0.4,0,0.6,0.3,0.8,0.6c3.5,3.2,5.7,7.2,7.5,11.5
			c0.4,1,1,2,1.7,3c0-1.6,0-3.3,0-5c0.2,0.1,0.3,0.1,0.4,0.2c3,4.9,6.6,9.3,10.4,13.4c2.7,2.9,4.5,6.2,5,10.1
			c0.1,0.5,0.2,0.9,0.3,1.4c0.2,0.7,0.6,1.3,1.5,1.2c0.8-0.1,1.2-0.6,1.3-1.3c0.1-0.3,0-0.6,0.3-0.8c1.9,1.9,3.7,4.1,5.8,5.8
			c0,0.4,0.1,0.8,0.1,1.2c0,12.7,0,25.4,0,38.1c0,0.4,0,0.8,0,1.2c-0.9-0.5-1.4-1.3-1.9-2.1c-1.1-1.4-2.6-1.7-4.2-1.9
			c-0.6-0.1-1.2,0.3-1.4,1c-0.2,0.6,0.1,1.1,0.6,1.4c0.4,0.2,0.7,0.5,0.9,0.9c0.8,1.4,2,2.1,3.6,2.3
			C420.4,135.8,421.2,136,422,136.1z M292.9,227.1c2.4,0,4.7,0,7.1,0c4.5,0,7.6-2.3,9.6-6.2c0.6-1.2,0.7-2.5,0.2-3.7
			c-0.2-0.6-0.5-1.4-1.2-1.4c-0.7,0-0.5,0.9-0.6,1.5c0,0.2,0,0.5-0.3,0.6c-0.3,0.1-0.4-0.2-0.6-0.3c-0.6-0.5-1.1-1.1-1.7-1.5
			c-2-1.6-3.4-1.4-4.9,0.6c-1.3,1.7-2.2,3.7-3.2,5.6C296.4,224.4,295.1,226.1,292.9,227.1z M329.7,161.5c0.8,0.5,1.5,0.7,2.1,0.8
			c7.3,1.4,14.4,0.6,21.3-2c1-0.4,2-1,2.8-1.8c0.5-0.5,0.9-0.9,0.5-1.7c-0.4-0.7-1.1-0.8-1.8-0.6c-0.4,0.1-0.8,0.2-1.3,0.4
			C345.8,159,338.1,161,329.7,161.5z M349.1,150.4c0.8,0.1,1.2,0.2,1.7,0.3c4.7,0.3,8.1,0,9.7-5.1c0.3-1,0.1-1.5-1-1.6
			c-0.5,0-0.9,0.1-1.3,0.5c-1.7,1.7-3.8,2.9-5.9,4.1C351.3,149.2,350.3,149.7,349.1,150.4z M401.1,119.4c-0.5-0.5-0.9-1-1.4-1.4
			c-1.5-1.3-2.7-2.8-4.5-3.8c-1.1-0.6-2-0.4-2.6,0.4c-0.7,1-0.2,1.8,0.5,2.4c1.3,1.2,2.8,1.9,4.4,2.3
			C398.7,119.7,399.8,119.9,401.1,119.4z M402.2,96c0,0.2,0.1,0.5,0.2,0.8c0.7,1.4,3.7,3,5.3,2.8c0.5-0.1,0.7-0.4,0.8-0.8
			c0.2-0.4,0.1-0.6-0.2-1c-0.6-0.6-1.1-1.2-1.7-1.9c-0.7-0.8-1.4-1.4-2.4-1.6C403.2,94.2,402.3,94.9,402.2,96z M366.5,149.3
			c1.1-1.1,2.1-2.2,2.7-3.5c0.4-0.8,0.4-1.5,0.2-2.3c-0.1-0.5-0.4-0.7-0.9-0.9c-0.4-0.1-0.5,0.1-0.7,0.3
			C366.6,144.8,366,146.9,366.5,149.3z"/>
	</g>
	<g>
		<path class="st0" d="M444.4,0.1c66.4,0,132.8,0,199.2,0c-0.2,2,0.6,4,0.2,6.1c-0.4,2-0.3,4.1-0.3,6.1c0,26.6,0,53.2,0,79.9
			c0,0.5,0,1-0.1,1.4c-2.1-1.8-3.8-3.9-5.8-5.8c-0.3,0.3-0.3,0.6-0.3,0.8c-0.1,0.7-0.5,1.3-1.3,1.3c-0.9,0.1-1.3-0.5-1.5-1.2
			c-0.1-0.5-0.3-0.9-0.3-1.4c-0.5-3.9-2.3-7.2-5-10.1c-3.8-4.2-7.5-8.6-10.4-13.4c0-0.1-0.2-0.1-0.4-0.2c0,1.7,0,3.4,0,5
			c-0.7-0.9-1.3-1.9-1.7-3c-1.8-4.3-4-8.3-7.5-11.5c-0.3-0.2-0.4-0.6-0.8-0.6c-1.4,0.1-2.9,0-4.3,0.6c0.3,0.4,0.7,0.9,0.2,1.4
			c-0.7,0.7-1.5,1.3-2.1,2.1c0,0.1-0.3,0.2-0.3,0.1c-1.7-1.1-3.8-0.5-5.7-0.9c-0.8-0.2-1.6-0.3-2.4,0c-3.2,1.1-6.3,2.2-9.6,3.4
			c1.5,0.3,2,0.9,2.1,2.2c0.1,1.2-0.6,1.9-1.7,2.1c-2.3,0.4-4.5,0.8-6.8,1.1c-1,0.1-1.8-0.3-2.1-1.3c-0.2-0.8-0.7-0.5-1.2-0.4
			c-0.7,0.2-0.4,0.5-0.3,0.9c0.5,0.9,0.3,1.6-0.6,2.3c-1.5,1.1-1.8,2.2-1.1,4c0.7,2,1.2,4.2,3.5,5.1c0.8,0.3,1.1,1.2,0.5,1.9
			c-0.7,0.9-0.9,1.8-1,2.8c-0.3,1.6-1.1,3-2,4.3c-0.4,0.6-0.9,1.2-1.3,1.9c-0.5,0.9-0.6,1.8-0.1,2.7c1.6,3.2,2.8,6.6,3.5,10
			c0.9,4.5,2.9,8.4,5.5,12.1c0.7,1,1.4,2,2,3.1c0.6,1.1,1.5,1.2,2.4,0.7c1.9-1,3.9-1.7,5.2-3.7c1.1-1.8,3-1.4,4,0.5
			c0.5,1,0.4,2,0.3,3c-0.2,1.5-1,3-0.2,4.6c0.7,1.4,1.2,2.9,2.2,4.1c0.2,0.3,0.4,0.7,0.4,1c-0.2,2.3,0.3,4.5,0.1,6.8
			c-0.1,1.3-0.5,2.5-1.3,3.6c-0.7,1-1.7,1.7-1.9,3.1c-0.1,0.5-0.6,0.9-1.2,0.8c-0.6,0-0.8-0.5-0.9-0.9c-0.5-1.6-0.8-3.2-0.6-4.8
			c0.2-1.5,0.6-3,0.9-4.5c0.3-1.7,0.4-3.3-0.6-4.8c-0.2-0.3-0.2-0.7-0.3-1.2c-0.1-2.2-0.1-2.2-2.2-1.7c-0.1,0-0.2,0.1-0.3,0.1
			c-1.3,0-2.1,0.7-2.6,1.9c-0.2,0.5-0.5,1.1-1,1.3c-1.3,0.5-1.7,1.5-2.1,2.7c-1.4,5-4.5,8.6-9.4,10.7c-3.8,1.6-6.9,4.2-9.4,7.6
			c-0.7,0.9-0.7,1.4,0.4,2c1.4,0.8,2.7,1.8,4,2.8c-1.2,0.8-2.2,0.6-3.3,0.3c-1.1-0.4-2.2-0.8-3.5-0.5c-0.6,0.1-0.9-0.2-1-0.8
			c-0.1-0.8,0-1.6,0.6-2.1c0.7-0.5,0.4-0.8-0.1-1.1c-1.1-0.9-2.2-1.6-3.5-2c-3.8-1-6.2-3.6-8.1-6.8c-3-4.7-4.9-10-7.1-15
			c-0.3-0.7-0.1-1.4,0-2.1c0.7-2.5,0.7-2.4-1.7-3.2c-1.8-0.5-3.1-0.1-4.2,1.3c-0.7,0.9-1.4,1.8-2.2,2.5c-1.5,1.4-2,3.2-1.6,5.1
			c0.5,2.7,0.2,5.4-0.5,8c-0.8,3.7-1.4,7.4-0.3,11.1c0.6,2.1,0.5,4.2,0.1,6.4c-0.8,3.8-2.5,7.3-4.1,10.8c-1.4,3-2.5,6.1-2.9,9.6
			c-1.2-1.4-1.6-2.5-1.7-3.9c0-0.8-0.1-1.5-0.2-2.3c-0.7-2.9-4-4-6.2-2c-4.1,3.8-7.8,7.9-9.4,13.6c-1.3,4.7-4.6,8.3-7.7,11.9
			c-6.3,7.3-12.6,14.7-18.6,22.3c-1.2,1.5-2.1,3.2-2.3,5.2c-0.2,2.6,1.5,4.1,4,3.5c1.9-0.4,3.5-1.4,4.9-2.7c2-1.9,4.3-3.5,6.7-4.9
			c1.1-0.7,2.3-1.1,3.6-1c2.6,0.2,4.4,1.7,5.5,3.9c1,1.9,0.4,3.7-0.8,5.4c-1.2,1.6-1.4,3.5-1.7,5.4c-0.2,1.6,0.7,2.5,2.3,2.4
			c1.2-0.1,2.1-0.8,2.5-2.1c0.3-0.9,0.2-1.9,0.3-3.1c1.6,1.3,3.2,2.3,4.8,3.2c0.8,0.5,0.7,1.2,0.2,1.9c-0.4,0.7-0.9,1.3-1.3,2
			c-0.6,1.2-0.2,1.8,1.2,1.9c0.6,0,1.2,0.1,1.8,0c3.2-0.5,6.2,0.2,9.1,1.4c1.9,0.7,3.8,1,5.9,0.9c1.8-0.1,3.5-0.5,5.2-0.7
			c3.1-0.3,4.3,0.7,4.2,3.8c0,1-0.2,1.9-0.3,2.9c-0.4,0-0.7,0-1.1,0c-27,0-53.9,0-80.9,0c-0.4,0-0.7,0-1.1,0
			c0.2-7.1,0.8-14.1,0.7-21.2c0-3.3,1.4-6.1,3-8.9c1.5-2.7,3.1-5.3,4.1-8.2c0.2-0.5,0.5-1.1,0.3-1.8c-1.6,0.7-3.2,1.4-4.9,2
			c-2.1,0.8-4.4,1-6.6,0.5c-1.7-0.4-2.2-1.4-1.6-3c1.4-3.3,3.2-6.3,5.9-8.8c2.8-2.6,6.3-3.6,10-4.3c4.5-1,9.1-1.7,13.5-3.3
			c3.3-1.2,5.9-3.1,7.8-6.2c1.8-3,3.9-5.9,5.9-8.8c5.6-8,11.5-15.9,16.4-24.3c2.8-4.9,5.3-9.9,8.5-14.6c6-8.9,13.5-15.6,24.2-18.2
			c1.2-0.3,1.9-1.1,2.4-2.2c0.3-0.8,0.5-1.7,0.5-2.6c0.3-2.9,0.4-5.8,0.9-8.7c1.2-6.6,4.4-9.9,11-11.2c0.3-0.1,0.8-0.1,1-0.3
			c2-1.7,4.3-2.9,5.9-5.1c0.7-1,1.6-2,2.8-2.4c1.6-0.5,1-1.7,0.9-2.6c-0.1-1-1-0.7-1.5-0.7c-2-0.2-3.9,0.3-5.8,0.6
			c-2.4,0.4-4.8,0.3-7.1,1.5c-1.1,0.6-2.6,0.6-3.6-0.7c-1.1-1.4-2.4-2.5-3.9-3.4c-3-1.9-5.7-4.2-8.6-6.2c-2.1-1.4-3.9-3-6.5-3.5
			c-0.2,0-0.5-0.2-0.6-0.4c-0.4-0.6-0.8-0.4-1.3,0c-1.4,1.3-2.7,2.6-4.1,3.9c-0.4,0.4-0.5,0.7-0.4,1.2c0.9,3.2,1.7,6.3,2.5,9.5
			c0.9,3.6,2.2,7,5.4,9.3c0.8,0.6,1.3,1.6,1.8,2.5c0.3,0.7,0,1.8,0.8,2.1c0.8,0.4,1.5-0.5,2.3-0.9c1.2-0.5,1.7-0.2,1.9,1.1
			c0.2,1.6,0.1,3.1-0.5,4.6c-0.5,1.2-0.7,2.5-0.1,3.7c0.3,0.6-0.1,0.9-0.4,1.2c-0.3,0.4-0.6,0.4-1.1,0.2c-1.3-0.5-2.3-1.2-3-2.6
			c-1.9-3.9-4.6-7-8.6-9.1c-1.9-1-3.8-1.8-5.5-3.2c-0.7-0.5-1.4-0.8-2.2-0.2c-0.8,0.6-0.7,1.4-0.3,2.2c1.2,2.6,0.4,4.8-1.2,6.9
			c-1.5,1.9-2.7,1.8-4.1-0.1c-1-1.5-2.5-2.6-3.6-4c-0.2-0.2-0.3-0.4-0.6-0.3c-1.1,0.3-2.3,0.1-3.3,1c-2.1,1.9-4.5,2.4-7.2,1
			c-1.2-0.6-2.4-1.2-3.6-1.7c-2.6-1.2-4.8-3-7.6-3.8c-2.7-0.8-5.3-0.5-7.3,1.3c-1.7,1.6-3.5,3.3-3.2,6.2c0.2,2-0.5,3.9-2,5.5
			c-1,1-1.8,1.1-2.8,0.2c-0.7-0.6-1.5-0.8-2.4-0.8c-1,0-2.1,0-3.1,0c-0.4,0-0.8,0-1.1,0.3c-1.4,1.1-2.9,2-4.5,2.7
			c-0.6,0.3-0.6,0.6-0.4,1.1c0.4,1,1.2,1.7,1.8,2.5c1.4,1.7,1.1,2.5-0.9,3.3c-0.3,0.1-0.5,0.2-0.8,0.3c-1.9,0.6-3.7,1.3-5.4,2.3
			c-2.2,1.2-4.2,2.6-5.9,4.4c-1.1,1.3-1,2.2,0.4,3.2c0.7,0.4,1.4,0.7,2.1,1.1c0.4,0.2,0.7,0.3,0.2,0.7c-2.3,2-4.6,4.1-6.9,6.1
			c0-0.2,0-0.3,0-0.5c0-13.2,0-26.3,0-39.5c0-0.2,0-0.4,0-0.6c0-0.2,0-0.4,0.2-0.3c1.3,0.6,0.7-0.6,0.7-0.9c0-9.2,0-18.3,0-27.5
			c0-0.4,0-0.7,0-1.2c-0.4,0.1-0.7,0.2-1,0.3c0-6.8,0-13.6,0-20.3c0-11.4-0.1-22.8-0.1-34.2c0-0.9-0.1-1.8,0.5-2.5
			C444.5,1.4,444.5,0.8,444.4,0.1z"/>
		<path class="st2" d="M442.9,238.9c0.5,2.2,2.1,2.8,4.1,2.8c2.5,0,5-0.4,7.5-0.6c0.4,0,0.7,0,1.1,0c27,0,53.9,0,80.9,0
			c0.4,0,0.7,0,1.1,0c5,0,10,0,15,0c0.4,0,0.9,0,1.3,0c8,0,16,0,24.1,0c2.9,0,5.7,0,8.6,0c0.4,0,0.7,0,1.1,0c12.9,0,25.9,0,38.8,0
			c0.4,0,0.7,0,1.1-0.1c4.5,0,9,0.1,13.5,0.1c2.2,0,2.6-0.3,2.5-2.6c0-4.8-0.1-9.7-0.1-14.5c0-2,0.2-4,0-6c0-5.6,0-11.3,0-16.9
			c0-4.4,0-8.7,0-13.1c0-0.3,0.1-0.6,0.1-0.8c0-16.8,0-33.5,0-50.3c0-0.3,0-0.6-0.1-0.8c0-0.7,0-1.4,0-2.1c0-0.4,0-0.8,0-1.2
			c0-12.7,0-25.4,0-38.1c0-0.4,0-0.8-0.1-1.2c0-0.5,0.1-1,0.1-1.4c0-26.6,0-53.2,0-79.9c0-2-0.1-4.1,0.3-6.1c0.4-2-0.5-4-0.2-6.1
			c0.4,0,0.9-0.1,0.7,0.6c0,0.1,0,0.3,0,0.5c0,79.9,0,159.8,0,239.8c0,0.9-0.2,1.1-1.1,1.1c-66.4,0-132.8,0-199.2,0
			c-0.9,0-1.2-0.2-1.1-1.1C443,240.2,442.9,239.6,442.9,238.9z"/>
		<path class="st2" d="M443.5,150.1c0,0.5,0,1,0,1.4c0,26.2,0,52.5,0,78.7c0,1.2,0.1,2.4-0.5,3.6c0-77.4,0-154.9,0-232.3
			c0-1.2,0.2-1.7,1.5-1.4c0.1,0.7,0.1,1.3-0.5,1.9c-0.6,0.7-0.5,1.6-0.5,2.5c0,11.4,0.1,22.8,0.1,34.2c0,6.8,0,13.5,0,20.3
			c0.3-0.1,0.6-0.2,1-0.3c0,0.5,0,0.8,0,1.2c0,9.2,0,18.3,0,27.5c0,0.3,0.6,1.5-0.7,0.9c-0.2-0.1-0.2,0.1-0.2,0.3c0,0.2,0,0.4,0,0.6
			c0,13.2,0,26.3,0,39.5c0,0.2,0,0.3,0,0.5c0,4.4,0,8.7,0,13.1C443.5,144.8,443.5,147.4,443.5,150.1z"/>
		<path class="st0" d="M443.5,150.1c0-2.7,0-5.3,0-8c0.9,0.5,1.8,1.2,2.6,2c0.9,0.9,1.4,1.9,1.5,3.1c0.2,1.9,1.1,2.9,2.9,2.8
			c2.4-0.1,3.7,0.9,4.5,3.1c0.3,0.9,1,1.7,1.5,2.6c0.3,0.5,0.7,1.1,0.8,1.7c0.1,0.7,0.1,1.3-0.5,1.7c-0.6,0.4-1.2,0.3-1.8-0.1
			c-0.5-0.3-0.9-0.7-1.3-1c-1-0.9-1.9-1.7-3.3-2c-1.5-0.4-2.3-1.6-3.1-2.8C446.3,151.8,445.4,150.3,443.5,150.1z"/>
		<path class="st0" d="M458.2,162.5c1,0,2.2,1.6,2.2,2.9c0,1.5-1,3.1-2.2,3.1c-1.7,0-3.4-2-3.4-4C455,163.4,456.4,162.5,458.2,162.5
			z"/>
		<path class="st0" d="M552.5,241c1.5-2.6,3.3-4.8,6.1-6.4c4.4-2.5,6.9-6.7,9.1-11.1c1.8-3.7,3.2-7.6,4.6-11.4
			c1.8-4.6-0.2-7.6-5.1-8c-1.9-0.1-3.6-0.5-5.3-1.2c-3.7-1.6-6.2-4.3-6.8-8.5c-0.3-2.3-0.5-4.6,0-6.9c0.8-3.8,2.8-6.7,6.2-8.7
			c7-4,14-7.9,20.7-12.4c10-6.7,17.6-15.6,23.6-25.9c0.5-0.8,0.7-1.7,0.7-2.6c0-0.7,0-1.4,0-2c0-0.5,0.1-1,0.2-1.4
			c0.6-1.9,2.3-1.3,3.6-1.4c1-0.1,1.9,0.3,2.1,1.3c0.4,1.5,0.7,3.1,1.1,4.7c0.3,1.3,0,2.5-0.7,3.6c-0.7,1-0.8,2.1-0.6,3.2
			c3.9,21.1,0.7,41-10.5,59.5c-1.2,2.1-2.4,4.2-3.7,6.2c-2,3.2-3.4,6.5-3.7,10.4c-0.4,5.4-2.6,10.3-5.7,14.7c-1,1.4-1.8,2.8-2.1,4.5
			c-2.9,0-5.7,0-8.6,0c-8,0-16,0-24.1,0C553.4,241.1,553,241,552.5,241z"/>
		<path class="st0" d="M627.5,241c0.4-1,0.6-2.1,0.8-3.1c0.2-1.8,0.7-3.5,1.9-4.9c0.9-1.1,0.4-2.2-1.1-2.3c-0.4,0-0.7,0-1.1,0
			c-2.3,0-3.5-1.1-3.6-3.5c-0.1-2,0.3-4,0.5-6c0.3-2.3,0.3-4.6-0.4-6.9c-0.2-0.5-0.1-1,0-1.5c0.4-1.2,1.1-1.5,2.3-1.1
			c0.4,0.1,0.7,0.3,1.1,0.4c2.6,0.8,3,1.5,2.6,4.2c-0.3,1.8,0.1,3.6,1,5.2c0.7,1.2,1.4,1.3,2.2,0.2c0.4-0.5,0.7-1.1,1.1-1.7
			c0.4,0.8,0.4,1.6,0.6,2.4c0.3,1.3,0.3,1.3,1.4,0.5c2.1-1.6,4.3-3.2,6.5-4.8c0.1,2,0,4,0,6c0,4.8,0.1,9.7,0.1,14.5
			c0,2.2-0.3,2.6-2.5,2.6C636.5,241.1,632,241.1,627.5,241z"/>
		<path class="st0" d="M643.5,201.2c-1.3,0.2-2.1,1-2.6,2.2c-0.3,0.7-0.5,1.4-0.7,2.2c-0.3,0.8-0.5,1.7-1.1,2.4
			c-0.8,1-1.3,1-1.9-0.1c-0.7-1.2-0.6-2.4,0-3.5c0.7-1.3,1.6-2.6,2.4-3.9c1.7-2.6,2.9-5.2,1.4-8.4c-0.4-0.8-0.1-1.7,0.5-2.3
			c0.6-0.6,1.2-1.2,2-1.6C643.5,192.4,643.5,196.8,643.5,201.2z"/>
		<path class="st0" d="M643.5,136.1c-0.8-0.1-1.6-0.3-2.5-0.4c-1.5-0.3-2.8-0.9-3.6-2.3c-0.2-0.4-0.6-0.7-0.9-0.9
			c-0.5-0.3-0.8-0.8-0.6-1.4c0.2-0.6,0.8-1,1.4-1c1.6,0.2,3.2,0.4,4.2,1.9c0.6,0.8,1.1,1.6,1.9,2.1
			C643.5,134.7,643.5,135.4,643.5,136.1z"/>
		<path class="st0" d="M514.3,227.1c2.2-1,3.5-2.7,4.5-4.7c0.9-2,1.8-3.9,3.2-5.6c1.6-2.1,3-2.3,4.9-0.6c0.6,0.5,1.1,1,1.7,1.5
			c0.2,0.2,0.3,0.4,0.6,0.3c0.3-0.1,0.2-0.4,0.3-0.6c0.1-0.6-0.1-1.4,0.6-1.5c0.7,0,0.9,0.8,1.2,1.4c0.5,1.2,0.5,2.5-0.2,3.7
			c-2.1,3.9-5.1,6.2-9.6,6.2C519,227.1,516.7,227.1,514.3,227.1z"/>
		<path class="st0" d="M551.2,161.5c8.4-0.4,16.1-2.5,23.7-4.8c0.4-0.1,0.8-0.2,1.3-0.4c0.7-0.2,1.4-0.2,1.8,0.6
			c0.4,0.7,0,1.2-0.5,1.7c-0.8,0.8-1.8,1.4-2.8,1.8c-6.9,2.6-14,3.4-21.3,2C552.7,162.2,552,162,551.2,161.5z"/>
		<path class="st0" d="M570.5,150.4c1.2-0.7,2.2-1.3,3.2-1.8c2.1-1.2,4.2-2.4,5.9-4.1c0.4-0.4,0.8-0.5,1.3-0.5c1.1,0,1.3,0.5,1,1.6
			c-1.7,5.1-5.1,5.4-9.7,5.1C571.7,150.7,571.3,150.6,570.5,150.4z"/>
		<path class="st0" d="M622.6,119.4c-1.3,0.5-2.4,0.3-3.5,0c-1.6-0.4-3.1-1.2-4.4-2.3c-0.7-0.7-1.2-1.4-0.5-2.4
			c0.5-0.8,1.5-1,2.6-0.4c1.7,1,3,2.5,4.5,3.8C621.6,118.5,622.1,118.9,622.6,119.4z"/>
		<path class="st0" d="M623.7,96c0-1.1,1-1.8,2-1.6c1,0.2,1.8,0.8,2.4,1.6c0.5,0.6,1.1,1.3,1.7,1.9c0.3,0.3,0.4,0.6,0.2,1
			c-0.2,0.4-0.4,0.7-0.8,0.8c-1.6,0.2-4.6-1.4-5.3-2.8C623.8,96.6,623.6,96.3,623.7,96z"/>
		<path class="st0" d="M588,149.3c-0.6-2.5,0.1-4.5,1.4-6.4c0.2-0.2,0.3-0.5,0.7-0.3c0.5,0.1,0.8,0.4,0.9,0.9
			c0.1,0.8,0.1,1.6-0.2,2.3C590.1,147.1,589.1,148.2,588,149.3z"/>
	</g>
</g>
<g>
</g>
<g>
</g>
<g>
</g>
<g>
</g>
<g>
</g>
<g>
</g>
<g>
</g>
<g>
</g>
<g>
</g>
<g>
</g>
<g>
</g>
<g>
</g>
<g>
</g>
<g>
</g>
<g>
</g>
</svg>
