<?xml version="1.0" encoding="utf-8"?>
<!-- Generator: Adobe Illustrator 17.1.0, SVG Export Plug-In . SVG Version: 6.00 Build 0)  -->
<!DOCTYPE svg PUBLIC "-//W3C//DTD SVG 1.1//EN" "http://www.w3.org/Graphics/SVG/1.1/DTD/svg11.dtd">
<svg version="1.1" id="Layer_1" xmlns="http://www.w3.org/2000/svg" xmlns:xlink="http://www.w3.org/1999/xlink" x="0px" y="0px"
	 viewBox="0 0 640.4 245.2" style="enable-background:new 0 0 640.4 245.2;" xml:space="preserve">
<style type="text/css">
	.st0{fill:#FC0000;}
	.st1{fill:#030101;}
	.st2{fill:#0A0203;}
</style>
<g>
	<g>
		<path class="st0" d="M0.1,99.1c0-3.3,0-6.7,0-10c2.5-0.1,5.9,0.8,7.3-0.5c2.7-2.4,4.4-2.2,7.1-0.6c2.1,1.2,4.2,0.8,3.3-2.3
			c-0.5-1.8-0.3-3,1.1-3.8c1.9-1.1,2.7,0.7,3.8,1.5c-0.5,2.1-4,0.2-3.5,3.2c0.3,1.7,1.7,1.6,2.7,1.4c12.3-2.1,22.5,5.7,34.1,7.4
			c2.6,0.4,4.5,2.3,6.9-0.5c1.2-1.4,2.7-0.9,3.8,0.5c0.7,1,1.5,1.4,2.9,1.4c6-0.1,12-0.3,17.9,0.2c7.7,0.6,15.5-1.1,23.2,0.8
			c0.7,0.2,1.7-0.9,2.5-1.4c1-0.6,2.1-2,2.8-1.9c6.6,1.5,13.5-0.3,20,1c3.5,0.7,8.9-0.5,9-1.4c0.2-3.8-4-4-6.7-5.2
			c-6.8-3.1-14.2-4.1-21.3-6.5c-7.1-2.4-14.6-4.9-22.1-5.2c-8.5-0.4-16.6-2.9-24.9-4c-14.4-2-27.7-8.7-43-7.8c-9,0.5-18,0.9-27,1.6
			c0-21.3,0-42.6,0-63.9C0,0.9,0.2,0,3,0c64.7,0.1,129.5,0.1,194.2,0c2.8,0,2.9,1,2.9,3.2c-0.1,27.3,0,54.6,0,81.9
			c-5.1-1.7-9.5-0.9-13.9,2.3c-3.4,2.5-7.4,4.5-11.3,6.2c-4.9,2.2-10.1,11.5-8.6,16.6c2.5,8.1,7.7,15,10.8,22.9
			c0.7,1.9,3.4,3.5,6.3,2.1c0.9-0.4,2.3-0.3,3.1-0.5c2.2-0.5,2.9,0.2,3.8,1.9c1,1.9,0.2,2.8-1.3,3.5c-1.6,0.8-2.1,2.4-3,3.9
			c-0.4,0.5-0.8,1-1.2,1.5l-0.2-0.2c-1.5,1.4-2.8,2.9,0.3,3.9l0,0c0.3,2.1-2.1,3-2.5,4.5c1.1,1.8,2.9,1.1,4.2,2
			c-0.9,1.2-1.8,2.3-2.6,3.5c-0.8,1-1.7,2-2.5,3.1c-1.4-0.4-2.2,2.6-3.8,0.9c-1.3-1.4,0.4-2.3,1-3.4c0.5-1.2,0.2-1.8-1.2-1.4
			c-0.5,0-1,0-1.4,0c-1.7-0.1-3.3-0.3-5-0.4c-0.4-0.6-0.8-1.2-1.2-1.7c0-0.3,0-0.7,0-1c0.2-2.2,0.7-4.5-1.6-6.1
			c-0.1-1.2-0.1-2.5-0.2-3.7c2-3.9-0.9-6.1-2.7-8.9c-2.1,1.8-0.9,4.1-1.8,5.8c-2.3,1.2-5.8,3.6-5.3-1.4c0.6-6.2-1.8-12.7,2.1-18.6
			c1.7-2.5,0.5-5.2-1.2-7.4c-1.7-2.2-3.9-2.9-6.5-1.5c-1.1,0.6-2.1,1-3.3,0.4c-8-4.2-17.4-4-25.3-8.5c-4.1-2.3-8.5-2.3-13-2.2
			c-6.4,0.1-8.2,1.4-9,7.9c-0.3,2.4-1,3.2-3.3,3.2c-0.9,0-2.2,0.4-2.7,1.1c-3,3.8-6.1,8-4.9,13c1.1,4.8,4.9,8.3,8.6,11.6
			c0.4,0.4,1.3,0.4,1.9,0.2c5.7-1.5,9.7-1.3,6.6,6.4c0,0.1,0.1,0.3,0.2,0.4c2.3,7,3.6,13.9-1.8,20.3c-0.6,0.8-0.6,2.2-0.7,3.3
			c-0.6,9.4-4.8,17.2-11,23.8c-2.6,2.8-1.9,3.9,0.1,5.8c-0.1,0.3-0.1,0.7,0,1c-0.1,1.3-0.2,2.6-0.3,4c-0.7,0.5-0.9,1.2-0.8,2.1
			c-0.4,0.7-0.8,1.3-1.2,2c-2.4,2.5-3.2,6.7-7.8,6.7c-0.8,0-2.2,1.4-1.5,2.6c0.7,1.3,2,0.6,2.9-0.2c1.1-1,2-0.7,2.9,0.3l0.1,0.2
			c0.9,2.8-1.1,5-2.8,5.7c-2.7,1.2-3.2,3.1-4.2,5.4c-2.1,4.9-1.9,10.3-3.4,15.3c-25.1,0-50.2-0.1-75.3,0.1c-3.3,0-3.7-1-3.7-3.9
			c0.1-46.1,0.1-92.1,0.1-138.2c1.1-0.3,2.1-1.5,3.2-0.5c1,0.8,1,2.2,0.3,3.2c-2.5,3.5-0.1,3.4,2.3,3.4c1.8,0,3.5-0.2,4.6-1.6
			c-0.5-2.1-3.3-0.6-3.9-3c1.7-1.1,3.5-2.3,5.3-3.5c0.8-0.5,1.3-1.1,0.9-2c-0.3-0.7-1-0.9-1.7-0.4C7.5,101.3,3.8,99.5,0.1,99.1z
			 M29.8,190.6c1.8-2.2,5-0.9,7.2-2.4c0.7-0.5,1.8-1.4,1.8-1.5c-3.1-4.4,1.3-4.5,3.2-6.3c1.2-1.1,3.5-3,1.1-4.8
			c-1.9-1.4-11.3,4.6-10.4,6.6c1.9,4.3-0.4,4.6-3.4,5.1c-1.2,0.2-1.3,1.4-1.1,2.4C28.3,190.5,28.8,190.8,29.8,190.6z M29.5,234.3
			c-0.1-1-0.3-2-0.4-2.9c-0.5-3.7-3.2-5.5-6.2-5c-3.8,0.7,0.4,3-0.2,4.5c-0.2,0.5-0.6,1-0.5,1.4c0.8,2.9,3.4,3.2,5.7,3.8
			C28.9,236.2,29.9,235.7,29.5,234.3z M38.1,234.1c1.9-1.5,5.6-1.2,6.1-4.4c0.1-0.8,0.3-4.9-3-4.1c-2.6,0.7-5.6,1.9-5.7,5.3
			C35.6,231.5,35.8,234,38.1,234.1z M69.8,194.2c1.4-0.5,4,0.7,3.7-2.3c-0.3-2.6-1.7-4.2-4.7-3.8c-2.5,0.3-6-0.2-4.9,3.9
			C64.6,194.3,67.6,193.8,69.8,194.2z M18.7,187.3c-1.1-0.9-2.2-2.3-3.7-2.8c-1.4-0.4-3.8,1-3.4,1.9c0.9,2.7-0.5,4-1.9,5.6
			c-0.7,0.8-0.3,1.5,0.3,2.2c0.9,0.9,1.6,0,1.9-0.6c1.1-2.4,2.6-4,5.4-4.3C18,189.4,18.7,188.7,18.7,187.3z M32.4,208.1
			c1.8-0.3,3.9-1.5,3.4-3.3c-0.5-1.8-1.2-5.5-3-5c-2.5,0.7-1,4.5-2.2,6.7C29.8,207.7,31.3,207.9,32.4,208.1z M68.9,220.3
			c-4.2-0.5-7.5,0.9-10.8,2.6C61.4,221.3,66.3,227.1,68.9,220.3z M48,206.5c-1.8-1.2-2.9-3-5-1.4c-0.8,0.7-1,1.4-0.2,2
			C44.5,208.6,46.2,208.3,48,206.5z M60.7,236.5c0-0.8-0.4-1.3-1.1-1.2c-2,0.1-3,1.8-4.1,3.2c-0.1,0.1,0.9,1.3,1.1,1.2
			C58.3,239.2,59.9,238.3,60.7,236.5z M38.1,199.1c-1.3,0-2,0.8-1.9,2.2c0,0.9,0.4,1.7,1.4,1.7c1.3,0,2.2-0.7,2.4-2
			C40.1,199.7,39.3,199.2,38.1,199.1z"/>
		<path class="st1" d="M93,209.1c0.4-0.7,0.8-1.3,1.2-2c1-0.4,1.5-1,0.8-2.1c0.1-1.3,0.2-2.6,0.3-4c0-0.3,0-0.6,0-1
			c-2-1.9-2.8-3-0.1-5.8c6.2-6.6,10.4-14.5,11-23.8c0.1-1.1,0-2.6,0.7-3.3c5.4-6.4,4.2-13.3,1.8-20.3c-0.1-0.2-0.2-0.3-0.2-0.4
			c3.1-7.7-0.9-7.9-6.6-6.4c-0.6,0.2-1.5,0.1-1.9-0.2c-3.7-3.3-7.5-6.8-8.6-11.6c-1.2-5,1.9-9.2,4.9-13c0.5-0.7,1.8-1.1,2.7-1.1
			c2.3,0,3-0.8,3.3-3.2c0.7-6.5,2.5-7.8,9-7.9c4.5-0.1,9-0.1,13,2.2c7.9,4.5,17.3,4.3,25.3,8.5c1.2,0.6,2.2,0.1,3.3-0.4
			c2.6-1.3,4.8-0.6,6.5,1.5c1.7,2.2,2.9,4.9,1.2,7.4c-3.9,5.9-1.6,12.4-2.1,18.6c-0.4,4.9,3.1,2.5,5.3,1.4c1.2,1.5,3.6,1.2,4.5,3.1
			c0.1,1.2,0.1,2.5,0.2,3.7c-1.6,0.9-2.8,2.2-3.3,4.1c-0.4,0.1-0.9,0.1-1.3,0.2c0.1,0.2,0.3,0.5,0.4,0.7c0.3-0.3,0.6-0.6,0.9-0.9
			c1.3,1.4,2.9,2.1,4.9,2c0,0.3,0,0.7,0,1c-0.5,1.2-1.2,2.4,0.4,3.3c0.3-0.5,0.5-1.1,0.8-1.6c1.7,0.1,3.3,0.3,5,0.4
			c-0.8,2.2-1.1,4.4-1.1,6.8c-0.9,0.4-1.9,0.8-2.8,1.2c-2.1,1-2.2,1.9,0.1,2.7l0,0c-0.5,1.6,0.9,3.5-0.6,5.6
			c-1.4-2.8-3.4-3.9-6.1-3.4c-1.8-0.5-1.8-1.5-1-3c0.9-1.7,1.7-3.5,2.5-5.3c1.2-2.4-0.5-2.4-2.1-2.6c-1.5-1-2.4-0.6-3,1l0.1,0
			c-0.7,0-1.5,0-2.2-0.1c-1-0.4-1.6-1-2-2c0.1-1.2,0.5-2.5-1.2-3c-0.3-0.3-0.6-0.7-0.8-1c-0.3-1.2-0.2-2.7-2.2-2.7
			c-0.8,1.3,0.4,2.5,0.3,3.7c-0.3,1.3,0.4,2.8-0.9,3.9c-1.4-1.4-3.1-2.2-5.1-2.1c-1.7-2.9-1.1-6-1.2-9.1c0.9-0.2,2.2-0.1,2.1-1.4
			c-0.1-1.2-1.3-1.2-2.3-1.4c-0.2,0.1-0.5,0.1-0.6-0.1c-1.5-0.9-2.4-0.4-3,1.1c-2.2,1.1-4.4,2.8-7,0.8c-0.5-1.5-1.3-2.8-3.2-2.5
			c-1.6,0.3-1.7,1.8-2,3.1c-0.2,0.8-0.5,1.5-0.8,2.3c-2.9,2.8-2.9,8.5,0,11.6c3.9,4.2,7.8,8.3,11.6,12.6c0.7,0.8,1.7,1.8,0.7,3
			c-0.8,1-1.8,2.4-3.2,1.8c-4.6-2-3.5,0.9-3.1,3.4c0.3,1.6,0.6,3.2,0.9,4.8c-1.5,3-0.7,5.3,1.9,7.2l-0.4,0.3l-0.3-0.4c0,0,0,0,0,0
			c0.2,0.4,0.4,0.8,0.7,1.1c0.1,1.3,0.6,2.3,2,2.2c2-0.3,1.8-1.9,1.7-3.4l0.2,0c0.6-0.7,1.3-1.3,1.9-2c1.1-0.7,2.2-1.4,3.2-2.1
			c5.5,3.3,3.6-1.6,4.1-3.8c2.3-0.5,4.6-1,6.9-1.4c0.7,2,2.5,2.5,4.2,3.2l0-0.1c-1.4,2.5-5.4,1.7-6.1,5c-5.6,3-11.7,5.1-12.4,13.2
			c-0.3,3,1.6,5,1.3,7.5c-0.4,4,1.6,3.6,4.5,3.8c2.2,0.2,1.2,2.9,1.1,4.5c-0.1,1.5-1.9,2.8-1.1,4.7c1.7-0.2,4.7-2.9,4.5,1.2
			c-0.3,5.6,1.9,10.7,2.2,16.2c-6,0-12,0-18,0c-1.3-2.3-0.9-5.3-3.1-7.2c-0.5-1.4,2.8-2,0.8-3.7c-6.8-5.8-11.8-12.7-12.7-21.9
			c-0.1-1-0.3-2.1-1.6-2c-1.3,0-2.2,0.9-2.2,2.2c0,1.5,1.1,3.1-0.1,4.6c-0.6,1-0.2,1.6,0.7,2c-0.2,0.3-0.5,0.7-0.7,1
			c-0.6,0.1-1.5-0.7-1.8,0.4c0,0.1,0.7,0.4,1.1,0.7c-1.8,4.2-1,8.6-1.4,12.9c-0.4-0.2-0.8-0.4-1.3-0.6c-0.1,0.4-0.3,0.9-0.2,1.2
			c0.4,0.7,1,0.5,1.6,0.2c2.4,2.6-1,5.2,0.1,7.8c-0.4,0.8-0.8,1.6-1.2,2.4c-3.7,0-7.3,0-11,0c-0.1-2,0.7-3.8,1.5-5.6
			c1-2.1,2-4.2,0.3-6.5c0.2-1.1,0-2.2,1-3c1.3-0.4,1.9-1,0.3-1.9c0-1.3,0-2.7-0.1-4c2-1.1,2-2.5,0.3-3.9c-1.4-1.2-3.3-1.9-4.2,0.1
			c-1.2,2.6-3.6,3.2-5.6,4.5c-0.2-0.5-0.5-1-0.7-1.5c-0.2-1.4-0.8-3.3-2.1-2.7c-3.3,1.7-4.9-1.4-7.4-1.9l-0.1-0.2
			c0.5-0.5,0.9-1.1,1.4-1.3C97.1,214.8,97.2,214.4,93,209.1z M134.3,198.1c-0.9-1.4,0.1-4-1.9-4.2c-2-0.2-2.1,2.2-2.4,3.8
			c-0.7,3.6,2.2,6.8,1.5,10.5c-0.2,1,1.2,1.5,2.3,1.2c1.1-0.4,1.7-1.3,1-2.3C132.9,204.2,132.8,201.2,134.3,198.1z M123.6,184.3
			c-1.4,6.9-2.7,13.9-1.7,21C124.5,198.5,124.2,191.4,123.6,184.3z M133.3,120.8c1.7-0.6,3.1-1.5,3.3-3.3c0.2-1.9-1.5-1.3-2.5-1.4
			c-1.7-0.1-2.9,0.7-2.9,2.5C131.2,119.9,132,120.7,133.3,120.8z M125.5,119.8c1.1-1.9,2.3-3.4,0.9-5.2c-0.4-0.6-1.3-0.5-1.7,0.1
			C123.6,116.4,123.8,118.1,125.5,119.8z M114.1,239.3l0.1-0.4l-0.3,0.1L114.1,239.3z"/>
		<path class="st0" d="M156,155.2c0.3,0.3,0.6,0.7,0.8,1c0.2,1.1,0,2.3,1.2,3c0.3,1,1,1.6,2,2c0.7,1.1,1.4,1.1,2.2,0.1l-0.1,0
			c1-0.2,2.3,0.1,3-1c1.6,0.2,3.2,0.2,2.1,2.6c-0.9,1.8-1.6,3.6-2.5,5.3c-0.8,1.5-0.8,2.5,1,3c1.9,2.2,2.4,5.5,5.2,7
			c0.8,1.6,1.5,3.3,2.3,4.9c0.1,0.7,0.1,1.5,0.2,2.2c1.5,2.3,2.3,5.1,4.8,6.8c0.6,1.4,0.7,3.6,2.7,3.4c1.3-0.2,1.3-2,1-3.3
			c0.6-2.9,1.2-5.9,1.9-8.8c1.2-2.9-0.8-4.8-2.2-6.9c-0.2-1.1-0.4-2.2-0.6-3.3c0.2-0.2,0.3-0.5,0.2-0.8c0.7-1,1.3-2,2-3
			c1.2-0.2,2-0.8,1.8-2.2c0.8-1.2,1.9-0.5,2.9-0.3c2.2,4.5,4.3,9.1,9.2,11.5c0.1,0.8,0.2,1.5,1,1.8c0.3,1,1.2,1.5,2,2
			c0,20-0.1,40,0.1,60c0,2.5-0.6,3.1-3.1,3.1c-13.3-0.1-26.7-0.1-40-0.1c-0.3-5.4-2.4-10.6-2.2-16.2c0.2-4.2-2.8-1.4-4.5-1.2
			c-0.8-1.9,1-3.1,1.1-4.7c0.1-1.6,1.1-4.3-1.1-4.5c-2.9-0.2-4.9,0.2-4.5-3.8c0.3-2.4-1.6-4.5-1.3-7.5c0.7-8.1,6.8-10.3,12.4-13.2
			c2.2,0.2,4.3,0.5,6.1-1.2c0.4,0,0.6-0.2,0.6-0.6c1.7-1.4,1-2.4-0.6-3.2l0,0.1c0-2.9-1.8-3.5-4.2-3.2c-2.3,0.5-4.6,1-6.9,1.4
			c-1.1-0.6-1.3-2.7-3-1.9c-1.5,0.7-1.2,2.3-0.6,3.4c0.6,1-0.3,1.5-0.5,2.2c-1.1,0.7-2.2,1.4-3.2,2.1c-0.6,0.7-1.3,1.3-1.9,2l-0.2,0
			c-1.2,0.4-2.1,2-3.7,1.2c-0.2-0.4-0.4-0.8-0.6-1.1c0.1,0-0.1,0-0.1,0l0.3,0.4l0.4-0.3c-0.5-2.4-0.6-5-1.9-7.2
			c-0.3-1.6-0.6-3.2-0.9-4.8c-0.4-2.4-1.5-5.4,3.1-3.4c1.4,0.6,2.4-0.8,3.2-1.8c1.1-1.3,0.1-2.2-0.7-3c-3.8-4.2-7.8-8.4-11.6-12.6
			c-2.9-3.1-2.9-8.8,0-11.6c2.9,0.8,4.1-1.8,6-2.9c2.6,2,4.8,0.4,7-0.8c1-0.4,2-0.8,3-1.1c0.2,0.2,0.4,0.2,0.6,0.1
			c0.1,0.9,0.1,1.9,0.2,2.8c0.1,3.1-0.5,6.2,1.2,9.1c4.1,2.3,2.2,7.3,3.7,10.7c0.5-0.1,1-0.2,1.5-0.3c0-2.8,0-5.6,0-8.3
			c1.3-1,0.7-2.6,0.9-3.9C154.8,155.9,155.4,155.6,156,155.2z M152.5,173.2c-1.8,1.8-1.9,3.7-0.7,5.8c0.4,0.6,1.4,0.9,1.6,0.4
			C154.4,177.4,154.7,175.2,152.5,173.2z"/>
		<path class="st1" d="M0.1,67.1c9-0.6,18.1-1,27-1.6c15.3-0.9,28.6,5.7,43,7.8c8.3,1.2,16.4,3.6,24.9,4c7.5,0.4,15,2.8,22.1,5.2
			c7,2.4,14.5,3.3,21.3,6.5c2.7,1.3,6.9,1.5,6.7,5.2c-0.1,0.9-5.4,2.1-9,1.4c-6.5-1.4-13.3,0.5-20-1c-0.8-0.2-1.9,1.2-2.8,1.9
			c-0.8,0.5-1.8,1.6-2.5,1.4c-7.7-1.9-15.5-0.2-23.2-0.8c-5.9-0.5-12-0.3-17.9-0.2c-1.4,0-2.1-0.4-2.9-1.4C65.6,94,64,93.5,62.9,95
			c-2.3,2.8-4.3,0.8-6.9,0.5c-11.5-1.7-21.7-9.5-34.1-7.4c-1,0.2-2.4,0.3-2.7-1.4c-0.5-3,3.1-1.1,3.5-3.2c-1.1-0.8-1.9-2.6-3.8-1.5
			c-1.4,0.8-1.6,2-1.1,3.8c0.9,3.1-1.3,3.5-3.3,2.3c-2.7-1.6-4.5-1.9-7.1,0.6c-1.4,1.3-4.8,0.4-7.3,0.5C0.1,81.8,0.1,74.4,0.1,67.1z
			"/>
		<path class="st1" d="M183.1,169.2c-0.7,1-1.3,2-2,3c-1.3-1.4-2.1-2.8-0.7-4.7c1.3-1.6,1.5-3.5,1.1-5.5c0.8-1,1.7-2,2.5-3.1
			c2-0.3,4-0.7,6-1l0,0c-0.2-3-3.6-5.1-2.2-8.7c0.3-0.9-1.8-0.2-2.9-0.2l0,0c-0.1-1.3-0.2-2.6-0.3-3.9c0,0,0.2,0.2,0.1,0.2
			c0.4-0.5,0.8-1,1.2-1.5c0.8-1.4,1.4-3,3-3.9c1.5-0.8,2.3-1.7,1.3-3.5c-0.9-1.7-1.6-2.4-3.8-1.9c-0.8,0.2-2.2,0.1-3.1,0.5
			c-2.9,1.4-5.6-0.2-6.3-2.1c-3-7.9-8.3-14.8-10.8-22.9c-1.6-5.1,3.7-14.4,8.6-16.6c3.9-1.7,7.8-3.7,11.3-6.2
			c4.4-3.2,8.9-4,13.9-2.3c0,31.7,0,63.3,0,95c-0.7,0-1.4,0-2,0c-0.8-0.4-1-1.1-1-1.8c0.1-5.4-5.2-7.7-7.1-12
			c-0.3-0.7-1.5-0.1-2.1,0.5c-1-0.2-2-0.9-2.9,0.3C184,167.5,183.4,168.2,183.1,169.2z M190.4,162.7l0.3-0.1l-0.2-0.2L190.4,162.7z"
			/>
		<path class="st2" d="M99.7,224.8c2-1.3,4.4-2,5.6-4.5c0.9-2,2.8-1.2,4.2-0.1c1.7,1.4,1.7,2.8-0.3,3.9c-3,3.1-2.5,7.1-3.6,10.9
			c1.9,0.1,1.4-1.6,2.4-1.9c1.6,2.2,0.6,4.4-0.3,6.5c-0.8,1.8-1.6,3.6-1.5,5.6c-4,0-8,0-12,0c-1.2-1.3,2.4-3.4-0.6-4.3
			c-2.1-0.6-3.6,0.6-4.4,2.5c-0.3,0.6-0.6,1.1-0.9,1.7c-3,0-6,0-9,0c1.5-5,1.4-10.4,3.4-15.3c1-2.3,1.5-4.2,4.2-5.4
			c1.7-0.7,3.7-2.9,2.8-5.7c2.5,0.5,4.1,3.6,7.4,1.9c1.3-0.7,2,1.3,2.1,2.7c-4,2.2-4.3,6.3-5.5,10c-0.5,1.5-0.8,2.8,0.8,3.9
			c1.1,0.8,2.2-0.1,3.2,0.3c0.4-1.3,1.5-3,1.1-3.9C97.2,230.3,98.6,227.6,99.7,224.8z"/>
		<path class="st2" d="M0.1,99.1c3.7,0.4,7.4,2.2,11-0.5c0.6-0.5,1.4-0.2,1.7,0.4c0.4,0.9-0.1,1.5-0.9,2c-1.8,1.1-3.6,2.3-5.3,3.5
			c0.6,2.3,3.4,0.8,3.9,3c-1.2,1.4-2.9,1.6-4.6,1.6c-2.4,0-4.8,0.1-2.3-3.4c0.7-1,0.7-2.3-0.3-3.2c-1.1-0.9-2.2,0.3-3.2,0.5
			C0.1,101.8,0.1,100.4,0.1,99.1z"/>
		<path class="st1" d="M134.1,245.1c-2,0-4,0-6,0c-0.7-1.4-0.5-3.3-1.9-4.4c0.7-1,1.6-1.6,2.8-1.7c1.7,1,3.3,0.2,4.9-0.3l0.1,0.2
			C134,240.9,134,243,134.1,245.1z"/>
		<path class="st2" d="M126.2,240.6c1.3,1.2,1.1,3,1.9,4.4c-3.7,0-7.3,0-11,0c0.4-0.8,0.8-1.6,1.2-2.4
			C121,242.4,123.7,241.9,126.2,240.6z"/>
		<path class="st2" d="M134.1,245.1c0-2.1-0.1-4.2-0.1-6.3c1,0.5,1.2-0.9,2-0.9c2.2,1.9,1.8,4.9,3.1,7.2
			C137.4,245.1,135.7,245.1,134.1,245.1z"/>
		<path class="st0" d="M88.1,245.1c0.3-0.6,0.6-1.1,0.9-1.7c0.9-1.9,2.3-3.1,4.4-2.5c3,0.8-0.5,3,0.6,4.3
			C92.1,245.1,90.1,245.1,88.1,245.1z"/>
		<path class="st2" d="M198,180.1c0.7,0,1.4,0,2,0c0,0.7,0,1.3,0,2C199.2,181.6,198.3,181.1,198,180.1z"/>
		<path class="st2" d="M181.6,162.1c0.4,2,0.2,3.9-1.1,5.5c-1.4,1.8-0.6,3.3,0.7,4.7c0.1,0.3,0,0.6-0.2,0.8
			c-2.7,3.1-6.2,4.4-10.1,5.1c-2.8-1.5-3.3-4.8-5.2-7c2.7-0.5,4.7,0.6,6.1,3.4c1.5-2.2,0.1-4,0.6-5.6c6.1,2.3,2-2.5,2.7-3.9
			c0-2.3,0.3-4.6,1.1-6.8c0.5,0,1,0,1.4,0c0.4,0.5,0.8,0.9,1.2,1.4c-0.5,1.1-2.3,2-1,3.4C179.4,164.8,180.1,161.7,181.6,162.1z"/>
		<path class="st2" d="M29.8,190.6c-1,0.2-1.4-0.1-1.6-0.8c-0.2-1-0.1-2.2,1.1-2.4c3-0.5,5.4-0.8,3.4-5.1c-0.9-2,8.5-8,10.4-6.6
			c2.4,1.7,0,3.7-1.1,4.8c-1.9,1.8-6.4,1.9-3.2,6.3c0,0.1-1.1,1-1.8,1.5C34.8,189.7,31.6,188.4,29.8,190.6z"/>
		<path class="st2" d="M29.5,234.3c0.4,1.4-0.6,1.9-1.6,1.7c-2.3-0.5-4.9-0.9-5.7-3.8c-0.1-0.4,0.3-0.9,0.5-1.4
			c0.6-1.6-3.6-3.9,0.2-4.5c3-0.5,5.7,1.4,6.2,5C29.2,232.3,29.4,233.3,29.5,234.3z"/>
		<path class="st2" d="M93,209.1c4.2,5.3,4.1,5.7-2.2,8.1c-0.6,0.2-1,0.9-1.4,1.3c-0.9-1-1.8-1.3-2.9-0.3c-0.9,0.8-2.2,1.4-2.9,0.2
			c-0.7-1.2,0.7-2.6,1.5-2.6C89.7,215.7,90.6,211.5,93,209.1z"/>
		<path class="st2" d="M38.1,234.1c-2.4-0.1-2.6-2.6-2.5-3.2c0.1-3.4,3.1-4.6,5.7-5.3c3.3-0.9,3.1,3.3,3,4.1
			C43.7,232.9,40.1,232.5,38.1,234.1z"/>
		<path class="st2" d="M69.8,194.2c-2.2-0.4-5.2,0.1-5.9-2.2c-1.2-4.1,2.4-3.6,4.9-3.9c3-0.4,4.4,1.3,4.7,3.8
			C73.8,194.8,71.2,193.7,69.8,194.2z"/>
		<path class="st2" d="M18.7,187.3c0,1.4-0.7,2-1.5,2.1c-2.7,0.3-4.3,1.9-5.4,4.3c-0.3,0.6-1,1.5-1.9,0.6c-0.6-0.6-1-1.4-0.3-2.2
			c1.4-1.6,2.8-2.9,1.9-5.6c-0.3-1,2.1-2.4,3.4-1.9C16.5,185,17.6,186.5,18.7,187.3z"/>
		<path class="st2" d="M184.9,149.2c1,0,3.2-0.7,2.9,0.2c-1.4,3.7,2.1,5.7,2.2,8.7l0,0c-2,0.3-4,0.7-6,1c0.9-1.1,1.7-2.3,2.6-3.5
			c-1.3-0.9-3.1-0.2-4.2-2C182.8,152.1,185.2,151.3,184.9,149.2z"/>
		<path class="st2" d="M32.4,208.1c-1.1-0.1-2.6-0.3-1.8-1.6c1.2-2.2-0.2-6,2.2-6.7c1.7-0.5,2.5,3.2,3,5
			C36.3,206.6,34.2,207.7,32.4,208.1z"/>
		<path class="st2" d="M168.1,145.3c-0.9-1.9-3.3-1.6-4.5-3.1c0.9-1.7-0.3-4,1.8-5.8C167.3,139.2,170.1,141.4,168.1,145.3z"/>
		<path class="st2" d="M68.9,220.3c-2.6,6.9-7.5,1-10.8,2.6C61.3,221.1,64.6,219.7,68.9,220.3z"/>
		<path class="st2" d="M169.9,155.1c-1.9,0.1-3.5-0.6-4.9-2l0,0c0.4-1.9,1.6-3.2,3.3-4.1C170.6,150.5,170.1,152.9,169.9,155.1z"/>
		<path class="st2" d="M48,206.5c-1.9,1.8-3.5,2.1-5.2,0.7c-0.8-0.7-0.6-1.4,0.2-2C45.2,203.5,46.3,205.3,48,206.5z"/>
		<path class="st2" d="M60.7,236.5c-0.8,1.8-2.4,2.7-4.1,3.2c-0.2,0.1-1.2-1.2-1.1-1.2c1.1-1.4,2.1-3.1,4.1-3.2
			C60.3,235.2,60.7,235.7,60.7,236.5z"/>
		<path class="st2" d="M38.1,199.1c1.2,0.1,2,0.6,1.8,1.8c-0.2,1.3-1.1,2-2.4,2c-1,0-1.4-0.8-1.4-1.7
			C36.1,199.9,36.7,199.1,38.1,199.1z"/>
		<path class="st2" d="M171.2,157.8c-0.3,0.5-0.5,1.1-0.8,1.6c-1.6-0.9-0.9-2.1-0.4-3.3C170.4,156.7,170.8,157.3,171.2,157.8z"/>
		<path class="st2" d="M184.7,145.3c0.1,1.3,0.2,2.6,0.3,3.9C181.9,148.1,183.1,146.7,184.7,145.3z"/>
		<path class="st2" d="M94.9,205c0.7,1,0.2,1.6-0.8,2.1C94,206.3,94.2,205.5,94.9,205z"/>
		<path class="st2" d="M95.2,200.1c0,0.3,0,0.6,0,1C95.1,200.7,95.1,200.4,95.2,200.1z"/>
		<path class="st2" d="M186,144c-0.4,0.5-0.8,1-1.2,1.5C185.2,145,185.6,144.5,186,144z"/>
		<path class="st2" d="M177.6,158.3c1.4-0.4,1.7,0.2,1.2,1.4C178.4,159.2,178,158.7,177.6,158.3z"/>
		<path class="st0" d="M136,237.9c-0.8,0-0.9,1.4-2,0.9l-0.1-0.2c-1.8-3.1-3.4-1.3-4.9,0.3c-1.2,0.2-2.1,0.7-2.8,1.7
			c-2.5,1.2-5.2,1.8-8,2.1c-1.1-2.6,2.3-5.2-0.1-7.8c0.1-0.3,0-0.6-0.2-0.9c0.4-4.3-0.5-8.7,1.4-12.9c0.3-0.4,0.5-0.7,0.8-1.1
			c0.2-0.3,0.5-0.7,0.7-1c0.4-0.9,0-1.5-0.7-2c1.3-1.5,0.1-3.1,0.1-4.6c0-1.3,0.9-2.1,2.2-2.2c1.3,0,1.5,1,1.6,2
			c0.9,9.2,5.9,16.1,12.7,21.9C138.7,235.9,135.5,236.5,136,237.9z"/>
		<path class="st0" d="M99.7,224.8c-1.1,2.8-2.5,5.5-1.1,8.8c0.4,1-0.7,2.6-1.1,3.9c-1-0.5-2.1,0.5-3.2-0.3
			c-1.6-1.2-1.2-2.5-0.8-3.9c1.2-3.7,1.5-7.8,5.5-10C99.2,223.8,99.5,224.3,99.7,224.8z"/>
		<path class="st2" d="M134.3,198.1c-1.5,3.1-1.4,6.1,0.5,9c0.7,1,0.1,2-1,2.3c-1.1,0.3-2.5-0.1-2.3-1.2c0.6-3.7-2.2-6.9-1.5-10.5
			c0.3-1.6,0.4-4,2.4-3.8C134.4,194.1,133.4,196.7,134.3,198.1z"/>
		<path class="st0" d="M123.6,184.3c0.6,7.1,1,14.2-1.7,21C120.9,198.2,122.2,191.2,123.6,184.3z"/>
		<path class="st2" d="M148,191c0.1-0.7,1-1.2,0.5-2.2c-0.6-1.2-0.9-2.7,0.6-3.4c1.7-0.8,2,1.3,3,1.9
			C151.6,189.5,153.5,194.3,148,191z"/>
		<path class="st2" d="M153.2,160.1c0,2.8,0,5.6,0,8.3c-0.5,0.1-1,0.2-1.5,0.3c-1.5-3.5,0.4-8.4-3.7-10.7
			C150.1,158,151.8,158.8,153.2,160.1z"/>
		<path class="st2" d="M136.1,148c-1.9,1.1-3.1,3.8-6,2.9c0.3-0.8,0.6-1.5,0.8-2.3c0.4-1.2,0.4-2.8,2-3.1
			C134.8,145.2,135.5,146.5,136.1,148z"/>
		<path class="st0" d="M133.3,120.8c-1.3-0.1-2.1-0.9-2.1-2.2c0-1.8,1.2-2.6,2.9-2.5c1,0,2.6-0.5,2.5,1.4
			C136.4,119.3,135,120.3,133.3,120.8z"/>
		<path class="st2" d="M163.2,189c1.6,0.8,2.2,1.8,0.6,3.2c-0.2,0.2-0.4,0.4-0.6,0.6c-1.8,1.7-3.9,1.5-6.1,1.2
			C157.8,190.7,161.8,191.4,163.2,189z"/>
		<path class="st0" d="M107.9,233c-1,0.3-0.5,2-2.4,1.9c1.1-3.7,0.6-7.8,3.6-10.9c0,1.3,0,2.7,0.1,4c-0.1,0.6-0.2,1.3-0.3,1.9
			C107.9,230.8,108.1,232,107.9,233z"/>
		<path class="st0" d="M175.1,165c-0.7,1.4,3.3,6.2-2.7,3.9l0,0c0-0.9,0-1.8-0.1-2.7C173.2,165.8,174.1,165.4,175.1,165z"/>
		<path class="st0" d="M125.5,119.8c-1.7-1.7-1.9-3.4-0.8-5.1c0.4-0.6,1.3-0.6,1.7-0.1C127.8,116.4,126.7,118,125.5,119.8z"/>
		<path class="st2" d="M137,188.1c1.4,2.2,1.5,4.7,1.9,7.2C136.3,193.4,135.5,191.1,137,188.1z"/>
		<path class="st2" d="M138.9,196.4c1.6,0.8,2.5-0.8,3.7-1.2c0.1,1.5,0.3,3.1-1.7,3.4C139.5,198.8,139,197.7,138.9,196.4z"/>
		<path class="st2" d="M159,185.8c2.4-0.3,4.2,0.2,4.2,3.2C161.5,188.4,159.7,187.9,159,185.8z"/>
		<path class="st2" d="M156,155.2c-0.6,0.4-1.3,0.7-1.9,1.1c0.1-1.3-1.1-2.4-0.3-3.7C155.8,152.5,155.8,154,156,155.2z"/>
		<path class="st2" d="M146.9,149c-0.1-0.9-0.1-1.9-0.2-2.8c0.9,0.2,2.2,0.3,2.3,1.4C149.1,148.9,147.8,148.9,146.9,149z"/>
		<path class="st2" d="M165.1,160.2c-0.7,1.2-1.9,0.9-3,1C162.7,159.6,163.7,159.2,165.1,160.2z"/>
		<path class="st2" d="M118,234.1c0.2,0.3,0.3,0.5,0.2,0.9c-0.6,0.3-1.3,0.5-1.6-0.2c-0.2-0.3,0.1-0.8,0.2-1.2
			C117.1,233.7,117.5,233.9,118,234.1z"/>
		<path class="st2" d="M172.3,166.2c0,0.9,0,1.8,0.1,2.7C170.1,168,170.2,167.1,172.3,166.2z"/>
		<path class="st2" d="M146.1,146.1c-1,0.4-2,0.8-3,1.1C143.7,145.7,144.6,145.2,146.1,146.1z"/>
		<polygon class="st2" points="114.1,239.3 113.8,239.1 114.2,238.9 		"/>
		<path class="st2" d="M120.1,217.1c0.8,0.5,1.1,1.1,0.7,2C119.9,218.7,119.4,218.1,120.1,217.1z"/>
		<path class="st2" d="M120.1,220.1c-0.3,0.4-0.5,0.7-0.8,1.1c-0.4-0.2-1.1-0.6-1.1-0.7C118.6,219.4,119.5,220.2,120.1,220.1z"/>
		<path class="st2" d="M108.9,230c0.1-0.6,0.2-1.3,0.3-1.9C110.8,229,110.2,229.6,108.9,230z"/>
		<path class="st2" d="M158,159.1c-1.2-0.7-1-1.9-1.2-3C158.5,156.7,158.2,157.9,158,159.1z"/>
		<path class="st2" d="M165.1,153.1c-0.3,0.3-0.6,0.6-0.9,0.9c-0.1-0.2-0.3-0.5-0.4-0.7C164.2,153.2,164.6,153.1,165.1,153.1
			L165.1,153.1z"/>
		<path class="st2" d="M142.8,195.2c0.6-0.7,1.3-1.3,1.9-2C144.1,193.8,143.4,194.5,142.8,195.2z"/>
		<path class="st2" d="M162.2,161.2c-0.8,1-1.5,1-2.2-0.1C160.7,161.1,161.5,161.2,162.2,161.2z"/>
		<path class="st2" d="M138.2,195.2C138.2,195.2,138.4,195.3,138.2,195.2C138.2,195.3,138.2,195.2,138.2,195.2z"/>
		<path class="st1" d="M170.9,178.1c3.9-0.6,7.4-2,10.1-5.1c0.2,1.1,0.4,2.2,0.6,3.3c-0.6,2.7-0.7,5.2,2.2,6.9
			c-0.6,2.9-1.2,5.9-1.9,8.8c-1.2,0-2.4,0-3.7,0c-2.5-1.6-3.3-4.4-4.8-6.8c1-0.8,1-1.6-0.2-2.2C172.4,181.4,171.7,179.8,170.9,178.1
			z"/>
		<path class="st2" d="M187.8,166.8c0.6-0.6,1.8-1.2,2.1-0.5c1.9,4.3,7.2,6.5,7.1,12C192.1,175.9,190,171.3,187.8,166.8z"/>
		<path class="st2" d="M152.5,173.2c2.3,1.9,1.9,4.1,0.9,6.2c-0.2,0.5-1.3,0.2-1.6-0.4C150.5,177,150.7,175.1,152.5,173.2z"/>
		<path class="st2" d="M183.7,183.3c-2.8-1.6-2.8-4.2-2.2-6.9C183,178.5,185,180.4,183.7,183.3z"/>
		<path class="st2" d="M178.2,192.1c1.2,0,2.4,0,3.7,0c0.3,1.3,0.3,3.2-1,3.3C179,195.7,178.8,193.5,178.2,192.1z"/>
		<path class="st2" d="M183.1,169.2c0.3-1,0.9-1.7,1.8-2.2C185.1,168.4,184.4,169,183.1,169.2z"/>
		<path class="st2" d="M173.2,183.1c1.2,0.6,1.2,1.4,0.2,2.2C173.3,184.6,173.3,183.8,173.2,183.1z"/>
		<path class="st1" d="M163.1,192.7c0.2-0.2,0.4-0.4,0.6-0.6C163.7,192.5,163.5,192.7,163.1,192.7z"/>
		<polygon class="st2" points="190.4,162.7 190.5,162.4 190.8,162.6 		"/>
		<path class="st2" d="M190.1,158.1L190.1,158.1L190.1,158.1z"/>
		<path class="st2" d="M129,238.9c1.5-1.6,3.1-3.4,4.9-0.3C132.3,239.1,130.7,239.9,129,238.9z"/>
	</g>
	<g>
		<path class="st1" d="M313.1,209.1c0.4-0.7,0.8-1.3,1.2-2c1-0.4,1.5-1,0.8-2.1c0.1-1.3,0.2-2.6,0.3-4c0-0.3,0-0.6,0-1
			c-2-1.9-2.8-3-0.1-5.8c6.2-6.6,10.4-14.5,11-23.8c0.1-1.1,0-2.6,0.7-3.3c5.4-6.4,4.2-13.3,1.8-20.3c-0.1-0.2-0.2-0.3-0.2-0.4
			c3.1-7.7-0.9-7.9-6.6-6.4c-0.6,0.2-1.5,0.1-1.9-0.2c-3.7-3.3-7.5-6.8-8.6-11.6c-1.2-5,1.9-9.2,4.9-13c0.5-0.7,1.8-1.1,2.7-1.1
			c2.3,0,3-0.8,3.3-3.2c0.7-6.5,2.5-7.8,9-7.9c4.5-0.1,9-0.1,13,2.2c7.9,4.5,17.3,4.3,25.3,8.5c1.2,0.6,2.2,0.1,3.3-0.4
			c2.6-1.3,4.8-0.6,6.5,1.5c1.7,2.2,2.9,4.9,1.2,7.4c-3.9,5.9-1.6,12.4-2.1,18.6c-0.4,4.9,3.1,2.5,5.3,1.4c1.2,1.5,3.6,1.2,4.5,3.1
			c0.1,1.2,0.1,2.5,0.2,3.7c-1.6,0.9-2.8,2.2-3.3,4.1c-0.4,0.1-0.9,0.1-1.3,0.2c0.1,0.2,0.3,0.5,0.4,0.7c0.3-0.3,0.6-0.6,0.9-0.9
			c1.3,1.4,2.9,2.1,4.9,2c0,0.3,0,0.7,0,1c-0.5,1.2-1.2,2.4,0.4,3.3c0.3-0.5,0.5-1.1,0.8-1.6c1.7,0.1,3.3,0.3,5,0.4
			c-0.8,2.2-1.1,4.4-1.1,6.8c-0.9,0.4-1.9,0.8-2.8,1.2c-2.1,1-2.2,1.9,0.1,2.7l0,0c-0.5,1.6,0.9,3.5-0.6,5.6
			c-1.4-2.8-3.4-3.9-6.1-3.4c-1.8-0.5-1.8-1.5-1-3c0.9-1.7,1.7-3.5,2.5-5.3c1.2-2.4-0.5-2.4-2.1-2.6c-1.5-1-2.4-0.6-3,1l0.1,0
			c-0.7,0-1.5,0-2.2-0.1c-1-0.4-1.6-1-2-2c0.1-1.2,0.5-2.5-1.2-3c-0.3-0.3-0.6-0.7-0.8-1c-0.3-1.2-0.2-2.7-2.2-2.7
			c-0.8,1.3,0.4,2.5,0.3,3.7c-0.3,1.3,0.4,2.8-0.9,3.9c-1.4-1.4-3.1-2.2-5.1-2.1c-1.7-2.9-1.1-6-1.2-9.1c0.9-0.2,2.2-0.1,2.1-1.4
			c-0.1-1.2-1.3-1.2-2.3-1.4c-0.2,0.1-0.5,0.1-0.6-0.1c-1.5-0.9-2.4-0.4-3,1.1c-2.2,1.1-4.4,2.8-7,0.8c-0.5-1.5-1.3-2.8-3.2-2.5
			c-1.6,0.3-1.7,1.8-2,3.1c-0.2,0.8-0.5,1.5-0.8,2.3c-2.9,2.8-2.9,8.5,0,11.6c3.9,4.2,7.8,8.3,11.6,12.6c0.7,0.8,1.7,1.8,0.7,3
			c-0.8,1-1.8,2.4-3.2,1.8c-4.6-2-3.5,0.9-3.1,3.4c0.3,1.6,0.6,3.2,0.9,4.8c-1.5,3-0.7,5.3,1.9,7.2l-0.4,0.3l-0.3-0.4c0,0,0,0,0,0
			c0.2,0.4,0.4,0.8,0.7,1.1c0.1,1.3,0.6,2.3,2,2.2c2-0.3,1.8-1.9,1.7-3.4l0.2,0c0.6-0.7,1.3-1.3,1.9-2c1.1-0.7,2.2-1.4,3.2-2.1
			c5.5,3.3,3.6-1.6,4.1-3.8c2.3-0.5,4.6-1,6.9-1.4c0.7,2,2.5,2.5,4.2,3.2l0-0.1c-1.4,2.5-5.4,1.7-6.1,5c-5.6,3-11.7,5.1-12.4,13.2
			c-0.3,3,1.6,5,1.3,7.5c-0.4,4,1.6,3.6,4.5,3.8c2.2,0.2,1.2,2.9,1.1,4.5c-0.1,1.5-1.9,2.8-1.1,4.7c1.7-0.2,4.7-2.9,4.5,1.2
			c-0.3,5.6,1.9,10.7,2.2,16.2c-6,0-12,0-18,0c-1.3-2.3-0.9-5.3-3.1-7.2c-0.5-1.4,2.8-2,0.8-3.7c-6.8-5.8-11.8-12.7-12.7-21.9
			c-0.1-1-0.3-2.1-1.6-2c-1.3,0-2.2,0.9-2.2,2.2c0,1.5,1.1,3.1-0.1,4.6c-0.6,1-0.2,1.6,0.7,2c-0.2,0.3-0.5,0.7-0.7,1
			c-0.6,0.1-1.5-0.7-1.8,0.4c0,0.1,0.7,0.4,1.1,0.7c-1.8,4.2-1,8.6-1.4,12.9c-0.4-0.2-0.8-0.4-1.3-0.6c-0.1,0.4-0.3,0.9-0.2,1.2
			c0.4,0.7,1,0.5,1.6,0.2c2.4,2.6-1,5.2,0.1,7.8c-0.4,0.8-0.8,1.6-1.2,2.4c-3.7,0-7.3,0-11,0c-0.1-2,0.7-3.8,1.5-5.6
			c1-2.1,2-4.2,0.3-6.5c0.2-1.1,0-2.2,1-3c1.3-0.4,1.9-1,0.3-1.9c0-1.3,0-2.7-0.1-4c2-1.1,2-2.5,0.3-3.9c-1.4-1.2-3.3-1.9-4.2,0.1
			c-1.2,2.6-3.6,3.2-5.6,4.5c-0.2-0.5-0.5-1-0.7-1.5c-0.2-1.4-0.8-3.3-2.1-2.7c-3.3,1.7-4.9-1.4-7.4-1.9l-0.1-0.2
			c0.5-0.5,0.9-1.1,1.4-1.3C317.2,214.8,317.3,214.4,313.1,209.1z M354.4,198.1c-0.9-1.4,0.1-4-1.9-4.2c-2-0.2-2.1,2.2-2.4,3.8
			c-0.7,3.6,2.2,6.8,1.5,10.5c-0.2,1,1.2,1.5,2.3,1.2c1.1-0.4,1.7-1.3,1-2.3C353,204.2,352.9,201.2,354.4,198.1z M343.7,184.3
			c-1.4,6.9-2.7,13.9-1.7,21C344.7,198.5,344.3,191.4,343.7,184.3z M353.4,120.8c1.7-0.6,3.1-1.5,3.3-3.3c0.2-1.9-1.5-1.3-2.5-1.4
			c-1.7-0.1-2.9,0.7-2.9,2.5C351.3,119.9,352.1,120.7,353.4,120.8z M345.7,119.8c1.1-1.9,2.3-3.4,0.9-5.2c-0.4-0.6-1.3-0.5-1.7,0.1
			C343.7,116.4,344,118.1,345.7,119.8z M334.3,239.3l0.1-0.4l-0.3,0.1L334.3,239.3z"/>
		<path class="st1" d="M220.2,67.1c9-0.6,18.1-1,27-1.6c15.3-0.9,28.6,5.7,43,7.8c8.3,1.2,16.4,3.6,24.9,4c7.5,0.4,15,2.8,22.1,5.2
			c7,2.4,14.5,3.3,21.3,6.5c2.7,1.3,6.9,1.5,6.7,5.2c-0.1,0.9-5.4,2.1-9,1.4c-6.5-1.4-13.3,0.5-20-1c-0.8-0.2-1.9,1.2-2.8,1.9
			c-0.8,0.5-1.8,1.6-2.5,1.4c-7.7-1.9-15.5-0.2-23.2-0.8c-5.9-0.5-12-0.3-17.9-0.2c-1.4,0-2.1-0.4-2.9-1.4c-1.1-1.4-2.6-1.9-3.8-0.5
			c-2.3,2.8-4.3,0.8-6.9,0.5c-11.5-1.7-21.7-9.5-34.1-7.4c-1,0.2-2.4,0.3-2.7-1.4c-0.5-3,3.1-1.1,3.5-3.2c-1.1-0.8-1.9-2.6-3.8-1.5
			c-1.4,0.8-1.6,2-1.1,3.8c0.9,3.1-1.3,3.5-3.3,2.3c-2.7-1.6-4.5-1.9-7.1,0.6c-1.4,1.3-4.8,0.4-7.3,0.5
			C220.2,81.8,220.2,74.4,220.2,67.1z"/>
		<path class="st1" d="M403.3,169.2c-0.7,1-1.3,2-2,3c-1.3-1.4-2.1-2.8-0.7-4.7c1.3-1.6,1.5-3.5,1.1-5.5c0.8-1,1.7-2,2.5-3.1
			c2-0.3,4-0.7,6-1l0,0c-0.2-3-3.6-5.1-2.2-8.7c0.3-0.9-1.8-0.2-2.9-0.2l0,0c-0.1-1.3-0.2-2.6-0.3-3.9c0,0,0.2,0.2,0.1,0.2
			c0.4-0.5,0.8-1,1.2-1.5c0.8-1.4,1.4-3,3-3.9c1.5-0.8,2.3-1.7,1.3-3.5c-0.9-1.7-1.6-2.4-3.8-1.9c-0.8,0.2-2.2,0.1-3.1,0.5
			c-2.9,1.4-5.6-0.2-6.3-2.1c-3-7.9-8.3-14.8-10.8-22.9c-1.6-5.1,3.7-14.4,8.6-16.6c3.9-1.7,7.8-3.7,11.3-6.2
			c4.4-3.2,8.9-4,13.9-2.3c0,31.7,0,63.3,0,95c-0.7,0-1.4,0-2,0c-0.8-0.4-1-1.1-1-1.8c0.1-5.4-5.2-7.7-7.1-12
			c-0.3-0.7-1.5-0.1-2.1,0.5c-1-0.2-2-0.9-2.9,0.3C404.1,167.5,403.5,168.2,403.3,169.2z M410.6,162.7l0.3-0.1l-0.2-0.2L410.6,162.7
			z"/>
		<path class="st2" d="M319.8,224.8c2-1.3,4.4-2,5.6-4.5c0.9-2,2.8-1.2,4.2-0.1c1.7,1.4,1.7,2.8-0.3,3.9c-3,3.1-2.5,7.1-3.6,10.9
			c1.9,0.1,1.4-1.6,2.4-1.9c1.6,2.2,0.6,4.4-0.3,6.5c-0.8,1.8-1.6,3.6-1.5,5.6c-4,0-8,0-12,0c-1.2-1.3,2.4-3.4-0.6-4.3
			c-2.1-0.6-3.6,0.6-4.4,2.5c-0.3,0.6-0.6,1.1-0.9,1.7c-3,0-6,0-9,0c1.5-5,1.4-10.4,3.4-15.3c1-2.3,1.5-4.2,4.2-5.4
			c1.7-0.7,3.7-2.9,2.8-5.7c2.5,0.5,4.1,3.6,7.4,1.9c1.3-0.7,2,1.3,2.1,2.7c-4,2.2-4.3,6.3-5.5,10c-0.5,1.5-0.8,2.8,0.8,3.9
			c1.1,0.8,2.2-0.1,3.2,0.3c0.4-1.3,1.5-3,1.1-3.9C317.4,230.3,318.7,227.6,319.8,224.8z"/>
		<path class="st2" d="M220.2,99.1c3.7,0.4,7.4,2.2,11-0.5c0.6-0.5,1.4-0.2,1.7,0.4c0.4,0.9-0.1,1.5-0.9,2c-1.8,1.1-3.6,2.3-5.3,3.5
			c0.6,2.3,3.4,0.8,3.9,3c-1.2,1.4-2.9,1.6-4.6,1.6c-2.4,0-4.8,0.1-2.3-3.4c0.7-1,0.7-2.3-0.3-3.2c-1.1-0.9-2.2,0.3-3.2,0.5
			C220.2,101.8,220.2,100.4,220.2,99.1z"/>
		<path class="st1" d="M354.2,245.1c-2,0-4,0-6,0c-0.7-1.4-0.5-3.3-1.9-4.4c0.7-1,1.6-1.6,2.8-1.7c1.7,1,3.3,0.2,4.9-0.3l0.1,0.2
			C354.1,240.9,354.2,243,354.2,245.1z"/>
		<path class="st2" d="M346.3,240.6c1.3,1.2,1.1,3,1.9,4.4c-3.7,0-7.3,0-11,0c0.4-0.8,0.8-1.6,1.2-2.4
			C341.1,242.4,343.8,241.9,346.3,240.6z"/>
		<path class="st2" d="M354.2,245.1c0-2.1-0.1-4.2-0.1-6.3c1,0.5,1.2-0.9,2-0.9c2.2,1.9,1.8,4.9,3.1,7.2
			C357.5,245.1,355.9,245.1,354.2,245.1z"/>
		<path class="st2" d="M418.2,180.1c0.7,0,1.4,0,2,0c0,0.7,0,1.3,0,2C419.3,181.6,418.5,181.1,418.2,180.1z"/>
		<path class="st2" d="M401.7,162.1c0.4,2,0.2,3.9-1.1,5.5c-1.4,1.8-0.6,3.3,0.7,4.7c0.1,0.3,0,0.6-0.2,0.8
			c-2.7,3.1-6.2,4.4-10.1,5.1c-2.8-1.5-3.3-4.8-5.2-7c2.7-0.5,4.7,0.6,6.1,3.4c1.5-2.2,0.1-4,0.6-5.6c6.1,2.3,2-2.5,2.7-3.9
			c0-2.3,0.3-4.6,1.1-6.8c0.5,0,1,0,1.4,0c0.4,0.5,0.8,0.9,1.2,1.4c-0.5,1.1-2.3,2-1,3.4C399.5,164.8,400.2,161.7,401.7,162.1z"/>
		<path class="st2" d="M249.9,190.6c-1,0.2-1.4-0.1-1.6-0.8c-0.2-1-0.1-2.2,1.1-2.4c3-0.5,5.4-0.8,3.4-5.1c-0.9-2,8.5-8,10.4-6.6
			c2.4,1.7,0,3.7-1.1,4.8c-1.9,1.8-6.4,1.9-3.2,6.3c0,0.1-1.1,1-1.8,1.5C254.9,189.7,251.7,188.4,249.9,190.6z"/>
		<path class="st2" d="M249.6,234.3c0.4,1.4-0.6,1.9-1.6,1.7c-2.3-0.5-4.9-0.9-5.7-3.8c-0.1-0.4,0.3-0.9,0.5-1.4
			c0.6-1.6-3.6-3.9,0.2-4.5c3-0.5,5.7,1.4,6.2,5C249.3,232.3,249.5,233.3,249.6,234.3z"/>
		<path class="st2" d="M313.1,209.1c4.2,5.3,4.1,5.7-2.2,8.1c-0.6,0.2-1,0.9-1.4,1.3c-0.9-1-1.8-1.3-2.9-0.3
			c-0.9,0.8-2.2,1.4-2.9,0.2c-0.7-1.2,0.7-2.6,1.5-2.6C309.9,215.7,310.7,211.5,313.1,209.1z"/>
		<path class="st2" d="M258.2,234.1c-2.4-0.1-2.6-2.6-2.5-3.2c0.1-3.4,3.1-4.6,5.7-5.3c3.3-0.9,3.1,3.3,3,4.1
			C263.8,232.9,260.2,232.5,258.2,234.1z"/>
		<path class="st2" d="M290,194.2c-2.2-0.4-5.2,0.1-5.9-2.2c-1.2-4.1,2.4-3.6,4.9-3.9c3-0.4,4.4,1.3,4.7,3.8
			C293.9,194.8,291.3,193.7,290,194.2z"/>
		<path class="st2" d="M238.8,187.3c0,1.4-0.7,2-1.5,2.1c-2.7,0.3-4.3,1.9-5.4,4.3c-0.3,0.6-1,1.5-1.9,0.6c-0.6-0.6-1-1.4-0.3-2.2
			c1.4-1.6,2.8-2.9,1.9-5.6c-0.3-1,2.1-2.4,3.4-1.9C236.6,185,237.8,186.5,238.8,187.3z"/>
		<path class="st2" d="M405.1,149.2c1,0,3.2-0.7,2.9,0.2c-1.4,3.7,2.1,5.7,2.2,8.7l0,0c-2,0.3-4,0.7-6,1c0.9-1.1,1.7-2.3,2.6-3.5
			c-1.3-0.9-3.1-0.2-4.2-2C403,152.1,405.4,151.3,405.1,149.2z"/>
		<path class="st2" d="M252.5,208.1c-1.1-0.1-2.6-0.3-1.8-1.6c1.2-2.2-0.2-6,2.2-6.7c1.7-0.5,2.5,3.2,3,5
			C256.4,206.6,254.4,207.7,252.5,208.1z"/>
		<path class="st2" d="M388.3,145.3c-0.9-1.9-3.3-1.6-4.5-3.1c0.9-1.7-0.3-4,1.8-5.8C387.4,139.2,390.2,141.4,388.3,145.3z"/>
		<path class="st2" d="M289,220.3c-2.6,6.9-7.5,1-10.8,2.6C281.5,221.1,284.8,219.7,289,220.3z"/>
		<path class="st2" d="M390.1,155.1c-1.9,0.1-3.5-0.6-4.9-2l0,0c0.4-1.9,1.6-3.2,3.3-4.1C390.8,150.5,390.2,152.9,390.1,155.1z"/>
		<path class="st2" d="M268.2,206.5c-1.9,1.8-3.5,2.1-5.2,0.7c-0.8-0.7-0.6-1.4,0.2-2C265.3,203.5,266.4,205.3,268.2,206.5z"/>
		<path class="st2" d="M280.8,236.5c-0.8,1.8-2.4,2.7-4.1,3.2c-0.2,0.1-1.2-1.2-1.1-1.2c1.1-1.4,2.1-3.1,4.1-3.2
			C280.4,235.2,280.9,235.7,280.8,236.5z"/>
		<path class="st2" d="M258.2,199.1c1.2,0.1,2,0.6,1.8,1.8c-0.2,1.3-1.1,2-2.4,2c-1,0-1.4-0.8-1.4-1.7
			C256.2,199.9,256.8,199.1,258.2,199.1z"/>
		<path class="st2" d="M391.3,157.8c-0.3,0.5-0.5,1.1-0.8,1.6c-1.6-0.9-0.9-2.1-0.4-3.3C390.5,156.7,390.9,157.3,391.3,157.8z"/>
		<path class="st2" d="M404.8,145.3c0.1,1.3,0.2,2.6,0.3,3.9C402,148.1,403.3,146.7,404.8,145.3z"/>
		<path class="st2" d="M315.1,205c0.7,1,0.2,1.6-0.8,2.1C314.2,206.3,314.3,205.5,315.1,205z"/>
		<path class="st2" d="M315.3,200.1c0,0.3,0,0.6,0,1C315.2,200.7,315.2,200.4,315.3,200.1z"/>
		<path class="st2" d="M406.2,144c-0.4,0.5-0.8,1-1.2,1.5C405.4,145,405.8,144.5,406.2,144z"/>
		<path class="st2" d="M397.7,158.3c1.4-0.4,1.7,0.2,1.2,1.4C398.5,159.2,398.1,158.7,397.7,158.3z"/>
		<path class="st2" d="M354.4,198.1c-1.5,3.1-1.4,6.1,0.5,9c0.7,1,0.1,2-1,2.3c-1.1,0.3-2.5-0.1-2.3-1.2c0.6-3.7-2.2-6.9-1.5-10.5
			c0.3-1.6,0.4-4,2.4-3.8C354.5,194.1,353.5,196.7,354.4,198.1z"/>
		<path class="st2" d="M368.1,191c0.1-0.7,1-1.2,0.5-2.2c-0.6-1.2-0.9-2.7,0.6-3.4c1.7-0.8,2,1.3,3,1.9
			C371.7,189.5,373.6,194.3,368.1,191z"/>
		<path class="st2" d="M373.3,160.1c0,2.8,0,5.6,0,8.3c-0.5,0.1-1,0.2-1.5,0.3c-1.5-3.5,0.4-8.4-3.7-10.7
			C370.2,158,371.9,158.8,373.3,160.1z"/>
		<path class="st2" d="M356.2,148c-1.9,1.1-3.1,3.8-6,2.9c0.3-0.8,0.6-1.5,0.8-2.3c0.4-1.2,0.4-2.8,2-3.1
			C354.9,145.2,355.7,146.5,356.2,148z"/>
		<path class="st2" d="M383.3,189c1.6,0.8,2.2,1.8,0.6,3.2c-0.2,0.2-0.4,0.4-0.6,0.6c-1.8,1.7-3.9,1.5-6.1,1.2
			C377.9,190.7,381.9,191.4,383.3,189z"/>
		<path class="st2" d="M357.1,188.1c1.4,2.2,1.5,4.7,1.9,7.2C356.4,193.4,355.6,191.1,357.1,188.1z"/>
		<path class="st2" d="M359,196.4c1.6,0.8,2.5-0.8,3.7-1.2c0.1,1.5,0.3,3.1-1.7,3.4C359.6,198.8,359.1,197.7,359,196.4z"/>
		<path class="st2" d="M379.1,185.8c2.4-0.3,4.2,0.2,4.2,3.2C381.6,188.4,379.8,187.9,379.1,185.8z"/>
		<path class="st2" d="M376.2,155.2c-0.6,0.4-1.3,0.7-1.9,1.1c0.1-1.3-1.1-2.4-0.3-3.7C376,152.5,375.9,154,376.2,155.2z"/>
		<path class="st2" d="M367,149c-0.1-0.9-0.1-1.9-0.2-2.8c0.9,0.2,2.2,0.3,2.3,1.4C369.2,148.9,368,148.9,367,149z"/>
		<path class="st2" d="M385.2,160.2c-0.7,1.2-1.9,0.9-3,1C382.8,159.6,383.8,159.2,385.2,160.2z"/>
		<path class="st2" d="M338.1,234.1c0.2,0.3,0.3,0.5,0.2,0.9c-0.6,0.3-1.3,0.5-1.6-0.2c-0.2-0.3,0.1-0.8,0.2-1.2
			C337.3,233.7,337.7,233.9,338.1,234.1z"/>
		<path class="st2" d="M392.4,166.2c0,0.9,0,1.8,0.1,2.7C390.2,168,390.3,167.1,392.4,166.2z"/>
		<path class="st2" d="M366.2,146.1c-1,0.4-2,0.8-3,1.1C363.8,145.7,364.7,145.2,366.2,146.1z"/>
		<polygon class="st2" points="334.3,239.3 334,239.1 334.3,238.9 		"/>
		<path class="st2" d="M340.2,217.1c0.8,0.5,1.1,1.1,0.7,2C340,218.7,339.6,218.1,340.2,217.1z"/>
		<path class="st2" d="M340.2,220.1c-0.3,0.4-0.5,0.7-0.8,1.1c-0.4-0.2-1.1-0.6-1.1-0.7C338.8,219.4,339.6,220.2,340.2,220.1z"/>
		<path class="st2" d="M329,230c0.1-0.6,0.2-1.3,0.3-1.9C330.9,229,330.3,229.6,329,230z"/>
		<path class="st2" d="M378.2,159.1c-1.2-0.7-1-1.9-1.2-3C378.6,156.7,378.3,157.9,378.2,159.1z"/>
		<path class="st2" d="M385.2,153.1c-0.3,0.3-0.6,0.6-0.9,0.9c-0.1-0.2-0.3-0.5-0.4-0.7C384.3,153.2,384.8,153.1,385.2,153.1
			C385.2,153.1,385.2,153.1,385.2,153.1z"/>
		<path class="st2" d="M362.9,195.2c0.6-0.7,1.3-1.3,1.9-2C364.2,193.8,363.6,194.5,362.9,195.2z"/>
		<path class="st2" d="M382.3,161.2c-0.8,1-1.5,1-2.2-0.1C380.9,161.1,381.6,161.2,382.3,161.2z"/>
		<path class="st2" d="M358.4,195.2C358.4,195.2,358.5,195.3,358.4,195.2C358.4,195.3,358.4,195.2,358.4,195.2z"/>
		<path class="st1" d="M391,178.1c3.9-0.6,7.4-2,10.1-5.1c0.2,1.1,0.4,2.2,0.6,3.3c-0.6,2.7-0.7,5.2,2.2,6.9
			c-0.6,2.9-1.2,5.9-1.9,8.8c-1.2,0-2.4,0-3.7,0c-2.5-1.6-3.3-4.4-4.8-6.8c1-0.8,1-1.6-0.2-2.2C392.6,181.4,391.8,179.8,391,178.1z"
			/>
		<path class="st2" d="M408,166.8c0.6-0.6,1.8-1.2,2.1-0.5c1.9,4.3,7.2,6.5,7.1,12C412.2,175.9,410.2,171.3,408,166.8z"/>
		<path class="st2" d="M372.6,173.2c2.3,1.9,1.9,4.1,0.9,6.2c-0.2,0.5-1.3,0.2-1.6-0.4C370.7,177,370.9,175.1,372.6,173.2z"/>
		<path class="st2" d="M403.9,183.3c-2.8-1.6-2.8-4.2-2.2-6.9C403.1,178.5,405.1,180.4,403.9,183.3z"/>
		<path class="st2" d="M398.4,192.1c1.2,0,2.4,0,3.7,0c0.3,1.3,0.3,3.2-1,3.3C399.1,195.7,399,193.5,398.4,192.1z"/>
		<path class="st2" d="M403.3,169.2c0.3-1,0.9-1.7,1.8-2.2C405.2,168.4,404.5,169,403.3,169.2z"/>
		<path class="st2" d="M393.3,183.1c1.2,0.6,1.2,1.4,0.2,2.2C393.5,184.6,393.4,183.8,393.3,183.1z"/>
		<path class="st1" d="M383.3,192.7c0.2-0.2,0.4-0.4,0.6-0.6C383.9,192.5,383.7,192.7,383.3,192.7z"/>
		<polygon class="st2" points="410.6,162.7 410.7,162.4 410.9,162.6 		"/>
		<path class="st2" d="M410.2,158.1L410.2,158.1L410.2,158.1z"/>
		<path class="st2" d="M349.1,238.9c1.5-1.6,3.1-3.4,4.9-0.3C352.4,239.1,350.8,239.9,349.1,238.9z"/>
	</g>
	<g>
		<path class="st0" d="M440.3,99.1c0-3.3,0-6.7,0-10c2.5-0.1,5.9,0.8,7.3-0.5c2.7-2.4,4.4-2.2,7.1-0.6c2.1,1.2,4.2,0.8,3.3-2.3
			c-0.5-1.8-0.3-3,1.1-3.8c1.9-1.1,2.7,0.7,3.8,1.5c-0.5,2.1-4,0.2-3.5,3.2c0.3,1.7,1.7,1.6,2.7,1.4c12.3-2.1,22.5,5.7,34.1,7.4
			c2.6,0.4,4.5,2.3,6.9-0.5c1.2-1.4,2.7-0.9,3.8,0.5c0.7,1,1.5,1.4,2.9,1.4c6-0.1,12-0.3,17.9,0.2c7.7,0.6,15.5-1.1,23.2,0.8
			c0.7,0.2,1.7-0.9,2.5-1.4c1-0.6,2.1-2,2.8-1.9c6.6,1.5,13.5-0.3,20,1c3.5,0.7,8.9-0.5,9-1.4c0.2-3.8-4-4-6.7-5.2
			c-6.8-3.1-14.2-4.1-21.3-6.5c-7.1-2.4-14.6-4.9-22.1-5.2c-8.5-0.4-16.6-2.9-24.9-4c-14.4-2-27.7-8.7-43-7.8c-9,0.5-18,0.9-27,1.6
			c0-21.3,0-42.6,0-63.9c0-2.3,0.2-3.2,2.9-3.2C508,0.1,572.7,0.1,637.5,0c2.8,0,2.9,1,2.9,3.2c-0.1,27.3,0,54.6,0,81.9
			c-5.1-1.7-9.5-0.9-13.9,2.3c-3.4,2.5-7.4,4.5-11.3,6.2c-4.9,2.2-10.1,11.5-8.6,16.6c2.5,8.1,7.7,15,10.8,22.9
			c0.7,1.9,3.4,3.5,6.3,2.1c0.9-0.4,2.3-0.3,3.1-0.5c2.2-0.5,2.9,0.2,3.8,1.9c1,1.9,0.2,2.8-1.3,3.5c-1.6,0.8-2.1,2.4-3,3.9
			c-0.4,0.5-0.8,1-1.2,1.5l-0.2-0.2c-1.5,1.4-2.8,2.9,0.3,3.9l0,0c0.3,2.1-2.1,3-2.5,4.5c1.1,1.8,2.9,1.1,4.2,2
			c-0.9,1.2-1.8,2.3-2.6,3.5c-0.8,1-1.7,2-2.5,3.1c-1.4-0.4-2.2,2.6-3.8,0.9c-1.3-1.4,0.4-2.3,1-3.4c0.5-1.2,0.2-1.8-1.2-1.4
			c-0.5,0-1,0-1.4,0c-1.7-0.1-3.3-0.3-5-0.4c-0.4-0.6-0.8-1.2-1.2-1.7c0-0.3,0-0.7,0-1c0.2-2.2,0.7-4.5-1.6-6.1
			c-0.1-1.2-0.1-2.5-0.2-3.7c2-3.9-0.9-6.1-2.7-8.9c-2.1,1.8-0.9,4.1-1.8,5.8c-2.3,1.2-5.8,3.6-5.3-1.4c0.6-6.2-1.8-12.7,2.1-18.6
			c1.7-2.5,0.5-5.2-1.2-7.4c-1.7-2.2-3.9-2.9-6.5-1.5c-1.1,0.6-2.1,1-3.3,0.4c-8-4.2-17.4-4-25.3-8.5c-4.1-2.3-8.5-2.3-13-2.2
			c-6.4,0.1-8.2,1.4-9,7.9c-0.3,2.4-1,3.2-3.3,3.2c-0.9,0-2.2,0.4-2.7,1.1c-3,3.8-6.1,8-4.9,13c1.1,4.8,4.9,8.3,8.6,11.6
			c0.4,0.4,1.3,0.4,1.9,0.2c5.7-1.5,9.7-1.3,6.6,6.4c0,0.1,0.1,0.3,0.2,0.4c2.3,7,3.6,13.9-1.8,20.3c-0.6,0.8-0.6,2.2-0.7,3.3
			c-0.6,9.4-4.8,17.2-11,23.8c-2.6,2.8-1.9,3.9,0.1,5.8c-0.1,0.3-0.1,0.7,0,1c-0.1,1.3-0.2,2.6-0.3,4c-0.7,0.5-0.9,1.2-0.8,2.1
			c-0.4,0.7-0.8,1.3-1.2,2c-2.4,2.5-3.2,6.7-7.8,6.7c-0.8,0-2.2,1.4-1.5,2.6c0.7,1.3,2,0.6,2.9-0.2c1.1-1,2-0.7,2.9,0.3l0.1,0.2
			c0.9,2.8-1.1,5-2.8,5.7c-2.7,1.2-3.2,3.1-4.2,5.4c-2.1,4.9-1.9,10.3-3.4,15.3c-25.1,0-50.2-0.1-75.3,0.1c-3.3,0-3.7-1-3.7-3.9
			c0.1-46.1,0.1-92.1,0.1-138.2c1.1-0.3,2.1-1.5,3.2-0.5c1,0.8,1,2.2,0.3,3.2c-2.5,3.5-0.1,3.4,2.3,3.4c1.8,0,3.5-0.2,4.6-1.6
			c-0.5-2.1-3.3-0.6-3.9-3c1.7-1.1,3.5-2.3,5.3-3.5c0.8-0.5,1.3-1.1,0.9-2c-0.3-0.7-1-0.9-1.7-0.4C447.8,101.3,444,99.5,440.3,99.1z
			 M470.1,190.6c1.8-2.2,5-0.9,7.2-2.4c0.7-0.5,1.8-1.4,1.8-1.5c-3.1-4.4,1.3-4.5,3.2-6.3c1.2-1.1,3.5-3,1.1-4.8
			c-1.9-1.4-11.3,4.6-10.4,6.6c1.9,4.3-0.4,4.6-3.4,5.1c-1.2,0.2-1.3,1.4-1.1,2.4C468.6,190.5,469.1,190.8,470.1,190.6z
			 M469.8,234.3c-0.1-1-0.3-2-0.4-2.9c-0.5-3.7-3.2-5.5-6.2-5c-3.8,0.7,0.4,3-0.2,4.5c-0.2,0.5-0.6,1-0.5,1.4
			c0.8,2.9,3.4,3.2,5.7,3.8C469.2,236.2,470.2,235.7,469.8,234.3z M478.4,234.1c1.9-1.5,5.6-1.2,6.1-4.4c0.1-0.8,0.3-4.9-3-4.1
			c-2.6,0.7-5.6,1.9-5.7,5.3C475.8,231.5,476,234,478.4,234.1z M510.1,194.2c1.4-0.5,4,0.7,3.7-2.3c-0.3-2.6-1.7-4.2-4.7-3.8
			c-2.5,0.3-6-0.2-4.9,3.9C504.9,194.3,507.9,193.8,510.1,194.2z M459,187.3c-1.1-0.9-2.2-2.3-3.7-2.8c-1.4-0.4-3.8,1-3.4,1.9
			c0.9,2.7-0.5,4-1.9,5.6c-0.7,0.8-0.3,1.5,0.3,2.2c0.9,0.9,1.6,0,1.9-0.6c1.1-2.4,2.6-4,5.4-4.3C458.2,189.4,459,188.7,459,187.3z
			 M472.7,208.1c1.8-0.3,3.9-1.5,3.4-3.3c-0.5-1.8-1.2-5.5-3-5c-2.5,0.7-1,4.5-2.2,6.7C470.1,207.7,471.5,207.9,472.7,208.1z
			 M509.1,220.3c-4.2-0.5-7.5,0.9-10.8,2.6C501.7,221.3,506.5,227.1,509.1,220.3z M488.3,206.5c-1.8-1.2-2.9-3-5-1.4
			c-0.8,0.7-1,1.4-0.2,2C484.8,208.6,486.4,208.3,488.3,206.5z M501,236.5c0-0.8-0.4-1.3-1.1-1.2c-2,0.1-3,1.8-4.1,3.2
			c-0.1,0.1,0.9,1.3,1.1,1.2C498.6,239.2,500.2,238.3,501,236.5z M478.3,199.1c-1.3,0-2,0.8-1.9,2.2c0,0.9,0.4,1.7,1.4,1.7
			c1.3,0,2.2-0.7,2.4-2C480.4,199.7,479.5,199.2,478.3,199.1z"/>
		<path class="st0" d="M596.3,155.2c0.3,0.3,0.6,0.7,0.8,1c0.2,1.1,0,2.3,1.2,3c0.3,1,1,1.6,2,2c0.7,1.1,1.4,1.1,2.2,0.1l-0.1,0
			c1-0.2,2.3,0.1,3-1c1.6,0.2,3.2,0.2,2.1,2.6c-0.9,1.8-1.6,3.6-2.5,5.3c-0.8,1.5-0.8,2.5,1,3c1.9,2.2,2.4,5.5,5.2,7
			c0.8,1.6,1.5,3.3,2.3,4.9c0.1,0.7,0.1,1.5,0.2,2.2c1.5,2.3,2.3,5.1,4.8,6.8c0.6,1.4,0.7,3.6,2.7,3.4c1.3-0.2,1.3-2,1-3.3
			c0.6-2.9,1.2-5.9,1.9-8.8c1.2-2.9-0.8-4.8-2.2-6.9c-0.2-1.1-0.4-2.2-0.6-3.3c0.2-0.2,0.3-0.5,0.2-0.8c0.7-1,1.3-2,2-3
			c1.2-0.2,2-0.8,1.8-2.2c0.8-1.2,1.9-0.5,2.9-0.3c2.2,4.5,4.3,9.1,9.2,11.5c0.1,0.8,0.2,1.5,1,1.8c0.3,1,1.2,1.5,2,2
			c0,20-0.1,40,0.1,60c0,2.5-0.6,3.1-3.1,3.1c-13.3-0.1-26.7-0.1-40-0.1c-0.3-5.4-2.4-10.6-2.2-16.2c0.2-4.2-2.8-1.4-4.5-1.2
			c-0.8-1.9,1-3.1,1.1-4.7c0.1-1.6,1.1-4.3-1.1-4.5c-2.9-0.2-4.9,0.2-4.5-3.8c0.3-2.4-1.6-4.5-1.3-7.5c0.7-8.1,6.8-10.3,12.4-13.2
			c2.2,0.2,4.3,0.5,6.1-1.2c0.4,0,0.6-0.2,0.6-0.6c1.7-1.4,1-2.4-0.6-3.2l0,0.1c0-2.9-1.8-3.5-4.2-3.2c-2.3,0.5-4.6,1-6.9,1.4
			c-1.1-0.6-1.3-2.7-3-1.9c-1.5,0.7-1.2,2.3-0.6,3.4c0.6,1-0.3,1.5-0.5,2.2c-1.1,0.7-2.2,1.4-3.2,2.1c-0.6,0.7-1.3,1.3-1.9,2l-0.2,0
			c-1.2,0.4-2.1,2-3.7,1.2c-0.2-0.4-0.4-0.8-0.6-1.1c0.1,0-0.1,0-0.1,0l0.3,0.4l0.4-0.3c-0.5-2.4-0.6-5-1.9-7.2
			c-0.3-1.6-0.6-3.2-0.9-4.8c-0.4-2.4-1.5-5.4,3.1-3.4c1.4,0.6,2.4-0.8,3.2-1.8c1.1-1.3,0.1-2.2-0.7-3c-3.8-4.2-7.8-8.4-11.6-12.6
			c-2.9-3.1-2.9-8.8,0-11.6c2.9,0.8,4.1-1.8,6-2.9c2.6,2,4.8,0.4,7-0.8c1-0.4,2-0.8,3-1.1c0.2,0.2,0.4,0.2,0.6,0.1
			c0.1,0.9,0.1,1.9,0.2,2.8c0.1,3.1-0.5,6.2,1.2,9.1c4.1,2.3,2.2,7.3,3.7,10.7c0.5-0.1,1-0.2,1.5-0.3c0-2.8,0-5.6,0-8.3
			c1.3-1,0.7-2.6,0.9-3.9C595,155.9,595.7,155.6,596.3,155.2z M592.7,173.2c-1.8,1.8-1.9,3.7-0.7,5.8c0.4,0.6,1.4,0.9,1.6,0.4
			C594.6,177.4,595,175.2,592.7,173.2z"/>
		<path class="st0" d="M528.3,245.1c0.3-0.6,0.6-1.1,0.9-1.7c0.9-1.9,2.3-3.1,4.4-2.5c3,0.8-0.5,3,0.6,4.3
			C532.3,245.1,530.3,245.1,528.3,245.1z"/>
		<path class="st0" d="M576.2,237.9c-0.8,0-0.9,1.4-2,0.9l-0.1-0.2c-1.8-3.1-3.4-1.3-4.9,0.3c-1.2,0.2-2.1,0.7-2.8,1.7
			c-2.5,1.2-5.2,1.8-8,2.1c-1.1-2.6,2.3-5.2-0.1-7.8c0.1-0.3,0-0.6-0.2-0.9c0.4-4.3-0.5-8.7,1.4-12.9c0.3-0.4,0.5-0.7,0.8-1.1
			c0.2-0.3,0.5-0.7,0.7-1c0.4-0.9,0-1.5-0.7-2c1.3-1.5,0.1-3.1,0.1-4.6c0-1.3,0.9-2.1,2.2-2.2c1.3,0,1.5,1,1.6,2
			c0.9,9.2,5.9,16.1,12.7,21.9C579,235.9,575.8,236.5,576.2,237.9z"/>
		<path class="st0" d="M540,224.8c-1.1,2.8-2.5,5.5-1.1,8.8c0.4,1-0.7,2.6-1.1,3.9c-1-0.5-2.1,0.5-3.2-0.3c-1.6-1.2-1.2-2.5-0.8-3.9
			c1.2-3.7,1.5-7.8,5.5-10C539.5,223.8,539.7,224.3,540,224.8z"/>
		<path class="st0" d="M563.8,184.3c0.6,7.1,1,14.2-1.7,21C561.1,198.2,562.4,191.2,563.8,184.3z"/>
		<path class="st0" d="M573.5,120.8c-1.3-0.1-2.1-0.9-2.1-2.2c0-1.8,1.2-2.6,2.9-2.5c1,0,2.6-0.5,2.5,1.4
			C576.7,119.3,575.3,120.3,573.5,120.8z"/>
		<path class="st0" d="M548.2,233c-1,0.3-0.5,2-2.4,1.9c1.1-3.7,0.6-7.8,3.6-10.9c0,1.3,0,2.7,0.1,4c-0.1,0.6-0.2,1.3-0.3,1.9
			C548.2,230.8,548.3,232,548.2,233z"/>
		<path class="st0" d="M615.3,165c-0.7,1.4,3.3,6.2-2.7,3.9l0,0c0-0.9,0-1.8-0.1-2.7C613.5,165.8,614.4,165.4,615.3,165z"/>
		<path class="st0" d="M565.8,119.8c-1.7-1.7-1.9-3.4-0.8-5.1c0.4-0.6,1.3-0.6,1.7-0.1C568.1,116.4,566.9,118,565.8,119.8z"/>
	</g>
</g>
<g>
</g>
<g>
</g>
<g>
</g>
<g>
</g>
<g>
</g>
<g>
</g>
<g>
</g>
<g>
</g>
<g>
</g>
<g>
</g>
<g>
</g>
<g>
</g>
<g>
</g>
<g>
</g>
<g>
</g>
</svg>
