<?xml version="1.0" encoding="utf-8"?>
<!-- Generator: Adobe Illustrator 17.1.0, SVG Export Plug-In . SVG Version: 6.00 Build 0)  -->
<!DOCTYPE svg PUBLIC "-//W3C//DTD SVG 1.1//EN" "http://www.w3.org/Graphics/SVG/1.1/DTD/svg11.dtd">
<svg version="1.1" id="Layer_1" xmlns="http://www.w3.org/2000/svg" xmlns:xlink="http://www.w3.org/1999/xlink" x="0px" y="0px"
	 viewBox="0 0 642.7 254.8" style="enable-background:new 0 0 642.7 254.8;" xml:space="preserve">
<style type="text/css">
	.st0{fill:#FC0000;}
	.st1{fill:#FA0001;}
	.st2{fill:#010000;}
</style>
<g>
	<g>
		<path class="st0" d="M169,46.9c-1.3,0-2.6,0-3.9,0c-3.6,0-7.3,0-10.9,0.2c-3.7,0.2-7.4,0.4-11.1,1.2c-1.1,0.2-2.1,0.5-3.2,0.9
			c-0.5,0.2-1,0.5-1.5,0.8c-0.5,0.4-0.8,0.9-1,1.5c-1.1,4.5-2.2,9-3.4,13.4c0,0.2-0.1,0.3-0.2,0.5c-0.1,0-0.1,0-0.2,0
			c0.1-0.4,0.1-0.9,0.1-1.3c0-0.3-0.1-0.6-0.4-0.7c-0.3-0.1-0.6,0.1-0.7,0.3c-0.2,0.3-0.4,0.7-0.5,1c-0.5,1.5-0.7,3-0.9,4.6
			c-0.4,3.2-0.5,6.5-0.5,9.8c0,1.5,0,3,0.2,4.5c0,0.4,0,0.8,0.3,1.1c0.2-0.2,0.2-0.5,0.2-0.7c0.1-1.6,0.2-3.2,0.3-4.9
			c0.1-2,0.2-4,0.6-5.9c0.1-0.6,0.2-1.2,0.7-1.8c0.3,0.4,0.3,0.9,0.4,1.3c0.1,0.8,0.1,1.7,0.1,2.6c0,0.7,0,1.3,0.1,2
			c0.1,0.6,0.3,0.7,1,0.6c0.6-0.1,1.1-0.4,1.6-0.7c0.7-0.3,1.4-0.7,2.2-0.8c1.2-0.2,2.2,0.6,2.2,1.9c0,0.3-0.2,0.5-0.3,0.6
			c-0.4,0.4-0.8,0.7-1.2,1c-0.9,0.7-1.8,1.4-2.8,2.1c-0.5,0.4-1,0.8-1.5,1.3c-0.3,0.3-0.5,0.5-0.7,0.8c-0.4,0.7-0.3,1.1,0.4,1.6
			c0.5,0.3,1.1,0.6,1.7,0.8c0.3,0.1,0.6,0.2,1,0c0-0.4-0.3-0.8-0.2-1.3c0.4,0.3,0.5,0.7,0.4,1c-0.1,0.3,0,0.5,0.1,0.7
			c0.7,1.7,1.6,3.4,2.5,5.1c0,0.1,0.1,0.1,0.2,0.2c0.1-0.5,0.2-1,0.2-1.5c0.1-2.5,0.2-5,0.3-7.5c0-0.6,0.1-1.2,0.2-1.7
			c0-0.2,0.1-0.5,0.4-0.6c0.3,0,0.5,0.1,0.7,0.3c0.2,0.3,0.3,0.6,0.4,0.9c0.3,1.3,0.3,2.6,0.2,3.9c-0.3,4.4-1,8.7-1.9,13
			c-0.8,4.1-1.8,8.2-2.9,12.3c-0.2,0.7-0.4,1.3-0.6,2c-0.1,0.5-0.4,0.8-0.8,1c-2.3,1.4-4.2,3.2-5.8,5.4c-0.2,0.3-0.3,0.6-0.4,0.9
			c-0.6,3.5-1.1,7.1-1.8,10.6c-0.1,0.7,0,1.4,0.2,2.1c0.3,1.2,0.8,2.4,1.3,3.6c0.3,0.8,0.7,1.6,1,2.4c0.1,0.3,0.3,0.7,0,0.9
			c-0.4,0.2-0.7,0-1-0.3c-0.6-0.5-1-1.2-1.4-1.9c-0.1-0.1-0.1-0.2-0.2-0.3c-0.3,0.1-0.4,0.4-0.5,0.6c-1,1.5-1.8,3.2-2.6,4.8
			c-1.3,2.9-2.6,5.8-3.4,9c-0.2,0.7-0.3,1.3-0.4,2c0,0.3,0,0.5,0.3,0.7c1.5,1,3.1,2.1,4.6,3.2c0.3,0.2,0.6,0.3,0.9,0.2
			c0.8-0.1,1.6-0.1,2.3,0.2c1.1,0.3,1.7,1.1,2,2.2c0.2,1.1,0,2.2-0.2,3.2c-0.5,2-1.3,3.8-2.3,5.6c-1.6,3.2-3.6,6.2-5.7,9
			c-0.6,0.8-1.3,1.5-2.1,2.2c-5.5,4.6-11.4,8.6-17.9,11.7c-2,0.9-4,1.7-6.1,2c-1.2,0.2-2.3,0.3-3.5-0.1c-0.4-0.1-0.8-0.2-1.1-0.5
			c0-0.1,0-0.2,0.1-0.2c1.6-1.4,3-3,4.5-4.5c1.8-2,3.6-4,5.4-6.1c0.1-0.2,0.5-0.4,0.3-0.6c-0.2-0.3-0.5-0.1-0.7,0
			c-0.5,0.1-0.9,0.3-1.4,0.5c-1.5,0.7-3,1.4-4.4,2.1c-1.8,0.9-3.7,1.7-5.7,2.3c-1,0.3-1.9,0.4-2.9,0.4c-1.6-0.1-2.8-1.3-2.9-3
			c0-0.4,0.2-0.6,0.5-0.8c0.2-0.1,0.4-0.1,0.5-0.2c-0.8-1.1-1.8-1.5-3.1-1.4c-0.9,0.1-1.9,0.4-2.7,0.7c-1.3,0.5-2.6,1.1-3.9,1.6
			c-0.7,0.3-1.5,0.6-2.3,0.8c-0.3,0.1-0.6,0.1-0.9-0.1c-0.3-0.2-0.5-0.3-0.8-0.5c-1.9-1.6-3.6-3.4-5.1-5.4c-0.6-0.8-0.7-1.5-0.2-2.3
			c0.2-0.3,0.3-0.6,0.5-0.9c0.7-1.2,1.8-1.6,3.2-1.5c1.3,0.1,2.5,0.4,3.7,0.7c1.8,0.4,3.6,0.6,5.5,0.6c1.1,0,2.1-0.2,3.2-0.7
			c2.2-1,4.3-2.3,6.1-4c0.8-0.7,1.4-1.7,1.8-2.7c0.1-0.3,0.2-0.6,0.2-0.9c0-0.5-0.2-0.8-0.6-0.9c-0.3-0.1-0.5-0.1-0.8-0.1
			c-0.5,0-1,0-1.6,0.1c-0.6,0-1.2,0.1-1.8,0c-0.6-0.1-1.1-0.4-1.3-1c-0.2-0.7-0.2-1.3,0.4-1.9c0.4-0.4,0.8-0.6,1.3-0.8
			c0.9-0.4,1.8-0.5,2.8-0.6c2.5-0.3,5-0.3,7.6-0.1c3.2,0.2,6.3,0.6,9.4,1.2c1.1,0.2,2.3,0.4,3.4,0.8c0.1,0,0.3,0.1,0.4,0.1
			c0.1-0.3,0-0.6-0.1-0.9c-0.3-2-0.3-4-0.4-5.9c0-0.9,0-1.8,0.1-2.7c0-0.3,0-0.5-0.4-0.5c-0.3,0-0.7-0.1-1-0.3
			c-0.3-0.2-0.6-0.1-0.8,0.1c-0.3,0.3-0.1,0.5,0,0.8c0.1,0.2,0.3,0.4,0.4,0.6c0.1,0.1,0.2,0.3,0.3,0.4c0.2,0.3,0.1,0.5-0.3,0.6
			c-0.4,0.1-0.9,0.1-1.3,0.1c-1.9-0.1-3.8-0.2-5.7-0.3c-0.6-0.1-1.2,0-1.7,0.1c-2.1,0.5-4.2,0.7-6.4,0.8c-0.7,0-1.2-0.4-1.3-1.2
			c-0.1-0.6,0-1.1,0.1-1.7c0.1-0.5,0.2-0.9,0.3-1.4c0-0.3,0.1-0.5,0.1-0.8c0-0.5-0.1-0.6-0.6-0.6c-0.5,0-0.9,0.1-1.4,0.1
			c-3.2,0.2-6.3-0.4-9.2-2c-1.5-0.8-2.9-2-3.8-3.4c-0.2-0.3-0.4-0.4-0.6-0.6c-2.4-1.6-4.6-3.4-6.6-5.5c-0.6-0.7-1.2-1.4-1.7-2.1
			c-0.2-0.4-0.5-0.8-0.6-1.2c-0.4-0.9-0.5-1.7,0-2.6c0.1-0.1,0-0.2,0-0.3c0,0,0.1,0,0,0c0,0,0,0,0,0c0,0.1-0.1,0.2-0.1,0.2
			c-0.2,0.1-0.4,0.3-0.6,0.4c-1.5,1.2-3,2.4-4.4,3.7c-0.9,0.8-1.8,1.4-2.9,1.8c-1.6,0.5-3.2,0.4-4.7-0.1c-1.4-0.5-2.7-1.2-4-2
			c-0.8-0.5-1.4-1.2-2-1.9c-1.4-1.7-2.6-3.5-3.8-5.4c-2.1-3.1-4-6.4-6.1-9.5c-0.6-0.9-1.3-1.9-2-2.7c-0.4-0.5-0.8-0.9-1.2-1.3
			c-0.3-0.3-0.7-0.5-1.2-0.1c0.2-2-0.2-3.7-1.4-5.4c-0.4,0.8-0.3,1.6-0.4,2.4c-1.9-1.6-4.3-1.9-6.6-2.5c-2.8-0.7-5.6-1.1-8.4-1.9
			c-1-0.3-2-0.6-3-1.1c-0.5-0.2-0.9-0.5-1.3-0.8c-0.7-0.7-0.8-1.4-0.3-2.2c0.9-1.2,1.9-2.1,3.6-2.1c1.5,0,2.9,0.1,4.4,0.2
			c0.8,0,1.5,0,2.3,0c0.4,0,0.8-0.1,1.2-0.3c0.7-0.3,1-0.8,0.9-1.6c-0.2-1.2-0.5-2.3-0.7-3.5c-0.6-3.2-1.2-6.4-1.3-9.6
			c0-1.2,0-2.3,0.3-3.4c0.2-0.7,0.4-1.5,0.9-2c0.8-0.8,1-0.7,1.3,0.3c0.3,0.9,0.2,1.9,0,2.8c-0.2,1.4-0.6,2.8-0.8,4.2
			c-0.1,1-0.2,1.9,0.1,2.9c0.1,0.5,0.3,0.9,0.7,1.3c0.2-0.2,0.3-0.5,0.4-0.8c0.5-1.5,0.9-2.9,1.5-4.3c0.3-0.8,0.7-1.7,1.2-2.4
			c0.2-0.4,0.5-0.8,0.9-1.1c0.7-0.6,1.3-0.6,1.9,0.1c0.4,0.4,0.6,0.9,0.8,1.5c0.2,0.4,0.3,0.8,0.6,1.2c0-0.2,0.1-0.5,0.1-0.7
			c0.2-2.2,0.4-4.5,0.6-6.7c0.1-0.8,0.2-1.6,0.3-2.4c0.1-0.6,0.1-1.3,0-1.9c-0.1-0.6-0.2-1.2-0.3-1.7c-0.1-0.5,0-1.1,0.1-1.6
			c0.2-0.6,0.5-0.8,1.2-0.7c0.3,0.1,0.6,0.2,1,0.3c0.7,0.2,1.1-0.1,1.3-0.7c0.2-0.6,0.1-1.3,0-1.9c-0.3-2.3-0.9-4.5-1.6-6.6
			c-0.9-2.9-1.9-5.7-3.2-8.4c-0.5-1.1-1.1-2-2-2.9c-0.9-1-1.4-2.2-1.7-3.5c-0.6-2.2-0.7-4.3-0.7-6.6c0.1-5,1-9.8,3-14.4
			c0.6-1.4,1.4-2.8,2.4-4c1.1-1.3,2.3-2.2,3.9-2.7c1.2-0.4,2.1-1.2,2.8-2.2c0.9-1.4,1.4-3,1.8-4.6c0.6-2.9,0.7-5.9,0.6-8.8
			c0-1.3-0.1-2.6-0.1-3.9c0-0.6,0-0.6,0.6-0.6c0.2,0,0.4,0,0.6,0c16.8,0,33.5,0,50.3,0c1.4,0,2.8,0,4.2,0c2,0,3.8,0.5,5.5,1.6
			c0.2,0.1,0.4,0.2,0.5,0.3c0.9,0.7,1.9,0.8,3,0.5c0.8-0.2,1.5-0.5,2.2-0.8c1.3-0.5,2.6-1.1,4-1.3c0.6-0.1,1.3-0.2,1.9-0.2
			c6.8,0,13.6,0,20.4,0c1.3,0,2.6,0.1,3.8,0.4c0.6,0.1,1.1,0.3,1.6,0.5c1.2,0.6,1.8,1.6,1.9,2.9c0,0.8-0.1,1.6-0.2,2.4
			c-0.1,0.6-0.2,1.1-0.2,1.7c0,1.8,1.2,2.4,2.6,2.6c0.3,0,0.5-0.2,0.7-0.4c0.4-0.5,0.6-1,0.8-1.6c0.7-1.8,1.2-3.6,1.6-5.5
			c0.2-0.8,0.4-1.6,0.5-2.4c0.1-0.3,0.2-0.5,0.6-0.5c2.8,0,5.5-0.5,8.3-0.7c0.1,0,0.2,0,0.3-0.1c0.1,0,0.1-0.1,0-0.2
			c1.8,0,3.7,0,5.5,0c0,0,0,0,0,0.1c0,0,0,0,0,0c0.2,0.1,0.4,0.1,0.6,0.2c2.4,0.5,4,1.9,4.5,4.3c0,0.2,0.1,0.4,0.2,0.6
			c0,1.3,0,2.5,0,3.8c0,0.1-0.1,0.1-0.1,0.2c-0.5,2.2-1.9,3.6-3.9,4.4c-1.3,0.5-2.7,0.8-4.1,0.9c-2.1,0.2-4.1,0.2-6.2,0.2
			c-2,0-4.1,0-6.1,0.3c-1.9,0.3-3.7,0.7-5.6,1c-2.4,0.5-4.9,0.7-7.4,0.4c-1.3-0.2-2.6-0.2-4-0.2c-0.8,0-1.5,0.1-2.3,0.4
			c-0.8,0.3-1,0.8-0.6,1.7c0.2,0.5,0.6,0.9,0.9,1.3c0.6,0.8,1.3,1.5,1.8,2.5c0.5-0.9,1.2-0.9,2-0.9c0.2,0,0.4,0,0.5,0.1
			c0.9,0.2,1.8,0.5,2.7,0.8c2,0.8,3.9,1.8,5.7,2.9c0.5,0.3,1,0.6,1.6,0.8c0.9,0.3,1.5,0,1.9-0.8c0.2-0.4,0.3-0.7,0.5-1.1
			c0.2-0.6,0.4-1.1,0.7-1.7c0.4-0.9,1.1-1.4,2-1.7c2.5-0.7,5-1.2,7.5-1.6c2.3-0.3,4.6-0.6,6.8-0.8c1.9-0.2,3.7-0.3,5.6-0.5
			c0,0.4,0,0.7,0,1.1c0,9.1,0,18.1,0,27.2C169,46.3,169,46.6,169,46.9z M108.4,148.2C108.4,148.1,108.4,148.1,108.4,148.2
			C108.4,148.1,108.4,148.1,108.4,148.2c0.1-0.2,0-0.4,0-0.6c-1.1-3.5-2.4-7-4.3-10.2c-0.6-1-1.2-1.9-1.9-2.8
			c-0.5-0.5-0.9-1-1.5-1.3c-0.5-0.3-1-0.5-1.6-0.5c-1.1,0-1.4,0.3-1.4,1.3c-0.1,2.2,0.2,4.3,1,6.4c0.1,0.3,0.3,0.7,0.5,0.9
			c0.6,0.7,1.1,0.8,1.7,0.1c0.1-0.2,0.2-0.3,0.4-0.5c0.1-0.1,0.2-0.1,0.3,0c0.1,0.1,0.2,0.3,0.4,0.4c1.5,1.6,3,3.3,4.5,4.9
			C107.1,146.9,107.8,147.5,108.4,148.2z M41.7,89.6c-0.4-0.7-1.6-1.5-2.4-1.8c-0.9-0.3-1.7,0-2.3,0.7c-0.3,0.4-0.6,0.9-0.8,1.4
			c-0.3,0.8-0.5,1.7-0.6,2.6c-0.2,2.8,0.1,5.4,1,8.1c0.6,1.9,1.4,3.6,2.7,5.1c1.1,1.4,2.5,2.4,4.2,2.8c0.5,0.1,1,0.3,1.5,0.4
			c0.8,0.3,1.6,0.7,2.2,1.3c1.6,1.7,3.1,3.5,4.3,5.5c0.2,0.3,0.5,0.6,0.5,1c0,0.6,0.4,0.6,0.9,0.7c1.7,0.3,3.5,0.1,5.2-0.1
			c2.2-0.2,4.5-0.7,6.7-0.8c1.6-0.1,3.2-0.2,4.7,0.4c1.2,0.5,2.2,0.2,3.1-0.5c0.7-0.5,1.2-1.2,1.8-1.9c1.2-1.6,2.2-3.3,3.1-5
			c1.1-2.1,2.1-4.2,3.2-6.2c0.4-0.8,0.9-1.5,1.4-2.2c0.3-0.4,0.3-0.5,0-0.9c-0.4-0.4-0.9-0.8-1.4-1.1c-4.1-2.6-8.3-4.7-12.7-6.7
			c-0.4-0.2-0.8-0.2-1.2-0.2c-0.7,0-1.4,0-2.1-0.1c-2.1-0.3-4.2-0.8-6.2-1.3c-3-0.8-5.9-1.7-9-2C46.8,88.3,44.2,88.4,41.7,89.6z
			 M87.5,103.1c0,1.3,0.4,2.4,1.2,3.4c0.6,0.9,1.4,1.6,2.3,2.3c1.2,0.9,2.6,1.6,4,2.2c2,0.8,4.1,1.5,6.1,2.4
			c1.3,0.5,2.4,0.5,3.5-0.4c1.4-1.1,3.1-1.8,4.8-2.5c1.3-0.5,2.7-1,4-1.7c1.8-0.9,3.5-2,4.7-3.6c0.2-0.3,0.5-0.4,0.7-0.6
			c1.1-0.7,2.3-1.5,3.4-2.2c1.6-1.1,3.3-2.3,4.7-3.7c0.5-0.4,0.9-0.9,1.3-1.4c0.3-0.3,0.5-0.7,0.7-1.1c0.7-1.4,0.4-2.5-0.9-3.4
			c-1-0.7-1.9-1.3-2.9-1.9c-0.7-0.5-1.4-0.9-2.2-1.2c-0.4-0.2-0.7-0.3-1.2-0.4c-0.8-0.1-1.2,0.2-1.2,1c0,0.4-0.1,0.5-0.5,0.6
			c-2.8,0.5-5.6,1.3-8.4,1.9c-3.4,0.7-6.9,1.2-10.4,1.1c-0.7,0-1.4,0-2,0.1c-2.8,0.3-5.4,1.2-7.7,2.8c-1.2,0.8-2.2,1.8-2.9,3
			C87.9,100.9,87.5,102,87.5,103.1z M131.4,95.4c0,1.4,0.7,2.5,1.6,3.5c0.4,0.5,0.9,0.4,1.2-0.2c0.9-2.1,1.7-4.3,2.5-6.4
			c0.1-0.3,0.2-0.6,0.3-0.8c0.1-0.6-0.2-1-0.8-1c-0.4,0-0.8,0.1-1.1,0.2c-1.4,0.6-2.4,1.6-3.1,2.9C131.6,94.1,131.5,94.7,131.4,95.4
			z M31.5,99.5c0.6-0.9,1.4-7.2,1.4-10.4c-0.5,0.4-1,0.8-1.5,1.2c-0.6,0.5-1.3,1.1-1.8,1.8c-1,1.4-1.2,2.8-0.5,4.4
			C29.7,97.7,30.5,98.6,31.5,99.5z M68.5,133c0.8-0.3,1.6-0.5,2.4-0.7c0.4-0.1,0.7,0,1,0.3c0.3,0.3,0.6,0.5,0.8,0.8
			c0.2,0.2,0.4,0.3,0.6,0.4c0.3,0.1,0.6,0,0.7-0.2c0.4-0.9,0.8-1.7,0.7-2.7c0-0.6-0.4-0.9-1-0.8c-0.3,0.1-0.6,0.1-0.9,0.3
			C71.3,131,69.9,131.9,68.5,133z"/>
		<path class="st1" d="M133.2,254.8c-0.2-0.2-0.4-0.1-0.6-0.1c-0.9,0-1.8-0.1-2.7-0.1c-0.3,0-0.4-0.1-0.4-0.4
			c-0.1-3.1-0.6-6.1-0.9-9.2c-0.2-2.3-0.2-4.5,0.3-6.8c0.6-2.6,2-4.6,4.2-6.1c2.2-1.5,4.7-2.5,7.3-3c0.7-0.1,1.4-0.1,2.1-0.1
			c1.8,0.2,3,1.5,3.2,3.5c0.2,1.6,0,3.1-0.4,4.6c-0.9,3.6-2.5,6.8-4.8,9.8c-0.1,0.1-0.1,0.1-0.2,0.2c-0.2-0.1-0.2-0.4-0.3-0.6
			c-0.4-1-1-1.2-1.9-0.7c-1.2,0.8-2,1.9-2.4,3.3c-0.2,0.7,0,0.9,0.7,0.9c1.2,0.1,2.2-0.3,3.1-1c0.2-0.2,0.4-0.3,0.5-0.4
			c0.1,0,0.1,0.1,0.1,0.2c-0.2,1.3-0.4,2.6-0.8,3.8c-0.1,0.3-0.2,0.7-0.4,1c-0.3,0.5-0.6,0.9-1.2,1.1c-0.2,0.1-0.4,0.1-0.4,0.3
			C135.9,254.8,134.6,254.8,133.2,254.8z"/>
		<path class="st1" d="M169,9c0-1.3,0-2.5,0-3.8c0-0.2,0.1-0.5,0.1-0.7c0-1.3,0-2.6,0-3.9c0-0.2,0-0.4-0.1-0.6c0,0,0.1-0.1,0.1,0.1
			c0,0.2,0,0.4,0,0.5c0,84.5,0,169,0,253.6c0,0.2,0.2,0.5-0.1,0.6c0.1-0.3,0.1-0.5,0.1-0.8c0-68.7,0-137.5,0-206.2
			c0-0.3,0.1-0.6-0.1-0.9c0-0.3,0-0.6,0-0.9c0-9.1,0-18.1,0-27.2c0-0.4,0-0.7,0-1.1c0.1-0.2,0.1-0.5,0.1-0.7c0-2.4,0-4.8,0-7.2
			C169.1,9.5,169.1,9.3,169,9z"/>
		<path class="st2" d="M169.1,47.8c0-0.3,0.1-0.6-0.1-0.9c-1.3,0-2.6,0-3.9,0c-3.6,0-7.3,0-10.9,0.2c-3.7,0.2-7.4,0.4-11.1,1.2
			c-1.1,0.2-2.1,0.5-3.2,0.9c-0.5,0.2-1,0.5-1.5,0.8c-0.5,0.4-0.8,0.9-1,1.5c-1.1,4.5-2.2,9-3.4,13.4c0,0.2-0.1,0.3-0.2,0.5
			c-0.2,1.1-0.6,2.3-1.1,3.3c0.3-1.1,0.6-2.2,0.9-3.4c0.1-0.4,0.1-0.9,0.1-1.3c0-0.3-0.1-0.6-0.4-0.7c-0.3-0.1-0.6,0.1-0.7,0.3
			c-0.2,0.3-0.4,0.7-0.5,1c-0.5,1.5-0.7,3-0.9,4.6c-0.4,3.2-0.5,6.5-0.5,9.8c0,1.5,0,3,0.2,4.5c0,0.4,0,0.8,0.3,1.1
			c0.2-0.2,0.2-0.5,0.2-0.7c0.1-1.6,0.2-3.2,0.3-4.9c0.1-2,0.2-4,0.6-5.9c0.1-0.6,0.2-1.2,0.7-1.8c0.3,0.4,0.3,0.9,0.4,1.3
			c0.1,0.8,0.1,1.7,0.1,2.6c0,0.7,0,1.3,0.1,2c0.1,0.6,0.3,0.7,1,0.6c0.6-0.1,1.1-0.4,1.6-0.7c0.7-0.3,1.4-0.7,2.2-0.8
			c1.2-0.2,2.2,0.6,2.2,1.9c0,0.3-0.2,0.5-0.3,0.6c-0.4,0.4-0.8,0.7-1.2,1c-0.9,0.7-1.8,1.4-2.8,2.1c-0.5,0.4-1,0.8-1.5,1.3
			c-0.3,0.3-0.5,0.5-0.7,0.8c-0.4,0.7-0.3,1.1,0.4,1.6c0.5,0.3,1.1,0.6,1.7,0.8c0.3,0.1,0.6,0.2,1,0c0-0.4-0.3-0.8-0.2-1.3
			c0.4,0.3,0.5,0.7,0.4,1c-0.1,0.3,0,0.5,0.1,0.7c0.7,1.7,1.6,3.4,2.5,5.1c0,0.1,0.1,0.1,0.2,0.2c0.1-0.5,0.2-1,0.2-1.5
			c0.1-2.5,0.2-5,0.3-7.5c0-0.6,0.1-1.2,0.2-1.7c0-0.2,0.1-0.5,0.4-0.6c0.3,0,0.5,0.1,0.7,0.3c0.2,0.3,0.3,0.6,0.4,0.9
			c0.3,1.3,0.3,2.6,0.2,3.9c-0.3,4.4-1,8.7-1.9,13c-0.8,4.1-1.8,8.2-2.9,12.3c-0.2,0.7-0.4,1.3-0.6,2c-0.1,0.5-0.4,0.8-0.8,1
			c-2.3,1.4-4.2,3.2-5.8,5.4c-0.2,0.3-0.3,0.6-0.4,0.9c-0.6,3.5-1.1,7.1-1.8,10.6c-0.1,0.7,0,1.4,0.2,2.1c0.3,1.2,0.8,2.4,1.3,3.6
			c0.3,0.8,0.7,1.6,1,2.4c0.1,0.3,0.3,0.7,0,0.9c-0.4,0.2-0.7,0-1-0.3c-0.6-0.5-1-1.2-1.4-1.9c-0.1-0.1-0.1-0.2-0.2-0.3
			c-0.3,0.1-0.4,0.4-0.5,0.6c-1,1.5-1.8,3.2-2.6,4.8c-1.3,2.9-2.6,5.8-3.4,9c-0.2,0.7-0.3,1.3-0.4,2c0,0.3,0,0.5,0.3,0.7
			c1.5,1,3.1,2.1,4.6,3.2c0.3,0.2,0.6,0.3,0.9,0.2c0.8-0.1,1.6-0.1,2.3,0.2c1.1,0.3,1.7,1.1,2,2.2c0.2,1.1,0,2.2-0.2,3.2
			c-0.5,2-1.3,3.8-2.3,5.6c-1.6,3.2-3.6,6.2-5.7,9c-0.6,0.8-1.3,1.5-2.1,2.2c-5.5,4.6-11.4,8.6-17.9,11.7c-2,0.9-4,1.7-6.1,2
			c-1.2,0.2-2.3,0.3-3.5-0.1c-0.4-0.1-0.8-0.2-1.1-0.5c0-0.1,0-0.2,0.1-0.2c1.6-1.4,3-3,4.5-4.5c1.8-2,3.6-4,5.4-6.1
			c0.1-0.2,0.5-0.4,0.3-0.6c-0.2-0.3-0.5-0.1-0.7,0c-0.5,0.1-0.9,0.3-1.4,0.5c-1.5,0.7-3,1.4-4.4,2.1c-1.8,0.9-3.7,1.7-5.7,2.3
			c-1,0.3-1.9,0.4-2.9,0.4c-1.6-0.1-2.8-1.3-2.9-3c0-0.4,0.2-0.6,0.5-0.8c0.2-0.1,0.4-0.1,0.5-0.2c-0.8-1.1-1.8-1.5-3.1-1.4
			c-0.9,0.1-1.9,0.4-2.7,0.7c-1.3,0.5-2.6,1.1-3.9,1.6c-0.7,0.3-1.5,0.6-2.3,0.8c-0.3,0.1-0.6,0.1-0.9-0.1c-0.3-0.2-0.5-0.3-0.8-0.5
			c-1.9-1.6-3.6-3.4-5.1-5.4c-0.6-0.8-0.7-1.5-0.2-2.3c0.2-0.3,0.3-0.6,0.5-0.9c0.7-1.2,1.8-1.6,3.2-1.5c1.3,0.1,2.5,0.4,3.7,0.7
			c1.8,0.4,3.6,0.6,5.5,0.6c1.1,0,2.1-0.2,3.2-0.7c2.2-1,4.3-2.3,6.1-4c0.8-0.7,1.4-1.7,1.8-2.7c0.1-0.3,0.2-0.6,0.2-0.9
			c0-0.5-0.2-0.8-0.6-0.9c-0.3-0.1-0.5-0.1-0.8-0.1c-0.5,0-1,0-1.6,0.1c-0.6,0-1.2,0.1-1.8,0c-0.6-0.1-1.1-0.4-1.3-1
			c-0.2-0.7-0.2-1.3,0.4-1.9c0.4-0.4,0.8-0.6,1.3-0.8c0.9-0.4,1.8-0.5,2.8-0.6c2.5-0.3,5-0.3,7.6-0.1c3.2,0.2,6.3,0.6,9.4,1.2
			c1.1,0.2,2.3,0.4,3.4,0.8c0.1,0,0.3,0.1,0.4,0.1c0.1-0.3,0-0.6-0.1-0.9c-0.3-2-0.3-4-0.4-5.9c0-0.9,0-1.8,0.1-2.7
			c0-0.3,0-0.5-0.4-0.5c-0.3,0-0.7-0.1-1-0.3c-0.3-0.2-0.6-0.1-0.8,0.1c-0.3,0.3-0.1,0.5,0,0.8c0.1,0.2,0.3,0.4,0.4,0.6
			c0.1,0.1,0.2,0.3,0.3,0.4c0.2,0.3,0.1,0.5-0.3,0.6c-0.4,0.1-0.9,0.1-1.3,0.1c-1.9-0.1-3.8-0.2-5.7-0.3c-0.6-0.1-1.2,0-1.7,0.1
			c-2.1,0.5-4.2,0.7-6.4,0.8c-0.7,0-1.2-0.4-1.3-1.2c-0.1-0.6,0-1.1,0.1-1.7c0.1-0.5,0.2-0.9,0.3-1.4c0-0.3,0.1-0.5,0.1-0.8
			c0-0.5-0.1-0.6-0.6-0.6c-0.5,0-0.9,0.1-1.4,0.1c-3.2,0.2-6.3-0.4-9.2-2c-1.5-0.8-2.9-2-3.8-3.4c-0.2-0.3-0.4-0.4-0.6-0.6
			c-2.4-1.6-4.6-3.4-6.6-5.5c-0.6-0.7-1.2-1.4-1.7-2.1c-0.2-0.4-0.5-0.8-0.6-1.2c-0.4-0.9-0.5-1.7,0-2.6c0,0-0.1,0-0.1-0.1
			c-0.2,0.1-0.4,0.3-0.6,0.4c-1.5,1.2-3,2.4-4.4,3.7c-0.9,0.8-1.8,1.4-2.9,1.8c-1.6,0.5-3.2,0.4-4.7-0.1c-1.4-0.5-2.7-1.2-4-2
			c-0.8-0.5-1.4-1.2-2-1.9c-1.4-1.7-2.6-3.5-3.8-5.4c-2.1-3.1-4-6.4-6.1-9.5c-0.6-0.9-1.3-1.9-2-2.7c-0.4-0.5-0.8-0.9-1.2-1.3
			c-0.3-0.3-0.7-0.5-1.2-0.1c0.2-2-0.2-3.7-1.4-5.4c-0.4,0.8-0.3,1.6-0.4,2.4c-1.9-1.6-4.3-1.9-6.6-2.5c-2.8-0.7-5.6-1.1-8.4-1.9
			c-1-0.3-2-0.6-3-1.1c-0.5-0.2-0.9-0.5-1.3-0.8c-0.7-0.7-0.8-1.4-0.3-2.2c0.9-1.2,1.9-2.1,3.6-2.1c1.5,0,2.9,0.1,4.4,0.2
			c0.8,0,1.5,0,2.3,0c0.4,0,0.8-0.1,1.2-0.3c0.7-0.3,1-0.8,0.9-1.6c-0.2-1.2-0.5-2.3-0.7-3.5c-0.6-3.2-1.2-6.4-1.3-9.6
			c0-1.2,0-2.3,0.3-3.4c0.2-0.7,0.4-1.5,0.9-2c0.8-0.8,1-0.7,1.3,0.3c0.3,0.9,0.2,1.9,0,2.8c-0.2,1.4-0.6,2.8-0.8,4.2
			c-0.1,1-0.2,1.9,0.1,2.9c0.1,0.5,0.3,0.9,0.7,1.3c0.2-0.2,0.3-0.5,0.4-0.8c0.5-1.5,0.9-2.9,1.5-4.3c0.3-0.8,0.7-1.7,1.2-2.4
			c0.2-0.4,0.5-0.8,0.9-1.1c0.7-0.6,1.3-0.6,1.9,0.1c0.4,0.4,0.6,0.9,0.8,1.5c0.2,0.4,0.3,0.8,0.6,1.2c0-0.2,0.1-0.5,0.1-0.7
			c0.2-2.2,0.4-4.5,0.6-6.7c0.1-0.8,0.2-1.6,0.3-2.4c0.1-0.6,0.1-1.3,0-1.9c-0.1-0.6-0.2-1.2-0.3-1.7c-0.1-0.5,0-1.1,0.1-1.6
			c0.2-0.6,0.5-0.8,1.2-0.7c0.3,0.1,0.6,0.2,1,0.3c0.7,0.2,1.1-0.1,1.3-0.7c0.2-0.6,0.1-1.3,0-1.9c-0.3-2.3-0.9-4.5-1.6-6.6
			c-0.9-2.9-1.9-5.7-3.2-8.4c-0.5-1.1-1.1-2-2-2.9c-0.9-1-1.4-2.2-1.7-3.5c-0.6-2.2-0.7-4.3-0.7-6.6c0.1-5,1-9.8,3-14.4
			c0.6-1.4,1.4-2.8,2.4-4c1.1-1.3,2.3-2.2,3.9-2.7c1.2-0.4,2.1-1.2,2.8-2.2c0.9-1.4,1.4-3,1.8-4.6c0.6-2.9,0.7-5.9,0.6-8.8
			c0-1.3-0.1-2.6-0.1-3.9c0-0.6,0-0.6,0.6-0.6c0.2,0,0.4,0,0.6,0c16.8,0,33.5,0,50.3,0c1.4,0,2.8,0,4.2,0c2,0,3.8,0.5,5.5,1.6
			c0.2,0.1,0.4,0.2,0.5,0.3c0.9,0.7,1.9,0.8,3,0.5c0.8-0.2,1.5-0.5,2.2-0.8c1.3-0.5,2.6-1.1,4-1.3c0.6-0.1,1.3-0.2,1.9-0.2
			c6.8,0,13.6,0,20.4,0c1.3,0,2.6,0.1,3.8,0.4c0.6,0.1,1.1,0.3,1.6,0.5c1.2,0.6,1.8,1.6,1.9,2.9c0,0.8-0.1,1.6-0.2,2.4
			c-0.1,0.6-0.2,1.1-0.2,1.7c0,1.8,1.2,2.4,2.6,2.6c0.3,0,0.5-0.2,0.7-0.4c0.4-0.5,0.6-1,0.8-1.6c0.7-1.8,1.2-3.6,1.6-5.5
			c0.2-0.8,0.4-1.6,0.5-2.4c0.1-0.3,0.2-0.5,0.6-0.5c2.8,0,5.5-0.5,8.3-0.7c0.1,0,0.2,0,0.3-0.1c0.1,0,0.1-0.1,0-0.2
			C105.5,0,52.7,0,0,0c0,35.1,0,70.2,0,105.3c0,2.1,0,4.2,0,6.4c0,47.7,0,95.4,0,143.1c44.4,0,88.8,0,133.2,0
			c-0.2-0.2-0.4-0.1-0.6-0.1c-0.9,0-1.8-0.1-2.7-0.1c-0.3,0-0.4-0.1-0.4-0.4c-0.1-3.1-0.6-6.1-0.9-9.2c-0.2-2.3-0.2-4.5,0.3-6.8
			c0.6-2.6,2-4.6,4.2-6.1c2.2-1.5,4.7-2.5,7.3-3c0.7-0.1,1.4-0.1,2.1-0.1c1.8,0.2,3,1.5,3.2,3.5c0.2,1.6,0,3.1-0.4,4.6
			c-0.9,3.6-2.5,6.8-4.8,9.8c-0.1,0.1-0.1,0.1-0.2,0.2c-0.2-0.1-0.2-0.4-0.3-0.6c-0.4-1-1-1.2-1.9-0.7c-1.2,0.8-2,1.9-2.4,3.3
			c-0.2,0.7,0,0.9,0.7,0.9c1.2,0.1,2.2-0.3,3.1-1c0.2-0.2,0.4-0.3,0.5-0.4c0.1,0,0.1,0.1,0.1,0.2c-0.2,1.3-0.4,2.6-0.8,3.8
			c-0.1,0.3-0.2,0.7-0.4,1c-0.3,0.5-0.6,0.9-1.2,1.1c-0.2,0.1-0.4,0.1-0.4,0.3c10.6,0,21.2,0,31.8,0c0.1-0.3,0.1-0.5,0.1-0.8
			C169.1,185.2,169.1,116.5,169.1,47.8z M25.7,75.7c0.5-0.5,1.1-0.6,1.8-0.4c1.3,0.4,2.3,1.2,3,2.4c0.5,0.7,0.7,1.5,0.7,2.4
			c0,0.3-0.1,0.6-0.2,0.9c-0.5-0.4-0.8-0.8-1.2-1.2c-0.6-0.5-1.2-1-1.9-1.3C27,78,26.1,78,25.2,78.6c0,0-0.1,0-0.3,0.1
			C24.9,77.6,24.9,76.6,25.7,75.7z M6.5,168.7c-0.4,1.3-1.1,2.4-2.1,3.4c-0.1,0.1-0.3,0.2-0.4,0.4c-0.5,0.4-0.7,0.3-0.8-0.3
			c-0.1-0.2-0.1-0.5-0.1-0.7c0.2-1.6,0.5-3.1,1.2-4.5c0.2-0.3,0.4-0.6,0.6-0.9c0.4-0.3,0.7-0.3,1,0c0.5,0.3,0.7,0.8,0.7,1.4
			C6.8,167.8,6.7,168.3,6.5,168.7z M25,160.2c-0.4,0.5-0.8,1-1.3,1.4c-1.8,1.7-3.8,3.1-5.9,4.3c-0.4,0.2-0.8,0.4-1.2,0.5
			c-0.1,0-0.2,0.1-0.3,0c-0.1-0.2,0-0.5,0-0.7c1.1-2.8,2.7-5.3,4.9-7.4c0.5-0.5,1-0.8,1.6-1.1c1-0.4,1.7-0.1,2.3,0.8
			C25.5,158.8,25.5,159.5,25,160.2z M62.3,147.7c0.1-0.5,0.3-0.9,0.5-1.3c0.7-1.3,1.6-2.5,2.6-3.6c0.2-0.2,0.3-0.2,0.5-0.1
			c0.9,0.5,1.8,1,2.6,1.8c1.1,1.2,1.1,2.6-0.2,3.7c-1,0.9-2.5,1.5-3.9,1.5c-0.3,0-0.5,0-0.8-0.1C62.6,149.4,62.1,148.7,62.3,147.7z
			 M41.1,160.4c0.5-1.6,1.4-3,2.9-3.9c0.2-0.1,0.4-0.3,0.6-0.3c-0.4,1.7,0.1,3.3,0.7,4.9c0.7,1.8,1.7,3.4,2.7,5.1
			c1.2,2.1,2.6,4.1,3.8,6.2c0.8,1.5,1.6,3,2.2,4.6c0.3,0.9,0.5,1.9,0.5,2.8c0,0.6-0.2,1.2-0.5,1.8c-0.2,0.3-0.4,0.5-0.7,0.4
			c-0.5,0-1.1-0.2-1.6-0.4c-0.9-0.4-1.8-0.9-2.5-1.5c-2-1.6-3.5-3.6-4.8-5.7c-1.7-2.8-3-5.8-3.5-9.1
			C40.7,163.7,40.7,162.1,41.1,160.4z M66.5,254.5c-0.2,0.1-0.4,0.1-0.6,0.1c-2.8,0-5.7,0-8.5,0c-0.6,0-0.6,0-0.8-0.6
			c-0.3-0.9-0.8-1.8-1.3-2.7c-1.3-2.3-2.9-4.6-4.4-6.8c-1.6-2.3-3.2-4.6-4.8-7c-0.4-0.6-0.8-1.2-1.2-1.8c-0.1-0.2-0.3-0.4-0.1-0.6
			c0.2-0.2,0.5,0,0.7,0c0.2,0.1,0.4,0.2,0.6,0.2c0.5,0.1,0.8,0,1.1-0.4c0.4-0.6,0.3-1.2,0.1-1.8c-0.2-0.6-0.6-1.1-0.9-1.5
			c-0.5-0.6-1-1.2-1.5-1.8c-0.4-0.5-0.7-1-1-1.5c-0.3-0.6-0.4-1.3-0.1-2c0-0.1,0.1-0.2,0-0.4c-1.1,0.1-2.2,0.1-3.3,0.2
			c-0.8,0.1-0.9,0-1.1-0.8c-0.2-0.7-0.1-1.4,0.2-2c0.3-0.5,0.6-0.9,1-1.3c1.5-1.4,3.3-2.2,5.3-2.6c0.5-0.1,0.5-0.1,0.8,0.4
			c0.3,0.5,0.5,0.9,0.8,1.3c0.4,0.6,0.8,1.2,1.2,1.7c5.3,7.3,9.7,15.3,14.1,23.2c1.4,2.5,2.6,5.1,3.5,7.7
			C66.4,254,66.5,254.2,66.5,254.5z M125.7,254.6c-18.2,0-36.4,0-54.6,0c-0.6,0-0.9-0.2-1.3-0.6c-0.7-0.9-1.3-1.9-1.9-2.9
			c-1.9-3.3-3.6-6.8-5.3-10.3c-0.7-1.4-1.3-2.8-1.9-4.2c-0.1-0.2-0.2-0.5-0.1-0.8c0.1-1.1,0-2.1-0.1-3.2c0-0.4-0.2-0.8-0.5-1.1
			c-0.5-0.6-1.1-1.1-1.7-1.6c-1.7-1.4-3.4-2.8-5.1-4.2c-0.6-0.5-1.3-1-1.9-1.7c0.3-0.3,0.6-0.3,0.9-0.4c0.6-0.4,0.8-0.8,0.4-1.5
			c-0.3-0.5-0.7-0.8-1.1-1.2c-0.6-0.6-1.3-1.1-1.9-1.7c-0.5-0.5-1-0.9-1.4-1.5c-0.8-1.1-0.6-2,0.5-2.8c0.1-0.1,0.2-0.1,0.3-0.2
			c0.1-0.1,0.3-0.1,0.2-0.3c0-0.1-0.2-0.2-0.3-0.2c-0.3-0.1-0.5,0-0.8,0.1c-0.4,0.2-0.7,0.5-1.1,0.7c-0.4,0.2-0.7,0.6-1.2,0.3
			c-0.5-0.3-0.8-0.8-0.9-1.3c-0.1-0.5,0.1-0.9,0.3-1.3c0.3-0.5,0.6-0.9,1.1-1.2c2-1.6,4.2-2.6,6.7-3.2c0.8-0.2,1.5,0,2.1,0.4
			c0.7,0.4,1.4,1,1.9,1.6c0.9,0.9,1.6,1.9,2.4,2.8c0.7,0.9,1.4,1.7,2.1,2.5c0.5,0.5,1,1,1.6,1.3c0.9,0.5,1.5,0.4,2.2-0.3
			c0.4-0.4,0.8-0.8,1.1-1.3c0.5-0.7,1.1-1.4,1.7-2c1.5-1.7,3.3-2.1,5.4-1.6c1,0.2,2,0.7,2.9,1.2c1.1,0.6,2.1,1.4,3,2.2
			c3,2.5,5.7,5.4,8,8.6c2.1,3,4.3,6,6.7,8.9c1.1,1.4,2.3,2.7,3.6,3.9c0.7,0.7,1.5,1.3,2.4,1.8c1,0.6,2,0.7,3.1,0.3
			c0.8-0.3,1.6-0.6,2.4-1c1.3-0.7,2.5-1.5,3.7-2.2c1.1-0.7,2.3-1.3,3.5-1.8c0.5-0.2,1.1-0.4,1.7-0.5c1.5-0.2,2.8,0.2,3.7,1.5
			c0.7,1,1,2.1,1.3,3.3c0.3,1.2,0.4,2.4-0.1,3.7c-0.5,1.6-0.9,3.3-1.1,4.9c-0.1,0.6-0.1,1.3,0,1.9c0.1,0.6,0.3,0.8,1,0.8
			c0.4,0,0.8,0.1,1.2,0.2c2.1,0.7,3.8,2,5.2,3.7c0.2,0.3,0.4,0.6,0.5,1C126.2,254.6,126,254.6,125.7,254.6z M160.1,139.5
			c-0.1,0-0.2,0-0.3,0c-0.5-0.3-1.1-0.1-1.6,0c-3.8,0.5-7.6,0.3-11.3-0.6c-0.6-0.1-1.1-0.4-1.7-0.6c-0.2-0.1-0.4-0.2-0.6-0.4
			c1.9-1.2,3.7-2.3,5.4-3.6c0.3-0.2,0.4-0.1,0.6,0.1c2.4,1.8,5,3.4,7.8,4.7c0.6,0.3,1,0.3,1.5,0c0.2-0.1,0.4-0.2,0.6-0.2
			C160.8,139.3,160.7,139.5,160.1,139.5z"/>
		<path class="st2" d="M169,0c0.1,0.2,0.1,0.4,0.1,0.6c0,1.3,0,2.6,0,3.9c0,0.2,0,0.5-0.1,0.7c-0.1-0.2-0.1-0.4-0.2-0.6
			c-0.6-2.4-2.1-3.8-4.5-4.3c-0.2,0-0.5,0-0.6-0.2c0,0,0,0,0,0c0,0,0,0,0-0.1C165.5,0,167.3,0,169,0z"/>
		<path class="st1" d="M126.5,254.5c-0.3,0.2-0.5,0.1-0.8,0.1c-18.2,0-36.4,0-54.6,0c-0.6,0-0.9-0.2-1.3-0.6
			c-0.7-0.9-1.3-1.9-1.9-2.9c-1.9-3.3-3.6-6.8-5.3-10.3c-0.7-1.4-1.3-2.8-1.9-4.2c-0.1-0.3-0.2-0.5-0.1-0.8c0.1-1.1,0-2.1-0.1-3.2
			c0-0.4-0.2-0.8-0.5-1.1c-0.5-0.6-1.1-1.1-1.7-1.6c-1.7-1.4-3.4-2.8-5.1-4.2c-0.6-0.5-1.3-1-1.9-1.7c0.3-0.3,0.6-0.3,0.9-0.4
			c0.6-0.4,0.8-0.8,0.4-1.5c-0.3-0.5-0.7-0.8-1.1-1.2c-0.6-0.6-1.3-1.1-1.9-1.7c-0.5-0.5-1-0.9-1.4-1.5c-0.8-1.1-0.6-2,0.5-2.8
			c0.1-0.1,0.2-0.1,0.3-0.2c0.1-0.1,0.3-0.1,0.2-0.3c0-0.1-0.2-0.2-0.3-0.2c-0.3-0.1-0.5,0-0.8,0.1c-0.4,0.2-0.7,0.5-1.1,0.7
			c-0.4,0.2-0.7,0.6-1.2,0.3c-0.5-0.3-0.8-0.8-0.9-1.3c-0.1-0.5,0.1-0.9,0.3-1.3c0.3-0.5,0.6-0.9,1.1-1.2c2-1.6,4.2-2.6,6.7-3.2
			c0.8-0.2,1.5,0,2.1,0.4c0.7,0.4,1.4,1,1.9,1.6c0.9,0.9,1.6,1.9,2.4,2.8c0.7,0.9,1.4,1.7,2.1,2.5c0.5,0.5,1,1,1.6,1.3
			c0.9,0.5,1.5,0.4,2.2-0.3c0.4-0.4,0.8-0.8,1.1-1.3c0.5-0.7,1.1-1.4,1.7-2c1.5-1.7,3.3-2.1,5.4-1.6c1,0.2,2,0.7,2.9,1.2
			c1.1,0.6,2.1,1.4,3,2.2c3,2.5,5.7,5.4,8,8.6c2.1,3,4.3,6,6.7,8.9c1.1,1.4,2.3,2.7,3.6,3.9c0.7,0.7,1.5,1.3,2.4,1.8
			c1,0.6,2,0.7,3.1,0.3c0.8-0.3,1.6-0.6,2.4-1c1.3-0.7,2.5-1.5,3.7-2.2c1.1-0.7,2.3-1.3,3.5-1.8c0.5-0.2,1.1-0.4,1.7-0.5
			c1.5-0.2,2.8,0.2,3.7,1.5c0.7,1,1,2.1,1.3,3.3c0.3,1.2,0.4,2.4-0.1,3.7c-0.5,1.6-0.9,3.3-1.1,4.9c-0.1,0.6-0.1,1.3,0,1.9
			c0.1,0.6,0.3,0.8,1,0.8c0.4,0,0.8,0.1,1.2,0.2c2.1,0.7,3.8,2,5.2,3.7C126.2,253.8,126.4,254.1,126.5,254.5z M71.3,226.2
			c0.2,0.1,0.4,0.2,0.5,0.3c0.6,0.2,1.2,0.3,1.8,0c0-0.2,0-0.2-0.1-0.2c-1.4-1.2-2.7-2.5-4.1-3.7c-1.2-1.1-2.3-2.2-3.5-3.1
			c-0.3-0.3-0.6-0.5-1-0.7c-0.3-0.1-0.7-0.3-1,0c-0.3,0.3-0.2,0.7-0.1,1c0.2,0.8,0.6,1.5,1.1,2.3c1.3,2.2,2.8,4.2,4.3,6.2
			c0.2,0.2,0.4,0.5,0.4,0.7c0.3,0.8,0.7,1.6,1.2,2.3c0.9,1.2,1.9,2.3,2.9,3.4c1.1,1.1,2.1,2.2,3.2,3.3c0.5,0.5,0.9,1.1,1.2,1.7
			c1.9,4,3.9,8,5.5,12.1c0.1,0.2,0.2,0.3,0.4,0.3c1-0.3,1.9-0.5,2.9-0.4c0.1-0.4,0-0.7-0.1-1c-0.2-0.6-0.5-1.1-0.8-1.7
			c-1.4-2.5-3.2-4.9-5-7.1c-0.1-0.1-0.2-0.3-0.4-0.3c-0.3,0-0.4-0.2-0.4-0.5c0-0.3,0-0.5,0-0.8c0.2-1.8,0.7-3.5,1.5-5.1
			c0.2-0.4,0.4-0.8,0.9-1c-0.2-0.3-0.3-0.5-0.5-0.7c-0.8-0.8-1.8-1.4-2.8-1.9c-1.3-0.6-2.6-1.2-3.8-1.8c-1-0.5-2.1-1-3-1.7
			c-0.6-0.4-1.1-0.9-1.3-1.6C71.2,226.3,71.3,226.3,71.3,226.2z"/>
		<path class="st1" d="M43.8,225.9c-1.1,0.1-2.2,0.1-3.3,0.2c-0.8,0.1-0.9,0-1.1-0.8c-0.2-0.7-0.1-1.4,0.2-2c0.3-0.5,0.6-0.9,1-1.3
			c1.5-1.4,3.3-2.2,5.3-2.6c0.5-0.1,0.5-0.1,0.8,0.4c0.3,0.5,0.5,0.9,0.8,1.3c0.4,0.6,0.8,1.2,1.2,1.7c5.3,7.3,9.7,15.3,14.1,23.2
			c1.4,2.5,2.6,5.1,3.5,7.7c0.1,0.2,0.2,0.4,0.2,0.7c-0.2,0.1-0.4,0.1-0.6,0.1c-2.8,0-5.7,0-8.5,0c-0.6,0-0.6,0-0.8-0.6
			c-0.3-0.9-0.8-1.8-1.3-2.7c-1.3-2.3-2.9-4.6-4.4-6.8c-1.6-2.3-3.2-4.6-4.8-7c-0.4-0.6-0.8-1.2-1.2-1.8c-0.1-0.2-0.3-0.4-0.1-0.6
			c0.2-0.2,0.5,0,0.7,0c0.2,0.1,0.4,0.2,0.6,0.2c0.5,0.1,0.8,0,1.1-0.4c0.4-0.6,0.3-1.2,0.1-1.8c-0.2-0.6-0.6-1.1-0.9-1.5
			c-0.5-0.6-1-1.2-1.5-1.8c-0.4-0.5-0.7-1-1-1.5c-0.3-0.6-0.4-1.3-0.1-2C43.8,226.1,43.9,226,43.8,225.9z"/>
		<path class="st1" d="M44.6,156.3c-0.4,1.7,0.1,3.3,0.7,4.9c0.7,1.8,1.7,3.4,2.7,5.1c1.2,2.1,2.6,4.1,3.8,6.2
			c0.8,1.5,1.6,3,2.2,4.6c0.3,0.9,0.5,1.9,0.5,2.8c0,0.6-0.2,1.2-0.5,1.8c-0.2,0.3-0.4,0.5-0.7,0.4c-0.5,0-1.1-0.2-1.6-0.4
			c-0.9-0.4-1.8-0.9-2.5-1.5c-2-1.6-3.5-3.6-4.8-5.7c-1.7-2.8-3-5.8-3.5-9.1c-0.3-1.7-0.3-3.3,0.2-5c0.5-1.6,1.4-3,2.9-3.9
			C44.2,156.4,44.3,156.3,44.6,156.3z"/>
		<path class="st1" d="M144.5,137.8c1.9-1.2,3.7-2.3,5.4-3.6c0.3-0.2,0.4-0.1,0.6,0.1c2.4,1.8,5,3.4,7.8,4.7c0.6,0.3,1,0.3,1.5,0
			c0.2-0.1,0.4-0.2,0.6-0.2c0.3,0.6,0.2,0.8-0.4,0.7c-0.1,0-0.2,0-0.3,0c-0.5-0.3-1.1-0.1-1.6,0c-3.8,0.5-7.6,0.3-11.3-0.6
			c-0.6-0.1-1.1-0.4-1.7-0.6C144.9,138.1,144.7,138,144.5,137.8z"/>
		<path class="st1" d="M16.3,166.5c-0.1-0.2,0-0.5,0-0.7c1.1-2.8,2.7-5.3,4.9-7.4c0.5-0.5,1-0.8,1.6-1.1c1-0.4,1.7-0.1,2.3,0.8
			c0.5,0.8,0.5,1.5-0.1,2.2c-0.4,0.5-0.8,1-1.3,1.4c-1.8,1.7-3.8,3.1-5.9,4.3c-0.4,0.2-0.8,0.4-1.2,0.5
			C16.5,166.5,16.4,166.5,16.3,166.5z"/>
		<path class="st1" d="M64.4,149.7c-0.3,0-0.5,0-0.8-0.1c-1-0.2-1.5-1-1.3-2c0.1-0.5,0.3-0.9,0.5-1.3c0.7-1.3,1.6-2.5,2.6-3.6
			c0.2-0.2,0.3-0.2,0.5-0.1c0.9,0.5,1.8,1,2.6,1.8c1.1,1.2,1.1,2.6-0.2,3.7C67.3,149.1,65.7,149.7,64.4,149.7z"/>
		<path class="st1" d="M31,80.9c-0.5-0.4-0.8-0.8-1.2-1.2c-0.6-0.5-1.2-1-1.9-1.3C27,78,26.1,78,25.2,78.6c0,0-0.1,0-0.3,0.1
			c0-1.1,0-2.2,0.8-3.1c0.5-0.5,1.1-0.6,1.8-0.4c1.3,0.4,2.3,1.2,3,2.4c0.5,0.7,0.7,1.5,0.7,2.4C31.2,80.3,31.1,80.6,31,80.9z"/>
		<path class="st1" d="M3.1,171.4c0.2-1.6,0.5-3.1,1.2-4.5c0.2-0.3,0.4-0.6,0.6-0.9c0.4-0.3,0.7-0.3,1,0c0.5,0.3,0.7,0.8,0.7,1.4
			c0,0.5-0.1,0.9-0.2,1.3c-0.4,1.3-1.1,2.4-2.1,3.4c-0.1,0.1-0.3,0.2-0.4,0.4c-0.5,0.4-0.7,0.3-0.8-0.3
			C3.1,171.9,3.1,171.7,3.1,171.4z"/>
		<path class="st1" d="M133.8,65.4c0.1,0,0.1,0,0.2,0c-0.2,1.1-0.6,2.3-1.1,3.3C133.2,67.7,133.5,66.6,133.8,65.4z"/>
		<path class="st2" d="M41.7,89.6c2.5-1.2,5.1-1.2,7.7-0.9c3.1,0.4,6,1.2,9,2c2,0.5,4.1,1.1,6.2,1.3c0.7,0.1,1.4,0.1,2.1,0.1
			c0.4,0,0.8,0.1,1.2,0.2c4.4,2,8.7,4.1,12.7,6.7c0.5,0.3,1,0.7,1.4,1.1c0.4,0.4,0.4,0.5,0,0.9c-0.6,0.7-1,1.4-1.4,2.2
			c-1.1,2.1-2.1,4.2-3.2,6.2c-0.9,1.7-1.9,3.4-3.1,5c-0.5,0.7-1.1,1.3-1.8,1.9c-1,0.7-1.9,1-3.1,0.5c-1.5-0.6-3.1-0.5-4.7-0.4
			c-2.2,0.2-4.5,0.6-6.7,0.8c-1.7,0.2-3.5,0.3-5.2,0.1c-0.4-0.1-0.8,0-0.9-0.7c0-0.3-0.3-0.7-0.5-1c-1.3-2-2.7-3.8-4.3-5.5
			c-0.6-0.6-1.4-1-2.2-1.3c-0.5-0.2-1-0.3-1.5-0.4c-1.8-0.4-3.1-1.4-4.2-2.8c-1.2-1.5-2.1-3.3-2.7-5.1c-0.8-2.6-1.2-5.3-1-8.1
			c0.1-0.9,0.2-1.7,0.6-2.6c0.2-0.5,0.4-1,0.8-1.4c0.6-0.7,1.4-1,2.3-0.7C40.2,88,41.3,88.8,41.7,89.6z"/>
		<path class="st2" d="M87.5,103.1c0-1.2,0.4-2.3,1-3.2c0.8-1.2,1.8-2.2,2.9-3c2.3-1.6,4.9-2.5,7.7-2.8c0.7-0.1,1.3-0.1,2-0.1
			c3.5,0.1,7-0.4,10.4-1.1c2.8-0.6,5.6-1.4,8.4-1.9c0.4-0.1,0.5-0.2,0.5-0.6c0-0.8,0.4-1.1,1.2-1c0.4,0,0.8,0.2,1.2,0.4
			c0.8,0.3,1.5,0.8,2.2,1.2c1,0.6,2,1.3,2.9,1.9c1.3,0.9,1.5,2,0.9,3.4c-0.2,0.4-0.4,0.7-0.7,1.1c-0.4,0.5-0.8,1-1.3,1.4
			c-1.4,1.4-3,2.5-4.7,3.7c-1.1,0.8-2.3,1.5-3.4,2.2c-0.3,0.2-0.5,0.4-0.7,0.6c-1.3,1.6-2.9,2.8-4.7,3.6c-1.3,0.6-2.6,1.1-4,1.7
			c-1.7,0.6-3.3,1.4-4.8,2.5c-1.1,0.9-2.3,0.9-3.5,0.4c-2-0.8-4.1-1.5-6.1-2.4c-1.4-0.6-2.7-1.3-4-2.2c-0.9-0.6-1.7-1.4-2.3-2.3
			C87.9,105.6,87.5,104.4,87.5,103.1z"/>
		<path class="st2" d="M169,9c0.1,0.2,0.1,0.5,0.1,0.7c0,2.4,0,4.8,0,7.2c0,0.2,0,0.5-0.1,0.7c-1.9,0.2-3.7,0.3-5.6,0.5
			c-2.3,0.2-4.6,0.4-6.8,0.8c-2.5,0.4-5.1,0.9-7.5,1.6c-1,0.3-1.6,0.9-2,1.7c-0.3,0.5-0.5,1.1-0.7,1.7c-0.1,0.4-0.3,0.8-0.5,1.1
			c-0.4,0.8-1,1.1-1.9,0.8c-0.6-0.2-1.1-0.5-1.6-0.8c-1.8-1.1-3.7-2.1-5.7-2.9c-0.9-0.4-1.8-0.7-2.7-0.8c-0.2,0-0.4-0.1-0.5-0.1
			c-0.8,0-1.5,0-2,0.9c-0.5-1-1.2-1.7-1.8-2.5c-0.3-0.4-0.7-0.8-0.9-1.3c-0.4-0.8-0.2-1.3,0.6-1.7c0.7-0.3,1.5-0.3,2.3-0.4
			c1.3-0.1,2.7,0,4,0.2c2.5,0.3,4.9,0.1,7.4-0.4c1.9-0.4,3.7-0.8,5.6-1c2-0.3,4.1-0.3,6.1-0.3c2.1,0,4.1,0,6.2-0.2
			c1.4-0.1,2.8-0.4,4.1-0.9c2-0.8,3.4-2.2,3.9-4.4C169,9.1,169,9.1,169,9z"/>
		<path class="st2" d="M108.4,148.2c-0.6-0.6-1.3-1.3-1.9-1.9c-1.6-1.6-3-3.3-4.5-4.9c-0.1-0.1-0.2-0.3-0.4-0.4
			c-0.1-0.1-0.2-0.1-0.3,0c-0.1,0.2-0.2,0.3-0.4,0.5c-0.6,0.7-1.2,0.7-1.7-0.1c-0.2-0.3-0.4-0.6-0.5-0.9c-0.8-2-1.1-4.2-1-6.4
			c0-1.1,0.4-1.3,1.4-1.3c0.6,0,1.1,0.2,1.6,0.5c0.6,0.4,1.1,0.8,1.5,1.3c0.8,0.8,1.4,1.8,1.9,2.8c1.8,3.2,3.2,6.7,4.3,10.2
			C108.5,147.8,108.5,148,108.4,148.2L108.4,148.2z"/>
		<path class="st2" d="M131.4,95.4c0-0.7,0.2-1.3,0.5-1.9c0.7-1.3,1.7-2.3,3.1-2.9c0.4-0.2,0.7-0.3,1.1-0.2c0.6,0,0.9,0.4,0.8,1
			c-0.1,0.3-0.2,0.6-0.3,0.8c-0.8,2.2-1.6,4.3-2.5,6.4c-0.2,0.6-0.7,0.7-1.2,0.2C132.1,97.9,131.5,96.7,131.4,95.4z"/>
		<path class="st2" d="M31.5,99.5c-1-0.9-1.8-1.9-2.3-3c-0.7-1.6-0.5-3,0.5-4.4c0.5-0.7,1.1-1.2,1.8-1.8c0.5-0.4,1-0.8,1.5-1.2
			C32.9,92.4,32.1,98.6,31.5,99.5z"/>
		<path class="st2" d="M68.5,133c1.4-1.1,2.8-2.1,4.4-2.7c0.3-0.1,0.6-0.2,0.9-0.3c0.6-0.1,1,0.2,1,0.8c0,1-0.3,1.8-0.7,2.7
			c-0.1,0.3-0.4,0.4-0.7,0.2c-0.2-0.1-0.4-0.2-0.6-0.4c-0.3-0.2-0.6-0.5-0.8-0.8c-0.3-0.3-0.6-0.4-1-0.3
			C70.1,132.5,69.3,132.7,68.5,133z"/>
		<path class="st2" d="M108.4,148.2C108.4,148.1,108.4,148.1,108.4,148.2C108.4,148.1,108.4,148.1,108.4,148.2
			C108.4,148.2,108.4,148.2,108.4,148.2z"/>
		<path class="st2" d="M67.3,133.9c0-0.1,0.1-0.2,0.1-0.2l0,0C67.4,133.8,67.5,133.8,67.3,133.9C67.4,133.9,67.4,133.9,67.3,133.9z"
			/>
		<path class="st2" d="M67.4,133.7C67.4,133.7,67.4,133.7,67.4,133.7C67.5,133.7,67.5,133.7,67.4,133.7
			C67.4,133.7,67.4,133.7,67.4,133.7z"/>
		<path class="st2" d="M71.2,226.3c0.3,0.7,0.8,1.2,1.3,1.6c0.9,0.7,2,1.2,3,1.7c1.3,0.6,2.6,1.2,3.8,1.8c1,0.5,2,1.1,2.8,1.9
			c0.2,0.2,0.4,0.4,0.5,0.7c-0.4,0.2-0.7,0.6-0.9,1c-0.8,1.6-1.3,3.3-1.5,5.1c0,0.3,0,0.5,0,0.8c0,0.3,0.1,0.5,0.4,0.5
			c0.2,0,0.3,0.2,0.4,0.3c1.8,2.3,3.5,4.6,5,7.1c0.3,0.5,0.6,1.1,0.8,1.7c0.1,0.3,0.2,0.6,0.1,1c-1-0.1-2,0.1-2.9,0.4
			c-0.3,0.1-0.3,0-0.4-0.3c-1.6-4.1-3.6-8.1-5.5-12.1c-0.3-0.6-0.7-1.2-1.2-1.7c-1.1-1.1-2.2-2.2-3.2-3.3c-1-1.1-2.1-2.2-2.9-3.4
			c-0.5-0.7-1-1.5-1.2-2.3c-0.1-0.3-0.3-0.5-0.4-0.7c-1.5-2-3-4-4.3-6.2c-0.4-0.7-0.8-1.4-1.1-2.3c-0.1-0.4-0.2-0.7,0.1-1
			c0.3-0.3,0.7-0.1,1,0c0.4,0.1,0.7,0.4,1,0.7c1.2,1,2.4,2.1,3.5,3.1c1.4,1.3,2.7,2.6,4.1,3.7c0.1,0,0.1,0.1,0.1,0.2
			c-0.6,0.3-1.2,0.3-1.8,0c-0.2-0.1-0.4-0.2-0.5-0.3c0-0.1-0.1-0.1-0.1-0.1C71.1,226.2,71.2,226.3,71.2,226.3z"/>
		<path class="st1" d="M71.2,226.3c0-0.1,0-0.1,0-0.1c0.1-0.1,0.1,0,0.1,0.1C71.3,226.3,71.2,226.3,71.2,226.3z"/>
	</g>
	<g>
		<path class="st2" d="M236.8,0C289.5,0,342.3,0,395,0c0.1,0.1,0.1,0.1,0,0.2c-0.1,0-0.2,0.1-0.3,0.1c-2.8,0.3-5.5,0.7-8.3,0.7
			c-0.4,0-0.5,0.2-0.6,0.5c-0.2,0.8-0.3,1.6-0.5,2.4c-0.4,1.9-0.9,3.7-1.6,5.5c-0.2,0.5-0.5,1.1-0.8,1.6c-0.2,0.2-0.4,0.4-0.7,0.4
			c-1.4-0.1-2.6-0.7-2.6-2.6c0-0.6,0.1-1.1,0.2-1.7c0.1-0.8,0.2-1.6,0.2-2.4c-0.1-1.3-0.7-2.3-1.9-2.9c-0.5-0.3-1-0.4-1.6-0.5
			c-1.3-0.3-2.5-0.4-3.8-0.4c-6.8,0-13.6,0-20.4,0c-0.7,0-1.3,0.1-1.9,0.2c-1.4,0.3-2.7,0.8-4,1.3c-0.7,0.3-1.5,0.6-2.2,0.8
			c-1.1,0.3-2.1,0.3-3-0.5c-0.2-0.1-0.3-0.2-0.5-0.3c-1.7-1.1-3.5-1.6-5.5-1.6c-1.4,0-2.8,0-4.2,0c-16.8,0-33.5,0-50.3,0
			c-0.2,0-0.4,0-0.6,0c-0.6,0-0.6,0-0.6,0.6c0,1.3,0.1,2.6,0.1,3.9c0,3-0.1,5.9-0.6,8.8c-0.3,1.6-0.8,3.2-1.8,4.6
			c-0.7,1-1.6,1.8-2.8,2.2c-1.6,0.5-2.9,1.5-3.9,2.7c-1,1.2-1.8,2.5-2.4,4c-2,4.6-2.9,9.4-3,14.4c0,2.2,0.1,4.4,0.7,6.6
			c0.3,1.3,0.8,2.5,1.7,3.5c0.8,0.9,1.4,1.8,2,2.9c1.3,2.7,2.3,5.5,3.2,8.4c0.7,2.2,1.3,4.4,1.6,6.6c0.1,0.6,0.1,1.3,0,1.9
			c-0.2,0.7-0.6,0.9-1.3,0.7c-0.3-0.1-0.6-0.2-1-0.3c-0.7-0.1-1,0.1-1.2,0.7c-0.1,0.5-0.2,1.1-0.1,1.6c0.1,0.6,0.2,1.2,0.3,1.7
			c0.1,0.6,0.2,1.3,0,1.9c-0.2,0.8-0.3,1.6-0.3,2.4c-0.2,2.2-0.4,4.5-0.6,6.7c0,0.2-0.1,0.5-0.1,0.7c-0.3-0.4-0.4-0.8-0.6-1.2
			c-0.2-0.5-0.5-1-0.8-1.5c-0.6-0.7-1.2-0.7-1.9-0.1c-0.4,0.3-0.6,0.7-0.9,1.1c-0.5,0.8-0.8,1.6-1.2,2.4c-0.6,1.4-1,2.9-1.5,4.3
			c-0.1,0.3-0.1,0.6-0.4,0.8c-0.4-0.4-0.6-0.9-0.7-1.3c-0.2-1-0.2-1.9-0.1-2.9c0.2-1.4,0.6-2.8,0.8-4.2c0.1-0.9,0.3-1.9,0-2.8
			c-0.3-0.9-0.5-1.1-1.3-0.3c-0.5,0.6-0.7,1.3-0.9,2c-0.2,1.1-0.3,2.3-0.3,3.4c0.1,3.3,0.7,6.4,1.3,9.6c0.2,1.2,0.5,2.3,0.7,3.5
			c0.1,0.8-0.1,1.3-0.9,1.6c-0.4,0.2-0.8,0.2-1.2,0.3c-0.8,0.1-1.5,0.1-2.3,0c-1.5,0-2.9-0.2-4.4-0.2c-1.6,0-2.7,0.9-3.6,2.1
			c-0.5,0.8-0.4,1.5,0.3,2.2c0.4,0.4,0.8,0.6,1.3,0.8c1,0.5,2,0.8,3,1.1c2.8,0.8,5.6,1.2,8.4,1.9c2.3,0.5,4.6,0.9,6.6,2.5
			c0.1-0.8,0-1.6,0.4-2.4c1.1,1.7,1.5,3.4,1.4,5.4c0.5-0.4,0.9-0.1,1.2,0.1c0.5,0.4,0.8,0.8,1.2,1.3c0.7,0.9,1.4,1.8,2,2.7
			c2.1,3.1,4.1,6.3,6.1,9.5c1.2,1.8,2.4,3.7,3.8,5.4c0.6,0.7,1.2,1.4,2,1.9c1.2,0.8,2.6,1.5,4,2c1.6,0.5,3.1,0.6,4.7,0.1
			c1.1-0.4,2.1-1,2.9-1.8c1.4-1.3,2.9-2.5,4.4-3.7c0.2-0.2,0.4-0.3,0.6-0.4c0,0,0.1,0,0.1,0.1c-0.5,0.9-0.4,1.7,0,2.6
			c0.2,0.4,0.4,0.8,0.6,1.2c0.5,0.8,1.1,1.5,1.7,2.1c2,2.1,4.2,3.9,6.6,5.5c0.2,0.2,0.5,0.3,0.6,0.6c1,1.5,2.3,2.6,3.8,3.4
			c2.9,1.6,6,2.1,9.2,2c0.5,0,0.9-0.1,1.4-0.1c0.5-0.1,0.7,0.1,0.6,0.6c0,0.3,0,0.5-0.1,0.8c-0.1,0.5-0.2,0.9-0.3,1.4
			c-0.1,0.6-0.2,1.1-0.1,1.7c0.1,0.7,0.6,1.2,1.3,1.2c2.1,0,4.3-0.2,6.4-0.8c0.6-0.1,1.1-0.2,1.7-0.1c1.9,0.2,3.8,0.2,5.7,0.3
			c0.4,0,0.9,0,1.3-0.1c0.4-0.1,0.5-0.2,0.3-0.6c-0.1-0.2-0.2-0.3-0.3-0.4c-0.1-0.2-0.3-0.4-0.4-0.6c-0.2-0.3-0.3-0.5,0-0.8
			c0.2-0.2,0.5-0.3,0.8-0.1c0.3,0.2,0.6,0.3,1,0.3c0.4,0,0.4,0.2,0.4,0.5c-0.1,0.9-0.1,1.8-0.1,2.7c0,2,0.1,4,0.4,5.9
			c0,0.3,0.2,0.6,0.1,0.9c-0.1,0-0.3,0-0.4-0.1c-1.1-0.3-2.2-0.5-3.4-0.8c-3.1-0.6-6.3-1-9.4-1.2c-2.5-0.2-5-0.2-7.6,0.1
			c-0.9,0.1-1.9,0.3-2.8,0.6c-0.5,0.2-0.9,0.4-1.3,0.8c-0.5,0.6-0.6,1.2-0.4,1.9c0.2,0.6,0.7,0.9,1.3,1c0.6,0.1,1.2,0.1,1.8,0
			c0.5,0,1,0,1.6-0.1c0.3,0,0.5,0,0.8,0.1c0.4,0.2,0.6,0.4,0.6,0.9c0,0.3-0.1,0.6-0.2,0.9c-0.4,1-0.9,1.9-1.8,2.7
			c-1.8,1.7-3.8,3-6.1,4c-1,0.4-2.1,0.7-3.2,0.7c-1.9,0-3.7-0.2-5.5-0.6c-1.2-0.2-2.5-0.6-3.7-0.7c-1.4-0.1-2.4,0.3-3.2,1.5
			c-0.2,0.3-0.3,0.6-0.5,0.9c-0.5,0.8-0.4,1.5,0.2,2.3c1.5,2,3.2,3.8,5.1,5.4c0.2,0.2,0.5,0.4,0.8,0.5c0.3,0.2,0.6,0.2,0.9,0.1
			c0.8-0.2,1.5-0.5,2.3-0.8c1.3-0.5,2.6-1.1,3.9-1.6c0.9-0.4,1.8-0.6,2.7-0.7c1.3-0.1,2.3,0.3,3.1,1.4c-0.2,0.2-0.4,0.1-0.5,0.2
			c-0.3,0.2-0.5,0.4-0.5,0.8c0.1,1.6,1.2,2.9,2.9,3c1,0.1,2-0.1,2.9-0.4c2-0.5,3.8-1.4,5.7-2.3c1.5-0.7,3-1.4,4.4-2.1
			c0.4-0.2,0.9-0.4,1.4-0.5c0.3-0.1,0.6-0.2,0.7,0c0.1,0.2-0.2,0.4-0.3,0.6c-1.7,2.1-3.5,4.1-5.4,6.1c-1.4,1.6-2.9,3.1-4.5,4.5
			c0,0-0.1,0.1-0.1,0.2c0.4,0.2,0.7,0.4,1.1,0.5c1.2,0.3,2.3,0.3,3.5,0.1c2.1-0.4,4.2-1.1,6.1-2c6.5-3.1,12.4-7.1,17.9-11.7
			c0.8-0.7,1.5-1.4,2.1-2.2c2.2-2.8,4.1-5.8,5.7-9c0.9-1.8,1.8-3.6,2.3-5.6c0.3-1.1,0.5-2.1,0.2-3.2c-0.2-1.1-0.9-1.9-2-2.2
			c-0.8-0.2-1.6-0.3-2.3-0.2c-0.4,0.1-0.6,0-0.9-0.2c-1.5-1.1-3.1-2.1-4.6-3.2c-0.3-0.2-0.3-0.4-0.3-0.7c0.1-0.7,0.2-1.3,0.4-2
			c0.8-3.1,2-6.1,3.4-9c0.8-1.7,1.6-3.3,2.6-4.8c0.1-0.2,0.2-0.5,0.5-0.6c0.1,0.1,0.1,0.2,0.2,0.3c0.4,0.7,0.8,1.3,1.4,1.9
			c0.3,0.2,0.6,0.5,1,0.3c0.4-0.3,0.2-0.6,0-0.9c-0.3-0.8-0.7-1.6-1-2.4c-0.5-1.2-1-2.4-1.3-3.6c-0.2-0.7-0.3-1.4-0.2-2.1
			c0.7-3.5,1.2-7.1,1.8-10.6c0.1-0.3,0.2-0.6,0.4-0.9c1.6-2.2,3.5-4,5.8-5.4c0.4-0.3,0.7-0.6,0.8-1c0.2-0.7,0.4-1.3,0.6-2
			c1.2-4,2.1-8.2,2.9-12.3c0.8-4.3,1.6-8.6,1.9-13c0.1-1.3,0.1-2.6-0.2-3.9c-0.1-0.3-0.2-0.7-0.4-0.9c-0.2-0.2-0.4-0.4-0.7-0.3
			c-0.3,0.1-0.3,0.4-0.4,0.6c-0.1,0.6-0.2,1.2-0.2,1.7c-0.1,2.5-0.2,5-0.3,7.5c0,0.5,0,1-0.2,1.5c-0.1-0.1-0.2-0.1-0.2-0.2
			c-0.9-1.7-1.8-3.3-2.5-5.1c-0.1-0.2-0.1-0.5-0.1-0.7c0.1-0.4,0-0.7-0.4-1c-0.2,0.5,0.2,0.9,0.2,1.3c-0.3,0.2-0.7,0.1-1,0
			c-0.6-0.2-1.1-0.5-1.7-0.8c-0.7-0.4-0.8-0.9-0.4-1.6c0.2-0.3,0.4-0.6,0.7-0.8c0.5-0.5,0.9-0.9,1.5-1.3c0.9-0.7,1.8-1.4,2.8-2.1
			c0.4-0.3,0.8-0.6,1.2-1c0.2-0.2,0.3-0.4,0.3-0.6c0-1.3-1-2.1-2.2-1.9c-0.8,0.1-1.5,0.5-2.2,0.8c-0.5,0.2-1,0.5-1.6,0.7
			c-0.6,0.2-0.8,0-1-0.6c-0.1-0.6-0.1-1.3-0.1-2c0-0.9,0-1.7-0.1-2.6c-0.1-0.4-0.1-0.9-0.4-1.3c-0.5,0.6-0.6,1.2-0.7,1.8
			c-0.3,2-0.4,3.9-0.6,5.9c-0.1,1.6-0.2,3.2-0.3,4.9c0,0.2,0,0.5-0.2,0.7c-0.3-0.3-0.3-0.7-0.3-1.1c-0.2-1.5-0.2-3-0.2-4.5
			c0-3.3,0.1-6.5,0.5-9.8c0.2-1.5,0.4-3.1,0.9-4.6c0.1-0.4,0.3-0.7,0.5-1c0.2-0.2,0.4-0.4,0.7-0.3c0.3,0.1,0.4,0.4,0.4,0.7
			c0,0.5,0,0.9-0.1,1.3c-0.3,1.1-0.6,2.2-0.9,3.4c0.5-1.1,0.8-2.2,1.1-3.3c0.1-0.2,0.1-0.3,0.2-0.5c1.1-4.5,2.2-8.9,3.4-13.4
			c0.2-0.6,0.5-1.1,1-1.5c0.5-0.3,1-0.6,1.5-0.8c1-0.4,2.1-0.7,3.2-0.9c3.6-0.8,7.4-1,11.1-1.2c3.6-0.2,7.2-0.2,10.9-0.2
			c1.3,0,2.6,0,3.9,0c0.2,0.3,0.1,0.6,0.1,0.9c0,68.7,0,137.5,0,206.2c0,0.3,0,0.5-0.1,0.8c-10.6,0-21.2,0-31.8,0
			c0.1-0.2,0.3-0.2,0.4-0.3c0.5-0.2,0.9-0.6,1.2-1.1c0.2-0.3,0.3-0.7,0.4-1c0.4-1.3,0.6-2.5,0.8-3.8c0-0.1,0-0.1-0.1-0.2
			c-0.2,0.1-0.3,0.3-0.5,0.4c-0.9,0.7-1.9,1.1-3.1,1c-0.7,0-0.9-0.3-0.7-0.9c0.4-1.4,1.2-2.5,2.4-3.3c0.9-0.5,1.5-0.3,1.9,0.7
			c0.1,0.2,0,0.5,0.3,0.6c0.1-0.1,0.1-0.1,0.2-0.2c2.2-3,3.8-6.2,4.8-9.8c0.4-1.5,0.6-3,0.4-4.6c-0.3-2-1.4-3.3-3.2-3.5
			c-0.7-0.1-1.4-0.1-2.1,0.1c-2.6,0.5-5.1,1.6-7.3,3c-2.2,1.5-3.6,3.5-4.2,6.1c-0.6,2.2-0.5,4.5-0.3,6.8c0.2,3.1,0.8,6.1,0.9,9.2
			c0,0.3,0.1,0.4,0.4,0.4c0.9,0,1.8,0.1,2.7,0.1c0.2,0,0.5-0.1,0.6,0.1c-44.4,0-88.8,0-133.2,0C236.8,207.1,236.8,35.1,236.8,0z
			 M363.3,254.5c-0.1-0.4-0.3-0.7-0.5-1c-1.3-1.8-3-3-5.2-3.7c-0.4-0.1-0.8-0.2-1.2-0.2c-0.7-0.1-0.8-0.2-1-0.8
			c-0.1-0.6-0.1-1.3,0-1.9c0.2-1.7,0.5-3.3,1.1-4.9c0.4-1.3,0.4-2.5,0.1-3.7c-0.3-1.2-0.6-2.3-1.3-3.3c-0.9-1.3-2.1-1.7-3.7-1.5
			c-0.6,0.1-1.1,0.3-1.7,0.5c-1.2,0.5-2.4,1.1-3.5,1.8c-1.2,0.7-2.5,1.5-3.7,2.2c-0.8,0.4-1.6,0.8-2.4,1c-1.1,0.3-2.1,0.2-3.1-0.3
			c-0.9-0.5-1.7-1.1-2.4-1.8c-1.3-1.2-2.4-2.5-3.6-3.9c-2.3-2.9-4.5-5.8-6.7-8.9c-2.3-3.2-5-6.1-8-8.6c-1-0.8-2-1.6-3-2.2
			c-0.9-0.5-1.9-1-2.9-1.2c-2.1-0.5-4-0.1-5.4,1.6c-0.6,0.7-1.1,1.4-1.7,2c-0.3,0.4-0.7,0.9-1.1,1.3c-0.7,0.6-1.4,0.7-2.2,0.3
			c-0.6-0.3-1.1-0.8-1.6-1.3c-0.8-0.8-1.4-1.7-2.1-2.5c-0.8-1-1.5-1.9-2.4-2.8c-0.6-0.6-1.2-1.1-1.9-1.6c-0.7-0.4-1.4-0.5-2.1-0.4
			c-2.5,0.6-4.7,1.6-6.7,3.2c-0.4,0.3-0.8,0.7-1.1,1.2c-0.2,0.4-0.4,0.8-0.3,1.3c0.1,0.6,0.4,1.1,0.9,1.3c0.4,0.2,0.8-0.1,1.2-0.3
			c0.4-0.2,0.7-0.5,1.1-0.7c0.2-0.1,0.5-0.2,0.8-0.1c0.1,0,0.3,0.1,0.3,0.2c0.1,0.2-0.1,0.2-0.2,0.3c-0.1,0.1-0.2,0.1-0.3,0.2
			c-1.1,0.8-1.2,1.7-0.5,2.8c0.4,0.6,0.9,1.1,1.4,1.5c0.6,0.6,1.3,1.1,1.9,1.7c0.4,0.4,0.8,0.7,1.1,1.2c0.4,0.6,0.3,1.1-0.4,1.5
			c-0.3,0.2-0.6,0.2-0.9,0.4c0.6,0.6,1.2,1.1,1.9,1.7c1.7,1.4,3.5,2.7,5.1,4.2c0.6,0.5,1.1,1,1.7,1.6c0.3,0.3,0.5,0.7,0.5,1.1
			c0.1,1.1,0.2,2.1,0.1,3.2c0,0.3,0,0.5,0.1,0.8c0.7,1.4,1.3,2.8,1.9,4.2c1.6,3.5,3.3,7,5.3,10.3c0.6,1,1.2,2,1.9,2.9
			c0.3,0.4,0.7,0.6,1.3,0.6c18.2,0,36.4,0,54.6,0C362.8,254.6,363,254.6,363.3,254.5z M280.6,225.9c0.1,0.2,0,0.3,0,0.4
			c-0.3,0.7-0.2,1.3,0.1,2c0.2,0.6,0.6,1.1,1,1.5c0.5,0.6,1,1.2,1.5,1.8c0.4,0.5,0.7,1,0.9,1.5c0.2,0.6,0.2,1.2-0.1,1.8
			c-0.3,0.5-0.6,0.6-1.1,0.4c-0.2-0.1-0.4-0.2-0.6-0.2c-0.2-0.1-0.5-0.3-0.7,0c-0.2,0.2,0,0.4,0.1,0.6c0.4,0.6,0.8,1.2,1.2,1.8
			c1.6,2.3,3.2,4.6,4.8,7c1.5,2.2,3,4.5,4.4,6.8c0.5,0.9,1,1.7,1.3,2.7c0.2,0.6,0.2,0.6,0.8,0.6c2.8,0,5.7,0,8.5,0
			c0.2,0,0.4,0,0.6-0.1c0-0.3-0.1-0.5-0.2-0.7c-1-2.7-2.2-5.3-3.5-7.7c-4.4-7.9-8.8-15.9-14.1-23.2c-0.4-0.6-0.8-1.1-1.2-1.7
			c-0.3-0.4-0.5-0.9-0.8-1.3c-0.3-0.5-0.3-0.5-0.8-0.4c-2,0.4-3.8,1.3-5.3,2.6c-0.4,0.4-0.8,0.8-1,1.3c-0.3,0.6-0.5,1.3-0.2,2
			c0.3,0.8,0.3,0.8,1.1,0.8C278.4,226,279.5,225.9,280.6,225.9z M281.4,156.3c-0.3,0-0.5,0.1-0.6,0.3c-1.5,0.9-2.4,2.2-2.9,3.9
			c-0.5,1.6-0.5,3.3-0.2,5c0.5,3.3,1.8,6.3,3.5,9.1c1.3,2.2,2.8,4.1,4.8,5.7c0.8,0.6,1.6,1.2,2.5,1.5c0.5,0.2,1,0.3,1.6,0.4
			c0.4,0,0.6-0.1,0.7-0.4c0.3-0.6,0.4-1.1,0.5-1.8c0-1-0.2-1.9-0.5-2.8c-0.5-1.6-1.3-3.1-2.2-4.6c-1.2-2.1-2.5-4.1-3.8-6.2
			c-1-1.6-2-3.3-2.7-5.1C281.5,159.6,281,158,281.4,156.3z M381.4,137.8c0.2,0.2,0.4,0.4,0.6,0.4c0.5,0.2,1.1,0.4,1.7,0.6
			c3.7,0.9,7.5,1.1,11.3,0.6c0.5-0.1,1.1-0.3,1.6,0c0.1,0,0.2,0,0.3,0c0.6,0,0.7-0.2,0.4-0.7c-0.2,0.1-0.4,0.2-0.6,0.2
			c-0.5,0.2-1,0.2-1.5,0c-2.7-1.3-5.4-2.9-7.8-4.7c-0.2-0.2-0.3-0.3-0.6-0.1C385.1,135.5,383.3,136.6,381.4,137.8z M253.1,166.5
			c0.1,0.1,0.2,0,0.3,0c0.4-0.2,0.8-0.3,1.2-0.5c2.2-1.2,4.1-2.6,5.9-4.3c0.5-0.4,0.9-0.9,1.3-1.4c0.6-0.7,0.6-1.4,0.1-2.2
			c-0.6-0.9-1.3-1.2-2.3-0.8c-0.6,0.2-1.1,0.6-1.6,1.1c-2.2,2.1-3.8,4.6-4.9,7.4C253,166,252.9,166.2,253.1,166.5z M301.2,149.7
			c1.4,0,2.9-0.6,3.9-1.5c1.2-1.1,1.3-2.5,0.2-3.7c-0.7-0.8-1.6-1.3-2.6-1.8c-0.2-0.1-0.4-0.1-0.5,0.1c-1,1.1-1.9,2.2-2.6,3.6
			c-0.2,0.4-0.4,0.9-0.5,1.3c-0.2,1,0.3,1.8,1.3,2C300.7,149.7,300.9,149.7,301.2,149.7z M267.8,80.9c0.1-0.3,0.2-0.6,0.2-0.9
			c0-0.9-0.2-1.6-0.7-2.4c-0.7-1.1-1.7-2-3-2.4c-0.7-0.2-1.3-0.1-1.8,0.4c-0.8,0.9-0.8,1.9-0.8,3.1c0.2-0.1,0.2-0.1,0.3-0.1
			c0.8-0.7,1.7-0.6,2.7-0.2c0.7,0.3,1.3,0.8,1.9,1.3C267,80.1,267.4,80.5,267.8,80.9z M239.9,171.4c0,0.3,0.1,0.5,0.1,0.7
			c0.2,0.6,0.3,0.7,0.8,0.3c0.1-0.1,0.3-0.2,0.4-0.4c1-1,1.7-2.1,2.1-3.4c0.1-0.4,0.2-0.9,0.2-1.3c0-0.6-0.2-1-0.7-1.4
			c-0.4-0.3-0.7-0.2-1,0c-0.3,0.2-0.5,0.5-0.6,0.9C240.4,168.3,240.1,169.9,239.9,171.4z"/>
		<path class="st2" d="M405.8,0c0.1,0.2,0.1,0.4,0.1,0.6c0,1.3,0,2.6,0,3.9c0,0.2,0,0.5-0.1,0.7c-0.1-0.2-0.1-0.4-0.2-0.6
			c-0.6-2.4-2.1-3.8-4.5-4.3c-0.2,0-0.5,0-0.6-0.2c0,0,0,0,0,0c0,0,0,0,0-0.1C402.3,0,404.1,0,405.8,0z"/>
		<path class="st2" d="M278.5,89.6c2.5-1.2,5.1-1.2,7.7-0.9c3.1,0.4,6,1.2,9,2c2,0.5,4.1,1.1,6.2,1.3c0.7,0.1,1.4,0.1,2.1,0.1
			c0.4,0,0.8,0.1,1.2,0.2c4.4,2,8.7,4.1,12.7,6.7c0.5,0.3,1,0.7,1.4,1.1c0.4,0.4,0.4,0.5,0,0.9c-0.6,0.7-1,1.4-1.4,2.2
			c-1.1,2.1-2.1,4.2-3.2,6.2c-0.9,1.7-1.9,3.4-3.1,5c-0.5,0.7-1.1,1.3-1.8,1.9c-1,0.7-1.9,1-3.1,0.5c-1.5-0.6-3.1-0.5-4.7-0.4
			c-2.2,0.2-4.5,0.6-6.7,0.8c-1.7,0.2-3.5,0.3-5.2,0.1c-0.4-0.1-0.8,0-0.9-0.7c0-0.3-0.3-0.7-0.5-1c-1.3-2-2.7-3.8-4.3-5.5
			c-0.6-0.6-1.4-1-2.2-1.3c-0.5-0.2-1-0.3-1.5-0.4c-1.8-0.4-3.1-1.4-4.2-2.8c-1.2-1.5-2.1-3.3-2.7-5.1c-0.8-2.6-1.2-5.3-1-8.1
			c0.1-0.9,0.2-1.7,0.6-2.6c0.2-0.5,0.4-1,0.8-1.4c0.6-0.7,1.4-1,2.3-0.7C277,88,278.1,88.8,278.5,89.6z"/>
		<path class="st2" d="M324.3,103.1c0-1.2,0.4-2.3,1-3.2c0.8-1.2,1.8-2.2,2.9-3c2.3-1.6,4.9-2.5,7.7-2.8c0.7-0.1,1.3-0.1,2-0.1
			c3.5,0.1,7-0.4,10.4-1.1c2.8-0.6,5.6-1.4,8.4-1.9c0.4-0.1,0.5-0.2,0.5-0.6c0-0.8,0.4-1.1,1.2-1c0.4,0,0.8,0.2,1.2,0.4
			c0.8,0.3,1.5,0.8,2.2,1.2c1,0.6,2,1.3,2.9,1.9c1.3,0.9,1.5,2,0.9,3.4c-0.2,0.4-0.4,0.7-0.7,1.1c-0.4,0.5-0.8,1-1.3,1.4
			c-1.4,1.4-3,2.5-4.7,3.7c-1.1,0.8-2.3,1.5-3.4,2.2c-0.3,0.2-0.5,0.4-0.7,0.6c-1.3,1.6-2.9,2.8-4.7,3.6c-1.3,0.6-2.6,1.1-4,1.7
			c-1.7,0.6-3.3,1.4-4.8,2.5c-1.1,0.9-2.3,0.9-3.5,0.4c-2-0.8-4.1-1.5-6.1-2.4c-1.4-0.6-2.7-1.3-4-2.2c-0.9-0.6-1.7-1.4-2.3-2.3
			C324.7,105.6,324.3,104.4,324.3,103.1z"/>
		<path class="st2" d="M405.8,9c0.1,0.2,0.1,0.5,0.1,0.7c0,2.4,0,4.8,0,7.2c0,0.2,0,0.5-0.1,0.7c-1.9,0.2-3.7,0.3-5.6,0.5
			c-2.3,0.2-4.6,0.4-6.8,0.8c-2.5,0.4-5.1,0.9-7.5,1.6c-1,0.3-1.6,0.9-2,1.7c-0.3,0.5-0.5,1.1-0.7,1.7c-0.1,0.4-0.3,0.8-0.5,1.1
			c-0.4,0.8-1,1.1-1.9,0.8c-0.6-0.2-1.1-0.5-1.6-0.8c-1.8-1.1-3.7-2.1-5.7-2.9c-0.9-0.4-1.8-0.7-2.7-0.8c-0.2,0-0.4-0.1-0.5-0.1
			c-0.8,0-1.5,0-2,0.9c-0.5-1-1.2-1.7-1.8-2.5c-0.3-0.4-0.7-0.8-0.9-1.3c-0.4-0.8-0.2-1.3,0.6-1.7c0.7-0.3,1.5-0.3,2.3-0.4
			c1.3-0.1,2.7,0,4,0.2c2.5,0.3,4.9,0.1,7.4-0.4c1.9-0.4,3.7-0.8,5.6-1c2-0.3,4.1-0.3,6.1-0.3c2.1,0,4.1,0,6.2-0.2
			c1.4-0.1,2.8-0.4,4.1-0.9c2-0.8,3.4-2.2,3.9-4.4C405.8,9.1,405.8,9.1,405.8,9z"/>
		<path class="st2" d="M345.2,148.2c-0.6-0.6-1.3-1.3-1.9-1.9c-1.6-1.6-3-3.3-4.5-4.9c-0.1-0.1-0.2-0.3-0.4-0.4
			c-0.1-0.1-0.2-0.1-0.3,0c-0.1,0.2-0.2,0.3-0.4,0.5c-0.6,0.7-1.2,0.7-1.7-0.1c-0.2-0.3-0.4-0.6-0.5-0.9c-0.8-2-1.1-4.2-1-6.4
			c0-1.1,0.4-1.3,1.4-1.3c0.6,0,1.1,0.2,1.6,0.5c0.6,0.4,1.1,0.8,1.5,1.3c0.8,0.8,1.4,1.8,1.9,2.8c1.8,3.2,3.2,6.7,4.3,10.2
			C345.3,147.8,345.3,148,345.2,148.2L345.2,148.2z"/>
		<path class="st2" d="M368.3,95.4c0-0.7,0.2-1.3,0.5-1.9c0.7-1.3,1.7-2.3,3.1-2.9c0.4-0.2,0.7-0.3,1.1-0.2c0.6,0,0.9,0.4,0.8,1
			c-0.1,0.3-0.2,0.6-0.3,0.8c-0.8,2.2-1.6,4.3-2.5,6.4c-0.2,0.6-0.7,0.7-1.2,0.2C368.9,97.9,368.3,96.7,368.3,95.4z"/>
		<path class="st2" d="M268.3,99.5c-1-0.9-1.8-1.9-2.3-3c-0.7-1.6-0.5-3,0.5-4.4c0.5-0.7,1.1-1.2,1.8-1.8c0.5-0.4,1-0.8,1.5-1.2
			C269.7,92.4,268.9,98.6,268.3,99.5z"/>
		<path class="st2" d="M305.3,133c1.4-1.1,2.8-2.1,4.4-2.7c0.3-0.1,0.6-0.2,0.9-0.3c0.6-0.1,1,0.2,1,0.8c0,1-0.3,1.8-0.7,2.7
			c-0.1,0.3-0.4,0.4-0.7,0.2c-0.2-0.1-0.4-0.2-0.6-0.4c-0.3-0.2-0.6-0.5-0.8-0.8c-0.3-0.3-0.6-0.4-1-0.3
			C306.9,132.5,306.1,132.7,305.3,133z"/>
		<path class="st2" d="M345.2,148.2C345.2,148.1,345.2,148.1,345.2,148.2C345.2,148.1,345.2,148.1,345.2,148.2
			C345.2,148.2,345.2,148.2,345.2,148.2z"/>
		<path class="st2" d="M304.2,133.9c0-0.1,0.1-0.2,0.1-0.2l0,0C304.2,133.8,304.3,133.8,304.2,133.9
			C304.2,133.9,304.2,133.9,304.2,133.9z"/>
		<path class="st2" d="M304.2,133.7C304.2,133.7,304.2,133.7,304.2,133.7C304.3,133.7,304.3,133.7,304.2,133.7
			C304.2,133.7,304.2,133.7,304.2,133.7z"/>
		<path class="st2" d="M308,226.3c0.3,0.7,0.8,1.2,1.3,1.6c0.9,0.7,2,1.2,3,1.7c1.3,0.6,2.6,1.2,3.8,1.8c1,0.5,2,1.1,2.8,1.9
			c0.2,0.2,0.4,0.4,0.5,0.7c-0.4,0.2-0.7,0.6-0.9,1c-0.8,1.6-1.3,3.3-1.5,5.1c0,0.3,0,0.5,0,0.8c0,0.3,0.1,0.5,0.4,0.5
			c0.2,0,0.3,0.2,0.4,0.3c1.8,2.3,3.5,4.6,5,7.1c0.3,0.5,0.6,1.1,0.8,1.7c0.1,0.3,0.2,0.6,0.1,1c-1-0.1-2,0.1-2.9,0.4
			c-0.3,0.1-0.3,0-0.4-0.3c-1.6-4.1-3.6-8.1-5.5-12.1c-0.3-0.6-0.7-1.2-1.2-1.7c-1.1-1.1-2.2-2.2-3.2-3.3c-1-1.1-2.1-2.2-2.9-3.4
			c-0.5-0.7-1-1.5-1.2-2.3c-0.1-0.3-0.3-0.5-0.4-0.7c-1.5-2-3-4-4.3-6.2c-0.4-0.7-0.8-1.4-1.1-2.3c-0.1-0.4-0.2-0.7,0.1-1
			c0.3-0.3,0.7-0.1,1,0c0.4,0.1,0.7,0.4,1,0.7c1.2,1,2.4,2.1,3.5,3.1c1.4,1.3,2.7,2.6,4.1,3.7c0.1,0,0.1,0.1,0.1,0.2
			c-0.6,0.3-1.2,0.3-1.8,0c-0.2-0.1-0.4-0.2-0.5-0.3c0-0.1-0.1-0.1-0.1-0.1C308,226.2,308,226.3,308,226.3z"/>
	</g>
	<g>
		<path class="st0" d="M642.6,46.9c-1.3,0-2.6,0-3.9,0c-3.6,0-7.3,0-10.9,0.2c-3.7,0.2-7.4,0.4-11.1,1.2c-1.1,0.2-2.1,0.5-3.2,0.9
			c-0.5,0.2-1,0.5-1.5,0.8c-0.5,0.4-0.8,0.9-1,1.5c-1.1,4.5-2.2,9-3.4,13.4c0,0.2-0.1,0.3-0.2,0.5c-0.1,0-0.1,0-0.2,0
			c0.1-0.4,0.1-0.9,0.1-1.3c0-0.3-0.1-0.6-0.4-0.7c-0.3-0.1-0.6,0.1-0.7,0.3c-0.2,0.3-0.4,0.7-0.5,1c-0.5,1.5-0.7,3-0.9,4.6
			c-0.4,3.2-0.5,6.5-0.5,9.8c0,1.5,0,3,0.2,4.5c0,0.4,0,0.8,0.3,1.1c0.2-0.2,0.2-0.5,0.2-0.7c0.1-1.6,0.2-3.2,0.3-4.9
			c0.1-2,0.2-4,0.6-5.9c0.1-0.6,0.2-1.2,0.7-1.8c0.3,0.4,0.3,0.9,0.4,1.3c0.1,0.8,0.1,1.7,0.1,2.6c0,0.7,0,1.3,0.1,2
			c0.1,0.6,0.3,0.7,1,0.6c0.6-0.1,1.1-0.4,1.6-0.7c0.7-0.3,1.4-0.7,2.2-0.8c1.2-0.2,2.2,0.6,2.2,1.9c0,0.3-0.2,0.5-0.3,0.6
			c-0.4,0.4-0.8,0.7-1.2,1c-0.9,0.7-1.8,1.4-2.8,2.1c-0.5,0.4-1,0.8-1.5,1.3c-0.3,0.3-0.5,0.5-0.7,0.8c-0.4,0.7-0.3,1.1,0.4,1.6
			c0.5,0.3,1.1,0.6,1.7,0.8c0.3,0.1,0.6,0.2,1,0c0-0.4-0.3-0.8-0.2-1.3c0.4,0.3,0.5,0.7,0.4,1c-0.1,0.3,0,0.5,0.1,0.7
			c0.7,1.7,1.6,3.4,2.5,5.1c0,0.1,0.1,0.1,0.2,0.2c0.1-0.5,0.2-1,0.2-1.5c0.1-2.5,0.2-5,0.3-7.5c0-0.6,0.1-1.2,0.2-1.7
			c0-0.2,0.1-0.5,0.4-0.6c0.3,0,0.5,0.1,0.7,0.3c0.2,0.3,0.3,0.6,0.4,0.9c0.3,1.3,0.3,2.6,0.2,3.9c-0.3,4.4-1,8.7-1.9,13
			c-0.8,4.1-1.8,8.2-2.9,12.3c-0.2,0.7-0.4,1.3-0.6,2c-0.1,0.5-0.4,0.8-0.8,1c-2.3,1.4-4.2,3.2-5.8,5.4c-0.2,0.3-0.3,0.6-0.4,0.9
			c-0.6,3.5-1.1,7.1-1.8,10.6c-0.1,0.7,0,1.4,0.2,2.1c0.3,1.2,0.8,2.4,1.3,3.6c0.3,0.8,0.7,1.6,1,2.4c0.1,0.3,0.3,0.7,0,0.9
			c-0.4,0.2-0.7,0-1-0.3c-0.6-0.5-1-1.2-1.4-1.9c-0.1-0.1-0.1-0.2-0.2-0.3c-0.3,0.1-0.4,0.4-0.5,0.6c-1,1.5-1.8,3.2-2.6,4.8
			c-1.3,2.9-2.6,5.8-3.4,9c-0.2,0.7-0.3,1.3-0.4,2c0,0.3,0,0.5,0.3,0.7c1.5,1,3.1,2.1,4.6,3.2c0.3,0.2,0.6,0.3,0.9,0.2
			c0.8-0.1,1.6-0.1,2.3,0.2c1.1,0.3,1.7,1.1,2,2.2c0.2,1.1,0,2.2-0.2,3.2c-0.5,2-1.3,3.8-2.3,5.6c-1.6,3.2-3.6,6.2-5.7,9
			c-0.6,0.8-1.3,1.5-2.1,2.2c-5.5,4.6-11.4,8.6-17.9,11.7c-2,0.9-4,1.7-6.1,2c-1.2,0.2-2.3,0.3-3.5-0.1c-0.4-0.1-0.8-0.2-1.1-0.5
			c0-0.1,0-0.2,0.1-0.2c1.6-1.4,3-3,4.5-4.5c1.8-2,3.6-4,5.4-6.1c0.1-0.2,0.5-0.4,0.3-0.6c-0.2-0.3-0.5-0.1-0.7,0
			c-0.5,0.1-0.9,0.3-1.4,0.5c-1.5,0.7-3,1.4-4.4,2.1c-1.8,0.9-3.7,1.7-5.7,2.3c-1,0.3-1.9,0.4-2.9,0.4c-1.6-0.1-2.8-1.3-2.9-3
			c0-0.4,0.2-0.6,0.5-0.8c0.2-0.1,0.4-0.1,0.5-0.2c-0.8-1.1-1.8-1.5-3.1-1.4c-0.9,0.1-1.9,0.4-2.7,0.7c-1.3,0.5-2.6,1.1-3.9,1.6
			c-0.7,0.3-1.5,0.6-2.3,0.8c-0.3,0.1-0.6,0.1-0.9-0.1c-0.3-0.2-0.5-0.3-0.8-0.5c-1.9-1.6-3.6-3.4-5.1-5.4c-0.6-0.8-0.7-1.5-0.2-2.3
			c0.2-0.3,0.3-0.6,0.5-0.9c0.7-1.2,1.8-1.6,3.2-1.5c1.3,0.1,2.5,0.4,3.7,0.7c1.8,0.4,3.6,0.6,5.5,0.6c1.1,0,2.1-0.2,3.2-0.7
			c2.2-1,4.3-2.3,6.1-4c0.8-0.7,1.4-1.7,1.8-2.7c0.1-0.3,0.2-0.6,0.2-0.9c0-0.5-0.2-0.8-0.6-0.9c-0.3-0.1-0.5-0.1-0.8-0.1
			c-0.5,0-1,0-1.6,0.1c-0.6,0-1.2,0.1-1.8,0c-0.6-0.1-1.1-0.4-1.3-1c-0.2-0.7-0.2-1.3,0.4-1.9c0.4-0.4,0.8-0.6,1.3-0.8
			c0.9-0.4,1.8-0.5,2.8-0.6c2.5-0.3,5-0.3,7.6-0.1c3.2,0.2,6.3,0.6,9.4,1.2c1.1,0.2,2.3,0.4,3.4,0.8c0.1,0,0.3,0.1,0.4,0.1
			c0.1-0.3,0-0.6-0.1-0.9c-0.3-2-0.3-4-0.4-5.9c0-0.9,0-1.8,0.1-2.7c0-0.3,0-0.5-0.4-0.5c-0.3,0-0.7-0.1-1-0.3
			c-0.3-0.2-0.6-0.1-0.8,0.1c-0.3,0.3-0.1,0.5,0,0.8c0.1,0.2,0.3,0.4,0.4,0.6c0.1,0.1,0.2,0.3,0.3,0.4c0.2,0.3,0.1,0.5-0.3,0.6
			c-0.4,0.1-0.9,0.1-1.3,0.1c-1.9-0.1-3.8-0.2-5.7-0.3c-0.6-0.1-1.2,0-1.7,0.1c-2.1,0.5-4.2,0.7-6.4,0.8c-0.7,0-1.2-0.4-1.3-1.2
			c-0.1-0.6,0-1.1,0.1-1.7c0.1-0.5,0.2-0.9,0.3-1.4c0-0.3,0.1-0.5,0.1-0.8c0-0.5-0.1-0.6-0.6-0.6c-0.5,0-0.9,0.1-1.4,0.1
			c-3.2,0.2-6.3-0.4-9.2-2c-1.5-0.8-2.9-2-3.8-3.4c-0.2-0.3-0.4-0.4-0.6-0.6c-2.4-1.6-4.6-3.4-6.6-5.5c-0.6-0.7-1.2-1.4-1.7-2.1
			c-0.2-0.4-0.5-0.8-0.6-1.2c-0.4-0.9-0.5-1.7,0-2.6c0.1-0.1,0-0.2,0-0.3c0,0,0.1,0,0,0c0,0,0,0,0,0c0,0.1-0.1,0.2-0.1,0.2
			c-0.2,0.1-0.4,0.3-0.6,0.4c-1.5,1.2-3,2.4-4.4,3.7c-0.9,0.8-1.8,1.4-2.9,1.8c-1.6,0.5-3.2,0.4-4.7-0.1c-1.4-0.5-2.7-1.2-4-2
			c-0.8-0.5-1.4-1.2-2-1.9c-1.4-1.7-2.6-3.5-3.8-5.4c-2.1-3.1-4-6.4-6.1-9.5c-0.6-0.9-1.3-1.9-2-2.7c-0.4-0.5-0.8-0.9-1.2-1.3
			c-0.3-0.3-0.7-0.5-1.2-0.1c0.2-2-0.2-3.7-1.4-5.4c-0.4,0.8-0.3,1.6-0.4,2.4c-1.9-1.6-4.3-1.9-6.6-2.5c-2.8-0.7-5.6-1.1-8.4-1.9
			c-1-0.3-2-0.6-3-1.1c-0.5-0.2-0.9-0.5-1.3-0.8c-0.7-0.7-0.8-1.4-0.3-2.2c0.9-1.2,1.9-2.1,3.6-2.1c1.5,0,2.9,0.1,4.4,0.2
			c0.8,0,1.5,0,2.3,0c0.4,0,0.8-0.1,1.2-0.3c0.7-0.3,1-0.8,0.9-1.6c-0.2-1.2-0.5-2.3-0.7-3.5c-0.6-3.2-1.2-6.4-1.3-9.6
			c0-1.2,0-2.3,0.3-3.4c0.2-0.7,0.4-1.5,0.9-2c0.8-0.8,1-0.7,1.3,0.3c0.3,0.9,0.2,1.9,0,2.8c-0.2,1.4-0.6,2.8-0.8,4.2
			c-0.1,1-0.2,1.9,0.1,2.9c0.1,0.5,0.3,0.9,0.7,1.3c0.2-0.2,0.3-0.5,0.4-0.8c0.5-1.5,0.9-2.9,1.5-4.3c0.3-0.8,0.7-1.7,1.2-2.4
			c0.2-0.4,0.5-0.8,0.9-1.1c0.7-0.6,1.3-0.6,1.9,0.1c0.4,0.4,0.6,0.9,0.8,1.5c0.2,0.4,0.3,0.8,0.6,1.2c0-0.2,0.1-0.5,0.1-0.7
			c0.2-2.2,0.4-4.5,0.6-6.7c0.1-0.8,0.2-1.6,0.3-2.4c0.1-0.6,0.1-1.3,0-1.9c-0.1-0.6-0.2-1.2-0.3-1.7c-0.1-0.5,0-1.1,0.1-1.6
			c0.2-0.6,0.5-0.8,1.2-0.7c0.3,0.1,0.6,0.2,1,0.3c0.7,0.2,1.1-0.1,1.3-0.7c0.2-0.6,0.1-1.3,0-1.9c-0.3-2.3-0.9-4.5-1.6-6.6
			c-0.9-2.9-1.9-5.7-3.2-8.4c-0.5-1.1-1.1-2-2-2.9c-0.9-1-1.4-2.2-1.7-3.5c-0.6-2.2-0.7-4.3-0.7-6.6c0.1-5,1-9.8,3-14.4
			c0.6-1.4,1.4-2.8,2.4-4c1.1-1.3,2.3-2.2,3.9-2.7c1.2-0.4,2.1-1.2,2.8-2.2c0.9-1.4,1.4-3,1.8-4.6c0.6-2.9,0.7-5.9,0.6-8.8
			c0-1.3-0.1-2.6-0.1-3.9c0-0.6,0-0.6,0.6-0.6c0.2,0,0.4,0,0.6,0c16.8,0,33.5,0,50.3,0c1.4,0,2.8,0,4.2,0c2,0,3.8,0.5,5.5,1.6
			c0.2,0.1,0.4,0.2,0.5,0.3c0.9,0.7,1.9,0.8,3,0.5c0.8-0.2,1.5-0.5,2.2-0.8c1.3-0.5,2.6-1.1,4-1.3c0.6-0.1,1.3-0.2,1.9-0.2
			c6.8,0,13.6,0,20.4,0c1.3,0,2.6,0.1,3.8,0.4c0.6,0.1,1.1,0.3,1.6,0.5c1.2,0.6,1.8,1.6,1.9,2.9c0,0.8-0.1,1.6-0.2,2.4
			c-0.1,0.6-0.2,1.1-0.2,1.7c0,1.8,1.2,2.4,2.6,2.6c0.3,0,0.5-0.2,0.7-0.4c0.4-0.5,0.6-1,0.8-1.6c0.7-1.8,1.2-3.6,1.6-5.5
			c0.2-0.8,0.4-1.6,0.5-2.4c0.1-0.3,0.2-0.5,0.6-0.5c2.8,0,5.5-0.5,8.3-0.7c0.1,0,0.2,0,0.3-0.1c0.1,0,0.1-0.1,0-0.2
			c1.8,0,3.7,0,5.5,0c0,0,0,0,0,0.1c0,0,0,0,0,0c0.2,0.1,0.4,0.1,0.6,0.2c2.4,0.5,4,1.9,4.5,4.3c0,0.2,0.1,0.4,0.2,0.6
			c0,1.3,0,2.5,0,3.8c0,0.1-0.1,0.1-0.1,0.2c-0.5,2.2-1.9,3.6-3.9,4.4c-1.3,0.5-2.7,0.8-4.1,0.9c-2.1,0.2-4.1,0.2-6.2,0.2
			c-2,0-4.1,0-6.1,0.3c-1.9,0.3-3.7,0.7-5.6,1c-2.4,0.5-4.9,0.7-7.4,0.4c-1.3-0.2-2.6-0.2-4-0.2c-0.8,0-1.5,0.1-2.3,0.4
			c-0.8,0.3-1,0.8-0.6,1.7c0.2,0.5,0.6,0.9,0.9,1.3c0.6,0.8,1.3,1.5,1.8,2.5c0.5-0.9,1.2-0.9,2-0.9c0.2,0,0.4,0,0.5,0.1
			c0.9,0.2,1.8,0.5,2.7,0.8c2,0.8,3.9,1.8,5.7,2.9c0.5,0.3,1,0.6,1.6,0.8c0.9,0.3,1.5,0,1.9-0.8c0.2-0.4,0.3-0.7,0.5-1.1
			c0.2-0.6,0.4-1.1,0.7-1.7c0.4-0.9,1.1-1.4,2-1.7c2.5-0.7,5-1.2,7.5-1.6c2.3-0.3,4.6-0.6,6.8-0.8c1.9-0.2,3.7-0.3,5.6-0.5
			c0,0.4,0,0.7,0,1.1c0,9.1,0,18.1,0,27.2C642.7,46.3,642.6,46.6,642.6,46.9z M582,148.2C582,148.1,582,148.1,582,148.2
			C582.1,148.1,582,148.1,582,148.2c0.1-0.2,0-0.4,0-0.6c-1.1-3.5-2.4-7-4.3-10.2c-0.6-1-1.2-1.9-1.9-2.8c-0.5-0.5-0.9-1-1.5-1.3
			c-0.5-0.3-1-0.5-1.6-0.5c-1.1,0-1.4,0.3-1.4,1.3c-0.1,2.2,0.2,4.3,1,6.4c0.1,0.3,0.3,0.7,0.5,0.9c0.6,0.7,1.1,0.8,1.7,0.1
			c0.1-0.2,0.2-0.3,0.4-0.5c0.1-0.1,0.2-0.1,0.3,0c0.1,0.1,0.2,0.3,0.4,0.4c1.5,1.6,3,3.3,4.5,4.9
			C580.8,146.9,581.4,147.5,582,148.2z M515.3,89.6c-0.4-0.7-1.6-1.5-2.4-1.8c-0.9-0.3-1.7,0-2.3,0.7c-0.3,0.4-0.6,0.9-0.8,1.4
			c-0.3,0.8-0.5,1.7-0.6,2.6c-0.2,2.8,0.1,5.4,1,8.1c0.6,1.9,1.4,3.6,2.7,5.1c1.1,1.4,2.5,2.4,4.2,2.8c0.5,0.1,1,0.3,1.5,0.4
			c0.8,0.3,1.6,0.7,2.2,1.3c1.6,1.7,3.1,3.5,4.3,5.5c0.2,0.3,0.5,0.6,0.5,1c0,0.6,0.4,0.6,0.9,0.7c1.7,0.3,3.5,0.1,5.2-0.1
			c2.2-0.2,4.5-0.7,6.7-0.8c1.6-0.1,3.2-0.2,4.7,0.4c1.2,0.5,2.2,0.2,3.1-0.5c0.7-0.5,1.2-1.2,1.8-1.9c1.2-1.6,2.2-3.3,3.1-5
			c1.1-2.1,2.1-4.2,3.2-6.2c0.4-0.8,0.9-1.5,1.4-2.2c0.3-0.4,0.3-0.5,0-0.9c-0.4-0.4-0.9-0.8-1.4-1.1c-4.1-2.6-8.3-4.7-12.7-6.7
			c-0.4-0.2-0.8-0.2-1.2-0.2c-0.7,0-1.4,0-2.1-0.1c-2.1-0.3-4.2-0.8-6.2-1.3c-3-0.8-5.9-1.7-9-2C520.4,88.3,517.8,88.4,515.3,89.6z
			 M561.1,103.1c0,1.3,0.4,2.4,1.2,3.4c0.6,0.9,1.4,1.6,2.3,2.3c1.2,0.9,2.6,1.6,4,2.2c2,0.8,4.1,1.5,6.1,2.4
			c1.3,0.5,2.4,0.5,3.5-0.4c1.4-1.1,3.1-1.8,4.8-2.5c1.3-0.5,2.7-1,4-1.7c1.8-0.9,3.5-2,4.7-3.6c0.2-0.3,0.5-0.4,0.7-0.6
			c1.1-0.7,2.3-1.5,3.4-2.2c1.6-1.1,3.3-2.3,4.7-3.7c0.5-0.4,0.9-0.9,1.3-1.4c0.3-0.3,0.5-0.7,0.7-1.1c0.7-1.4,0.4-2.5-0.9-3.4
			c-1-0.7-1.9-1.3-2.9-1.9c-0.7-0.5-1.4-0.9-2.2-1.2c-0.4-0.2-0.7-0.3-1.2-0.4c-0.8-0.1-1.2,0.2-1.2,1c0,0.4-0.1,0.5-0.5,0.6
			c-2.8,0.5-5.6,1.3-8.4,1.9c-3.4,0.7-6.9,1.2-10.4,1.1c-0.7,0-1.4,0-2,0.1c-2.8,0.3-5.4,1.2-7.7,2.8c-1.2,0.8-2.2,1.8-2.9,3
			C561.5,100.9,561.1,102,561.1,103.1z M605.1,95.4c0,1.4,0.7,2.5,1.6,3.5c0.4,0.5,0.9,0.4,1.2-0.2c0.9-2.1,1.7-4.3,2.5-6.4
			c0.1-0.3,0.2-0.6,0.3-0.8c0.1-0.6-0.2-1-0.8-1c-0.4,0-0.8,0.1-1.1,0.2c-1.4,0.6-2.4,1.6-3.1,2.9C605.2,94.1,605.1,94.7,605.1,95.4
			z M505.1,99.5c0.6-0.9,1.4-7.2,1.4-10.4c-0.5,0.4-1,0.8-1.5,1.2c-0.6,0.5-1.3,1.1-1.8,1.8c-1,1.4-1.2,2.8-0.5,4.4
			C503.3,97.7,504.1,98.6,505.1,99.5z M542.1,133c0.8-0.3,1.6-0.5,2.4-0.7c0.4-0.1,0.7,0,1,0.3c0.3,0.3,0.6,0.5,0.8,0.8
			c0.2,0.2,0.4,0.3,0.6,0.4c0.3,0.1,0.6,0,0.7-0.2c0.4-0.9,0.8-1.7,0.7-2.7c0-0.6-0.4-0.9-1-0.8c-0.3,0.1-0.6,0.1-0.9,0.3
			C544.9,131,543.5,131.9,542.1,133z"/>
		<path class="st1" d="M606.8,254.8c-0.2-0.2-0.4-0.1-0.6-0.1c-0.9,0-1.8-0.1-2.7-0.1c-0.3,0-0.4-0.1-0.4-0.4
			c-0.1-3.1-0.6-6.1-0.9-9.2c-0.2-2.3-0.2-4.5,0.3-6.8c0.6-2.6,2-4.6,4.2-6.1c2.2-1.5,4.7-2.5,7.3-3c0.7-0.1,1.4-0.1,2.1-0.1
			c1.8,0.2,3,1.5,3.2,3.5c0.2,1.6,0,3.1-0.4,4.6c-0.9,3.6-2.5,6.8-4.8,9.8c-0.1,0.1-0.1,0.1-0.2,0.2c-0.2-0.1-0.2-0.4-0.3-0.6
			c-0.4-1-1-1.2-1.9-0.7c-1.2,0.8-2,1.9-2.4,3.3c-0.2,0.7,0,0.9,0.7,0.9c1.2,0.1,2.2-0.3,3.1-1c0.2-0.2,0.4-0.3,0.5-0.4
			c0.1,0,0.1,0.1,0.1,0.2c-0.2,1.3-0.4,2.6-0.8,3.8c-0.1,0.3-0.2,0.7-0.4,1c-0.3,0.5-0.6,0.9-1.2,1.1c-0.2,0.1-0.4,0.1-0.4,0.3
			C609.5,254.8,608.2,254.8,606.8,254.8z"/>
		<path class="st1" d="M600.1,254.5c-0.3,0.2-0.5,0.1-0.8,0.1c-18.2,0-36.4,0-54.6,0c-0.6,0-0.9-0.2-1.3-0.6
			c-0.7-0.9-1.3-1.9-1.9-2.9c-1.9-3.3-3.6-6.8-5.3-10.3c-0.7-1.4-1.3-2.8-1.9-4.2c-0.1-0.3-0.2-0.5-0.1-0.8c0.1-1.1,0-2.1-0.1-3.2
			c0-0.4-0.2-0.8-0.5-1.1c-0.5-0.6-1.1-1.1-1.7-1.6c-1.7-1.4-3.4-2.8-5.1-4.2c-0.6-0.5-1.3-1-1.9-1.7c0.3-0.3,0.6-0.3,0.9-0.4
			c0.6-0.4,0.8-0.8,0.4-1.5c-0.3-0.5-0.7-0.8-1.1-1.2c-0.6-0.6-1.3-1.1-1.9-1.7c-0.5-0.5-1-0.9-1.4-1.5c-0.8-1.1-0.6-2,0.5-2.8
			c0.1-0.1,0.2-0.1,0.3-0.2c0.1-0.1,0.3-0.1,0.2-0.3c0-0.1-0.2-0.2-0.3-0.2c-0.3-0.1-0.5,0-0.8,0.1c-0.4,0.2-0.7,0.5-1.1,0.7
			c-0.4,0.2-0.7,0.6-1.2,0.3c-0.5-0.3-0.8-0.8-0.9-1.3c-0.1-0.5,0.1-0.9,0.3-1.3c0.3-0.5,0.6-0.9,1.1-1.2c2-1.6,4.2-2.6,6.7-3.2
			c0.8-0.2,1.5,0,2.1,0.4c0.7,0.4,1.4,1,1.9,1.6c0.9,0.9,1.6,1.9,2.4,2.8c0.7,0.9,1.4,1.7,2.1,2.5c0.5,0.5,1,1,1.6,1.3
			c0.9,0.5,1.5,0.4,2.2-0.3c0.4-0.4,0.8-0.8,1.1-1.3c0.5-0.7,1.1-1.4,1.7-2c1.5-1.7,3.3-2.1,5.4-1.6c1,0.2,2,0.7,2.9,1.2
			c1.1,0.6,2.1,1.4,3,2.2c3,2.5,5.7,5.4,8,8.6c2.1,3,4.3,6,6.7,8.9c1.1,1.4,2.3,2.7,3.6,3.9c0.7,0.7,1.5,1.3,2.4,1.8
			c1,0.6,2,0.7,3.1,0.3c0.8-0.3,1.6-0.6,2.4-1c1.3-0.7,2.5-1.5,3.7-2.2c1.1-0.7,2.3-1.3,3.5-1.8c0.5-0.2,1.1-0.4,1.7-0.5
			c1.5-0.2,2.8,0.2,3.7,1.5c0.7,1,1,2.1,1.3,3.3c0.3,1.2,0.4,2.4-0.1,3.7c-0.5,1.6-0.9,3.3-1.1,4.9c-0.1,0.6-0.1,1.3,0,1.9
			c0.1,0.6,0.3,0.8,1,0.8c0.4,0,0.8,0.1,1.2,0.2c2.1,0.7,3.8,2,5.2,3.7C599.8,253.8,600,254.1,600.1,254.5z M544.9,226.2
			c0.2,0.1,0.4,0.2,0.5,0.3c0.6,0.2,1.2,0.3,1.8,0c0-0.2,0-0.2-0.1-0.2c-1.4-1.2-2.7-2.5-4.1-3.7c-1.2-1.1-2.3-2.2-3.5-3.1
			c-0.3-0.3-0.6-0.5-1-0.7c-0.3-0.1-0.7-0.3-1,0c-0.3,0.3-0.2,0.7-0.1,1c0.2,0.8,0.6,1.5,1.1,2.3c1.3,2.2,2.8,4.2,4.3,6.2
			c0.2,0.2,0.4,0.5,0.4,0.7c0.3,0.8,0.7,1.6,1.2,2.3c0.9,1.2,1.9,2.3,2.9,3.4c1.1,1.1,2.1,2.2,3.2,3.3c0.5,0.5,0.9,1.1,1.2,1.7
			c1.9,4,3.9,8,5.5,12.1c0.1,0.2,0.2,0.3,0.4,0.3c1-0.3,1.9-0.5,2.9-0.4c0.1-0.4,0-0.7-0.1-1c-0.2-0.6-0.5-1.1-0.8-1.7
			c-1.4-2.5-3.2-4.9-5-7.1c-0.1-0.1-0.2-0.3-0.4-0.3c-0.3,0-0.4-0.2-0.4-0.5c0-0.3,0-0.5,0-0.8c0.2-1.8,0.7-3.5,1.5-5.1
			c0.2-0.4,0.4-0.8,0.9-1c-0.2-0.3-0.3-0.5-0.5-0.7c-0.8-0.8-1.8-1.4-2.8-1.9c-1.3-0.6-2.6-1.2-3.8-1.8c-1-0.5-2.1-1-3-1.7
			c-0.6-0.4-1.1-0.9-1.3-1.6C544.8,226.3,544.9,226.3,544.9,226.2z"/>
		<path class="st1" d="M517.4,225.9c-1.1,0.1-2.2,0.1-3.3,0.2c-0.8,0.1-0.9,0-1.1-0.8c-0.2-0.7-0.1-1.4,0.2-2c0.3-0.5,0.6-0.9,1-1.3
			c1.5-1.4,3.3-2.2,5.3-2.6c0.5-0.1,0.5-0.1,0.8,0.4c0.3,0.5,0.5,0.9,0.8,1.3c0.4,0.6,0.8,1.2,1.2,1.7c5.3,7.3,9.7,15.3,14.1,23.2
			c1.4,2.5,2.6,5.1,3.5,7.7c0.1,0.2,0.2,0.4,0.2,0.7c-0.2,0.1-0.4,0.1-0.6,0.1c-2.8,0-5.7,0-8.5,0c-0.6,0-0.6,0-0.8-0.6
			c-0.3-0.9-0.8-1.8-1.3-2.7c-1.3-2.3-2.9-4.6-4.4-6.8c-1.6-2.3-3.2-4.6-4.8-7c-0.4-0.6-0.8-1.2-1.2-1.8c-0.1-0.2-0.3-0.4-0.1-0.6
			c0.2-0.2,0.5,0,0.7,0c0.2,0.1,0.4,0.2,0.6,0.2c0.5,0.1,0.8,0,1.1-0.4c0.4-0.6,0.3-1.2,0.1-1.8c-0.2-0.6-0.6-1.1-1-1.5
			c-0.5-0.6-1-1.2-1.5-1.8c-0.4-0.5-0.7-1-1-1.5c-0.3-0.6-0.4-1.3-0.1-2C517.4,226.1,517.5,226,517.4,225.9z"/>
		<path class="st1" d="M518.2,156.3c-0.4,1.7,0.1,3.3,0.7,4.9c0.7,1.8,1.7,3.4,2.7,5.1c1.2,2.1,2.6,4.1,3.8,6.2
			c0.8,1.5,1.6,3,2.2,4.6c0.3,0.9,0.5,1.9,0.5,2.8c0,0.6-0.2,1.2-0.5,1.8c-0.2,0.3-0.4,0.5-0.7,0.4c-0.5,0-1.1-0.2-1.6-0.4
			c-0.9-0.4-1.8-0.9-2.5-1.5c-2-1.6-3.5-3.6-4.8-5.7c-1.7-2.8-3-5.8-3.5-9.1c-0.3-1.7-0.3-3.3,0.2-5c0.5-1.6,1.4-3,2.9-3.9
			C517.8,156.4,518,156.3,518.2,156.3z"/>
		<path class="st1" d="M618.2,137.8c1.9-1.2,3.7-2.3,5.4-3.6c0.3-0.2,0.4-0.1,0.6,0.1c2.4,1.8,5,3.4,7.8,4.7c0.6,0.3,1,0.3,1.5,0
			c0.2-0.1,0.4-0.2,0.6-0.2c0.3,0.6,0.2,0.8-0.4,0.7c-0.1,0-0.2,0-0.3,0c-0.5-0.3-1.1-0.1-1.6,0c-3.8,0.5-7.6,0.3-11.3-0.6
			c-0.6-0.1-1.1-0.4-1.7-0.6C618.6,138.1,618.3,138,618.2,137.8z"/>
		<path class="st1" d="M489.9,166.5c-0.1-0.2,0-0.5,0-0.7c1.1-2.8,2.7-5.3,4.9-7.4c0.5-0.5,1-0.8,1.6-1.1c1-0.4,1.7-0.1,2.3,0.8
			c0.5,0.8,0.5,1.5-0.1,2.2c-0.4,0.5-0.8,1-1.3,1.4c-1.8,1.7-3.8,3.1-5.9,4.3c-0.4,0.2-0.8,0.4-1.2,0.5
			C490.1,166.5,490,166.5,489.9,166.5z"/>
		<path class="st1" d="M538,149.7c-0.3,0-0.5,0-0.8-0.1c-1-0.2-1.5-1-1.3-2c0.1-0.5,0.3-0.9,0.5-1.3c0.7-1.3,1.6-2.5,2.6-3.6
			c0.2-0.2,0.3-0.2,0.5-0.1c0.9,0.5,1.8,1,2.6,1.8c1.1,1.2,1.1,2.6-0.2,3.7C540.9,149.1,539.4,149.7,538,149.7z"/>
		<path class="st1" d="M504.6,80.9c-0.5-0.4-0.8-0.8-1.2-1.2c-0.6-0.5-1.2-1-1.9-1.3c-0.9-0.4-1.8-0.5-2.7,0.2c0,0-0.1,0-0.3,0.1
			c0-1.1,0-2.2,0.8-3.1c0.5-0.5,1.1-0.6,1.8-0.4c1.3,0.4,2.3,1.2,3,2.4c0.5,0.7,0.7,1.5,0.7,2.4C504.8,80.3,504.8,80.6,504.6,80.9z"
			/>
		<path class="st1" d="M476.7,171.4c0.2-1.6,0.5-3.1,1.2-4.5c0.2-0.3,0.4-0.6,0.6-0.9c0.4-0.3,0.7-0.3,1,0c0.5,0.3,0.7,0.8,0.7,1.4
			c0,0.5-0.1,0.9-0.2,1.3c-0.4,1.3-1.1,2.4-2.1,3.4c-0.1,0.1-0.3,0.2-0.4,0.4c-0.5,0.4-0.7,0.3-0.8-0.3
			C476.8,171.9,476.7,171.7,476.7,171.4z"/>
		<path class="st1" d="M607.4,65.4c0.1,0,0.1,0,0.2,0c-0.2,1.1-0.6,2.3-1.1,3.3C606.8,67.7,607.1,66.6,607.4,65.4z"/>
		<path class="st1" d="M544.8,226.3c0-0.1,0-0.1,0-0.1c0.1-0.1,0.1,0,0.1,0.1C544.9,226.3,544.8,226.3,544.8,226.3z"/>
	</g>
</g>
<g>
</g>
<g>
</g>
<g>
</g>
<g>
</g>
<g>
</g>
<g>
</g>
<g>
</g>
<g>
</g>
<g>
</g>
<g>
</g>
<g>
</g>
<g>
</g>
<g>
</g>
<g>
</g>
<g>
</g>
</svg>
