<?xml version="1.0" encoding="utf-8"?>
<!-- Generator: Adobe Illustrator 17.1.0, SVG Export Plug-In . SVG Version: 6.00 Build 0)  -->
<!DOCTYPE svg PUBLIC "-//W3C//DTD SVG 1.1//EN" "http://www.w3.org/Graphics/SVG/1.1/DTD/svg11.dtd">
<svg version="1.1" id="Layer_1" xmlns="http://www.w3.org/2000/svg" xmlns:xlink="http://www.w3.org/1999/xlink" x="0px" y="0px"
	 viewBox="0 0 597.4 200.1" style="enable-background:new 0 0 597.4 200.1;" xml:space="preserve">
<style type="text/css">
	.st0{fill:#010000;}
	.st1{fill:#F90101;}
	.st2{fill:#080203;}
</style>
<g>
	<g>
		<path class="st0" d="M125.1,0.1c24,0,48,0,72-0.1c2.5,0,3.1,0.6,3.1,3.1c-0.1,64.7-0.1,129.3,0,194c0,2.5-0.6,3.1-3.1,3.1
			c-64.7-0.1-129.3-0.1-194,0c-2.5,0-3.1-0.6-3.1-3.1c0.1-64.7,0.1-129.3,0-194C0,0.6,0.6,0,3.1,0c28,0.1,56,0.1,84,0.1
			c-5.6,5.5-10.9,11.2-16.8,16.3c-5,4.4-8,11.3-5.9,16.4c5.5-4,11.9-5.6,18.1-7.8c3.7-1.3,6.2-0.5,9,2c6.7,6.1,7.2,14.3,8.6,22.4
			c1.2,6.7-0.6,13.4,0.1,19.8c5.6,0.6,10.9,1.9,16.1-0.8c1.4-0.7,2.8,1,3.4,2.3c1.9,3.8-0.2,9.1-4.4,10.1c-2.7,0.7-4,1.8-4.3,4.5
			c-0.1,1-0.1,2.4-1.8,2.3c-4.4-0.4-10.5,3.5-12.1,7.7c0,8.7,0,8.7-6.1,10.1c-1-0.3-2-0.4-2.9-0.8c-3.3-1.4-5.2,0.6-6.5,2.9
			c-1.4,2.6,1.1,4.1,2.8,5.1c2.3,1.3,4.4,2.9,6.3,4.8c4.4,4.3,9.1,8.4,15.8,6.7c4.4-1.1,8.4-2.4,12.8,0c0.8,0.5,2.5,0.3,3.4-0.3
			c4.7-3.3,10.4-5.7,11.4-12.3c0.4-2.8,2.6-4.5,4.8-4c3.9,0.9,4.1-2.2,4.1-3.8c0-4.8,2.3-9,2.3-13.7c0-1.6,0.3-3.6,2.7-3.2
			c9.3,1.4,11.3-4.6,11.6-15.9c-2.4,1.3-2.5,4.2-4.4,5.9c-2.2,1.9-4.7,1.6-6.8,1.6c-1.1,0-1.4-3.4-1.1-5.4
			c1.3-8.4,0.7-16.9,1.1-25.3c0.1-3.2-1-5-3.3-6.9c-1.8-1.5-4-2.3-5.3-0.8c-1,1.1-2.2,3.6,0.1,5.6c1.3,1.1,2.9,2.9,1.6,4.7
			c-1.7,2.3-4,0.8-5.8-0.2c-1.5-0.8-2.5-2-4.3-0.4c-1.4,1.3-16.4-0.1-17.6-1.5c-1-1.3-2.1-2.7-2.4-4.2c-0.4-1.9-0.2-4-0.2-6
			c0-8.1,5.4-13.6,13.6-13.5c4,0,7.9-0.4,11.9,0.8c1.4,0.4,4.8,1.3,4.1-2.1c-0.9-4.9-2.7-9.6-5.4-13.8c-0.5-0.7-0.9-1.6-2.2-1.5
			C127.9,7.7,126,4.4,125.1,0.1z M77.9,59.3c-5,2.4-9.7,2.3-14.4,1c-1.4-0.4-2.6-1.8-4.1-0.6c-1.6,1.4-0.7,3.1-0.3,4.5
			c2.2,6.7,8.1,10.4,12.7,15c1.9,1.9,3.6,3.4,4.3,6.2c0.8,3.2,0.7,6.9,4.3,9.4c0.7-2.4,1.3-4.3,3.4-5.4c3.7-1.9,5.3-4.9,3.4-9.1
			c-0.5-1.1,0.1-2.2,0.3-3.4c1.4-8.6,3.4-17,5.8-25.4c0.8-2.8-0.5-4-2.5-4.4c-3-0.6-4.9-2.4-7-4.2c-2-1.7-4.5-2.8-7.3-1.2
			c-1,0.6-2.4,1-1.8,2.4c0.5,1.2,1.6,0.6,2.6,0.2c4.2-1.7,6.3,1.2,7.5,4.2c1,2.5-3.1,6.2-6.5,6.4c-1.3,0.1-3.2-0.3-3.6,1.1
			C74.1,58.3,76.9,57.5,77.9,59.3z M137.5,40.1c-6-3.4-12.2-3-15.7,0.3c-0.8,0.8-1.8,1.8-1.2,3c0.5,1.1,1.7,0.8,2.5,0.1
			C126.9,39.8,131.6,40.1,137.5,40.1z M117.7,151.3c0.2-1.3-1.4-1.9-2.4-1.8c-2,0.1-3.9,0.8-4.2,3.3c-0.2,1.9,0.6,3.2,2.7,3.3
			C116.8,156.2,117,153.8,117.7,151.3z M70.6,103.8c1-1.4,1.6-2.7,1.5-4.3c-0.1-2-0.9-5-2.4-4.8c-2.7,0.4-0.5,2.9-0.5,4.5
			C69.1,100.7,68.6,102.5,70.6,103.8z"/>
		<path class="st1" d="M125.1,0.1c0.9,4.4,2.9,7.7,8,7.4c1.3-0.1,1.8,0.8,2.2,1.5c2.7,4.2,4.6,8.9,5.4,13.8c0.6,3.5-2.7,2.6-4.1,2.1
			c-4-1.2-7.9-0.8-11.9-0.8c-8.2-0.1-13.6,5.4-13.6,13.5c0,2-0.3,4.1,0.2,6c0.3,1.5,1.4,3,2.4,4.2c1.2,1.5,16.2,2.8,17.6,1.5
			c1.8-1.7,2.8-0.5,4.3,0.4c1.8,1,4.1,2.6,5.8,0.2c1.3-1.8-0.3-3.5-1.6-4.7c-2.3-2-1.1-4.5-0.1-5.6c1.3-1.5,3.5-0.6,5.3,0.8
			c2.3,1.9,3.4,3.8,3.3,6.9c-0.3,8.4,0.2,16.9-1.1,25.3c-0.3,2,0,5.4,1.1,5.4c2.1,0.1,4.7,0.3,6.8-1.6c1.9-1.7,2.1-4.5,4.4-5.9
			c-0.3,11.3-2.3,17.3-11.6,15.9c-2.4-0.4-2.7,1.7-2.7,3.2c0,4.7-2.4,8.9-2.3,13.7c0,1.7-0.2,4.7-4.1,3.8c-2.2-0.5-4.4,1.1-4.8,4
			c-1,6.6-6.7,9.1-11.4,12.3c-0.8,0.6-2.5,0.8-3.4,0.3c-4.3-2.4-8.4-1.1-12.8,0c-6.7,1.7-11.4-2.4-15.8-6.7
			c-1.9-1.8-3.9-3.4-6.3-4.8c-1.7-1-4.2-2.5-2.8-5.1c1.3-2.3,3.2-4.4,6.5-2.9c0.9,0.4,1.9,0.5,2.9,0.8c5.2,8.2,17.7,10.6,25.5,4.8
			c2.2-1.6,3.3-3.1,0.1-5.1c-4.2-2.7-8.2-0.6-12.3-0.1c-1.2,0.2-3.1,0.8-3.5-0.7c-0.5-1.7,1.2-2.9,2.6-2.9c5.3,0,10.6-2.4,15.8-1
			c4.4,1.2,8.2-0.7,12.7-0.4c-1.3-2.5-1.6-4.9-4.3-5.8c-10.3-3.2-20.5-4.3-30.5,1.1c1.7-4.2,7.7-8.1,12.1-7.7
			c1.7,0.1,1.7-1.2,1.8-2.3c0.2-2.7,1.6-3.8,4.3-4.5c4.2-1.1,6.3-6.4,4.4-10.1c-0.7-1.3-2-3-3.4-2.3c-5.2,2.7-10.6,1.4-16.1,0.8
			c-0.7-6.3,1.1-13-0.1-19.8C98.7,41.3,98.2,33,91.5,27c-2.7-2.5-5.3-3.3-9-2c-6.2,2.2-12.6,3.8-18.1,7.8
			c-2.1-5.1,0.9-12.1,5.9-16.4c5.9-5.1,11.2-10.8,16.8-16.3C99.7,0.1,112.4,0.1,125.1,0.1z"/>
		<path class="st1" d="M77.9,59.3c-1-1.7-3.8-1-3.2-3.1c0.4-1.4,2.2-1,3.6-1.1c3.4-0.2,7.5-3.9,6.5-6.4c-1.2-3-3.3-5.9-7.5-4.2
			c-1,0.4-2.1,1-2.6-0.2c-0.6-1.4,0.9-1.9,1.8-2.4c2.8-1.6,5.2-0.5,7.3,1.2c2.2,1.8,4.1,3.6,7,4.2c1.9,0.4,3.2,1.6,2.5,4.4
			C91,60,88.9,68.4,87.6,77c-0.2,1.1-0.8,2.3-0.3,3.4c1.9,4.2,0.3,7.2-3.4,9.1c-2.2,1.1-2.8,3-3.4,5.4c-3.6-2.5-3.5-6.2-4.3-9.4
			c-0.7-2.8-2.4-4.3-4.3-6.2c-4.6-4.6-10.5-8.4-12.7-15c-0.5-1.4-1.4-3.2,0.3-4.5c1.5-1.3,2.8,0.2,4.1,0.6
			C68.2,61.6,72.9,61.7,77.9,59.3z"/>
		<path class="st2" d="M97.1,95.2c10-5.5,20.2-4.4,30.5-1.1c2.7,0.8,3,3.3,4.3,5.8c-4.5-0.3-8.3,1.6-12.7,0.4
			c-5.2-1.4-10.5,1-15.8,1c-1.4,0-3.1,1.2-2.6,2.9c0.5,1.5,2.3,0.9,3.5,0.7c4.1-0.5,8.1-2.6,12.3,0.1c3.2,2,2.1,3.5-0.1,5.1
			c-7.8,5.8-20.3,3.4-25.5-4.8C97.1,103.9,97.1,103.9,97.1,95.2z"/>
		<path class="st1" d="M137.5,40.1c-5.8,0-10.6-0.2-14.4,3.3c-0.8,0.8-2,1-2.5-0.1c-0.5-1.1,0.4-2.2,1.2-3
			C125.3,37.1,131.5,36.7,137.5,40.1z"/>
		<path class="st1" d="M117.7,151.3c-0.8,2.6-0.9,5-3.9,4.8c-2.1-0.2-2.8-1.5-2.7-3.3c0.2-2.4,2.2-3.2,4.2-3.3
			C116.3,149.4,117.9,150,117.7,151.3z"/>
		<path class="st1" d="M70.6,103.8c-2-1.3-1.5-3.1-1.5-4.6c0-1.6-2.1-4.1,0.5-4.5c1.5-0.2,2.3,2.8,2.4,4.8
			C72.1,101.1,71.6,102.4,70.6,103.8z"/>
	</g>
	<g>
		<path class="st0" d="M345.2,0.1c24,0,48,0,72-0.1c2.5,0,3.1,0.6,3.1,3.1c-0.1,64.7-0.1,129.3,0,194c0,2.5-0.6,3.1-3.1,3.1
			c-64.7-0.1-129.3-0.1-194,0c-2.5,0-3.1-0.6-3.1-3.1c0.1-64.7,0.1-129.3,0-194c0-2.5,0.6-3.1,3.1-3.1c28,0.1,56,0.1,84,0.1
			c-5.6,5.5-10.9,11.2-16.8,16.3c-5,4.4-8,11.3-5.9,16.4c5.5-4,11.9-5.6,18.1-7.8c3.7-1.3,6.2-0.5,9,2c6.7,6.1,7.2,14.3,8.6,22.4
			c1.2,6.7-0.6,13.4,0.1,19.8c5.6,0.6,10.9,1.9,16.1-0.8c1.4-0.7,2.8,1,3.4,2.3c1.9,3.8-0.2,9.1-4.4,10.1c-2.7,0.7-4,1.8-4.3,4.5
			c-0.1,1-0.1,2.4-1.8,2.3c-4.4-0.4-10.5,3.5-12.1,7.7c0,8.7,0,8.7-6.1,10.1c-1-0.3-2-0.4-2.9-0.8c-3.3-1.4-5.2,0.6-6.5,2.9
			c-1.4,2.6,1.1,4.1,2.8,5.1c2.3,1.3,4.4,2.9,6.3,4.8c4.4,4.3,9.1,8.4,15.8,6.7c4.4-1.1,8.4-2.4,12.8,0c0.8,0.5,2.5,0.3,3.4-0.3
			c4.7-3.3,10.4-5.7,11.4-12.3c0.4-2.8,2.6-4.5,4.8-4c3.9,0.9,4.1-2.2,4.1-3.8c0-4.8,2.3-9,2.3-13.7c0-1.6,0.3-3.6,2.7-3.2
			c9.3,1.4,11.3-4.6,11.6-15.9c-2.4,1.3-2.5,4.2-4.4,5.9c-2.2,1.9-4.7,1.6-6.8,1.6c-1.1,0-1.4-3.4-1.1-5.4
			c1.3-8.4,0.7-16.9,1.1-25.3c0.1-3.2-1-5-3.3-6.9c-1.8-1.5-4-2.3-5.3-0.8c-1,1.1-2.2,3.6,0.1,5.6c1.3,1.1,2.9,2.9,1.6,4.7
			c-1.7,2.3-4,0.8-5.8-0.2c-1.5-0.8-2.5-2-4.3-0.4c-1.4,1.3-16.4-0.1-17.6-1.5c-1-1.3-2.1-2.7-2.4-4.2c-0.4-1.9-0.2-4-0.2-6
			c0-8.1,5.4-13.6,13.6-13.5c4,0,7.9-0.4,11.9,0.8c1.4,0.4,4.8,1.3,4.1-2.1c-0.9-4.9-2.7-9.6-5.4-13.8c-0.5-0.7-0.9-1.6-2.2-1.5
			C348.1,7.7,346.1,4.4,345.2,0.1z M298,59.3c-5,2.4-9.7,2.3-14.4,1c-1.4-0.4-2.6-1.8-4.1-0.6c-1.6,1.4-0.7,3.1-0.3,4.5
			c2.2,6.7,8.1,10.4,12.7,15c1.9,1.9,3.6,3.4,4.3,6.2c0.8,3.2,0.7,6.9,4.3,9.4c0.7-2.4,1.3-4.3,3.4-5.4c3.7-1.9,5.3-4.9,3.4-9.1
			c-0.5-1.1,0.1-2.2,0.3-3.4c1.4-8.6,3.4-17,5.8-25.4c0.8-2.8-0.5-4-2.5-4.4c-3-0.6-4.9-2.4-7-4.2c-2-1.7-4.5-2.8-7.3-1.2
			c-1,0.6-2.4,1-1.8,2.4c0.5,1.2,1.6,0.6,2.6,0.2c4.2-1.7,6.3,1.2,7.5,4.2c1,2.5-3.1,6.2-6.5,6.4c-1.3,0.1-3.2-0.3-3.6,1.1
			C294.2,58.3,297,57.5,298,59.3z M357.6,40.1c-6-3.4-12.2-3-15.7,0.3c-0.8,0.8-1.8,1.8-1.2,3c0.5,1.1,1.7,0.8,2.5,0.1
			C347,39.8,351.8,40.1,357.6,40.1z M337.9,151.3c0.2-1.3-1.4-1.9-2.4-1.8c-2,0.1-3.9,0.8-4.2,3.3c-0.2,1.9,0.6,3.2,2.7,3.3
			C336.9,156.2,337.1,153.8,337.9,151.3z M290.7,103.8c1-1.4,1.6-2.7,1.5-4.3c-0.1-2-0.9-5-2.4-4.8c-2.7,0.4-0.5,2.9-0.5,4.5
			C289.2,100.7,288.8,102.5,290.7,103.8z"/>
		<path class="st2" d="M317.2,95.2c10-5.5,20.2-4.4,30.5-1.1c2.7,0.8,3,3.3,4.3,5.8c-4.5-0.3-8.3,1.6-12.7,0.4
			c-5.2-1.4-10.5,1-15.8,1c-1.4,0-3.1,1.2-2.6,2.9c0.5,1.5,2.3,0.9,3.5,0.7c4.1-0.5,8.1-2.6,12.3,0.1c3.2,2,2.1,3.5-0.1,5.1
			c-7.8,5.8-20.3,3.4-25.5-4.8C317.2,103.9,317.2,103.9,317.2,95.2z"/>
	</g>
	<g>
		<path class="st1" d="M563,0.1c0.9,4.4,2.9,7.7,8,7.4c1.3-0.1,1.8,0.8,2.2,1.5c2.7,4.2,4.6,8.9,5.4,13.8c0.6,3.5-2.7,2.6-4.1,2.1
			c-4-1.2-7.9-0.8-11.9-0.8C554.4,24,549,29.5,549,37.6c0,2-0.3,4.1,0.2,6c0.3,1.5,1.4,3,2.4,4.2c1.2,1.5,16.2,2.8,17.6,1.5
			c1.8-1.7,2.8-0.5,4.3,0.4c1.8,1,4.1,2.6,5.8,0.2c1.3-1.8-0.3-3.5-1.6-4.7c-2.3-2-1.1-4.5-0.1-5.6c1.3-1.5,3.5-0.6,5.3,0.8
			c2.3,1.9,3.4,3.8,3.3,6.9c-0.3,8.4,0.2,16.9-1.1,25.3c-0.3,2,0,5.4,1.1,5.4c2.1,0.1,4.7,0.3,6.8-1.6c1.9-1.7,2.1-4.5,4.4-5.9
			c-0.3,11.3-2.3,17.3-11.6,15.9c-2.4-0.4-2.7,1.7-2.7,3.2c0,4.7-2.4,8.9-2.3,13.7c0,1.7-0.2,4.7-4.1,3.8c-2.2-0.5-4.4,1.1-4.8,4
			c-1,6.6-6.7,9.1-11.4,12.3c-0.8,0.6-2.5,0.8-3.4,0.3c-4.3-2.4-8.4-1.1-12.8,0c-6.7,1.7-11.4-2.4-15.8-6.7
			c-1.9-1.8-3.9-3.4-6.3-4.8c-1.7-1-4.2-2.5-2.8-5.1c1.3-2.3,3.2-4.4,6.5-2.9c0.9,0.4,1.9,0.5,2.9,0.8c5.2,8.2,17.7,10.6,25.5,4.8
			c2.2-1.6,3.3-3.1,0.1-5.1c-4.2-2.7-8.2-0.6-12.3-0.1c-1.2,0.2-3.1,0.8-3.5-0.7c-0.5-1.7,1.2-2.9,2.6-2.9c5.3,0,10.6-2.4,15.8-1
			c4.4,1.2,8.2-0.7,12.7-0.4c-1.3-2.5-1.6-4.9-4.3-5.8c-10.3-3.2-20.5-4.3-30.5,1.1c1.7-4.2,7.7-8.1,12.1-7.7
			c1.7,0.1,1.7-1.2,1.8-2.3c0.2-2.7,1.6-3.8,4.3-4.5c4.2-1.1,6.3-6.4,4.4-10.1c-0.7-1.3-2-3-3.4-2.3c-5.2,2.7-10.6,1.4-16.1,0.8
			c-0.7-6.3,1.1-13-0.1-19.8c-1.4-8.1-1.9-16.3-8.6-22.4c-2.7-2.5-5.3-3.3-9-2c-6.2,2.2-12.6,3.8-18.1,7.8
			c-2.1-5.1,0.9-12.1,5.9-16.4c5.9-5.1,11.2-10.8,16.8-16.3C537.7,0.1,550.3,0.1,563,0.1z"/>
		<path class="st1" d="M515.8,59.3c-1-1.7-3.8-1-3.2-3.1c0.4-1.4,2.2-1,3.6-1.1c3.4-0.2,7.5-3.9,6.5-6.4c-1.2-3-3.3-5.9-7.5-4.2
			c-1,0.4-2.1,1-2.6-0.2c-0.6-1.4,0.9-1.9,1.8-2.4c2.8-1.6,5.2-0.5,7.3,1.2c2.2,1.8,4.1,3.6,7,4.2c1.9,0.4,3.2,1.6,2.5,4.4
			c-2.3,8.4-4.4,16.8-5.8,25.4c-0.2,1.1-0.8,2.3-0.3,3.4c1.9,4.2,0.3,7.2-3.4,9.1c-2.2,1.1-2.8,3-3.4,5.4c-3.6-2.5-3.5-6.2-4.3-9.4
			c-0.7-2.8-2.4-4.3-4.3-6.2c-4.6-4.6-10.5-8.4-12.7-15c-0.5-1.4-1.4-3.2,0.3-4.5c1.5-1.3,2.8,0.2,4.1,0.6
			C506.2,61.6,510.8,61.7,515.8,59.3z"/>
		<path class="st1" d="M575.4,40.1c-5.8,0-10.6-0.2-14.4,3.3c-0.8,0.8-2,1-2.5-0.1c-0.5-1.1,0.4-2.2,1.2-3
			C563.2,37.1,569.5,36.7,575.4,40.1z"/>
		<path class="st1" d="M555.7,151.3c-0.8,2.6-0.9,5-3.9,4.8c-2.1-0.2-2.8-1.5-2.7-3.3c0.2-2.4,2.2-3.2,4.2-3.3
			C554.3,149.4,555.9,150,555.7,151.3z"/>
		<path class="st1" d="M508.5,103.8c-2-1.3-1.5-3.1-1.5-4.6c0-1.6-2.1-4.1,0.5-4.5c1.5-0.2,2.3,2.8,2.4,4.8
			C510.1,101.1,509.5,102.4,508.5,103.8z"/>
	</g>
</g>
<g>
</g>
<g>
</g>
<g>
</g>
<g>
</g>
<g>
</g>
<g>
</g>
<g>
</g>
<g>
</g>
<g>
</g>
<g>
</g>
<g>
</g>
<g>
</g>
<g>
</g>
<g>
</g>
<g>
</g>
</svg>
