<?xml version="1.0" encoding="utf-8"?>
<!-- Generator: Adobe Illustrator 17.1.0, SVG Export Plug-In . SVG Version: 6.00 Build 0)  -->
<!DOCTYPE svg PUBLIC "-//W3C//DTD SVG 1.1//EN" "http://www.w3.org/Graphics/SVG/1.1/DTD/svg11.dtd">
<svg version="1.1" id="Layer_1" xmlns="http://www.w3.org/2000/svg" xmlns:xlink="http://www.w3.org/1999/xlink" x="0px" y="0px"
	 viewBox="0 0 640.7 230.2" style="enable-background:new 0 0 640.7 230.2;" xml:space="preserve">
<style type="text/css">
	.st0{fill:#FB0001;}
	.st1{fill:#080202;}
	.st2{fill:#F00203;}
</style>
<g>
	<g>
		<path class="st0" d="M185.1,230.1c-45,0-90,0-135,0c-2-4.9-2-10-2.3-15.1c0-1-0.8-2.6-2.5-2.7c-1.2,6.1,1.1,11.9,0.8,17.8
			c-14,0-28-0.1-41.9,0.1c-3.3,0.1-4.2-0.5-4.2-4C0.2,180.1,0.1,134,0.1,87.9C0.1,59.9,0.2,32,0,4c0-3.6,1-4,4.2-4
			c18.6,0.2,37.3,0.1,55.9,0.1c-3.2,10.9-1.4,22-0.8,33c0.3,4.6,0,7.9-3.6,10.9c-3.4,2.8-4.2,6.8-4.8,11.1c-0.6,4.2,0,8.2,0.3,12.3
			C51.9,78.1,61.4,89.6,71.1,88c1.5-0.2,4,1.8,4.6-1.8c0.5-3.3-0.1-5.1-3.5-6.3c-3.6-1.2-6.3-3.9-9-6.7c-4.9-4.9-2.4-11-3-16.5
			c-0.2-2.3,0-5.6,2.1-6c2.7-0.6,2.2,3,3,4.7c3.6,8.3,3.5,7,9.5,5.5c3.7-0.9,3.8-5.2,5.6-7.9c1.3-1.9-1.9-2.4-3.1-3.5
			c-1.2-1.1-3-2.4-1.6-4.1c2.3-2.9,1.2-6,1.5-9.1c0.4-5,1.2-9.9,5.7-13.1c2.2-1.5,3-4,2.2-6.2c-2.8-7.2,1.1-12,5.1-17c7,0,14,0,21,0
			c1.2,3.8,3.8,6.5,7.5,6.8c4.3,0.3,7-2.8,8.5-6.8c5,0,10,0,15,0c0.2,2.7,2.6,4.1,3.7,6.3c4.6,8.7,6.9,18.1,8.3,27.8
			c0.5,3.8-0.8,6.1-4.7,6.7c-2.4,0.4-4.9,0.7-7.3,1.3c-5.5,1.5-8.3,6.5-6.6,11.8c0.8,2.3,0.1,3-2.1,3.1c-2.8,0.2-5.7-0.3-8.4,1
			c-1.4-0.4-2.8-0.8-4.2-1.1c0.3-1,0.6-1.9,0.8-2.9c0.9-4,2.7-8.6-2.4-10.8c-4.5-2-9.4-3.5-14.2-4.1c-8-0.9-16.1,6.5-16.6,14.3
			c0,0.4,0.2,1.1,0.5,1.2c0.8,0.4,1.7,0.3,2.3-0.4c1.9-2.2,4.3-3.6,7.1-4.2c1.4-0.3,2.9-2,4.1-0.4c1.3,1.6,0.6,3.5-0.4,5.1
			c-0.7,1.1-1.4,2.4-2.5,3c-2.4,1.4-1.1,2.5-0.1,3.9c2.8,4.2,6.3,0.6,9.4,0.9c1.1,0.8,2.2,1.7,3.3,2.5c0,2.1-0.7,3.6-2.9,3.9
			c-1.1-0.5-2.1-0.7-3.2,0.1c-2,0.1-5.4-0.9-5.3,1.8c0.1,2.7,3.3,1.4,5.2,1.2c0.8-0.1,1.7,0,2.5-0.1c7-0.6,13.6-5.2,14.4-10.1
			c1.3-0.1,1.7-1.3,2.5-2.1c2.4,0.7,4.6-0.3,6.8-0.8c4.4-1.1,6.2,0.5,5.8,4.9c-0.1,1.2,0.1,2.3,0,3.5c-0.4,3.8,2.1,6.9,4.9,7.1
			c3.4,0.3,7.9,2.2,10.6-0.9c2.1-2.4,4.6-4.1,7.1-5c2.6-0.9,1.2-1.8,0.8-2.7c-0.6-1.4-1.9-2.5-2.9-0.8c-3.7,5.9-9.5,3.3-14.5,3.8
			c-1.3,0.1-2.8,0.1-2.9-1.9c-0.1-1.5,0.6-2.8,2.1-2.9c2.1-0.2,3-1.6,4.4-2.8c2.5-2.2,5.2-4.6,9.2-2.7c1.3,0.6,3.2,0.7,5.2-0.9
			c-2.2-1-3.9-1.7-5.6-2.5c0.5-0.9,0.7-2.1,1.8-2.2c4.6-0.4,4.8-3.5,4.9-7.1c0.1-4-0.6-7.9-1.1-11.9c-1.6-11.8-2.7-23.7-9-34.2
			c14.3,0,28.6,0.1,42.9-0.1c3.2,0,4.2,0.4,4.2,4c-0.2,40.4-0.1,80.9-0.1,121.3c0,32.6,0,65.2,0,97.8c0,7,0,7-7,7
			c0.7-8.7,1.7-17.4,1.9-26.2c0.3-12.6-2.2-25-3.1-37.5c-0.6-9.6-3.9-17.2-11.1-23.1c-8.1-6.6-17.5-11.4-24.7-19.1
			c-1.1-1.2-2.9-1.8-4.4-0.1c-1.8,1.9-4.1,3.2-3.4,6.6c1.5,6.7,2.8,13.6,3.7,20.4c0.5,3.7,1.5,6.9-5.6,6.7c-6-0.1-4.5-2.8-4.1-5.2
			c0.9-5,0.4-10-0.9-14.6c-1.8-5.8-0.3-9.8,4.2-12.8c4.3-2.9,5.6-7,6.6-11.6c1.2-5.6,2.2-11.4,4.2-16.7c1.9-5.3,2.9-10.5,2.7-16
			c-0.1-1.4,0.6-3.2-1.5-3.7c-1.9-0.4-3,0.8-4.1,2.2c-1.8,2.4-1.4,5.4-2.2,8.1c-0.6,2-1,2-3,1.4c-5-1.5-6.8-5-6.4-10.1
			c-5,3.3-5,3.3-9.5,1c-7.3-3.8-11.5-1.7-12.3,6.1c-0.2,2.3-1.2,3.9-3.1,5.3c-2.6,2-5.3,3.9-6.2,7.5c-0.9,3.5,1.5,6.6,4.6,5.1
			c5.7-2.9,11.9-3,17.7-4.8c0,1,0,2,0,3c-6.7,0.5-8.9,2.9-8.5,9.2c0.2,2.1-0.4,2.9-2.4,2.5c-5.2-1.1-11.1,0.6-15.6-3.7
			c-1.4-1.3-3.5-0.8-5.3-0.9c-3.5-0.2-6.5-1.1-8.6-4.1c-1-1.4-1.8-3.7-4.1-2.5c-1.9,1-3.3,2.5-3.5,5c-0.7,8.2,0.7,10.6,8.5,13.6
			c3.8,1.5,8.2,2.3,11.2,5.2c6.2,6.2,12.8,10.5,22.2,7.9c1.5-0.4,4.6-0.3,2.9,3.5c-1.6,3.6-1.8,7.4,1.8,10.4
			c1.4,1.2,1.6,2.9,1.4,4.6c-0.4,4.6-0.3,9.3-1.5,13.8c-1,4,0.3,8-1.1,11.8c-0.9,2.4-1.8,3.7-4,1.5c-2.7-2.7-5.6-5.2-8-8.2
			c-8.6-11-18-21.1-29.7-28.8c-1.3-0.8-2.7-2.7-0.5-3.3c2.6-0.7,4.1-1.1,3.9-4.3c-0.2-3.2-2.3-4.3-4.6-5c-5-1.6-5.2-5.5-4.1-9.2
			c1.1-3.7-0.6-5.6-2.9-7.6c-1.6-1.4-3-0.6-4.4,0.4c-2.5,1.8-3.5,4-2.7,7.3c1.2,4.9,1.9,10,2.8,15.1c-1.4,0.6-2.8,1.3-4.1,1.9
			c-1.9,1.1-2.3,2.8-2,4.7c0.8,4.9,1.4,9.8,2.6,14.6c2.2,8.8,8.4,15.6,12.1,23.8c0.8,1.9,2.7,2.2,4.7,2c6.9-0.5,12.5-8.8,11.2-16.7
			c-0.2-0.9-1.1-2.1,0.2-2.6c1.5-0.6,1.8,0.8,2.2,1.9c2.5,6.3,6.5,11.5,11.3,16.2c5.8,5.8,12.4,10.9,16.1,18.7
			c0.9,1.9,1,5.8,4.5,4.7c3.8-1.2,1.7-4.9,2-7.4c0.1-1-0.8-2.1-1.3-3.1c-0.8-1.6-1.1-3.5,0.2-4.7c2.7-2.7,3.2-5.9,3.6-9.5
			c0.4-3.8,1.3-7.5,1.7-11.2c0.2-2.5,2-2.1,3.5-2.6c1.8-0.7,2,0.1,2.7,1.6c1.5,3.8,5.4,4.6,8.8,5.5c1.8,0.5,4.5,1.1,5.6-0.7
			c1.2-2.1,1.4-5.2-0.3-7.1c-2.5-2.7-2.6-5.8-2.1-8.8c1-5.8,0.7-11.4-1-17.1c-0.3-1,0-2.2,0-3.3c4.2,7.1,12.3,9.6,17.4,15.3
			c5.4,6.1,8.7,13.2,8.6,21.7c0,3.8,1.1,7.5,1.4,11.3c0.7,8.6,2.4,17.1,1.3,25.8C186.1,217.3,185.5,223.7,185.1,230.1z M72.1,105.8
			c0-2.9,0.2-4.5-1.4-5.3c-1.6-0.8-3,0.2-4.1,1c-10.2,7.1-20.9,13.5-29.7,22.4c-2.7,2.7-5.7,5.1-8.6,7.5c-1.7,1.4-3.9,2.4-6,1.3
			c-2-1-2-3.2-2-5.3c-0.1-2.1,0.6-4.4-0.7-6.3c-3.1-4.6-4.7-9.8-5.8-15.1c-0.5-2.3-0.2-4.7-0.7-6.9c-0.7-3-2.9-4.8-5.9-3.6
			c-2.2,0.8-4.7,2.4-2.8,5.7c5.1,9.3,7,20,13,28.9c2.5,3.7,2.6,8,1.7,12c-0.9,4,0.9,5.9,4,6.7c2.7,0.7,5.2,0.1,6.8-3.2
			c3.1-6.2,8.3-11,12.2-16.7c1.6-2.3,4.6-1.4,6.5-3.4c5.1-5.6,11.4-9.9,17.8-13.8C68.9,109.9,71.8,108.2,72.1,105.8z M38.6,188
			c0.8,4.9-0.1,8.7,3.2,11.7C42.7,195.6,41.8,192.3,38.6,188z"/>
		<path class="st1" d="M76.3,136c-0.9-5-1.6-10.1-2.8-15.1c-0.8-3.3,0.2-5.5,2.7-7.3c1.4-1,2.8-1.8,4.4-0.4c2.4,2,4,3.9,2.9,7.6
			c-1.1,3.8-0.9,7.7,4.1,9.2c2.3,0.7,4.5,1.8,4.6,5c0.2,3.2-1.3,3.6-3.9,4.3c-2.2,0.6-0.8,2.4,0.5,3.3c11.7,7.8,21.1,17.9,29.7,28.8
			c2.3,3,5.3,5.5,8,8.2c2.3,2.2,3.1,0.9,4-1.5c1.4-3.9,0.1-7.9,1.1-11.8c1.1-4.4,1-9.2,1.5-13.8c0.1-1.7,0-3.4-1.4-4.6
			c-3.6-3-3.3-6.8-1.8-10.4c1.6-3.8-1.5-3.9-2.9-3.5c-9.4,2.6-16-1.7-22.2-7.9c-3-3-7.3-3.7-11.2-5.2c-7.8-3.1-9.2-5.4-8.5-13.6
			c0.2-2.5,1.6-4.1,3.5-5c2.3-1.2,3.1,1.1,4.1,2.5c2.1,3,5.2,3.9,8.6,4.1c1.8,0.1,3.9-0.5,5.3,0.9c4.5,4.2,10.4,2.6,15.6,3.7
			c2,0.4,2.5-0.4,2.4-2.5c-0.5-6.3,1.8-8.6,8.5-9.2c1,0,2,0,3,0l0.5,0.1l0.5-0.1c5.5,1.6,1.6,6.6,3.5,9.7c1.9-0.7,2.7-2.4,3.2-4.1
			c1.1-3.4-0.9-7.8-3.7-8.3c-0.9-0.5-1.8-1.3-3-0.9c-1.4-0.2-2.9-0.6-4.1,0.7c-5.9,1.8-12.1,1.9-17.7,4.8c-3.1,1.6-5.4-1.5-4.6-5.1
			c0.9-3.5,3.6-5.5,6.2-7.5c1.9-1.4,2.9-3,3.1-5.3c0.8-7.8,5-9.9,12.3-6.1c4.5,2.3,4.5,2.3,9.5-1c-0.4,5.2,1.4,8.6,6.4,10.1
			c2,0.6,2.3,0.6,3-1.4c0.8-2.7,0.5-5.7,2.2-8.1c1-1.4,2.2-2.7,4.1-2.2c2.1,0.5,1.5,2.3,1.5,3.7c0.2,5.5-0.7,10.7-2.7,16
			c-2,5.4-3,11.1-4.2,16.7c-1,4.6-2.3,8.7-6.6,11.6c-4.5,3-6,7-4.2,12.8c1.4,4.5,1.9,9.6,0.9,14.6c-0.5,2.4-1.9,5,4.1,5.2
			c7.1,0.2,6.1-3,5.6-6.7c-0.9-6.8-2.2-13.7-3.7-20.4c-0.8-3.4,1.6-4.7,3.4-6.6c1.5-1.6,3.4-1,4.4,0.1c7.2,7.8,16.6,12.6,24.7,19.1
			c7.3,5.9,10.5,13.5,11.1,23.1c0.8,12.5,3.3,24.9,3.1,37.5c-0.2,8.7-1.2,17.5-1.9,26.2c-2.7,0-5.3,0-8,0c0.4-6.4,1-12.8,1.8-19.2
			c1-8.6-0.7-17.2-1.3-25.8c-0.3-3.8-1.4-7.5-1.4-11.3c0-8.5-3.2-15.6-8.6-21.7c-5.1-5.7-13.2-8.1-17.4-15.3c0,1.1-0.3,2.3,0,3.3
			c1.7,5.6,2,11.2,1,17.1c-0.5,3-0.4,6.1,2.1,8.8c1.7,1.8,1.5,5,0.3,7.1c-1,1.8-3.8,1.2-5.6,0.7c-3.4-0.9-7.3-1.7-8.8-5.5
			c-0.6-1.5-0.9-2.3-2.7-1.6c-1.5,0.6-3.2,0.1-3.5,2.6c-0.3,3.8-1.3,7.5-1.7,11.2c-0.3,3.5-0.9,6.8-3.6,9.5c-1.2,1.2-1,3.1-0.2,4.7
			c0.5,1,1.5,2.1,1.3,3.1c-0.3,2.6,1.8,6.3-2,7.4c-3.5,1.1-3.6-2.8-4.5-4.7c-3.6-7.8-10.2-12.9-16.1-18.7c-4.8-4.8-8.8-10-11.3-16.2
			c-0.4-1.1-0.8-2.5-2.2-1.9c-1.3,0.5-0.4,1.6-0.2,2.6c1.3,7.8-4.4,16.1-11.2,16.7c-2,0.2-3.9-0.1-4.7-2
			c-3.6-8.1-9.9-14.9-12.1-23.8c-1.2-4.8-1.8-9.7-2.6-14.6c-0.3-1.9,0.1-3.7,2-4.7c3,0.1,4,2.1,3.9,4.7c-0.2,9.7,6.4,16.3,10.8,23.9
			c0.5,0.9,1,1.7,2.3,0.8c3-2,3.6-7.9,1.1-10.6C84.6,150.6,79.8,143.8,76.3,136z"/>
		<path class="st1" d="M90.1,0.1c-4,5-7.9,9.8-5.1,17c0.8,2.2,0,4.6-2.2,6.2c-4.5,3.2-5.3,8.1-5.7,13.1c-0.3,3,0.9,6.2-1.5,9.1
			c-1.4,1.7,0.4,3,1.6,4.1c1.2,1.1,4.3,1.7,3.1,3.5c-1.8,2.7-1.9,7-5.6,7.9c-6,1.5-5.9,2.7-9.5-5.5c-0.8-1.8-0.3-5.3-3-4.7
			c-2.1,0.4-2.4,3.7-2.1,6c0.6,5.6-1.9,11.6,3,16.5c2.7,2.8,5.4,5.5,9,6.7c3.4,1.2,4,3,3.5,6.3c-0.5,3.7-3.1,1.6-4.6,1.8
			c-9.7,1.6-19.2-9.9-19.9-20.7c-0.2-4-0.8-8.1-0.3-12.3c0.6-4.3,1.4-8.2,4.8-11.1c3.5-3,3.8-6.3,3.6-10.9c-0.6-11-2.5-22.1,0.8-33
			C70.1,0.1,80.1,0.1,90.1,0.1z M69,25.6c-3.3,5.1-0.7,9.7,0,14.3C69,35.4,69,30.8,69,25.6z"/>
		<path class="st1" d="M153.1,0.1c6.2,10.6,7.4,22.5,9,34.2c0.5,3.9,1.2,7.8,1.1,11.9c-0.1,3.7-0.3,6.7-4.9,7.1
			c-1.1,0.1-1.4,1.3-1.8,2.2c1.7,0.8,3.4,1.5,5.6,2.5c-2,1.6-3.9,1.5-5.2,0.9c-4-2-6.7,0.5-9.2,2.7c-1.4,1.2-2.3,2.6-4.4,2.8
			c-1.5,0.1-2.2,1.4-2.1,2.9c0.1,2,1.6,2,2.9,1.9c5-0.5,10.8,2.1,14.5-3.8c1-1.7,2.3-0.6,2.9,0.8c0.4,0.9,1.8,1.8-0.8,2.7
			c-2.5,0.9-5,2.6-7.1,5c-2.7,3.1-7.2,1.2-10.6,0.9c-2.7-0.2-5.3-3.3-4.9-7.1c0.1-1.2-0.1-2.3,0-3.5c0.3-4.4-1.5-6-5.8-4.9
			c-2.2,0.6-4.4,1.6-6.8,0.8c-0.1-0.6-0.3-1.2-0.4-1.9c2.7-1.3,5.6-0.7,8.4-1c2.2-0.2,2.9-0.8,2.1-3.1c-1.7-5.3,1.1-10.2,6.6-11.8
			c2.4-0.7,4.8-1,7.3-1.3c3.9-0.6,5.2-2.9,4.7-6.7c-1.4-9.7-3.6-19.1-8.3-27.8c-1.1-2.2-3.5-3.6-3.7-6.3
			C145.8,0.1,149.4,0.1,153.1,0.1z M144.2,54.6c3.2,0.9,5.6,0.4,8,1.4c2,0.8,2.9-0.7,3.4-2.5c0.2-0.8,1.8-1.3,0.9-2.4
			c-1.3-1.6-2.8-0.3-4,0.1C149.8,52,147.4,53.2,144.2,54.6z"/>
		<path class="st1" d="M127.1,0.1c-1.5,3.9-4.2,7-8.5,6.8c-3.7-0.2-6.4-3-7.5-6.8C116.4,0.1,121.8,0.1,127.1,0.1z"/>
		<path class="st1" d="M46.1,230.1c0.3-5.9-2-11.7-0.8-17.8c1.7,0.1,2.5,1.7,2.5,2.7c0.2,5.1,0.3,10.3,2.3,15.1
			C48.8,230.1,47.4,230.1,46.1,230.1z"/>
		<path class="st1" d="M72.1,105.8c-0.3,2.4-3.2,4.1-6,5.8c-6.4,4-12.7,8.2-17.8,13.8c-1.8,2-4.9,1.1-6.5,3.4
			c-4,5.6-9.1,10.5-12.2,16.7c-1.6,3.3-4.1,3.9-6.8,3.2c-3.1-0.8-4.9-2.7-4-6.7c0.9-4,0.8-8.3-1.7-12c-6-8.9-7.9-19.6-13-28.9
			c-1.8-3.3,0.7-4.9,2.8-5.7c3-1.1,5.2,0.7,5.9,3.6c0.5,2.2,0.3,4.6,0.7,6.9c1.1,5.4,2.8,10.5,5.8,15.1c1.3,1.9,0.6,4.2,0.7,6.3
			c0.1,2.1,0,4.3,2,5.3c2.1,1.1,4.3,0,6-1.3c3-2.4,6-4.8,8.6-7.5c8.8-8.9,19.5-15.3,29.7-22.4c1.2-0.8,2.5-1.9,4.1-1
			C72.3,101.3,72.1,102.9,72.1,105.8z"/>
		<path class="st1" d="M108.9,62.8c-3.1-0.3-6.6,3.3-9.4-0.9c-1-1.5-2.3-2.5,0.1-3.9c1.1-0.6,1.8-1.9,2.5-3c1-1.6,1.7-3.5,0.4-5.1
			c-1.2-1.5-2.8,0.2-4.1,0.4c-2.8,0.5-5.2,1.9-7.1,4.2c-0.6,0.7-1.5,0.9-2.3,0.4c-0.3-0.2-0.6-0.8-0.5-1.2
			c0.5-7.8,8.6-15.2,16.6-14.3c4.8,0.6,9.7,2.1,14.2,4.1c5.1,2.2,3.2,6.8,2.4,10.8c-0.2,1-0.6,1.9-0.8,2.9
			C116.2,57.5,111.1,57.3,108.9,62.8z"/>
		<path class="st2" d="M76.3,136c3.5,7.7,8.3,14.5,14,20.8c2.5,2.7,1.9,8.6-1.1,10.6c-1.3,0.8-1.8,0-2.3-0.8
			c-4.4-7.6-11-14.2-10.8-23.9c0.1-2.6-0.9-4.5-3.9-4.7C73.5,137.3,74.9,136.7,76.3,136z"/>
		<path class="st1" d="M122.9,62c-0.8,4.9-7.4,9.5-14.4,10.1c-0.8,0.1-1.7,0-2.5,0.1c-2,0.2-5.1,1.6-5.2-1.2
			c-0.1-2.7,3.3-1.7,5.3-1.8c1.1,1.2,2.2,1.2,3.2-0.1c2.3-0.3,3-1.8,2.9-3.9c2.1-1.3,3.2-3.7,5.7-4.5
			C119.8,60.2,121.9,58.7,122.9,62z"/>
		<path class="st2" d="M122.9,62c-1-3.3-3.1-1.8-5.1-1.2c-2.5,0.7-3.6,3.2-5.7,4.5c-1.1-0.8-2.2-1.7-3.3-2.5
			c2.2-5.5,7.2-5.3,11.8-5.8c1.4,0.4,2.8,0.8,4.2,1.1c0.1,0.6,0.3,1.2,0.4,1.9C124.7,60.7,124.2,61.9,122.9,62z"/>
		<path class="st1" d="M38.6,188c3.2,4.3,4.2,7.7,3.2,11.7C38.5,196.7,39.3,192.8,38.6,188z"/>
		<path class="st2" d="M133.1,98.9c1.2-1.3,2.6-0.8,4.1-0.7c0,0.9,0,1.9,0,2.8l0,0c-0.3,0.3-0.7,0.6-1,0.8c-1,0-2,0-3,0
			C133.1,100.9,133.1,99.9,133.1,98.9z"/>
		<path class="st2" d="M109.3,69.2c-1,1.2-2.1,1.2-3.2,0.1C107.1,68.4,108.2,68.7,109.3,69.2z"/>
		<path class="st2" d="M140.1,99.2c2.8,0.5,4.9,4.9,3.7,8.3c-0.6,1.7-1.3,3.4-3.2,4.1c-1.9-3,2-8-3.5-9.7c0-0.3,0-0.6,0-0.8l0,0
			C138.4,101,139.5,100.5,140.1,99.2z"/>
		<path class="st0" d="M140.1,99.2c-0.6,1.3-1.7,1.8-3,1.9c0-0.9,0-1.9,0-2.8C138.3,97.9,139.2,98.7,140.1,99.2z"/>
		<path class="st0" d="M137.1,101.1c0,0.3,0,0.6,0,0.8l-0.5,0.1l-0.5-0.1C136.5,101.7,136.8,101.4,137.1,101.1z"/>
		<path class="st2" d="M69,25.6c0,5.2,0,9.7,0,14.3C68.3,35.3,65.7,30.7,69,25.6z"/>
		<path class="st2" d="M144.2,54.6c3.2-1.3,5.6-2.5,8.2-3.4c1.2-0.4,2.7-1.8,4-0.1c0.9,1.1-0.7,1.6-0.9,2.4
			c-0.5,1.8-1.4,3.3-3.4,2.5C149.9,54.9,147.4,55.4,144.2,54.6z"/>
	</g>
	<g>
		<path class="st1" d="M296.5,136c-0.9-5-1.6-10.1-2.8-15.1c-0.8-3.3,0.2-5.5,2.7-7.3c1.4-1,2.8-1.8,4.4-0.4c2.4,2,4,3.9,2.9,7.6
			c-1.1,3.8-0.9,7.7,4.1,9.2c2.3,0.7,4.5,1.8,4.6,5c0.2,3.2-1.3,3.6-3.9,4.3c-2.2,0.6-0.8,2.4,0.5,3.3c11.7,7.8,21.1,17.9,29.7,28.8
			c2.3,3,5.3,5.5,8,8.2c2.3,2.2,3.1,0.9,4-1.5c1.4-3.9,0.1-7.9,1.1-11.8c1.1-4.4,1-9.2,1.5-13.8c0.1-1.7,0-3.4-1.4-4.6
			c-3.6-3-3.3-6.8-1.8-10.4c1.6-3.8-1.5-3.9-2.9-3.5c-9.4,2.6-16-1.7-22.2-7.9c-3-3-7.3-3.7-11.2-5.2c-7.8-3.1-9.2-5.4-8.5-13.6
			c0.2-2.5,1.6-4.1,3.5-5c2.3-1.2,3.1,1.1,4.1,2.5c2.1,3,5.2,3.9,8.6,4.1c1.8,0.1,3.9-0.5,5.3,0.9c4.5,4.2,10.4,2.6,15.6,3.7
			c2,0.4,2.5-0.4,2.4-2.5c-0.5-6.3,1.8-8.6,8.5-9.2c1,0,2,0,3,0l0.5,0.1l0.5-0.1c5.5,1.6,1.6,6.6,3.5,9.7c1.9-0.7,2.7-2.4,3.2-4.1
			c1.1-3.4-0.9-7.8-3.7-8.3c-0.9-0.5-1.8-1.3-3-0.9c-1.4-0.2-2.9-0.6-4.1,0.7c-5.9,1.8-12.1,1.9-17.7,4.8c-3.1,1.6-5.4-1.5-4.6-5.1
			c0.9-3.5,3.6-5.5,6.2-7.5c1.9-1.4,2.9-3,3.1-5.3c0.8-7.8,5-9.9,12.3-6.1c4.5,2.3,4.5,2.3,9.5-1c-0.4,5.2,1.4,8.6,6.4,10.1
			c2,0.6,2.3,0.6,3-1.4c0.8-2.7,0.5-5.7,2.2-8.1c1-1.4,2.2-2.7,4.1-2.2c2.1,0.5,1.5,2.3,1.5,3.7c0.2,5.5-0.7,10.7-2.7,16
			c-2,5.4-3,11.1-4.2,16.7c-1,4.6-2.3,8.7-6.6,11.6c-4.5,3-6,7-4.2,12.8c1.4,4.5,1.9,9.6,0.9,14.6c-0.5,2.4-1.9,5,4.1,5.2
			c7.1,0.2,6.1-3,5.6-6.7c-0.9-6.8-2.2-13.7-3.7-20.4c-0.8-3.4,1.6-4.7,3.4-6.6c1.5-1.6,3.4-1,4.4,0.1c7.2,7.8,16.6,12.6,24.7,19.1
			c7.3,5.9,10.5,13.5,11.1,23.1c0.8,12.5,3.3,24.9,3.1,37.5c-0.2,8.7-1.2,17.5-1.9,26.2c-2.7,0-5.3,0-8,0c0.4-6.4,1-12.8,1.8-19.2
			c1-8.6-0.7-17.2-1.3-25.8c-0.3-3.8-1.4-7.5-1.4-11.3c0-8.5-3.2-15.6-8.6-21.7c-5.1-5.7-13.2-8.1-17.4-15.3c0,1.1-0.3,2.3,0,3.3
			c1.7,5.6,2,11.2,1,17.1c-0.5,3-0.4,6.1,2.1,8.8c1.7,1.8,1.5,5,0.3,7.1c-1,1.8-3.8,1.2-5.6,0.7c-3.4-0.9-7.3-1.7-8.8-5.5
			c-0.6-1.5-0.9-2.3-2.7-1.6c-1.5,0.6-3.2,0.1-3.5,2.6c-0.3,3.8-1.3,7.5-1.7,11.2c-0.3,3.5-0.9,6.8-3.6,9.5c-1.2,1.2-1,3.1-0.2,4.7
			c0.5,1,1.5,2.1,1.3,3.1c-0.3,2.6,1.8,6.3-2,7.4c-3.5,1.1-3.6-2.8-4.5-4.7c-3.6-7.8-10.2-12.9-16.1-18.7c-4.8-4.8-8.8-10-11.3-16.2
			c-0.4-1.1-0.8-2.5-2.2-1.9c-1.3,0.5-0.4,1.6-0.2,2.6c1.3,7.8-4.4,16.1-11.2,16.7c-2,0.2-3.9-0.1-4.7-2
			c-3.6-8.1-9.9-14.9-12.1-23.8c-1.2-4.8-1.8-9.7-2.6-14.6c-0.3-1.9,0.1-3.7,2-4.7c3,0.1,4,2.1,3.9,4.7c-0.2,9.7,6.4,16.3,10.8,23.9
			c0.5,0.9,1,1.7,2.3,0.8c3-2,3.6-7.9,1.1-10.6C304.8,150.6,300,143.8,296.5,136z"/>
		<path class="st1" d="M310.3,0.1c-4,5-7.9,9.8-5.1,17c0.8,2.2,0,4.6-2.2,6.2c-4.5,3.2-5.3,8.1-5.7,13.1c-0.3,3,0.9,6.2-1.5,9.1
			c-1.4,1.7,0.4,3,1.6,4.1c1.2,1.1,4.3,1.7,3.1,3.5c-1.8,2.7-1.9,7-5.6,7.9c-6,1.5-5.9,2.7-9.5-5.5c-0.8-1.8-0.3-5.3-3-4.7
			c-2.1,0.4-2.4,3.7-2.1,6c0.6,5.6-1.9,11.6,3,16.5c2.7,2.8,5.4,5.5,9,6.7c3.4,1.2,4,3,3.5,6.3c-0.5,3.7-3.1,1.6-4.6,1.8
			c-9.7,1.6-19.2-9.9-19.9-20.7c-0.2-4-0.8-8.1-0.3-12.3c0.6-4.3,1.4-8.2,4.8-11.1c3.5-3,3.8-6.3,3.6-10.9c-0.6-11-2.5-22.1,0.8-33
			C290.3,0.1,300.3,0.1,310.3,0.1z M289.2,25.6c-3.3,5.1-0.7,9.7,0,14.3C289.2,35.4,289.2,30.8,289.2,25.6z"/>
		<path class="st1" d="M373.3,0.1c6.2,10.6,7.4,22.5,9,34.2c0.5,3.9,1.2,7.8,1.1,11.9c-0.1,3.7-0.3,6.7-4.9,7.1
			c-1.1,0.1-1.4,1.3-1.8,2.2c1.7,0.8,3.4,1.5,5.6,2.5c-2,1.6-3.9,1.5-5.2,0.9c-4-2-6.7,0.5-9.2,2.7c-1.4,1.2-2.3,2.6-4.4,2.8
			c-1.5,0.1-2.2,1.4-2.1,2.9c0.1,2,1.6,2,2.9,1.9c5-0.5,10.8,2.1,14.5-3.8c1-1.7,2.3-0.6,2.9,0.8c0.4,0.9,1.8,1.8-0.8,2.7
			c-2.5,0.9-5,2.6-7.1,5c-2.7,3.1-7.2,1.2-10.6,0.9c-2.7-0.2-5.3-3.3-4.9-7.1c0.1-1.2-0.1-2.3,0-3.5c0.3-4.4-1.5-6-5.8-4.9
			c-2.2,0.6-4.4,1.6-6.8,0.8c-0.1-0.6-0.3-1.2-0.4-1.9c2.7-1.3,5.6-0.7,8.4-1c2.2-0.2,2.9-0.8,2.1-3.1c-1.7-5.3,1.1-10.2,6.6-11.8
			c2.4-0.7,4.8-1,7.3-1.3c3.9-0.6,5.2-2.9,4.7-6.7c-1.4-9.7-3.6-19.1-8.3-27.8c-1.1-2.2-3.5-3.6-3.7-6.3
			C366,0.1,369.7,0.1,373.3,0.1z M364.4,54.6c3.2,0.9,5.6,0.4,8,1.4c2,0.8,2.9-0.7,3.4-2.5c0.2-0.8,1.8-1.3,0.9-2.4
			c-1.3-1.6-2.8-0.3-4,0.1C370.1,52,367.6,53.2,364.4,54.6z"/>
		<path class="st1" d="M347.3,0.1c-1.5,3.9-4.2,7-8.5,6.8c-3.7-0.2-6.4-3-7.5-6.8C336.7,0.1,342,0.1,347.3,0.1z"/>
		<path class="st1" d="M266.3,230.1c0.3-5.9-2-11.7-0.8-17.8c1.7,0.1,2.5,1.7,2.5,2.7c0.2,5.1,0.3,10.3,2.3,15.1
			C269,230.1,267.7,230.1,266.3,230.1z"/>
		<path class="st1" d="M292.3,105.8c-0.3,2.4-3.2,4.1-6,5.8c-6.4,4-12.7,8.2-17.8,13.8c-1.8,2-4.9,1.1-6.5,3.4
			c-4,5.6-9.1,10.5-12.2,16.7c-1.6,3.3-4.1,3.9-6.8,3.2c-3.1-0.8-4.9-2.7-4-6.7c0.9-4,0.8-8.3-1.7-12c-6-8.9-7.9-19.6-13-28.9
			c-1.8-3.3,0.7-4.9,2.8-5.7c3-1.1,5.2,0.7,5.9,3.6c0.5,2.2,0.3,4.6,0.7,6.9c1.1,5.4,2.8,10.5,5.8,15.1c1.3,1.9,0.6,4.2,0.7,6.3
			c0.1,2.1,0,4.3,2,5.3c2.1,1.1,4.3,0,6-1.3c3-2.4,6-4.8,8.6-7.5c8.8-8.9,19.5-15.3,29.7-22.4c1.2-0.8,2.5-1.9,4.1-1
			C292.5,101.3,292.3,102.9,292.3,105.8z"/>
		<path class="st1" d="M329.2,62.8c-3.1-0.3-6.6,3.3-9.4-0.9c-1-1.5-2.3-2.5,0.1-3.9c1.1-0.6,1.8-1.9,2.5-3c1-1.6,1.7-3.5,0.4-5.1
			c-1.2-1.5-2.8,0.2-4.1,0.4c-2.8,0.5-5.2,1.9-7.1,4.2c-0.6,0.7-1.5,0.9-2.3,0.4c-0.3-0.2-0.6-0.8-0.5-1.2
			c0.5-7.8,8.6-15.2,16.6-14.3c4.8,0.6,9.7,2.1,14.2,4.1c5.1,2.2,3.2,6.8,2.4,10.8c-0.2,1-0.6,1.9-0.8,2.9
			C336.4,57.5,331.4,57.3,329.2,62.8z"/>
		<path class="st1" d="M343.2,62c-0.8,4.9-7.4,9.5-14.4,10.1c-0.8,0.1-1.7,0-2.5,0.1c-2,0.2-5.1,1.6-5.2-1.2
			c-0.1-2.7,3.3-1.7,5.3-1.8c1.1,1.2,2.2,1.2,3.2-0.1c2.3-0.3,3-1.8,2.9-3.9c2.1-1.3,3.2-3.7,5.7-4.5C340,60.2,342.2,58.7,343.2,62z
			"/>
		<path class="st1" d="M258.8,188c3.2,4.3,4.2,7.7,3.2,11.7C258.7,196.7,259.6,192.8,258.8,188z"/>
	</g>
	<g>
		<path class="st0" d="M625.6,230.1c-45,0-90,0-135,0c-2-4.9-2-10-2.3-15.1c0-1-0.8-2.6-2.5-2.7c-1.2,6.1,1.1,11.9,0.8,17.8
			c-14,0-28-0.1-41.9,0.1c-3.3,0.1-4.2-0.5-4.2-4c0.2-46.1,0.1-92.2,0.1-138.3c0-28,0.1-55.9-0.1-83.9c0-3.6,1-4,4.2-4
			c18.6,0.2,37.3,0.1,55.9,0.1c-3.2,10.9-1.4,22-0.8,33c0.3,4.6,0,7.9-3.6,10.9c-3.4,2.8-4.2,6.8-4.8,11.1c-0.6,4.2,0,8.2,0.3,12.3
			c0.6,10.8,10.2,22.3,19.9,20.7c1.5-0.2,4,1.8,4.6-1.8c0.5-3.3-0.1-5.1-3.5-6.3c-3.6-1.2-6.3-3.9-9-6.7c-4.9-4.9-2.4-11-3-16.5
			c-0.2-2.3,0-5.6,2.1-6c2.7-0.6,2.2,3,3,4.7c3.6,8.3,3.5,7,9.5,5.5c3.7-0.9,3.8-5.2,5.6-7.9c1.3-1.9-1.9-2.4-3.1-3.5
			c-1.2-1.1-3-2.4-1.6-4.1c2.3-2.9,1.2-6,1.5-9.1c0.4-5,1.2-9.9,5.7-13.1c2.2-1.5,3-4,2.2-6.2c-2.8-7.2,1.1-12,5.1-17c7,0,14,0,21,0
			c1.2,3.8,3.8,6.5,7.5,6.8c4.3,0.3,7-2.8,8.5-6.8c5,0,10,0,15,0c0.2,2.7,2.6,4.1,3.7,6.3c4.6,8.7,6.9,18.1,8.3,27.8
			c0.5,3.8-0.8,6.1-4.7,6.7c-2.4,0.4-4.9,0.7-7.3,1.3c-5.5,1.5-8.3,6.5-6.6,11.8c0.8,2.3,0.1,3-2.1,3.1c-2.8,0.2-5.7-0.3-8.4,1
			c-1.4-0.4-2.8-0.8-4.2-1.1c0.3-1,0.6-1.9,0.8-2.9c0.9-4,2.7-8.6-2.4-10.8c-4.5-2-9.4-3.5-14.2-4.1c-8-0.9-16.1,6.5-16.6,14.3
			c0,0.4,0.2,1.1,0.5,1.2c0.8,0.4,1.7,0.3,2.3-0.4c1.9-2.2,4.3-3.6,7.1-4.2c1.4-0.3,2.9-2,4.1-0.4c1.3,1.6,0.6,3.5-0.4,5.1
			c-0.7,1.1-1.4,2.4-2.5,3c-2.4,1.4-1.1,2.5-0.1,3.9c2.8,4.2,6.3,0.6,9.4,0.9c1.1,0.8,2.2,1.7,3.3,2.5c0,2.1-0.7,3.6-2.9,3.9
			c-1.1-0.5-2.1-0.7-3.2,0.1c-2,0.1-5.4-0.9-5.3,1.8c0.1,2.7,3.3,1.4,5.2,1.2c0.8-0.1,1.7,0,2.5-0.1c7-0.6,13.6-5.2,14.4-10.1
			c1.3-0.1,1.7-1.3,2.5-2.1c2.4,0.7,4.6-0.3,6.8-0.8c4.4-1.1,6.2,0.5,5.8,4.9c-0.1,1.2,0.1,2.3,0,3.5c-0.4,3.8,2.1,6.9,4.9,7.1
			c3.4,0.3,7.9,2.2,10.6-0.9c2.1-2.4,4.6-4.1,7.1-5c2.6-0.9,1.2-1.8,0.8-2.7c-0.6-1.4-1.9-2.5-2.9-0.8c-3.7,5.9-9.5,3.3-14.5,3.8
			c-1.3,0.1-2.8,0.1-2.9-1.9c-0.1-1.5,0.6-2.8,2.1-2.9c2.1-0.2,3-1.6,4.4-2.8c2.5-2.2,5.2-4.6,9.2-2.7c1.3,0.6,3.2,0.7,5.2-0.9
			c-2.2-1-3.9-1.7-5.6-2.5c0.5-0.9,0.7-2.1,1.8-2.2c4.6-0.4,4.8-3.5,4.9-7.1c0.1-4-0.6-7.9-1.1-11.9c-1.6-11.8-2.7-23.7-9-34.2
			c14.3,0,28.6,0.1,42.9-0.1c3.2,0,4.2,0.4,4.2,4c-0.2,40.4-0.1,80.9-0.1,121.3c0,32.6,0,65.2,0,97.8c0,7,0,7-7,7
			c0.7-8.7,1.7-17.4,1.9-26.2c0.3-12.6-2.2-25-3.1-37.5c-0.6-9.6-3.9-17.2-11.1-23.1c-8.1-6.6-17.5-11.4-24.7-19.1
			c-1.1-1.2-2.9-1.8-4.4-0.1c-1.8,1.9-4.1,3.2-3.4,6.6c1.5,6.7,2.8,13.6,3.7,20.4c0.5,3.7,1.5,6.9-5.6,6.7c-6-0.1-4.5-2.8-4.1-5.2
			c0.9-5,0.4-10-0.9-14.6c-1.8-5.8-0.3-9.8,4.2-12.8c4.3-2.9,5.6-7,6.6-11.6c1.2-5.6,2.2-11.4,4.2-16.7c1.9-5.3,2.9-10.5,2.7-16
			c-0.1-1.4,0.6-3.2-1.5-3.7c-1.9-0.4-3,0.8-4.1,2.2c-1.8,2.4-1.4,5.4-2.2,8.1c-0.6,2-1,2-3,1.4c-5-1.5-6.8-5-6.4-10.1
			c-5,3.3-5,3.3-9.5,1c-7.3-3.8-11.5-1.7-12.3,6.1c-0.2,2.3-1.2,3.9-3.1,5.3c-2.6,2-5.3,3.9-6.2,7.5c-0.9,3.5,1.5,6.6,4.6,5.1
			c5.7-2.9,11.9-3,17.7-4.8c0,1,0,2,0,3c-6.7,0.5-8.9,2.9-8.5,9.2c0.2,2.1-0.4,2.9-2.4,2.5c-5.2-1.1-11.1,0.6-15.6-3.7
			c-1.4-1.3-3.5-0.8-5.3-0.9c-3.5-0.2-6.5-1.1-8.6-4.1c-1-1.4-1.8-3.7-4.1-2.5c-1.9,1-3.3,2.5-3.5,5c-0.7,8.2,0.7,10.6,8.5,13.6
			c3.8,1.5,8.2,2.3,11.2,5.2c6.2,6.2,12.8,10.5,22.2,7.9c1.5-0.4,4.6-0.3,2.9,3.5c-1.6,3.6-1.8,7.4,1.8,10.4
			c1.4,1.2,1.6,2.9,1.4,4.6c-0.4,4.6-0.3,9.3-1.5,13.8c-1,4,0.3,8-1.1,11.8c-0.9,2.4-1.8,3.7-4,1.5c-2.7-2.7-5.6-5.2-8-8.2
			c-8.6-11-18-21.1-29.7-28.8c-1.3-0.8-2.7-2.7-0.5-3.3c2.6-0.7,4.1-1.1,3.9-4.3c-0.2-3.2-2.3-4.3-4.6-5c-5-1.6-5.2-5.5-4.1-9.2
			c1.1-3.7-0.6-5.6-2.9-7.6c-1.6-1.4-3-0.6-4.4,0.4c-2.5,1.8-3.5,4-2.7,7.3c1.2,4.9,1.9,10,2.8,15.1c-1.4,0.6-2.8,1.3-4.1,1.9
			c-1.9,1.1-2.3,2.8-2,4.7c0.8,4.9,1.4,9.8,2.6,14.6c2.2,8.8,8.4,15.6,12.1,23.8c0.8,1.9,2.7,2.2,4.7,2c6.9-0.5,12.5-8.8,11.2-16.7
			c-0.2-0.9-1.1-2.1,0.2-2.6c1.5-0.6,1.8,0.8,2.2,1.9c2.5,6.3,6.5,11.5,11.3,16.2c5.8,5.8,12.4,10.9,16.1,18.7
			c0.9,1.9,1,5.8,4.5,4.7c3.8-1.2,1.7-4.9,2-7.4c0.1-1-0.8-2.1-1.3-3.1c-0.8-1.6-1.1-3.5,0.2-4.7c2.7-2.7,3.2-5.9,3.6-9.5
			c0.4-3.8,1.3-7.5,1.7-11.2c0.2-2.5,2-2.1,3.5-2.6c1.8-0.7,2,0.1,2.7,1.6c1.5,3.8,5.4,4.6,8.8,5.5c1.8,0.5,4.5,1.1,5.6-0.7
			c1.2-2.1,1.4-5.2-0.3-7.1c-2.5-2.7-2.6-5.8-2.1-8.8c1-5.8,0.7-11.4-1-17.1c-0.3-1,0-2.2,0-3.3c4.2,7.1,12.3,9.6,17.4,15.3
			c5.4,6.1,8.7,13.2,8.6,21.7c0,3.8,1.1,7.5,1.4,11.3c0.7,8.6,2.4,17.1,1.3,25.8C626.6,217.3,625.9,223.7,625.6,230.1z M512.5,105.8
			c0-2.9,0.2-4.5-1.4-5.3c-1.6-0.8-3,0.2-4.1,1c-10.2,7.1-20.9,13.5-29.7,22.4c-2.7,2.7-5.7,5.1-8.6,7.5c-1.7,1.4-3.9,2.4-6,1.3
			c-2-1-2-3.2-2-5.3c-0.1-2.1,0.6-4.4-0.7-6.3c-3.1-4.6-4.7-9.8-5.8-15.1c-0.5-2.3-0.2-4.7-0.7-6.9c-0.7-3-2.9-4.8-5.9-3.6
			c-2.2,0.8-4.7,2.4-2.8,5.7c5.1,9.3,7,20,13,28.9c2.5,3.7,2.6,8,1.7,12c-0.9,4,0.9,5.9,4,6.7c2.7,0.7,5.2,0.1,6.8-3.2
			c3.1-6.2,8.3-11,12.2-16.7c1.6-2.3,4.6-1.4,6.5-3.4c5.1-5.6,11.4-9.9,17.8-13.8C509.3,109.9,512.2,108.2,512.5,105.8z M479,188
			c0.8,4.9-0.1,8.7,3.2,11.7C483.2,195.6,482.3,192.3,479,188z"/>
		<path class="st2" d="M516.7,136c3.5,7.7,8.3,14.5,14,20.8c2.5,2.7,1.9,8.6-1.1,10.6c-1.3,0.8-1.8,0-2.3-0.8
			c-4.4-7.6-11-14.2-10.8-23.9c0.1-2.6-0.9-4.5-3.9-4.7C513.9,137.3,515.3,136.7,516.7,136z"/>
		<path class="st2" d="M563.4,62c-1-3.3-3.1-1.8-5.1-1.2c-2.5,0.7-3.6,3.2-5.7,4.5c-1.1-0.8-2.2-1.7-3.3-2.5
			c2.2-5.5,7.2-5.3,11.8-5.8c1.4,0.4,2.8,0.8,4.2,1.1c0.1,0.6,0.3,1.2,0.4,1.9C565.1,60.7,564.7,61.9,563.4,62z"/>
		<path class="st2" d="M573.5,98.9c1.2-1.3,2.6-0.8,4.1-0.7c0,0.9,0,1.9,0,2.8l0,0c-0.3,0.3-0.7,0.6-1,0.8c-1,0-2,0-3,0
			C573.5,100.9,573.5,99.9,573.5,98.9z"/>
		<path class="st2" d="M549.7,69.2c-1,1.2-2.1,1.2-3.2,0.1C547.6,68.4,548.6,68.7,549.7,69.2z"/>
		<path class="st2" d="M580.5,99.2c2.8,0.5,4.9,4.9,3.7,8.3c-0.6,1.7-1.3,3.4-3.2,4.1c-1.9-3,2-8-3.5-9.7c0-0.3,0-0.6,0-0.8l0,0
			C578.9,101,580,100.5,580.5,99.2z"/>
		<path class="st0" d="M580.5,99.2c-0.6,1.3-1.7,1.8-3,1.9c0-0.9,0-1.9,0-2.8C578.8,97.9,579.6,98.7,580.5,99.2z"/>
		<path class="st0" d="M577.6,101.1c0,0.3,0,0.6,0,0.8l-0.5,0.1l-0.5-0.1C576.9,101.7,577.2,101.4,577.6,101.1z"/>
		<path class="st2" d="M509.4,25.6c0,5.2,0,9.7,0,14.3C508.7,35.3,506.2,30.7,509.4,25.6z"/>
		<path class="st2" d="M584.6,54.6c3.2-1.3,5.6-2.5,8.2-3.4c1.2-0.4,2.7-1.8,4-0.1c0.9,1.1-0.7,1.6-0.9,2.4
			c-0.5,1.8-1.4,3.3-3.4,2.5C590.3,54.9,587.8,55.4,584.6,54.6z"/>
	</g>
</g>
<g>
</g>
<g>
</g>
<g>
</g>
<g>
</g>
<g>
</g>
<g>
</g>
<g>
</g>
<g>
</g>
<g>
</g>
<g>
</g>
<g>
</g>
<g>
</g>
<g>
</g>
<g>
</g>
<g>
</g>
</svg>
